<svg xmlns="http://www.w3.org/2000/svg" width="87.93" height="75.63" viewBox="0 0 87.93 75.63"><title>Artboard 9</title><g id="ILLO_3" data-name="ILLO 3"><path d="M57.62-.13,44,13.23,30.3-.14,0,30.18,44,75.52l44-45.34Zm19.09,29.9L58.06,11.11l0-9.34L86,29.69ZM44,63.11,12.16,30.27,30.37,12,44,25.33,57.55,12,75.8,30.27Zm13.1-52L44.46,23.44v-9.3L57.11,1.76ZM43.46,23.44,30.87,11.11l-.06-9.35L43.46,14.14ZM29.87,11.12,11.25,29.77,1.94,29.7,29.81,1.77ZM11.25,30.77,43.46,64v9.54L1.93,30.7ZM44.46,64,76.72,30.77,86,30.69,44.46,73.57Z" style="fill:#491144"/></g></svg>