<svg xmlns="http://www.w3.org/2000/svg" width="86.85" height="74.77" viewBox="0 0 86.85 74.77"><title>Artboard 23</title><g id="ILLO_3" data-name="ILLO 3"><polygon points="0.36 29.52 29.92 -0.1 43.58 13.27 57.23 -0.09 86.84 29.52 43.57 74.14 0.36 29.52" style="fill:#dc5267;stroke:#491144;stroke-miterlimit:10"/><path d="M86.85,29.52,57.23-.09,43.58,13.27,29.92-.1.36,29.52l0,.06C7.49,29.57,85.5,29.49,86.85,29.52Z" style="fill:#da1c5c"/><polygon points="86.84 29.52 43.58 74.14 43.58 63.16 76.12 29.52 86.84 29.52" style="fill:#ab0d48"/><polygon points="86.84 29.52 57.23 -0.09 57.17 10.66 76.12 29.52 86.84 29.52" style="fill:#ab0d48"/><polygon points="43.58 13.27 29.97 0 29.91 10.75 43.58 23.96 43.58 13.27" style="fill:#ab0d48"/><polygon points="11.07 29.6 43.58 63.16 76.12 29.6 11.07 29.6" style="fill:#da1c5c"/></g></svg>