<svg xmlns="http://www.w3.org/2000/svg" width="86.67" height="74.77" viewBox="0 0 86.67 74.77"><title>Artboard 22</title><g id="ILLO_3" data-name="ILLO 3"><polygon points="0.18 29.52 29.74 -0.1 43.4 13.27 57.05 -0.09 86.67 29.52 43.39 74.14 0.18 29.52" style="fill:none;stroke:#491144;stroke-miterlimit:10"/><path d="M86.19,29.54,57.05-.09,43.4,13.27,29.74-.1.18,29.52l.05.06C7.31,29.57,84.85,29.51,86.19,29.54Z" style="fill:none;stroke:#491144;stroke-miterlimit:1"/><polygon points="86.67 29.52 43.4 74.14 43.4 63.16 75.94 29.52 86.67 29.52" style="fill:none"/><polygon points="56.99 10.66 43.4 23.96 29.8 10.66 10.89 29.6 43.4 63.16 75.94 29.6 56.99 10.66" style="fill:none;stroke:#491144;stroke-miterlimit:10"/><polygon points="10.89 29.6 43.4 63.16 75.94 29.6 10.89 29.6" style="fill:none;stroke:#491144;stroke-miterlimit:10"/><line x1="56.99" y1="10.66" x2="57.05" y2="-0.09" style="fill:#da1c5c;stroke:#491144;stroke-miterlimit:10"/><line x1="43.4" y1="13.27" x2="43.4" y2="23.96" style="fill:#da1c5c;stroke:#491144;stroke-miterlimit:10"/><line x1="29.74" y1="-0.1" x2="29.8" y2="10.66" style="fill:#da1c5c;stroke:#491144;stroke-miterlimit:10"/><line x1="43.42" y1="63.18" x2="43.42" y2="74.16" style="fill:#da1c5c;stroke:#491144;stroke-miterlimit:10"/><line x1="75.94" y1="29.6" x2="86.67" y2="29.52" style="fill:#da1c5c;stroke:#491144;stroke-miterlimit:10"/><line x1="0.18" y1="29.52" x2="10.89" y2="29.6" style="fill:#da1c5c;stroke:#491144;stroke-miterlimit:10"/><polygon points="0.15 29.52 29.71 -0.1 43.37 13.27 57.03 -0.09 86.64 29.52 43.37 74.14 0.15 29.52" style="fill:none;stroke:#491144;stroke-miterlimit:10"/></g></svg>