<svg xmlns="http://www.w3.org/2000/svg" width="972" height="618.78" viewBox="0 0 972 618.78"><defs><linearGradient id="a" x1="334.58" y1="679.43" x2="763.59" y2="-63.64" gradientUnits="userSpaceOnUse"><stop offset="0" stop-color="#2484c6"/><stop offset="1" stop-color="#2484c6" stop-opacity="0"/></linearGradient></defs><g data-name="Layer 1"><path d="M898.41 527s-80.61-103.17-1.86-181.93c96.48-96.48-114.65 7.9-12-212.25 91.59-196.49-42.94-110.34-178.88 2.31C628.15 199.38 640-92.46 513 67c-172.92 217.1-131.35-25.34-266.86 89s33.25 165-142.37 196-33.14 175-33.14 175" fill="#dff2f4"/><path d="M898.41 527s-80.61-103.17-1.86-181.93c96.48-96.48-114.65 7.9-12-212.25 91.59-196.49-42.94-110.34-178.88 2.31C628.15 199.38 640-92.46 513 67c-172.92 217.1-131.35-25.34-266.86 89s33.25 165-142.37 196-33.14 175-33.14 175" style="mix-blend-mode:hard-light" fill="url(#a)"/><path d="M156.74 381.88a19.26 19.26 0 0 1 28.38 1.75l10 12.34a19.26 19.26 0 0 0 28.47 1.66l52.33-51.3a19.27 19.27 0 0 1 27.22.25l39.42 40.09a19.26 19.26 0 0 0 25.44 1.72l47.23-36.54a19.27 19.27 0 0 1 22.54-.75l66.79 44.95a19.27 19.27 0 0 0 25.65-3.77l31.82-38.79a19.27 19.27 0 0 1 29.14-.74l25.95 28.52a19.27 19.27 0 0 0 28.73-.26l41.52-47.31a19.27 19.27 0 0 1 28.89-.07l64.31 72.51a19.26 19.26 0 0 0 28.19.68 19.26 19.26 0 0 1 29.92 2.95L922.51 539l-80.69 75.78-735.95-8.95-81.64-109.41z" fill="#fff"/><path d="M933.37 477.33c2.12 6.53-3 21.69-11.49 24.44s-17-7.95-19.16-14.48 3-14.06 11.48-16.81 17.05.32 19.17 6.85zM400.63 64.21C399 74.83 392.08 82.57 385.2 81.5s-15.59-12.6-13.94-23.21 12.86-19 19.79-19.66c8.83-.84 11.22 14.97 9.58 25.58zm-265.88 235c-3.29 3-12.56 1.32-15.56-2s-3.4-10.56-.12-13.55 9-.59 12 2.69 6.93 9.86 3.68 12.86zM660.2 37.2a25.31 25.31 0 0 1 49.9 8.54c-2.36 13.78-23.31 32.56-37.1 30.2S657.84 51 660.2 37.2z" fill="#dff2f4"/><circle cx="922.51" cy="215.51" r="29.16" fill="#dff2f4"/><path d="M665.38 49.57a45.55 45.55 0 0 0-42 28 4.77 4.77 0 0 1-7.52 1.88 20.78 20.78 0 0 0-33.47 9.34 4.83 4.83 0 0 0 4.58 6.32h118.85a4.82 4.82 0 0 0 4.79-5.39 45.56 45.56 0 0 0-45.23-40.15zm279.75 75.9a33.16 33.16 0 0 0-27.55 14.67 4.94 4.94 0 0 1-8.61-.65 45.54 45.54 0 0 0-78.69-6.83 4.93 4.93 0 0 1-7 1 31.29 31.29 0 0 0-49.55 19.11 4.93 4.93 0 0 0 4.82 5.9H913.2l38.47.4c-21.31.4.52-13.08 0-16.06-2.67-15.63 9.86-17.54-6.54-17.54zM755 148.28a10.39 10.39 0 0 0-9.7 6.66 2.76 2.76 0 0 0 2.59 3.73h14.21a2.76 2.76 0 0 0 2.59-3.73 10.39 10.39 0 0 0-9.69-6.66zm43.67 64.99a5.06 5.06 0 0 0-2.57.69 2.4 2.4 0 0 0 1.19 4.49h2.77a2.4 2.4 0 0 0 1.34-4.39 5.1 5.1 0 0 0-2.73-.79zM68 402.59a15.63 15.63 0 0 0-11.07 4.58 4.89 4.89 0 0 1-7.56-.76 21.45 21.45 0 0 0-36.67 1.41c-1.28 2.29 2.31 1.23 0 0-1.37-.72-7.38 10.42-1.23 10.42h66.1a4.88 4.88 0 0 0 4.46-7A15.67 15.67 0 0 0 68 402.59zm400.78-249.97a10.41 10.41 0 0 0-9.69 6.61 2.79 2.79 0 0 0 2.62 3.78h14.13a2.79 2.79 0 0 0 2.62-3.78 10.39 10.39 0 0 0-9.68-6.61zm-254.88 186a13.07 13.07 0 0 0-12.19 8.38 3.47 3.47 0 0 0 3.25 4.69h17.88a3.47 3.47 0 0 0 3.25-4.69 13.07 13.07 0 0 0-12.19-8.38zM803.39 344a11.51 11.51 0 0 0-11.31 9.39 1.81 1.81 0 0 0 1.8 2.12h19a1.79 1.79 0 0 0 1.78-2.1 11.52 11.52 0 0 0-11.27-9.41zm45.49-10.13a21.61 21.61 0 0 0-21.21 17.48 3.49 3.49 0 0 0 3.45 4.12h35.52a3.5 3.5 0 0 0 3.46-4.12 21.62 21.62 0 0 0-21.22-17.48zM816 73.8a21.63 21.63 0 0 0-21.22 17.49 3.5 3.5 0 0 0 3.46 4.12h35.52a3.49 3.49 0 0 0 3.45-4.12A21.61 21.61 0 0 0 816 73.8z" fill="#fff"/><circle cx="261.98" cy="129.71" r="81.3" fill="#fde9f1"/><circle cx="261.98" cy="129.71" r="81.3" fill="#fde9f1" opacity=".26"/><path d="M351.33 174.13a15.54 15.54 0 0 0-11 4.53 4.92 4.92 0 0 1-7.59-.76 21.41 21.41 0 0 0-36.56 1.45 4.75 4.75 0 0 1-6.44 1.74 9.77 9.77 0 0 0-13 3.72 3.3 3.3 0 0 0 2.87 4.93h83.17a3.6 3.6 0 0 0 3.44-4.67 15.61 15.61 0 0 0-14.89-10.94zm84.08 59.78a32.39 32.39 0 0 0-31.79 26.2 5.24 5.24 0 0 0 5.18 6.17H462a5.24 5.24 0 0 0 5.18-6.17 32.39 32.39 0 0 0-31.77-26.2z" fill="#fff"/></g></svg>