<svg xmlns="http://www.w3.org/2000/svg" xmlns:xlink="http://www.w3.org/1999/xlink" width="972" height="618.78" viewBox="0 0 972 618.78"><defs><linearGradient id="linear-gradient" x1="334.58" y1="679.43" x2="763.59" y2="-63.64" gradientUnits="userSpaceOnUse"><stop offset="0" stop-color="#2484c6"/><stop offset="1" stop-color="#2484c6" stop-opacity="0"/></linearGradient></defs><title>Artboard 2</title><g style="isolation:isolate"><g id="Layer_1" data-name="Layer 1"><path d="M898.41,527s-80.61-103.17-1.86-181.93c96.48-96.48-114.65,7.9-12-212.25,91.59-196.49-42.94-110.34-178.88,2.31C628.15,199.38,640-92.46,513,67c-172.92,217.1-131.35-25.34-266.86,89s33.25,165-142.37,196S70.63,527,70.63,527" style="fill:#dff2f4"/><path d="M898.41,527s-80.61-103.17-1.86-181.93c96.48-96.48-114.65,7.9-12-212.25,91.59-196.49-42.94-110.34-178.88,2.31C628.15,199.38,640-92.46,513,67c-172.92,217.1-131.35-25.34-266.86,89s33.25,165-142.37,196S70.63,527,70.63,527" style="mix-blend-mode:hard-light;fill:url(#linear-gradient)"/><g id="VEmhXb"><path d="M156.74,381.88a19.26,19.26,0,0,1,28.38,1.75l10,12.34a19.26,19.26,0,0,0,28.47,1.66l52.33-51.3a19.27,19.27,0,0,1,27.22.25l39.42,40.09A19.26,19.26,0,0,0,368,388.39l47.23-36.54a19.27,19.27,0,0,1,22.54-.75l66.79,44.95a19.27,19.27,0,0,0,25.65-3.77l31.82-38.79a19.27,19.27,0,0,1,29.14-.74l25.95,28.52a19.27,19.27,0,0,0,28.73-.26l41.52-47.31a19.27,19.27,0,0,1,28.89-.07l64.31,72.51a19.26,19.26,0,0,0,28.19.68h0a19.26,19.26,0,0,1,29.92,2.95L922.51,539l-80.69,75.78-735.95-8.95L24.23,496.42Z" style="fill:#fff"/></g><path d="M933.37,477.33c2.12,6.53-3,21.69-11.49,24.44s-17-7.95-19.16-14.48,3-14.06,11.48-16.81S931.25,470.8,933.37,477.33Z" style="fill:#dff2f4"/><path d="M400.63,64.21C399,74.83,392.08,82.57,385.2,81.5s-15.59-12.6-13.94-23.21,12.86-19,19.79-19.66C399.88,37.79,402.27,53.6,400.63,64.21Z" style="fill:#dff2f4"/><path d="M134.75,299.21c-3.29,3-12.56,1.32-15.56-2s-3.4-10.56-.12-13.55,9-.59,12,2.69S138,296.21,134.75,299.21Z" style="fill:#dff2f4"/><path d="M660.2,37.2a25.31,25.31,0,0,1,49.9,8.54C707.74,59.52,686.79,78.3,673,75.94S657.84,51,660.2,37.2Z" style="fill:#dff2f4"/><circle cx="922.51" cy="215.51" r="29.16" style="fill:#dff2f4"/><path d="M665.38,49.57a45.55,45.55,0,0,0-42,28,4.77,4.77,0,0,1-7.52,1.88,20.78,20.78,0,0,0-33.47,9.34,4.83,4.83,0,0,0,4.58,6.32H705.82a4.82,4.82,0,0,0,4.79-5.39A45.56,45.56,0,0,0,665.38,49.57Z" style="fill:#fff"/><path d="M945.13,125.47a33.16,33.16,0,0,0-27.55,14.67,4.94,4.94,0,0,1-8.61-.65,45.54,45.54,0,0,0-78.69-6.83,4.93,4.93,0,0,1-7,1,31.29,31.29,0,0,0-49.55,19.11,4.93,4.93,0,0,0,4.82,5.9H913.2l38.47.4c-21.31.4.52-13.08,0-16.06C949,127.38,961.53,125.47,945.13,125.47Z" style="fill:#fff"/><path d="M755,148.28a10.39,10.39,0,0,0-9.7,6.66,2.76,2.76,0,0,0,2.59,3.73H762.1a2.76,2.76,0,0,0,2.59-3.73A10.39,10.39,0,0,0,755,148.28Z" style="fill:#fff"/><path d="M798.67,213.27a5.06,5.06,0,0,0-2.57.69,2.4,2.4,0,0,0,1.19,4.49h2.77a2.4,2.4,0,0,0,1.34-4.39A5.1,5.1,0,0,0,798.67,213.27Z" style="fill:#fff"/><path d="M68,402.59a15.63,15.63,0,0,0-11.07,4.58,4.89,4.89,0,0,1-7.56-.76,21.45,21.45,0,0,0-36.67,1.41c-1.28,2.29,2.31,1.23,0,0-1.37-.72-7.38,10.42-1.23,10.42h66.1a4.88,4.88,0,0,0,4.46-7A15.67,15.67,0,0,0,68,402.59Z" style="fill:#fff"/><path d="M468.78,152.62a10.41,10.41,0,0,0-9.69,6.61,2.79,2.79,0,0,0,2.62,3.78h14.13a2.79,2.79,0,0,0,2.62-3.78A10.39,10.39,0,0,0,468.78,152.62Z" style="fill:#fff"/><path d="M213.9,338.62A13.07,13.07,0,0,0,201.71,347a3.47,3.47,0,0,0,3.25,4.69h17.88a3.47,3.47,0,0,0,3.25-4.69A13.07,13.07,0,0,0,213.9,338.62Z" style="fill:#fff"/><path d="M803.39,344a11.51,11.51,0,0,0-11.31,9.39,1.81,1.81,0,0,0,1.8,2.12h19a1.79,1.79,0,0,0,1.78-2.1A11.52,11.52,0,0,0,803.39,344Z" style="fill:#fff"/><path d="M848.88,333.87a21.61,21.61,0,0,0-21.21,17.48,3.49,3.49,0,0,0,3.45,4.12h35.52a3.5,3.5,0,0,0,3.46-4.12A21.62,21.62,0,0,0,848.88,333.87Z" style="fill:#fff"/><path d="M816,73.8a21.63,21.63,0,0,0-21.22,17.49,3.5,3.5,0,0,0,3.46,4.12h35.52a3.49,3.49,0,0,0,3.45-4.12A21.61,21.61,0,0,0,816,73.8Z" style="fill:#fff"/><circle cx="261.98" cy="129.71" r="81.3" style="fill:#fde9f1"/><g style="opacity:0.26;mix-blend-mode:multiply"><circle cx="261.98" cy="129.71" r="81.3" style="fill:#fde9f1"/></g><path d="M351.33,174.13a15.54,15.54,0,0,0-11,4.53,4.92,4.92,0,0,1-7.59-.76,21.41,21.41,0,0,0-36.56,1.45,4.75,4.75,0,0,1-6.44,1.74,9.77,9.77,0,0,0-13,3.72,3.3,3.3,0,0,0,2.87,4.93h83.17a3.6,3.6,0,0,0,3.44-4.67A15.61,15.61,0,0,0,351.33,174.13Z" style="fill:#fff"/><path d="M435.41,233.91a32.39,32.39,0,0,0-31.79,26.2,5.24,5.24,0,0,0,5.18,6.17H462a5.24,5.24,0,0,0,5.18-6.17A32.39,32.39,0,0,0,435.41,233.91Z" style="fill:#fff"/></g></g></svg>