<svg xmlns="http://www.w3.org/2000/svg" width="46" height="31.02" viewBox="0 0 46 31.02"><title>Artboard 15</title><g style="isolation:isolate"><g id="Layer_1" data-name="Layer 1"><polygon points="30.73 16.34 30.73 8.3 23.77 4.28 16.81 8.3 16.81 16.34 23.77 20.36 30.73 16.34" style="fill:#fff;opacity:0.4"/><polygon points="30.73 16.34 30.73 8.3 23.77 4.28 16.81 8.3 16.81 16.34 23.77 20.36 30.73 16.34" style="fill:none;stroke:#7c3990;stroke-miterlimit:10;stroke-width:0.633663842763702px"/><polygon points="7.82 18.69 7.82 21.1 37.81 21.1 36.79 18.69 7.82 18.69" style="fill:#da1c5c"/><polygon points="37.31 18.48 38.33 20.89 42.63 16.57 39.21 16.57 37.31 18.48" style="fill:#da1c5c"/><polygon points="43.7 16.29 43.5 16.09 43.3 16.29 43.3 16.29 43.3 16.29 43.3 16.29 43.3 16.57 42.63 16.57 38.33 20.89 38.49 21.27 37.98 21.49 37.81 21.1 7.82 21.1 7.82 21.66 38.35 21.66 43.7 16.29" style="fill:#7c3990"/><polygon points="39.21 16.01 42.63 16.01 38.33 11.68 37.31 14.1 39.21 16.01" style="fill:#f6ebf4"/><polygon points="37.81 11.47 7.82 11.47 7.82 13.88 36.79 13.88 37.81 11.47" style="fill:#f6ebf4"/><polygon points="43.3 16.29 43.3 16.29 43.3 16.29 43.3 16.29" style="fill:#f6ebf4"/><polygon points="7.82 11.47 37.81 11.47 37.98 11.08 38.49 11.3 38.33 11.68 42.63 16.01 43.3 16.01 43.3 16.29 43.3 16.29 43.3 16.29 43.5 16.09 43.5 16.09 38.35 10.91 7.82 10.91 7.82 11.47" style="fill:#7d398f"/><polygon points="37.09 18.69 36.79 18.69 37.81 21.1 37.98 21.49 38.49 21.27 38.33 20.89 37.31 18.48 37.09 18.69" style="fill:#7d398f"/><polygon points="43.3 16.01 42.63 16.01 39.21 16.01 39.48 16.29 39.21 16.57 42.63 16.57 43.3 16.57 43.3 16.29 43.3 16.01" style="fill:#7d398f"/><polygon points="37.09 13.88 37.31 14.1 38.33 11.68 38.49 11.3 37.98 11.08 37.81 11.47 36.79 13.88 37.09 13.88" style="fill:#7d398f"/><polygon points="38.7 16.29 36.86 14.44 7.82 14.44 7.82 18.13 36.86 18.13 38.7 16.29" style="fill:#e6cbe2"/><polygon points="37.09 18.69 37.31 18.48 39.21 16.57 39.48 16.29 39.21 16.01 37.31 14.1 37.09 13.88 36.79 13.88 7.82 13.88 7.82 14.44 36.86 14.44 38.7 16.29 36.86 18.13 7.82 18.13 7.82 18.69 36.79 18.69 37.09 18.69" style="fill:#7d398f"/><polygon points="8.38 21.66 8.38 19.78 8.38 10.91 7.82 10.91 7.82 19.78 7.82 21.66 8.1 21.66 8.38 21.66" style="fill:#7d398f"/><line x1="9.44" y1="10.91" x2="9.44" y2="5.61" style="fill:none;stroke:#7c3990;stroke-miterlimit:10;stroke-width:0.633663842763702px"/><line x1="11.99" y1="11.08" x2="9.44" y2="5.61" style="fill:none;stroke:#7c3990;stroke-miterlimit:10;stroke-width:0.633663842763702px"/><rect x="3.73" y="3.46" width="8.19" height="4.31" style="fill:#da1c5c"/><path d="M12.13,8H3.51V3.24h8.62ZM3.94,7.55H11.7V3.67H3.94Z" style="fill:#7c3990"/><rect x="3.73" y="3.46" width="8.19" height="2.15" style="fill:#e5cbe2"/><path d="M12.13,5.82H3.51V3.24h8.62ZM3.94,5.4H11.7V3.67H3.94Z" style="fill:#7c3990"/><rect x="11.92" y="25.29" width="23.43" height="3.32" rx="1.66" ry="1.66" style="fill:#c9c9c9;opacity:0.45;mix-blend-mode:multiply"/></g></g></svg>