<svg xmlns="http://www.w3.org/2000/svg" width="67.25" height="55.43" viewBox="0 0 67.25 55.43"><g data-name="Layer 1"><path fill="#fde9f1" d="M23.88 11.5l-1.42-1.47-3.66 8.36 1.74.76 3.34-7.65zm3.35-1.67l1.07-2.44L23 9.45l1.42 1.48 2.81-1.1z"/><path fill="#ee2a7b" d="M25.65 21.38l1.74.76 3.68-8.41-2.05-.05-3.37 7.7zm3.38-8.48l2.05.04-2.06-5.23-1.07 2.44 1.08 2.75z"/><path fill="#ebb8d5" d="M27.3 10.65l-2.63 1.02-3.41 7.79 3.67 1.61 3.41-7.79-1.04-2.63z"/><path fill="#a02373" d="M29.26 6.17l-7.2 2.8-3.98 9.1.72.32 3.66-8.36-.48-.49.57-.55.45.46 5.3-2.06.37-.87.73.32-.38.87 2.06 5.23.53.01-.02.79-.52-.01-3.68 8.41.72.32 3.98-9.1-2.83-7.19z"/><path fill="#a02373" d="M27.75 9.63l.2.52 1.07-2.44.38-.87-.73-.32-.37.87-1.07 2.44.52-.2zm1.44 3.66l-.17.39 2.05.05.52.01.02-.79-.53-.01-2.05-.04.16.39zm-5.11-2.23l.34-.13L23 9.45l-.45-.46-.57.55.48.49 1.42 1.47.2-.44z"/><path fill="#a02373" d="M29.19 13.29l-.16-.39-1.08-2.75-.2-.52-.52.2-2.81 1.1-.34.13-.2.44-3.34 7.65.72.31 3.41-7.79 2.63-1.02 1.04 2.63-3.41 7.79.72.31 3.37-7.7.17-.39z"/><path fill="#fde9f1" d="M7.64 13.08l-2.05-.2 2.67 8.73 1.82-.55-2.44-7.98zm1.45-3.45l-.78-2.55-2.68 5.02 2.04.19 1.42-2.66z"/><path fill="#ee2a7b" d="M15.41 19.42l1.82-.55-2.69-8.78-1.58 1.3 2.45 8.03zm-2.96-8.64l1.59-1.3-4.98-2.63.78 2.55 2.61 1.38z"/><path fill="#ebb8d5" d="M9.68 10.21L8.34 12.7l2.49 8.13 3.83-1.18-2.49-8.12-2.49-1.32z"/><path fill="#a02373" d="M8.25 5.53l-3.64 6.81 2.9 9.5.75-.23-2.67-8.73-.67-.06.07-.78.64.06 2.68-5.02-.28-.9.76-.23.27.9 4.98 2.63.41-.33.5.61-.41.33 2.69 8.78.75-.23-2.91-9.5-6.82-3.61z"/><path fill="#a02373" d="M9.35 9.14l.49.26-.78-2.55-.27-.9-.76.23.28.9.78 2.55.26-.49zm3.48 1.84l.13.41 1.58-1.3.41-.33-.5-.61-.41.33-1.59 1.3.38.2zM7.5 12.61l.17-.32-2.04-.19-.64-.06-.07.78.67.06 2.05.2-.14-.47z"/><path fill="#a02373" d="M12.83 10.98l-.38-.2L9.84 9.4l-.49-.26-.26.49-1.42 2.66-.17.32.14.47 2.44 7.98.75-.23-2.49-8.13 1.34-2.49 2.49 1.32 2.49 8.12.75-.23-2.45-8.03-.13-.41z"/><path fill="#fde9f1" d="M15.98 10l-1.91-.77.09 9.13 1.9-.02-.08-8.34zm2.37-2.89l-.03-2.67-3.99 4.05 1.9.76 2.12-2.14z"/><path fill="#ee2a7b" d="M21.64 18.29l1.9-.02-.09-9.19-1.89.8.08 8.41zm-.39-9.13l1.89-.8-4.03-3.93.03 2.67 2.11 2.06z"/><path fill="#ebb8d5" d="M18.75 7.82l-1.98 2.01.08 8.5 4.01-.04-.09-8.5-2.02-1.97z"/><path fill="#a02373" d="M18.7 2.93l-5.42 5.5.1 9.94.78-.01-.09-9.13-.63-.25.3-.73.59.24 3.99-4.05-.01-.95.79-.01.01.95 4.03 3.93.48-.21.31.73-.48.2.09 9.19.79-.01-.1-9.94-5.53-5.39z"/><path fill="#a02373" d="M18.74 6.71l.4.39-.03-2.67-.01-.95-.79.01.01.95.03 2.67.39-.4zm2.81 2.75l.01.42 1.89-.8.48-.2-.31-.73-.48.21-1.89.8.3.3zm-5.58.05l.26-.26-1.9-.76-.59-.24-.3.73.63.25 1.91.77-.01-.49z"/><path fill="#a02373" d="M21.55 9.46l-.3-.3-2.11-2.06-.4-.39-.39.4-2.12 2.14-.26.26.01.49.08 8.34.79-.01-.08-8.5 1.98-2.01 2.02 1.97.09 8.5h.78l-.08-8.41-.01-.42z"/><path fill="none" stroke="#7d398f" stroke-linejoin="bevel" stroke-width=".845" d="M39.04 40.32L31.5 26.99m7.54 7.42L31.5 21.07"/><path fill="#fff" opacity=".4" d="M52.02 32.26V25.8l-5.6-3.23-5.59 3.23v6.46l5.59 3.22 5.6-3.22z"/><path fill="none" stroke="#7c3990" stroke-miterlimit="10" stroke-width=".634" d="M52.02 32.26V25.8l-5.6-3.23-5.59 3.23v6.46l5.59 3.22 5.6-3.22z"/><path fill="#da1c5c" d="M38.21 39.86v3.58h17.47l-1.52-3.58H38.21zm16.72-.32l1.52 3.58 6.39-6.42h-5.09l-2.82 2.84z"/><path fill="#7c3990" d="M64.43 36.28l-.29-.29-.3.29v.42h-1l-6.39 6.42.24.57-.76.33-.25-.58H38.21v.83h18.27l7.95-7.99z"/><path fill="#f6ebf4" d="M57.75 35.87h5.09l-6.39-6.43-1.53 3.58 2.83 2.85zm-2.07-6.75H38.21v3.58h15.95l1.52-3.58zm8.16 7.16z"/><path fill="#7d398f" d="M38.21 29.12h17.47l.25-.57.76.32-.24.57 6.39 6.43h1v.41l.3-.29-7.66-7.7H38.21v.83zm16.4 10.74h-.45l1.52 3.58.25.58.76-.33-.24-.57-1.52-3.58-.32.32z"/><path fill="#7d398f" d="M63.84 35.87h-6.09l.41.41-.41.42h6.09v-.83zm-9.23-3.17l.31.32 1.53-3.58.24-.57-.76-.32-.25.57-1.52 3.58h.45z"/><path fill="#e6cbe2" d="M56.99 36.28l-2.73-2.75H38.21v5.5h16.05l2.73-2.75z"/><path fill="#7d398f" d="M54.61 39.86l.32-.32 2.82-2.84.41-.42-.41-.41-2.83-2.85-.31-.32h-16.4v.83h16.05l2.73 2.75-2.73 2.75H38.21v.83h16.4z"/><path fill="#7d398f" d="M39.04 28.29h-.83v15.98h.83v-2.79"/><path fill="#bd92c2" stroke="#7d398f" stroke-miterlimit="10" stroke-width=".845" d="M5.37 18.17v12.49l13.06 13 13.07-13V18.17"/><path fill="#f5ebf4" stroke="#7d398f" stroke-linejoin="bevel" stroke-width=".845" d="M5.37 18.17v12.49l13.06 13 .02-13V18.17"/><path fill="#e6cbe2" stroke="#7d398f" stroke-miterlimit="10" stroke-width=".845" d="M23.89 18.17v9.26l-5.45 5.42-5.46-5.42v-9.26"/><path fill="none" stroke="#7d398f" stroke-miterlimit="10" stroke-width=".845" d="M23.89 27.43l7.61 3.23m-13.06 2.19v10.81m-5.46-16.23l-7.61 3.23"/><path fill="none" stroke="#7d398f" stroke-linecap="square" stroke-miterlimit="10" stroke-width=".845" d="M31.5 18.17H5.37"/><path fill="none" stroke="#7d398f" stroke-linejoin="bevel" stroke-width=".845" d="M34.9 27.22v5.9m-3.07-6.26h3.07m.37 6.26h3.07m-.13 6.42H22.58"/><rect x="40.67" y="47.65" width="14.67" height="3.32" rx="1.41" ry="1.41" style="mix-blend-mode:multiply" fill="#c9c9c9" opacity=".45"/><rect x="8.34" y="47.65" width="20.68" height="3.32" rx="1.41" ry="1.41" style="mix-blend-mode:multiply" fill="#c9c9c9" opacity=".45"/></g></svg>