<svg data-name="Layer 1" xmlns="http://www.w3.org/2000/svg" width="54" height="242.5" viewBox="0 0 54 242.5"><path fill="#ee2a7b" stroke="#a02373" stroke-miterlimit="10" stroke-width=".845" d="M15.64 233.64V26.61l13.77-13.7 13.78 13.7v207.03"/><path fill="#fce9f1" stroke="#a02373" stroke-linejoin="bevel" stroke-width=".845" d="M15.64 233.64V26.61l13.77-13.7.02 13.7v207.03"/><path fill="#e9b7d5" stroke="#a02373" stroke-miterlimit="10" stroke-width=".845" d="M23.66 233.64V30.02l5.75-5.72 5.75 5.72v203.62"/><path fill="none" stroke="#a02373" stroke-miterlimit="10" stroke-width=".845" d="M35.16 30.02l8.03-3.41M29.41 24.3V12.91m-5.75 17.11l-8.02-3.41"/><path d="M30.26 229.76h-1.69v-5.07h1.69zm0-10.14h-1.69v-5.07h1.69zm0-10.14h-1.69v-5.07h1.69zm0-10.13h-1.69v-5.07h1.69zm0-10.14h-1.69v-5.07h1.69zm0-10.14h-1.69V174h1.69zm0-10.14h-1.69v-5.07h1.69zm0-10.14h-1.69v-5.07h1.69zm0-10.14h-1.69v-5.07h1.69zm0-10.14h-1.69v-5.07h1.69zm0-10.14h-1.69v-5.06h1.69zm0-10.13h-1.69v-5.07h1.69zm0-10.14h-1.69V103h1.69zm0-10.14h-1.69v-5.07h1.69zm0-10.14h-1.69v-5.07h1.69zm0-10.14h-1.69v-5.07h1.69zm0-10.14h-1.69v-5.07h1.69zm0-10.14h-1.69v-5.06h1.69zm0-10.13h-1.69V42.2h1.69z" fill="#a02373"/><path fill="#a02373" opacity=".5" d="M15.4 105.91h28.08v3.74H15.4zm0 72.39h28.08v3.74H15.4z"/><path fill="#a02373" opacity=".4" d="M15.64 233.64V26.61l13.77-13.7 13.78 13.7v207.03"/></svg>