<svg xmlns="http://www.w3.org/2000/svg" xmlns:xlink="http://www.w3.org/1999/xlink" width="846" height="526.78" viewBox="0 0 846 526.78"><defs><linearGradient id="Fading_Sky" x1="18.38" y1="455.46" x2="821.62" y2="455.46" gradientUnits="userSpaceOnUse"><stop offset="0" stop-color="#2484c6"/><stop offset="1" stop-color="#2484c6" stop-opacity="0"/></linearGradient><linearGradient id="Fading_Sky-2" x1="137.54" y1="385.01" x2="694.81" y2="385.01" xlink:href="#Fading_Sky"/><linearGradient id="linear-gradient" x1="249.83" y1="537.95" x2="578.04" y2="262.55" gradientUnits="userSpaceOnUse"><stop offset="0" stop-color="#007a48"/><stop offset="0.6" stop-color="#cbdb2a" stop-opacity="0"/></linearGradient></defs><title>Artboard 2</title><g style="isolation:isolate"><g id="Layer_1" data-name="Layer 1"><path d="M18.38,404.11S91,506.82,433.77,506.82c256.62,0,387.85-102.71,387.85-102.71Z" style="fill:#dff2f4"/><g style="mix-blend-mode:hard-light"><path d="M18.38,404.11S91,506.82,433.77,506.82c256.62,0,387.85-102.71,387.85-102.71Z" style="fill:url(#Fading_Sky)"/></g><polygon points="664.35 365.4 169.4 365.4 178.93 354.13 654.6 354.13 664.35 365.4" style="fill:#f4dfe8"/><polyline points="316.09 354.13 316.09 191.49 329.87 177.79 343.64 191.49 343.64 354.13" style="fill:#ee2a7b;stroke:#a02373;stroke-miterlimit:10;stroke-width:0.844885123684936px"/><polyline points="316.09 354.13 316.09 191.49 329.87 177.79 329.89 191.49 329.89 354.13" style="fill:#fce9f1;stroke:#a02373;stroke-linejoin:bevel;stroke-width:0.844885123684936px"/><polyline points="324.12 354.13 324.12 194.9 329.87 189.19 335.62 194.9 335.62 354.13" style="fill:#e9b7d5;stroke:#a02373;stroke-miterlimit:10;stroke-width:0.844885123684936px"/><line x1="335.62" y1="194.9" x2="343.64" y2="191.49" style="fill:none;stroke:#a02373;stroke-miterlimit:10;stroke-width:0.844885123684936px"/><line x1="324.12" y1="194.9" x2="316.09" y2="191.49" style="fill:none;stroke:#a02373;stroke-miterlimit:10;stroke-width:0.844885123684936px"/><path d="M330.71,349.26H329v-4.42h1.69Zm0-9.49H329V334.7h1.69Zm0-10.14H329v-5.07h1.69Zm0-10.14H329v-5.07h1.69Zm0-10.14H329v-5.07h1.69Zm0-10.14H329v-5.07h1.69Zm0-10.14H329V284h1.69Zm0-10.13H329v-5.07h1.69Zm0-10.14H329v-5.07h1.69Zm0-10.14H329v-5.07h1.69Zm0-10.14H329v-5.07h1.69Zm0-10.14H329v-5.07h1.69Zm0-10.14H329v-5.07h1.69Zm0-10.14H329V213h1.69Zm0-10.13H329V202.9h1.69Z" style="fill:#a02373"/><rect x="315.85" y="298.8" width="28.08" height="3.74" style="fill:#a02373;opacity:0.5"/><polyline points="462.51 353.84 462.51 171.61 476.29 157.91 490.06 171.61 490.06 353.84" style="fill:#ee2a7b;stroke:#a02373;stroke-miterlimit:10;stroke-width:0.844885123684936px"/><polyline points="462.51 353.84 462.51 171.61 476.29 157.91 476.31 171.61 476.31 353.84" style="fill:#fce9f1;stroke:#a02373;stroke-linejoin:bevel;stroke-width:0.844885123684936px"/><polyline points="470.54 353.84 470.54 175.02 476.29 169.3 482.04 175.01 482.04 353.84" style="fill:#e9b7d5;stroke:#a02373;stroke-miterlimit:10;stroke-width:0.844885123684936px"/><line x1="482.04" y1="175.01" x2="490.06" y2="171.61" style="fill:none;stroke:#a02373;stroke-miterlimit:10;stroke-width:0.844885123684936px"/><line x1="476.29" y1="169.3" x2="476.29" y2="157.91" style="fill:none;stroke:#a02373;stroke-miterlimit:10;stroke-width:0.844885123684936px"/><line x1="470.54" y1="175.02" x2="462.51" y2="171.61" style="fill:none;stroke:#a02373;stroke-miterlimit:10;stroke-width:0.844885123684936px"/><path d="M477.13,347.72h-1.69v-5.07h1.69Zm0-10.14h-1.69v-5.07h1.69Zm0-10.13h-1.69v-5.07h1.69Zm0-10.14h-1.69v-5.07h1.69Zm0-10.14h-1.69V302.1h1.69Zm0-10.14h-1.69V292h1.69Zm0-10.14h-1.69v-5.07h1.69Zm0-10.14h-1.69v-5.07h1.69Zm0-10.14h-1.69v-5.07h1.69Zm0-10.14h-1.69v-5.06h1.69Zm0-10.13h-1.69v-5.07h1.69Zm0-10.14h-1.69v-5.07h1.69Zm0-10.14h-1.69V221h1.69Zm0-10.14h-1.69v-5.07h1.69Zm0-10.14h-1.69v-5.07h1.69Zm0-10.14h-1.69v-5.07h1.69Z" style="fill:#a02373"/><rect x="462.25" y="258.47" width="28.08" height="3.34" style="fill:#a02373;opacity:0.5"/><polyline points="499.36 354.38 499.36 233.74 513.13 220.03 526.91 233.74 526.91 354.38" style="fill:#ee2a7b;stroke:#a02373;stroke-miterlimit:10;stroke-width:0.844885123684936px"/><polyline points="499.36 354.38 499.36 233.74 513.13 220.03 513.15 233.74 513.15 354.38" style="fill:#fce9f1;stroke:#a02373;stroke-linejoin:bevel;stroke-width:0.844885123684936px"/><polyline points="507.38 354.38 507.38 237.15 513.13 231.43 518.88 237.15 518.88 354.38" style="fill:#e9b7d5;stroke:#a02373;stroke-miterlimit:10;stroke-width:0.844885123684936px"/><line x1="518.89" y1="237.14" x2="526.91" y2="233.74" style="fill:none;stroke:#a02373;stroke-miterlimit:10;stroke-width:0.844885123684936px"/><line x1="513.14" y1="231.43" x2="513.13" y2="220.04" style="fill:none;stroke:#a02373;stroke-miterlimit:10;stroke-width:0.844885123684936px"/><line x1="507.38" y1="237.15" x2="499.36" y2="233.74" style="fill:none;stroke:#a02373;stroke-miterlimit:10;stroke-width:0.844885123684936px"/><path d="M514,347.66h-1.69v-5.07H514Zm0-10.14h-1.69v-5.07H514Zm0-10.14h-1.69v-5.07H514Zm0-10.13h-1.69v-5.07H514Zm0-10.14h-1.69V302H514ZM514,297h-1.69V291.9H514Zm0-10.14h-1.69v-5.07H514Zm0-10.14h-1.69v-5.07H514Zm0-10.14h-1.69v-5.07H514Zm0-10.14h-1.69v-5.07H514Z" style="fill:#a02373"/><rect x="498.97" y="315.06" width="28.08" height="3.43" style="fill:#a02373;opacity:0.5"/><polyline points="384.31 353.29 384.31 77.09 417.92 43.66 451.53 77.09 451.53 354.08" style="fill:#ee2a7b;stroke:#a02373;stroke-miterlimit:10;stroke-width:0.844885123684936px"/><line x1="438.78" y1="81.64" x2="451.53" y2="77.09" style="fill:none;stroke:#a02373;stroke-miterlimit:10;stroke-width:0.844885123684936px"/><polyline points="384.31 354.08 384.31 77.09 417.92 43.66 417.92 77.09 417.92 354.08" style="fill:#fce9f1;stroke:#a02373;stroke-linejoin:bevel;stroke-width:0.844885123684936px"/><line x1="397.06" y1="81.64" x2="384.31" y2="77.09" style="fill:none;stroke:#a02373;stroke-miterlimit:10;stroke-width:0.844885123684936px"/><line x1="417.92" y1="43.66" x2="417.92" y2="60.93" style="fill:none;stroke:#a02373;stroke-miterlimit:10;stroke-width:0.844885123684936px"/><polyline points="396.66 354.08 396.66 81.64 417.52 60.93 438.38 81.64 438.38 354.08" style="fill:#ebb8d4;stroke:#a02373;stroke-miterlimit:10;stroke-width:0.844885123684936px"/><polyline points="261.45 353.56 261.45 264.76 280.32 245.99 299.19 264.76 299.19 328.85 306.73 336.36 306.73 354.06" style="fill:#ee2a7b;stroke:#a02373;stroke-miterlimit:10;stroke-width:0.844885123684936px"/><polyline points="261.45 354.06 261.45 264.76 280.32 245.99 280.35 264.76 280.35 353.56" style="fill:#fce9f1;stroke:#a02373;stroke-linejoin:bevel;stroke-width:0.844885123684936px"/><polyline points="272.44 354.06 272.44 269.43 280.33 261.6 288.2 269.43 288.2 354.06" style="fill:#e9b7d5;stroke:#a02373;stroke-miterlimit:10;stroke-width:0.844885123684936px"/><line x1="288.2" y1="269.43" x2="299.2" y2="264.76" style="fill:none;stroke:#a02373;stroke-miterlimit:10;stroke-width:0.844885123684936px"/><line x1="280.33" y1="261.6" x2="280.32" y2="245.99" style="fill:none;stroke:#a02373;stroke-miterlimit:10;stroke-width:0.844885123684936px"/><line x1="272.44" y1="269.43" x2="261.45" y2="264.76" style="fill:none;stroke:#a02373;stroke-miterlimit:10;stroke-width:0.844885123684936px"/><path d="M278.57,317.15h-1.69v-5.07h1.69Zm0-10.14h-1.69v-5.07h1.69Zm0-10.14h-1.69V291.8h1.69Zm0-10.14h-1.69v-5.07h1.69Z" style="fill:#a02373"/><path d="M283.77,347.56h-1.69v-5.07h1.69Zm0-10.13h-1.69v-5.07h1.69Zm0-10.14h-1.69v-5.07h1.69Zm0-10.14h-1.69v-5.07h1.69Zm0-10.14h-1.69v-5.07h1.69Zm0-10.14h-1.69V291.8h1.69Zm0-10.14h-1.69v-5.07h1.69Z" style="fill:#a02373"/><polyline points="214.37 354.13 214.37 230.12 229.39 215.17 244.42 230.12 244.42 301.45 255.91 312.9 255.91 354.06" style="fill:#ee2a7b;stroke:#a02373;stroke-miterlimit:10;stroke-width:0.844885123684936px"/><polyline points="214.37 354.13 214.37 230.12 229.39 215.17 229.42 230.12 229.42 354.13" style="fill:#fce9f1;stroke:#a02373;stroke-linejoin:bevel;stroke-width:0.844885123684936px"/><polyline points="223.12 354.13 223.12 233.84 229.4 227.6 235.67 233.83 235.67 354.13" style="fill:#e9b7d5;stroke:#a02373;stroke-miterlimit:10;stroke-width:0.844885123684936px"/><line x1="235.67" y1="233.83" x2="244.42" y2="230.12" style="fill:none;stroke:#a02373;stroke-miterlimit:10;stroke-width:0.844885123684936px"/><line x1="229.4" y1="227.6" x2="229.39" y2="215.17" style="fill:none;stroke:#a02373;stroke-miterlimit:10;stroke-width:0.844885123684936px"/><line x1="223.12" y1="233.84" x2="214.37" y2="230.12" style="fill:none;stroke:#a02373;stroke-miterlimit:10;stroke-width:0.844885123684936px"/><path d="M230.34,349.12h-1.69v-5.07h1.69Zm0-10.14h-1.69v-5.07h1.69Zm0-10.14h-1.69v-5.07h1.69Zm0-10.14h-1.69v-5.07h1.69Zm0-10.14h-1.69v-5.07h1.69Zm0-10.14h-1.69v-5.07h1.69Zm0-10.14h-1.69v-5.07h1.69Zm0-10.14h-1.69v-5.06h1.69Zm0-10.13h-1.69v-5.07h1.69Zm0-10.14h-1.69V252.8h1.69Zm0-10.14h-1.69v-5.07h1.69Z" style="fill:#a02373"/><polyline points="181.02 354.06 181.02 338.44 194.79 324.73 208.57 338.44 208.57 354.06" style="fill:#ee2a7b;stroke:#a02373;stroke-miterlimit:10;stroke-width:0.844885123684936px"/><polyline points="181.02 354.06 181.02 338.44 194.79 324.73 194.81 338.44 194.81 354.06" style="fill:#fce9f1;stroke:#a02373;stroke-linejoin:bevel;stroke-width:0.844885123684936px"/><polyline points="189.04 354.06 189.04 341.85 194.79 336.13 200.54 341.84 200.54 354.06" style="fill:#e9b7d5;stroke:#a02373;stroke-miterlimit:10;stroke-width:0.844885123684936px"/><line x1="200.54" y1="341.84" x2="208.57" y2="338.44" style="fill:none;stroke:#a02373;stroke-miterlimit:10;stroke-width:0.844885123684936px"/><line x1="194.79" y1="336.13" x2="194.79" y2="324.73" style="fill:none;stroke:#a02373;stroke-miterlimit:10;stroke-width:0.844885123684936px"/><line x1="189.04" y1="341.85" x2="181.02" y2="338.44" style="fill:none;stroke:#a02373;stroke-miterlimit:10;stroke-width:0.844885123684936px"/><rect x="193.95" y="343.24" width="1.69" height="5.07" style="fill:#a02373"/><polyline points="542.56 353.75 542.56 217.18 560.39 199.44 578.23 217.18 578.23 353.75" style="fill:#ee2a7b;stroke:#a02373;stroke-miterlimit:10;stroke-width:0.844885123684936px"/><polyline points="540.48 353.75 540.48 216.55 559.36 197.78 578.23 216.55 578.23 353.75" style="fill:#ee2a7b;stroke:#a02373;stroke-miterlimit:10;stroke-width:0.844885123684936px"/><polyline points="534.35 353.75 534.35 337.89 540.48 331.7 540.48 216.55 559.36 197.78 559.38 216.55 559.38 353.75" style="fill:#fce9f1;stroke:#a02373;stroke-linejoin:bevel;stroke-width:0.844885123684936px"/><polyline points="551.48 353.75 551.48 221.23 559.36 213.39 567.24 221.22 567.24 353.75" style="fill:#e9b7d5;stroke:#a02373;stroke-miterlimit:10;stroke-width:0.844885123684936px"/><line x1="567.24" y1="221.22" x2="578.23" y2="216.55" style="fill:none;stroke:#a02373;stroke-miterlimit:10;stroke-width:0.844885123684936px"/><line x1="559.36" y1="213.39" x2="559.36" y2="197.78" style="fill:none;stroke:#a02373;stroke-miterlimit:10;stroke-width:0.844885123684936px"/><line x1="551.48" y1="221.23" x2="540.48" y2="216.55" style="fill:none;stroke:#a02373;stroke-miterlimit:10;stroke-width:0.844885123684936px"/><path d="M562.8,348.38h-1.69v-5.07h1.69Zm0-10.14h-1.69v-5.07h1.69Zm0-10.14h-1.69V323h1.69Zm0-10.14h-1.69v-5.07h1.69Zm0-10.13h-1.69v-5.07h1.69Zm0-10.14h-1.69v-5.07h1.69Zm0-10.14h-1.69v-5.07h1.69Zm0-10.14h-1.69v-5.07h1.69Zm0-10.14h-1.69V262.2h1.69Zm0-10.14h-1.69v-5.07h1.69Zm0-10.14h-1.69v-5.07h1.69Zm0-10.13h-1.69v-5.07h1.69Z" style="fill:#a02373"/><path d="M557.6,348.38h-1.69v-5.07h1.69Zm0-10.14h-1.69v-5.07h1.69Zm0-10.14h-1.69V323h1.69Zm0-10.14h-1.69v-5.07h1.69Zm0-10.13h-1.69v-5.07h1.69Zm0-10.14h-1.69v-5.07h1.69Zm0-10.14h-1.69v-5.07h1.69Zm0-10.14h-1.69v-5.07h1.69Zm0-10.14h-1.69V262.2h1.69Zm0-10.14h-1.69v-5.07h1.69Zm0-10.14h-1.69v-5.07h1.69Zm0-10.13h-1.69v-5.07h1.69Z" style="fill:#a02373"/><polyline points="591.71 353.6 591.71 263.61 605.91 249.48 620.11 263.61 620.11 353.6" style="fill:#ee2a7b;stroke:#a02373;stroke-miterlimit:10;stroke-width:0.844885123684936px"/><polyline points="590.06 353.6 590.06 263.11 605.08 248.16 620.11 263.11 620.11 353.6" style="fill:#ee2a7b;stroke:#a02373;stroke-miterlimit:10;stroke-width:0.844885123684936px"/><polyline points="605.11 353.6 605.11 263.11 605.08 248.16 590.06 263.11 590.06 307.56 583.36 314.26 583.36 353.75" style="fill:#fce9f1;stroke:#a02373;stroke-linejoin:bevel;stroke-width:0.844885123684936px"/><polyline points="598.81 353.6 598.81 266.83 605.09 260.59 611.36 266.82 611.36 353.6" style="fill:#e9b7d5;stroke:#a02373;stroke-miterlimit:10;stroke-width:0.844885123684936px"/><line x1="611.36" y1="266.82" x2="620.11" y2="263.11" style="fill:none;stroke:#a02373;stroke-miterlimit:10;stroke-width:0.844885123684936px"/><line x1="605.09" y1="260.59" x2="605.08" y2="248.16" style="fill:none;stroke:#a02373;stroke-miterlimit:10;stroke-width:0.844885123684936px"/><line x1="598.81" y1="266.83" x2="590.06" y2="263.11" style="fill:none;stroke:#a02373;stroke-miterlimit:10;stroke-width:0.844885123684936px"/><path d="M606,348.41h-1.69v-4.47H606Zm0-9.54h-1.69V333.8H606Zm0-10.14h-1.69v-5.07H606Zm0-10.14h-1.69v-5.07H606Zm0-10.14h-1.69v-5.07H606Zm0-10.14h-1.69v-5.07H606Zm0-10.14h-1.69V283.1H606ZM606,278h-1.69V273H606Z" style="fill:#a02373"/><path d="M591.73,348.41H590v-4.47h1.69Zm0-9.54H590V333.8h1.69Zm0-10.14H590v-5.07h1.69Zm0-10.14H590v-5.07h1.69Z" style="fill:#a02373"/><polyline points="583.58 353.6 583.58 314.26 590.06 307.56 590.06 263.11 605.08 248.16 620.11 263.11 620.11 353.6" style="fill:#a02373;opacity:0.4"/><polyline points="625.39 353.75 625.39 324.72 639.16 311.01 652.94 324.72 652.94 353.75" style="fill:#ee2a7b;stroke:#a02373;stroke-miterlimit:10;stroke-width:0.844885123684936px"/><polyline points="625.39 353.75 625.39 324.72 639.16 311.01 639.18 324.72 639.18 353.75" style="fill:#fce9f1;stroke:#a02373;stroke-linejoin:bevel;stroke-width:0.844885123684936px"/><polyline points="633.41 353.75 633.41 328.13 639.16 322.41 644.91 328.12 644.91 353.75" style="fill:#e9b7d5;stroke:#a02373;stroke-miterlimit:10;stroke-width:0.844885123684936px"/><line x1="644.91" y1="328.12" x2="652.94" y2="324.72" style="fill:none;stroke:#a02373;stroke-miterlimit:10;stroke-width:0.844885123684936px"/><line x1="639.17" y1="322.41" x2="639.16" y2="311.01" style="fill:none;stroke:#a02373;stroke-miterlimit:10;stroke-width:0.844885123684936px"/><line x1="633.41" y1="328.13" x2="625.39" y2="324.72" style="fill:none;stroke:#a02373;stroke-miterlimit:10;stroke-width:0.844885123684936px"/><path d="M640,348.77h-1.69V343.7H640Zm0-10.14h-1.69v-5.07H640Z" style="fill:#a02373"/><path d="M405.37,347.83h-1.69v-5.07h1.69Zm0-10.14h-1.69v-5.07h1.69Zm0-10.14h-1.69v-5.07h1.69Zm0-10.14h-1.69v-5.07h1.69Zm0-10.13h-1.69v-5.07h1.69Zm0-10.14h-1.69v-5.07h1.69Zm0-10.14h-1.69v-5.07h1.69Zm0-10.14h-1.69v-5.07h1.69Zm0-10.14h-1.69v-5.07h1.69Zm0-10.14h-1.69v-5.07h1.69Zm0-10.14h-1.69v-5.07h1.69Zm0-10.14h-1.69v-5.06h1.69Zm0-10.13h-1.69V221.1h1.69Zm0-10.14h-1.69V211h1.69Zm0-10.14h-1.69v-5.07h1.69Zm0-10.14h-1.69v-5.07h1.69Zm0-10.14h-1.69v-5.07h1.69Zm0-10.14h-1.69V170.4h1.69Zm0-10.14h-1.69v-5.06h1.69Zm0-10.13h-1.69v-5.07h1.69Z" style="fill:#a02373"/><path d="M410.57,347.83h-1.69v-5.07h1.69Zm0-10.14h-1.69v-5.07h1.69Zm0-10.14h-1.69v-5.07h1.69Zm0-10.14h-1.69v-5.07h1.69Zm0-10.13h-1.69v-5.07h1.69Zm0-10.14h-1.69v-5.07h1.69Zm0-10.14h-1.69v-5.07h1.69Zm0-10.14h-1.69v-5.07h1.69Zm0-10.14h-1.69v-5.07h1.69Zm0-10.14h-1.69v-5.07h1.69Zm0-10.14h-1.69v-5.07h1.69Zm0-10.14h-1.69v-5.06h1.69Zm0-10.13h-1.69V221.1h1.69Zm0-10.14h-1.69V211h1.69Zm0-10.14h-1.69v-5.07h1.69Zm0-10.14h-1.69v-5.07h1.69Zm0-10.14h-1.69v-5.07h1.69Zm0-10.14h-1.69V170.4h1.69Zm0-10.14h-1.69v-5.06h1.69Zm0-10.13h-1.69v-5.07h1.69Z" style="fill:#a02373"/><path d="M415.76,347.83h-1.68v-5.07h1.68Zm0-10.14h-1.68v-5.07h1.68Zm0-10.14h-1.68v-5.07h1.68Zm0-10.14h-1.68v-5.07h1.68Zm0-10.13h-1.68v-5.07h1.68Zm0-10.14h-1.68v-5.07h1.68Zm0-10.14h-1.68v-5.07h1.68Zm0-10.14h-1.68v-5.07h1.68Zm0-10.14h-1.68v-5.07h1.68Zm0-10.14h-1.68v-5.07h1.68Zm0-10.14h-1.68v-5.07h1.68Zm0-10.14h-1.68v-5.06h1.68Zm0-10.13h-1.68V221.1h1.68Zm0-10.14h-1.68V211h1.68Zm0-10.14h-1.68v-5.07h1.68Zm0-10.14h-1.68v-5.07h1.68Zm0-10.14h-1.68v-5.07h1.68Zm0-10.14h-1.68V170.4h1.68Zm0-10.14h-1.68v-5.06h1.68Zm0-10.13h-1.68v-5.07h1.68Z" style="fill:#a02373"/><path d="M421,347.83h-1.69v-5.07H421Zm0-10.14h-1.69v-5.07H421Zm0-10.14h-1.69v-5.07H421Zm0-10.14h-1.69v-5.07H421Zm0-10.13h-1.69v-5.07H421Zm0-10.14h-1.69v-5.07H421ZM421,287h-1.69v-5.07H421Zm0-10.14h-1.69v-5.07H421Zm0-10.14h-1.69v-5.07H421Zm0-10.14h-1.69v-5.07H421Zm0-10.14h-1.69v-5.07H421Zm0-10.14h-1.69v-5.06H421Zm0-10.13h-1.69V221.1H421ZM421,216h-1.69V211H421Zm0-10.14h-1.69v-5.07H421Zm0-10.14h-1.69v-5.07H421Zm0-10.14h-1.69v-5.07H421Zm0-10.14h-1.69V170.4H421Zm0-10.14h-1.69v-5.06H421Zm0-10.13h-1.69v-5.07H421Z" style="fill:#a02373"/><path d="M426.16,347.83h-1.69v-5.07h1.69Zm0-10.14h-1.69v-5.07h1.69Zm0-10.14h-1.69v-5.07h1.69Zm0-10.14h-1.69v-5.07h1.69Zm0-10.13h-1.69v-5.07h1.69Zm0-10.14h-1.69v-5.07h1.69Zm0-10.14h-1.69v-5.07h1.69Zm0-10.14h-1.69v-5.07h1.69Zm0-10.14h-1.69v-5.07h1.69Zm0-10.14h-1.69v-5.07h1.69Zm0-10.14h-1.69v-5.07h1.69Zm0-10.14h-1.69v-5.06h1.69Zm0-10.13h-1.69V221.1h1.69Zm0-10.14h-1.69V211h1.69Zm0-10.14h-1.69v-5.07h1.69Zm0-10.14h-1.69v-5.07h1.69Zm0-10.14h-1.69v-5.07h1.69Zm0-10.14h-1.69V170.4h1.69Zm0-10.14h-1.69v-5.06h1.69Zm0-10.13h-1.69v-5.07h1.69Z" style="fill:#a02373"/><path d="M431.36,347.83h-1.69v-5.07h1.69Zm0-10.14h-1.69v-5.07h1.69Zm0-10.14h-1.69v-5.07h1.69Zm0-10.14h-1.69v-5.07h1.69Zm0-10.13h-1.69v-5.07h1.69Zm0-10.14h-1.69v-5.07h1.69Zm0-10.14h-1.69v-5.07h1.69Zm0-10.14h-1.69v-5.07h1.69Zm0-10.14h-1.69v-5.07h1.69Zm0-10.14h-1.69v-5.07h1.69Zm0-10.14h-1.69v-5.07h1.69Zm0-10.14h-1.69v-5.06h1.69Zm0-10.13h-1.69V221.1h1.69Zm0-10.14h-1.69V211h1.69Zm0-10.14h-1.69v-5.07h1.69Zm0-10.14h-1.69v-5.07h1.69Zm0-10.14h-1.69v-5.07h1.69Zm0-10.14h-1.69V170.4h1.69Zm0-10.14h-1.69v-5.06h1.69Zm0-10.13h-1.69v-5.07h1.69Z" style="fill:#a02373"/><line x1="180.14" y1="354.06" x2="653.83" y2="354.06" style="fill:none;stroke:#a02373;stroke-miterlimit:10;stroke-width:0.844885123684936px"/><polygon points="417.52 87.38 413 91.87 413 123.75 417.52 128.25 422.02 123.77 422.02 91.85 417.52 87.38" style="fill:#ebb8d5"/><polygon points="417.52 79.2 417.52 87.38 422.02 91.85 422.02 123.77 417.52 128.25 417.52 136.42 427.77 126.22 427.77 89.4 417.52 79.2" style="fill:#ee2a7b"/><polygon points="417.52 79.2 407.27 89.4 407.27 126.22 417.52 136.42 417.52 128.25 413 123.75 413 91.87 417.52 87.38 417.52 79.2" style="fill:#fde9f1"/><polygon points="407.27 89.4 417.52 79.2 427.77 89.4 427.77 126.22 417.52 136.42 407.27 126.22 407.27 89.4" style="fill:none;stroke:#a02373;stroke-miterlimit:10;stroke-width:0.844885123684936px"/><polygon points="413 91.87 417.52 87.38 422.02 91.85 422.02 123.77 417.52 128.25 413 123.75 413 91.87" style="fill:none;stroke:#a02373;stroke-miterlimit:10;stroke-width:0.844885123684936px"/><line x1="413" y1="91.87" x2="407.27" y2="89.4" style="fill:none;stroke:#a02373;stroke-miterlimit:10;stroke-width:0.844885123684936px"/><line x1="417.52" y1="79.2" x2="417.52" y2="87.38" style="fill:none;stroke:#a02373;stroke-miterlimit:10;stroke-width:0.844885123684936px"/><line x1="422.02" y1="91.85" x2="427.77" y2="89.4" style="fill:none;stroke:#a02373;stroke-miterlimit:10;stroke-width:0.844885123684936px"/><line x1="422.02" y1="123.77" x2="427.77" y2="126.22" style="fill:none;stroke:#a02373;stroke-miterlimit:10;stroke-width:0.844885123684936px"/><line x1="417.52" y1="128.24" x2="417.52" y2="136.42" style="fill:none;stroke:#a02373;stroke-miterlimit:10;stroke-width:0.844885123684936px"/><line x1="407.27" y1="126.22" x2="413" y2="123.75" style="fill:none;stroke:#a02373;stroke-miterlimit:10;stroke-width:0.844885123684936px"/><rect x="455.55" y="98.04" width="37.86" height="1.64" style="fill:#fff"/><polygon points="664.35 365.4 169.4 365.4 137.54 404.12 694.81 404.61 664.35 365.4" style="fill:#68c180"/><polygon points="664.35 365.4 169.4 365.4 137.54 404.12 694.81 404.61 664.35 365.4" style="mix-blend-mode:overlay;fill:url(#Fading_Sky-2)"/><polygon points="664.35 365.4 169.4 365.4 137.54 404.12 694.81 404.61 664.35 365.4" style="mix-blend-mode:overlay;fill:url(#linear-gradient)"/><polygon points="664.35 365.4 169.4 365.4 137.54 404.12 694.81 404.61 664.35 365.4" style="fill:#39b54a;mix-blend-mode:multiply"/><polygon points="664.35 365.4 169.4 365.4 137.54 404.12 694.81 404.61 664.35 365.4" style="fill:#0fa04a;opacity:0.25;mix-blend-mode:multiply"/><g style="opacity:0.55"><path d="M184.73,374.58a6.79,6.79,0,0,1-13.57,0" style="fill:#0fa049;mix-blend-mode:multiply"/><path d="M204.7,374.58a6.78,6.78,0,1,1-13.56,0" style="fill:#0fa049;mix-blend-mode:multiply"/><path d="M224.68,374.58a6.79,6.79,0,0,1-13.57,0" style="fill:#0fa049;mix-blend-mode:multiply"/><path d="M244.65,374.58a6.79,6.79,0,0,1-13.57,0" style="fill:#0fa049;mix-blend-mode:multiply"/><path d="M264.62,374.58a6.79,6.79,0,0,1-13.57,0" style="fill:#0fa049;mix-blend-mode:multiply"/><path d="M284.59,374.58a6.79,6.79,0,0,1-13.57,0" style="fill:#0fa049;mix-blend-mode:multiply"/><path d="M304.56,374.58a6.79,6.79,0,0,1-13.57,0" style="fill:#0fa049;mix-blend-mode:multiply"/><path d="M324.53,374.58a6.78,6.78,0,0,1-13.56,0" style="fill:#0fa049;mix-blend-mode:multiply"/><path d="M344.51,374.58a6.79,6.79,0,0,1-13.57,0" style="fill:#0fa049;mix-blend-mode:multiply"/><path d="M364.48,374.58a6.79,6.79,0,0,1-13.57,0" style="fill:#0fa049;mix-blend-mode:multiply"/><path d="M384.45,374.58a6.79,6.79,0,0,1-13.57,0" style="fill:#0fa049;mix-blend-mode:multiply"/><path d="M404.42,374.58a6.79,6.79,0,0,1-13.57,0" style="fill:#0fa049;mix-blend-mode:multiply"/><path d="M424.39,374.58a6.78,6.78,0,1,1-13.56,0" style="fill:#0fa049;mix-blend-mode:multiply"/><path d="M444.36,374.58a6.78,6.78,0,0,1-13.56,0" style="fill:#0fa049;mix-blend-mode:multiply"/><path d="M464.34,374.58a6.79,6.79,0,0,1-13.57,0" style="fill:#0fa049;mix-blend-mode:multiply"/><path d="M484.31,374.58a6.79,6.79,0,0,1-13.57,0" style="fill:#0fa049;mix-blend-mode:multiply"/><path d="M504.28,374.58a6.79,6.79,0,0,1-13.57,0" style="fill:#0fa049;mix-blend-mode:multiply"/><path d="M524.25,374.58a6.79,6.79,0,0,1-13.57,0" style="fill:#0fa049;mix-blend-mode:multiply"/><path d="M544.22,374.58a6.78,6.78,0,1,1-13.56,0" style="fill:#0fa049;mix-blend-mode:multiply"/><path d="M564.2,374.58a6.79,6.79,0,0,1-13.57,0" style="fill:#0fa049;mix-blend-mode:multiply"/><path d="M584.17,374.58a6.79,6.79,0,0,1-13.57,0" style="fill:#0fa049;mix-blend-mode:multiply"/><path d="M604.14,374.58a6.79,6.79,0,0,1-13.57,0" style="fill:#0fa049;mix-blend-mode:multiply"/><path d="M624.11,374.58a6.79,6.79,0,0,1-13.57,0" style="fill:#0fa049;mix-blend-mode:multiply"/><path d="M644.08,374.58a6.79,6.79,0,0,1-13.57,0" style="fill:#0fa049;mix-blend-mode:multiply"/><path d="M664.05,374.58a6.78,6.78,0,1,1-13.56,0" style="fill:#0fa049;mix-blend-mode:multiply"/><path d="M174.56,388.44a6.79,6.79,0,1,1-13.57,0" style="fill:#0fa049;mix-blend-mode:multiply"/><path d="M194.53,388.44a6.79,6.79,0,1,1-13.57,0" style="fill:#0fa049;mix-blend-mode:multiply"/><path d="M214.5,388.44a6.79,6.79,0,1,1-13.57,0" style="fill:#0fa049;mix-blend-mode:multiply"/><path d="M234.47,388.44a6.78,6.78,0,1,1-13.56,0" style="fill:#0fa049;mix-blend-mode:multiply"/><path d="M254.44,388.44a6.78,6.78,0,1,1-13.56,0" style="fill:#0fa049;mix-blend-mode:multiply"/><path d="M274.42,388.44a6.79,6.79,0,1,1-13.57,0" style="fill:#0fa049;mix-blend-mode:multiply"/><path d="M294.39,388.44a6.79,6.79,0,1,1-13.57,0" style="fill:#0fa049;mix-blend-mode:multiply"/><path d="M314.36,388.44a6.79,6.79,0,1,1-13.57,0" style="fill:#0fa049;mix-blend-mode:multiply"/><path d="M334.33,388.44a6.79,6.79,0,1,1-13.57,0" style="fill:#0fa049;mix-blend-mode:multiply"/><path d="M354.3,388.44a6.78,6.78,0,1,1-13.56,0" style="fill:#0fa049;mix-blend-mode:multiply"/><path d="M374.28,388.44a6.79,6.79,0,1,1-13.57,0" style="fill:#0fa049;mix-blend-mode:multiply"/><path d="M394.25,388.44a6.79,6.79,0,1,1-13.57,0" style="fill:#0fa049;mix-blend-mode:multiply"/><path d="M414.22,388.44a6.79,6.79,0,1,1-13.57,0" style="fill:#0fa049;mix-blend-mode:multiply"/><path d="M434.19,388.44a6.79,6.79,0,1,1-13.57,0" style="fill:#0fa049;mix-blend-mode:multiply"/><path d="M454.16,388.44a6.79,6.79,0,1,1-13.57,0" style="fill:#0fa049;mix-blend-mode:multiply"/><path d="M474.13,388.44a6.78,6.78,0,1,1-13.56,0" style="fill:#0fa049;mix-blend-mode:multiply"/><path d="M494.11,388.44a6.79,6.79,0,1,1-13.57,0" style="fill:#0fa049;mix-blend-mode:multiply"/><path d="M514.08,388.44a6.79,6.79,0,1,1-13.57,0" style="fill:#0fa049;mix-blend-mode:multiply"/><path d="M534.05,388.44a6.79,6.79,0,1,1-13.57,0" style="fill:#0fa049;mix-blend-mode:multiply"/><path d="M554,388.44a6.79,6.79,0,1,1-13.57,0" style="fill:#0fa049;mix-blend-mode:multiply"/><path d="M574,388.44a6.78,6.78,0,1,1-13.56,0" style="fill:#0fa049;mix-blend-mode:multiply"/><path d="M594,388.44a6.79,6.79,0,1,1-13.57,0" style="fill:#0fa049;mix-blend-mode:multiply"/><path d="M613.94,388.44a6.79,6.79,0,1,1-13.57,0" style="fill:#0fa049;mix-blend-mode:multiply"/><path d="M633.91,388.44a6.79,6.79,0,1,1-13.57,0" style="fill:#0fa049;mix-blend-mode:multiply"/><path d="M653.88,388.44a6.79,6.79,0,1,1-13.57,0" style="fill:#0fa049;mix-blend-mode:multiply"/><path d="M674.23,388.44a6.79,6.79,0,1,1-13.57,0" style="fill:#0fa049;mix-blend-mode:multiply"/></g><rect x="242.6" y="344.05" width="1.69" height="5.07" style="fill:#a02373"/><rect x="242.6" y="333.91" width="1.69" height="5.07" style="fill:#a02373"/><rect x="242.6" y="323.77" width="1.69" height="5.07" style="fill:#a02373"/><rect x="242.6" y="344.05" width="1.69" height="5.07" style="fill:#a02373"/><rect x="242.6" y="333.91" width="1.69" height="5.07" style="fill:#a02373"/><rect x="242.6" y="323.77" width="1.69" height="5.07" style="fill:#a02373"/><rect x="247.8" y="344.05" width="1.69" height="5.07" style="fill:#a02373"/><rect x="247.8" y="333.91" width="1.69" height="5.07" style="fill:#a02373"/><rect x="247.8" y="323.77" width="1.69" height="5.07" style="fill:#a02373"/><rect x="242.6" y="313.75" width="1.69" height="5.07" style="fill:#a02373"/><rect x="247.8" y="313.75" width="1.69" height="5.07" style="fill:#a02373"/></g></g></svg>
