<svg id="Layer_1" data-name="Layer 1" xmlns="http://www.w3.org/2000/svg" width="31.11" height="41.11" viewBox="0 0 31.11 41.11"><title>Artboard 8</title><polygon points="5.62 2.65 2.17 10.3 9.78 30.27 17.45 33.68 20.9 26.03 13.29 6.06 5.62 2.65" style="fill:#fde9f1"/><polygon points="5.62 2.65 5.62 2.65 17.45 33.68 17.45 33.68 20.9 26.03 13.29 6.06 5.62 2.65" style="fill:#ee2a7b"/><polygon points="7.08 6.48 5.32 10.38 12.08 28.11 15.99 29.85 17.75 25.95 10.99 8.22 7.08 6.48" style="fill:#ebb8d5"/><polygon points="8.11 23.49 3.09 10.32 6.05 3.77 12.62 6.7 17.64 19.86 18.44 19.55 13.29 6.06 5.62 2.65 2.17 10.3 7.31 23.8 8.11 23.49" style="fill:#a02373"/><rect x="6.14" y="3.07" width="0.86" height="4.11" transform="translate(-1.4 2.67) rotate(-20.87)" style="fill:#a02373"/><rect x="9.95" y="7.17" width="3.42" height="0.86" transform="translate(-2.04 10.05) rotate(-43.25)" style="fill:#a02373"/><rect x="3.83" y="8.7" width="0.86" height="3.42" transform="translate(-6.26 14.4) rotate(-88.47)" style="fill:#a02373"/><polygon points="10.84 22.45 6.25 10.41 7.51 7.61 10.32 8.86 14.91 20.9 15.71 20.59 10.99 8.22 7.08 6.48 5.32 10.38 10.04 22.76 10.84 22.45" style="fill:#a02373"/><polygon points="7.72 22.45 10.45 29.64 17.02 32.56 19.98 26 17.24 18.82 18.04 18.52 20.9 26.03 17.45 33.68 9.78 30.27 6.92 22.76 7.72 22.45" style="fill:#a02373"/><rect x="16.08" y="29.15" width="0.86" height="4.11" transform="translate(-10.03 7.93) rotate(-20.87)" style="fill:#a02373"/><rect x="18.24" y="24.26" width="0.86" height="3.42" transform="translate(-7.8 43.94) rotate(-88.48)" style="fill:#a02373"/><rect x="9.56" y="28.36" width="3.42" height="0.86" transform="translate(-16.67 15.54) rotate(-43.25)" style="fill:#a02373"/><polygon points="10.44 21.41 12.75 27.47 15.56 28.72 16.82 25.92 14.51 19.86 15.31 19.56 17.75 25.95 15.99 29.85 12.08 28.11 9.64 21.72 10.44 21.41" style="fill:#a02373"/><polygon points="25.65 2.76 17.58 5.08 7.27 23.8 9.63 31.86 17.7 29.54 28.01 10.81 25.65 2.76" style="fill:#fde9f1"/><polygon points="25.65 2.76 25.65 2.76 9.63 31.86 9.63 31.86 17.7 29.54 28.01 10.81 25.65 2.76" style="fill:#ee2a7b"/><polygon points="23.67 6.36 19.56 7.54 10.41 24.16 11.61 28.26 15.72 27.08 24.87 10.46 23.67 6.36" style="fill:#ebb8d5"/><polygon points="11.36 18.14 18.16 5.8 25.07 3.81 27.09 10.71 20.29 23.06 21.04 23.47 28.01 10.81 25.65 2.76 17.58 5.08 10.61 17.73 11.36 18.14" style="fill:#a02373"/><rect x="22.32" y="4.66" width="4.11" height="0.86" transform="translate(8.16 23.98) rotate(-61.17)" style="fill:#a02373"/><rect x="25.35" y="8.85" width="0.86" height="3.42" transform="translate(12.39 35) rotate(-83.56)" style="fill:#a02373"/><rect x="18.42" y="5.04" width="0.86" height="3.42" transform="translate(-0.07 13.29) rotate(-38.78)" style="fill:#a02373"/><polygon points="13.92 19.55 20.14 8.26 23.09 7.41 23.95 10.36 17.74 21.65 18.49 22.06 24.87 10.46 23.67 6.36 19.56 7.54 13.17 19.14 13.92 19.55" style="fill:#a02373"/><polygon points="11.9 17.17 8.19 23.9 10.21 30.8 17.12 28.82 20.83 22.09 21.58 22.5 17.7 29.54 9.63 31.86 7.27 23.8 11.15 16.76 11.9 17.17" style="fill:#a02373"/><rect x="8.86" y="29.1" width="4.11" height="0.86" transform="translate(-20.22 24.85) rotate(-61.17)" style="fill:#a02373"/><rect x="15.87" y="26.09" width="0.86" height="3.42" transform="translate(-13.82 16.34) rotate(-38.78)" style="fill:#a02373"/><rect x="8.93" y="22.27" width="0.86" height="3.42" transform="matrix(0.11, -0.99, 0.99, 0.11, -15.51, 30.59)" style="fill:#a02373"/><polygon points="14.46 18.58 11.33 24.26 12.19 27.2 15.15 26.36 18.27 20.68 19.02 21.09 15.72 27.08 11.61 28.26 10.41 24.16 13.71 18.16 14.46 18.58" style="fill:#a02373"/><polygon points="6.12 21.44 15.19 5.5 23.62 21.44 6.12 21.44" style="fill:none;stroke:#7c3990;stroke-linejoin:bevel;stroke-width:0.844885123684936px"/><polyline points="5.44 20.79 5.44 29.8 14.87 39.18 24.3 29.8 24.3 20.79" style="fill:#bd92c2;stroke:#7d398f;stroke-miterlimit:10;stroke-width:0.844885123684936px"/><polyline points="5.44 20.79 5.44 29.8 14.87 39.18 14.88 29.8 14.88 20.79" style="fill:#f5ebf4;stroke:#7d398f;stroke-linejoin:bevel;stroke-width:0.844885123684936px"/><polyline points="18.8 20.79 18.8 27.47 14.87 31.38 10.93 27.46 10.93 20.79" style="fill:#e6cbe2;stroke:#7d398f;stroke-miterlimit:10;stroke-width:0.844885123684936px"/><line x1="18.81" y1="27.47" x2="24.3" y2="29.8" style="fill:none;stroke:#7d398f;stroke-miterlimit:10;stroke-width:0.844885123684936px"/><line x1="14.87" y1="31.38" x2="14.87" y2="39.18" style="fill:none;stroke:#7d398f;stroke-miterlimit:10;stroke-width:0.844885123684936px"/><line x1="10.93" y1="27.46" x2="5.44" y2="29.8" style="fill:none;stroke:#7d398f;stroke-miterlimit:10;stroke-width:0.844885123684936px"/><line x1="5.44" y1="20.78" x2="24.3" y2="20.78" style="fill:none;stroke:#7d398f;stroke-linecap:square;stroke-linejoin:bevel;stroke-width:0.844885123684936px"/></svg>