<svg data-name="Layer 1" xmlns="http://www.w3.org/2000/svg" width="118.5" height="153.5" viewBox="0 0 118.5 153.5"><path fill="#bd92c2" stroke="#7d398f" stroke-miterlimit="10" stroke-width=".845" d="M104.68 17.93H11.97l-5.85 5.88 5.85 5.88h92.71l5.85-5.88-5.85-5.88z"/><path fill="#975f99" stroke="#7e3a8f" stroke-linejoin="bevel" stroke-width=".845" d="M104.74 17.93l5.85 5.88-5.85 5.88-1.46-3.43 2.44-2.45-2.44-2.46 1.46-3.42z"/><path fill="#f5ebf4" stroke="#7e3a8f" stroke-linejoin="bevel" stroke-width=".845" d="M11.97 17.93l-5.85 5.88 5.85 5.88 1.45-3.43-2.44-2.45 2.45-2.46-1.46-3.42z"/><path fill="none" stroke="#7d398f" stroke-miterlimit="10" stroke-width=".845" d="M13.42 26.26l-1.45 3.43m-5.85-5.88h4.86m2.45-2.46l-1.46-3.42m91.26 8.33l1.45 3.43m.99-5.88h4.86m-7.31-2.46l1.46-3.42"/><path fill="#e6cbe2" stroke="#7d398f" stroke-miterlimit="10" stroke-width=".845" d="M103.22 21.35H13.43l-2.45 2.46 2.44 2.45h89.81l2.44-2.45-2.45-2.46z"/><path fill="none" stroke="#7c3990" stroke-miterlimit="10" stroke-width=".845" d="M17.77 6.12h11.86v11.86H17.77zm0 0l11.86 11.86m0 11.86H17.77V17.98h11.86zm0-11.86L17.77 29.84"/><path fill="none" stroke="#7c3990" stroke-miterlimit="10" stroke-width=".845" d="M17.77 29.69h11.86v11.86H17.77zm0 0l11.86 11.86m0 11.86H17.77V41.55h11.86zm0-11.86L17.77 53.41"/><path fill="none" stroke="#7c3990" stroke-miterlimit="10" stroke-width=".845" d="M17.77 53.26h11.86v11.86H17.77zm0 0l11.86 11.86m0 11.86H17.77V65.12h11.86zm0-11.86L17.77 76.98"/><path fill="none" stroke="#7c3990" stroke-miterlimit="10" stroke-width=".845" d="M17.77 76.82h11.86v11.86H17.77zm0 0l11.86 11.87m0 11.85H17.77V88.68h11.86zm0-11.85l-11.86 11.86m0 0h11.86v11.86H17.77zm0 0l11.86 11.86m0 11.86H17.77v-11.86h11.86zm0-11.86l-11.86 11.86"/><path fill="none" stroke="#7c3990" stroke-miterlimit="10" stroke-width=".845" d="M17.77 124.12h11.86v11.86H17.77zm0 0l11.86 11.86m0 11.86H17.77v-11.86h11.86zm0-11.86l-11.86 11.86"/></svg>