<svg data-name="Layer 1" xmlns="http://www.w3.org/2000/svg" width="156.14" height="170.76" viewBox="0 0 156.14 170.76"><path d="M77 19.8c-23.88 51.12-44.58 95.91-68.46 147H2.16L73.8 13.46h6.37Q116 90.14 151.82 166.83h-6.37C121.57 115.71 100.87 70.92 77 19.8" fill="#e6cae2" stroke="#7c3990" stroke-miterlimit="10" stroke-width=".845"/><path fill="#b87bb5" stroke="#7c3990" stroke-miterlimit="10" stroke-width=".845" d="M74.14 19.12l2.85.68L8.53 166.83H5.21L74.14 19.12"/><path fill="#b87bb5" stroke="#7d3a90" stroke-miterlimit="10" stroke-width=".845" d="M79.67 19.12l2.32-1.77 69.83 149.48h-3.22L79.67 19.12"/><path fill="#e6cae2" stroke="#7c3990" stroke-miterlimit="10" stroke-width=".845" d="M80.2 4.83h-6.82l-4.82 4.82v6.82l4.82 4.82h6.82l4.82-4.82V9.65L80.2 4.83z"/><path fill="#b87bb5" d="M73.38 4.83h6.82l4.82 4.82v6.82l-4.82 4.82h-6.82l1.31-3.14V7.98l-1.31-3.15z"/><path fill="#c093c3" stroke="#7c3990" stroke-miterlimit="10" stroke-width=".845" d="M78.9 7.98h-4.21l-2.99 2.98v4.21l2.99 2.98h4.21l2.98-2.98v-4.21L78.9 7.98z"/><path fill="none" stroke="#7c3990" stroke-miterlimit="10" stroke-width=".845" d="M74.68 7.98l-1.3-3.14m5.52 3.14l1.3-3.14m1.68 6.12l3.14-1.31m-3.14 5.52l3.14 1.3m-6.12 1.68l1.3 3.14m-5.52-3.14l-1.3 3.14m-1.67-6.12l-3.15 1.3m3.15-5.51l-3.15-1.31M80.2 4.83h-6.82l-4.82 4.82v6.82l4.82 4.82h6.82l4.82-4.82V9.65L80.2 4.83z"/></svg>