<svg xmlns="http://www.w3.org/2000/svg" xmlns:xlink="http://www.w3.org/1999/xlink" width="358.29" height="268" viewBox="0 0 358.29 268"><defs><clipPath id="clip-path"><path d="M259.21,169.71h-3.53a20.56,20.56,0,0,0,0,41.11h3.53" style="fill:none"/></clipPath><clipPath id="clip-path-2"><path d="M155.46,19.42h-3.53a20.56,20.56,0,1,0,0,41.11h3.53" style="fill:none"/></clipPath><clipPath id="clip-path-3"><path d="M103.67,119.3h-3.53a20.56,20.56,0,1,0,0,41.11h3.53" style="fill:none"/></clipPath><clipPath id="clip-path-4"><path d="M207,120.91H203.6a19.88,19.88,0,0,0,0,39.75H207" style="fill:none"/></clipPath></defs><title>Artboard 7</title><g id="ILLO_4" data-name="ILLO 4"><polyline points="305.31 154.46 307.12 158.99 307.12 209.93 305.31 213.54" style="fill:#e6cbe2;stroke:#7d3990;stroke-miterlimit:10"/><rect x="231.33" y="110.9" width="52.22" height="49.91" style="fill:#bd92c2;stroke:#7d3990;stroke-miterlimit:10"/><polygon points="235.45 156.79 231.39 160.8 231.39 110.84 283.56 110.84 279.44 114.91 235.45 114.91 235.45 156.79" style="fill:#f6ebf4"/><rect x="235.45" y="114.91" width="43.98" height="41.89" style="fill:#e6cbe2;stroke:#7d3990;stroke-miterlimit:10"/><line x1="235.45" y1="114.91" x2="231.39" y2="110.84" style="fill:#da1c5c;stroke:#7c3990;stroke-miterlimit:10"/><line x1="279.44" y1="114.91" x2="283.5" y2="110.84" style="fill:#da1c5c;stroke:#7c3990;stroke-miterlimit:10"/><line x1="279.44" y1="156.79" x2="283.5" y2="160.86" style="fill:#da1c5c;stroke:#7c3990;stroke-miterlimit:10"/><line x1="235.45" y1="156.79" x2="231.39" y2="160.86" style="fill:#da1c5c;stroke:#7c3990;stroke-miterlimit:10"/><rect x="231.33" y="110.9" width="52.22" height="49.91" style="fill:none;stroke:#7c3990;stroke-miterlimit:10"/><circle cx="241.94" cy="151.49" r="1.69" style="fill:#bd92c2;stroke:#7d3990;stroke-miterlimit:10"/><circle cx="274.19" cy="120.15" r="1.69" style="fill:#bd92c2;stroke:#7d3990;stroke-miterlimit:10"/><circle cx="274.19" cy="151.49" r="1.69" style="fill:#bd92c2;stroke:#7d3990;stroke-miterlimit:10"/><circle cx="241.94" cy="120.15" r="1.69" style="fill:#bd92c2;stroke:#7d3990;stroke-miterlimit:10"/><rect x="231.33" y="160.91" width="52.22" height="49.91" style="fill:#bd92c2;stroke:#7d3990;stroke-miterlimit:10"/><polyline points="231.39 160.86 238.2 167.67 238.2 210.82" style="fill:none;stroke:#7c3990;stroke-miterlimit:10"/><polyline points="283.5 160.86 276.69 167.67 276.69 210.82" style="fill:none;stroke:#7c3990;stroke-miterlimit:10"/><rect x="231.33" y="160.91" width="52.22" height="49.91" style="fill:none;stroke:#7c3990;stroke-miterlimit:10"/><rect x="57.49" y="40.86" width="6.94" height="219.86" style="fill:#e6cbe2;stroke:#7d3990;stroke-miterlimit:10"/><polygon points="57.3 94.67 3.33 70.41 57.3 46.15 57.3 94.67" style="fill:#da1c5c;stroke:#7c3990;stroke-miterlimit:10"/><polygon points="43 55.88 34.06 64.78 34.06 67.93 34.06 73.28 34.06 74.79 43 83.69 51.95 74.79 51.95 73.28 51.95 67.93 51.95 64.78 43 55.88" style="fill:#da1c5c;stroke:#7c3990;stroke-miterlimit:10"/><polyline points="43 55.88 34.06 64.78 34.06 67.93 34.06 73.28 34.06 74.79 43 83.69" style="fill:#f6ebf4;stroke:#7d3990;stroke-miterlimit:10"/><line x1="46.74" y1="72.58" x2="51.95" y2="74.79" style="fill:none;stroke:#7d3990;stroke-miterlimit:10"/><line x1="43" y1="76.29" x2="43" y2="83.69" style="fill:none;stroke:#7d3990;stroke-miterlimit:10"/><line x1="39.27" y1="72.58" x2="34.06" y2="74.79" style="fill:none;stroke:#7d3990;stroke-miterlimit:10"/><line x1="46.74" y1="66.99" x2="51.95" y2="64.78" style="fill:none;stroke:#7d3990;stroke-miterlimit:10"/><line x1="43" y1="63.28" x2="43" y2="55.88" style="fill:none;stroke:#7d3990;stroke-miterlimit:10"/><line x1="39.27" y1="66.99" x2="34.06" y2="64.78" style="fill:none;stroke:#7d3990;stroke-miterlimit:10"/><polygon points="43 63.28 39.27 66.99 39.27 67.93 39.27 71.97 39.27 72.58 43 76.29 46.74 72.58 46.74 71.97 46.74 67.93 46.74 66.99 43 63.28" style="fill:#e6cbe2;stroke:#7d3990;stroke-miterlimit:10"/><polygon points="60.96 27.42 55.62 32.73 55.62 34.62 55.62 37.81 55.62 38.72 60.96 44.03 66.31 38.72 66.31 37.81 66.31 34.62 66.31 32.73 60.96 27.42" style="fill:#da1c5c;stroke:#7c3990;stroke-miterlimit:10"/><polyline points="60.96 27.42 55.62 32.73 55.62 34.62 55.62 37.81 55.62 38.72 60.96 44.03" style="fill:#f6ebf4;stroke:#7d3990;stroke-miterlimit:10"/><line x1="63.19" y1="37.4" x2="66.31" y2="38.72" style="fill:none;stroke:#7d3990;stroke-miterlimit:10"/><line x1="60.96" y1="39.61" x2="60.96" y2="44.03" style="fill:none;stroke:#7d3990;stroke-miterlimit:10"/><line x1="58.73" y1="37.39" x2="55.62" y2="38.72" style="fill:none;stroke:#7d3990;stroke-miterlimit:10"/><line x1="63.19" y1="34.06" x2="66.31" y2="32.74" style="fill:none;stroke:#7d3990;stroke-miterlimit:10"/><line x1="60.96" y1="31.84" x2="60.96" y2="27.42" style="fill:none;stroke:#7d3990;stroke-miterlimit:10"/><line x1="58.73" y1="34.06" x2="55.62" y2="32.74" style="fill:none;stroke:#7d3990;stroke-miterlimit:10"/><polygon points="60.96 31.84 58.73 34.06 58.73 34.62 58.73 37.03 58.73 37.39 60.96 39.61 63.19 37.4 63.19 37.03 63.19 34.62 63.19 34.06 60.96 31.84" style="fill:#e6cbe2;stroke:#7d3990;stroke-miterlimit:10"/><rect x="293.88" y="40.86" width="6.94" height="219.86" style="fill:#e6cbe2;stroke:#7d3990;stroke-miterlimit:10"/><polygon points="301.01 94.67 354.98 70.41 301.01 46.15 301.01 94.67" style="fill:#da1c5c;stroke:#7c3990;stroke-miterlimit:10"/><polygon points="315.32 55.88 324.26 64.78 324.26 67.93 324.26 73.28 324.26 74.79 315.32 83.69 306.37 74.79 306.37 73.28 306.37 67.93 306.37 64.78 315.32 55.88" style="fill:#da1c5c;stroke:#7c3990;stroke-miterlimit:10"/><polyline points="315.32 55.88 324.26 64.78 324.26 67.93 324.26 73.28 324.26 74.79 315.32 83.69" style="fill:#f6ebf4;stroke:#7d3990;stroke-miterlimit:10"/><line x1="311.58" y1="72.58" x2="306.37" y2="74.79" style="fill:none;stroke:#7d3990;stroke-miterlimit:10"/><line x1="315.31" y1="76.29" x2="315.32" y2="83.69" style="fill:none;stroke:#7d3990;stroke-miterlimit:10"/><line x1="319.05" y1="72.58" x2="324.26" y2="74.79" style="fill:none;stroke:#7d3990;stroke-miterlimit:10"/><line x1="311.58" y1="66.99" x2="306.37" y2="64.78" style="fill:none;stroke:#7d3990;stroke-miterlimit:10"/><line x1="315.31" y1="63.28" x2="315.32" y2="55.88" style="fill:none;stroke:#7d3990;stroke-miterlimit:10"/><line x1="319.05" y1="66.99" x2="324.26" y2="64.78" style="fill:none;stroke:#7d3990;stroke-miterlimit:10"/><polygon points="315.31 63.28 319.05 66.99 319.05 67.93 319.05 71.97 319.05 72.58 315.31 76.29 311.58 72.58 311.58 71.97 311.58 67.93 311.58 66.99 315.31 63.28" style="fill:#e6cbe2;stroke:#7d3990;stroke-miterlimit:10"/><polygon points="297.36 27.42 302.7 32.73 302.7 34.62 302.7 37.81 302.7 38.72 297.36 44.03 292.01 38.72 292.01 37.81 292.01 34.62 292.01 32.73 297.36 27.42" style="fill:#da1c5c;stroke:#7c3990;stroke-miterlimit:10"/><polyline points="297.36 27.42 302.7 32.73 302.7 34.62 302.7 37.81 302.7 38.72 297.36 44.03" style="fill:#f6ebf4;stroke:#7d3990;stroke-miterlimit:10"/><line x1="295.12" y1="37.4" x2="292.01" y2="38.72" style="fill:none;stroke:#7d3990;stroke-miterlimit:10"/><line x1="297.35" y1="39.61" x2="297.35" y2="44.03" style="fill:none;stroke:#7d3990;stroke-miterlimit:10"/><line x1="299.59" y1="37.39" x2="302.7" y2="38.72" style="fill:none;stroke:#7d3990;stroke-miterlimit:10"/><line x1="295.12" y1="34.06" x2="292.01" y2="32.74" style="fill:none;stroke:#7d3990;stroke-miterlimit:10"/><line x1="297.35" y1="31.84" x2="297.35" y2="27.42" style="fill:none;stroke:#7d3990;stroke-miterlimit:10"/><line x1="299.59" y1="34.06" x2="302.7" y2="32.74" style="fill:none;stroke:#7d3990;stroke-miterlimit:10"/><polygon points="297.35 31.84 299.59 34.06 299.59 34.62 299.59 37.03 299.59 37.39 297.35 39.61 295.12 37.4 295.12 37.03 295.12 34.62 295.12 34.06 297.35 31.84" style="fill:#e6cbe2;stroke:#7d3990;stroke-miterlimit:10"/><line x1="18.24" y1="260.83" x2="334.18" y2="260.83" style="fill:#da1c5c;stroke:#7c3990;stroke-miterlimit:10"/><line x1="238.2" y1="167.67" x2="276.69" y2="167.67" style="fill:none;stroke:#7c3990;stroke-miterlimit:10"/><polygon points="231.44 160.91 283.56 160.91 276.69 167.67 276.69 210.82 231.44 210.82 231.44 160.91" style="fill:#7c3990;opacity:0.2"/><rect x="238.5" y="167.89" width="38.19" height="42.93" style="fill:#7c3990;opacity:0.36"/><path d="M259.21,169.71h-3.53a20.56,20.56,0,0,0,0,41.11h3.53" style="fill:#f2cd7b;stroke:#7c3990;stroke-miterlimit:10"/><g style="clip-path:url(#clip-path)"><line x1="234.43" y1="170.69" x2="255.4" y2="170.69" style="fill:#f5ebf4;stroke:#7d3990;stroke-linejoin:bevel"/><line x1="234.43" y1="173.82" x2="255.4" y2="173.82" style="fill:#f5ebf4;stroke:#7d3990;stroke-linejoin:bevel"/><line x1="234.43" y1="176.95" x2="255.4" y2="176.95" style="fill:#f5ebf4;stroke:#7d3990;stroke-linejoin:bevel"/><line x1="234.43" y1="180.08" x2="255.4" y2="180.08" style="fill:#f5ebf4;stroke:#7d3990;stroke-linejoin:bevel"/><line x1="234.43" y1="183.22" x2="255.4" y2="183.22" style="fill:#f5ebf4;stroke:#7d3990;stroke-linejoin:bevel"/><line x1="234.43" y1="186.35" x2="255.4" y2="186.35" style="fill:#f5ebf4;stroke:#7d3990;stroke-linejoin:bevel"/><line x1="234.43" y1="189.48" x2="255.4" y2="189.48" style="fill:#f5ebf4;stroke:#7d3990;stroke-linejoin:bevel"/><line x1="234.43" y1="192.61" x2="255.4" y2="192.61" style="fill:#f5ebf4;stroke:#7d3990;stroke-linejoin:bevel"/><line x1="234.43" y1="195.75" x2="255.4" y2="195.75" style="fill:#f5ebf4;stroke:#7d3990;stroke-linejoin:bevel"/><line x1="234.43" y1="198.88" x2="255.4" y2="198.88" style="fill:#f5ebf4;stroke:#7d3990;stroke-linejoin:bevel"/><line x1="234.43" y1="202.01" x2="255.4" y2="202.01" style="fill:#f5ebf4;stroke:#7d3990;stroke-linejoin:bevel"/><line x1="234.43" y1="205.14" x2="255.4" y2="205.14" style="fill:#f5ebf4;stroke:#7d3990;stroke-linejoin:bevel"/><line x1="234.43" y1="208.28" x2="255.4" y2="208.28" style="fill:#f5ebf4;stroke:#7d3990;stroke-linejoin:bevel"/><line x1="234.43" y1="209.84" x2="255.4" y2="209.84" style="fill:#f5ebf4;stroke:#7d3990;stroke-linejoin:bevel"/></g><path d="M259.21,169.71a20.56,20.56,0,1,0,20.55,20.56A20.55,20.55,0,0,0,259.21,169.71Z" style="fill:#efb032;stroke:#7c3990;stroke-miterlimit:10"/><path d="M259.21,173.32a16.95,16.95,0,1,0,16.94,17A16.94,16.94,0,0,0,259.21,173.32Zm0,33.89a16.95,16.95,0,0,0,0-33.89" style="fill:#f2c43c;stroke:#7c3990;stroke-miterlimit:10"/><path d="M259.21,207.21a16.95,16.95,0,0,0,0-33.89h-.52a16.95,16.95,0,0,1-.09,33.87" style="fill:#f2cd7b;stroke:#7c3990;stroke-miterlimit:10"/><path d="M251.62,183.05h10.24a3.4,3.4,0,1,1,0,6.8h-7.67" style="fill:none;stroke:#7d3990;stroke-miterlimit:10"/><line x1="254.19" y1="183.05" x2="254.19" y2="196.66" style="fill:none;stroke:#7d3990;stroke-miterlimit:10"/><line x1="257.01" y1="179.2" x2="257.01" y2="183.05" style="fill:none;stroke:#7d3990;stroke-miterlimit:10"/><line x1="260.6" y1="179.2" x2="260.6" y2="183.05" style="fill:none;stroke:#7d3990;stroke-miterlimit:10"/><line x1="257.01" y1="196.66" x2="257.01" y2="200.51" style="fill:none;stroke:#7d3990;stroke-miterlimit:10"/><line x1="260.6" y1="196.66" x2="260.6" y2="200.51" style="fill:none;stroke:#7d3990;stroke-miterlimit:10"/><path d="M261.86,189.85a3.41,3.41,0,0,1,0,6.81H251.62" style="fill:none;stroke:#7d3990;stroke-miterlimit:10"/><polyline points="298.12 213.54 283.61 210.82 283.61 160.8 297.91 154.44" style="fill:#e6cbe2;stroke:#7d3990;stroke-miterlimit:10"/><rect x="298.23" y="154.45" width="7.08" height="59.09" style="fill:#bd92c2;stroke:#7d3990;stroke-miterlimit:10"/><polyline points="53.7 104.43 51.89 108.96 51.89 159.9 53.7 163.51" style="fill:#e6cbe2;stroke:#7d3990;stroke-miterlimit:10"/><polyline points="60.9 163.51 75.41 160.79 75.41 110.78 61.1 104.41" style="fill:#e6cbe2;stroke:#7d3990;stroke-miterlimit:10"/><polyline points="60.9 163.51 75.41 160.79 75.41 110.78 61.1 104.41" style="fill:#7d3990;stroke:#7d3990;stroke-miterlimit:10;opacity:0.65"/><rect x="53.7" y="104.43" width="7.08" height="59.09" transform="translate(114.49 267.94) rotate(-180)" style="fill:#bd92c2;stroke:#7d3990;stroke-miterlimit:10"/><circle cx="257.44" cy="130.13" r="4.39" style="fill:#7d3990;stroke:#7d3990;stroke-miterlimit:10"/><polygon points="260.72 143.3 254.17 143.3 255.78 131.58 259.11 131.58 260.72 143.3" style="fill:#7d3990;stroke:#7d3990;stroke-miterlimit:10"/><rect x="127.56" y="60.91" width="52.22" height="49.91" style="fill:#bd92c2;stroke:#7d3990;stroke-miterlimit:10"/><polygon points="131.68 106.81 127.61 110.81 127.61 60.85 179.78 60.85 175.66 64.92 131.68 64.92 131.68 106.81" style="fill:#f6ebf4"/><rect x="131.68" y="64.92" width="43.98" height="41.89" style="fill:#e6cbe2;stroke:#7d3990;stroke-miterlimit:10"/><line x1="131.68" y1="64.92" x2="127.61" y2="60.85" style="fill:#da1c5c;stroke:#7c3990;stroke-miterlimit:10"/><line x1="175.66" y1="64.92" x2="179.73" y2="60.85" style="fill:#da1c5c;stroke:#7c3990;stroke-miterlimit:10"/><line x1="175.66" y1="106.81" x2="179.73" y2="110.87" style="fill:#da1c5c;stroke:#7c3990;stroke-miterlimit:10"/><line x1="131.68" y1="106.81" x2="127.61" y2="110.87" style="fill:#da1c5c;stroke:#7c3990;stroke-miterlimit:10"/><rect x="127.56" y="60.91" width="52.22" height="49.91" style="fill:none;stroke:#7c3990;stroke-miterlimit:10"/><circle cx="138.17" cy="101.5" r="1.69" style="fill:#bd92c2;stroke:#7d3990;stroke-miterlimit:10"/><circle cx="170.41" cy="70.16" r="1.69" style="fill:#bd92c2;stroke:#7d3990;stroke-miterlimit:10"/><circle cx="170.41" cy="101.5" r="1.69" style="fill:#bd92c2;stroke:#7d3990;stroke-miterlimit:10"/><circle cx="138.17" cy="70.16" r="1.69" style="fill:#bd92c2;stroke:#7d3990;stroke-miterlimit:10"/><circle cx="153.67" cy="80.14" r="4.39" style="fill:#7d3990;stroke:#7d3990;stroke-miterlimit:10"/><polygon points="156.94 93.32 150.4 93.32 152 81.59 155.34 81.59 156.94 93.32" style="fill:#7d3990;stroke:#7d3990;stroke-miterlimit:10"/><rect x="127.35" y="110.9" width="52.22" height="49.91" style="fill:#bd92c2;stroke:#7d3990;stroke-miterlimit:10"/><polygon points="131.47 156.79 127.4 160.8 127.4 110.84 179.57 110.84 175.45 114.91 131.47 114.91 131.47 156.79" style="fill:#f6ebf4"/><rect x="131.47" y="114.91" width="43.98" height="41.89" style="fill:#e6cbe2;stroke:#7d3990;stroke-miterlimit:10"/><line x1="131.47" y1="114.91" x2="127.4" y2="110.84" style="fill:#da1c5c;stroke:#7c3990;stroke-miterlimit:10"/><line x1="175.45" y1="114.91" x2="179.51" y2="110.84" style="fill:#da1c5c;stroke:#7c3990;stroke-miterlimit:10"/><line x1="175.45" y1="156.79" x2="179.51" y2="160.86" style="fill:#da1c5c;stroke:#7c3990;stroke-miterlimit:10"/><line x1="131.47" y1="156.79" x2="127.4" y2="160.86" style="fill:#da1c5c;stroke:#7c3990;stroke-miterlimit:10"/><rect x="127.35" y="110.9" width="52.22" height="49.91" style="fill:none;stroke:#7c3990;stroke-miterlimit:10"/><circle cx="137.95" cy="151.49" r="1.69" style="fill:#bd92c2;stroke:#7d3990;stroke-miterlimit:10"/><circle cx="170.2" cy="120.15" r="1.69" style="fill:#bd92c2;stroke:#7d3990;stroke-miterlimit:10"/><circle cx="170.2" cy="151.49" r="1.69" style="fill:#bd92c2;stroke:#7d3990;stroke-miterlimit:10"/><circle cx="137.95" cy="120.15" r="1.69" style="fill:#bd92c2;stroke:#7d3990;stroke-miterlimit:10"/><circle cx="153.46" cy="130.13" r="4.39" style="fill:#7d3990;stroke:#7d3990;stroke-miterlimit:10"/><polygon points="156.73 143.3 150.18 143.3 151.79 131.58 155.12 131.58 156.73 143.3" style="fill:#7d3990;stroke:#7d3990;stroke-miterlimit:10"/><rect x="75.35" y="110.9" width="52.22" height="49.91" style="fill:#bd92c2;stroke:#7d3990;stroke-miterlimit:10"/><rect x="75.35" y="110.9" width="52.22" height="49.91" style="fill:none;stroke:#7c3990;stroke-miterlimit:10"/><rect x="231.33" y="60.94" width="52.22" height="49.91" style="fill:#bd92c2;stroke:#7d3990;stroke-miterlimit:10"/><polygon points="235.45 106.83 231.39 110.84 231.39 60.88 283.56 60.88 279.44 64.95 235.45 64.95 235.45 106.83" style="fill:#f6ebf4"/><rect x="235.45" y="64.95" width="43.98" height="41.89" style="fill:#e6cbe2;stroke:#7d3990;stroke-miterlimit:10"/><line x1="235.45" y1="64.95" x2="231.39" y2="60.88" style="fill:#da1c5c;stroke:#7c3990;stroke-miterlimit:10"/><line x1="279.44" y1="64.95" x2="283.5" y2="60.88" style="fill:#da1c5c;stroke:#7c3990;stroke-miterlimit:10"/><line x1="279.44" y1="106.83" x2="283.5" y2="110.9" style="fill:#da1c5c;stroke:#7c3990;stroke-miterlimit:10"/><line x1="235.45" y1="106.83" x2="231.39" y2="110.9" style="fill:#da1c5c;stroke:#7c3990;stroke-miterlimit:10"/><rect x="231.33" y="60.94" width="52.22" height="49.91" style="fill:none;stroke:#7c3990;stroke-miterlimit:10"/><circle cx="241.94" cy="101.53" r="1.69" style="fill:#bd92c2;stroke:#7d3990;stroke-miterlimit:10"/><circle cx="274.19" cy="70.19" r="1.69" style="fill:#bd92c2;stroke:#7d3990;stroke-miterlimit:10"/><circle cx="274.19" cy="101.53" r="1.69" style="fill:#bd92c2;stroke:#7d3990;stroke-miterlimit:10"/><circle cx="241.94" cy="70.19" r="1.69" style="fill:#bd92c2;stroke:#7d3990;stroke-miterlimit:10"/><circle cx="257.44" cy="80.17" r="4.39" style="fill:#7d3990;stroke:#7d3990;stroke-miterlimit:10"/><polygon points="260.72 93.34 254.17 93.34 255.78 81.62 259.11 81.62 260.72 93.34" style="fill:#7d3990;stroke:#7d3990;stroke-miterlimit:10"/><rect x="75.35" y="60.94" width="52.22" height="49.91" style="fill:#bd92c2;stroke:#7d3990;stroke-miterlimit:10"/><polygon points="79.47 106.83 75.41 110.84 75.41 60.88 127.58 60.88 123.46 64.95 79.47 64.95 79.47 106.83" style="fill:#f6ebf4"/><rect x="79.47" y="64.95" width="43.98" height="41.89" style="fill:#e6cbe2;stroke:#7d3990;stroke-miterlimit:10"/><line x1="79.47" y1="64.95" x2="75.41" y2="60.88" style="fill:#da1c5c;stroke:#7c3990;stroke-miterlimit:10"/><line x1="123.46" y1="64.95" x2="127.52" y2="60.88" style="fill:#da1c5c;stroke:#7c3990;stroke-miterlimit:10"/><line x1="123.46" y1="106.83" x2="127.52" y2="110.9" style="fill:#da1c5c;stroke:#7c3990;stroke-miterlimit:10"/><line x1="79.47" y1="106.83" x2="75.41" y2="110.9" style="fill:#da1c5c;stroke:#7c3990;stroke-miterlimit:10"/><rect x="75.35" y="60.94" width="52.22" height="49.91" style="fill:none;stroke:#7c3990;stroke-miterlimit:10"/><circle cx="85.96" cy="101.53" r="1.69" style="fill:#bd92c2;stroke:#7d3990;stroke-miterlimit:10"/><circle cx="118.21" cy="70.19" r="1.69" style="fill:#bd92c2;stroke:#7d3990;stroke-miterlimit:10"/><circle cx="118.21" cy="101.53" r="1.69" style="fill:#bd92c2;stroke:#7d3990;stroke-miterlimit:10"/><circle cx="85.96" cy="70.19" r="1.69" style="fill:#bd92c2;stroke:#7d3990;stroke-miterlimit:10"/><circle cx="101.47" cy="80.17" r="4.39" style="fill:#7d3990;stroke:#7d3990;stroke-miterlimit:10"/><polygon points="104.74 93.34 98.19 93.34 99.8 81.62 103.13 81.62 104.74 93.34" style="fill:#7d3990;stroke:#7d3990;stroke-miterlimit:10"/><rect x="179.34" y="160.85" width="52.22" height="49.91" style="fill:#bd92c2;stroke:#7d3990;stroke-miterlimit:10"/><polygon points="183.46 206.74 179.4 210.75 179.4 160.79 231.56 160.79 227.44 164.86 183.46 164.86 183.46 206.74" style="fill:#f6ebf4"/><rect x="183.46" y="164.86" width="43.98" height="41.89" style="fill:#e6cbe2;stroke:#7d3990;stroke-miterlimit:10"/><line x1="183.46" y1="164.86" x2="179.4" y2="160.79" style="fill:#da1c5c;stroke:#7c3990;stroke-miterlimit:10"/><line x1="227.44" y1="164.86" x2="231.51" y2="160.79" style="fill:#da1c5c;stroke:#7c3990;stroke-miterlimit:10"/><line x1="227.44" y1="206.74" x2="231.51" y2="210.81" style="fill:#da1c5c;stroke:#7c3990;stroke-miterlimit:10"/><line x1="183.46" y1="206.74" x2="179.4" y2="210.81" style="fill:#da1c5c;stroke:#7c3990;stroke-miterlimit:10"/><rect x="179.34" y="160.85" width="52.22" height="49.91" style="fill:none;stroke:#7c3990;stroke-miterlimit:10"/><circle cx="189.95" cy="201.44" r="1.69" style="fill:#bd92c2;stroke:#7d3990;stroke-miterlimit:10"/><circle cx="222.2" cy="170.1" r="1.69" style="fill:#bd92c2;stroke:#7d3990;stroke-miterlimit:10"/><circle cx="222.2" cy="201.44" r="1.69" style="fill:#bd92c2;stroke:#7d3990;stroke-miterlimit:10"/><circle cx="189.95" cy="170.1" r="1.69" style="fill:#bd92c2;stroke:#7d3990;stroke-miterlimit:10"/><circle cx="205.45" cy="180.08" r="4.39" style="fill:#7d3990;stroke:#7d3990;stroke-miterlimit:10"/><polygon points="208.73 193.25 202.18 193.25 203.79 181.53 207.12 181.53 208.73 193.25" style="fill:#7d3990;stroke:#7d3990;stroke-miterlimit:10"/><rect x="127.35" y="160.85" width="52.22" height="49.91" style="fill:#bd92c2;stroke:#7d3990;stroke-miterlimit:10"/><polygon points="131.47 206.74 127.4 210.75 127.4 160.79 179.57 160.79 175.45 164.86 131.47 164.86 131.47 206.74" style="fill:#f6ebf4"/><rect x="131.47" y="164.86" width="43.98" height="41.89" style="fill:#e6cbe2;stroke:#7d3990;stroke-miterlimit:10"/><line x1="131.47" y1="164.86" x2="127.4" y2="160.79" style="fill:#da1c5c;stroke:#7c3990;stroke-miterlimit:10"/><line x1="175.45" y1="164.86" x2="179.51" y2="160.79" style="fill:#da1c5c;stroke:#7c3990;stroke-miterlimit:10"/><line x1="175.45" y1="206.74" x2="179.51" y2="210.81" style="fill:#da1c5c;stroke:#7c3990;stroke-miterlimit:10"/><line x1="131.47" y1="206.74" x2="127.4" y2="210.81" style="fill:#da1c5c;stroke:#7c3990;stroke-miterlimit:10"/><rect x="127.35" y="160.85" width="52.22" height="49.91" style="fill:none;stroke:#7c3990;stroke-miterlimit:10"/><circle cx="137.95" cy="201.44" r="1.69" style="fill:#bd92c2;stroke:#7d3990;stroke-miterlimit:10"/><circle cx="170.2" cy="170.1" r="1.69" style="fill:#bd92c2;stroke:#7d3990;stroke-miterlimit:10"/><circle cx="170.2" cy="201.44" r="1.69" style="fill:#bd92c2;stroke:#7d3990;stroke-miterlimit:10"/><circle cx="137.95" cy="170.1" r="1.69" style="fill:#bd92c2;stroke:#7d3990;stroke-miterlimit:10"/><circle cx="153.46" cy="180.08" r="4.39" style="fill:#7d3990;stroke:#7d3990;stroke-miterlimit:10"/><polygon points="156.73 193.25 150.18 193.25 151.79 181.53 155.12 181.53 156.73 193.25" style="fill:#7d3990;stroke:#7d3990;stroke-miterlimit:10"/><rect x="75.35" y="160.85" width="52.22" height="49.91" style="fill:#bd92c2;stroke:#7d3990;stroke-miterlimit:10"/><polygon points="79.47 206.74 75.41 210.75 75.41 160.79 127.58 160.79 123.46 164.86 79.47 164.86 79.47 206.74" style="fill:#f6ebf4"/><rect x="79.47" y="164.86" width="43.98" height="41.89" style="fill:#e6cbe2;stroke:#7d3990;stroke-miterlimit:10"/><line x1="79.47" y1="164.86" x2="75.41" y2="160.79" style="fill:#da1c5c;stroke:#7c3990;stroke-miterlimit:10"/><line x1="123.46" y1="164.86" x2="127.52" y2="160.79" style="fill:#da1c5c;stroke:#7c3990;stroke-miterlimit:10"/><line x1="123.46" y1="206.74" x2="127.52" y2="210.81" style="fill:#da1c5c;stroke:#7c3990;stroke-miterlimit:10"/><line x1="79.47" y1="206.74" x2="75.41" y2="210.81" style="fill:#da1c5c;stroke:#7c3990;stroke-miterlimit:10"/><rect x="75.35" y="160.85" width="52.22" height="49.91" style="fill:none;stroke:#7c3990;stroke-miterlimit:10"/><circle cx="85.96" cy="201.44" r="1.69" style="fill:#bd92c2;stroke:#7d3990;stroke-miterlimit:10"/><circle cx="118.21" cy="170.1" r="1.69" style="fill:#bd92c2;stroke:#7d3990;stroke-miterlimit:10"/><circle cx="118.21" cy="201.44" r="1.69" style="fill:#bd92c2;stroke:#7d3990;stroke-miterlimit:10"/><circle cx="85.96" cy="170.1" r="1.69" style="fill:#bd92c2;stroke:#7d3990;stroke-miterlimit:10"/><circle cx="101.47" cy="180.08" r="4.39" style="fill:#7d3990;stroke:#7d3990;stroke-miterlimit:10"/><polygon points="104.74 193.25 98.19 193.25 99.8 181.53 103.13 181.53 104.74 193.25" style="fill:#7d3990;stroke:#7d3990;stroke-miterlimit:10"/><rect x="231.33" y="210.88" width="52.22" height="49.91" style="fill:#bd92c2;stroke:#7d3990;stroke-miterlimit:10"/><polygon points="235.45 256.77 231.39 260.78 231.39 210.82 283.56 210.82 279.44 214.88 235.45 214.88 235.45 256.77" style="fill:#f6ebf4"/><rect x="235.45" y="214.88" width="43.98" height="41.89" style="fill:#e6cbe2;stroke:#7d3990;stroke-miterlimit:10"/><line x1="235.45" y1="214.88" x2="231.39" y2="210.82" style="fill:#da1c5c;stroke:#7c3990;stroke-miterlimit:10"/><line x1="279.44" y1="214.88" x2="283.5" y2="210.82" style="fill:#da1c5c;stroke:#7c3990;stroke-miterlimit:10"/><line x1="279.44" y1="256.77" x2="283.5" y2="260.84" style="fill:#da1c5c;stroke:#7c3990;stroke-miterlimit:10"/><line x1="235.45" y1="256.77" x2="231.39" y2="260.84" style="fill:#da1c5c;stroke:#7c3990;stroke-miterlimit:10"/><rect x="231.33" y="210.88" width="52.22" height="49.91" style="fill:none;stroke:#7c3990;stroke-miterlimit:10"/><circle cx="241.94" cy="251.47" r="1.69" style="fill:#bd92c2;stroke:#7d3990;stroke-miterlimit:10"/><circle cx="274.19" cy="220.13" r="1.69" style="fill:#bd92c2;stroke:#7d3990;stroke-miterlimit:10"/><circle cx="274.19" cy="251.47" r="1.69" style="fill:#bd92c2;stroke:#7d3990;stroke-miterlimit:10"/><circle cx="241.94" cy="220.13" r="1.69" style="fill:#bd92c2;stroke:#7d3990;stroke-miterlimit:10"/><circle cx="257.44" cy="232.77" r="4.39" style="fill:#7d3990;stroke:#7d3990;stroke-miterlimit:10"/><polygon points="260.72 245.94 254.17 245.94 255.78 234.22 259.11 234.22 260.72 245.94" style="fill:#7d3990;stroke:#7d3990;stroke-miterlimit:10"/><rect x="179.34" y="210.8" width="52.22" height="49.91" style="fill:#bd92c2;stroke:#7d3990;stroke-miterlimit:10"/><polygon points="183.46 256.69 179.4 260.7 179.4 210.74 231.56 210.74 227.44 214.81 183.46 214.81 183.46 256.69" style="fill:#f6ebf4"/><rect x="183.46" y="214.81" width="43.98" height="41.89" style="fill:#e6cbe2;stroke:#7d3990;stroke-miterlimit:10"/><line x1="183.46" y1="214.81" x2="179.4" y2="210.74" style="fill:#da1c5c;stroke:#7c3990;stroke-miterlimit:10"/><line x1="227.44" y1="214.81" x2="231.51" y2="210.74" style="fill:#da1c5c;stroke:#7c3990;stroke-miterlimit:10"/><line x1="227.44" y1="256.69" x2="231.51" y2="260.76" style="fill:#da1c5c;stroke:#7c3990;stroke-miterlimit:10"/><line x1="183.46" y1="256.69" x2="179.4" y2="260.76" style="fill:#da1c5c;stroke:#7c3990;stroke-miterlimit:10"/><rect x="179.34" y="210.8" width="52.22" height="49.91" style="fill:none;stroke:#7c3990;stroke-miterlimit:10"/><circle cx="189.95" cy="251.39" r="1.69" style="fill:#bd92c2;stroke:#7d3990;stroke-miterlimit:10"/><circle cx="222.2" cy="220.05" r="1.69" style="fill:#bd92c2;stroke:#7d3990;stroke-miterlimit:10"/><circle cx="222.2" cy="251.39" r="1.69" style="fill:#bd92c2;stroke:#7d3990;stroke-miterlimit:10"/><circle cx="189.95" cy="220.05" r="1.69" style="fill:#bd92c2;stroke:#7d3990;stroke-miterlimit:10"/><circle cx="205.45" cy="230.03" r="4.39" style="fill:#7d3990;stroke:#7d3990;stroke-miterlimit:10"/><polygon points="208.73 243.2 202.18 243.2 203.79 231.48 207.12 231.48 208.73 243.2" style="fill:#7d3990;stroke:#7d3990;stroke-miterlimit:10"/><rect x="75.35" y="210.8" width="52.22" height="49.91" style="fill:#bd92c2;stroke:#7d3990;stroke-miterlimit:10"/><polygon points="79.47 256.69 75.41 260.7 75.41 210.74 127.58 210.74 123.46 214.81 79.47 214.81 79.47 256.69" style="fill:#f6ebf4"/><rect x="79.47" y="214.81" width="43.98" height="41.89" style="fill:#e6cbe2;stroke:#7d3990;stroke-miterlimit:10"/><line x1="79.47" y1="214.81" x2="75.41" y2="210.74" style="fill:#da1c5c;stroke:#7c3990;stroke-miterlimit:10"/><line x1="123.46" y1="214.81" x2="127.52" y2="210.74" style="fill:#da1c5c;stroke:#7c3990;stroke-miterlimit:10"/><line x1="123.46" y1="256.69" x2="127.52" y2="260.76" style="fill:#da1c5c;stroke:#7c3990;stroke-miterlimit:10"/><line x1="79.47" y1="256.69" x2="75.41" y2="260.76" style="fill:#da1c5c;stroke:#7c3990;stroke-miterlimit:10"/><rect x="75.35" y="210.8" width="52.22" height="49.91" style="fill:none;stroke:#7c3990;stroke-miterlimit:10"/><circle cx="85.96" cy="251.39" r="1.69" style="fill:#bd92c2;stroke:#7d3990;stroke-miterlimit:10"/><circle cx="118.21" cy="220.05" r="1.69" style="fill:#bd92c2;stroke:#7d3990;stroke-miterlimit:10"/><circle cx="118.21" cy="251.39" r="1.69" style="fill:#bd92c2;stroke:#7d3990;stroke-miterlimit:10"/><circle cx="85.96" cy="220.05" r="1.69" style="fill:#bd92c2;stroke:#7d3990;stroke-miterlimit:10"/><circle cx="101.47" cy="230.03" r="4.39" style="fill:#7d3990;stroke:#7d3990;stroke-miterlimit:10"/><polygon points="104.74 243.2 98.19 243.2 99.8 231.48 103.13 231.48 104.74 243.2" style="fill:#7d3990;stroke:#7d3990;stroke-miterlimit:10"/><rect x="179.34" y="11" width="52.22" height="49.91" style="fill:#bd92c2;stroke:#7d3990;stroke-miterlimit:10"/><polygon points="183.46 56.89 179.4 60.9 179.4 10.94 231.56 10.94 227.44 15 183.46 15 183.46 56.89" style="fill:#f6ebf4"/><rect x="183.46" y="15" width="43.98" height="41.89" style="fill:#e6cbe2;stroke:#7d3990;stroke-miterlimit:10"/><line x1="183.46" y1="15" x2="179.4" y2="10.94" style="fill:#da1c5c;stroke:#7c3990;stroke-miterlimit:10"/><line x1="227.44" y1="15" x2="231.51" y2="10.94" style="fill:#da1c5c;stroke:#7c3990;stroke-miterlimit:10"/><line x1="227.44" y1="56.89" x2="231.51" y2="60.96" style="fill:#da1c5c;stroke:#7c3990;stroke-miterlimit:10"/><line x1="183.46" y1="56.89" x2="179.4" y2="60.96" style="fill:#da1c5c;stroke:#7c3990;stroke-miterlimit:10"/><rect x="179.34" y="11" width="52.22" height="49.91" style="fill:none;stroke:#7c3990;stroke-miterlimit:10"/><circle cx="189.95" cy="51.59" r="1.69" style="fill:#bd92c2;stroke:#7d3990;stroke-miterlimit:10"/><circle cx="222.2" cy="20.25" r="1.69" style="fill:#bd92c2;stroke:#7d3990;stroke-miterlimit:10"/><circle cx="222.2" cy="51.59" r="1.69" style="fill:#bd92c2;stroke:#7d3990;stroke-miterlimit:10"/><circle cx="189.95" cy="20.25" r="1.69" style="fill:#bd92c2;stroke:#7d3990;stroke-miterlimit:10"/><circle cx="205.45" cy="30.22" r="4.39" style="fill:#7d3990;stroke:#7d3990;stroke-miterlimit:10"/><polygon points="208.73 43.4 202.18 43.4 203.79 31.68 207.12 31.68 208.73 43.4" style="fill:#7d3990;stroke:#7d3990;stroke-miterlimit:10"/><rect x="75.38" y="110.93" width="52.22" height="49.91" style="fill:#bd92c2;stroke:#7d3990;stroke-miterlimit:10"/><polyline points="75.44 110.87 82.25 117.68 82.25 160.83" style="fill:none;stroke:#7c3990;stroke-miterlimit:10"/><polyline points="127.55 110.87 120.74 117.68 120.74 160.83" style="fill:none;stroke:#7c3990;stroke-miterlimit:10"/><rect x="75.38" y="110.93" width="52.22" height="49.91" style="fill:none;stroke:#7c3990;stroke-miterlimit:10"/><line x1="82.25" y1="117.68" x2="120.74" y2="117.68" style="fill:none;stroke:#7c3990;stroke-miterlimit:10"/><polygon points="75.49 110.93 127.61 110.93 120.74 117.68 120.74 160.83 75.49 160.83 75.49 110.93" style="fill:#7c3990;opacity:0.2"/><rect x="82.55" y="117.9" width="38.19" height="42.93" style="fill:#7c3990;opacity:0.36"/><polyline points="157.94 104.43 156.13 108.96 156.13 159.9 157.94 163.51" style="fill:#e6cbe2;stroke:#7d3990;stroke-miterlimit:10"/><polyline points="165.14 163.51 179.65 160.79 179.65 110.77 165.34 104.41" style="fill:#e6cbe2;stroke:#7d3990;stroke-miterlimit:10"/><polyline points="165.14 163.51 179.65 160.79 179.65 110.77 165.34 104.41" style="fill:#7d3990;stroke:#7d3990;stroke-miterlimit:10;opacity:0.65"/><rect x="157.94" y="104.43" width="7.08" height="59.09" transform="translate(322.96 267.94) rotate(-180)" style="fill:#bd92c2;stroke:#7d3990;stroke-miterlimit:10"/><rect x="179.59" y="110.9" width="52.22" height="49.91" style="fill:#bd92c2;stroke:#7d3990;stroke-miterlimit:10"/><rect x="179.59" y="110.9" width="52.22" height="49.91" style="fill:none;stroke:#7c3990;stroke-miterlimit:10"/><rect x="179.62" y="110.92" width="52.22" height="49.91" style="fill:#bd92c2;stroke:#7d3990;stroke-miterlimit:10"/><polyline points="179.67 110.87 186.48 117.68 186.48 160.83" style="fill:none;stroke:#7c3990;stroke-miterlimit:10"/><polyline points="231.79 110.87 224.98 117.68 224.98 160.83" style="fill:none;stroke:#7c3990;stroke-miterlimit:10"/><rect x="179.62" y="110.92" width="52.22" height="49.91" style="fill:none;stroke:#7c3990;stroke-miterlimit:10"/><line x1="186.48" y1="117.68" x2="224.98" y2="117.68" style="fill:none;stroke:#7c3990;stroke-miterlimit:10"/><polygon points="179.73 110.92 231.84 110.92 224.98 117.68 224.98 160.83 179.73 160.83 179.73 110.92" style="fill:#7c3990;opacity:0.2"/><rect x="186.79" y="117.9" width="38.19" height="42.93" style="fill:#7c3990;opacity:0.36"/><polyline points="105.49 4.54 103.68 9.08 103.68 60.02 105.49 63.63" style="fill:#e6cbe2;stroke:#7d3990;stroke-miterlimit:10"/><polyline points="112.69 63.63 127.2 60.91 127.2 10.89 112.89 4.52" style="fill:#e6cbe2;stroke:#7d3990;stroke-miterlimit:10"/><polyline points="112.69 63.63 127.2 60.91 127.2 10.89 112.89 4.52" style="fill:#7d3990;stroke:#7d3990;stroke-miterlimit:10;opacity:0.65"/><rect x="105.49" y="4.54" width="7.08" height="59.09" transform="translate(218.07 68.17) rotate(-180)" style="fill:#bd92c2;stroke:#7d3990;stroke-miterlimit:10"/><rect x="127.14" y="11.01" width="52.22" height="49.91" style="fill:#bd92c2;stroke:#7d3990;stroke-miterlimit:10"/><rect x="127.14" y="11.01" width="52.22" height="49.91" style="fill:none;stroke:#7c3990;stroke-miterlimit:10"/><rect x="127.17" y="11.04" width="52.22" height="49.91" style="fill:#bd92c2;stroke:#7d3990;stroke-miterlimit:10"/><polyline points="127.23 10.98 134.04 17.79 134.04 60.95" style="fill:none;stroke:#7c3990;stroke-miterlimit:10"/><polyline points="179.34 10.98 172.53 17.79 172.53 60.95" style="fill:none;stroke:#7c3990;stroke-miterlimit:10"/><rect x="127.17" y="11.04" width="52.22" height="49.91" style="fill:none;stroke:#7c3990;stroke-miterlimit:10"/><line x1="134.04" y1="17.79" x2="172.53" y2="17.79" style="fill:none;stroke:#7c3990;stroke-miterlimit:10"/><polygon points="127.28 11.04 179.4 11.04 172.53 17.79 172.53 60.95 127.28 60.95 127.28 11.04" style="fill:#7c3990;opacity:0.2"/><rect x="134.34" y="18.02" width="38.19" height="42.93" style="fill:#7c3990;opacity:0.36"/><path d="M155.46,19.42h-3.53a20.56,20.56,0,1,0,0,41.11h3.53" style="fill:#f2cd7b;stroke:#7c3990;stroke-miterlimit:10"/><g style="clip-path:url(#clip-path-2)"><line x1="130.68" y1="20.4" x2="151.64" y2="20.4" style="fill:#f5ebf4;stroke:#7d3990;stroke-linejoin:bevel"/><line x1="130.68" y1="23.53" x2="151.64" y2="23.53" style="fill:#f5ebf4;stroke:#7d3990;stroke-linejoin:bevel"/><line x1="130.68" y1="26.66" x2="151.64" y2="26.66" style="fill:#f5ebf4;stroke:#7d3990;stroke-linejoin:bevel"/><line x1="130.68" y1="29.79" x2="151.64" y2="29.79" style="fill:#f5ebf4;stroke:#7d3990;stroke-linejoin:bevel"/><line x1="130.68" y1="32.92" x2="151.64" y2="32.92" style="fill:#f5ebf4;stroke:#7d3990;stroke-linejoin:bevel"/><line x1="130.68" y1="36.06" x2="151.64" y2="36.06" style="fill:#f5ebf4;stroke:#7d3990;stroke-linejoin:bevel"/><line x1="130.68" y1="39.19" x2="151.64" y2="39.19" style="fill:#f5ebf4;stroke:#7d3990;stroke-linejoin:bevel"/><line x1="130.68" y1="42.32" x2="151.64" y2="42.32" style="fill:#f5ebf4;stroke:#7d3990;stroke-linejoin:bevel"/><line x1="130.68" y1="45.45" x2="151.64" y2="45.45" style="fill:#f5ebf4;stroke:#7d3990;stroke-linejoin:bevel"/><line x1="130.68" y1="48.59" x2="151.64" y2="48.59" style="fill:#f5ebf4;stroke:#7d3990;stroke-linejoin:bevel"/><line x1="130.68" y1="51.72" x2="151.64" y2="51.72" style="fill:#f5ebf4;stroke:#7d3990;stroke-linejoin:bevel"/><line x1="130.68" y1="54.85" x2="151.64" y2="54.85" style="fill:#f5ebf4;stroke:#7d3990;stroke-linejoin:bevel"/><line x1="130.68" y1="57.98" x2="151.64" y2="57.98" style="fill:#f5ebf4;stroke:#7d3990;stroke-linejoin:bevel"/><line x1="130.68" y1="59.55" x2="151.64" y2="59.55" style="fill:#f5ebf4;stroke:#7d3990;stroke-linejoin:bevel"/></g><path d="M155.46,19.42A20.56,20.56,0,1,0,176,40,20.55,20.55,0,0,0,155.46,19.42Z" style="fill:#efb032;stroke:#7c3990;stroke-miterlimit:10"/><path d="M155.46,23A16.95,16.95,0,1,0,172.4,40,16.94,16.94,0,0,0,155.46,23Zm0,33.89a16.95,16.95,0,0,0,0-33.89" style="fill:#f2c43c;stroke:#7c3990;stroke-miterlimit:10"/><path d="M155.46,56.92a16.95,16.95,0,0,0,0-33.89h-.53a16.94,16.94,0,0,1-.09,33.86" style="fill:#f2cd7b;stroke:#7c3990;stroke-miterlimit:10"/><path d="M147.86,32.75H158.1a3.41,3.41,0,0,1,0,6.81h-7.67" style="fill:none;stroke:#7d3990;stroke-miterlimit:10"/><line x1="150.43" y1="32.75" x2="150.43" y2="46.36" style="fill:none;stroke:#7d3990;stroke-miterlimit:10"/><line x1="153.26" y1="28.9" x2="153.26" y2="32.75" style="fill:none;stroke:#7d3990;stroke-miterlimit:10"/><line x1="156.85" y1="28.9" x2="156.85" y2="32.75" style="fill:none;stroke:#7d3990;stroke-miterlimit:10"/><line x1="153.26" y1="46.36" x2="153.26" y2="50.21" style="fill:none;stroke:#7d3990;stroke-miterlimit:10"/><line x1="156.85" y1="46.36" x2="156.85" y2="50.21" style="fill:none;stroke:#7d3990;stroke-miterlimit:10"/><path d="M158.1,39.56a3.4,3.4,0,1,1,0,6.8H147.86" style="fill:none;stroke:#7d3990;stroke-miterlimit:10"/><polyline points="105.44 204.37 103.63 210.72 103.63 259.84 105.44 263.45" style="fill:#e6cbe2;stroke:#7d3990;stroke-miterlimit:10"/><polyline points="112.64 263.45 127.14 260.73 127.14 210.72 112.84 204.35" style="fill:#e6cbe2;stroke:#7d3990;stroke-miterlimit:10"/><polyline points="112.64 263.45 127.14 260.73 127.14 210.72 112.84 204.35" style="fill:#7d3990;stroke:#7d3990;stroke-miterlimit:10;opacity:0.65"/><rect x="105.44" y="204.37" width="7.08" height="59.09" transform="translate(217.96 467.82) rotate(-180)" style="fill:#bd92c2;stroke:#7d3990;stroke-miterlimit:10"/><rect x="127.09" y="210.84" width="52.22" height="49.91" style="fill:#bd92c2;stroke:#7d3990;stroke-miterlimit:10"/><rect x="127.09" y="210.84" width="52.22" height="49.91" style="fill:none;stroke:#7c3990;stroke-miterlimit:10"/><rect x="127.12" y="210.87" width="52.22" height="49.91" style="fill:#bd92c2;stroke:#7d3990;stroke-miterlimit:10"/><polyline points="127.17 210.81 133.98 217.62 133.98 260.77" style="fill:none;stroke:#7c3990;stroke-miterlimit:10"/><polyline points="179.28 210.81 172.48 217.62 172.48 260.77" style="fill:none;stroke:#7c3990;stroke-miterlimit:10"/><rect x="127.12" y="210.87" width="52.22" height="49.91" style="fill:none;stroke:#7c3990;stroke-miterlimit:10"/><line x1="133.98" y1="217.62" x2="172.48" y2="217.62" style="fill:none;stroke:#7c3990;stroke-miterlimit:10"/><polygon points="127.23 210.87 179.34 210.87 172.48 217.62 172.48 260.77 127.23 260.77 127.23 210.87" style="fill:#7c3990;opacity:0.2"/><rect x="134.29" y="217.84" width="38.19" height="42.93" style="fill:#7c3990;opacity:0.36"/><polyline points="253.55 54.48 255.36 60.83 255.36 109.95 253.55 113.56" style="fill:#e6cbe2;stroke:#7d3990;stroke-miterlimit:10"/><rect x="179.57" y="60.94" width="52.22" height="49.91" style="fill:#bd92c2;stroke:#7d3990;stroke-miterlimit:10"/><polyline points="179.63 60.88 186.44 67.69 186.44 110.84" style="fill:none;stroke:#7c3990;stroke-miterlimit:10"/><polyline points="231.74 60.88 224.93 67.69 224.93 110.84" style="fill:none;stroke:#7c3990;stroke-miterlimit:10"/><rect x="179.57" y="60.94" width="52.22" height="49.91" style="fill:none;stroke:#7c3990;stroke-miterlimit:10"/><line x1="186.43" y1="67.69" x2="224.93" y2="67.69" style="fill:none;stroke:#7c3990;stroke-miterlimit:10"/><polygon points="179.68 60.94 231.79 60.94 224.93 67.69 224.93 110.84 179.68 110.84 179.68 60.94" style="fill:#7c3990;opacity:0.2"/><rect x="186.74" y="67.91" width="38.19" height="42.93" style="fill:#7c3990;opacity:0.36"/><polyline points="246.35 113.56 231.84 110.84 231.84 60.83 246.15 54.46" style="fill:#e6cbe2;stroke:#7d3990;stroke-miterlimit:10"/><rect x="246.47" y="54.48" width="7.08" height="59.09" style="fill:#bd92c2;stroke:#7d3990;stroke-miterlimit:10"/><polygon points="153.2 214.88 137.88 230.13 137.88 235.53 137.88 243.07 137.88 245.66 153.2 260.91 168.53 245.66 168.53 243.07 168.53 235.53 168.53 230.13 153.2 214.88" style="fill:#da1c5c;stroke:#7c3990;stroke-miterlimit:10"/><polyline points="153.2 214.88 137.88 230.13 137.88 235.53 137.88 243.07 137.88 245.66 153.2 260.91" style="fill:#f6ebf4;stroke:#7d3990;stroke-miterlimit:10"/><line x1="159.6" y1="241.87" x2="168.53" y2="245.66" style="fill:none;stroke:#7d3990;stroke-miterlimit:10"/><line x1="153.2" y1="248.23" x2="153.2" y2="260.91" style="fill:none;stroke:#7d3990;stroke-miterlimit:10"/><line x1="146.8" y1="241.87" x2="137.88" y2="245.66" style="fill:none;stroke:#7d3990;stroke-miterlimit:10"/><line x1="159.6" y1="233.92" x2="168.53" y2="230.13" style="fill:none;stroke:#7d3990;stroke-miterlimit:10"/><line x1="153.2" y1="227.56" x2="153.2" y2="214.88" style="fill:none;stroke:#7d3990;stroke-miterlimit:10"/><line x1="146.8" y1="233.92" x2="137.88" y2="230.13" style="fill:none;stroke:#7d3990;stroke-miterlimit:10"/><polygon points="153.2 227.56 146.8 233.92 146.8 235.53 146.8 240.83 146.8 241.87 153.2 248.23 159.6 241.87 159.6 240.83 159.6 235.53 159.6 233.92 153.2 227.56" style="fill:#e6cbe2;stroke:#7d3990;stroke-miterlimit:10"/><polyline points="202.98 75.8 195.02 65.66 200.61 67.43 205.85 65.66 211.71 67.43 216.68 65.66 208.38 76.16" style="fill:#fff6d3;stroke:#7d3990;stroke-miterlimit:10"/><polygon points="222.82 104.72 218.18 110.93 193.29 110.93 188.66 104.72 190.76 89.38 202.98 75.8 208.5 75.8 221.13 89.38 222.82 104.72" style="fill:#fff6d3;stroke:#7d3990;stroke-miterlimit:10"/><line x1="201.77" y1="74.53" x2="209.47" y2="75.01" style="fill:#d4bd98;stroke:#7d3990;stroke-miterlimit:10"/><line x1="209.47" y1="76.84" x2="201.9" y2="77" style="fill:#d4bd98;stroke:#7d3990;stroke-miterlimit:10"/><polyline points="196.38 73.97 202.51 75.8 197.5 77.48" style="fill:none;stroke:#7d3990;stroke-miterlimit:10"/><line x1="205.27" y1="85.73" x2="205.27" y2="89.38" style="fill:none;stroke:#7d3990;stroke-miterlimit:10"/><line x1="205.27" y1="102.25" x2="205.27" y2="105.89" style="fill:none;stroke:#7d3990;stroke-miterlimit:10"/><line x1="207.44" y1="85.73" x2="207.44" y2="89.38" style="fill:none;stroke:#7d3990;stroke-miterlimit:10"/><line x1="207.44" y1="102.25" x2="207.44" y2="105.89" style="fill:none;stroke:#7d3990;stroke-miterlimit:10"/><path d="M212.51,92.76h0a3.38,3.38,0,0,0-3.38-3.38H203.3a3.33,3.33,0,0,0-3.39,3,3.21,3.21,0,0,0,3.21,3.39h6.29a3.34,3.34,0,0,1,3.39,3,3.22,3.22,0,0,1-3.21,3.39h-6.76a3.38,3.38,0,0,1-3.38-3.38v0" style="fill:none;stroke:#7d3990;stroke-miterlimit:10"/><path d="M103.67,119.3h-3.53a20.56,20.56,0,1,0,0,41.11h3.53" style="fill:#f2cd7b;stroke:#7c3990;stroke-miterlimit:10"/><g style="clip-path:url(#clip-path-3)"><line x1="78.89" y1="120.28" x2="99.85" y2="120.28" style="fill:#f5ebf4;stroke:#7d3990;stroke-linejoin:bevel"/><line x1="78.89" y1="123.41" x2="99.85" y2="123.41" style="fill:#f5ebf4;stroke:#7d3990;stroke-linejoin:bevel"/><line x1="78.89" y1="126.55" x2="99.85" y2="126.55" style="fill:#f5ebf4;stroke:#7d3990;stroke-linejoin:bevel"/><line x1="78.89" y1="129.68" x2="99.85" y2="129.68" style="fill:#f5ebf4;stroke:#7d3990;stroke-linejoin:bevel"/><line x1="78.89" y1="132.81" x2="99.85" y2="132.81" style="fill:#f5ebf4;stroke:#7d3990;stroke-linejoin:bevel"/><line x1="78.89" y1="135.94" x2="99.85" y2="135.94" style="fill:#f5ebf4;stroke:#7d3990;stroke-linejoin:bevel"/><line x1="78.89" y1="139.07" x2="99.85" y2="139.07" style="fill:#f5ebf4;stroke:#7d3990;stroke-linejoin:bevel"/><line x1="78.89" y1="142.21" x2="99.85" y2="142.21" style="fill:#f5ebf4;stroke:#7d3990;stroke-linejoin:bevel"/><line x1="78.89" y1="145.34" x2="99.85" y2="145.34" style="fill:#f5ebf4;stroke:#7d3990;stroke-linejoin:bevel"/><line x1="78.89" y1="148.47" x2="99.85" y2="148.47" style="fill:#f5ebf4;stroke:#7d3990;stroke-linejoin:bevel"/><line x1="78.89" y1="151.6" x2="99.85" y2="151.6" style="fill:#f5ebf4;stroke:#7d3990;stroke-linejoin:bevel"/><line x1="78.89" y1="154.74" x2="99.85" y2="154.74" style="fill:#f5ebf4;stroke:#7d3990;stroke-linejoin:bevel"/><line x1="78.89" y1="157.87" x2="99.85" y2="157.87" style="fill:#f5ebf4;stroke:#7d3990;stroke-linejoin:bevel"/><line x1="78.89" y1="159.43" x2="99.85" y2="159.43" style="fill:#f5ebf4;stroke:#7d3990;stroke-linejoin:bevel"/></g><path d="M103.67,119.3a20.56,20.56,0,1,0,20.55,20.56A20.56,20.56,0,0,0,103.67,119.3Z" style="fill:#efb032;stroke:#7c3990;stroke-miterlimit:10"/><path d="M103.67,122.91a16.95,16.95,0,1,0,16.94,17A17,17,0,0,0,103.67,122.91Zm0,33.89a16.95,16.95,0,0,0,0-33.89" style="fill:#f2c43c;stroke:#7c3990;stroke-miterlimit:10"/><path d="M103.67,156.8a16.95,16.95,0,0,0,0-33.89l-.53,0a16.94,16.94,0,0,1-.09,33.86" style="fill:#f2cd7b;stroke:#7c3990;stroke-miterlimit:10"/><line x1="103" y1="130" x2="103" y2="133.64" style="fill:none;stroke:#7d3990;stroke-miterlimit:10"/><line x1="103" y1="146.51" x2="103" y2="150.15" style="fill:none;stroke:#7d3990;stroke-miterlimit:10"/><line x1="105.17" y1="130" x2="105.17" y2="133.64" style="fill:none;stroke:#7d3990;stroke-miterlimit:10"/><line x1="105.17" y1="146.51" x2="105.17" y2="150.15" style="fill:none;stroke:#7d3990;stroke-miterlimit:10"/><path d="M110.23,137h0a3.37,3.37,0,0,0-3.37-3.38H101a3.33,3.33,0,0,0-3.39,3,3.21,3.21,0,0,0,3.21,3.39h6.29a3.34,3.34,0,0,1,3.39,3.05,3.21,3.21,0,0,1-3.21,3.39h-6.76a3.38,3.38,0,0,1-3.38-3.38v0" style="fill:none;stroke:#7d3990;stroke-miterlimit:10"/><path d="M55.32,172.45,52.07,178a6.12,6.12,0,0,1-6.17,10.58l-3.25,5.58L57,202.53l12.67-21.74Z" style="fill:#f2c43c;stroke:#7c3990;stroke-miterlimit:10"/><polygon points="74.7 179.05 68.63 175.51 35.1 233.07 36.12 238.29 41.17 236.61 74.7 179.05" style="fill:#f2c43c;stroke:#7c3990;stroke-miterlimit:10"/><path d="M53.35,248.59a10.48,10.48,0,0,0-15.21-13.75,10.48,10.48,0,1,0-16,7.67,10.48,10.48,0,1,0,17.21,10A10.46,10.46,0,0,0,53.35,248.59ZM23,230.9a5.48,5.48,0,1,1,2,7.49A5.48,5.48,0,0,1,23,230.9Zm3.35,24.18a5.48,5.48,0,1,1,7.5-2A5.49,5.49,0,0,1,26.34,255.08Zm15.2-7a5.48,5.48,0,1,1,7.49-2A5.49,5.49,0,0,1,41.54,248.05Z" style="fill:#f2c43c;stroke:#7c3990;stroke-miterlimit:10"/><polygon points="64.48 205.72 57.24 212.82 57.24 208.92 64.43 196.68 64.48 205.72" style="fill:#7c3990;opacity:0.36"/><polygon points="64.43 166.63 60.96 167.98 57.24 167.98 57.24 163.51 64.43 163.51 64.43 166.63" style="fill:#7c3990;opacity:0.36"/><polygon points="293.76 216.77 297.23 218.12 300.95 218.12 300.95 213.65 293.76 212.65 293.76 216.77" style="fill:#7c3990;opacity:0.36"/><polygon points="218.18 110.81 193.29 110.81 191.31 108.62 211.69 107.67 216.68 104.41 219.25 100.09 221.13 89.38 222.82 104.72 218.18 110.81" style="fill:#7c3990;opacity:0.36"/><path d="M207,120.91H203.6a19.88,19.88,0,0,0,0,39.75H207" style="fill:#e2e2e2;stroke:#7c3990;stroke-miterlimit:10"/><g style="clip-path:url(#clip-path-4)"><line x1="183.06" y1="121.86" x2="203.33" y2="121.86" style="fill:#f5ebf4;stroke:#7d3990;stroke-linejoin:bevel"/><line x1="183.06" y1="127.92" x2="203.33" y2="127.92" style="fill:#f5ebf4;stroke:#7d3990;stroke-linejoin:bevel"/><line x1="183.06" y1="133.97" x2="203.33" y2="133.97" style="fill:#f5ebf4;stroke:#7d3990;stroke-linejoin:bevel"/><line x1="183.06" y1="140.03" x2="203.33" y2="140.03" style="fill:#f5ebf4;stroke:#7d3990;stroke-linejoin:bevel"/><line x1="183.06" y1="146.09" x2="203.33" y2="146.09" style="fill:#f5ebf4;stroke:#7d3990;stroke-linejoin:bevel"/><line x1="183.06" y1="152.15" x2="203.33" y2="152.15" style="fill:#f5ebf4;stroke:#7d3990;stroke-linejoin:bevel"/><line x1="183.06" y1="158.2" x2="203.33" y2="158.2" style="fill:#f5ebf4;stroke:#7d3990;stroke-linejoin:bevel"/><line x1="183.06" y1="159.72" x2="203.33" y2="159.72" style="fill:#f5ebf4;stroke:#7d3990;stroke-linejoin:bevel"/></g><path d="M207,120.91a19.88,19.88,0,1,0,19.87,19.88A19.88,19.88,0,0,0,207,120.91Z" style="fill:#a7a7a8;stroke:#7c3990;stroke-miterlimit:10"/><path d="M207,124.4a16.39,16.39,0,1,0,16.38,16.39A16.39,16.39,0,0,0,207,124.4Zm0,32.77a16.39,16.39,0,0,0,0-32.77" style="fill:#cecece;stroke:#7c3990;stroke-miterlimit:10"/><path d="M207,157.17a16.39,16.39,0,0,0,0-32.77l-.51,0a16.38,16.38,0,0,1-.09,32.74" style="fill:#e2e2e2;stroke:#7c3990;stroke-miterlimit:10"/><line x1="208.66" y1="130.09" x2="208.66" y2="133.81" style="fill:none;stroke:#7d3990;stroke-miterlimit:10"/><line x1="208.66" y1="146.97" x2="208.66" y2="150.69" style="fill:none;stroke:#7d3990;stroke-miterlimit:10"/><line x1="205.37" y1="130.09" x2="205.37" y2="133.81" style="fill:none;stroke:#7d3990;stroke-miterlimit:10"/><line x1="205.37" y1="146.97" x2="205.37" y2="150.69" style="fill:none;stroke:#7d3990;stroke-miterlimit:10"/><path d="M214.58,136.19a5.87,5.87,0,0,0-4.72-2.38h-5.23a6.77,6.77,0,0,0-6.85,6.38,6.59,6.59,0,0,0,6.58,6.78h5.18a6.21,6.21,0,0,0,5.38-3.12" style="fill:none;stroke:#7d3990;stroke-miterlimit:10"/></g></svg>