<svg xmlns="http://www.w3.org/2000/svg" width="358.29" height="268" viewBox="0 0 358.29 268"><defs><clipPath id="a"><path d="M259.21 169.71h-3.53a20.56 20.56 0 0 0 0 41.11h3.53" fill="none"/></clipPath><clipPath id="b"><path d="M155.46 19.42h-3.53a20.56 20.56 0 1 0 0 41.11h3.53" fill="none"/></clipPath><clipPath id="c"><path d="M103.67 119.3h-3.53a20.56 20.56 0 1 0 0 41.11h3.53" fill="none"/></clipPath><clipPath id="d"><path d="M207 120.91h-3.4a19.88 19.88 0 0 0 0 39.75h3.4" fill="none"/></clipPath></defs><g data-name="ILLO 4"><path fill="#e6cbe2" stroke="#7d3990" stroke-miterlimit="10" d="M305.31 154.46l1.81 4.53v50.94l-1.81 3.61"/><path fill="#bd92c2" stroke="#7d3990" stroke-miterlimit="10" d="M231.33 110.9h52.22v49.91h-52.22z"/><path fill="#f6ebf4" d="M235.45 156.79l-4.06 4.01v-49.96h52.17l-4.12 4.07h-43.99v41.88z"/><path fill="#e6cbe2" stroke="#7d3990" stroke-miterlimit="10" d="M235.45 114.91h43.98v41.89h-43.98z"/><path fill="#da1c5c" stroke="#7c3990" stroke-miterlimit="10" d="M235.45 114.91l-4.06-4.07m48.05 4.07l4.06-4.07m-4.06 45.95l4.06 4.07m-48.05-4.07l-4.06 4.07"/><path fill="none" stroke="#7c3990" stroke-miterlimit="10" d="M231.33 110.9h52.22v49.91h-52.22z"/><circle cx="241.94" cy="151.49" r="1.69" fill="#bd92c2" stroke="#7d3990" stroke-miterlimit="10"/><circle cx="274.19" cy="120.15" r="1.69" fill="#bd92c2" stroke="#7d3990" stroke-miterlimit="10"/><circle cx="274.19" cy="151.49" r="1.69" fill="#bd92c2" stroke="#7d3990" stroke-miterlimit="10"/><circle cx="241.94" cy="120.15" r="1.69" fill="#bd92c2" stroke="#7d3990" stroke-miterlimit="10"/><path fill="#bd92c2" stroke="#7d3990" stroke-miterlimit="10" d="M231.33 160.91h52.22v49.91h-52.22z"/><path fill="none" stroke="#7c3990" stroke-miterlimit="10" d="M231.39 160.86l6.81 6.81v43.15m45.3-49.96l-6.81 6.81v43.15"/><path fill="none" stroke="#7c3990" stroke-miterlimit="10" d="M231.33 160.91h52.22v49.91h-52.22z"/><path fill="#e6cbe2" stroke="#7d3990" stroke-miterlimit="10" d="M57.49 40.86h6.94v219.86h-6.94z"/><path fill="#da1c5c" stroke="#7c3990" stroke-miterlimit="10" d="M57.3 94.67L3.33 70.41 57.3 46.15v48.52z"/><path fill="#da1c5c" stroke="#7c3990" stroke-miterlimit="10" d="M43 55.88l-8.94 8.9v10.01l8.94 8.9 8.95-8.9V64.78L43 55.88z"/><path fill="#f6ebf4" stroke="#7d3990" stroke-miterlimit="10" d="M43 55.88l-8.94 8.9v10.01l8.94 8.9"/><path fill="none" stroke="#7d3990" stroke-miterlimit="10" d="M46.74 72.58l5.21 2.21M43 76.29v7.4m-3.73-11.11l-5.21 2.21m12.68-7.8l5.21-2.21M43 63.28v-7.4m-3.73 11.11l-5.21-2.21"/><path fill="#e6cbe2" stroke="#7d3990" stroke-miterlimit="10" d="M43 63.28l-3.73 3.71v5.59L43 76.29l3.74-3.71v-5.59L43 63.28z"/><path fill="#da1c5c" stroke="#7c3990" stroke-miterlimit="10" d="M60.96 27.42l-5.34 5.31v5.99l5.34 5.31 5.35-5.31v-5.99l-5.35-5.31z"/><path fill="#f6ebf4" stroke="#7d3990" stroke-miterlimit="10" d="M60.96 27.42l-5.34 5.31v5.99l5.34 5.31"/><path fill="none" stroke="#7d3990" stroke-miterlimit="10" d="M63.19 37.4l3.12 1.32m-5.35.89v4.42m-2.23-6.64l-3.11 1.33m7.57-4.66l3.12-1.32m-5.35-.9v-4.42m-2.23 6.64l-3.11-1.32"/><path fill="#e6cbe2" stroke="#7d3990" stroke-miterlimit="10" d="M60.96 31.84l-2.23 2.22v3.33l2.23 2.22 2.23-2.21v-3.34l-2.23-2.22zm232.92 9.02h6.94v219.86h-6.94z"/><path fill="#da1c5c" stroke="#7c3990" stroke-miterlimit="10" d="M301.01 94.67l53.97-24.26-53.97-24.26v48.52z"/><path fill="#da1c5c" stroke="#7c3990" stroke-miterlimit="10" d="M315.32 55.88l8.94 8.9v10.01l-8.94 8.9-8.95-8.9V64.78l8.95-8.9z"/><path fill="#f6ebf4" stroke="#7d3990" stroke-miterlimit="10" d="M315.32 55.88l8.94 8.9v10.01l-8.94 8.9"/><path fill="none" stroke="#7d3990" stroke-miterlimit="10" d="M311.58 72.58l-5.21 2.21m8.94 1.5l.01 7.4m3.73-11.11l5.21 2.21m-12.68-7.8l-5.21-2.21m8.94-1.5l.01-7.4m3.73 11.11l5.21-2.21"/><path fill="#e6cbe2" stroke="#7d3990" stroke-miterlimit="10" d="M315.31 63.28l3.74 3.71v5.59l-3.74 3.71-3.73-3.71v-5.59l3.73-3.71z"/><path fill="#da1c5c" stroke="#7c3990" stroke-miterlimit="10" d="M297.36 27.42l5.34 5.31v5.99l-5.34 5.31-5.35-5.31v-5.99l5.35-5.31z"/><path fill="#f6ebf4" stroke="#7d3990" stroke-miterlimit="10" d="M297.36 27.42l5.34 5.31v5.99l-5.34 5.31"/><path fill="none" stroke="#7d3990" stroke-miterlimit="10" d="M295.12 37.4l-3.11 1.32m5.34.89v4.42m2.24-6.64l3.11 1.33m-7.58-4.66l-3.11-1.32m5.34-.9v-4.42m2.24 6.64l3.11-1.32"/><path fill="#e6cbe2" stroke="#7d3990" stroke-miterlimit="10" d="M297.35 31.84l2.24 2.22v3.33l-2.24 2.22-2.23-2.21v-3.34l2.23-2.22z"/><path fill="#da1c5c" stroke="#7c3990" stroke-miterlimit="10" d="M18.24 260.83h315.94"/><path fill="none" stroke="#7c3990" stroke-miterlimit="10" d="M238.2 167.67h38.49"/><path fill="#7c3990" opacity=".2" d="M231.44 160.91h52.12l-6.87 6.76v43.15h-45.25v-49.91z"/><path fill="#7c3990" opacity=".36" d="M238.5 167.89h38.19v42.93H238.5z"/><path d="M259.21 169.71h-3.53a20.56 20.56 0 0 0 0 41.11h3.53" fill="#f2cd7b" stroke="#7c3990" stroke-miterlimit="10"/><g clip-path="url(#a)" fill="#f5ebf4" stroke="#7d3990" stroke-linejoin="bevel"><path d="M234.43 170.69h20.97m-20.97 3.13h20.97m-20.97 3.13h20.97m-20.97 3.13h20.97m-20.97 3.14h20.97m-20.97 3.13h20.97m-20.97 3.13h20.97m-20.97 3.13h20.97m-20.97 3.14h20.97m-20.97 3.13h20.97m-20.97 3.13h20.97m-20.97 3.13h20.97m-20.97 3.14h20.97m-20.97 1.56h20.97"/></g><path d="M259.21 169.71a20.56 20.56 0 1 0 20.55 20.56 20.55 20.55 0 0 0-20.55-20.56z" fill="#efb032" stroke="#7c3990" stroke-miterlimit="10"/><path d="M259.21 173.32a16.95 16.95 0 1 0 16.94 17 16.94 16.94 0 0 0-16.94-17zm0 33.89a16.95 16.95 0 0 0 0-33.89" fill="#f2c43c" stroke="#7c3990" stroke-miterlimit="10"/><path d="M259.21 207.21a16.95 16.95 0 0 0 0-33.89h-.52a16.95 16.95 0 0 1-.09 33.87" fill="#f2cd7b" stroke="#7c3990" stroke-miterlimit="10"/><path d="M251.62 183.05h10.24a3.4 3.4 0 1 1 0 6.8h-7.67m0-6.8v13.61m2.82-17.46v3.85m3.59-3.85v3.85m-3.59 13.61v3.85m3.59-3.85v3.85" fill="none" stroke="#7d3990" stroke-miterlimit="10"/><path d="M261.86 189.85a3.41 3.41 0 0 1 0 6.81h-10.24" fill="none" stroke="#7d3990" stroke-miterlimit="10"/><path fill="#e6cbe2" stroke="#7d3990" stroke-miterlimit="10" d="M298.12 213.54l-14.51-2.72V160.8l14.3-6.36"/><path fill="#bd92c2" stroke="#7d3990" stroke-miterlimit="10" d="M298.23 154.45h7.08v59.09h-7.08z"/><path fill="#e6cbe2" stroke="#7d3990" stroke-miterlimit="10" d="M53.7 104.43l-1.81 4.53v50.94l1.81 3.61m7.2 0l14.51-2.72v-50.01l-14.31-6.37"/><path fill="#7d3990" stroke="#7d3990" stroke-miterlimit="10" opacity=".65" d="M60.9 163.51l14.51-2.72v-50.01l-14.31-6.37"/><path fill="#bd92c2" stroke="#7d3990" stroke-miterlimit="10" d="M60.79 163.51h-7.08v-59.09h7.08z"/><circle cx="257.44" cy="130.13" r="4.39" fill="#7d3990" stroke="#7d3990" stroke-miterlimit="10"/><path fill="#7d3990" stroke="#7d3990" stroke-miterlimit="10" d="M260.72 143.3h-6.55l1.61-11.72h3.33l1.61 11.72z"/><path fill="#bd92c2" stroke="#7d3990" stroke-miterlimit="10" d="M127.56 60.91h52.22v49.91h-52.22z"/><path fill="#f6ebf4" d="M131.68 106.81l-4.07 4V60.85h52.17l-4.12 4.07h-43.98v41.89z"/><path fill="#e6cbe2" stroke="#7d3990" stroke-miterlimit="10" d="M131.68 64.92h43.98v41.89h-43.98z"/><path fill="#da1c5c" stroke="#7c3990" stroke-miterlimit="10" d="M131.68 64.92l-4.07-4.07m48.05 4.07l4.07-4.07m-4.07 45.96l4.07 4.06m-48.05-4.06l-4.07 4.06"/><path fill="none" stroke="#7c3990" stroke-miterlimit="10" d="M127.56 60.91h52.22v49.91h-52.22z"/><circle cx="138.17" cy="101.5" r="1.69" fill="#bd92c2" stroke="#7d3990" stroke-miterlimit="10"/><circle cx="170.41" cy="70.16" r="1.69" fill="#bd92c2" stroke="#7d3990" stroke-miterlimit="10"/><circle cx="170.41" cy="101.5" r="1.69" fill="#bd92c2" stroke="#7d3990" stroke-miterlimit="10"/><circle cx="138.17" cy="70.16" r="1.69" fill="#bd92c2" stroke="#7d3990" stroke-miterlimit="10"/><circle cx="153.67" cy="80.14" r="4.39" fill="#7d3990" stroke="#7d3990" stroke-miterlimit="10"/><path fill="#7d3990" stroke="#7d3990" stroke-miterlimit="10" d="M156.94 93.32h-6.54l1.6-11.73h3.34l1.6 11.73z"/><path fill="#bd92c2" stroke="#7d3990" stroke-miterlimit="10" d="M127.35 110.9h52.22v49.91h-52.22z"/><path fill="#f6ebf4" d="M131.47 156.79l-4.07 4.01v-49.96h52.17l-4.12 4.07h-43.98v41.88z"/><path fill="#e6cbe2" stroke="#7d3990" stroke-miterlimit="10" d="M131.47 114.91h43.98v41.89h-43.98z"/><path fill="#da1c5c" stroke="#7c3990" stroke-miterlimit="10" d="M131.47 114.91l-4.07-4.07m48.05 4.07l4.06-4.07m-4.06 45.95l4.06 4.07m-48.04-4.07l-4.07 4.07"/><path fill="none" stroke="#7c3990" stroke-miterlimit="10" d="M127.35 110.9h52.22v49.91h-52.22z"/><circle cx="137.95" cy="151.49" r="1.69" fill="#bd92c2" stroke="#7d3990" stroke-miterlimit="10"/><circle cx="170.2" cy="120.15" r="1.69" fill="#bd92c2" stroke="#7d3990" stroke-miterlimit="10"/><circle cx="170.2" cy="151.49" r="1.69" fill="#bd92c2" stroke="#7d3990" stroke-miterlimit="10"/><circle cx="137.95" cy="120.15" r="1.69" fill="#bd92c2" stroke="#7d3990" stroke-miterlimit="10"/><circle cx="153.46" cy="130.13" r="4.39" fill="#7d3990" stroke="#7d3990" stroke-miterlimit="10"/><path fill="#7d3990" stroke="#7d3990" stroke-miterlimit="10" d="M156.73 143.3h-6.55l1.61-11.72h3.33l1.61 11.72z"/><path fill="#bd92c2" stroke="#7d3990" stroke-miterlimit="10" d="M75.35 110.9h52.22v49.91H75.35z"/><path fill="none" stroke="#7c3990" stroke-miterlimit="10" d="M75.35 110.9h52.22v49.91H75.35z"/><path fill="#bd92c2" stroke="#7d3990" stroke-miterlimit="10" d="M231.33 60.94h52.22v49.91h-52.22z"/><path fill="#f6ebf4" d="M235.45 106.83l-4.06 4.01V60.88h52.17l-4.12 4.07h-43.99v41.88z"/><path fill="#e6cbe2" stroke="#7d3990" stroke-miterlimit="10" d="M235.45 64.95h43.98v41.89h-43.98z"/><path fill="#da1c5c" stroke="#7c3990" stroke-miterlimit="10" d="M235.45 64.95l-4.06-4.07m48.05 4.07l4.06-4.07m-4.06 45.95l4.06 4.07m-48.05-4.07l-4.06 4.07"/><path fill="none" stroke="#7c3990" stroke-miterlimit="10" d="M231.33 60.94h52.22v49.91h-52.22z"/><circle cx="241.94" cy="101.53" r="1.69" fill="#bd92c2" stroke="#7d3990" stroke-miterlimit="10"/><circle cx="274.19" cy="70.19" r="1.69" fill="#bd92c2" stroke="#7d3990" stroke-miterlimit="10"/><circle cx="274.19" cy="101.53" r="1.69" fill="#bd92c2" stroke="#7d3990" stroke-miterlimit="10"/><circle cx="241.94" cy="70.19" r="1.69" fill="#bd92c2" stroke="#7d3990" stroke-miterlimit="10"/><circle cx="257.44" cy="80.17" r="4.39" fill="#7d3990" stroke="#7d3990" stroke-miterlimit="10"/><path fill="#7d3990" stroke="#7d3990" stroke-miterlimit="10" d="M260.72 93.34h-6.55l1.61-11.72h3.33l1.61 11.72z"/><path fill="#bd92c2" stroke="#7d3990" stroke-miterlimit="10" d="M75.35 60.94h52.22v49.91H75.35z"/><path fill="#f6ebf4" d="M79.47 106.83l-4.06 4.01V60.88h52.17l-4.12 4.07H79.47v41.88z"/><path fill="#e6cbe2" stroke="#7d3990" stroke-miterlimit="10" d="M79.47 64.95h43.98v41.89H79.47z"/><path fill="#da1c5c" stroke="#7c3990" stroke-miterlimit="10" d="M79.47 64.95l-4.06-4.07m48.05 4.07l4.06-4.07m-4.06 45.95l4.06 4.07m-48.05-4.07l-4.06 4.07"/><path fill="none" stroke="#7c3990" stroke-miterlimit="10" d="M75.35 60.94h52.22v49.91H75.35z"/><circle cx="85.96" cy="101.53" r="1.69" fill="#bd92c2" stroke="#7d3990" stroke-miterlimit="10"/><circle cx="118.21" cy="70.19" r="1.69" fill="#bd92c2" stroke="#7d3990" stroke-miterlimit="10"/><circle cx="118.21" cy="101.53" r="1.69" fill="#bd92c2" stroke="#7d3990" stroke-miterlimit="10"/><circle cx="85.96" cy="70.19" r="1.69" fill="#bd92c2" stroke="#7d3990" stroke-miterlimit="10"/><circle cx="101.47" cy="80.17" r="4.39" fill="#7d3990" stroke="#7d3990" stroke-miterlimit="10"/><path fill="#7d3990" stroke="#7d3990" stroke-miterlimit="10" d="M104.74 93.34h-6.55l1.61-11.72h3.33l1.61 11.72z"/><path fill="#bd92c2" stroke="#7d3990" stroke-miterlimit="10" d="M179.34 160.85h52.22v49.91h-52.22z"/><path fill="#f6ebf4" d="M183.46 206.74l-4.06 4.01v-49.96h52.16l-4.12 4.07h-43.98v41.88z"/><path fill="#e6cbe2" stroke="#7d3990" stroke-miterlimit="10" d="M183.46 164.86h43.98v41.89h-43.98z"/><path fill="#da1c5c" stroke="#7c3990" stroke-miterlimit="10" d="M183.46 164.86l-4.06-4.07m48.04 4.07l4.07-4.07m-4.07 45.95l4.07 4.07m-48.05-4.07l-4.06 4.07"/><path fill="none" stroke="#7c3990" stroke-miterlimit="10" d="M179.34 160.85h52.22v49.91h-52.22z"/><circle cx="189.95" cy="201.44" r="1.69" fill="#bd92c2" stroke="#7d3990" stroke-miterlimit="10"/><circle cx="222.2" cy="170.1" r="1.69" fill="#bd92c2" stroke="#7d3990" stroke-miterlimit="10"/><circle cx="222.2" cy="201.44" r="1.69" fill="#bd92c2" stroke="#7d3990" stroke-miterlimit="10"/><circle cx="189.95" cy="170.1" r="1.69" fill="#bd92c2" stroke="#7d3990" stroke-miterlimit="10"/><circle cx="205.45" cy="180.08" r="4.39" fill="#7d3990" stroke="#7d3990" stroke-miterlimit="10"/><path fill="#7d3990" stroke="#7d3990" stroke-miterlimit="10" d="M208.73 193.25h-6.55l1.61-11.72h3.33l1.61 11.72z"/><path fill="#bd92c2" stroke="#7d3990" stroke-miterlimit="10" d="M127.35 160.85h52.22v49.91h-52.22z"/><path fill="#f6ebf4" d="M131.47 206.74l-4.07 4.01v-49.96h52.17l-4.12 4.07h-43.98v41.88z"/><path fill="#e6cbe2" stroke="#7d3990" stroke-miterlimit="10" d="M131.47 164.86h43.98v41.89h-43.98z"/><path fill="#da1c5c" stroke="#7c3990" stroke-miterlimit="10" d="M131.47 164.86l-4.07-4.07m48.05 4.07l4.06-4.07m-4.06 45.95l4.06 4.07m-48.04-4.07l-4.07 4.07"/><path fill="none" stroke="#7c3990" stroke-miterlimit="10" d="M127.35 160.85h52.22v49.91h-52.22z"/><circle cx="137.95" cy="201.44" r="1.69" fill="#bd92c2" stroke="#7d3990" stroke-miterlimit="10"/><circle cx="170.2" cy="170.1" r="1.69" fill="#bd92c2" stroke="#7d3990" stroke-miterlimit="10"/><circle cx="170.2" cy="201.44" r="1.69" fill="#bd92c2" stroke="#7d3990" stroke-miterlimit="10"/><circle cx="137.95" cy="170.1" r="1.69" fill="#bd92c2" stroke="#7d3990" stroke-miterlimit="10"/><circle cx="153.46" cy="180.08" r="4.39" fill="#7d3990" stroke="#7d3990" stroke-miterlimit="10"/><path fill="#7d3990" stroke="#7d3990" stroke-miterlimit="10" d="M156.73 193.25h-6.55l1.61-11.72h3.33l1.61 11.72z"/><path fill="#bd92c2" stroke="#7d3990" stroke-miterlimit="10" d="M75.35 160.85h52.22v49.91H75.35z"/><path fill="#f6ebf4" d="M79.47 206.74l-4.06 4.01v-49.96h52.17l-4.12 4.07H79.47v41.88z"/><path fill="#e6cbe2" stroke="#7d3990" stroke-miterlimit="10" d="M79.47 164.86h43.98v41.89H79.47z"/><path fill="#da1c5c" stroke="#7c3990" stroke-miterlimit="10" d="M79.47 164.86l-4.06-4.07m48.05 4.07l4.06-4.07m-4.06 45.95l4.06 4.07m-48.05-4.07l-4.06 4.07"/><path fill="none" stroke="#7c3990" stroke-miterlimit="10" d="M75.35 160.85h52.22v49.91H75.35z"/><circle cx="85.96" cy="201.44" r="1.69" fill="#bd92c2" stroke="#7d3990" stroke-miterlimit="10"/><circle cx="118.21" cy="170.1" r="1.69" fill="#bd92c2" stroke="#7d3990" stroke-miterlimit="10"/><circle cx="118.21" cy="201.44" r="1.69" fill="#bd92c2" stroke="#7d3990" stroke-miterlimit="10"/><circle cx="85.96" cy="170.1" r="1.69" fill="#bd92c2" stroke="#7d3990" stroke-miterlimit="10"/><circle cx="101.47" cy="180.08" r="4.39" fill="#7d3990" stroke="#7d3990" stroke-miterlimit="10"/><path fill="#7d3990" stroke="#7d3990" stroke-miterlimit="10" d="M104.74 193.25h-6.55l1.61-11.72h3.33l1.61 11.72z"/><path fill="#bd92c2" stroke="#7d3990" stroke-miterlimit="10" d="M231.33 210.88h52.22v49.91h-52.22z"/><path fill="#f6ebf4" d="M235.45 256.77l-4.06 4.01v-49.96h52.17l-4.12 4.06h-43.99v41.89z"/><path fill="#e6cbe2" stroke="#7d3990" stroke-miterlimit="10" d="M235.45 214.88h43.98v41.89h-43.98z"/><path fill="#da1c5c" stroke="#7c3990" stroke-miterlimit="10" d="M235.45 214.88l-4.06-4.06m48.05 4.06l4.06-4.06m-4.06 45.95l4.06 4.07m-48.05-4.07l-4.06 4.07"/><path fill="none" stroke="#7c3990" stroke-miterlimit="10" d="M231.33 210.88h52.22v49.91h-52.22z"/><circle cx="241.94" cy="251.47" r="1.69" fill="#bd92c2" stroke="#7d3990" stroke-miterlimit="10"/><circle cx="274.19" cy="220.13" r="1.69" fill="#bd92c2" stroke="#7d3990" stroke-miterlimit="10"/><circle cx="274.19" cy="251.47" r="1.69" fill="#bd92c2" stroke="#7d3990" stroke-miterlimit="10"/><circle cx="241.94" cy="220.13" r="1.69" fill="#bd92c2" stroke="#7d3990" stroke-miterlimit="10"/><circle cx="257.44" cy="232.77" r="4.39" fill="#7d3990" stroke="#7d3990" stroke-miterlimit="10"/><path fill="#7d3990" stroke="#7d3990" stroke-miterlimit="10" d="M260.72 245.94h-6.55l1.61-11.72h3.33l1.61 11.72z"/><path fill="#bd92c2" stroke="#7d3990" stroke-miterlimit="10" d="M179.34 210.8h52.22v49.91h-52.22z"/><path fill="#f6ebf4" d="M183.46 256.69l-4.06 4.01v-49.96h52.16l-4.12 4.07h-43.98v41.88z"/><path fill="#e6cbe2" stroke="#7d3990" stroke-miterlimit="10" d="M183.46 214.81h43.98v41.89h-43.98z"/><path fill="#da1c5c" stroke="#7c3990" stroke-miterlimit="10" d="M183.46 214.81l-4.06-4.07m48.04 4.07l4.07-4.07m-4.07 45.95l4.07 4.07m-48.05-4.07l-4.06 4.07"/><path fill="none" stroke="#7c3990" stroke-miterlimit="10" d="M179.34 210.8h52.22v49.91h-52.22z"/><circle cx="189.95" cy="251.39" r="1.69" fill="#bd92c2" stroke="#7d3990" stroke-miterlimit="10"/><circle cx="222.2" cy="220.05" r="1.69" fill="#bd92c2" stroke="#7d3990" stroke-miterlimit="10"/><circle cx="222.2" cy="251.39" r="1.69" fill="#bd92c2" stroke="#7d3990" stroke-miterlimit="10"/><circle cx="189.95" cy="220.05" r="1.69" fill="#bd92c2" stroke="#7d3990" stroke-miterlimit="10"/><circle cx="205.45" cy="230.03" r="4.39" fill="#7d3990" stroke="#7d3990" stroke-miterlimit="10"/><path fill="#7d3990" stroke="#7d3990" stroke-miterlimit="10" d="M208.73 243.2h-6.55l1.61-11.72h3.33l1.61 11.72z"/><path fill="#bd92c2" stroke="#7d3990" stroke-miterlimit="10" d="M75.35 210.8h52.22v49.91H75.35z"/><path fill="#f6ebf4" d="M79.47 256.69l-4.06 4.01v-49.96h52.17l-4.12 4.07H79.47v41.88z"/><path fill="#e6cbe2" stroke="#7d3990" stroke-miterlimit="10" d="M79.47 214.81h43.98v41.89H79.47z"/><path fill="#da1c5c" stroke="#7c3990" stroke-miterlimit="10" d="M79.47 214.81l-4.06-4.07m48.05 4.07l4.06-4.07m-4.06 45.95l4.06 4.07m-48.05-4.07l-4.06 4.07"/><path fill="none" stroke="#7c3990" stroke-miterlimit="10" d="M75.35 210.8h52.22v49.91H75.35z"/><circle cx="85.96" cy="251.39" r="1.69" fill="#bd92c2" stroke="#7d3990" stroke-miterlimit="10"/><circle cx="118.21" cy="220.05" r="1.69" fill="#bd92c2" stroke="#7d3990" stroke-miterlimit="10"/><circle cx="118.21" cy="251.39" r="1.69" fill="#bd92c2" stroke="#7d3990" stroke-miterlimit="10"/><circle cx="85.96" cy="220.05" r="1.69" fill="#bd92c2" stroke="#7d3990" stroke-miterlimit="10"/><circle cx="101.47" cy="230.03" r="4.39" fill="#7d3990" stroke="#7d3990" stroke-miterlimit="10"/><path fill="#7d3990" stroke="#7d3990" stroke-miterlimit="10" d="M104.74 243.2h-6.55l1.61-11.72h3.33l1.61 11.72z"/><path fill="#bd92c2" stroke="#7d3990" stroke-miterlimit="10" d="M179.34 11h52.22v49.91h-52.22z"/><path fill="#f6ebf4" d="M183.46 56.89l-4.06 4.01V10.94h52.16L227.44 15h-43.98v41.89z"/><path fill="#e6cbe2" stroke="#7d3990" stroke-miterlimit="10" d="M183.46 15h43.98v41.89h-43.98z"/><path fill="#da1c5c" stroke="#7c3990" stroke-miterlimit="10" d="M183.46 15l-4.06-4.06M227.44 15l4.07-4.06m-4.07 45.95l4.07 4.07m-48.05-4.07l-4.06 4.07"/><path fill="none" stroke="#7c3990" stroke-miterlimit="10" d="M179.34 11h52.22v49.91h-52.22z"/><circle cx="189.95" cy="51.59" r="1.69" fill="#bd92c2" stroke="#7d3990" stroke-miterlimit="10"/><circle cx="222.2" cy="20.25" r="1.69" fill="#bd92c2" stroke="#7d3990" stroke-miterlimit="10"/><circle cx="222.2" cy="51.59" r="1.69" fill="#bd92c2" stroke="#7d3990" stroke-miterlimit="10"/><circle cx="189.95" cy="20.25" r="1.69" fill="#bd92c2" stroke="#7d3990" stroke-miterlimit="10"/><circle cx="205.45" cy="30.22" r="4.39" fill="#7d3990" stroke="#7d3990" stroke-miterlimit="10"/><path fill="#7d3990" stroke="#7d3990" stroke-miterlimit="10" d="M208.73 43.4h-6.55l1.61-11.72h3.33l1.61 11.72z"/><path fill="#bd92c2" stroke="#7d3990" stroke-miterlimit="10" d="M75.38 110.93h52.22v49.91H75.38z"/><path fill="none" stroke="#7c3990" stroke-miterlimit="10" d="M75.44 110.87l6.81 6.81v43.15m45.3-49.96l-6.81 6.81v43.15"/><path fill="none" stroke="#7c3990" stroke-miterlimit="10" d="M75.38 110.93h52.22v49.91H75.38zm6.87 6.75h38.49"/><path fill="#7c3990" opacity=".2" d="M75.49 110.93h52.12l-6.87 6.75v43.15H75.49v-49.9z"/><path fill="#7c3990" opacity=".36" d="M82.55 117.9h38.19v42.93H82.55z"/><path fill="#e6cbe2" stroke="#7d3990" stroke-miterlimit="10" d="M157.94 104.43l-1.81 4.53v50.94l1.81 3.61m7.2 0l14.51-2.72v-50.02l-14.31-6.36"/><path fill="#7d3990" stroke="#7d3990" stroke-miterlimit="10" opacity=".65" d="M165.14 163.51l14.51-2.72v-50.02l-14.31-6.36"/><path fill="#bd92c2" stroke="#7d3990" stroke-miterlimit="10" d="M165.02 163.51h-7.08v-59.09h7.08zm14.57-52.61h52.22v49.91h-52.22z"/><path fill="none" stroke="#7c3990" stroke-miterlimit="10" d="M179.59 110.9h52.22v49.91h-52.22z"/><path fill="#bd92c2" stroke="#7d3990" stroke-miterlimit="10" d="M179.62 110.92h52.22v49.91h-52.22z"/><path fill="none" stroke="#7c3990" stroke-miterlimit="10" d="M179.67 110.87l6.81 6.81v43.15m45.31-49.96l-6.81 6.81v43.15"/><path fill="none" stroke="#7c3990" stroke-miterlimit="10" d="M179.62 110.92h52.22v49.91h-52.22zm6.86 6.76h38.5"/><path fill="#7c3990" opacity=".2" d="M179.73 110.92h52.11l-6.86 6.76v43.15h-45.25v-49.91z"/><path fill="#7c3990" opacity=".36" d="M186.79 117.9h38.19v42.93h-38.19z"/><path fill="#e6cbe2" stroke="#7d3990" stroke-miterlimit="10" d="M105.49 4.54l-1.81 4.54v50.94l1.81 3.61m7.2 0l14.51-2.72V10.89l-14.31-6.37"/><path fill="#7d3990" stroke="#7d3990" stroke-miterlimit="10" opacity=".65" d="M112.69 63.63l14.51-2.72V10.89l-14.31-6.37"/><path fill="#bd92c2" stroke="#7d3990" stroke-miterlimit="10" d="M112.58 63.63h-7.08V4.54h7.08zm14.56-52.62h52.22v49.91h-52.22z"/><path fill="none" stroke="#7c3990" stroke-miterlimit="10" d="M127.14 11.01h52.22v49.91h-52.22z"/><path fill="#bd92c2" stroke="#7d3990" stroke-miterlimit="10" d="M127.17 11.04h52.22v49.91h-52.22z"/><path fill="none" stroke="#7c3990" stroke-miterlimit="10" d="M127.23 10.98l6.81 6.81v43.16m45.3-49.97l-6.81 6.81v43.16"/><path fill="none" stroke="#7c3990" stroke-miterlimit="10" d="M127.17 11.04h52.22v49.91h-52.22zm6.87 6.75h38.49"/><path fill="#7c3990" opacity=".2" d="M127.28 11.04h52.12l-6.87 6.75v43.16h-45.25V11.04z"/><path fill="#7c3990" opacity=".36" d="M134.34 18.02h38.19v42.93h-38.19z"/><path d="M155.46 19.42h-3.53a20.56 20.56 0 1 0 0 41.11h3.53" fill="#f2cd7b" stroke="#7c3990" stroke-miterlimit="10"/><g clip-path="url(#b)" fill="#f5ebf4" stroke="#7d3990" stroke-linejoin="bevel"><path d="M130.68 20.4h20.96m-20.96 3.13h20.96m-20.96 3.13h20.96m-20.96 3.13h20.96m-20.96 3.13h20.96m-20.96 3.14h20.96m-20.96 3.13h20.96m-20.96 3.13h20.96m-20.96 3.13h20.96m-20.96 3.14h20.96m-20.96 3.13h20.96m-20.96 3.13h20.96m-20.96 3.13h20.96m-20.96 1.57h20.96"/></g><path d="M155.46 19.42A20.56 20.56 0 1 0 176 40a20.55 20.55 0 0 0-20.54-20.58z" fill="#efb032" stroke="#7c3990" stroke-miterlimit="10"/><path d="M155.46 23a16.95 16.95 0 1 0 16.94 17 16.94 16.94 0 0 0-16.94-17zm0 33.89a16.95 16.95 0 0 0 0-33.89" fill="#f2c43c" stroke="#7c3990" stroke-miterlimit="10"/><path d="M155.46 56.92a16.95 16.95 0 0 0 0-33.89h-.53a16.94 16.94 0 0 1-.09 33.86" fill="#f2cd7b" stroke="#7c3990" stroke-miterlimit="10"/><path d="M147.86 32.75h10.24a3.41 3.41 0 0 1 0 6.81h-7.67m0-6.81v13.61m2.83-17.46v3.85m3.59-3.85v3.85m-3.59 13.61v3.85m3.59-3.85v3.85" fill="none" stroke="#7d3990" stroke-miterlimit="10"/><path d="M158.1 39.56a3.4 3.4 0 1 1 0 6.8h-10.24" fill="none" stroke="#7d3990" stroke-miterlimit="10"/><path fill="#e6cbe2" stroke="#7d3990" stroke-miterlimit="10" d="M105.44 204.37l-1.81 6.35v49.12l1.81 3.61m7.2 0l14.5-2.72v-50.01l-14.3-6.37"/><path fill="#7d3990" stroke="#7d3990" stroke-miterlimit="10" opacity=".65" d="M112.64 263.45l14.5-2.72v-50.01l-14.3-6.37"/><path fill="#bd92c2" stroke="#7d3990" stroke-miterlimit="10" d="M112.52 263.45h-7.08v-59.09h7.08zm14.57-52.61h52.22v49.91h-52.22z"/><path fill="none" stroke="#7c3990" stroke-miterlimit="10" d="M127.09 210.84h52.22v49.91h-52.22z"/><path fill="#bd92c2" stroke="#7d3990" stroke-miterlimit="10" d="M127.12 210.87h52.22v49.91h-52.22z"/><path fill="none" stroke="#7c3990" stroke-miterlimit="10" d="M127.17 210.81l6.81 6.81v43.15m45.3-49.96l-6.8 6.81v43.15"/><path fill="none" stroke="#7c3990" stroke-miterlimit="10" d="M127.12 210.87h52.22v49.91h-52.22zm6.86 6.75h38.5"/><path fill="#7c3990" opacity=".2" d="M127.23 210.87h52.11l-6.86 6.75v43.15h-45.25v-49.9z"/><path fill="#7c3990" opacity=".36" d="M134.29 217.84h38.19v42.93h-38.19z"/><path fill="#e6cbe2" stroke="#7d3990" stroke-miterlimit="10" d="M253.55 54.48l1.81 6.35v49.12l-1.81 3.61"/><path fill="#bd92c2" stroke="#7d3990" stroke-miterlimit="10" d="M179.57 60.94h52.22v49.91h-52.22z"/><path fill="none" stroke="#7c3990" stroke-miterlimit="10" d="M179.63 60.88l6.81 6.81v43.15m45.3-49.96l-6.81 6.81v43.15"/><path fill="none" stroke="#7c3990" stroke-miterlimit="10" d="M179.57 60.94h52.22v49.91h-52.22zm6.86 6.75h38.5"/><path fill="#7c3990" opacity=".2" d="M179.68 60.94h52.11l-6.86 6.75v43.15h-45.25v-49.9z"/><path fill="#7c3990" opacity=".36" d="M186.74 67.91h38.19v42.93h-38.19z"/><path fill="#e6cbe2" stroke="#7d3990" stroke-miterlimit="10" d="M246.35 113.56l-14.51-2.72V60.83l14.31-6.37"/><path fill="#bd92c2" stroke="#7d3990" stroke-miterlimit="10" d="M246.47 54.48h7.08v59.09h-7.08z"/><path fill="#da1c5c" stroke="#7c3990" stroke-miterlimit="10" d="M153.2 214.88l-15.32 15.25v15.53l15.32 15.25 15.33-15.25v-15.53l-15.33-15.25z"/><path fill="#f6ebf4" stroke="#7d3990" stroke-miterlimit="10" d="M153.2 214.88l-15.32 15.25v15.53l15.32 15.25"/><path fill="none" stroke="#7d3990" stroke-miterlimit="10" d="M159.6 241.87l8.93 3.79m-15.33 2.57v12.68m-6.4-19.04l-8.92 3.79m21.72-11.74l8.93-3.79m-15.33-2.57v-12.68m-6.4 19.04l-8.92-3.79"/><path fill="#e6cbe2" stroke="#7d3990" stroke-miterlimit="10" d="M153.2 227.56l-6.4 6.36v7.95l6.4 6.36 6.4-6.36v-7.95l-6.4-6.36z"/><path fill="#fff6d3" stroke="#7d3990" stroke-miterlimit="10" d="M202.98 75.8l-7.96-10.14 5.59 1.77 5.24-1.77 5.86 1.77 4.97-1.77-8.3 10.5"/><path fill="#fff6d3" stroke="#7d3990" stroke-miterlimit="10" d="M222.82 104.72l-4.64 6.21h-24.89l-4.63-6.21 2.1-15.34 12.22-13.58h5.52l12.63 13.58 1.69 15.34z"/><path fill="#d4bd98" stroke="#7d3990" stroke-miterlimit="10" d="M201.77 74.53l7.7.48m0 1.83l-7.57.16"/><path fill="none" stroke="#7d3990" stroke-miterlimit="10" d="M196.38 73.97l6.13 1.83-5.01 1.68m7.77 8.25v3.65m0 12.87v3.64m2.17-20.16v3.65m0 12.87v3.64m5.07-13.13a3.38 3.38 0 0 0-3.38-3.38h-5.83a3.33 3.33 0 0 0-3.39 3 3.21 3.21 0 0 0 3.21 3.39h6.29a3.34 3.34 0 0 1 3.39 3 3.22 3.22 0 0 1-3.21 3.39h-6.76a3.38 3.38 0 0 1-3.38-3.38"/><path d="M103.67 119.3h-3.53a20.56 20.56 0 1 0 0 41.11h3.53" fill="#f2cd7b" stroke="#7c3990" stroke-miterlimit="10"/><g clip-path="url(#c)" fill="#f5ebf4" stroke="#7d3990" stroke-linejoin="bevel"><path d="M78.89 120.28h20.96m-20.96 3.13h20.96m-20.96 3.14h20.96m-20.96 3.13h20.96m-20.96 3.13h20.96m-20.96 3.13h20.96m-20.96 3.13h20.96m-20.96 3.14h20.96m-20.96 3.13h20.96m-20.96 3.13h20.96m-20.96 3.13h20.96m-20.96 3.14h20.96m-20.96 3.13h20.96m-20.96 1.56h20.96"/></g><path d="M103.67 119.3a20.56 20.56 0 1 0 20.55 20.56 20.56 20.56 0 0 0-20.55-20.56z" fill="#efb032" stroke="#7c3990" stroke-miterlimit="10"/><path d="M103.67 122.91a16.95 16.95 0 1 0 16.94 17 17 17 0 0 0-16.94-17zm0 33.89a16.95 16.95 0 0 0 0-33.89" fill="#f2c43c" stroke="#7c3990" stroke-miterlimit="10"/><path d="M103.67 156.8a16.95 16.95 0 0 0 0-33.89h-.53a16.94 16.94 0 0 1-.09 33.86" fill="#f2cd7b" stroke="#7c3990" stroke-miterlimit="10"/><path fill="none" stroke="#7d3990" stroke-miterlimit="10" d="M103 130v3.64m0 12.87v3.64m2.17-20.15v3.64m0 12.87v3.64m5.06-13.15a3.37 3.37 0 0 0-3.37-3.38H101a3.33 3.33 0 0 0-3.39 3 3.21 3.21 0 0 0 3.21 3.39h6.29a3.34 3.34 0 0 1 3.39 3.05 3.21 3.21 0 0 1-3.21 3.39h-6.76a3.38 3.38 0 0 1-3.38-3.38"/><path d="M55.32 172.45L52.07 178a6.12 6.12 0 0 1-6.17 10.58l-3.25 5.58L57 202.53l12.67-21.74z" fill="#f2c43c" stroke="#7c3990" stroke-miterlimit="10"/><path fill="#f2c43c" stroke="#7c3990" stroke-miterlimit="10" d="M74.7 179.05l-6.07-3.54-33.53 57.56 1.02 5.22 5.05-1.68 33.53-57.56z"/><path d="M53.35 248.59a10.48 10.48 0 0 0-15.21-13.75 10.48 10.48 0 1 0-16 7.67 10.48 10.48 0 1 0 17.21 10 10.46 10.46 0 0 0 14-3.92zM23 230.9a5.48 5.48 0 1 1 2 7.49 5.48 5.48 0 0 1-2-7.49zm3.35 24.18a5.48 5.48 0 1 1 7.5-2 5.49 5.49 0 0 1-7.51 2zm15.2-7a5.48 5.48 0 1 1 7.49-2 5.49 5.49 0 0 1-7.5 1.97z" fill="#f2c43c" stroke="#7c3990" stroke-miterlimit="10"/><path fill="#7c3990" opacity=".36" d="M64.48 205.72l-7.24 7.1v-3.9l7.19-12.24.05 9.04zm-.05-39.09l-3.47 1.35h-3.72v-4.47h7.19v3.12zm229.33 50.14l3.47 1.35h3.72v-4.47l-7.19-1v4.12zm-75.58-105.96h-24.89l-1.98-2.19 20.38-.95 4.99-3.26 2.57-4.32 1.88-10.71 1.69 15.34-4.64 6.09z"/><path d="M207 120.91h-3.4a19.88 19.88 0 0 0 0 39.75h3.4" fill="#e2e2e2" stroke="#7c3990" stroke-miterlimit="10"/><g clip-path="url(#d)" fill="#f5ebf4" stroke="#7d3990" stroke-linejoin="bevel"><path d="M183.06 121.86h20.27m-20.27 6.06h20.27m-20.27 6.05h20.27m-20.27 6.06h20.27m-20.27 6.06h20.27m-20.27 6.06h20.27m-20.27 6.05h20.27m-20.27 1.52h20.27"/></g><path d="M207 120.91a19.88 19.88 0 1 0 19.87 19.88A19.88 19.88 0 0 0 207 120.91z" fill="#a7a7a8" stroke="#7c3990" stroke-miterlimit="10"/><path d="M207 124.4a16.39 16.39 0 1 0 16.38 16.39A16.39 16.39 0 0 0 207 124.4zm0 32.77a16.39 16.39 0 0 0 0-32.77" fill="#cecece" stroke="#7c3990" stroke-miterlimit="10"/><path d="M207 157.17a16.39 16.39 0 0 0 0-32.77h-.51a16.38 16.38 0 0 1-.09 32.74" fill="#e2e2e2" stroke="#7c3990" stroke-miterlimit="10"/><path fill="none" stroke="#7d3990" stroke-miterlimit="10" d="M208.66 130.09v3.72m0 13.16v3.72m-3.29-20.6v3.72m0 13.16v3.72m9.21-14.5a5.87 5.87 0 0 0-4.72-2.38h-5.23a6.77 6.77 0 0 0-6.85 6.38 6.59 6.59 0 0 0 6.58 6.78h5.18a6.21 6.21 0 0 0 5.38-3.12"/></g></svg>