<svg data-name="Layer 1" xmlns="http://www.w3.org/2000/svg" width="31.96" height="29.44" viewBox="0 0 31.96 29.44"><path fill="#bd92c2" stroke="#7d398f" stroke-miterlimit="10" stroke-width=".845" d="M8.62 8.24l-4.3 2.93L5.17 22l9.77 4.75 4.29-2.92"/><path fill="#f5ebf4" stroke="#7d398f" stroke-linejoin="bevel" stroke-width=".845" d="M8.62 8.24l-4.3 2.93L5.17 22l4.47-3.03 4.29-2.92"/><path fill="#e6cbe2" stroke="#7d398f" stroke-miterlimit="10" stroke-width=".845" d="M16.14 19.29l-3.18 2.17-4.08-1.99-.35-4.52 3.18-2.17"/><path fill="none" stroke="#7d398f" stroke-miterlimit="10" stroke-width=".845" d="M12.96 21.46l1.98 5.29m-6.06-7.28L5.17 22m3.36-7.05l-4.21-3.78"/><path fill="none" stroke="#7d398f" stroke-linecap="square" stroke-linejoin="bevel" stroke-width=".845" d="M8.61 8.24l10.62 15.59"/><path fill="none" stroke="#7c3990" stroke-miterlimit="10" stroke-width=".845" d="M18.65 22.98l6.26-13.19m-1.14-1.67l-14.62.91"/><path fill="#f5ebf4" d="M29.36 5.54l-3.84-.74-8.22 5.6-.71 3.84 3.83.74 8.22-5.6.72-3.84z"/><path fill="#c093c3" d="M29.36 5.54l-12.77 8.7 3.83.74 8.22-5.6.72-3.84z"/><path fill="#e6cae2" d="M27.78 6.61l-1.96-.37-7.29 4.97-.37 1.95 1.96.38 7.29-4.97.37-1.96z"/><path d="M25.52 4.8l-8.22 5.6-.71 3.84 3.83.74 8.22-5.6.72-3.84zm1.93 3.56l.28-1.47 1.11-.76-.52 2.8zm-7.33 6.15L17.33 14l1.11-.76 1.47.28zm-1.62-3.12l-.28 1.5-1.12.76.53-2.83zm1.5 1.73l-1.4-.27.26-1.41 7-4.78 1.41.27-.27 1.4zm7.5-6.56L26 6.27l-.22-1 2.83.54zm-2.09-1.2l.21 1-6.89 4.7-.86-.57zm-4.9 9.07l-.21-1 6.94-4.73.86.57z" fill="#7c3990"/></svg>