<svg data-name="Layer 1" xmlns="http://www.w3.org/2000/svg" width="42.28" height="14.56" viewBox="0 0 42.28 14.56"><path fill="#fff" stroke="#491246" stroke-miterlimit="10" d="M4.31 5.12l1.6-1.59L7.5 5.12v5.73l-1.59 1.58-1.6-1.58V5.12zm4.98 0l1.6-1.59 1.59 1.59v5.73l-1.59 1.58-1.6-1.58V5.12zm4.99 0l1.59-1.59 1.59 1.59v5.73l-1.59 1.58-1.59-1.58V5.12zm4.98 0l1.59-1.59 1.6 1.59v5.73l-1.6 1.58-1.59-1.58V5.12z"/><path fill="#ee2c7b" stroke="#491246" stroke-miterlimit="10" d="M24.24 5.12l1.59-1.59 1.6 1.59v5.73l-1.6 1.58-1.59-1.58V5.12zm4.98 0l1.6-1.59 1.59 1.59v5.73l-1.59 1.58-1.6-1.58V5.12zm4.98 0l1.6-1.59 1.59 1.59v5.73l-1.59 1.58-1.6-1.58V5.12z"/></svg>