<svg id="Layer_1" data-name="Layer 1" xmlns="http://www.w3.org/2000/svg" width="42.28" height="14.56" viewBox="0 0 42.28 14.56"><title>Artboard 33</title><polygon points="4.31 5.12 5.91 3.53 7.5 5.12 7.5 10.85 5.91 12.43 4.31 10.85 4.31 5.12" style="fill:#fff;stroke:#491246;stroke-miterlimit:10"/><polygon points="9.29 5.12 10.89 3.53 12.48 5.12 12.48 10.85 10.89 12.43 9.29 10.85 9.29 5.12" style="fill:#fff;stroke:#491246;stroke-miterlimit:10"/><polygon points="14.28 5.12 15.87 3.53 17.46 5.12 17.46 10.85 15.87 12.43 14.28 10.85 14.28 5.12" style="fill:#fff;stroke:#491246;stroke-miterlimit:10"/><polygon points="19.26 5.12 20.85 3.53 22.45 5.12 22.45 10.85 20.85 12.43 19.26 10.85 19.26 5.12" style="fill:#fff;stroke:#491246;stroke-miterlimit:10"/><polygon points="24.24 5.12 25.83 3.53 27.43 5.12 27.43 10.85 25.83 12.43 24.24 10.85 24.24 5.12" style="fill:#ee2c7b;stroke:#491246;stroke-miterlimit:10"/><polygon points="29.22 5.12 30.82 3.53 32.41 5.12 32.41 10.85 30.82 12.43 29.22 10.85 29.22 5.12" style="fill:#ee2c7b;stroke:#491246;stroke-miterlimit:10"/><polygon points="34.2 5.12 35.8 3.53 37.39 5.12 37.39 10.85 35.8 12.43 34.2 10.85 34.2 5.12" style="fill:#ee2c7b;stroke:#491246;stroke-miterlimit:10"/></svg>