<svg data-name="Layer 1" xmlns="http://www.w3.org/2000/svg" width="30.74" height="20.96" viewBox="0 0 30.74 20.96"><path fill="#fff" stroke="#491246" stroke-miterlimit="10" d="M20.27 7.82h-3.3l2.47 2.21.83 3.5 1.64-2.85-1.64-2.86zm-6.07 0l-1.06.54.23 1.67 1.96-.24-1.13-1.97zm3.63 4.01l-3.01 1.41.23 1.67 2.54 1.17.24-4.25z"/><path fill="#ebb8d5" stroke="#fff" stroke-miterlimit="10" stroke-width=".845" d="M4.7 12.82l1.87-.41m-.49 2.71l1.23-.28m-2.33-4.67l1.24-.28m1.6 1.38l1.24-.28m-.45 2.7l2.64-.59"/><path fill="#ebb8d5" stroke="#fff" stroke-miterlimit="10" stroke-width=".845" opacity=".25" d="M14.33 5.37l-.78-2.53m5.07 2.24l.42-4.36m3.03 6.06l3.86-3.88m-6.02 13.43l1.25 3.4m-5.24-2.55l-.59 2.57m-1.78-3.3l-1.49 2.29M24 10.39l4.46.28m-1.59 5l1.06.41m-5.49-2.12l2.74 1.06m-13.32-7.2L9.53 6.53"/><path fill="#ebb8d5" stroke="#fff" stroke-miterlimit="10" stroke-width=".845" d="M12.31 11.97l1.24-.27m-4.63 4.52l1.23-.28m-6.18 1.37l1.23-.27m-3.51-1.39l1.23-.27m-.87-2.83l1.23-.28m3.71 6.97l1.23-.27"/></svg>