<svg data-name="Layer 1" xmlns="http://www.w3.org/2000/svg" width="276.58" height="195.48" viewBox="0 0 276.58 195.48"><path fill="#c093c3" stroke="#7d398f" stroke-miterlimit="10" stroke-width=".845" d="M198.79 40.94l-5.4-12.4-6.33 12.4 2.4-.01 3.74-7.32 3.19 7.32 2.4.01z"/><path fill="#e6cbe2" stroke="#7d398f" stroke-linejoin="bevel" stroke-width=".845" d="M193.39 28.54l-6.33 12.4 2.4-.01 3.74-7.32.19-5.07z"/><path fill="#ebb8d5" stroke="#a02373" stroke-miterlimit="10" stroke-width=".845" d="M180.18 45.16l2.43-4.22h19.77l2.44 4.22"/><path fill="#fce9f1" stroke="#a02373" stroke-miterlimit="10" stroke-width=".845" d="M180.18 44.92l2.43-3.98h9.89V45l-12.32-.08z"/><path fill="none" stroke="#7d398f" stroke-miterlimit="10" stroke-width=".845" d="M193.2 33.61l.19-5.07"/><path fill="#ebb8d5" d="M134 125.88l-4.84 4.81v34.1l4.84 4.81 4.81-4.79v-34.14l-4.81-4.79z"/><path fill="#ee2a7b" d="M134 117.14v8.74l4.81 4.79v34.14L134 169.6v8.75l10.97-10.91v-39.39L134 117.14z"/><path fill="#fde9f1" d="M134 117.14l-10.97 10.91v39.39L134 178.35v-8.75l-4.84-4.81v-34.1l4.84-4.81v-8.74z"/><path fill="none" stroke="#a02373" stroke-miterlimit="10" stroke-width=".845" d="M123.03 128.05L134 117.14l10.97 10.91v39.39L134 178.35l-10.97-10.91v-39.39z"/><path fill="none" stroke="#a02373" stroke-miterlimit="10" stroke-width=".845" d="M129.16 130.69l4.84-4.81 4.81 4.79v34.14L134 169.6l-4.84-4.81v-34.1zm0 .01l-6.13-2.65M134 117.14v8.74m4.81 4.79l6.15-2.62m-6.15 36.77l6.15 2.62M134 169.6v8.75m-10.97-10.91l6.13-2.65"/><path fill="#ebb8d5" stroke="#a02373" stroke-miterlimit="10" stroke-width=".845" d="M55.58 81.48l-8.14 3.86v19.55l8.14 4.7m54.64 35.5l4.71 8.14h38.13l4.7-8.14"/><path fill="#ee2a7b" stroke="#a02373" stroke-miterlimit="10" stroke-width=".845" d="M184.03 145.4h-15.7"/><path fill="#544b9f" stroke="#a02373" stroke-miterlimit="10" stroke-width=".845" d="M168.33 145.4h45.59V45.16H55.58V145.4h17.84"/><path fill="#fde9f1" stroke="#a02373" stroke-miterlimit="10" stroke-width=".845" d="M51.39 107.09V83.76l-3.95 1.58v19.55l3.95 2.2z"/><path fill="#fce9f1" stroke="#a02373" stroke-miterlimit="10" stroke-width=".845" d="M110.22 145.55l4.71 7.68H134v-7.83l-23.78.15z"/><path fill="none" stroke="#a02373" stroke-miterlimit="10" stroke-width=".845" d="M184.03 145.4h-15.7"/><path fill="none" stroke="#491245" stroke-miterlimit="10" stroke-width=".845" d="M168.33 145.4h45.59V45.16H55.58V145.4h112.75z"/><path fill="#fff" opacity=".06" d="M152.98 45.61l-97 80.24v-23.73l68.24-56.54 28.76.03zm20.53-.02L55.98 142.16v-6.35l109.9-90.25 7.63.03z"/></svg>