<svg data-name="Layer 1" xmlns="http://www.w3.org/2000/svg" width="9.5" height="9.52" viewBox="0 0 9.5 9.52"><path fill="#e6cae2" d="M6.3 1.22H3.31L1.2 3.34v2.98l2.11 2.11H6.3l2.11-2.11V3.34L6.3 1.22z"/><path d="M6.38 8.62H3.24L1 6.4V3.26L3.24 1h3.14L8.6 3.26V6.4zm-3-.37h2.84l2-2V3.41l-2-2H3.39l-2 2v2.84z" fill="#7c3990"/><path fill="#b87bb5" d="M3.31 1.22H6.3l2.11 2.12v2.98L6.3 8.43H3.31l.57-1.37V2.6l-.57-1.38z"/><path fill="#c093c3" d="M5.73 2.6H3.88l-1.3 1.31v1.84l1.3 1.31h1.85l1.31-1.31V3.91L5.73 2.6z"/><path d="M5.81 7.24h-2L2.39 5.83v-2l1.42-1.41h2l1.41 1.41v2zM4 6.87h1.65l1.2-1.19V4l-1.2-1.21H4L2.76 4v1.7z" fill="#7c3990"/><path fill="#7c3990" d="M3.138 1.296l.342-.142.57 1.377-.342.142zm2.428 1.238l.57-1.377.342.142-.57 1.376zm1.399 1.202l1.377-.57.141.341-1.376.57zm-.002 2.182l.141-.341 1.377.57-.142.342zM5.555 7.126l.342-.141.57 1.376-.342.142zm-2.41 1.245l.57-1.376.342.142-.57 1.376zM1.132 6.144l1.377-.57.141.341-1.376.57zm.003-2.642l.142-.342 1.376.57-.141.342z"/><path d="M6.38 8.62H3.24L1 6.4V3.26L3.24 1h3.14L8.6 3.26V6.4zm-3-.37h2.84l2-2V3.41l-2-2H3.39l-2 2v2.84z" fill="#7c3990"/></svg>