<svg data-name="Layer 1" xmlns="http://www.w3.org/2000/svg" width="55.5" height="55.17" viewBox="0 0 55.5 55.17"><path fill="#fde9f1" d="M23.68 19.44v8.95h1.89v-8.17l-1.89-.78zm4.27-2.07v-2.65l-4 3.98 1.88.78 2.12-2.11z"/><path fill="#ee2a7b" d="M31.1 20.16v8.23h1.89v-9.01l-1.89.78zm-.3-.72l1.88-.78-3.95-3.94v2.65l2.07 2.07z"/><path fill="#ebb8d5" d="M28.34 18.08l-1.99 1.98v8.33h3.97v-8.33l-1.98-1.98z"/><path fill="#a02373" d="M23.68 19.44l-.62-.26.3-.72.59.24 4-3.98v-.93h.78v.93l3.95 3.94.49-.2.3.72-.48.2v9.01h.78v-9.75l-5.43-5.41-5.44 5.41v9.75h.78v-8.95z"/><path fill="#a02373" d="M28.34 16.98l.39.39v-3.58h-.78v3.58l.39-.39zm2.76 2.76v.42l1.89-.78.48-.2-.3-.72-.49.2-1.88.78.3.3zm-5.53 0l.26-.26-1.88-.78-.59-.24-.3.72.62.26 1.89.78v-.48z"/><path fill="#a02373" d="M31.1 19.74l-.3-.3-2.07-2.07-.39-.39-.39.39-2.12 2.11-.26.26v8.65h.78v-8.33l1.99-1.98 1.98 1.98v8.33h.78v-8.65z"/><path fill="none" stroke="#7c3990" stroke-miterlimit="10" stroke-width=".845" d="M33.75 10.93H22.92l-7.65 7.65v15.14l7.65 7.66h10.83l7.65-7.66V18.58l-7.65-7.65z"/><path fill="#bd92c2" stroke="#7d398f" stroke-miterlimit="10" stroke-width=".845" d="M15.27 25.61V38.1l13.07 13 13.06-13V25.61"/><path fill="#f5ebf4" stroke="#7d398f" stroke-linejoin="bevel" stroke-width=".845" d="M15.27 25.61V38.1l13.07 13 .02-13V25.61"/><path fill="#e6cbe2" stroke="#7d398f" stroke-miterlimit="10" stroke-width=".845" d="M33.79 25.61v9.26l-5.45 5.42-5.46-5.42v-9.26"/><path fill="none" stroke="#7d398f" stroke-miterlimit="10" stroke-width=".845" d="M33.79 34.87l7.61 3.23m-13.06 2.19V51.1m-5.46-16.23l-7.61 3.23"/><path fill="none" stroke="#7d398f" stroke-linecap="square" stroke-linejoin="bevel" stroke-width=".845" d="M15.27 25.61H41.4"/><path fill="#da1c5c" stroke="#7c3990" stroke-miterlimit="10" stroke-width=".845" d="M25.96 48.71h4.76v3.81h-4.76z"/><path fill="#e6cbe2" stroke="#7c3990" stroke-miterlimit="10" stroke-width=".845" d="M25.96 48.71h2.38v3.81h-2.38z"/><path fill="none" stroke="#7c3990" stroke-miterlimit="10" stroke-width=".634" d="M28.15 4.74v4.84"/><path fill="#da1c5c" stroke="#7c3990" stroke-miterlimit="10" stroke-width=".845" d="M26.93 7.86h2.43v3.04h-2.43zm0-3.82h2.43v1.92h-2.43z"/></svg>