<svg data-name="Layer 1" xmlns="http://www.w3.org/2000/svg" width="12.33" height="11.96" viewBox="0 0 12.33 11.96"><path d="M9.49 7.07L7.47 8l-2.06-.8-.9-2 .8-2.06-1.77-1.76-1.48 3.81 1.65 3.75 3.81 1.48 3.75-1.65z" fill="#c093c3"/><path d="M11.38 9l-3.74 1.68h-.22L3.6 9.21l-.16-.16-1.65-3.74v-.22l1.48-3.82.47-.1 1.77 1.7.07.31-.75 1.95.79 1.81 1.84.71 1.91-.84.32.05 1.78 1.7zm-3.87 1.11l3.25-1.43-1.33-1.27-1.85.82h-.22l-2.06-.8-.16-.15-.89-2V5L5 3.15 3.65 1.88l-1.28 3.3 1.55 3.53z" fill="#7c3990"/></svg>