<svg id="Layer_1" data-name="Layer 1" xmlns="http://www.w3.org/2000/svg" width="12.33" height="11.96" viewBox="0 0 12.33 11.96"><title>Artboard 25</title><path d="M9.49,7.07,7.47,8l-2.06-.8-.9-2,.8-2.06L3.54,1.38,2.06,5.19,3.71,8.94l3.81,1.48,3.75-1.65Z" style="fill:#c093c3"/><path d="M11.38,9,7.64,10.68H7.42L3.6,9.21l-.16-.16L1.79,5.31V5.09L3.27,1.27l.47-.1,1.77,1.7.07.31L4.83,5.13l.79,1.81,1.84.71,1.91-.84.32.05,1.78,1.7ZM7.51,10.11l3.25-1.43L9.43,7.41l-1.85.82H7.36L5.3,7.43l-.16-.15-.89-2V5L5,3.15,3.65,1.88,2.37,5.18,3.92,8.71Z" style="fill:#7c3990"/></svg>