<svg data-name="Layer 1" xmlns="http://www.w3.org/2000/svg" width="139.57" height="43.83" viewBox="0 0 139.57 43.83"><path d="M134.79 2.42c-.27 8.2-4.42 14.46-9 20.91-4.8 6.72-11 12.25-19.19 14.31s-18.21 1.64-26.6.23-15.36-5-22.5-9.34c-8.83-5.37-21.65-12.2-31.11-4.36C23 27 20.56 30.7 17.61 33.91c-4.89 5.31-9.41 6.26-13.93-.27-.38-.56-1.3 0-.91.53 2 2.9 4.71 6.17 8.64 5.44s7.13-5.11 9.6-8c4.9-5.82 9.18-10.51 17.62-9.74 10.29.94 18.2 8.29 27.13 12.65 7.36 3.6 15.46 5.06 23.59 5.37 7.89.3 16.38.18 23.58-3.44 6.66-3.35 11.23-8.89 15.38-14.91s7.29-11.67 7.54-19.08c0-.68-1-.68-1.06 0z" fill="#7c3990"/></svg>