<svg data-name="Layer 1" xmlns="http://www.w3.org/2000/svg" width="21.5" height="43.25" viewBox="0 0 21.5 43.25"><path fill="#fde9f1" d="M11.25 4.85L4.9 11.17v22.81l6.35 6.32 6.35-6.32V11.17l-6.35-6.32z"/><path fill="#ee2a7b" d="M11.25 4.85V40.3l6.35-6.32V11.17l-6.35-6.32z"/><path fill="#ebb8d5" d="M11.25 9.23l-3.24 3.22V32.7l3.24 3.21 3.24-3.21V12.45l-3.24-3.22z"/><path fill="#a02373" d="M5.81 26.58V11.55l5.44-5.41 5.44 5.41v15.03h.91V11.17l-6.35-6.32-6.35 6.32v15.41h.91z"/><path fill="#a02373" d="M10.79 5.5h.91v4.38h-.91zm2.746 6.857l3.375-1.39.347.842-3.376 1.39zm-8.447-.55l.346-.841 3.375 1.39-.347.842z"/><path fill="#a02373" d="M8.93 26.58V12.83l2.32-2.31 2.32 2.31v13.75h.92V12.45l-3.24-3.22-3.24 3.22v14.13h.92z"/><path fill="#a02373" d="M5.81 25.4v8.2l5.44 5.41 5.44-5.41v-8.2h.91v8.58l-6.35 6.32-6.35-6.32V25.4h.91z"/><path fill="#a02373" d="M10.79 35.27h.91v4.38h-.91zm2.732-2.475l.346-.841 3.375 1.39-.346.841zm-8.442.549l3.376-1.39.346.842-3.375 1.39z"/><path fill="#a02373" d="M8.93 25.4v6.92l2.32 2.31 2.32-2.31V25.4h.92v7.3l-3.24 3.21-3.24-3.21v-7.3h.92z"/><path fill="none" stroke="#7d398f" stroke-linecap="round" stroke-linejoin="round" stroke-width=".845" d="M17.6 15.53L5.08 22.11m0-6.19L17.6 27.43m.15-5.49L4.9 28.98"/></svg>