<svg id="Layer_1" data-name="Layer 1" xmlns="http://www.w3.org/2000/svg" width="21.77" height="22.02" viewBox="0 0 21.77 22.02"><title>Artboard 42</title><polygon points="5.18 0.25 10.94 11.21 8.39 1.61 5.18 0.25" style="fill:#e6cbe2"/><path d="M11,11.19l-.19.07L5.1.3,5.22.16,8.43,1.52l.06.07ZM5.4.45l5.22,9.93L8.31,1.68Z" style="fill:#7c3990"/><polygon points="16.59 21.84 10.83 10.87 13.38 20.47 16.59 21.84" style="fill:#e6cbe2"/><path d="M10.73,10.89l.19-.07,5.75,11-.12.14-3.21-1.37-.06-.06Zm5.64,10.74L11.15,11.7l2.31,8.7Z" style="fill:#7c3990"/><polygon points="0.09 16.74 11.06 10.99 1.46 13.53 0.09 16.74" style="fill:#e6cbe2"/><path d="M11,10.89l.07.19-11,5.75L0,16.7l1.36-3.2.07-.06ZM.29,16.52l9.93-5.21L1.53,13.62Z" style="fill:#7c3990"/><polygon points="21.68 5.34 10.71 11.1 20.32 8.55 21.68 5.34" style="fill:#e6cbe2"/><path d="M10.74,11.19,10.67,11l11-5.76.14.13L20.41,8.59l-.07.06ZM21.48,5.56l-9.93,5.21,8.69-2.3Z" style="fill:#7c3990"/></svg>