<svg data-name="Layer 1" xmlns="http://www.w3.org/2000/svg" width="101.75" height="57.75" viewBox="0 0 101.75 57.75"><path fill="none" stroke="#7c3990" stroke-miterlimit="10" stroke-width=".634" d="M64.29 8.79v4.83"/><path fill="#e6cbe2" stroke="#7c3990" stroke-miterlimit="10" stroke-width=".845" d="M61.86 14.94h4.85v5.28h-4.85z"/><path fill="#da1c5c" stroke="#7c3990" stroke-miterlimit="10" stroke-width=".845" d="M63.08 11.9h2.43v3.04h-2.43zm19.94 13.79l-7.66-7.71h-8.63l-7.66 7.71 7.66 7.71h8.63l7.66-7.71z"/><path fill="#f6ebf4" stroke="#7d398f" stroke-miterlimit="10" stroke-width=".845" d="M83.02 25.69l-7.66-7.71h-8.63l-7.66 7.71"/><path fill="none" stroke="#7d398f" stroke-miterlimit="10" stroke-width=".845" d="M68.64 28.91l-1.91 4.48m-1.29-7.7h-6.37m9.57-3.22l-1.91-4.49m6.72 10.93l1.91 4.48m1.29-7.7h6.37m-9.57-3.22l1.91-4.49"/><path fill="#e6cbe2" stroke="#7d398f" stroke-miterlimit="10" stroke-width=".845" d="M76.65 25.69l-3.2-3.22h-4.81l-3.2 3.22 3.2 3.22h4.81l3.2-3.22z"/><path fill="none" stroke="#7c3990" stroke-miterlimit="10" stroke-width=".845" d="M64.47 20.23H12.7m0 0l51.77 10.89M23.66 20.23l2.97 2.97m3.7-2.97l4.69 4.69m2.94-4.69l6.8 6.8m1.23-6.8l8.87 8.87m-7.44-1.57l7.26-7.26m-16.01 5.42l5.72-5.72M30.94 23.9l3.59-3.59m22.87-.08l3.56 3.56m-.04 3.76l-2.47 2.48m-36.62-7.81l1.91-1.91"/><path fill="#e6cae2" d="M15.23 16.31h-2.98l-2.11 2.12v2.98l2.11 2.11h2.98l2.12-2.11v-2.98l-2.12-2.12z"/><path d="M15.31 23.71h-3.14L10 21.49v-3.14l2.22-2.22h3.14l2.22 2.22v3.14zm-3-.37h2.83l2-2V18.5l-2-2h-2.81l-2 2v2.83z" fill="#7c3990"/><path fill="#b87bb5" d="M12.25 16.31h2.98l2.12 2.12v2.98l-2.12 2.11h-2.98l.57-1.37v-4.46l-.57-1.38z"/><path fill="#c093c3" d="M14.66 17.69h-1.84L11.51 19v1.84l1.31 1.31h1.84l1.31-1.31V19l-1.31-1.31z"/><path d="M14.74 22.33h-2l-1.41-1.41v-2l1.41-1.42h2l1.42 1.42v2zM12.9 22h1.69l1.2-1.2v-1.73l-1.2-1.2H12.9l-1.2 1.2v1.69z" fill="#7c3990"/><path fill="#7c3990" d="M12.082 16.386l.342-.141.57 1.376-.341.142zm2.417 1.226l.57-1.376.342.141-.57 1.377zm1.399 1.206l1.377-.57.141.341-1.376.57zm.003 2.195l.142-.342 1.377.57-.142.342zM14.49 22.22l.342-.142.57 1.377-.342.142zm-2.412 1.23l.57-1.377.342.142-.57 1.376zm-2.009-2.214l1.376-.57.142.34-1.377.571zm-.004-2.643l.141-.342 1.377.57-.142.342z"/><path d="M15.31 23.71h-3.14L10 21.49v-3.14l2.22-2.22h3.14l2.22 2.22v3.14zm-3-.37h2.83l2-2V18.5l-2-2h-2.81l-2 2v2.83z" fill="#7c3990"/><path fill="#e6cbe2" d="M8.04 9.13l5.76 10.96-2.55-9.6-3.21-1.36z"/><path d="M13.89 20.07l-.18.07L8 9.17 8.08 9l3.21 1.37.06.06zM8.26 9.33l5.21 9.93-2.3-8.7z" fill="#7c3990"/><path fill="#e6cbe2" d="M19.44 30.71l-5.75-10.96 2.54 9.6 3.21 1.36z"/><path d="M13.59 19.77l.19-.07 5.75 11-.13.14-3.21-1.36-.05-.07zm5.63 10.74L14 20.58l2.31 8.7z" fill="#7c3990"/><path fill="#e6cbe2" d="M2.95 25.62l10.96-5.76-9.6 2.55-1.36 3.21z"/><path d="M13.89 19.77L14 20 3 25.71l-.14-.13 1.36-3.21.07-.06zM3.15 25.4l9.93-5.21-8.7 2.3z" fill="#7c3990"/><path fill="#e6cbe2" d="M24.54 14.22l-10.97 5.75 9.6-2.54 1.37-3.21z"/><path d="M13.59 20.07l-.07-.19 11-5.75.14.13-1.37 3.2-.06.06zm10.74-5.63l-9.93 5.21 8.7-2.31z" fill="#7c3990"/><path fill="#da1c5c" stroke="#7c3990" stroke-miterlimit="10" stroke-width=".845" d="M63.08 8.08h2.43V10h-2.43z"/><path fill="none" stroke="#7c3990" stroke-miterlimit="10" stroke-width=".845" d="M68.42 33.39v4.89m5.07-4.89v4.89m7.79-1.94l-1.91 1.92H62.55l-1.92-1.92"/><path fill="none" stroke="#7d398f" stroke-miterlimit="10" stroke-width=".845" d="M76.76 38.28l-5.69 18.57h-.22l-5.69-18.57"/></svg>