<svg xmlns="http://www.w3.org/2000/svg" width="970.92" height="673.64"><defs><clipPath id="top-right-tube-mask"><path data-name="TOP RIGHT TUBE MASK 1" fill="none" d="M517.35 384h44.44v15.55h-44.44z"/><path data-name="TOP RIGHT TUBE MASK 2" fill="none" d="M590.93 384h9.34v15.55h-9.34z"/></clipPath><clipPath id="top-left-tube-mask"><path data-name="Top Left Mask" fill="none" d="M407.36 351.25h33.35v15.32h-33.35z"/></clipPath><clipPath id="bottom-left-tube-mask"><path data-name="BOTTOM LEFT MASK" fill="none" d="M362.12 425.19h78.76v15.32h-78.76z"/></clipPath><clipPath id="bottom-right-tube-mask"><path data-name="BOTTOM RIGHT MASK" fill="none" d="M517.51 441.79h82.95v15.32h-82.95z"/></clipPath><clipPath id="game-board-tube-mask"><path data-name="GAME BOARD TUBE MASK" fill="none" d="M517.51 235.46h39.27v15.32h-39.27z"/></clipPath><clipPath id="game-board-mask"><path data-name="GAME BOARD MASK" fill="none" d="M565.6 192.69h161.72v102.38H565.6z"/></clipPath></defs><g id="satelite-base"><polygon points="711.87 188.74 706.35 176.08 699.88 188.74 702.34 188.74 706.16 181.26 709.41 188.74 711.87 188.74" style="fill:#c093c3;stroke:#7d3990;stroke-miterlimit:10"/><polyline points="692.86 193.06 695.35 188.74 715.54 188.74 718.03 193.06" style="fill:#ebb8d5;stroke:#a02373;stroke-miterlimit:10"/></g><rect id="right-tube-bg" x="517.51" y="442.79" width="82.95" height="15.32" style="fill:#fff;opacity:0.8"/><g id="board-bottom-rupie"><path fill="#ebb8d5" d="M645.69 276.04l-4.94 4.91v34.83l4.94 4.91 4.92-4.89v-34.87l-4.92-4.89z"/><path fill="#ee2a7b" d="M645.69 267.11v8.93l4.92 4.89v34.87l-4.92 4.89v8.94l11.2-11.15v-40.23l-11.2-11.14z"/><path fill="#fde9f1" d="M645.69 267.11l-11.2 11.14v40.23l11.2 11.15v-8.94l-4.94-4.91v-34.83l4.94-4.91v-8.93z"/><path fill="none" stroke="#a02373" stroke-miterlimit="10" d="M634.49 278.25l11.2-11.14 11.2 11.14v40.23l-11.2 11.15-11.2-11.15v-40.23z"/><path fill="none" stroke="#a02373" stroke-miterlimit="10" d="M640.75 280.95l4.94-4.91 4.92 4.89v34.87l-4.92 4.89-4.94-4.91v-34.83zM640.75 280.95l-6.26-2.7M645.69 267.1v8.94M650.61 280.93l6.28-2.68M650.61 315.8l6.28 2.68M645.69 320.69v8.94M634.49 318.48l6.26-2.7"/><path fill="#ebb8d5" stroke="#a02373" stroke-miterlimit="10" d="M621.41 295.65l4.8 8.32h38.95l4.81-8.32"/></g><path fill="#fff" d="M516.28 235.46h41v15.32h-41z"/><g id="board-rupies" clip-path="url(#game-board-tube-mask)"><g id="rupie" data-name="rupie"><path fill="#fde9f1" d="M550.07 243l-3.72-3.75h-13.46l-3.73 3.75 3.73 3.75h13.46l3.72-3.75z"/><path fill="#ee2a7b" d="M550.07 243h-20.91l3.73 3.75h13.46l3.72-3.75z"/><path fill="#ebb8d5" d="M547.49 243l-1.9-1.91h-11.95l-1.9 1.91 1.9 1.91h11.95l1.9-1.91z"/><path fill="#a02373" d="M537.25 239.79h8.87l3.19 3.21-3.19 3.21h-8.87v.54h9.1l3.72-3.75-3.72-3.75h-9.1v.54z"/><path fill="#a02373" d="M547.11 242.73h2.58v.54h-2.58z"/><path transform="rotate(-22.38 545.879 245.4543)" fill="#a02373" d="M545.54 244.37h.54v2.15h-.54z"/><path transform="rotate(-67.61 545.7961 240.4656)" fill="#a02373" d="M544.73 240.19h2.15v.54h-2.15z"/><path fill="#a02373" d="M537.25 241.63h8.11l1.37 1.37-1.37 1.37h-8.11v.54h8.34l1.9-1.91-1.9-1.91h-8.34v.54z"/><path fill="#a02373" d="M537.95 239.79h-4.84l-3.19 3.21 3.19 3.21h4.84v.54h-5.06l-3.73-3.75 3.73-3.75h5.06v.54z"/><path fill="#a02373" d="M529.54 242.73h2.58v.54h-2.58z"/><path transform="rotate(-67.61 533.4432 245.4432)" fill="#a02373" d="M532.35 245.17h2.15v.54h-2.15z"/><path transform="rotate(-22.38 533.494 240.483)" fill="#a02373" d="M533.15 239.38h.54v2.15h-.54z"/><path fill="#a02373" d="M537.95 241.63h-4.08L532.5 243l1.37 1.37h4.08v.54h-4.31l-1.9-1.91 1.9-1.91h4.31v.54z"/></g><g id="rupie-2" data-name="rupie"><path fill="#fde9f1" d="M523.98 243l-3.73-3.75H506.8l-3.73 3.75 3.73 3.75h13.45l3.73-3.75z"/><path fill="#ee2a7b" d="M523.98 243h-20.91l3.73 3.75h13.45l3.73-3.75z"/><path fill="#ebb8d5" d="M521.4 243l-1.9-1.91h-11.95l-1.9 1.91 1.9 1.91h11.95l1.9-1.91z"/><path fill="#a02373" d="M511.16 239.79h8.87l3.19 3.21-3.19 3.21h-8.87v.54h9.09l3.73-3.75-3.73-3.75h-9.09v.54z"/><path fill="#a02373" d="M521.02 242.73h2.58v.54h-2.58z"/><path transform="rotate(-22.38 519.796 245.4685)" fill="#a02373" d="M519.45 244.37h.54v2.15h-.54z"/><path transform="rotate(-67.61 519.702 240.4606)" fill="#a02373" d="M518.64 240.19h2.15v.54h-2.15z"/><path fill="#a02373" d="M511.16 241.63h8.11l1.37 1.37-1.37 1.37h-8.11v.54h8.34l1.9-1.91-1.9-1.91h-8.34v.54z"/><path fill="#a02373" d="M511.86 239.79h-4.84l-3.19 3.21 3.19 3.21h4.84v.54h-5.06l-3.73-3.75 3.73-3.75h5.06v.54z"/><path fill="#a02373" d="M503.45 242.73h2.58v.54h-2.58z"/><path transform="rotate(-67.61 507.3492 245.4383)" fill="#a02373" d="M506.26 245.17h2.15v.54h-2.15z"/><path transform="rotate(-22.38 507.416 240.4718)" fill="#a02373" d="M507.06 239.38h.54v2.15h-.54z"/><path fill="#a02373" d="M511.86 241.63h-4.08l-1.37 1.37 1.37 1.37h4.08v.54h-4.31l-1.9-1.91 1.9-1.91h4.31v.54z"/></g></g><path fill="#d1ecf2" opacity=".4" d="M517.51 235.46h39.77v15.32h-39.77z"/><path fill="#e9b7d5" stroke="#a02373" stroke-miterlimit="10" stroke-width="1.2673" d="M513.28 232.9v21.2l3.6-1.44V234.9l-3.6-2z"/><path fill="#fff" opacity=".8" d="M407.36 351.25h37.59v15.32h-37.59z"/><g id="top-left-rupies" clip-path="url(#top-left-tube-mask)"><g id="rupie-3" data-name="rupie"><path fill="#fde9f1" d="M466.12 358.79l-3.73-3.75h-13.46l-3.72 3.75 3.72 3.75h13.46l3.73-3.75z"/><path fill="#ee2a7b" d="M466.12 358.79h-20.91l3.72 3.75h13.46l3.73-3.75z"/><path fill="#ebb8d5" d="M463.53 358.79l-1.9-1.91h-11.94l-1.9 1.91 1.9 1.91h11.94l1.9-1.91z"/><path fill="#a02373" d="M453.3 355.58h8.87l3.19 3.21-3.19 3.21h-8.87v.54h9.09l3.73-3.75-3.73-3.75h-9.09v.54z"/><path fill="#a02373" d="M463.15 358.52h2.58v.54h-2.58z"/><path transform="rotate(-22.38 461.93 361.2709)" fill="#a02373" d="M461.58 360.15h.54v2.15h-.54z"/><path transform="rotate(-67.61 461.838 356.2462)" fill="#a02373" d="M460.78 355.98h2.15v.54h-2.15z"/><path fill="#a02373" d="M453.3 357.42h8.11l1.36 1.37-1.36 1.37h-8.11v.54h8.33l1.9-1.91-1.9-1.91h-8.33v.54z"/><path fill="#a02373" d="M454 355.58h-4.84l-3.19 3.21 3.19 3.21H454v.54h-5.07l-3.72-3.75 3.72-3.75H454v.54z"/><path fill="#a02373" d="M445.59 358.52h2.58v.54h-2.58z"/><path transform="rotate(-67.61 449.4875 361.2364)" fill="#a02373" d="M448.4 360.96h2.15v.54h-2.15z"/><path transform="rotate(-22.38 449.55 356.2742)" fill="#a02373" d="M449.2 355.17h.54v2.15h-.54z"/><path fill="#a02373" d="M454 357.42h-4.08l-1.37 1.37 1.37 1.37H454v.54h-4.31l-1.9-1.91 1.9-1.91H454v.54z"/></g><g id="rupie-4" data-name="rupie"><path fill="#fde9f1" d="M440.06 358.79l-3.73-3.75h-13.45l-3.73 3.75 3.73 3.75h13.45l3.73-3.75z"/><path fill="#ee2a7b" d="M440.06 358.79h-20.91l3.73 3.75h13.45l3.73-3.75z"/><path fill="#ebb8d5" d="M437.48 358.79l-1.9-1.91h-11.95l-1.9 1.91 1.9 1.91h11.95l1.9-1.91z"/><path fill="#a02373" d="M427.24 355.58h8.87l3.19 3.21-3.19 3.21h-8.87v.54h9.09l3.73-3.75-3.73-3.75h-9.09v.54z"/><path fill="#a02373" d="M437.1 358.52h2.58v.54h-2.58z"/><path transform="rotate(-22.38 435.8771 361.2648)" fill="#a02373" d="M435.53 360.15h.54v2.15h-.54z"/><path transform="rotate(-67.61 435.7838 356.2463)" fill="#a02373" d="M434.72 355.98h2.15v.54h-2.15z"/><path fill="#a02373" d="M427.24 357.42h8.11l1.37 1.37-1.37 1.37h-8.11v.54h8.34l1.9-1.91-1.9-1.91h-8.34v.54z"/><path fill="#a02373" d="M427.94 355.58h-4.84l-3.19 3.21 3.19 3.21h4.84v.54h-5.06l-3.73-3.75 3.73-3.75h5.06v.54z"/><path fill="#a02373" d="M419.53 358.52h2.58v.54h-2.58z"/><path transform="rotate(-67.61 423.4259 361.2315)" fill="#a02373" d="M422.34 360.96h2.15v.54h-2.15z"/><path transform="rotate(-22.38 423.4921 356.2934)" fill="#a02373" d="M423.15 355.17h.54v2.15h-.54z"/><path fill="#a02373" d="M427.94 357.42h-4.08l-1.36 1.37 1.36 1.37h4.08v.54h-4.31l-1.9-1.91 1.9-1.91h4.31v.54z"/></g><g id="rupie-5" data-name="rupie"><path fill="#fde9f1" d="M413.97 358.79l-3.73-3.75h-13.45l-3.73 3.75 3.73 3.75h13.45l3.73-3.75z"/><path fill="#ee2a7b" d="M413.97 358.79h-20.91l3.73 3.75h13.45l3.73-3.75z"/><path fill="#ebb8d5" d="M411.39 358.79l-1.9-1.91h-11.95l-1.9 1.91 1.9 1.91h11.95l1.9-1.91z"/><path fill="#a02373" d="M401.15 355.58h8.87l3.19 3.21-3.19 3.21h-8.87v.54h9.09l3.73-3.75-3.73-3.75h-9.09v.54z"/><path fill="#a02373" d="M411.01 358.52h2.58v.54h-2.58z"/><path transform="rotate(-22.38 409.7688 361.274)" fill="#a02373" d="M409.44 360.15h.54v2.15h-.54z"/><path transform="rotate(-67.61 409.6971 356.2463)" fill="#a02373" d="M408.63 355.98h2.15v.54h-2.15z"/><path fill="#a02373" d="M401.15 357.42h8.11l1.37 1.37-1.37 1.37h-8.11v.54h8.34l1.9-1.91-1.9-1.91h-8.34v.54z"/><path fill="#a02373" d="M401.85 355.58h-4.84l-3.19 3.21 3.19 3.21h4.84v.54h-5.06l-3.73-3.75 3.73-3.75h5.06v.54z"/><path fill="#a02373" d="M393.44 358.52h2.58v.54h-2.58z"/><path transform="rotate(-67.61 397.3392 361.2315)" fill="#a02373" d="M396.25 360.96h2.15v.54h-2.15z"/><path transform="rotate(-22.38 397.3888 356.2773)" fill="#a02373" d="M397.05 355.17h.54v2.15h-.54z"/><path fill="#a02373" d="M401.85 357.42h-4.08l-1.37 1.37 1.37 1.37h4.08v.54h-4.31l-1.9-1.91 1.9-1.91h4.31v.54z"/></g></g><path fill="#9fdae3" opacity=".4" d="M403.52 351.25h41.44v15.32h-41.44z"/><path fill="#fff" d="M403.54 351.25h39.23v1.68h-39.23z"/><path fill="#fde9f1" stroke="#a02373" stroke-miterlimit="10" d="M444.81 369.89v-21.2l-3.6 1.44v17.76l3.6 2z"/><path fill="#e9b7d5" stroke="#a02373" stroke-miterlimit="10" d="M403.27 348.69v21.2l3.6-1.44v-17.76l-3.6-2z"/><path fill="#fff" opacity=".8" d="M362.12 425.19h78.6v15.32h-78.6z"/><g id="bottom-left-rupies" clip-path="url(#bottom-left-tube-mask)"><g id="rupie-6" data-name="rupie"><path fill="#fde9f1" d="M452.3 432.73l-3.73-3.75h-13.46l-3.73 3.75 3.73 3.75h13.46l3.73-3.75z"/><path fill="#ee2a7b" d="M452.3 432.73h-20.92l3.73 3.75h13.46l3.73-3.75z"/><path fill="#ebb8d5" d="M449.71 432.73l-1.9-1.91h-11.94l-1.9 1.91 1.9 1.91h11.94l1.9-1.91z"/><path fill="#a02373" d="M439.48 429.52h8.87l3.19 3.21-3.19 3.21h-8.87v.54h9.09l3.73-3.75-3.73-3.75h-9.09v.54z"/><path fill="#a02373" d="M449.33 432.46h2.58v.54h-2.58z"/><path transform="rotate(-22.38 448.1134 435.2289)" fill="#a02373" d="M447.76 434.1h.54v2.15h-.54z"/><path transform="rotate(-67.61 448.0207 430.1862)" fill="#a02373" d="M446.96 429.92h2.15v.54h-2.15z"/><path fill="#a02373" d="M439.48 431.36h8.11l1.36 1.37-1.36 1.37h-8.11v.54h8.33l1.9-1.91-1.9-1.91h-8.33v.54z"/><path fill="#a02373" d="M440.17 429.52h-4.83l-3.2 3.21 3.2 3.21h4.83v.54h-5.06l-3.73-3.75 3.73-3.75h5.06v.54z"/><path fill="#a02373" d="M431.76 432.46h2.58v.54h-2.58z"/><path transform="rotate(-67.61 435.6703 435.1764)" fill="#a02373" d="M434.57 434.9h2.15v.54h-2.15z"/><path transform="rotate(-22.38 435.7335 430.2322)" fill="#a02373" d="M435.38 429.11h.54v2.15h-.54z"/><path fill="#a02373" d="M440.17 431.36h-4.08l-1.36 1.37 1.36 1.37h4.08v.54h-4.3l-1.9-1.91 1.9-1.91h4.3v.54z"/></g><g id="rupie-7" data-name="rupie"><path fill="#fde9f1" d="M426.24 432.73l-3.73-3.75h-13.45l-3.73 3.75 3.73 3.75h13.45l3.73-3.75z"/><path fill="#ee2a7b" d="M426.24 432.73h-20.91l3.73 3.75h13.45l3.73-3.75z"/><path fill="#ebb8d5" d="M423.66 432.73l-1.9-1.91h-11.95l-1.9 1.91 1.9 1.91h11.95l1.9-1.91z"/><path fill="#a02373" d="M413.42 429.52h8.87l3.19 3.21-3.19 3.21h-8.87v.54h9.09l3.73-3.75-3.73-3.75h-9.09v.54z"/><path fill="#a02373" d="M423.28 432.46h2.58v.54h-2.58z"/><path transform="rotate(-22.38 422.0354 435.2178)" fill="#a02373" d="M421.71 434.1h.54v2.15h-.54z"/><path transform="rotate(-67.61 421.9665 430.1863)" fill="#a02373" d="M420.9 429.92h2.15v.54h-2.15z"/><path fill="#a02373" d="M413.42 431.36h8.11l1.37 1.37-1.37 1.37h-8.11v.54h8.34l1.9-1.91-1.9-1.91h-8.34v.54z"/><path fill="#a02373" d="M414.12 429.52h-4.84l-3.19 3.21 3.19 3.21h4.84v.54h-5.06l-3.73-3.75 3.73-3.75h5.06v.54z"/><path fill="#a02373" d="M405.71 432.46h2.58v.54h-2.58z"/><path transform="rotate(-67.61 409.6086 435.1715)" fill="#a02373" d="M408.52 434.9h2.15v.54h-2.15z"/><path transform="rotate(-22.38 409.6504 430.2464)" fill="#a02373" d="M409.32 429.11h.54v2.15h-.54z"/><path fill="#a02373" d="M414.12 431.36h-4.08l-1.37 1.37 1.37 1.37h4.08v.54h-4.31l-1.9-1.91 1.9-1.91h4.31v.54z"/></g><g id="rupie-8" data-name="rupie"><path fill="#fde9f1" d="M400.15 432.73l-3.73-3.75h-13.46l-3.72 3.75 3.72 3.75h13.46l3.73-3.75z"/><path fill="#ee2a7b" d="M400.15 432.73h-20.91l3.72 3.75h13.46l3.73-3.75z"/><path fill="#ebb8d5" d="M397.56 432.73l-1.89-1.91h-11.95l-1.9 1.91 1.9 1.91h11.95l1.89-1.91z"/><path fill="#a02373" d="M387.33 429.52h8.87l3.19 3.21-3.19 3.21h-8.87v.54h9.09l3.73-3.75-3.73-3.75h-9.09v.54z"/><path fill="#a02373" d="M397.18 432.46h2.58v.54h-2.58z"/><path transform="rotate(-22.38 395.9523 435.232)" fill="#a02373" d="M395.62 434.1h.54v2.15h-.54z"/><path transform="rotate(-67.61 395.8724 430.1813)" fill="#a02373" d="M394.81 429.92h2.15v.54h-2.15z"/><path fill="#a02373" d="M387.33 431.36h8.11l1.37 1.37-1.37 1.37h-8.11v.54h8.34l1.89-1.91-1.89-1.91h-8.34v.54z"/><path fill="#a02373" d="M388.03 429.52h-4.84l-3.19 3.21 3.19 3.21h4.84v.54h-5.07l-3.72-3.75 3.72-3.75h5.07v.54z"/><path fill="#a02373" d="M379.62 432.46h2.58v.54h-2.58z"/><path transform="rotate(-67.61 383.517 435.179)" fill="#a02373" d="M382.43 434.9h2.15v.54h-2.15z"/><path transform="rotate(-22.38 383.5723 430.2353)" fill="#a02373" d="M383.23 429.11h.54v2.15h-.54z"/><path fill="#a02373" d="M388.03 431.36h-4.09l-1.36 1.37 1.36 1.37h4.09v.54h-4.31l-1.9-1.91 1.9-1.91h4.31v.54z"/></g><g id="rupie-9" data-name="rupie"><path fill="#fde9f1" d="M374.26 432.73l-3.72-3.75h-13.46l-3.73 3.75 3.73 3.75h13.46l3.72-3.75z"/><path fill="#ee2a7b" d="M374.26 432.73h-20.91l3.73 3.75h13.46l3.72-3.75z"/><path fill="#ebb8d5" d="M371.68 432.73l-1.9-1.91h-11.95l-1.9 1.91 1.9 1.91h11.95l1.9-1.91z"/><path fill="#a02373" d="M361.44 429.52h8.87l3.19 3.21-3.19 3.21h-8.87v.54h9.1l3.72-3.75-3.72-3.75h-9.1v.54z"/><path fill="#a02373" d="M371.3 432.46h2.58v.54h-2.58z"/><path transform="rotate(-22.38 370.0561 435.2306)" fill="#a02373" d="M369.73 434.1h.54v2.15h-.54z"/><path transform="rotate(-67.61 369.9877 430.1867)" fill="#a02373" d="M368.92 429.92h2.15v.54h-2.15z"/><path fill="#a02373" d="M361.44 431.36h8.11l1.37 1.37-1.37 1.37h-8.11v.54h8.34l1.9-1.91-1.9-1.91h-8.34v.54z"/><path fill="#a02373" d="M362.14 429.52h-4.84l-3.19 3.21 3.19 3.21h4.84v.54h-5.06l-3.73-3.75 3.73-3.75h5.06v.54z"/><path fill="#a02373" d="M353.73 432.46h2.58v.54h-2.58z"/><path transform="rotate(-67.61 357.6298 435.1719)" fill="#a02373" d="M356.54 434.9h2.15v.54h-2.15z"/><path transform="rotate(-22.38 357.6762 430.2339)" fill="#a02373" d="M357.34 429.11h.54v2.15h-.54z"/><path fill="#a02373" d="M362.14 431.36h-4.08l-1.37 1.37 1.37 1.37h4.08v.54h-4.31l-1.9-1.91 1.9-1.91h4.31v.54z"/></g></g><path fill="#9fdae3" opacity=".4" d="M362.12 425.19h78.81v15.32h-78.81z"/><path fill="#fde9f1" stroke="#a02373" stroke-miterlimit="10" d="M444.96 443.83v-21.2l-3.59 1.44v17.76l3.59 2z"/><path fill="#e9b7d5" stroke="#a02373" stroke-miterlimit="10" d="M358.04 422.63v21.2l3.59-1.44v-17.76l-3.59-2z"/><path fill="#fff" d="M362.12 425.19h78.76v1.68h-78.76z"/><path clip-path="url(#top-right-tube-mask)" fill="#fff" opacity=".8" d="M516.84 384h83.94v15.32h-83.94z"/><g id="top-right-rupies" clip-path="url(#top-right-tube-mask)"><g id="rupie-10" data-name="rupie"><path fill="#fde9f1" d="M606.65 391.54l-3.73-3.75h-13.46l-3.73 3.75 3.73 3.75h13.46l3.73-3.75z"/><path fill="#ee2a7b" d="M606.65 391.54h-20.92l3.73 3.75h13.46l3.73-3.75z"/><path fill="#ebb8d5" d="M604.06 391.54l-1.9-1.91h-11.94l-1.9 1.91 1.9 1.91h11.94l1.9-1.91z"/><path fill="#a02373" d="M593.82 388.33h8.87l3.2 3.21-3.2 3.21h-8.87v.54h9.1l3.73-3.75-3.73-3.75h-9.1v.54z"/><path fill="#a02373" d="M603.68 391.27h2.58v.54h-2.58z"/><path transform="rotate(-22.38 602.4793 394.0126)" fill="#a02373" d="M602.11 392.91h.54v2.15h-.54z"/><path transform="rotate(-67.61 602.3673 388.9956)" fill="#a02373" d="M601.3 388.73h2.15v.54h-2.15z"/><path fill="#a02373" d="M593.82 390.17h8.12l1.36 1.37-1.36 1.37h-8.12v.54h8.34l1.9-1.91-1.9-1.91h-8.34v.54z"/><path fill="#a02373" d="M594.52 388.33h-4.84l-3.19 3.21 3.19 3.21h4.84v.54h-5.06l-3.73-3.75 3.73-3.75h5.06v.54z"/><path fill="#a02373" d="M586.11 391.27h2.58v.54h-2.58z"/><path transform="rotate(-67.61 590.0219 393.9782)" fill="#a02373" d="M588.92 393.71h2.15v.54h-2.15z"/><path transform="rotate(-22.38 590.0944 389.0412)" fill="#a02373" d="M589.73 387.92h.54v2.15h-.54z"/><path fill="#a02373" d="M594.52 390.17h-4.08l-1.36 1.37 1.36 1.37h4.08v.54h-4.3l-1.9-1.91 1.9-1.91h4.3v.54z"/></g><g id="rupie-11" data-name="rupie"><path fill="#fde9f1" d="M580.59 391.54l-3.73-3.75H563.4l-3.72 3.75 3.72 3.75h13.46l3.73-3.75z"/><path fill="#ee2a7b" d="M580.59 391.54h-20.91l3.72 3.75h13.46l3.73-3.75z"/><path fill="#ebb8d5" d="M578 391.54l-1.89-1.91h-11.95l-1.9 1.91 1.9 1.91h11.95l1.89-1.91z"/><path fill="#a02373" d="M567.77 388.33h8.87l3.19 3.21-3.19 3.21h-8.87v.54h9.09l3.73-3.75-3.73-3.75h-9.09v.54z"/><path fill="#a02373" d="M577.62 391.27h2.58v.54h-2.58z"/><path transform="rotate(-22.38 576.4215 394.0317)" fill="#a02373" d="M576.05 392.91h.54v2.15h-.54z"/><path transform="rotate(-67.61 576.313 388.9956)" fill="#a02373" d="M575.25 388.73h2.15v.54h-2.15z"/><path fill="#a02373" d="M567.77 390.17h8.11l1.36 1.37-1.36 1.37h-8.11v.54h8.34l1.89-1.91-1.89-1.91h-8.34v.54z"/><path fill="#a02373" d="M568.47 388.33h-4.84l-3.19 3.21 3.19 3.21h4.84v.54h-5.07l-3.72-3.75 3.72-3.75h5.07v.54z"/><path fill="#a02373" d="M560.06 391.27h2.58v.54h-2.58z"/><path transform="rotate(-67.61 563.9627 393.9858)" fill="#a02373" d="M562.87 393.71h2.15v.54h-2.15z"/><path transform="rotate(-22.38 564.0416 389.035)" fill="#a02373" d="M563.67 387.92h.54v2.15h-.54z"/><path fill="#a02373" d="M568.47 390.17h-4.09l-1.36 1.37 1.36 1.37h4.09v.54h-4.31l-1.9-1.91 1.9-1.91h4.31v.54z"/></g><g id="rupie-12" data-name="rupie"><path fill="#fde9f1" d="M554.5 391.54l-3.73-3.75h-13.46l-3.72 3.75 3.72 3.75h13.46l3.73-3.75z"/><path fill="#ee2a7b" d="M554.5 391.54h-20.91l3.72 3.75h13.46l3.73-3.75z"/><path fill="#ebb8d5" d="M551.91 391.54l-1.9-1.91h-11.94l-1.9 1.91 1.9 1.91h11.94l1.9-1.91z"/><path fill="#a02373" d="M541.68 388.33h8.87l3.19 3.21-3.19 3.21h-8.87v.54h9.09l3.73-3.75-3.73-3.75h-9.09v.54z"/><path fill="#a02373" d="M551.53 391.27h2.58v.54h-2.58z"/><path transform="rotate(-22.38 550.3182 394.0156)" fill="#a02373" d="M549.96 392.91h.54v2.15h-.54z"/><path transform="rotate(-67.61 550.214 388.9981)" fill="#a02373" d="M549.16 388.73h2.15v.54h-2.15z"/><path fill="#a02373" d="M541.68 390.17h8.11l1.36 1.37-1.36 1.37h-8.11v.54h8.33l1.9-1.91-1.9-1.91h-8.33v.54z"/><path fill="#a02373" d="M542.38 388.33h-4.84l-3.19 3.21 3.19 3.21h4.84v.54h-5.07l-3.72-3.75 3.72-3.75h5.07v.54z"/><path fill="#a02373" d="M533.97 391.27h2.58v.54h-2.58z"/><path transform="rotate(-67.61 537.8686 393.9808)" fill="#a02373" d="M536.77 393.71h2.15v.54h-2.15z"/><path transform="rotate(-22.38 537.9332 389.0442)" fill="#a02373" d="M537.58 387.92h.54v2.15h-.54z"/><path fill="#a02373" d="M542.38 390.17h-4.09l-1.36 1.37 1.36 1.37h4.09v.54h-4.31l-1.9-1.91 1.9-1.91h4.31v.54z"/></g><g id="rupie-13" data-name="rupie"><path fill="#fde9f1" d="M528.61 391.54l-3.73-3.75h-13.45l-3.73 3.75 3.73 3.75h13.45l3.73-3.75z"/><path fill="#ee2a7b" d="M528.61 391.54H507.7l3.73 3.75h13.45l3.73-3.75z"/><path fill="#ebb8d5" d="M526.03 391.54l-1.9-1.91h-11.95l-1.9 1.91 1.9 1.91h11.95l1.9-1.91z"/><path fill="#a02373" d="M515.79 388.33h8.87l3.19 3.21-3.19 3.21h-8.87v.54h9.09l3.73-3.75-3.73-3.75h-9.09v.54z"/><path fill="#a02373" d="M525.65 391.27h2.58v.54h-2.58z"/><path transform="rotate(-22.38 524.422 394.0143)" fill="#a02373" d="M524.08 392.91h.54v2.15h-.54z"/><path transform="rotate(-67.61 524.3343 388.996)" fill="#a02373" d="M523.27 388.73h2.15v.54h-2.15z"/><path fill="#a02373" d="M515.79 390.17h8.11l1.37 1.37-1.37 1.37h-8.11v.54h8.34l1.9-1.91-1.9-1.91h-8.34v.54z"/><path fill="#a02373" d="M516.49 388.33h-4.84l-3.19 3.21 3.19 3.21h4.84v.54h-5.06l-3.73-3.75 3.73-3.75h5.06v.54z"/><path fill="#a02373" d="M508.08 391.27h2.58v.54h-2.58z"/><path transform="rotate(-67.61 511.9839 393.9862)" fill="#a02373" d="M510.89 393.71h2.15v.54h-2.15z"/><path transform="rotate(-22.38 512.037 389.0429)" fill="#a02373" d="M511.69 387.92h.54v2.15h-.54z"/><path fill="#a02373" d="M516.49 390.17h-4.08l-1.37 1.37 1.37 1.37h4.08v.54h-4.31l-1.9-1.91 1.9-1.91h4.31v.54z"/></g></g><path clip-path="url(#top-right-tube-mask)" fill="#9fdae3" opacity=".4" d="M517.28 384h83.5v15.32h-83.5z"/><path clip-path="url(#top-right-tube-mask)" fill="#fff" d="M517.28 384h82.95v1.68h-82.95z"/><path fill="#fde9f1" stroke="#a02373" stroke-miterlimit="10" d="M604.38 402.64v-21.2l-3.59 1.44v17.76l3.59 2z"/><path clip-path="url(#top-right-tube-mask)" fill="#fff" opacity=".8" d="M517.51 442.79h82.95v15.32h-82.95z"/><path fill="#e9b7d5" stroke="#a02373" stroke-miterlimit="10" d="M513.25 381.44v21.2l3.59-1.44v-17.76l-3.59-2z"/><g id="bottom-right-rupies" clip-path="url(#bottom-right-tube-mask)"><g id="rupie-14" data-name="rupie"><path fill="#fde9f1" d="M618.96 449.33l-3.73-3.75h-13.46l-3.72 3.75 3.72 3.75h13.46l3.73-3.75z"/><path fill="#ee2a7b" d="M618.96 449.33h-20.91l3.72 3.75h13.46l3.73-3.75z"/><path fill="#ebb8d5" d="M616.38 449.33l-1.9-1.91h-11.95l-1.9 1.91 1.9 1.91h11.95l1.9-1.91z"/><path fill="#a02373" d="M606.14 446.12h8.87l3.19 3.21-3.19 3.21h-8.87v.54h9.09l3.73-3.75-3.73-3.75h-9.09v.54z"/><path fill="#a02373" d="M616 449.06h2.58v.54H616z"/><path transform="rotate(-22.38 614.788 451.8123)" fill="#a02373" d="M614.43 450.7h.54v2.15h-.54z"/><path transform="rotate(-67.61 614.674 446.7917)" fill="#a02373" d="M613.62 446.52h2.15v.54h-2.15z"/><path fill="#a02373" d="M606.14 447.96h8.11l1.37 1.37-1.37 1.37h-8.11v.54h8.34l1.9-1.91-1.9-1.91h-8.34v.54z"/><path fill="#a02373" d="M606.84 446.12H602l-3.19 3.21 3.19 3.21h4.84v.54h-5.07l-3.72-3.75 3.72-3.75h5.07v.54z"/><path fill="#a02373" d="M598.43 449.06h2.58v.54h-2.58z"/><path transform="rotate(-67.61 602.336 451.7793)" fill="#a02373" d="M601.24 451.51h2.15v.54h-2.15z"/><path transform="rotate(-22.38 602.403 446.8409)" fill="#a02373" d="M602.04 445.71h.54v2.15h-.54z"/><path fill="#a02373" d="M606.84 447.96h-4.08l-1.37 1.37 1.37 1.37h4.08v.54h-4.31l-1.9-1.91 1.9-1.91h4.31v.54z"/></g><g id="rupie-15" data-name="rupie"><path fill="#fde9f1" d="M592.9 449.33l-3.72-3.75h-13.46l-3.73 3.75 3.73 3.75h13.46l3.72-3.75z"/><path fill="#ee2a7b" d="M592.9 449.33h-20.91l3.73 3.75h13.46l3.72-3.75z"/><path fill="#ebb8d5" d="M590.32 449.33l-1.9-1.91h-11.94l-1.9 1.91 1.9 1.91h11.94l1.9-1.91z"/><path fill="#a02373" d="M580.08 446.12h8.87l3.19 3.21-3.19 3.21h-8.87v.54h9.1l3.72-3.75-3.72-3.75h-9.1v.54z"/><path fill="#a02373" d="M589.94 449.06h2.58v.54h-2.58z"/><path transform="rotate(-22.38 588.7301 451.8314)" fill="#a02373" d="M588.37 450.7h.54v2.15h-.54z"/><path transform="matrix(.38 -.92 .92 .38 -48.7 820.85)" fill="#a02373" d="M587.56 446.52h2.15v.54h-2.15z"/><path fill="#a02373" d="M580.08 447.96h8.12l1.36 1.37-1.36 1.37h-8.12v.54h8.34l1.9-1.91-1.9-1.91h-8.34v.54z"/><path fill="#a02373" d="M580.78 446.12h-4.84l-3.19 3.21 3.19 3.21h4.84v.54h-5.06l-3.73-3.75 3.73-3.75h5.06v.54z"/><path fill="#a02373" d="M572.37 449.06h2.58v.54h-2.58z"/><path transform="rotate(-67.61 576.2744 451.7744)" fill="#a02373" d="M575.18 451.51h2.15v.54h-2.15z"/><path transform="rotate(-22.38 576.3502 446.8348)" fill="#a02373" d="M575.99 445.71h.54v2.15h-.54z"/><path fill="#a02373" d="M580.78 447.96h-4.08l-1.36 1.37 1.36 1.37h4.08v.54h-4.3l-1.9-1.91 1.9-1.91h4.3v.54z"/></g><g id="rupie-16" data-name="rupie"><path fill="#fde9f1" d="M566.81 449.33l-3.72-3.75h-13.46l-3.73 3.75 3.73 3.75h13.46l3.72-3.75z"/><path fill="#ee2a7b" d="M566.81 449.33H545.9l3.73 3.75h13.46l3.72-3.75z"/><path fill="#ebb8d5" d="M564.23 449.33l-1.9-1.91h-11.95l-1.89 1.91 1.89 1.91h11.95l1.9-1.91z"/><path fill="#a02373" d="M553.99 446.12h8.87l3.19 3.21-3.19 3.21h-8.87v.54h9.1l3.72-3.75-3.72-3.75h-9.1v.54z"/><path fill="#a02373" d="M563.85 449.06h2.58v.54h-2.58z"/><path transform="rotate(-22.38 562.652 451.8203)" fill="#a02373" d="M562.28 450.7h.54v2.15h-.54z"/><path transform="rotate(-67.61 562.5332 446.7917)" fill="#a02373" d="M561.47 446.52h2.15v.54h-2.15z"/><path fill="#a02373" d="M553.99 447.96h8.11l1.37 1.37-1.37 1.37h-8.11v.54h8.34l1.9-1.91-1.9-1.91h-8.34v.54z"/><path fill="#a02373" d="M554.69 446.12h-4.84l-3.19 3.21 3.19 3.21h4.84v.54h-5.06l-3.73-3.75 3.73-3.75h5.06v.54z"/><path fill="#a02373" d="M546.28 449.06h2.58v.54h-2.58z"/><path transform="rotate(-67.61 550.1878 451.7744)" fill="#a02373" d="M549.09 451.51h2.15v.54h-2.15z"/><path transform="rotate(-22.38 550.2418 446.844)" fill="#a02373" d="M549.9 445.71h.54v2.15h-.54z"/><path fill="#a02373" d="M554.69 447.96h-4.08l-1.36 1.37 1.36 1.37h4.08v.54h-4.31l-1.89-1.91 1.89-1.91h4.31v.54z"/></g><g id="rupie-17" data-name="rupie"><path fill="#fde9f1" d="M540.92 449.33l-3.72-3.75h-13.46l-3.73 3.75 3.73 3.75h13.46l3.72-3.75z"/><path fill="#ee2a7b" d="M540.92 449.33h-20.91l3.73 3.75h13.46l3.72-3.75z"/><path fill="#ebb8d5" d="M538.34 449.33l-1.9-1.91H524.5l-1.9 1.91 1.9 1.91h11.94l1.9-1.91z"/><path fill="#a02373" d="M528.1 446.12h8.87l3.19 3.21-3.19 3.21h-8.87v.54h9.1l3.72-3.75-3.72-3.75h-9.1v.54z"/><path fill="#a02373" d="M537.96 449.06h2.58v.54h-2.58z"/><path transform="rotate(-22.38 536.756 451.819)" fill="#a02373" d="M536.39 450.7h.54v2.15h-.54z"/><path transform="rotate(-67.61 536.646 446.7847)" fill="#a02373" d="M535.58 446.52h2.15v.54h-2.15z"/><path fill="#a02373" d="M528.1 447.96h8.12l1.36 1.37-1.36 1.37h-8.12v.54h8.34l1.9-1.91-1.9-1.91h-8.34v.54z"/><path fill="#a02373" d="M528.8 446.12h-4.84l-3.19 3.21 3.19 3.21h4.84v.54h-5.06l-3.73-3.75 3.73-3.75h5.06v.54z"/><path fill="#a02373" d="M520.39 449.06h2.58v.54h-2.58z"/><path transform="rotate(-67.61 524.2956 451.7748)" fill="#a02373" d="M523.2 451.51h2.15v.54h-2.15z"/><path transform="rotate(-22.38 524.371 446.8476)" fill="#a02373" d="M524.01 445.71h.54v2.15h-.54z"/><path fill="#a02373" d="M528.8 447.96h-4.08l-1.36 1.37 1.36 1.37h4.08v.54h-4.3l-1.9-1.91 1.9-1.91h4.3v.54z"/></g></g><path fill="#9fdae3" opacity=".4" d="M517.51 441.79h82.95v15.32h-82.95z"/><path fill="#fde9f1" stroke="#a02373" stroke-miterlimit="10" d="M604.55 460.43v-21.19l-3.6 1.43v17.76l3.6 2z"/><path fill="#e9b7d5" stroke="#a02373" stroke-miterlimit="10" d="M513.41 439.24v21.19l3.6-1.43v-17.77l-3.6-1.99z"/><path fill="#fff" d="M517.51 441.79h82.88v1.68h-82.88z"/><path fill="#ebb8d5" stroke="#a02373" stroke-miterlimit="10" d="M565.6 229.79l-8.32 3.93v19.97l8.32 4.8"/><path fill="#ee2a7b" stroke="#a02373" stroke-miterlimit="10" d="M696.79 295.07h-16.03"/><path fill="#544b9f" d="M680.76 295.07h46.56V192.69H565.6v102.38h18.22"/><path fill="#fff" stroke="#491246" stroke-miterlimit="10" d="M574.23 202.94l1.63-1.62 1.63 1.62v5.85l-1.63 1.62-1.63-1.62v-5.85zM579.32 202.94l1.63-1.62 1.62 1.62v5.85l-1.62 1.62-1.63-1.62v-5.85zM584.4 202.94l1.63-1.62 1.63 1.62v5.85l-1.63 1.62-1.63-1.62v-5.85zM589.49 202.94l1.63-1.62 1.63 1.62v5.85l-1.63 1.62-1.63-1.62v-5.85z"/><path fill="#ee2c7b" stroke="#491246" stroke-miterlimit="10" d="M594.58 202.94l1.63-1.62 1.63 1.62v5.85l-1.63 1.62-1.63-1.62v-5.85zM599.67 202.94l1.63-1.62 1.63 1.62v5.85l-1.63 1.62-1.63-1.62v-5.85zM604.76 202.94l1.63-1.62 1.63 1.62v5.85l-1.63 1.62-1.63-1.62v-5.85z"/><g id="meteors" clip-path="url(#game-board-mask)" fill="#9589c2" stroke="#491246" stroke-miterlimit="10"><path id="illustration__game-meteor-md-3" d="M648.59 209.65h-5.71l-2.86 4.95 2.86 4.94h5.71l2.85-4.94-2.85-4.95z"/><path id="illustration__game-meteor-sm-1" d="M647.09 233.71h-3.36l-1.69 2.91 1.69 2.91h3.36l1.68-2.91-1.68-2.91z"/><path id="illustration__game-meteor-l-2" d="M596.11 226.93l-9-4.56-8.45 5.52.56 10.07 9 4.56 8.44-5.52-.55-10.07z"/><path id="illustration__game-meteor-md-1" d="M712.4 251.82h-5.71l-2.85 4.94 2.85 4.95h5.71l2.86-4.95-2.86-4.94z"/><path id="illustration__game-meteor-xl-2" d="M597.69 278.69l-1.76-14.52-13.45-5.74-11.7 8.79 1.76 14.52 13.46 5.73 11.69-8.78z"/><path id="illustration__game-meteor-xl-1" d="M700.48 300.8l-1.75-14.52-13.46-5.73-11.69 8.78 1.75 14.52 13.46 5.74 11.69-8.79z"/><path id="illustration__game-meteor-l-1" d="M706.96 208.34l-9-4.55-8.44 5.51.55 10.07 9 4.56 8.45-5.52-.56-10.07z"/><path id="illustration__game-meteor-md-2" d="M692.71 238.23l-3.31-4.66-5.68.54-2.37 5.2 3.31 4.65 5.68-.54 2.37-5.19z"/></g><path fill="#fde9f1" stroke="#a02373" stroke-miterlimit="10" d="M561.33 255.94v-23.83l-4.05 1.61v19.97l4.05 2.25z"/><path fill="#fff" d="M517.57 235.46h38.67v1.68h-38.67zM806.83 208.09a5.16 5.16 0 0 0-2.62.7 2.45 2.45 0 0 0 1.21 4.59h2.83a2.45 2.45 0 0 0 1.37-4.49 5.2 5.2 0 0 0-2.79-.8z"/><path d="M727.32 192.69v102.38H565.6V192.69h161.72m1-1H564.6v104.38h163.72V191.69z" fill="#491245"/><path fill="#fff" opacity=".06" d="M665.08 193.15l-99.07 81.95v-24.24l69.7-57.74 29.37.03zM686.04 193.13l-120.03 98.63v-6.49l112.25-92.17 7.78.03z"/></svg>
