<svg id="Layer_1" data-name="Layer 1" xmlns="http://www.w3.org/2000/svg" width="43.16" height="92.61" viewBox="0 0 43.16 92.61"><title>Artboard 3</title><polygon points="16.41 69.93 16.41 78.88 18.29 78.88 18.29 70.7 16.41 69.93" style="fill:#fde9f1"/><polygon points="20.67 67.86 20.67 65.21 16.67 69.19 18.55 69.97 20.67 67.86" style="fill:#fde9f1"/><polygon points="23.83 70.65 23.83 78.88 25.71 78.88 25.71 69.87 23.83 70.65" style="fill:#ee2a7b"/><polygon points="23.53 69.92 25.41 69.15 21.45 65.21 21.45 67.86 23.53 69.92" style="fill:#ee2a7b"/><polygon points="21.06 68.57 19.07 70.55 19.07 78.88 23.05 78.88 23.05 70.55 21.06 68.57" style="fill:#ebb8d5"/><polygon points="16.41 69.93 15.79 69.67 16.08 68.95 16.67 69.19 20.67 65.21 20.67 64.27 21.45 64.27 21.45 65.21 25.41 69.15 25.89 68.95 26.19 69.67 25.71 69.87 25.71 78.88 26.49 78.88 26.49 69.13 21.06 63.72 15.63 69.13 15.63 78.88 16.41 78.88 16.41 69.93" style="fill:#a02373"/><polygon points="21.06 67.47 21.45 67.86 21.45 65.21 21.45 64.27 20.67 64.27 20.67 65.21 20.67 67.86 21.06 67.47" style="fill:#a02373"/><polygon points="23.83 70.22 23.83 70.65 25.71 69.87 26.19 69.67 25.89 68.95 25.41 69.15 23.53 69.92 23.83 70.22" style="fill:#a02373"/><polygon points="18.29 70.22 18.55 69.97 16.67 69.19 16.08 68.95 15.79 69.67 16.41 69.93 18.29 70.7 18.29 70.22" style="fill:#a02373"/><polygon points="23.83 70.22 23.53 69.92 21.45 67.86 21.06 67.47 20.67 67.86 18.55 69.97 18.29 70.22 18.29 70.7 18.29 78.88 19.07 78.88 19.07 70.55 21.06 68.57 23.05 70.55 23.05 78.88 23.83 78.88 23.83 70.65 23.83 70.22" style="fill:#a02373"/><polygon points="21.05 2.9 2.18 21.67 2.18 28.33 2.18 39.6 2.18 42.8 21.05 61.57 39.93 42.8 39.93 39.6 39.93 28.33 39.93 21.67 21.05 2.9" style="fill:#da1c5c;stroke:#7c3990;stroke-miterlimit:10;stroke-width:0.844885123684936px"/><polyline points="21.05 2.9 2.18 21.67 2.18 28.33 2.18 39.6 2.18 42.8 21.05 61.57" style="fill:#f6ebf4;stroke:#7d398f;stroke-miterlimit:10;stroke-width:0.844885123684936px"/><line x1="28.93" y1="38.13" x2="39.93" y2="42.8" style="fill:none;stroke:#7d398f;stroke-miterlimit:10;stroke-width:0.844885123684936px"/><line x1="21.06" y1="45.96" x2="21.05" y2="61.57" style="fill:none;stroke:#7d398f;stroke-miterlimit:10;stroke-width:0.844885123684936px"/><line x1="13.17" y1="38.12" x2="2.18" y2="42.8" style="fill:none;stroke:#7d398f;stroke-miterlimit:10;stroke-width:0.844885123684936px"/><line x1="28.93" y1="26.34" x2="39.93" y2="21.67" style="fill:none;stroke:#7d398f;stroke-miterlimit:10;stroke-width:0.844885123684936px"/><line x1="21.06" y1="18.51" x2="21.05" y2="2.9" style="fill:none;stroke:#7d398f;stroke-miterlimit:10;stroke-width:0.844885123684936px"/><line x1="13.17" y1="26.35" x2="2.18" y2="21.67" style="fill:none;stroke:#7d398f;stroke-miterlimit:10;stroke-width:0.844885123684936px"/><polygon points="21.06 18.51 13.18 26.35 13.18 28.33 13.18 36.85 13.18 38.12 21.06 45.96 28.93 38.13 28.93 36.85 28.93 28.33 28.93 26.34 21.06 18.51" style="fill:#e6cbe2;stroke:#7d398f;stroke-miterlimit:10;stroke-width:0.844885123684936px"/><polyline points="13.18 74.41 13.18 81.95 21.05 89.79 28.93 81.95 28.93 74.41" style="fill:#bd92c2;stroke:#7d398f;stroke-miterlimit:10;stroke-width:0.844885123684936px"/><polyline points="13.18 74.41 13.18 81.95 21.05 89.79 21.07 81.95 21.07 74.41" style="fill:#f5ebf4;stroke:#7d398f;stroke-linejoin:bevel;stroke-width:0.844885123684936px"/><polyline points="24.34 74.41 24.34 80 21.06 83.27 17.76 80 17.76 74.41" style="fill:#e6cbe2;stroke:#7d398f;stroke-miterlimit:10;stroke-width:0.844885123684936px"/><line x1="24.35" y1="80" x2="28.93" y2="81.95" style="fill:none;stroke:#7d398f;stroke-miterlimit:10;stroke-width:0.844885123684936px"/><line x1="21.06" y1="83.27" x2="21.05" y2="89.79" style="fill:none;stroke:#7d398f;stroke-miterlimit:10;stroke-width:0.844885123684936px"/><line x1="17.76" y1="80" x2="13.17" y2="81.95" style="fill:none;stroke:#7d398f;stroke-miterlimit:10;stroke-width:0.844885123684936px"/><line x1="13.17" y1="74.41" x2="28.93" y2="74.41" style="fill:none;stroke:#7d398f;stroke-linecap:square;stroke-linejoin:bevel;stroke-width:0.844885123684936px"/><line x1="16.07" y1="74.41" x2="15.97" y2="56.55" style="fill:none;stroke:#7d398f;stroke-miterlimit:10;stroke-width:0.844885123684936px"/><line x1="26.04" y1="74.41" x2="26.21" y2="56.48" style="fill:none;stroke:#7d398f;stroke-miterlimit:10;stroke-width:0.844885123684936px"/><line x1="28.93" y1="74.41" x2="32.72" y2="49.97" style="fill:none;stroke:#7d398f;stroke-miterlimit:10;stroke-width:0.844885123684936px"/><line x1="13.17" y1="74.41" x2="9.39" y2="49.97" style="fill:none;stroke:#7d398f;stroke-miterlimit:10;stroke-width:0.844885123684936px"/><polygon points="21.05 2.9 2.18 21.67 2.18 28.33 2.18 39.6 2.18 42.8 21.05 61.57 39.93 42.8 39.93 39.6 39.93 28.33 39.93 21.67 21.05 2.9" style="fill:#da1c5c;stroke:#7c3990;stroke-miterlimit:10;stroke-width:0.844885123684936px"/><polyline points="21.05 2.9 2.18 21.67 2.18 28.33 2.18 39.6 2.18 42.8 21.05 61.57" style="fill:#f6ebf4;stroke:#7d398f;stroke-miterlimit:10;stroke-width:0.844885123684936px"/><line x1="28.93" y1="38.13" x2="39.93" y2="42.8" style="fill:none;stroke:#7d398f;stroke-miterlimit:10;stroke-width:0.844885123684936px"/><line x1="21.06" y1="45.96" x2="21.05" y2="61.57" style="fill:none;stroke:#7d398f;stroke-miterlimit:10;stroke-width:0.844885123684936px"/><line x1="13.17" y1="38.12" x2="2.18" y2="42.8" style="fill:none;stroke:#7d398f;stroke-miterlimit:10;stroke-width:0.844885123684936px"/><line x1="28.93" y1="26.34" x2="39.93" y2="21.67" style="fill:none;stroke:#7d398f;stroke-miterlimit:10;stroke-width:0.844885123684936px"/><line x1="21.06" y1="18.51" x2="21.05" y2="2.9" style="fill:none;stroke:#7d398f;stroke-miterlimit:10;stroke-width:0.844885123684936px"/><line x1="13.17" y1="26.35" x2="2.18" y2="21.67" style="fill:none;stroke:#7d398f;stroke-miterlimit:10;stroke-width:0.844885123684936px"/><polygon points="21.06 18.51 13.18 26.35 13.18 28.33 13.18 36.85 13.18 38.12 21.06 45.96 28.93 38.13 28.93 36.85 28.93 28.33 28.93 26.34 21.06 18.51" style="fill:#e6cbe2;stroke:#7d398f;stroke-miterlimit:10;stroke-width:0.844885123684936px"/></svg>