<svg data-name="Layer 1" xmlns="http://www.w3.org/2000/svg" width="43.16" height="92.61" viewBox="0 0 43.16 92.61"><path fill="#fde9f1" d="M16.41 69.93v8.95h1.88V70.7l-1.88-.77zm4.26-2.07v-2.65l-4 3.98 1.88.78 2.12-2.11z"/><path fill="#ee2a7b" d="M23.83 70.65v8.23h1.88v-9.01l-1.88.78zm-.3-.73l1.88-.77-3.96-3.94v2.65l2.08 2.06z"/><path fill="#ebb8d5" d="M21.06 68.57l-1.99 1.98v8.33h3.98v-8.33l-1.99-1.98z"/><path fill="#a02373" d="M16.41 69.93l-.62-.26.29-.72.59.24 4-3.98v-.94h.78v.94l3.96 3.94.48-.2.3.72-.48.2v9.01h.78v-9.75l-5.43-5.41-5.43 5.41v9.75h.78v-8.95z"/><path fill="#a02373" d="M21.06 67.47l.39.39v-3.59h-.78v3.59l.39-.39zm2.77 2.75v.43l1.88-.78.48-.2-.3-.72-.48.2-1.88.77.3.3zm-5.54 0l.26-.25-1.88-.78-.59-.24-.29.72.62.26 1.88.77v-.48z"/><path fill="#a02373" d="M23.83 70.22l-.3-.3-2.08-2.06-.39-.39-.39.39-2.12 2.11-.26.25v8.66h.78v-8.33l1.99-1.98 1.99 1.98v8.33h.78v-8.66z"/><path fill="#da1c5c" stroke="#7c3990" stroke-miterlimit="10" stroke-width=".845" d="M21.05 2.9L2.18 21.67V42.8l18.87 18.77L39.93 42.8V21.67L21.05 2.9z"/><path fill="#f6ebf4" stroke="#7d398f" stroke-miterlimit="10" stroke-width=".845" d="M21.05 2.9L2.18 21.67V42.8l18.87 18.77"/><path fill="none" stroke="#7d398f" stroke-miterlimit="10" stroke-width=".845" d="M28.93 38.13l11 4.67m-18.87 3.16l-.01 15.61m-7.88-23.45L2.18 42.8m26.75-16.46l11-4.67m-18.87-3.16L21.05 2.9m-7.88 23.45L2.18 21.67"/><path fill="#e6cbe2" stroke="#7d398f" stroke-miterlimit="10" stroke-width=".845" d="M21.06 18.51l-7.88 7.84v11.77l7.88 7.84 7.87-7.83V26.34l-7.87-7.83z"/><path fill="#bd92c2" stroke="#7d398f" stroke-miterlimit="10" stroke-width=".845" d="M13.18 74.41v7.54l7.87 7.84 7.88-7.84v-7.54"/><path fill="#f5ebf4" stroke="#7d398f" stroke-linejoin="bevel" stroke-width=".845" d="M13.18 74.41v7.54l7.87 7.84.02-7.84v-7.54"/><path fill="#e6cbe2" stroke="#7d398f" stroke-miterlimit="10" stroke-width=".845" d="M24.34 74.41V80l-3.28 3.27-3.3-3.27v-5.59"/><path fill="none" stroke="#7d398f" stroke-miterlimit="10" stroke-width=".845" d="M24.35 80l4.58 1.95m-7.87 1.32l-.01 6.52M17.76 80l-4.59 1.95"/><path fill="none" stroke="#7d398f" stroke-linecap="square" stroke-linejoin="bevel" stroke-width=".845" d="M13.17 74.41h15.76"/><path fill="none" stroke="#7d398f" stroke-miterlimit="10" stroke-width=".845" d="M16.07 74.41l-.1-17.86m10.07 17.86l.17-17.93m2.72 17.93l3.79-24.44M13.17 74.41L9.39 49.97"/><path fill="#da1c5c" stroke="#7c3990" stroke-miterlimit="10" stroke-width=".845" d="M21.05 2.9L2.18 21.67V42.8l18.87 18.77L39.93 42.8V21.67L21.05 2.9z"/><path fill="#f6ebf4" stroke="#7d398f" stroke-miterlimit="10" stroke-width=".845" d="M21.05 2.9L2.18 21.67V42.8l18.87 18.77"/><path fill="none" stroke="#7d398f" stroke-miterlimit="10" stroke-width=".845" d="M28.93 38.13l11 4.67m-18.87 3.16l-.01 15.61m-7.88-23.45L2.18 42.8m26.75-16.46l11-4.67m-18.87-3.16L21.05 2.9m-7.88 23.45L2.18 21.67"/><path fill="#e6cbe2" stroke="#7d398f" stroke-miterlimit="10" stroke-width=".845" d="M21.06 18.51l-7.88 7.84v11.77l7.88 7.84 7.87-7.83V26.34l-7.87-7.83z"/></svg>