<svg xmlns="http://www.w3.org/2000/svg" width="682" height="890.85"><defs><linearGradient id="linear-gradient" x1="16.63" y1="797.85" x2="663.08" y2="797.85" gradientUnits="userSpaceOnUse"><stop offset="0" stop-color="#3ff2fb"/><stop offset="1" stop-color="#dcf1f4"/></linearGradient><linearGradient id="Fading_Sky" x1="37.7" y1="706.34" x2="642.64" y2="706.34" gradientUnits="userSpaceOnUse"><stop offset="0" stop-color="#2484c6"/><stop offset="1" stop-color="#2484c6" stop-opacity="0"/></linearGradient><linearGradient id="linear-gradient-2" x1="159.88" y1="871.26" x2="516.07" y2="572.38" gradientUnits="userSpaceOnUse"><stop offset="0" stop-color="#007a48"/><stop offset=".6" stop-color="#cbdb2a" stop-opacity="0"/></linearGradient></defs><g style="isolation:isolate"><g id="ILLO_7" data-name="ILLO 7"><path id="water-gradient" d="M16.63 725.65s38.58 144.4 329.18 144.4c270.69 0 317.27-144.4 317.27-144.4z" fill="url(#linear-gradient)"/><path fill="#da1c5c" d="M468.08 444l14 .01 4.88 4.89 4.95-44.62h-33.7l5.68 43.9 4.19-4.18z"/><path fill="#da1c5c" stroke="#7c3990" stroke-miterlimit="10" d="M489.89 399.76h-29.66l-7.08-74.58h42.8l-6.06 74.58z"/><path fill="#e6cbe2" stroke="#7d3990" stroke-miterlimit="10" d="M356.5 277.76H404v23.11h-47.5zM356.5 282.98l47.49-2.02M356.5 286.7l47.49-2.03M356.5 290.41l47.49-2.02"/><path transform="rotate(-90 313.115 316.495)" fill="#e6cbe2" stroke="#7d3990" stroke-miterlimit="10" d="M298.11 309.81h30v13.38h-30z"/><path fill="#e6cbe2" stroke="#7d3990" stroke-miterlimit="10" d="M309.32 331.49l-.66-30M312.64 331.49l-.65-30M315.97 331.49l-.66-30"/><path transform="rotate(90 447.375 316.495)" fill="#e6cbe2" stroke="#7d3990" stroke-miterlimit="10" d="M432.38 309.81h30v13.38h-30z"/><path fill="#e6cbe2" stroke="#7d3990" stroke-miterlimit="10" d="M451.17 301.49l.65 30M447.85 301.49l.65 30M444.52 301.49l.66 30"/><path transform="rotate(180 338.175 563.48)" fill="#e6cbe2" stroke="#7d3990" stroke-miterlimit="10" d="M323.17 556.79h30v13.38h-30z"/><path fill="#e6cbe2" stroke="#7d3990" stroke-miterlimit="10" d="M353.17 567.28l-30 .65M353.17 563.95l-30 .66M353.17 560.63l-30 .65"/><path transform="rotate(-135 345.2135 467.8308)" fill="#e6cbe2" stroke="#7d3990" stroke-miterlimit="10" d="M334.34 454.29h21.75v27.08h-21.75z"/><path fill="#e6cbe2" stroke="#7d3990" stroke-miterlimit="10" d="M346.09 482.33l-15.84-14.91M348.82 479.6l-15.84-14.91M351.55 476.88l-15.84-14.92M354.28 474.15l-15.84-14.92M357.01 471.42l-15.84-14.92M359.74 468.69l-15.84-14.92"/><path transform="rotate(-45 415.9129 467.8332)" fill="#e6cbe2" stroke="#7d3990" stroke-miterlimit="10" d="M405.04 454.29h21.75v27.08h-21.75z"/><path fill="#e6cbe2" stroke="#7d3990" stroke-miterlimit="10" d="M415.03 482.33l15.84-14.91M412.3 479.6l15.85-14.91M409.57 476.88l15.85-14.92M406.85 474.15l15.84-14.92M404.12 471.42l15.84-14.92M401.39 468.69l15.84-14.92M139.67 301.81h11.83v373.88h-11.83zM247.61 301.81h13.26v373.88h-13.26z"/><path d="M200.42 343.43l46.83-32.85h.36v-.26l.29-.2-.29-.41v-.13h-.1l-.19-.28-.39.28h-94.76l-.39-.28-.19.28h-.1v.13l-.28.41.28.2v.26h.36l46.83 32.85-47.47 33.31.28.41-.28.41.28.2v.24h.36l46.83 32.85L152 443.61l-.24-.17-.19.27h-.1v.14l-.18.26-.1.07.1.08.18.25v.12h.09l.2.29.24-.17 46.66 32.74-47.47 33.31.28.41-.28.41.28.2v.25h.36L198.68 545 152 577.75l-.24-.17-.19.27h-.1v.15l-.18.26-.1.07.1.07.18.26v.12h.09l.2.29.24-.07 46.66 32.74-46.81 32.84h-.38v.27l-.28.2.28.41v.12h.09l.2.29.41-.29h94.72l.41.29.2-.29h.09v-.12l.29-.41-.29-.2v-.27h-.38l-46.81-32.84L247.08 579l.24.17.2-.29h.09v-.12l.18-.26.11-.07-.11-.07-.18-.26v-.14h-.1l-.19-.27-.24.17L200.42 545l46.83-32.86h.36v-.25l.29-.2-.29-.41.29-.41-47.48-33.31 46.66-32.74.24.17.2-.29h.09v-.12l.18-.25.11-.08-.11-.07-.18-.26v-.14h-.1l-.19-.27-.24.17-46.66-32.74L247.25 378h.36v-.26l.29-.2-.29-.41.29-.41zm-46.83-32.85h91.92l-46 32.24zM246.54 377h-94l47-33zm-1 267.53h-91.92l45.93-32.23zm-91.9-65.7h91.92l-46 32.25zm91.9-1h-91.93l45.94-32.23zm-45.99-33.43l-46-32.25h91.92zm47-33.25h-94l47-33zm-92.95-66.44h91.92l-46 32.25zm91.9-1h-91.88l45.93-32.23zm-45.94-33.45l-46-32.24h91.92z" fill="#7d3990"/><path fill="#ee2a7b" stroke="#7d3990" stroke-miterlimit="10" d="M128.52 285.01H271.6v17.36H128.52z"/><path d="M326.93 293.69h106.63a8.55 8.55 0 0 1 8.55 8.55v98.52H318.38v-98.52a8.55 8.55 0 0 1 8.55-8.55z" fill="#c51164"/><path d="M326.93 293.69h53.32v107.06h-61.87v-98.51a8.55 8.55 0 0 1 8.55-8.55z" fill="#da1c5c" stroke="#7c3990" stroke-miterlimit="10"/><path fill="#f26d79" stroke="#96388f" stroke-miterlimit="10" d="M357.24 472.69h46.01l18.8-17.06v-29.57h-83.61v29.57l18.8 17.06zM422.05 442.58h-83.61"/><path fill="#ee2a7b" stroke="#7d3990" stroke-miterlimit="10" d="M441.33 412.21H319.16l11.14 15.88h99.89l11.14-15.88z"/><path fill="#7d3990" stroke="#7d3990" stroke-miterlimit="10" d="M128.41 295.75l-2.06-2.06 2.06-2.07"/><path transform="rotate(-45 138.5385 293.6855)" fill="#7d3990" stroke="#7d3990" stroke-miterlimit="10" d="M137.08 292.23H140v2.92h-2.92z"/><path transform="rotate(-45 155.737 293.6817)" fill="#7d3990" stroke="#7d3990" stroke-miterlimit="10" d="M154.28 292.23h2.92v2.92h-2.92z"/><path transform="rotate(-45 174.5706 293.6905)" fill="#7d3990" stroke="#7d3990" stroke-miterlimit="10" d="M173.11 292.23h2.92v2.92h-2.92z"/><path transform="rotate(-45 191.769 293.6867)" fill="#7d3990" stroke="#7d3990" stroke-miterlimit="10" d="M190.31 292.23h2.92v2.92h-2.92z"/><path transform="rotate(-45 208.9674 293.6829)" fill="#7d3990" stroke="#7d3990" stroke-miterlimit="10" d="M207.51 292.23h2.92v2.92h-2.92z"/><path transform="rotate(-45 226.1608 293.6911)" fill="#7d3990" stroke="#7d3990" stroke-miterlimit="10" d="M224.71 292.23h2.92v2.92h-2.92z"/><path transform="rotate(-45 243.3713 293.6923)" fill="#7d3990" stroke="#7d3990" stroke-miterlimit="10" d="M241.91 292.23h2.92v2.92h-2.92z"/><path transform="rotate(-45 260.5697 293.6885)" fill="#7d3990" stroke="#7d3990" stroke-miterlimit="10" d="M259.11 292.23h2.92v2.92h-2.92z"/><path fill="#7d3990" stroke="#7d3990" stroke-miterlimit="10" d="M271.7 291.62l2.06 2.07-2.06 2.06"/><path fill="#b87bb5" d="M380.6 202.35l10.89-10.83v-11.24h-21.78v11.24l10.89 10.83z"/><path fill="#e6cae2" stroke="#7c3990" stroke-miterlimit="10" d="M380.6 180.28h-10.89v11.24l10.89 10.83"/><path fill="#bd92c2" stroke="#7d3990" stroke-miterlimit="10" d="M395.02 115.02H175.64l-14.73 14.81 14.73 14.8h219.38l14.73-14.8-14.73-14.81z"/><path fill="#975f99" stroke="#7e3a8f" stroke-linejoin="bevel" d="M395.17 115.02l14.72 14.81-14.72 14.8-3.67-8.62 6.15-6.18-6.15-6.19 3.67-8.62z"/><path fill="#f5ebf4" stroke="#7e3a8f" stroke-linejoin="bevel" d="M175.64 115.02l-14.73 14.81 14.73 14.8 3.66-8.62-6.14-6.18 6.14-6.19-3.66-8.62z"/><path fill="none" stroke="#7d3990" stroke-miterlimit="10" d="M179.3 136.01l-3.66 8.62M160.91 129.83h12.25M179.3 123.65l-3.66-8.63M391.36 136.01l3.66 8.62M397.5 129.83h12.25M391.36 123.65l3.66-8.63"/><path fill="#e6cbe2" stroke="#7d3990" stroke-miterlimit="10" d="M391.36 123.64H179.3l-6.14 6.19 6.14 6.18h212.06l6.14-6.18-6.14-6.19z"/><path fill="#fff" stroke="#7c3990" stroke-miterlimit="10" d="M196.82 142.26h4.9v142.75h-4.9zM247.99 142.26h5.49v142.38h-5.49z"/><path fill="none" stroke="#7d3990" stroke-miterlimit="10" d="M201.72 145.69h46.27"/><path d="M225.82 159.51L248.25 146l-.52-.85-22.88 13.81L202 145.11l-.51.85 22.43 13.55-22.43 13.54.26.43-.26.43.26.15v.07h.11l22.06 13.32-22 13.32h-.12v.07l-.26.16.16.27-.16.27.26.16v.07h.11l22.06 13.32-22.43 13.54.26.43-.26.43.26.15v.07h.11L223.89 243l-22 13.32h-.12v.07l-.26.16.16.27-.16.27.26.16v.07h.11l22.06 13.32-22.43 13.54.51.86 22.88-13.82 22.88 13.82.52-.86-22.43-13.54 22.06-13.32h.07v-.07l.26-.16-.17-.27.17-.27-.26-.16v-.07h-.12L225.82 243l22.06-13.32h.12v-.07l.26-.15-.26-.43.26-.43-22.43-13.54 22.06-13.32h.11v-.07l.26-.16-.17-.27.17-.27-.26-.16v-.07h-.12l-22.05-13.32 22.06-13.32h.11v-.07l.26-.15-.26-.43.26-.43zm20.63 13.62h-43.19l21.59-13zm-42.69 84.22H246l-21.1 12.74zm42.18-1h-42.17l21.08-12.73zm-21.09-13.9l-21.09-12.74H246zm21.6-13.74h-43.19l21.59-13zm-42.69-26.94H246l-21.1 12.73zm42.18-1h-42.17L224.85 188zm-21.09-13.9l-21.09-12.74H246z" fill="#7d3990"/><path fill="#da1c5c" stroke="#7c3990" stroke-miterlimit="10" d="M231.46 88.86h-34.64v56.67h56.67v-26.67l-22.03-30z"/><path fill="#d1ecf2" stroke="#7c3990" stroke-miterlimit="10" d="M243.09 118.16h-38.62V95.91h22.94l15.68 22.25z"/><path fill="#e6cbe2" stroke="#7d3990" stroke-miterlimit="10" d="M206.12 125.69h10.05"/><path fill="#68c180" d="M611.84 686.52H70.22L37.7 725.66l604.94.5-30.8-39.64z"/><path style="mix-blend-mode:overlay" fill="url(#Fading_Sky)" d="M611.84 686.52H70.22L37.7 725.66l604.94.5-30.8-39.64z"/><path style="mix-blend-mode:overlay" fill="url(#linear-gradient-2)" d="M611.84 686.52H70.22L37.7 725.66l604.94.5-30.8-39.64z"/><path style="mix-blend-mode:multiply" fill="#39b54a" d="M611.84 686.52H70.22L37.7 725.66l604.94.5-30.8-39.64z"/><path style="mix-blend-mode:multiply" fill="#0fa04a" opacity=".25" d="M611.84 686.52H70.22l-32.21 39.14 604.63.5-30.8-39.64z"/><g opacity=".55" fill="#0fa049"><path d="M126.94 695.8a6.86 6.86 0 0 1-13.72 0M147.13 695.8a6.86 6.86 0 0 1-13.72 0M167.32 695.8a6.86 6.86 0 0 1-13.72 0M187.51 695.8a6.86 6.86 0 0 1-13.71 0M207.71 695.8a6.86 6.86 0 0 1-13.72 0M227.9 695.8a6.86 6.86 0 0 1-13.72 0M248.09 695.8a6.86 6.86 0 0 1-13.72 0M268.28 695.8a6.86 6.86 0 0 1-13.72 0M288.47 695.8a6.86 6.86 0 0 1-13.71 0M308.66 695.8a6.86 6.86 0 0 1-13.71 0M328.86 695.8a6.86 6.86 0 0 1-13.72 0M349.05 695.8a6.86 6.86 0 0 1-13.72 0M369.24 695.8a6.86 6.86 0 0 1-13.72 0M389.43 695.8a6.86 6.86 0 0 1-13.72 0M409.62 695.8a6.86 6.86 0 0 1-13.71 0M429.82 695.8a6.86 6.86 0 0 1-13.72 0M450 695.8a6.86 6.86 0 0 1-13.72 0M470.2 695.8a6.86 6.86 0 0 1-13.72 0M490.39 695.8a6.86 6.86 0 0 1-13.72 0M510.58 695.8a6.86 6.86 0 0 1-13.71 0M530.77 695.8a6.86 6.86 0 0 1-13.71 0M551 695.8a6.86 6.86 0 0 1-13.72 0M571.16 695.8a6.86 6.86 0 0 1-13.72 0M591.35 695.8a6.86 6.86 0 0 1-13.72 0M611.54 695.8a6.86 6.86 0 0 1-13.72 0M116.65 709.81a6.86 6.86 0 0 1-13.72 0M136.84 709.81a6.86 6.86 0 1 1-13.71 0M85.76 695.8a6.86 6.86 0 0 1-13.72 0M106 695.8a6.86 6.86 0 0 1-13.71 0M75.47 709.81a6.86 6.86 0 1 1-13.71 0M95.67 709.81a6.86 6.86 0 0 1-13.72 0M157 709.81a6.86 6.86 0 1 1-13.72 0M177.23 709.81a6.86 6.86 0 1 1-13.72 0M197.42 709.81a6.86 6.86 0 1 1-13.72 0M217.61 709.81a6.86 6.86 0 0 1-13.72 0M237.8 709.81a6.86 6.86 0 1 1-13.71 0M258 709.81a6.86 6.86 0 1 1-13.71 0M278.19 709.81a6.86 6.86 0 0 1-13.72 0M298.38 709.81a6.86 6.86 0 0 1-13.72 0M318.57 709.81a6.86 6.86 0 0 1-13.72 0M338.76 709.81a6.86 6.86 0 1 1-13.71 0M359 709.81a6.86 6.86 0 1 1-13.71 0M379.15 709.81a6.86 6.86 0 1 1-13.72 0M399.34 709.81a6.86 6.86 0 1 1-13.72 0M419.53 709.81a6.86 6.86 0 1 1-13.72 0M439.72 709.81a6.86 6.86 0 1 1-13.72 0M459.91 709.81a6.86 6.86 0 1 1-13.71 0M480.11 709.81a6.86 6.86 0 0 1-13.72 0M500.3 709.81a6.86 6.86 0 0 1-13.72 0M520.49 709.81a6.86 6.86 0 1 1-13.72 0M540.68 709.81a6.86 6.86 0 0 1-13.72 0M560.87 709.81a6.86 6.86 0 1 1-13.71 0M581.06 709.81a6.86 6.86 0 1 1-13.71 0M601.26 709.81a6.86 6.86 0 1 1-13.72 0M621.83 709.81a6.86 6.86 0 0 1-13.72 0" style="mix-blend-mode:multiply"/></g><path fill="#e6cbe2" stroke="#7d3990" stroke-miterlimit="10" d="M313.73 400.75h133.03v13.55H313.73z"/><g id="claw"><path d="M483.33 467l12.34 11.37.37 6.55-4.38 4.89-6.55.37-2.41 6.82 12.12-.67 8.1-9.05-.67-12.13-16.5-15.09z" fill="#c093c3"/><path d="M486.32 459.46l16.5 15.09.28.59.68 12.13-.22.62-8.1 9.05-.59.28-12.12.68-.86-1.14 2.41-6.89.77-.57 6.19-.34 3.9-4.36-.33-5.84-12.07-11.14-.23-.92 2.41-6.89zm15.09 16.13l-15.28-14-1.8 5.14 11.91 11 .29.6.36 6.54-.21.62-4.38 4.89-.59.29-6 .33-1.8 5.13 10.49-.58 7.63-8.52z" fill="#7c3990"/><path d="M464.37 460.1l-16.49 15.09-.68 12.13 8.1 9.05 12.12.67-2.42-6.88-6.55-.37-4.37-4.89.36-6.55L466.79 467z" fill="#c093c3"/><path d="M465.18 459.81l2.42 6.89-.24.92-12.07 11.14-.29 5.84 3.9 4.36 6.2.34.76.57 2.41 6.89-.86 1.14-12.12-.68-.59-.28-8.1-9.05-.22-.62.68-12.13.28-.59 16.5-15.09zM448.08 487l7.62 8.52 10.49.58-1.8-5.13-6-.33-.59-.29-4.37-4.89-.22-.62.36-6.54.29-.6 11.91-11-1.8-5.14-15.28 14z" fill="#7c3990"/><path fill="#e6cae2" d="M468.05 477.8l14 .01 9.9-9.89.02-14-9.89-9.91-14-.01-9.91 9.89-.01 14 9.89 9.91z"/><path d="M467.72 443.13h14.72l10.39 10.42v14.72l-10.42 10.4H467.7l-10.4-10.41v-14.73zm14 1.75h-13.28l-9.4 9.38v13.28l9.39 9.4h13.28l9.4-9.38v-13.28z" fill="#7c3990"/><path fill="#b87bb5" d="M482.05 477.81l-14-.01-9.89-9.91.01-14 9.91-9.89 14 .01-2.68 6.45-.02 20.9 2.67 6.45z"/><path fill="#c093c3" d="M470.72 471.35l8.66.01 6.12-6.12.01-8.65-6.11-6.13-8.66-.01-6.12 6.12-.01 8.65 6.11 6.13z"/><path d="M487.54 448.25l4.93-44.47h-34.83l5.66 43.76-6 6v14.72l10.4 10.41h14.71l10.42-10.4v-14.71zm2.89 5.36l-4.71 1.95-5.3-5.3 2-4.72zm-11.61-4h-7.5l-1.94-4.72h11.4zm.22 1.74l5.6 5.61v7.94l-5.64 5.59h-7.94l-5.6-5.62v-7.93l5.62-5.61zm-20.26-46.55h32.57l-4.72 42.57-4.19-4.21h-14.72l-3.52 3.51zm9 40.75l2 4.72-5.31 5.29-4.71-2zm-8.78 9.64l4.72 2v7.49l-4.72 1.91zm.66 13l4.71-1.95 5.3 5.31-2 4.71zm9.66 8.74l1.95-4.71h7.5l1.95 4.72zm13-.65l-2-4.72 5.31-5.3 4.71 2zm8.74-9.66l-4.72-2v-7.49l4.72-1.95z" fill="#7c3990"/></g><path d="M358.27 349.78l1.45-4.7-4.61 1.73a11 11 0 1 0 3.16 3z" fill="#cf82aa" stroke="#663695" stroke-miterlimit="10"/><circle cx="349.31" cy="356.14" r="6.33" fill="#da1c5c" stroke="#7c3990" stroke-miterlimit="10"/><path d="M343.37 313.07l-4.63-1.66 1.52 4.68a11 11 0 1 0 3.11-3z" fill="#cf82aa" stroke="#663695" stroke-miterlimit="10"/><circle cx="349.31" cy="322.31" r="6.33" fill="#da1c5c" stroke="#7c3990" stroke-miterlimit="10"/><path fill="#da1c5c" stroke="#7c3990" stroke-miterlimit="10" d="M400.34 334.29v-23.95M405.76 334.29v-23.95M411.18 334.29v-23.95M416.59 334.29v-23.95M422.01 334.29v-23.95M338.62 390.09v-10.56M344.04 390.09v-10.56M349.46 390.09v-10.56M354.88 390.09v-10.56M360.29 390.09v-10.56"/><path transform="rotate(-90 396.24 361.59)" fill="#e6cbe2" d="M390.75 356.94h10.98v9.3h-10.98z"/><path transform="rotate(-90 427.685 361.475)" fill="#e6cbe2" d="M422.2 356.83h10.98v9.3H422.2z"/><path transform="rotate(-90 406.815 351.035)" fill="#618bc8" d="M401.32 345.81h10.98v10.45h-10.98z"/><path transform="rotate(-90 417.7 350.36)" fill="#da1c5c" d="M412.21 345.3h10.98v10.13h-10.98z"/><path transform="rotate(-90 406.79 361.12)" fill="#da1c5c" d="M401.3 356.21h10.98v9.82H401.3z"/><path transform="rotate(-90 412.04 356.1)" fill="none" stroke="#7c3990" stroke-miterlimit="10" d="M401.06 335.65h21.97v40.9h-21.97z"/><path fill="none" stroke="#7c3990" stroke-miterlimit="10" d="M401.32 367.08v-21.96M412.04 367.08v-21.96M422.76 367.08v-21.96M432.49 356.1h-40.9"/><path transform="rotate(-90 406.815 384.855)" fill="#e6cbe2" d="M401.32 379.63h10.98v10.45h-10.98z"/><path transform="rotate(-90 417.7 384.81)" fill="#da1c5c" d="M411.82 379.75h11.75v10.13h-11.75z"/><path transform="rotate(-90 412.04 384.81)" fill="none" stroke="#7c3990" stroke-miterlimit="10" d="M406.17 364.36h11.75v40.9h-11.75z"/><path fill="none" stroke="#7c3990" stroke-miterlimit="10" d="M401.32 390.69v-11.75M412.04 390.69v-11.75M422.76 390.69v-11.75"/><circle cx="475.06" cy="396.96" r="19.44" fill="#e6cbe2" stroke="#7d3990" stroke-miterlimit="10"/><path d="M481.12 378.5a25.86 25.86 0 0 1-15.43 35.5 19.43 19.43 0 1 0 15.43-35.48z" fill="#96388f" stroke="#96388f" stroke-miterlimit="10" opacity=".13"/><circle cx="474.94" cy="316.55" r="25.32" fill="#f16d90" stroke="#96388f" stroke-miterlimit="10"/><path d="M482.83 292.51a33.72 33.72 0 0 1-20.09 46.2 25.3 25.3 0 1 0 20.09-46.2z" fill="#96388f" stroke="#96388f" stroke-miterlimit="10" opacity=".13"/><path d="M433.56 293.19h-1.4L381.48 223a7.42 7.42 0 0 0-.43-14.76v-5.64L392 191.73v-11.95h-5.2v-35.15h-1v35.15h-10.39v-35.15h-1v35.15h-5.2v11.95l10.84 10.77v6.73h.5a6.42 6.42 0 0 1 .25 12.83l-.25-.34-.24.33a6.42 6.42 0 0 1-6.09-5.54l-1 .13a7.44 7.44 0 0 0 6.39 6.37l-50.55 70.17h-2.14a9.06 9.06 0 0 0-9.05 9.05v99h124.74v-99a9.06 9.06 0 0 0-9.05-9.04zm-63.35-112.41H391v10.53l-10.4 10.33-10.39-10.33zm10.34 42.65l50.37 69.76H330.3zm61.06 176.82H318.88v-98a8.06 8.06 0 0 1 8.05-8.05h106.63a8.06 8.06 0 0 1 8.05 8.05z" fill="#7c3990"/><circle cx="447.2" cy="407.4" r="2.04" fill="#c51164" stroke="#7c3990" stroke-miterlimit="10"/><circle cx="338.53" cy="435.93" r="2.04" fill="#c51164" stroke="#7c3990" stroke-miterlimit="10"/><circle cx="352.43" cy="435.93" r="2.04" fill="#c51164" stroke="#7c3990" stroke-miterlimit="10"/><circle cx="366.34" cy="435.93" r="2.04" fill="#c51164" stroke="#7c3990" stroke-miterlimit="10"/><circle cx="380.24" cy="435.93" r="2.04" fill="#c51164" stroke="#7c3990" stroke-miterlimit="10"/><circle cx="394.15" cy="435.93" r="2.04" fill="#c51164" stroke="#7c3990" stroke-miterlimit="10"/><circle cx="408.06" cy="435.93" r="2.04" fill="#c51164" stroke="#7c3990" stroke-miterlimit="10"/><circle cx="421.96" cy="435.93" r="2.04" fill="#c51164" stroke="#7c3990" stroke-miterlimit="10"/><circle cx="313.93" cy="407.4" r="2.04" fill="#c51164" stroke="#7c3990" stroke-miterlimit="10"/><circle cx="327.25" cy="407.4" r="2.04" fill="#c51164" stroke="#7c3990" stroke-miterlimit="10"/><circle cx="340.58" cy="407.4" r="2.04" fill="#c51164" stroke="#7c3990" stroke-miterlimit="10"/><circle cx="353.91" cy="407.4" r="2.04" fill="#c51164" stroke="#7c3990" stroke-miterlimit="10"/><circle cx="367.24" cy="407.4" r="2.04" fill="#c51164" stroke="#7c3990" stroke-miterlimit="10"/><circle cx="380.56" cy="407.4" r="2.04" fill="#c51164" stroke="#7c3990" stroke-miterlimit="10"/><circle cx="393.89" cy="407.4" r="2.04" fill="#c51164" stroke="#7c3990" stroke-miterlimit="10"/><circle cx="407.22" cy="407.4" r="2.04" fill="#c51164" stroke="#7c3990" stroke-miterlimit="10"/><circle cx="420.55" cy="407.4" r="2.04" fill="#c51164" stroke="#7c3990" stroke-miterlimit="10"/><circle cx="433.87" cy="407.4" r="2.04" fill="#c51164" stroke="#7c3990" stroke-miterlimit="10"/><path fill="#c51164" stroke="#7c3990" stroke-miterlimit="10" d="M361.15 558.7h-45.96v-91.94l45.96 11.12v80.82z"/><path fill="#f6ebf4" d="M320.17 553.85l-4.91 4.85v-92.01l45.89 11.12-4.98 3.9-36-8.08v80.22z"/><path fill="#da1c5c" stroke="#7c3990" stroke-miterlimit="10" d="M356.17 553.85h-36v-80.22l36 8.08v72.14zM320.17 473.63l-4.91-6.94M356.17 481.71l4.92-3.9M356.17 553.85l4.92 4.92M320.17 553.85l-4.91 4.92"/><path fill="none" stroke="#7c3990" stroke-miterlimit="10" d="M361.15 558.7h-45.96v-91.94l45.96 11.12v80.82z"/><circle cx="327.34" cy="547.77" r="2.04" fill="#c51164" stroke="#7c3990" stroke-miterlimit="10"/><circle cx="349.14" cy="487.34" r="2.04" fill="#c51164" stroke="#7c3990" stroke-miterlimit="10"/><circle cx="349.14" cy="547.77" r="2.04" fill="#c51164" stroke="#7c3990" stroke-miterlimit="10"/><circle cx="327.34" cy="482.33" r="2.04" fill="#c51164" stroke="#7c3990" stroke-miterlimit="10"/><path fill="#bd92c2" stroke="#7d3990" stroke-miterlimit="10" d="M319.52 570.21h37.32v74.74h-37.32z"/><path fill="#f6ebf4" d="M322.46 642.09l-2.9 2.86v-74.78h37.27l-2.94 2.91h-31.43v69.01z"/><path fill="#e6cbe2" stroke="#7d3990" stroke-miterlimit="10" d="M322.46 573.07h31.43v69.01h-31.43z"/><path fill="#da1c5c" stroke="#7c3990" stroke-miterlimit="10" d="M322.46 573.07l-2.9-2.9M353.89 573.07l2.9-2.9M353.89 642.09l2.9 2.9M322.46 642.09l-2.9 2.9"/><path fill="none" stroke="#7c3990" stroke-miterlimit="10" d="M319.52 570.21h37.32v74.74h-37.32z"/><circle cx="327.34" cy="577.99" r="2.04" fill="#c51164" stroke="#7c3990" stroke-miterlimit="10"/><circle cx="349.14" cy="577.99" r="2.04" fill="#c51164" stroke="#7c3990" stroke-miterlimit="10"/><circle cx="327.34" cy="637.35" r="2.04" fill="#c51164" stroke="#7c3990" stroke-miterlimit="10"/><circle cx="349.14" cy="637.35" r="2.04" fill="#c51164" stroke="#7c3990" stroke-miterlimit="10"/><path fill="#f4dfe8" d="M611.84 686.52H70.22l9.64-11.39h522.13l9.85 11.39z"/><path d="M356.83 644.54h-42.78a31.25 31.25 0 0 0-26.93 15.79 28.93 28.93 0 0 0-4 14.8h74.24z" fill="#ee2a7b"/><path d="M357.35 675.13l-.52-30.59h-42.78a31.25 31.25 0 0 0-26.93 15.79 28.93 28.93 0 0 0-4 14.8zm-5.67-1v-5.68h4.56l.09 5.68zM288 660.83a30.44 30.44 0 0 1 26.07-15.29h41.8l.37 21.91h-71.07a28.4 28.4 0 0 1 2.83-6.62zm-3.85 13.3a28.26 28.26 0 0 1 .78-5.68h3.45v5.68zm5.23 0v-5.68H294v5.68zm5.66 0v-5.68h4.67v5.68zm5.67 0v-5.68h4.67v5.68zm5.67 0v-5.68H311v5.68zm5.66 0v-5.68h4.67v5.68zm5.67 0v-5.68h4.66v5.68zm5.66 0v-5.68H328v5.68zm5.67 0v-5.68h4.67v5.68zm5.67 0v-5.68h4.66v5.68zm5.66 0v-5.68H345v5.68zm5.67 0v-5.68h4.66v5.68z" fill="#7d3990"/><path d="M85.35 202.35a26.72 26.72 0 0 0-24.93 17.11 7.09 7.09 0 0 0 6.65 9.59h36.57a7.09 7.09 0 0 0 6.64-9.59 26.71 26.71 0 0 0-24.93-17.11zM559.54 425.81a13 13 0 0 0-12.15 8.34 3.46 3.46 0 0 0 3.24 4.68h17.82a3.45 3.45 0 0 0 3.24-4.68 13 13 0 0 0-12.15-8.34zM64.64 517.92a13 13 0 0 0-12.15 8.34 3.46 3.46 0 0 0 3.24 4.68h17.82a3.46 3.46 0 0 0 3.24-4.68 13 13 0 0 0-12.15-8.34zM636.09 617.79a13 13 0 0 0-12.15 8.34 3.46 3.46 0 0 0 3.24 4.68H645a3.46 3.46 0 0 0 3.24-4.68 13 13 0 0 0-12.15-8.34zM344.24 218.76a34.81 34.81 0 0 1 32.12 21.39 3.64 3.64 0 0 0 5.74 1.45 15.87 15.87 0 0 1 25.58 7.13 3.69 3.69 0 0 1-3.5 4.83h-90.85a3.68 3.68 0 0 1-3.65-4.12 34.8 34.8 0 0 1 34.56-30.68zM452 247.5a17.72 17.72 0 0 0-33.06 0 4.7 4.7 0 0 0 4.41 6.36h24.24a4.71 4.71 0 0 0 4.41-6.36zM338.69 33.45a9.88 9.88 0 0 0-8.54-4.91 9.76 9.76 0 0 0-4.6 1.14 4.82 4.82 0 0 1-6.55-1.76 21.65 21.65 0 0 0-37-1.47c-1.75 2.63-6.08 3.13-10.86-1.66a21.64 21.64 0 0 0-34.84 1.66 5 5 0 0 1-7.67.77 15.77 15.77 0 0 0-26.17 6.49 3.63 3.63 0 0 0 3.54 4.71h129.79a3.33 3.33 0 0 0 2.9-4.97z" fill="#dff2f4"/></g></g></svg>