<svg xmlns="http://www.w3.org/2000/svg" width="118.58" height="108.92" viewBox="0 0 118.58 108.92"><defs><clipPath id="a"><path d="M54.38 108.48h9.27a54 54 0 1 0 0-108h-9.27" fill="none"/></clipPath></defs><path d="M54.38 108.48h9.27a54 54 0 1 0 0-108h-9.27" fill="#f1c9df"/><path d="M54.38 108.74h9.27a54.26 54.26 0 0 0 0-108.52h-9.27v.5h9.27a53.76 53.76 0 1 1 0 107.51h-9.27z" fill="#7e3a90"/><g clip-path="url(#a)"><path fill="#f5ebf4" d="M119.49 3.04H64.4"/><path fill="#7e3a90" d="M64.4 2.78h55.09v.5H64.4z"/><path fill="#f5ebf4" d="M119.49 7.15H64.4"/><path fill="#7e3a90" d="M64.4 6.9h55.09v.5H64.4z"/><path fill="#f5ebf4" d="M119.49 11.27H64.4"/><path fill="#7e3a90" d="M64.4 11.01h55.09v.5H64.4z"/><path fill="#f5ebf4" d="M119.49 15.38H64.4"/><path fill="#7e3a90" d="M64.4 15.13h55.09v.5H64.4z"/><path fill="#f5ebf4" d="M119.49 19.5H64.4"/><path fill="#7e3a90" d="M64.4 19.25h55.09v.5H64.4z"/><path fill="#f5ebf4" d="M119.49 23.61H64.4"/><path fill="#7e3a90" d="M64.4 23.36h55.09v.5H64.4z"/><path fill="#f5ebf4" d="M119.49 27.73H64.4"/><path fill="#7e3a90" d="M64.4 27.48h55.09v.5H64.4z"/><path fill="#f5ebf4" d="M119.49 31.84H64.4"/><path fill="#7e3a90" d="M64.4 31.59h55.09v.5H64.4z"/><path fill="#f5ebf4" d="M119.49 35.96H64.4"/><path fill="#7e3a90" d="M64.4 35.71h55.09v.5H64.4z"/><path fill="#f5ebf4" d="M119.49 40.07H64.4"/><path fill="#7e3a90" d="M64.4 39.82h55.09v.5H64.4z"/><path fill="#f5ebf4" d="M119.49 44.19H64.4"/><path fill="#7e3a90" d="M64.4 43.94h55.09v.5H64.4z"/><path fill="#f5ebf4" d="M119.49 48.3H64.4"/><path fill="#7e3a90" d="M64.4 48.05h55.09v.5H64.4z"/><path fill="#f5ebf4" d="M119.49 52.42H64.4"/><path fill="#7e3a90" d="M64.4 52.17h55.09v.5H64.4z"/><path fill="#f5ebf4" d="M119.49 56.53H64.4"/><path fill="#7e3a90" d="M64.4 56.28h55.09v.5H64.4z"/><path fill="#f5ebf4" d="M119.49 60.65H64.4"/><path fill="#7e3a90" d="M64.4 60.4h55.09v.5H64.4z"/><path fill="#f5ebf4" d="M119.49 64.76H64.4"/><path fill="#7e3a90" d="M64.4 64.51h55.09v.5H64.4z"/><path fill="#f5ebf4" d="M119.49 68.88H64.4"/><path fill="#7e3a90" d="M64.4 68.63h55.09v.5H64.4z"/><path fill="#f5ebf4" d="M119.49 72.99H64.4"/><path fill="#7e3a90" d="M64.4 72.74h55.09v.5H64.4z"/><path fill="#f5ebf4" d="M119.49 77.11H64.4"/><path fill="#7e3a90" d="M64.4 76.86h55.09v.5H64.4z"/><path fill="#f5ebf4" d="M119.49 81.23H64.4"/><path fill="#7e3a90" d="M64.4 80.97h55.09v.5H64.4z"/><path fill="#f5ebf4" d="M119.49 85.34H64.4"/><path fill="#7e3a90" d="M64.4 85.09h55.09v.5H64.4z"/><path fill="#f5ebf4" d="M119.49 89.46H64.4"/><path fill="#7e3a90" d="M64.4 89.2h55.09v.5H64.4z"/><path fill="#f5ebf4" d="M119.49 93.57H64.4"/><path fill="#7e3a90" d="M64.4 93.32h55.09v.5H64.4z"/><path fill="#f5ebf4" d="M119.49 97.69H64.4"/><path fill="#7e3a90" d="M64.4 97.43h55.09v.5H64.4z"/><path fill="#f5ebf4" d="M119.49 101.8H64.4"/><path fill="#7e3a90" d="M64.4 101.55h55.09v.5H64.4z"/><path fill="#f5ebf4" d="M119.49 105.92H64.4"/><path fill="#7e3a90" d="M64.4 105.66h55.09v.5H64.4z"/></g><path d="M.37 54.48a54 54 0 1 0 54-54 54 54 0 0 0-54 54z" fill="#f7fcfe"/><path d="M.12 54.48a54.26 54.26 0 1 1 54.26 54.26A54.32 54.32 0 0 1 .12 54.48zm.5 0A53.76 53.76 0 1 0 54.38.72 53.82 53.82 0 0 0 .62 54.48z" fill="#7e3a90"/><path d="M5.44 54.48A48.94 48.94 0 1 0 54.38 5.53 48.94 48.94 0 0 0 5.44 54.48zM54.38 5.53a48.95 48.95 0 0 0 0 97.89" fill="#f6ebf4"/><path d="M5.18 54.48a49.2 49.2 0 1 1 49.2 49.19 49.25 49.25 0 0 1-49.2-49.19zm.51 0A48.69 48.69 0 1 0 54.38 5.79 48.75 48.75 0 0 0 5.69 54.48z" fill="#7e3a90"/><path fill="#da1a5d" d="M54.38 17.14L78.4 41.03v26.89L54.38 91.81 30.37 67.92V41.03l24.01-23.89z"/><path d="M30.12 68V40.93l24.27-24.14 24.26 24.14V68L54.39 92.17zm48-26.88L54.39 17.5 30.62 41.14v26.67l23.77 23.64 23.76-23.64z" fill="#7d3a90"/><path fill="#f1bfd9" d="M54.38 17.14L78.4 41.03v26.89L54.38 91.81"/><path fill="#7e3a90" d="M54.56 91.99l24.1-23.97V40.93l-24.1-23.97-.35.36 23.94 23.82v26.67L54.21 91.63l.35.36zm-24.287-24.3l13.99-5.942.2.47-13.99 5.94z"/><path fill="#7e3a90" d="M54.13 71.94h.5v19.87h-.5zm10.184-9.735l.195-.46 13.99 5.942-.195.46zM30.272 41.278l.2-.47 13.992 5.937-.2.47zM54.13 17.14h.5v19.87h-.5zm10.184 29.609l13.988-5.946.196.46-13.989 5.946z"/><path fill="#dd6178" d="M54.38 37.01l10.03 9.97v14.99l-10.03 9.97-10.02-9.96V46.97l10.02-9.96z"/><path d="M44.1 62.08V46.87l10.28-10.22 10.29 10.23v15.2L54.38 72.3zm20.06-15l-9.78-9.72-9.77 9.71v14.8l9.77 9.72 9.78-9.72z" fill="#7d3a90"/><path d="M54.38 103.42a48.95 48.95 0 0 1 0-97.89h1.51a48.94 48.94 0 0 0 .26 97.81" fill="#f1c9df"/><path d="M5.18 54.48a49.26 49.26 0 0 1 49.21-49.2h1.51v.5a48.69 48.69 0 0 0 .26 97.31v.51c-.59 0-1.17-.06-1.76-.1v.13A49.25 49.25 0 0 1 5.18 54.48zm.51 0a48.76 48.76 0 0 0 43.46 48.41A49.21 49.21 0 0 1 49 6.08a48.76 48.76 0 0 0-43.31 48.4z" fill="#7e3a90"/><path fill="#bd1e51" d="M90.88 46.18l3.91 3.89v7.81l-3.91 3.88-3.91-3.88v-7.81l3.91-3.89z"/><path d="M86.72 58v-8l4.16-4.14L95 50v8l-4.16 4.14zm7.82-7.81l-3.66-3.63-3.65 3.63v7.6l3.65 3.64 3.66-3.64z" fill="#7d3a90"/><path fill="#f3d4e6" d="M90.88 46.18l3.91 3.89v7.81l-3.91 3.88"/><path fill="#7e3a90" d="M91.06 61.94l3.98-3.96v-8.02L91.06 46l-.36.36 3.84 3.81v7.6l-3.84 3.82.36.35zm-4.177-4.307l2.274-.965.199.469-2.274.965z"/><path fill="#7e3a90" d="M90.63 58.53h.5v3.23h-.5zm1.791-1.386l.195-.46 2.274.965-.196.46zm-5.542-6.837l.2-.469 2.273.965-.2.47zm3.751-4.127h.5v3.23h-.5zm1.783 4.62l2.273-.967.196.46-2.273.966z"/><path fill="#c97ea8" d="M90.88 49.41l1.63 1.62v5.88l-1.63 1.62-1.63-1.62v-5.88l1.63-1.62z"/><path d="M89 57v-6.07l1.88-1.87 1.88 1.87V57l-1.88 1.88zm3.26-5.88l-1.38-1.37-1.38 1.39v5.67l1.38 1.37 1.38-1.38z" fill="#7e3a90"/><path fill="#bd1e51" d="M18.98 46.18l3.91 3.89v7.81l-3.91 3.88-3.91-3.88v-7.81l3.91-3.89z"/><path d="M14.82 58v-8L19 45.82 23.14 50v8L19 62.12zm7.82-7.81L19 46.54l-3.65 3.63v7.6L19 61.41l3.66-3.64z" fill="#7d3a90"/><path fill="#f3d4e6" d="M18.98 46.18l3.91 3.89v7.81l-3.91 3.88"/><path fill="#7e3a90" d="M19.16 61.94l3.98-3.96v-8.02L19.16 46l-.36.36 3.84 3.81v7.6l-3.84 3.82.36.35zm-4.176-4.302l2.273-.965.2.47-2.274.965z"/><path fill="#7e3a90" d="M18.73 58.53h.5v3.23h-.5zm1.786-1.387l.195-.46 2.274.965-.196.46zm-5.539-6.836l.2-.47 2.273.965-.2.47zm3.753-4.127h.5v3.23h-.5zm1.783 4.627l2.274-.966.195.46-2.273.966z"/><path fill="#c97ea8" d="M18.98 49.41l1.63 1.62v5.88l-1.63 1.62-1.63-1.62v-5.88l1.63-1.62z"/><path d="M17.1 57v-6.07l1.9-1.87 1.89 1.87V57L19 58.89zm3.26-5.88L19 49.77l-1.4 1.37v5.67l1.4 1.37 1.38-1.38z" fill="#7e3a90"/></svg>