<svg xmlns="http://www.w3.org/2000/svg" width="1421.93" height="330.27" viewBox="0 0 1421.93 330.27"><path fill="#fff" d="M1374.74 261.07h-342.92v-30.64h342.92z" opacity=".8"/><g data-name="rupie"><path fill="#fde9f2" d="M1016.03 245.51l7.46-7.5h26.91l7.46 7.5-7.46 7.49h-26.91l-7.46-7.49z"/><path fill="#ee2e7b" d="M1016.03 245.51h41.83l-7.46 7.49h-26.91l-7.46-7.49z"/><path fill="#eab7d5" d="M1021.2 245.51l3.8-3.82h23.89l3.8 3.82-3.8 3.82H1025l-3.8-3.82z"/><path d="M1050.4 238h-26.91l-7.46 7.5 7.46 7.49h26.91l7.46-7.49zm-1.1 10.9l2.85-2.87h3.65l-5.43 5.47zm-25.78 2.6l-5.43-5.47h3.65l2.85 2.87zm1.13-9.47l-2.91 2.93h-3.65l5.49-5.52zm.8 6.21l-2.73-2.74 2.73-2.75h23l2.73 2.75-2.73 2.74h-23zm26.7-3.28l-2.91-2.93 1.07-2.59 5.49 5.52zm-10.47-5.88h7.62l-1.07 2.6h-22.56l-1.07-2.6h17.08zm-1.4 12.83h-15.76l1.07-2.59h22.72l1.07 2.59h-9.1z" fill="#a12573"/></g><g data-name="rupie"><path fill="#fde9f2" d="M1062.31 245.51l7.45-7.5h26.92l7.45 7.5-7.45 7.49h-26.92l-7.45-7.49z"/><path fill="#ee2e7b" d="M1062.31 245.51h41.82l-7.45 7.49h-26.92l-7.45-7.49z"/><path fill="#eab7d5" d="M1067.47 245.51l3.81-3.82h23.88l3.8 3.82-3.8 3.82h-23.88l-3.81-3.82z"/><path d="M1096.68 238h-26.92l-7.45 7.5 7.45 7.49h26.92l7.45-7.49zm-1.11 10.9l2.86-2.87h3.65l-5.44 5.47zm-25.78 2.6l-5.43-5.47h3.64l2.85 2.87zm1.13-9.47L1068 245h-3.65l5.49-5.52zm.8 6.21l-2.72-2.74 2.72-2.75h23l2.73 2.75-2.73 2.74h-23zm26.71-3.28l-2.91-2.93 1.07-2.59 5.49 5.52zm-10.43-5.87h7.62l-1.07 2.6h-22.56l-1.07-2.6H1088zm-1.4 12.83h-15.76l1.07-2.59h22.72l1.07 2.59h-9.1z" fill="#a12573"/></g><g data-name="rupie"><path fill="#fde9f2" d="M1114.49 245.51l7.45-7.5h26.92l7.45 7.5-7.45 7.49h-26.92l-7.45-7.49z"/><path fill="#ee2e7b" d="M1114.49 245.51h41.82l-7.45 7.49h-26.92l-7.45-7.49z"/><path fill="#eab7d5" d="M1119.66 245.51l3.8-3.82h23.88l3.8 3.82-3.8 3.82h-23.88l-3.8-3.82z"/><path d="M1148.86 238h-26.92l-7.45 7.5 7.45 7.49h26.92l7.45-7.49zm-1.1 10.9l2.85-2.87h3.65l-5.43 5.47zm-25.78 2.6l-5.44-5.47h3.65l2.85 2.87zm1.12-9.47l-2.91 2.93h-3.65l5.49-5.52zm.8 6.21l-2.72-2.74 2.72-2.75h23l2.72 2.75-2.72 2.74h-23zm26.71-3.28l-2.91-2.96 1.07-2.59 5.49 5.52zm-10.48-5.88h7.62l-1.07 2.6h-22.56l-1.07-2.6h17.08zm-1.4 12.83H1123l1.07-2.59h22.72l1.07 2.59h-9.1z" fill="#a12573"/></g><g data-name="rupie"><path fill="#fde9f2" d="M1166.26 245.51l7.46-7.5h26.91l7.46 7.5-7.46 7.49h-26.91l-7.46-7.49z"/><path fill="#ee2e7b" d="M1166.26 245.51h41.83l-7.46 7.49h-26.91l-7.46-7.49z"/><path fill="#eab7d5" d="M1171.43 245.51l3.8-3.82h23.89l3.8 3.82-3.8 3.82h-23.89l-3.8-3.82z"/><path d="M1200.63 238h-26.91l-7.46 7.5 7.46 7.49h26.91l7.46-7.49zm-1.1 10.9l2.85-2.87h3.62l-5.43 5.47zm-25.78 2.6l-5.43-5.47h3.68l2.85 2.87zm1.13-9.47L1172 245h-3.65l5.49-5.52zm.8 6.21l-2.73-2.74 2.73-2.75h23l2.73 2.75-2.73 2.74h-23zm26.7-3.28l-2.91-2.93 1.07-2.59L1206 245zm-10.47-5.88h7.62l-1.07 2.6h-22.56l-1.07-2.6h17.08zm-1.4 12.83h-15.77l1.07-2.59h22.73l1.07 2.59h-9.1z" fill="#a12573"/></g><g data-name="rupie"><path fill="#fde9f2" d="M1217.5 245.51l7.46-7.5h26.91l7.46 7.5-7.46 7.49h-26.91l-7.46-7.49z"/><path fill="#ee2e7b" d="M1217.5 245.51h41.83l-7.46 7.49h-26.91l-7.46-7.49z"/><path fill="#eab7d5" d="M1222.67 245.51l3.8-3.82h23.89l3.8 3.82-3.8 3.82h-23.89l-3.8-3.82z"/><path d="M1251.87 238H1225l-7.46 7.5 7.46 7.5h26.91l7.46-7.49zm-1.1 10.9l2.85-2.87h3.65l-5.43 5.47zm-25.78 2.6l-5.43-5.47h3.65l2.85 2.87zm1.13-9.47l-2.91 2.93h-3.65l5.49-5.52zm.8 6.21l-2.73-2.74 2.73-2.75h23l2.73 2.75-2.73 2.74h-23zm26.7-3.28l-2.91-2.93 1.07-2.59 5.49 5.52zm-10.47-5.88h7.61l-1.07 2.6h-22.55l-1.07-2.6h17.08zm-1.4 12.83H1226l1.07-2.59h22.73l1.07 2.59h-9.1z" fill="#a12573"/></g><g data-name="rupie"><path fill="#fde9f2" d="M1269.62 245.51l7.45-7.5h26.92l7.45 7.5-7.45 7.49h-26.92l-7.45-7.49z"/><path fill="#ee2e7b" d="M1269.62 245.51h41.82l-7.45 7.49h-26.92l-7.45-7.49z"/><path fill="#eab7d5" d="M1274.79 245.51l3.8-3.82h23.88l3.8 3.82-3.8 3.82h-23.88l-3.8-3.82z"/><path d="M1304 238h-26.92l-7.45 7.5 7.45 7.49H1304l7.45-7.49zm-1.11 10.9l2.86-2.87h3.65l-5.44 5.47zm-25.78 2.6l-5.43-5.47h3.65l2.85 2.87zm1.13-9.47l-2.91 2.93h-3.65l5.49-5.52zm.8 6.21l-2.72-2.74 2.72-2.75h23l2.73 2.75-2.73 2.74h-23zm26.71-3.28l-2.91-2.93 1.07-2.59 5.49 5.52zm-10.48-5.88h7.62l-1.07 2.6h-22.56l-1.07-2.6h17.08zm-1.4 12.83h-15.77l1.07-2.59h22.72l1.07 2.59h-9.1z" fill="#a12573"/></g><g data-name="rupie"><path fill="#fde9f2" d="M1321.8 245.51l7.45-7.5h26.92l7.45 7.5-7.45 7.49h-26.92l-7.45-7.49z"/><path fill="#ee2e7b" d="M1321.8 245.51h41.82l-7.45 7.49h-26.92l-7.45-7.49z"/><path fill="#eab7d5" d="M1326.97 245.51l3.8-3.82h23.88l3.8 3.82-3.8 3.82h-23.88l-3.8-3.82z"/><path d="M1356.17 238h-26.92l-7.45 7.5 7.45 7.49h26.92l7.45-7.49zm-1.1 10.9l2.85-2.87h3.65l-5.43 5.47zm-25.78 2.6l-5.44-5.47h3.65l2.85 2.87zm1.12-9.47l-2.91 2.97h-3.65l5.49-5.52zm.8 6.21l-2.72-2.74 2.72-2.75h23l2.72 2.75-2.72 2.74h-23zm26.71-3.28L1355 242l1.07-2.59 5.49 5.52zm-10.48-5.88h7.62l-1.07 2.6h-22.56l-1.07-2.6h17.08zm-1.4 12.83h-15.76l1.07-2.59h22.72l1.07 2.59H1346z" fill="#a12573"/></g><g data-name="rupie"><path fill="#fde9f2" d="M1373.57 245.51l7.46-7.5h26.91l7.46 7.5-7.46 7.49h-26.91l-7.46-7.49z"/><path fill="#ee2e7b" d="M1373.57 245.51h41.83l-7.46 7.49h-26.91l-7.46-7.49z"/><path fill="#eab7d5" d="M1378.74 245.51l3.8-3.82h23.89l3.8 3.82-3.8 3.82h-23.89l-3.8-3.82z"/><path d="M1407.94 238H1381l-7.46 7.5 7.46 7.5h26.91l7.46-7.49zm-1.1 10.9l2.85-2.87h3.65l-5.43 5.47zm-25.78 2.6l-5.43-5.47h3.65l2.85 2.87zm1.13-9.47l-2.91 2.93h-3.65l5.49-5.52zm.8 6.21l-2.73-2.74 2.73-2.75h23l2.73 2.75-2.73 2.74h-23zm26.7-3.28l-2.91-2.93 1.07-2.59 5.49 5.52zm-10.47-5.88h7.62l-1.07 2.6h-22.56l-1.07-2.6h17.08zm-1.4 12.83h-15.77l1.07-2.59h22.73l1.07 2.59h-9.1z" fill="#a12573"/></g><path fill="#fde9f2" d="M1024.86 267.71v-42.4l7.2 2.88v35.52l-7.2 4z"/><path d="M1024.36 224.57l8.2 3.28V264l-8.2 4.56zm7.2 4l-6.2-2.47v40.81l6.2-3.45z" fill="#a12573"/><path fill="#a0dbe3" d="M1414.64 261.07h-382.09v-30.64h382.09z" opacity=".4"/><path fill="#fff" d="M1414.64 235.25h-382.07v-2.94h382.07z"/><path fill="#fff" d="M41.65 77.12h342.92v30.64H41.65z" opacity=".8"/><g data-name="rupie"><path fill="#fde9f2" d="M406.2 92.19l-7.46-7.49h-26.91l-7.46 7.49 7.46 7.5h26.91l7.46-7.5z"/><path fill="#ee2e7b" d="M406.2 92.19h-41.83l7.46 7.5h26.91l7.46-7.5z"/><path fill="#eab7d5" d="M401.03 92.19l-3.8-3.82h-23.89l-3.8 3.82 3.8 3.82h23.89l3.8-3.82z"/><path d="M398.74 84.7h-26.91l-7.46 7.49 7.46 7.5h26.91l7.46-7.5zm-1.1 10.9l2.85-2.87h3.65l-5.43 5.46zm-25.78 2.59l-5.43-5.46h3.65l2.85 2.87zm1.14-9.46l-2.91 2.92h-3.65l5.49-5.52zm.8 6.2l-2.73-2.74 2.73-2.74h23l2.73 2.74-2.73 2.74h-23zm26.7-3.28l-2.91-2.92 1.07-2.6 5.49 5.52zM382 85.78h15.68l-1.07 2.59H374l-1.07-2.59h9zm-1.4 12.83h-7.7l1.07-2.6h22.73l1.07 2.6h-17.22z" fill="#a12573"/></g><g data-name="rupie"><path fill="#fde9f2" d="M354.08 92.19l-7.45-7.49h-26.92l-7.45 7.49 7.45 7.5h26.92l7.45-7.5z"/><path fill="#ee2e7b" d="M354.08 92.19h-41.82l7.45 7.5h26.92l7.45-7.5z"/><path fill="#eab7d5" d="M348.91 92.19l-3.8-3.82h-23.88l-3.8 3.82 3.8 3.82h23.88l3.8-3.82z"/><path d="M346.63 84.7h-26.92l-7.45 7.49 7.45 7.5h26.92l7.45-7.5zm-1.1 10.9l2.85-2.87H352l-5.43 5.46zm-25.78 2.59l-5.44-5.46H318l2.85 2.87zm1.12-9.46L318 91.65h-3.65l5.49-5.52zm.81 6.2L319 92.19l2.73-2.74h23l2.72 2.74-2.72 2.74h-23zm26.7-3.28l-2.91-2.92 1.07-2.6 5.46 5.52zm-18.54-5.87h15.68l-1.07 2.59h-22.56l-1.07-2.59h9zm-1.4 12.83h-7.7l1.07-2.6h22.72l1.07 2.6h-17.16z" fill="#a12573"/></g><g data-name="rupie"><path fill="#fde9f2" d="M301.9 92.19l-7.45-7.49h-26.92l-7.45 7.49 7.45 7.5h26.92l7.45-7.5z"/><path fill="#ee2e7b" d="M301.9 92.19h-41.82l7.45 7.5h26.92l7.45-7.5z"/><path fill="#eab7d5" d="M296.73 92.19l-3.8-3.82h-23.88l-3.8 3.82 3.8 3.82h23.88l3.8-3.82z"/><path d="M294.45 84.7h-26.92l-7.45 7.49 7.45 7.5h26.92l7.45-7.5zm-1.1 10.9l2.85-2.87h3.65l-5.44 5.46zm-25.79 2.59l-5.43-5.46h3.65l2.85 2.87zm1.13-9.46l-2.91 2.92h-3.65l5.49-5.52zm.8 6.2l-2.72-2.74 2.72-2.74h23l2.73 2.74-2.73 2.74h-23zm26.71-3.28l-2.91-2.92 1.07-2.6 5.49 5.52zm-18.54-5.87h15.68l-1.07 2.59h-22.56l-1.07-2.59h9zm-1.4 12.83h-7.7l1.07-2.6h22.72l1.07 2.6h-17.16z" fill="#a12573"/></g><g data-name="rupie"><path fill="#fde9f2" d="M250.13 92.19l-7.46-7.49h-26.91l-7.46 7.49 7.46 7.5h26.91l7.46-7.5z"/><path fill="#ee2e7b" d="M250.13 92.19H208.3l7.46 7.5h26.91l7.46-7.5z"/><path fill="#eab7d5" d="M244.96 92.19l-3.8-3.82h-23.89l-3.8 3.82 3.8 3.82h23.89l3.8-3.82z"/><path d="M242.67 84.7h-26.91l-7.46 7.49 7.46 7.5h26.91l7.46-7.5zm-1.1 10.9l2.85-2.87h3.65l-5.43 5.46zm-25.78 2.59l-5.43-5.46H214l2.85 2.87zm1.13-9.46L214 91.65h-3.65l5.49-5.52zm.8 6.2L215 92.19l2.73-2.74h23l2.73 2.74-2.73 2.74h-23zm26.7-3.28l-2.91-2.92 1.07-2.6 5.49 5.52zm-18.54-5.87h15.68l-1.07 2.59h-22.56l-1.07-2.59h9zm-1.4 12.83h-7.7l1.07-2.6h22.72l1.08 2.6h-17.17z" fill="#a12573"/></g><g data-name="rupie"><path fill="#fde9f2" d="M198.89 92.19l-7.46-7.49h-26.91l-7.46 7.49 7.46 7.5h26.91l7.46-7.5z"/><path fill="#ee2e7b" d="M198.89 92.19h-41.83l7.46 7.5h26.91l7.46-7.5z"/><path fill="#eab7d5" d="M193.72 92.19l-3.8-3.82h-23.89l-3.8 3.82 3.8 3.82h23.89l3.8-3.82z"/><path d="M191.43 84.7h-26.91l-7.46 7.49 7.46 7.5h26.91l7.46-7.5zm5.4 7h-3.65l-2.91-2.92 1.07-2.6zm-4.63.54l-2.73 2.74h-23l-2.73-2.74 2.73-2.74h23zm-19-6.41h17.08l-1.07 2.59h-22.52l-1.07-2.59zm-8.63.35l1.07 2.6-2.91 2.92h-3.65zm-5.49 6.6h3.65l2.85 2.87-1.07 2.59zm15.52 5.88h-9.1l1.07-2.6h22.73l1.07 2.6zm16.76-.42l-1.07-2.59 2.85-2.87h3.65z" fill="#a12573"/></g><g data-name="rupie"><path fill="#fde9f2" d="M146.78 92.19l-7.46-7.49H112.4l-7.45 7.49 7.45 7.5h26.92l7.46-7.5z"/><path fill="#ee2e7b" d="M146.78 92.19h-41.83l7.45 7.5h26.92l7.46-7.5z"/><path fill="#eab7d5" d="M141.6 92.19l-3.79-3.82h-23.89l-3.8 3.82 3.8 3.82h23.89l3.79-3.82z"/><path d="M139.32 84.7H112.4l-7.4 7.49 7.45 7.5h26.92l7.45-7.5zm-1.1 10.9l2.85-2.87h3.65l-5.43 5.46zm-25.78 2.59L107 92.73h3.65l2.86 2.87zm1.12-9.46l-2.91 2.92H107l5.49-5.52zm.81 6.2l-2.73-2.74 2.73-2.74h23l2.72 2.74-2.72 2.74h-23zm26.7-3.28l-2.91-2.92 1.07-2.6 5.49 5.52zm-18.54-5.87h15.68l-1.07 2.59h-22.56l-1.07-2.59h9zm-1.4 12.83h-7.7L114.5 96h22.72l1.07 2.6h-17.16z" fill="#a12573"/></g><g data-name="rupie"><path fill="#fde9f2" d="M94.59 92.19l-7.45-7.49H60.22l-7.45 7.49 7.45 7.5h26.92l7.45-7.5z"/><path fill="#ee2e7b" d="M94.59 92.19H52.77l7.45 7.5h26.92l7.45-7.5z"/><path fill="#eab7d5" d="M89.42 92.19l-3.8-3.82H61.74l-3.8 3.82 3.8 3.82h23.88l3.8-3.82z"/><path d="M87.14 84.7H60.22l-7.45 7.49 7.45 7.5h26.92l7.45-7.5zM86 95.6l2.85-2.87h3.65l-5.4 5.46zm-25.75 2.59l-5.43-5.46h3.65l2.85 2.87zm1.13-9.46l-2.91 2.92h-3.65l5.49-5.52zm.8 6.2l-2.72-2.74 2.72-2.74h23l2.72 2.74-2.72 2.74h-23zm26.71-3.28L86 88.73l1.07-2.6 5.49 5.52zm-18.54-5.87H86l-1 2.59H62.4l-1.07-2.59h9zM69 98.61h-7.7L62.32 96H85l1.07 2.6H69z" fill="#a12573"/></g><g data-name="rupie"><path fill="#fde9f2" d="M42.82 92.19l-7.46-7.49H8.45L.99 92.19l7.46 7.5h26.91l7.46-7.5z"/><path fill="#ee2e7b" d="M42.82 92.19H.99l7.46 7.5h26.91l7.46-7.5z"/><path fill="#eab7d5" d="M37.65 92.19l-3.8-3.82H9.96l-3.8 3.82 3.8 3.82h23.89l3.8-3.82z"/><path d="M35.36 84.7H8.45L1 92.19l7.46 7.5h26.9l7.46-7.5zm-1.1 10.9l2.85-2.87h3.65l-5.43 5.46zM8.48 98.19l-5.43-5.46H6.7l2.85 2.87zm1.13-9.46L6.7 91.65H3.05l5.49-5.52zm.8 6.2l-2.73-2.74 2.73-2.74h23l2.73 2.74-2.74 2.74h-23zm26.7-3.28l-2.91-2.92 1.07-2.6 5.49 5.52zm-18.54-5.87h15.68l-1.07 2.59H10.62l-1.07-2.59h9zm-1.4 12.83h-7.7L10.54 96h22.73l1.07 2.6H17.17z" fill="#a12573"/></g><path fill="#fde9f2" d="M391.53 114.39V72l-7.2 2.87v35.53l7.2 3.99z"/><path d="M392 115.25l-8.2-4.56V74.53l8.2-3.27zm-7.2-5.15l6.2 3.45V72.74l-6.2 2.47z" fill="#a12573"/><path fill="#a0dbe3" d="M1.75 77.12h382.09v30.64H1.75z" opacity=".4"/><path fill="#fff" d="M1.75 78.99h382.07v2.94H1.75zM920.97 273.4h57.78v-4.61h-57.78"/><path fill="#7d3a90" d="M979.33 273.98h-58.36v-1.15h57.21v-3.47h-57.21v-1.15h58.36v5.77z"/><path fill="#7d3a90" d="M951.907 225.428l.984-.595 26.335 43.605-.984.594z"/><path fill="#7d3a90" d="M951.854 268.417l26.365-43.586.984.595-26.365 43.586z"/><path fill="#7d3a90" d="M925.718 225.428l.985-.595 26.335 43.605-.985.594z"/><path fill="#7d3a90" d="M925.668 268.416l26.366-43.586.984.595-26.366 43.586z"/><path fill="#fff" d="M920.97 225.18h57.78v-5.17h-57.78"/><path fill="#7d3a90" d="M979.33 225.76h-58.36v-1.15h57.21v-4.03h-57.21v-1.15h58.36v6.33z"/><path fill="#ee2e7b" d="M979.02 278.68v-64.22h45.57v64.22z"/><path d="M1025.17 279.25h-46.73v-65.37h46.73zm-45.58-1.15H1024V215h-44.41z" fill="#7e3a90"/><path fill="#7e3a90" d="M1024.01 214.46h1.15v64.22h-1.15z"/><path fill="#ee2e7b" d="M952.42 268.79v-43.61"/><path fill="#7e3a90" d="M951.85 225.18H953v43.6h-1.15zm35.92 41h10.83v1.15h-10.83zm0-4.04h10.83v1.15h-10.83zm0-4.05h10.83v1.15h-10.83zm0-4.05h10.83v1.15h-10.83zm0-4.04h10.83v1.15h-10.83z"/><path fill="#ee2e7b" d="M1011.65 268.27l-2.18.84-.85-2.18"/><path fill="#7e3a90" d="M1009.14 269.86l-1.05-2.72 1.07-.41.64 1.64 1.64-.64.41 1.07-2.71 1.06z"/><circle cx="1011.24" cy="265.09" r="3.57" fill="#e8b7d5"/><path d="M1011.24 269.24a4.16 4.16 0 0 1-3.79-5.83 4.15 4.15 0 1 1 3.79 5.83zm-2.74-5.36a3 3 0 1 0 1.66-1.59 3 3 0 0 0-1.66 1.59z" fill="#7e3a90"/><path fill="#ee2e7b" d="M1013.73 250.75l1.49 1.79-1.79 1.5"/><path fill="#7e3a90" d="M1013.79 254.48l-.73-.88 1.35-1.13-1.13-1.35.89-.74 1.86 2.24-2.24 1.86z"/><circle cx="1010.84" cy="252.14" r="3.57" fill="#e8b7d5"/><path d="M1010.85 256.29h-.39a4.15 4.15 0 0 1-3.75-4.51 4.06 4.06 0 0 1 1.48-2.81 4.14 4.14 0 0 1 6.78 3.56 4.15 4.15 0 0 1-4.12 3.77zm-.28-1.16a3 3 0 0 0 3.26-2.71 3 3 0 1 0-6-.55 3 3 0 0 0 2.71 3.26z" fill="#7e3a90"/><path fill="#fde9f2" d="M988.89 236.29v-6.81h6.81v6.81zm13.76-6.61v-6.81h6.81v6.81z"/><path fill="#fde9f2" d="M1002.65 235.72v-6.81h6.81v6.81z"/><path fill="#e8b7d5" d="M1009.57 236.29v-6.81h6.81v6.81zm-13.61-6.61v-6.81h6.81v6.81z"/><path fill="#7e3a90" d="M995.12 222.46h1.15v13.83h-1.15zm7 0h1.15v13.83h-1.15z"/><path fill="#7e3a90" d="M988.89 228.79h27.65v1.15h-27.65z"/><path fill="#7e3a90" d="M1009.12 222.46h1.15v13.83h-1.15z"/><path d="M1017.28 236.87h-29v-15h29zm-27.82-1.16h26.66V223h-26.66z" fill="#7e3a90"/><path fill="#fff" d="M494.39 120.09h-57.77v-4.62h57.77"/><path fill="#7d3a90" d="M494.39 120.67h-58.35v-5.77h58.35v1.15h-57.2v3.46h57.2v1.16z"/><path fill="#7d3a90" d="M436.14 115.191l26.307-43.61.985.595-26.307 43.61z"/><path fill="#7d3a90" d="M436.102 72.14l.984-.594 26.33 43.596-.984.595z"/><path fill="#7d3a90" d="M462.328 115.186l26.307-43.61.985.594-26.307 43.61z"/><path fill="#7d3a90" d="M462.29 72.141l.985-.594 26.33 43.595-.985.595z"/><path fill="#fff" d="M494.39 71.87h-57.77v-5.18h57.77"/><path fill="#7d3a90" d="M494.39 72.45h-58.35v-6.33h58.35v1.15h-57.2v4.03h57.2v1.15z"/><path fill="#ee2e7b" d="M391.04 125.36V61.14h45.57v64.22z"/><path d="M437.19 125.94h-46.73V60.57h46.73zm-45.57-1.15H436V61.72h-44.38z" fill="#7e3a90"/><path fill="#7e3a90" d="M436.04 61.14h1.15v64.22h-1.15zm26.33 10.73h1.15v43.6h-1.15zm-62.58 41h10.83v1.15h-10.83zm0-4.05h10.83v1.15h-10.83zm0-4.04h10.83v1.15h-10.83zm0-4.05h10.83v1.15h-10.83zm0-4.05h10.83v1.15h-10.83z"/><path fill="#ee2e7b" d="M423.67 114.95l-2.18.85-.84-2.18"/><path fill="#7e3a90" d="M421.16 116.54l-1.05-2.71 1.08-.42.63 1.64 1.64-.63.42 1.07-2.72 1.05z"/><circle cx="423.27" cy="111.77" r="3.57" fill="#e8b7d5"/><path d="M423.27 115.92a4.16 4.16 0 1 1 1.5-.28 4.12 4.12 0 0 1-1.5.28zm0-7.14a3 3 0 1 0 2.79 1.91 2.93 2.93 0 0 0-1.58-1.66 3 3 0 0 0-1.21-.25z" fill="#7e3a90"/><path fill="#ee2e7b" d="M425.75 97.44l1.5 1.79-1.8 1.5"/><path fill="#7e3a90" d="M425.82 101.17l-.74-.89 1.36-1.12-1.13-1.36.88-.73 1.87 2.24-2.24 1.86z"/><circle cx="422.87" cy="98.83" r="3.57" fill="#e8b7d5"/><path d="M422.87 103h-.38a4.17 4.17 0 0 1-3.76-4.51 4.15 4.15 0 1 1 4.14 4.53zm0-7.15a3 3 0 0 0-3 2.73 3 3 0 0 0 .68 2.19 3 3 0 0 0 2 1.06 3 3 0 1 0 .55-6z" fill="#7e3a90"/><path fill="#fde9f2" d="M400.91 82.98v-6.81h6.81v6.81zm13.77-6.61v-6.81h6.81v6.81z"/><path fill="#fde9f2" d="M414.68 82.41V75.6h6.81v6.81z"/><path fill="#e8b7d5" d="M421.59 82.98v-6.81h6.81v6.81zm-13.6-6.62v-6.81h6.81v6.81z"/><path fill="#7e3a90" d="M407.15 69.14h1.15v13.83h-1.15zm7 0h1.15v13.83h-1.15z"/><path fill="#7e3a90" d="M400.91 75.47h27.65v1.15h-27.65z"/><path fill="#7e3a90" d="M421.15 69.14h1.15v13.83h-1.15z"/><path d="M429.3 83.55h-29v-15h29zm-27.81-1.15h26.66V69.72h-26.66z" fill="#7e3a90"/><path fill="#a12573" d="M853.2 328.37h49.98v1.6H853.2z"/><path fill="#544da0" d="M797.97 329.17h122.88V9.98H494.04v319.19h48.08"/><path fill="#a12573" d="M921.53 329.97H797.97v-1.6h122.2V10.78H494.71v317.59h47.41v1.6h-48.76V9.18h428.17v320.79z"/><path fill="#cf82aa" d="M798.2 329.17h122.93V9.98H494.16v319.19H798.2z"/><path fill="#eab7d5" d="M505.36 318.15l-11.2 11.02V9.98h425.8L909.63 21H505.36v297.15z"/><path fill="#544da0" d="M505.23 21h404.71v297.15H505.23z"/><path d="M910.61 319h-406V20.2h406zm-404.71-1.6h403.37V21.8H505.9z" fill="#673996"/><path fill="#a12573" d="M853.2 328.37h49.98v1.6H853.2z"/><path fill="#544da0" d="M505.36 21L494.25 9.89"/><path fill="#673996" d="M493.653 10.43l1.132-1.13 11.108 11.108-1.131 1.131z"/><path fill="#544da0" d="M909.64 21l11.19-11.02"/><path fill="#673996" d="M909.018 20.372l11.2-11.017 1.121 1.14-11.199 11.018z"/><path fill="#544da0" d="M909.64 318.15l11.19 11.02"/><path fill="#673996" d="M909.045 318.647l1.122-1.14 11.197 11.019-1.122 1.14z"/><path fill="#544da0" d="M505.36 318.15l-11.2 11.02"/><path fill="#673996" d="M493.583 328.55l11.2-11.017 1.122 1.141-11.2 11.017z"/><path d="M921.49 330H493.36V9.18h428.13zm-426.78-1.6h425.43V10.78H494.71z" fill="#673996"/></svg>