<svg height="330.27" viewBox="0 0 1421.93 330.27" width="1421.93" xmlns="http://www.w3.org/2000/svg"><path d="m1031.82 230.43h342.92v30.64h-342.92z" fill="#fff" opacity=".8" transform="matrix(-1 0 0 -1 2406.56 491.5)"/><path d="m1016.03 245.51 7.46-7.5h26.91l7.46 7.5-7.46 7.49h-26.91z" fill="#fde9f2"/><path d="m1016.03 245.51h41.83l-7.46 7.49h-26.91z" fill="#ee2e7b"/><path d="m1021.2 245.51 3.8-3.82h23.89l3.8 3.82-3.8 3.82h-23.89z" fill="#eab7d5"/><path d="m1050.4 238h-26.91l-7.46 7.5 7.46 7.49h26.91l7.46-7.49zm-1.1 10.9 2.85-2.87h3.65l-5.43 5.47zm-25.78 2.6-5.43-5.47h3.65l2.85 2.87zm1.13-9.47-2.91 2.93h-3.65l5.49-5.52zm.8 6.21-2.73-2.74 2.73-2.75h23l2.73 2.75-2.73 2.74zm26.7-3.28-2.91-2.93 1.07-2.59 5.49 5.52zm-10.47-5.88h7.62l-1.07 2.6h-22.56l-1.07-2.6zm-1.4 12.83h-15.76l1.07-2.59h22.72l1.07 2.59z" fill="#a12573"/><path d="m1062.31 245.51 7.45-7.5h26.92l7.45 7.5-7.45 7.49h-26.92z" fill="#fde9f2"/><path d="m1062.31 245.51h41.82l-7.45 7.49h-26.92z" fill="#ee2e7b"/><path d="m1067.47 245.51 3.81-3.82h23.88l3.8 3.82-3.8 3.82h-23.88z" fill="#eab7d5"/><path d="m1096.68 238h-26.92l-7.45 7.5 7.45 7.49h26.92l7.45-7.49zm-1.11 10.9 2.86-2.87h3.65l-5.44 5.47zm-25.78 2.6-5.43-5.47h3.64l2.85 2.87zm1.13-9.47-2.92 2.97h-3.65l5.49-5.52zm.8 6.21-2.72-2.74 2.72-2.75h23l2.73 2.75-2.73 2.74zm26.71-3.28-2.91-2.93 1.07-2.59 5.49 5.52zm-10.43-5.87h7.62l-1.07 2.6h-22.56l-1.07-2.6zm-1.4 12.83h-15.76l1.07-2.59h22.72l1.07 2.59z" fill="#a12573"/><path d="m1114.49 245.51 7.45-7.5h26.92l7.45 7.5-7.45 7.49h-26.92z" fill="#fde9f2"/><path d="m1114.49 245.51h41.82l-7.45 7.49h-26.92z" fill="#ee2e7b"/><path d="m1119.66 245.51 3.8-3.82h23.88l3.8 3.82-3.8 3.82h-23.88z" fill="#eab7d5"/><path d="m1148.86 238h-26.92l-7.45 7.5 7.45 7.49h26.92l7.45-7.49zm-1.1 10.9 2.85-2.87h3.65l-5.43 5.47zm-25.78 2.6-5.44-5.47h3.65l2.85 2.87zm1.12-9.47-2.91 2.93h-3.65l5.49-5.52zm.8 6.21-2.72-2.74 2.72-2.75h23l2.72 2.75-2.72 2.74zm26.71-3.28-2.91-2.96 1.07-2.59 5.49 5.52zm-10.48-5.88h7.62l-1.07 2.6h-22.56l-1.07-2.6zm-1.4 12.83h-15.73l1.07-2.59h22.72l1.07 2.59h-9.1z" fill="#a12573"/><path d="m1166.26 245.51 7.46-7.5h26.91l7.46 7.5-7.46 7.49h-26.91z" fill="#fde9f2"/><path d="m1166.26 245.51h41.83l-7.46 7.49h-26.91z" fill="#ee2e7b"/><path d="m1171.43 245.51 3.8-3.82h23.89l3.8 3.82-3.8 3.82h-23.89z" fill="#eab7d5"/><path d="m1200.63 238h-26.91l-7.46 7.5 7.46 7.49h26.91l7.46-7.49zm-1.1 10.9 2.85-2.87h3.62l-5.43 5.47zm-25.78 2.6-5.43-5.47h3.68l2.85 2.87zm1.13-9.47-2.88 2.97h-3.65l5.49-5.52zm.8 6.21-2.73-2.74 2.73-2.75h23l2.73 2.75-2.73 2.74zm26.7-3.28-2.91-2.93 1.07-2.59 5.46 5.56zm-10.47-5.88h7.62l-1.07 2.6h-22.56l-1.07-2.6zm-1.4 12.83h-15.77l1.07-2.59h22.73l1.07 2.59z" fill="#a12573"/><path d="m1217.5 245.51 7.46-7.5h26.91l7.46 7.5-7.46 7.49h-26.91z" fill="#fde9f2"/><path d="m1217.5 245.51h41.83l-7.46 7.49h-26.91z" fill="#ee2e7b"/><path d="m1222.67 245.51 3.8-3.82h23.89l3.8 3.82-3.8 3.82h-23.89z" fill="#eab7d5"/><path d="m1251.87 238h-26.87l-7.46 7.5 7.46 7.5h26.91l7.46-7.49zm-1.1 10.9 2.85-2.87h3.65l-5.43 5.47zm-25.78 2.6-5.43-5.47h3.65l2.85 2.87zm1.13-9.47-2.91 2.93h-3.65l5.49-5.52zm.8 6.21-2.73-2.74 2.73-2.75h23l2.73 2.75-2.73 2.74zm26.7-3.28-2.91-2.93 1.07-2.59 5.49 5.52zm-10.47-5.88h7.61l-1.07 2.6h-22.55l-1.07-2.6zm-1.4 12.83h-15.75l1.07-2.59h22.73l1.07 2.59h-9.1z" fill="#a12573"/><path d="m1269.62 245.51 7.45-7.5h26.92l7.45 7.5-7.45 7.49h-26.92z" fill="#fde9f2"/><path d="m1269.62 245.51h41.82l-7.45 7.49h-26.92z" fill="#ee2e7b"/><path d="m1274.79 245.51 3.8-3.82h23.88l3.8 3.82-3.8 3.82h-23.88z" fill="#eab7d5"/><path d="m1304 238h-26.92l-7.45 7.5 7.45 7.49h26.92l7.45-7.49zm-1.11 10.9 2.86-2.87h3.65l-5.44 5.47zm-25.78 2.6-5.43-5.47h3.65l2.85 2.87zm1.13-9.47-2.91 2.93h-3.65l5.49-5.52zm.8 6.21-2.72-2.74 2.72-2.75h23l2.73 2.75-2.73 2.74zm26.71-3.28-2.91-2.93 1.07-2.59 5.49 5.52zm-10.48-5.88h7.62l-1.07 2.6h-22.56l-1.07-2.6zm-1.4 12.83h-15.77l1.07-2.59h22.72l1.07 2.59h-9.1z" fill="#a12573"/><path d="m1321.8 245.51 7.45-7.5h26.92l7.45 7.5-7.45 7.49h-26.92z" fill="#fde9f2"/><path d="m1321.8 245.51h41.82l-7.45 7.49h-26.92z" fill="#ee2e7b"/><path d="m1326.97 245.51 3.8-3.82h23.88l3.8 3.82-3.8 3.82h-23.88z" fill="#eab7d5"/><path d="m1356.17 238h-26.92l-7.45 7.5 7.45 7.49h26.92l7.45-7.49zm-1.1 10.9 2.85-2.87h3.65l-5.43 5.47zm-25.78 2.6-5.44-5.47h3.65l2.85 2.87zm1.12-9.47-2.91 2.97h-3.65l5.49-5.52zm.8 6.21-2.72-2.74 2.72-2.75h23l2.72 2.75-2.72 2.74zm26.71-3.28-2.92-2.96 1.07-2.59 5.49 5.52zm-10.48-5.88h7.62l-1.07 2.6h-22.56l-1.07-2.6zm-1.4 12.83h-15.76l1.07-2.59h22.72l1.07 2.59h-9.14z" fill="#a12573"/><path d="m1373.57 245.51 7.46-7.5h26.91l7.46 7.5-7.46 7.49h-26.91z" fill="#fde9f2"/><path d="m1373.57 245.51h41.83l-7.46 7.49h-26.91z" fill="#ee2e7b"/><path d="m1378.74 245.51 3.8-3.82h23.89l3.8 3.82-3.8 3.82h-23.89z" fill="#eab7d5"/><path d="m1407.94 238h-26.94l-7.46 7.5 7.46 7.5h26.91l7.46-7.49zm-1.1 10.9 2.85-2.87h3.65l-5.43 5.47zm-25.78 2.6-5.43-5.47h3.65l2.85 2.87zm1.13-9.47-2.91 2.93h-3.65l5.49-5.52zm.8 6.21-2.73-2.74 2.73-2.75h23l2.73 2.75-2.73 2.74zm26.7-3.28-2.91-2.93 1.07-2.59 5.49 5.52zm-10.47-5.88h7.62l-1.07 2.6h-22.56l-1.07-2.6zm-1.4 12.83h-15.77l1.07-2.59h22.73l1.07 2.59z" fill="#a12573"/><path d="m1024.86 267.71v-42.4l7.2 2.88v35.52z" fill="#fde9f2"/><path d="m1024.36 224.57 8.2 3.28v36.15l-8.2 4.56zm7.2 4-6.2-2.47v40.81l6.2-3.45z" fill="#a12573"/><path d="m1032.55 230.43h382.09v30.64h-382.09z" fill="#a0dbe3" opacity=".4" transform="matrix(-1 0 0 -1 2447.19 491.5)"/><path d="m1032.57 232.31h382.07v2.94h-382.07z" fill="#fff" transform="matrix(-1 0 0 -1 2447.21 467.56)"/><path d="m41.65 77.12h342.92v30.64h-342.92z" fill="#fff" opacity=".8"/><path d="m406.2 92.19-7.46-7.49h-26.91l-7.46 7.49 7.46 7.5h26.91z" fill="#fde9f2"/><path d="m406.2 92.19h-41.83l7.46 7.5h26.91z" fill="#ee2e7b"/><path d="m401.03 92.19-3.8-3.82h-23.89l-3.8 3.82 3.8 3.82h23.89z" fill="#eab7d5"/><path d="m398.74 84.7h-26.91l-7.46 7.49 7.46 7.5h26.91l7.46-7.5zm-1.1 10.9 2.85-2.87h3.65l-5.43 5.46zm-25.78 2.59-5.43-5.46h3.65l2.85 2.87zm1.14-9.46-2.91 2.92h-3.65l5.49-5.52zm.8 6.2-2.73-2.74 2.73-2.74h23l2.73 2.74-2.73 2.74zm26.7-3.28-2.91-2.92 1.07-2.6 5.49 5.52zm-18.5-5.87h15.68l-1.07 2.59h-22.61l-1.07-2.59h9zm-1.4 12.83h-7.7l1.07-2.6h22.73l1.07 2.6h-17.22z" fill="#a12573"/><path d="m354.08 92.19-7.45-7.49h-26.92l-7.45 7.49 7.45 7.5h26.92z" fill="#fde9f2"/><path d="m354.08 92.19h-41.82l7.45 7.5h26.92z" fill="#ee2e7b"/><path d="m348.91 92.19-3.8-3.82h-23.88l-3.8 3.82 3.8 3.82h23.88z" fill="#eab7d5"/><path d="m346.63 84.7h-26.92l-7.45 7.49 7.45 7.5h26.92l7.45-7.5zm-1.1 10.9 2.85-2.87h3.62l-5.43 5.46zm-25.78 2.59-5.44-5.46h3.69l2.85 2.87zm1.12-9.46-2.87 2.92h-3.65l5.49-5.52zm.81 6.2-2.68-2.74 2.73-2.74h23l2.72 2.74-2.72 2.74h-23zm26.7-3.28-2.91-2.92 1.07-2.6 5.46 5.52zm-18.54-5.87h15.68l-1.07 2.59h-22.56l-1.07-2.59h9zm-1.4 12.83h-7.7l1.07-2.6h22.72l1.07 2.6z" fill="#a12573"/><path d="m301.9 92.19-7.45-7.49h-26.92l-7.45 7.49 7.45 7.5h26.92z" fill="#fde9f2"/><path d="m301.9 92.19h-41.82l7.45 7.5h26.92z" fill="#ee2e7b"/><path d="m296.73 92.19-3.8-3.82h-23.88l-3.8 3.82 3.8 3.82h23.88z" fill="#eab7d5"/><path d="m294.45 84.7h-26.92l-7.45 7.49 7.45 7.5h26.92l7.45-7.5zm-1.1 10.9 2.85-2.87h3.65l-5.44 5.46zm-25.79 2.59-5.43-5.46h3.65l2.85 2.87zm1.13-9.46-2.91 2.92h-3.65l5.49-5.52zm.8 6.2-2.72-2.74 2.72-2.74h23l2.73 2.74-2.73 2.74zm26.71-3.28-2.91-2.92 1.07-2.6 5.49 5.52zm-18.54-5.87h15.68l-1.07 2.59h-22.56l-1.07-2.59h9zm-1.4 12.83h-7.7l1.07-2.6h22.72l1.07 2.6z" fill="#a12573"/><path d="m250.13 92.19-7.46-7.49h-26.91l-7.46 7.49 7.46 7.5h26.91z" fill="#fde9f2"/><path d="m250.13 92.19h-41.83l7.46 7.5h26.91z" fill="#ee2e7b"/><path d="m244.96 92.19-3.8-3.82h-23.89l-3.8 3.82 3.8 3.82h23.89z" fill="#eab7d5"/><path d="m242.67 84.7h-26.91l-7.46 7.49 7.46 7.5h26.91l7.46-7.5zm-1.1 10.9 2.85-2.87h3.65l-5.43 5.46zm-25.78 2.59-5.43-5.46h3.64l2.85 2.87zm1.13-9.46-2.92 2.92h-3.65l5.49-5.52zm.8 6.2-2.72-2.74 2.73-2.74h23l2.73 2.74-2.73 2.74h-23zm26.7-3.28-2.91-2.92 1.07-2.6 5.49 5.52zm-18.54-5.87h15.68l-1.07 2.59h-22.56l-1.07-2.59h9zm-1.4 12.83h-7.7l1.07-2.6h22.72l1.08 2.6z" fill="#a12573"/><path d="m198.89 92.19-7.46-7.49h-26.91l-7.46 7.49 7.46 7.5h26.91z" fill="#fde9f2"/><path d="m198.89 92.19h-41.83l7.46 7.5h26.91z" fill="#ee2e7b"/><path d="m193.72 92.19-3.8-3.82h-23.89l-3.8 3.82 3.8 3.82h23.89z" fill="#eab7d5"/><path d="m191.43 84.7h-26.91l-7.46 7.49 7.46 7.5h26.91l7.46-7.5zm5.4 7h-3.65l-2.91-2.92 1.07-2.6zm-4.63.54-2.73 2.74h-23l-2.73-2.74 2.73-2.74h23zm-19-6.41h17.08l-1.07 2.59h-22.52l-1.07-2.59zm-8.63.35 1.07 2.6-2.91 2.92h-3.65zm-5.49 6.6h3.65l2.85 2.87-1.07 2.59zm15.52 5.88h-9.1l1.07-2.6h22.73l1.07 2.6zm16.76-.42-1.07-2.59 2.85-2.87h3.65z" fill="#a12573"/><path d="m146.78 92.19-7.46-7.49h-26.92l-7.45 7.49 7.45 7.5h26.92z" fill="#fde9f2"/><path d="m146.78 92.19h-41.83l7.45 7.5h26.92z" fill="#ee2e7b"/><path d="m141.6 92.19-3.79-3.82h-23.89l-3.8 3.82 3.8 3.82h23.89z" fill="#eab7d5"/><path d="m139.32 84.7h-26.92l-7.4 7.49 7.45 7.5h26.92l7.45-7.5zm-1.1 10.9 2.85-2.87h3.65l-5.43 5.46zm-25.78 2.59-5.44-5.46h3.65l2.86 2.87zm1.12-9.46-2.91 2.92h-3.65l5.49-5.52zm.81 6.2-2.73-2.74 2.73-2.74h23l2.72 2.74-2.72 2.74zm26.7-3.28-2.91-2.92 1.07-2.6 5.49 5.52zm-18.54-5.87h15.68l-1.07 2.59h-22.56l-1.07-2.59h9zm-1.4 12.83h-7.7l1.07-2.61h22.72l1.07 2.6h-17.16z" fill="#a12573"/><path d="m94.59 92.19-7.45-7.49h-26.92l-7.45 7.49 7.45 7.5h26.92z" fill="#fde9f2"/><path d="m94.59 92.19h-41.82l7.45 7.5h26.92z" fill="#ee2e7b"/><path d="m89.42 92.19-3.8-3.82h-23.88l-3.8 3.82 3.8 3.82h23.88z" fill="#eab7d5"/><path d="m87.14 84.7h-26.92l-7.45 7.49 7.45 7.5h26.92l7.45-7.5zm-1.14 10.9 2.85-2.87h3.65l-5.4 5.46zm-25.75 2.59-5.43-5.46h3.65l2.85 2.87zm1.13-9.46-2.91 2.92h-3.65l5.49-5.52zm.8 6.2-2.72-2.74 2.72-2.74h23l2.72 2.74-2.72 2.74zm26.71-3.28-2.89-2.92 1.07-2.6 5.49 5.52zm-18.54-5.87h15.65l-1 2.59h-22.6l-1.07-2.59h9zm-1.35 12.83h-7.7l1.02-2.61h22.68l1.07 2.6h-17.07z" fill="#a12573"/><path d="m42.82 92.19-7.46-7.49h-26.91l-7.46 7.49 7.46 7.5h26.91z" fill="#fde9f2"/><path d="m42.82 92.19h-41.83l7.46 7.5h26.91z" fill="#ee2e7b"/><path d="m37.65 92.19-3.8-3.82h-23.89l-3.8 3.82 3.8 3.82h23.89z" fill="#eab7d5"/><path d="m35.36 84.7h-26.91l-7.45 7.49 7.46 7.5h26.9l7.46-7.5zm-1.1 10.9 2.85-2.87h3.65l-5.43 5.46zm-25.78 2.59-5.43-5.46h3.65l2.85 2.87zm1.13-9.46-2.91 2.92h-3.65l5.49-5.52zm.8 6.2-2.73-2.74 2.73-2.74h23l2.73 2.74-2.74 2.74h-23zm26.7-3.28-2.91-2.92 1.07-2.6 5.49 5.52zm-18.54-5.87h15.68l-1.07 2.59h-22.56l-1.07-2.59h9zm-1.4 12.83h-7.7l1.07-2.61h22.73l1.07 2.6h-17.17z" fill="#a12573"/><path d="m391.53 114.39v-42.39l-7.2 2.87v35.53z" fill="#fde9f2"/><path d="m392 115.25-8.2-4.56v-36.16l8.2-3.27zm-7.2-5.15 6.2 3.45v-40.81l-6.2 2.47z" fill="#a12573"/><path d="m1.75 77.12h382.09v30.64h-382.09z" fill="#a0dbe3" opacity=".4"/><path d="m1.75 78.99h382.07v2.94h-382.07z" fill="#fff"/><path d="m920.97 273.4h57.78v-4.61h-57.78" fill="#fff"/><path d="m979.33 273.98h-58.36v-1.15h57.21v-3.47h-57.21v-1.15h58.36z" fill="#7d3a90"/><path d="m965.01 221.52h1.15v50.94h-1.15z" fill="#7d3a90" transform="matrix(.85599651 -.5169816 .5169816 .85599651 11.34 534.7)"/><path d="m940.12 246.41h50.94v1.15h-50.94z" fill="#7d3a90" transform="matrix(.51757907 -.85563538 .85563538 .51757907 254.43 945.28)"/><path d="m938.82 221.52h1.15v50.94h-1.15z" fill="#7d3a90" transform="matrix(.85599651 -.5169816 .5169816 .85599651 7.57 521.16)"/><path d="m913.93 246.41h50.94v1.15h-50.94z" fill="#7d3a90" transform="matrix(.51757907 -.85563538 .85563538 .51757907 241.8 922.87)"/><path d="m920.97 225.18h57.78v-5.17h-57.78" fill="#fff"/><path d="m979.33 225.76h-58.36v-1.15h57.21v-4.03h-57.21v-1.15h58.36z" fill="#7d3a90"/><path d="m969.69 223.78h64.22v45.57h-64.22z" fill="#ee2e7b" transform="matrix(0 -1 1 0 755.24 1248.37)"/><path d="m1025.17 279.25h-46.73v-65.37h46.73zm-45.58-1.15h44.41v-63.1h-44.41z" fill="#7e3a90"/><path d="m1024.01 214.46h1.15v64.22h-1.15z" fill="#7e3a90"/><path d="m952.42 268.79v-43.61" fill="#ee2e7b"/><path d="m951.85 225.18h1.15v43.6h-1.15z" fill="#7e3a90"/><path d="m987.77 266.18h10.83v1.15h-10.83z" fill="#7e3a90"/><path d="m987.77 262.14h10.83v1.15h-10.83z" fill="#7e3a90"/><path d="m987.77 258.09h10.83v1.15h-10.83z" fill="#7e3a90"/><path d="m987.77 254.04h10.83v1.15h-10.83z" fill="#7e3a90"/><path d="m987.77 250h10.83v1.15h-10.83z" fill="#7e3a90"/><path d="m1011.65 268.27-2.18.84-.85-2.18" fill="#ee2e7b"/><path d="m1009.14 269.86-1.05-2.72 1.07-.41.64 1.64 1.64-.64.41 1.07z" fill="#7e3a90"/><circle cx="1011.24" cy="265.09" fill="#e8b7d5" r="3.57"/><path d="m1011.24 269.24a4.16 4.16 0 0 1 -3.79-5.83 4.15 4.15 0 1 1 3.79 5.83zm-2.74-5.36a3 3 0 1 0 1.66-1.59 3 3 0 0 0 -1.66 1.59z" fill="#7e3a90"/><path d="m1013.73 250.75 1.49 1.79-1.79 1.5" fill="#ee2e7b"/><path d="m1013.79 254.48-.73-.88 1.35-1.13-1.13-1.35.89-.74 1.86 2.24z" fill="#7e3a90"/><circle cx="1010.84" cy="252.14" fill="#e8b7d5" r="3.57"/><path d="m1010.85 256.29h-.39a4.15 4.15 0 0 1 -3.75-4.51 4.06 4.06 0 0 1 1.48-2.81 4.14 4.14 0 0 1 6.78 3.56 4.15 4.15 0 0 1 -4.12 3.77zm-.28-1.16a3 3 0 0 0 3.26-2.71 3 3 0 1 0 -6-.55 3 3 0 0 0 2.71 3.26z" fill="#7e3a90"/><path d="m988.89 229.48h6.81v6.81h-6.81z" fill="#fde9f2" transform="matrix(0 -1 1 0 759.41 1225.18)"/><path d="m1002.65 222.86h6.81v6.81h-6.81z" fill="#fde9f2" transform="matrix(0 -1 1 0 779.79 1232.33)"/><path d="m1002.65 228.91h6.81v6.81h-6.81z" fill="#fde9f2" transform="matrix(0 -1 1 0 773.74 1238.37)"/><path d="m1009.57 229.48h6.81v6.81h-6.81z" fill="#e8b7d5" transform="matrix(0 -1 1 0 780.09 1245.86)"/><path d="m995.96 222.86h6.81v6.81h-6.81z" fill="#e8b7d5" transform="matrix(0 -1 1 0 773.1 1225.64)"/><path d="m995.12 222.46h1.15v13.83h-1.15z" fill="#7e3a90"/><path d="m1002.12 222.46h1.15v13.83h-1.15z" fill="#7e3a90"/><path d="m988.89 228.79h27.65v1.15h-27.65z" fill="#7e3a90"/><path d="m1009.12 222.46h1.15v13.83h-1.15z" fill="#7e3a90"/><path d="m1017.28 236.87h-29v-15h29zm-27.82-1.16h26.66v-12.71h-26.66z" fill="#7e3a90"/><path d="m494.39 120.09h-57.77v-4.62h57.77" fill="#fff"/><path d="m494.39 120.67h-58.35v-5.77h58.35v1.15h-57.2v3.46h57.2z" fill="#7d3a90"/><path d="m424.31 93.09h50.93v1.15h-50.93z" fill="#7d3a90" transform="matrix(.51653333 -.85626708 .85626708 .51653333 137.26 430.43)"/><path d="m449.2 68.2h1.15v50.93h-1.15z" fill="#7d3a90" transform="matrix(.85599651 -.5169816 .5169816 .85599651 16.33 245.99)"/><path d="m450.5 93.09h50.93v1.15h-50.93z" fill="#7d3a90" transform="matrix(.51653333 -.85626708 .85626708 .51653333 149.92 452.85)"/><path d="m475.39 68.2h1.15v50.93h-1.15z" fill="#7d3a90" transform="matrix(.85599651 -.5169816 .5169816 .85599651 20.1 259.53)"/><path d="m494.39 71.87h-57.77v-5.18h57.77" fill="#fff"/><path d="m494.39 72.45h-58.35v-6.33h58.35v1.15h-57.2v4.03h57.2z" fill="#7d3a90"/><path d="m381.72 70.46h64.22v45.57h-64.22z" fill="#ee2e7b" transform="matrix(0 -1 1 0 320.58 507.08)"/><g fill="#7e3a90"><path d="m437.19 125.94h-46.73v-65.37h46.73zm-45.57-1.15h44.38v-63.07h-44.38z"/><path d="m436.04 61.14h1.15v64.22h-1.15z"/><path d="m462.37 71.87h1.15v43.6h-1.15z"/><path d="m399.79 112.87h10.83v1.15h-10.83z"/><path d="m399.79 108.82h10.83v1.15h-10.83z"/><path d="m399.79 104.78h10.83v1.15h-10.83z"/><path d="m399.79 100.73h10.83v1.15h-10.83z"/><path d="m399.79 96.68h10.83v1.15h-10.83z"/></g><path d="m423.67 114.95-2.18.85-.84-2.18" fill="#ee2e7b"/><path d="m421.16 116.54-1.05-2.71 1.08-.42.63 1.64 1.64-.63.42 1.07z" fill="#7e3a90"/><circle cx="423.27" cy="111.77" fill="#e8b7d5" r="3.57"/><path d="m423.27 115.92a4.16 4.16 0 1 1 1.5-.28 4.12 4.12 0 0 1 -1.5.28zm0-7.14a3 3 0 1 0 2.79 1.91 2.93 2.93 0 0 0 -1.58-1.66 3 3 0 0 0 -1.21-.25z" fill="#7e3a90"/><path d="m425.75 97.44 1.5 1.79-1.8 1.5" fill="#ee2e7b"/><path d="m425.82 101.17-.74-.89 1.36-1.12-1.13-1.36.88-.73 1.87 2.24z" fill="#7e3a90"/><circle cx="422.87" cy="98.83" fill="#e8b7d5" r="3.57"/><path d="m422.87 103h-.38a4.17 4.17 0 0 1 -3.76-4.51 4.15 4.15 0 1 1 4.14 4.53zm0-7.15a3 3 0 0 0 -3 2.73 3 3 0 0 0 .68 2.19 3 3 0 0 0 2 1.06 3 3 0 1 0 .55-6z" fill="#7e3a90"/><path d="m400.91 76.16h6.81v6.81h-6.81z" fill="#fde9f2" transform="matrix(0 -1 1 0 324.75 483.89)"/><path d="m414.67 69.55h6.81v6.81h-6.81z" fill="#fde9f2" transform="matrix(0 -1 1 0 345.13 491.04)"/><path d="m414.67 75.6h6.81v6.81h-6.81z" fill="#fde9f2" transform="matrix(0 -1 1 0 339.08 497.08)"/><path d="m421.59 76.16h6.81v6.81h-6.81z" fill="#e8b7d5" transform="matrix(0 -1 1 0 345.43 504.57)"/><path d="m407.99 69.55h6.81v6.81h-6.81z" fill="#e8b7d5" transform="matrix(0 -1 1 0 338.44 484.35)"/><path d="m407.15 69.14h1.15v13.83h-1.15z" fill="#7e3a90"/><path d="m414.15 69.14h1.15v13.83h-1.15z" fill="#7e3a90"/><path d="m400.91 75.47h27.65v1.15h-27.65z" fill="#7e3a90"/><path d="m421.15 69.14h1.15v13.83h-1.15z" fill="#7e3a90"/><path d="m429.3 83.55h-29v-15h29zm-27.81-1.15h26.66v-12.68h-26.66z" fill="#7e3a90"/><path d="m853.2 328.37h49.98v1.6h-49.98z" fill="#a12573"/><path d="m797.97 329.17h122.88v-319.19h-426.81v319.19h48.08" fill="#544da0"/><path d="m921.53 329.97h-123.56v-1.6h122.2v-317.59h-425.46v317.59h47.41v1.6h-48.76v-320.79h428.17z" fill="#a12573"/><path d="m798.2 329.17h122.93v-319.19h-426.97v319.19h48.1z" fill="#cf82aa"/><path d="m505.36 318.15-11.2 11.02v-319.19h425.8l-10.33 11.02h-404.27z" fill="#eab7d5"/><path d="m505.23 21h404.71v297.15h-404.71z" fill="#544da0"/><path d="m910.61 319h-406v-298.8h406zm-404.71-1.6h403.37v-295.6h-403.37z" fill="#673996"/><path d="m853.2 328.37h49.98v1.6h-49.98z" fill="#a12573"/><path d="m505.36 21-11.11-11.11" fill="#544da0"/><path d="m499 7.59h1.6v15.71h-1.6z" fill="#673996" transform="matrix(.70710678 -.70710678 .70710678 .70710678 135.44 357.91)"/><path d="m909.64 21 11.19-11.02" fill="#544da0"/><path d="m907.38 14.69h15.71v1.6h-15.71z" fill="#673996" transform="matrix(.71288336 -.70128263 .70128263 .71288336 251.86 646.23)"/><path d="m909.64 318.15 11.19 11.02" fill="#544da0"/><path d="m914.44 315.8h1.6v15.71h-1.6z" fill="#673996" transform="matrix(.70140704 -.71276095 .71276095 .70140704 42.56 748.92)"/><path d="m505.36 318.15-11.2 11.02" fill="#544da0"/><path d="m491.9 322.86h15.71v1.6h-15.71z" fill="#673996" transform="matrix(.71288336 -.70128263 .70128263 .71288336 -83.5 443.35)"/><path d="m921.49 330h-428.13v-320.82h428.13zm-426.78-1.6h425.43v-317.62h-425.43z" fill="#673996"/></svg>