<svg xmlns="http://www.w3.org/2000/svg" xmlns:xlink="http://www.w3.org/1999/xlink" width="717.6" height="708.11" viewBox="0 0 717.6 708.11">
    <defs>

        <clipPath id="left-tube-mask"><rect id="right-tube-mask" x="400.83" y="314.62" width="101.77" height="25.28" style="fill:none;"/></clipPath>
        <clipPath id="left-tube-mask"><rect  x="178.09" y="314.62" width="101.76" height="25.28" style="fill:none" /></clipPath>
        <clipPath id="clip-path"><path d="M342,16.82h-3.75a21.88,21.88,0,1,0,0,43.75H342" style="fill:none"/></clipPath>
        <linearGradient id="linear-gradient" x1="45.15" y1="353.87" x2="714.04" y2="353.87" gradientUnits="userSpaceOnUse"><stop offset="0" stop-color="#2484c6"/><stop offset="1" stop-color="#2484c6" stop-opacity="0"/></linearGradient>
        <clipPath id="clip-path-2"><path d="M160.61,511.25l-2.17-2.16a17.83,17.83,0,1,0-25.21,25.21l2.16,2.17" style="fill:none"/></clipPath>
        <clipPath id="clip-path-3"><path d="M521.39,148.39,520,147a11.45,11.45,0,1,0-16.2,16.19l1.39,1.39" style="fill:none"/></clipPath>
        <clipPath id="clip-path-4"><path d="M191,318.88h-1.44a8.38,8.38,0,1,0,0,16.76H191" style="fill:none"/></clipPath>
        <clipPath id="clip-path-5"><path d="M215.41,318.88H214a8.38,8.38,0,0,0,0,16.76h1.44" style="fill:none"/></clipPath>
        <clipPath id="clip-path-6"><path d="M239.93,318.88h-1.44a8.38,8.38,0,0,0,0,16.76h1.44" style="fill:none"/></clipPath>
        <clipPath id="clip-path-7"><path d="M264.37,318.88h-1.44a8.38,8.38,0,0,0,0,16.76h1.44" style="fill:none"/></clipPath>
        <clipPath id="clip-path-8"><path d="M413.71,318.88h-1.44a8.38,8.38,0,0,0,0,16.76h1.44" style="fill:none"/></clipPath>
        <clipPath id="clip-path-9"><path d="M438.16,318.88h-1.44a8.38,8.38,0,0,0,0,16.76h1.44" style="fill:none"/></clipPath>
        <clipPath id="clip-path-10"><path d="M462.67,318.88h-1.44a8.38,8.38,0,0,0,0,16.76h1.44" style="fill:none"/></clipPath>
        <clipPath id="clip-path-11"><path d="M487.11,318.88h-1.44a8.38,8.38,0,0,0,0,16.76h1.44" style="fill:none"/></clipPath>
    </defs>
    <title>Artboard 43</title>
    <g style="isolation:isolate">
        <g id="ILLO_5" data-name="ILLO 5">
            <g id="rocket-ship"><polyline points="357.19 585.08 357.19 628.74 340.9 644.94 324.62 628.74 324.62 585.08" style="fill:#ee2a7b;stroke:#7d3990;stroke-miterlimit:10"/><polyline points="340.93 585.08 340.93 628.74 340.9 644.94 324.62 628.74 324.62 585.08" style="fill:#fce9f1;stroke:#7d3990;stroke-linejoin:bevel"/><polyline points="357.19 621.84 357.19 585.08 324.62 585.08 324.62 621.84" style="fill:none;stroke:#7d3990;stroke-miterlimit:10"/><polyline points="334.1 585.08 334.1 624.71 340.9 631.47 347.7 624.72 347.7 585.08" style="fill:#e9b7d5;stroke:#7d3990;stroke-miterlimit:10"/><line x1="347.7" y1="624.72" x2="357.19" y2="628.74" style="fill:none;stroke:#7d3990;stroke-miterlimit:10"/><line x1="340.9" y1="631.47" x2="340.9" y2="644.94" style="fill:none;stroke:#7d3990;stroke-miterlimit:10"/><line x1="334.1" y1="624.71" x2="324.62" y2="628.74" style="fill:none;stroke:#7d3990;stroke-miterlimit:10"/><polygon points="355 585.08 326.81 585.08 333.31 577.46 348.5 577.46 355 585.08" style="fill:#ee2a7b;stroke:#7d3990;stroke-miterlimit:10"/><polygon points="324.62 613.13 319.19 610.56 311.82 587.84 324.62 587.84 324.62 613.13" style="fill:#fce9f1;stroke:#7d3990;stroke-miterlimit:10"/><polygon points="357.19 613.13 362.61 610.56 369.98 587.84 357.19 587.84 357.19 613.13" style="fill:#ee2a7b;stroke:#7d3990;stroke-miterlimit:10"/></g><polygon points="110.63 98.91 110.61 105.16 111.72 106.26 113.34 107.88 113.87 108.42 117 105.28 120.14 102.15 119.61 101.61 117.98 99.99 116.88 98.89 110.63 98.91" style="fill:#da1c5c;stroke:#7c3990;stroke-miterlimit:10"/><polyline points="110.63 98.91 110.61 105.16 111.72 106.26 113.87 108.42 117 105.28" style="fill:#f6ebf4;stroke:#7d3990;stroke-miterlimit:10"/><line x1="115.83" y1="101.49" x2="116.88" y2="98.89" style="fill:none;stroke:#7d3990;stroke-miterlimit:10"/><line x1="113.22" y1="101.5" x2="110.63" y2="98.91" style="fill:none;stroke:#7d3990;stroke-miterlimit:10"/><line x1="113.21" y1="104.11" x2="110.61" y2="105.16" style="fill:none;stroke:#7d3990;stroke-miterlimit:10"/><polyline points="118.15 103.81 117.32 102.98 116.16 101.82 115.83 101.49 113.22 101.5 113.21 104.11 113.54 104.44 114.7 105.6 115.54 106.43" style="fill:#e6cbe2;stroke:#7d3990;stroke-miterlimit:10"/><rect x="117.38" y="103.82" width="6.28" height="9.95" transform="translate(-41.63 117.09) rotate(-45)" style="fill:#f6ebf4;stroke:#7d3990;stroke-miterlimit:10"/><line x1="116.49" y1="109.22" x2="120.94" y2="104.77" style="fill:#f6ebf4;stroke:#7d3990;stroke-miterlimit:10"/><line x1="118.3" y1="111.02" x2="122.74" y2="106.58" style="fill:#f6ebf4;stroke:#7d3990;stroke-miterlimit:10"/><line x1="120.1" y1="112.82" x2="124.55" y2="108.38" style="fill:#f6ebf4;stroke:#7d3990;stroke-miterlimit:10"/><polygon points="150.84 130.44 150.8 139.08 142.17 139.12 122.1 116.69 128.41 110.38 150.84 130.44" style="fill:#da1c5c;stroke:#7c3990;stroke-miterlimit:10"/><polyline points="150.8 139.08 142.17 139.12 122.1 116.69 125.26 113.53" style="fill:#f6ebf4;stroke:#7d3990;stroke-miterlimit:10"/><polygon
                points="130.04 106.32 128.14 108.21 119.94 116.42 118.04 118.31 119.31 123.37 120.59 122.09 120.75 118.45 121.36 117.84 129.56 109.63 130.18 109.02 133.82 108.87 135.1 107.59 130.04 106.32"
                style="fill:#da1c5c;stroke:#7c3990;stroke-miterlimit:10"/><path d="M342,16.82h-3.75a21.88,21.88,0,1,0,0,43.75H342" style="fill:#f2cd7b;stroke:#7c3990;stroke-miterlimit:10"/>
            <g style="clip-path:url(#clip-path)"><line x1="315.64" y1="17.86" x2="337.95" y2="17.86" style="fill:#f5ebf4;stroke:#7d3990;stroke-linejoin:bevel"/><line x1="315.64" y1="21.19" x2="337.95" y2="21.19" style="fill:#f5ebf4;stroke:#7d3990;stroke-linejoin:bevel"/><line x1="315.64" y1="24.53" x2="337.95" y2="24.53" style="fill:#f5ebf4;stroke:#7d3990;stroke-linejoin:bevel"/><line x1="315.64" y1="27.86" x2="337.95" y2="27.86" style="fill:#f5ebf4;stroke:#7d3990;stroke-linejoin:bevel"/><line x1="315.64" y1="31.2" x2="337.95" y2="31.2" style="fill:#f5ebf4;stroke:#7d3990;stroke-linejoin:bevel"/><line x1="315.64" y1="34.53" x2="337.95" y2="34.53" style="fill:#f5ebf4;stroke:#7d3990;stroke-linejoin:bevel"/><line x1="315.64" y1="37.86" x2="337.95" y2="37.86" style="fill:#f5ebf4;stroke:#7d3990;stroke-linejoin:bevel"/><line x1="315.64" y1="41.2" x2="337.95" y2="41.2" style="fill:#f5ebf4;stroke:#7d3990;stroke-linejoin:bevel"/><line x1="315.64" y1="44.53" x2="337.95" y2="44.53" style="fill:#f5ebf4;stroke:#7d3990;stroke-linejoin:bevel"/><line x1="315.64" y1="47.86" x2="337.95" y2="47.86" style="fill:#f5ebf4;stroke:#7d3990;stroke-linejoin:bevel"/><line x1="315.64" y1="51.2" x2="337.95" y2="51.2" style="fill:#f5ebf4;stroke:#7d3990;stroke-linejoin:bevel"/><line x1="315.64" y1="54.53" x2="337.95" y2="54.53" style="fill:#f5ebf4;stroke:#7d3990;stroke-linejoin:bevel"/><line x1="315.64" y1="57.86" x2="337.95" y2="57.86" style="fill:#f5ebf4;stroke:#7d3990;stroke-linejoin:bevel"/><line x1="315.64" y1="59.53" x2="337.95" y2="59.53" style="fill:#f5ebf4;stroke:#7d3990;stroke-linejoin:bevel"/></g><path d="M342,16.82A21.88,21.88,0,1,0,363.89,38.7,21.87,21.87,0,0,0,342,16.82Z" style="fill:#efb032;stroke:#7c3990;stroke-miterlimit:10"/><path d="M342,20.66a18,18,0,1,0,18,18A18,18,0,0,0,342,20.66Zm0,36.07a18,18,0,1,0,0-36.07" style="fill:#f2c43c;stroke:#7c3990;stroke-miterlimit:10"/><path d="M342,56.73a18,18,0,1,0,0-36.07l-.55,0a18,18,0,0,1-.1,36" style="fill:#f2cd7b;stroke:#7c3990;stroke-miterlimit:10"/><path d="M333.69,31h10.89a3.62,3.62,0,1,1,0,7.24h-8.16" style="fill:none;stroke:#7d3990;stroke-miterlimit:10"/><line x1="336.42" y1="31.01" x2="336.42" y2="45.5" style="fill:none;stroke:#7d3990;stroke-miterlimit:10"/><line x1="339.43" y1="26.92" x2="339.43" y2="31.01" style="fill:none;stroke:#7d3990;stroke-miterlimit:10"/><line x1="343.25" y1="26.92" x2="343.25" y2="31.01" style="fill:none;stroke:#7d3990;stroke-miterlimit:10"/><line x1="339.43" y1="45.5" x2="339.43" y2="49.59" style="fill:none;stroke:#7d3990;stroke-miterlimit:10"/><line x1="343.25" y1="45.5" x2="343.25" y2="49.59" style="fill:none;stroke:#7d3990;stroke-miterlimit:10"/><path d="M344.58,38.25a3.63,3.63,0,0,1,0,7.25H333.69" style="fill:none;stroke:#7d3990;stroke-miterlimit:10"/><path d="M371.6,67.3V36.74A31.47,31.47,0,0,0,340.13,5.28h0a31.47,31.47,0,0,0-31.46,31.46V67.3Z" style="fill:#d1ecf2;opacity:0.4"/><polygon points="354.22 8.6 308.67 52.02 308.67 38.2 343.14 5.28 354.22 8.6" style="fill:#fff;opacity:0.65"/><polygon points="360.32 12.61 308.67 61.51 308.67 57.81 358.18 10.96 360.32 12.61" style="fill:#fff;opacity:0.65"/><path d="M371.6,67.3V36.73A31.47,31.47,0,0,0,340.13,5.27h0a31.47,31.47,0,0,0-31.46,31.47V67.11" style="fill:none;stroke:#7d3990;stroke-miterlimit:10"/><path d="M168.77,122.46,141.06,94.74a24.46,24.46,0,0,0-34.59,0h0a24.46,24.46,0,0,0,0,34.59l27.72,27.72Z" style="fill:#d1ecf2;opacity:0.4"/><polygon points="116.03 88.82 114.87 137.73 107.27 130.13 108.13 93.09 116.03 88.82" style="fill:#fff;opacity:0.65"/><polygon points="121.59 87.68 120.08 142.95 118.05 140.91 119.51 87.95 121.59 87.68" style="fill:#fff;opacity:0.65"/><path d="M168.78,122.46,141.05,94.74a24.45,24.45,0,0,0-34.58,0h0a24.44,24.44,0,0,0,0,34.59l27.61,27.61" style="fill:none;stroke:#7d3990;stroke-miterlimit:10"/><polyline points="65.72 343.53 22.05 343.53 5.85 327.25 22.05 310.96 65.72 310.96" style="fill:#ee2a7b;stroke:#7d3990;stroke-miterlimit:10"/><polyline points="65.72 327.27 22.05 327.27 5.85 327.25 22.05 310.96 65.72 310.96" style="fill:#fce9f1;stroke:#7d3990;stroke-linejoin:bevel"/><polyline points="28.95 343.53 65.72 343.53 65.72 310.96 28.95 310.96" style="fill:none;stroke:#7d3990;stroke-miterlimit:10"/><polyline points="65.72 320.45 26.08 320.45 19.32 327.25 26.07 334.05 65.72 334.05" style="fill:#e9b7d5;stroke:#7d3990;stroke-miterlimit:10"/><line x1="26.07" y1="334.05" x2="22.05" y2="343.53" style="fill:none;stroke:#7d3990;stroke-miterlimit:10"/><line x1="19.32" y1="327.25" x2="5.85" y2="327.25" style="fill:none;stroke:#7d3990;stroke-miterlimit:10"/><line x1="26.08" y1="320.45" x2="22.05" y2="310.96" style="fill:none;stroke:#7d3990;stroke-miterlimit:10"/><polygon points="65.72 341.34 65.72 313.15 73.33 319.65 73.33 334.85 65.72 341.34" style="fill:#ee2a7b;stroke:#7d3990;stroke-miterlimit:10"/><polygon points="37.66 310.96 40.23 305.54 62.95 298.17 62.95 310.96 37.66 310.96" style="fill:#fce9f1;stroke:#7d3990;stroke-miterlimit:10"/><polygon points="37.66 343.53 40.23 348.96 62.95 356.33 62.95 343.53 37.66 343.53" style="fill:#ee2a7b;stroke:#7d3990;stroke-miterlimit:10"/><path d="M120.39,205.66a42.1,42.1,0,1,1-59-57.92A66.16,66.16,0,1,0,124,165.56,42.07,42.07,0,0,1,120.39,205.66Z" style="fill:#fde9f1"/><path
                d="M95.15,633.77c-132.19-42.95,44-167,5.12-250.5-86.91-186.6,113.65-116.64,90.65-206.1-23.21-90.23,11.59-144.09,159.85-72.52s124.81-9.51,276.06-20.76c130.36-9.69-209.6,169-48.57,225.25C734.07,363.55,825.72,529.57,453,514.65,281.49,507.79,166,656.78,95.15,633.77Z"
                style="fill:#475290"/><path
                d="M578.26,309.14c-161-56.23,178.93-234.94,48.57-225.25C475.58,95.14,499,176.22,350.77,104.65S167.71,86.94,190.92,177.17c23,89.46-177.56,19.5-90.65,206.1C139.17,466.8-37,590.82,95.15,633.77c70.81,23,186.34-126,357.88-119.12C825.72,529.57,734.07,363.55,578.26,309.14Z"
                style="mix-blend-mode:multiply;fill:url(#linear-gradient)"/><polyline points="199.75 221.56 163.64 185.45 166.52 182.57 202.63 218.67" style="fill:#fff"/><polyline points="229.88 191.43 193.77 155.32 197 152.08 233.11 188.19" style="fill:#fff"/><rect x="137.79" y="134.3" width="56.75" height="40.28" transform="translate(-60.54 162.73) rotate(-45)" style="fill:#e9b7d5"/><line x1="144.78" y1="158.29" x2="151.54" y2="165.05" style="fill:#ee2a7b;stroke:#7d3990;stroke-miterlimit:10"/><line x1="147.31" y1="155.76" x2="154.07" y2="162.52" style="fill:#ee2a7b;stroke:#7d3990;stroke-miterlimit:10"/><line x1="149.83" y1="153.23" x2="156.6" y2="160" style="fill:#ee2a7b;stroke:#7d3990;stroke-miterlimit:10"/><line x1="152.36" y1="150.7" x2="159.13" y2="157.47" style="fill:#ee2a7b;stroke:#7d3990;stroke-miterlimit:10"/><line x1="154.89" y1="148.17" x2="161.66" y2="154.94" style="fill:#ee2a7b;stroke:#7d3990;stroke-miterlimit:10"/><polyline points="157.82 171.46 157.82 169.4 159.88 169.4" style="fill:#ee2a7b;stroke:#7d3990;stroke-miterlimit:10"/><circle cx="160.57" cy="172.15" r="3.16" style="fill:#fff;stroke:#7d3990;stroke-miterlimit:10"/><polyline points="166.98 161.69 168.43 160.22 169.9 161.67" style="fill:#ee2a7b;stroke:#7d3990;stroke-miterlimit:10"/><circle cx="168.46" cy="164.11" r="3.16" style="fill:#fff;stroke:#7d3990;stroke-miterlimit:10"/><rect x="174.31" y="137.09" width="6.02" height="6.02" transform="translate(-47.13 166.42) rotate(-45)" style="fill:#fff"/><rect x="174.62" y="145.31" width="6.02" height="6.02" transform="translate(-52.85 169.04) rotate(-45)" style="fill:#fff"/><rect x="172.27" y="314.62" width="108.99" height="25.28" style="fill:#fff;opacity:0.8"/><polygon points="171.66 310.4 171.66 345.38 177.59 343.01 177.59 313.7 171.66 310.4" style="fill:#e6cae2;stroke:#7c3990;stroke-miterlimit:10"/><polygon points="285.73 345.38 285.73 310.4 280.35 312.77 280.35 342.08 285.73 345.38" style="fill:#e6cae2"/><rect x="395.01" y="314.62" width="108.99" height="25.28" style="fill:#fff;opacity:0.8"/><polygon points="394.8 310.4 394.8 345.38 400.33 343.01 400.33 313.7 394.8 310.4" style="fill:#e6cae2"/><polygon points="509.02 345.38 509.02 310.4 503.09 312.77 503.09 342.08 509.02 345.38" style="fill:#e6cae2;stroke:#7c3990;stroke-miterlimit:10"/><path
                d="M302.83,368c-2.49,2.49-5.32-.33-7.82,2.16s.34,5.32-2.16,7.82-5.32-.33-7.82,2.16.33,5.33-2.16,7.82-5.32-.33-7.82,2.16.34,5.32-2.16,7.82-5.32-.33-7.82,2.16.34,5.32-2.16,7.82-5.32-.33-7.82,2.16.33,5.33-2.16,7.82-5.33-.33-7.82,2.17.33,5.32-2.17,7.82-5.32-.33-7.82,2.16.33,5.33-2.16,7.82-5.33-.32-7.83,2.18.33,5.32-2.17,7.82"
                style="fill:none;stroke:#fff;stroke-miterlimit:10"/><path
                d="M460.88,210c-2.49,2.49-5.32-.33-7.82,2.16s.34,5.32-2.16,7.82-5.32-.33-7.82,2.16.33,5.33-2.16,7.82-5.32-.33-7.82,2.16.34,5.32-2.16,7.82-5.32-.34-7.81,2.16.33,5.32-2.17,7.82-5.32-.34-7.82,2.16.34,5.33-2.16,7.82-5.33-.33-7.82,2.17.33,5.32-2.17,7.82-5.32-.33-7.82,2.16.33,5.33-2.16,7.82-5.33-.32-7.83,2.17.33,5.33-2.17,7.83"
                style="fill:none;stroke:#fff;stroke-miterlimit:10"/><path
                d="M381,365.19c2.49,2.5-.34,5.32,2.16,7.82s5.32-.33,7.82,2.16-.33,5.33,2.16,7.82,5.33-.33,7.82,2.16-.33,5.33,2.16,7.82,5.32-.33,7.82,2.16-.34,5.32,2.16,7.82,5.32-.34,7.82,2.16-.34,5.32,2.16,7.82,5.33-.33,7.82,2.16-.33,5.33,2.17,7.82,5.32-.33,7.82,2.17-.34,5.32,2.16,7.82,5.33-.33,7.82,2.17-.33,5.32,2.17,7.82,5.33-.33,7.83,2.17"
                style="fill:none;stroke:#fff;stroke-miterlimit:10"/><path
                d="M223,207.14c2.49,2.5-.34,5.32,2.16,7.82s5.32-.33,7.82,2.16-.33,5.33,2.16,7.82,5.33-.33,7.82,2.16-.33,5.33,2.16,7.82,5.32-.33,7.82,2.16-.34,5.32,2.16,7.82,5.32-.34,7.82,2.16-.34,5.32,2.16,7.82,5.32-.33,7.82,2.16-.33,5.33,2.16,7.82,5.33-.33,7.83,2.17-.34,5.32,2.16,7.82,5.33-.33,7.82,2.17-.33,5.32,2.17,7.82,5.33-.33,7.83,2.17"
                style="fill:none;stroke:#fff;stroke-miterlimit:10"/><path
                d="M341.5,410.25c0,3.53-3.44,4.31-3.44,7.84s4.89,3.53,4.89,7.06-4.89,3.52-4.89,7.05,4.89,3.53,4.89,7.06-4.89,3.53-4.89,7.06,4.89,3.52,4.89,7.05-4.89,3.53-4.89,7.06S343,464,343,467.5s-4.89,3.52-4.89,7.05,4.89,3.53,4.89,7.07-4.89,3.53-4.89,7.07,4.89,3.53,4.89,7.06"
                style="fill:none;stroke:#fff;stroke-miterlimit:10"/><path
                d="M343,159.28c0,3.53-4.89,3.53-4.89,7.06s4.89,3.52,4.89,7-4.89,3.53-4.89,7.06S343,184,343,187.51s-4.89,3.53-4.89,7.06,4.89,3.53,4.89,7.06-4.89,3.53-4.89,7.05,4.89,3.53,4.89,7.06-4.89,3.53-4.89,7.06,4.89,3.53,4.89,7.06-4.89,3.53-4.89,7.06,3.76,5.85,3.76,9.38"
                style="fill:none;stroke:#fff;stroke-miterlimit:10"/><polyline points="163.66 351.24 112.6 351.24 112.6 347.15 163.66 347.15" style="fill:#fff"/><rect x="64.08" y="307.38" width="56.75" height="40.28" transform="translate(-235.06 419.97) rotate(-90)" style="fill:#ee2a7b"/><polyline points="163.66 308.62 112.6 308.62 112.6 304.05 163.66 304.05" style="fill:#fff"/><path
                d="M163.66,304.54v-1H113.1v-4.9H71.82v57.75H113.1v-4.66h50.56v-1H113.1v-3.08h50.56v-1h-4.37L148,327.89l11.33-18.77h4.37v-1H113.1v-3.58Zm-39.43,24.31L135,346.65h-21.5ZM113.1,345.36V310.42l10.55,17.47Zm11.72-17.47,10.55-17.47v34.94Zm11.55-17.27,10.42,17.27-10.42,17.26Zm-12.14,16.3-10.75-17.8H135ZM112.1,355.39H72.82V299.64H112.1v55.75Zm46-8.74H136.63l10.75-17.8Zm-10.74-19.73-10.75-17.8h21.49Z"
                style="fill:#7d3990"/><line x1="80.05" y1="345.36" x2="89.62" y2="345.36" style="fill:#ee2a7b;stroke:#7d3990;stroke-miterlimit:10"/><line x1="80.05" y1="341.79" x2="89.62" y2="341.79" style="fill:#ee2a7b;stroke:#7d3990;stroke-miterlimit:10"/><line x1="80.05" y1="338.21" x2="89.62" y2="338.21" style="fill:#ee2a7b;stroke:#7d3990;stroke-miterlimit:10"/><line x1="80.05" y1="334.63" x2="89.62" y2="334.63" style="fill:#ee2a7b;stroke:#7d3990;stroke-miterlimit:10"/><line x1="80.05" y1="331.06" x2="89.62" y2="331.06" style="fill:#ee2a7b;stroke:#7d3990;stroke-miterlimit:10"/><polyline points="101.16 346.7 99.23 347.44 98.49 345.52" style="fill:#ee2a7b;stroke:#7d3990;stroke-miterlimit:10"/><circle cx="100.8" cy="343.88" r="3.16" style="fill:#e9b7d5;stroke:#7d3990;stroke-miterlimit:10"/><polyline points="103 331.21 104.32 332.8 102.73 334.12" style="fill:#ee2a7b;stroke:#7d3990;stroke-miterlimit:10"/><circle cx="100.45" cy="332.45" r="3.16" style="fill:#e9b7d5;stroke:#7d3990;stroke-miterlimit:10"/><rect x="81.04" y="312.41" width="6.02" height="6.02" transform="translate(-231.37 399.48) rotate(-90)" style="fill:#fce9f1"/><rect x="93.21" y="306.57" width="6.02" height="6.02" transform="translate(-213.36 405.8) rotate(-90)" style="fill:#fce9f1"/><rect x="93.21" y="311.91" width="6.02" height="6.02" transform="translate(-218.71 411.14) rotate(-90)" style="fill:#fce9f1"/><polyline points="365.78 504.18 365.78 533.87 361.44 533.87 361.44 504.18" style="fill:#fff"/><polyline points="320.37 504.18 320.37 533.87 315.49 533.87 315.49 504.18" style="fill:#fff"/><rect x="310.26" y="533.87" width="60.49" height="42.93" transform="translate(681.01 1110.67) rotate(180)" style="fill:#ee2a7b"/><path
                d="M366.28,533.37V504.18h-1v29.19h-3.35V504.18h-1v4.61l-20,12.1-20-12.1v-4.61h-1v29.19H316V504.18h-1v29.19h-5.23V577.3h61.49V533.37ZM360.93,510v23l-19.06-11.52Zm-1.29,23.41H322.16l18.74-11.31Zm-19.71-11.9L320.87,533V510Zm30.32,54.83H310.76V534.37h59.49Z"
                style="fill:#7d3990"/><line x1="370.75" y1="533.87" x2="310.26" y2="533.87" style="fill:#ee2a7b;stroke:#7d3990;stroke-miterlimit:10"/><line x1="359.52" y1="568.56" x2="359.52" y2="558.36" style="fill:#ee2a7b;stroke:#7d3990;stroke-miterlimit:10"/><line x1="355.71" y1="568.56" x2="355.71" y2="558.36" style="fill:#ee2a7b;stroke:#7d3990;stroke-miterlimit:10"/><line x1="351.9" y1="568.56" x2="351.9" y2="558.36" style="fill:#ee2a7b;stroke:#7d3990;stroke-miterlimit:10"/><line x1="348.09" y1="568.56" x2="348.09" y2="558.36" style="fill:#ee2a7b;stroke:#7d3990;stroke-miterlimit:10"/><line x1="344.28" y1="568.56" x2="344.28" y2="558.36" style="fill:#ee2a7b;stroke:#7d3990;stroke-miterlimit:10"/><polyline points="359.63 548.8 358.07 550.35 356.51 548.8" style="fill:#ee2a7b;stroke:#7d3990;stroke-miterlimit:10"/><circle cx="358.07" cy="546.21" r="3.37" style="fill:#e9b7d5;stroke:#7d3990;stroke-miterlimit:10"/><polyline points="345.36 549.26 343.16 549.28 343.14 547.08" style="fill:#ee2a7b;stroke:#7d3990;stroke-miterlimit:10"/><circle cx="346.07" cy="546.32" r="3.37" style="fill:#e9b7d5;stroke:#7d3990;stroke-miterlimit:10"/><rect x="318.18" y="561.08" width="6.42" height="6.42" transform="translate(642.78 1128.59) rotate(180)" style="fill:#fce9f1"/><rect x="318.18" y="548.12" width="6.42" height="6.42" transform="translate(642.78 1102.66) rotate(180)" style="fill:#fce9f1"/><rect x="324.41" y="541.6" width="6.42" height="6.42" transform="translate(655.23 1089.63) rotate(180)" style="fill:#e9b7d5"/><rect x="324.41" y="554.54" width="6.42" height="6.42" transform="translate(655.23 1115.51) rotate(180)" style="fill:#e9b7d5"/><line x1="317.8" y1="561.08" x2="330.83" y2="561.08" style="fill:#ee2a7b;stroke:#7d3990;stroke-miterlimit:10"/><line x1="317.8" y1="554.49" x2="330.83" y2="554.49" style="fill:#ee2a7b;stroke:#7d3990;stroke-miterlimit:10"/><line x1="324.3" y1="567.5" x2="324.3" y2="541.46" style="fill:#ee2a7b;stroke:#7d3990;stroke-miterlimit:10"/><line x1="317.8" y1="547.9" x2="330.83" y2="547.9" style="fill:#ee2a7b;stroke:#7d3990;stroke-miterlimit:10"/><rect x="317.8" y="541.3" width="13.03" height="26.2" transform="translate(648.62 1108.81) rotate(180)" style="fill:none;stroke:#7d3990;stroke-miterlimit:10"/><polyline points="316.79 150.1 316.79 99.04 320.87 99.04 320.87 150.1" style="fill:#fff"/><polyline points="359.4 150.1 359.4 99.04 363.98 99.04 363.98 150.1" style="fill:#fff"/><rect x="301.12" y="61.14" width="78.76" height="37.9" style="fill:#ee2a7b"/><path
                d="M380.39,60.64H300.62v38.9h15.67V150.1h1V99.54h3.08V150.1h1v-4.37l18.77-11.33,18.76,11.33v4.37h1V99.54h3.58V150.1h1V99.54h15.91Zm-57.73,61.17,17.48-10.55,17.47,10.55Zm-1.29-.39V99.93l17.8,10.74Zm36,1.39-17.26,10.42-17.27-10.42Zm-16.3-12.14,17.8-10.74v21.49Zm-1-.58L322.66,99.54h34.95Zm-18.77,34.48v-21.5l17.8,10.75Zm19.73-10.75,17.8-10.75v21.5Zm38.29-35.28H301.62V61.64h77.77Z"
                style="fill:#7d3990"/><line x1="315.74" y1="68.88" x2="315.74" y2="77.15" style="fill:#ee2a7b;stroke:#7d3990;stroke-miterlimit:10"/><line x1="320.7" y1="68.88" x2="320.7" y2="77.15" style="fill:#ee2a7b;stroke:#7d3990;stroke-miterlimit:10"/><line x1="325.66" y1="68.88" x2="325.66" y2="77.15" style="fill:#ee2a7b;stroke:#7d3990;stroke-miterlimit:10"/><line x1="330.63" y1="68.88" x2="330.63" y2="77.15" style="fill:#ee2a7b;stroke:#7d3990;stroke-miterlimit:10"/><line x1="335.59" y1="68.88" x2="335.59" y2="77.15" style="fill:#ee2a7b;stroke:#7d3990;stroke-miterlimit:10"/><polyline points="315.61 83.6 317.64 81.58 319.66 83.6" style="fill:#ee2a7b;stroke:#7d3990;stroke-miterlimit:10"/><circle cx="317.64" cy="86.97" r="4.38" style="fill:#e9b7d5;stroke:#7d3990;stroke-miterlimit:10"/><polyline points="334.18 83 337.05 82.98 337.07 85.85" style="fill:#ee2a7b;stroke:#7d3990;stroke-miterlimit:10"/><circle cx="333.26" cy="86.83" r="4.38" style="fill:#e9b7d5;stroke:#7d3990;stroke-miterlimit:10"/><rect x="353.11" y="67.25" width="8.36" height="8.36" style="fill:#fce9f1"/><rect x="361.22" y="84.13" width="8.36" height="8.36" style="fill:#fce9f1"/><line x1="370.07" y1="75.61" x2="353.11" y2="75.61" style="fill:#ee2a7b;stroke:#7d3990;stroke-miterlimit:10"/><line x1="370.07" y1="84.19" x2="353.11" y2="84.19" style="fill:#ee2a7b;stroke:#7d3990;stroke-miterlimit:10"/><line x1="361.6" y1="67.25" x2="361.6" y2="92.49" style="fill:#ee2a7b;stroke:#7d3990;stroke-miterlimit:10"/><rect x="353.11" y="67.25" width="16.96" height="25.24" style="fill:none;stroke:#7d3990;stroke-miterlimit:10"/><polygon points="611.37 412.77 603.81 420.29 603.81 422.95 603.81 434.12 603.81 435.39 611.37 442.91 618.93 435.39 618.93 434.12 618.93 422.95 618.93 420.29 611.37 412.77" style="fill:#ee2c7b"/><polyline points="611.37 412.77 603.81 420.29 603.81 422.95 603.81 434.12 603.81 435.39 611.37 442.91" style="fill:#f6ebf4;stroke:#7d3990;stroke-miterlimit:10"/><polygon points="611.37 419.02 608.22 422.16 608.22 422.95 608.22 433.01 608.22 433.52 611.37 436.66 614.53 433.52 614.53 433.01 614.53 422.95 614.53 422.15 611.37 419.02" style="fill:#e6cbe2"/><path
                d="M611.37,412.06l-8.06,8V435.6l8.06,8,8.06-8V420.08Zm3.27,9.5-2.77-2.75V414l6.18,6.15ZM611.37,436l-2.65-2.65V422.36l2.65-2.64,2.66,2.64v11Zm-.5-17.15-2.77,2.75-3.41-1.44,6.18-6.15Zm-3.15,3.68v10.7l-3.41,1.45V421Zm.38,11.62,2.77,2.76v4.84l-6.18-6.15Zm3.77,2.76,2.77-2.75,3.41,1.44-6.18,6.15Zm3.16-3.68v-10.7l3.4-1.45v13.6Z"
                style="fill:#7d3990"/><polygon points="392.14 422.86 387.14 427.84 387.14 429.6 387.14 437 387.14 437.85 392.14 442.82 397.15 437.85 397.15 437 397.15 429.6 397.15 427.84 392.14 422.86" style="fill:#ee2c7b;stroke:#7c3990;stroke-miterlimit:10"/><polyline points="392.14 422.86 387.14 427.84 387.14 429.6 387.14 437 387.14 437.85 392.14 442.82" style="fill:#f6ebf4;stroke:#7d3990;stroke-miterlimit:10"/><line x1="394.23" y1="436.61" x2="397.15" y2="437.84" style="fill:none;stroke:#7d3990;stroke-miterlimit:10"/><line x1="392.14" y1="438.68" x2="392.14" y2="442.82" style="fill:none;stroke:#7d3990;stroke-miterlimit:10"/><line x1="390.05" y1="436.61" x2="387.14" y2="437.84" style="fill:none;stroke:#7d3990;stroke-miterlimit:10"/><line x1="394.23" y1="429.08" x2="397.15" y2="427.84" style="fill:none;stroke:#7d3990;stroke-miterlimit:10"/><line x1="392.14" y1="427" x2="392.14" y2="422.86" style="fill:none;stroke:#7d3990;stroke-miterlimit:10"/><line x1="390.05" y1="429.08" x2="387.14" y2="427.84" style="fill:none;stroke:#7d3990;stroke-miterlimit:10"/><polygon points="392.14 427 390.05 429.08 390.05 429.6 390.05 436.27 390.05 436.61 392.14 438.68 394.23 436.61 394.23 436.27 394.23 429.6 394.23 429.08 392.14 427" style="fill:#e6cbe2;stroke:#7d3990;stroke-miterlimit:10"/><polygon points="525.9 202.03 520.9 207.01 520.9 208.77 520.9 216.16 520.9 217.01 525.9 221.99 530.91 217.01 530.91 216.16 530.91 208.77 530.91 207.01 525.9 202.03" style="fill:#ee2c7b;stroke:#7c3990;stroke-miterlimit:10"/><polyline points="525.9 202.03 520.9 207.01 520.9 208.77 520.9 216.16 520.9 217.01 525.9 221.99" style="fill:#f6ebf4;stroke:#7d3990;stroke-miterlimit:10"/><line x1="527.99" y1="215.77" x2="530.91" y2="217.01" style="fill:none;stroke:#7d3990;stroke-miterlimit:10"/><line x1="525.9" y1="217.85" x2="525.9" y2="221.99" style="fill:none;stroke:#7d3990;stroke-miterlimit:10"/><line x1="523.81" y1="215.77" x2="520.9" y2="217.01" style="fill:none;stroke:#7d3990;stroke-miterlimit:10"/><line x1="527.99" y1="208.24" x2="530.91" y2="207.01" style="fill:none;stroke:#7d3990;stroke-miterlimit:10"/><line x1="525.9" y1="206.17" x2="525.9" y2="202.03" style="fill:none;stroke:#7d3990;stroke-miterlimit:10"/><line x1="523.81" y1="208.25" x2="520.9" y2="207.01" style="fill:none;stroke:#7d3990;stroke-miterlimit:10"/><polygon points="525.9 206.17 523.81 208.25 523.81 208.77 523.81 215.44 523.81 215.77 525.9 217.85 527.99 215.78 527.99 215.44 527.99 208.77 527.99 208.25 525.9 206.17" style="fill:#e6cbe2;stroke:#7d3990;stroke-miterlimit:10"/><polygon points="389.85 188.56 382.02 196.35 382.02 199.11 382.02 210.68 382.02 212.01 389.85 219.8 397.68 212.01 397.68 210.68 397.68 199.11 397.68 196.35 389.85 188.56" style="fill:#ee2c7b;stroke:#7c3990;stroke-miterlimit:10"/><polyline points="389.85 188.56 382.02 196.35 382.02 199.11 382.02 210.68 382.02 212.01 389.85 219.8" style="fill:#f6ebf4;stroke:#7d3990;stroke-miterlimit:10"/><line x1="393.12" y1="210.07" x2="397.68" y2="212.01" style="fill:none;stroke:#7d3990;stroke-miterlimit:10"/><line x1="389.85" y1="213.32" x2="389.85" y2="219.8" style="fill:none;stroke:#7d3990;stroke-miterlimit:10"/><line x1="386.58" y1="210.07" x2="382.02" y2="212.01" style="fill:none;stroke:#7d3990;stroke-miterlimit:10"/><line x1="393.12" y1="198.29" x2="397.68" y2="196.35" style="fill:none;stroke:#7d3990;stroke-miterlimit:10"/><line x1="389.85" y1="195.04" x2="389.85" y2="188.56" style="fill:none;stroke:#7d3990;stroke-miterlimit:10"/><line x1="386.58" y1="198.29" x2="382.02" y2="196.35" style="fill:none;stroke:#7d3990;stroke-miterlimit:10"/><polygon points="389.85 195.04 386.58 198.29 386.58 199.11 386.58 209.54 386.58 210.07 389.85 213.32 393.12 210.07 393.12 209.54 393.12 199.11 393.12 198.29 389.85 195.04" style="fill:#e6cbe2;stroke:#7d3990;stroke-miterlimit:10"/><polygon points="204.74 532.56 201.29 535.99 201.29 537.21 201.29 542.3 201.29 542.88 204.74 546.31 208.19 542.88 208.19 542.3 208.19 537.21 208.19 535.99 204.74 532.56" style="fill:#ee2c7b;stroke:#7c3990;stroke-miterlimit:10"/><polyline points="204.74 532.56 201.29 535.99 201.29 537.21 201.29 542.3 201.29 542.88 204.74 546.31" style="fill:#f6ebf4;stroke:#7d3990;stroke-miterlimit:10"/><line x1="206.18" y1="542.03" x2="208.18" y2="542.88" style="fill:none;stroke:#7d3990;stroke-miterlimit:10"/><line x1="204.74" y1="543.46" x2="204.74" y2="546.31" style="fill:none;stroke:#7d3990;stroke-miterlimit:10"/><line x1="203.3" y1="542.03" x2="201.29" y2="542.88" style="fill:none;stroke:#7d3990;stroke-miterlimit:10"/><line x1="206.18" y1="536.84" x2="208.18" y2="535.99" style="fill:none;stroke:#7d3990;stroke-miterlimit:10"/><line x1="204.74" y1="535.41" x2="204.74" y2="532.56" style="fill:none;stroke:#7d3990;stroke-miterlimit:10"/><line x1="203.3" y1="536.84" x2="201.29" y2="535.99" style="fill:none;stroke:#7d3990;stroke-miterlimit:10"/><polygon points="204.74 535.41 203.3 536.85 203.3 537.21 203.3 541.79 203.3 542.03 204.74 543.46 206.18 542.03 206.18 541.79 206.18 537.21 206.18 536.84 204.74 535.41" style="fill:#e6cbe2;stroke:#7d3990;stroke-miterlimit:10"/><polygon points="28.95 417.22 19.44 426.67 19.44 430.02 19.44 453.23 19.44 454.83 28.95 464.29 38.46 454.83 38.46 453.23 38.46 430.02 38.46 426.67 28.95 417.22" style="fill:#ee2c7b;stroke:#7c3990;stroke-miterlimit:10"/><polyline points="28.95 417.22 19.44 426.67 19.44 430.02 19.44 453.23 19.44 454.83 28.95 464.29" style="fill:#f6ebf4;stroke:#7d3990;stroke-miterlimit:10"/><line x1="32.92" y1="452.48" x2="38.46" y2="454.83" style="fill:none;stroke:#7d3990;stroke-miterlimit:10"/><line x1="28.95" y1="456.43" x2="28.95" y2="464.29" style="fill:none;stroke:#7d3990;stroke-miterlimit:10"/><line x1="24.98" y1="452.48" x2="19.44" y2="454.83" style="fill:none;stroke:#7d3990;stroke-miterlimit:10"/><line x1="32.92" y1="429.02" x2="38.46" y2="426.67" style="fill:none;stroke:#7d3990;stroke-miterlimit:10"/><line x1="28.95" y1="425.08" x2="28.95" y2="417.22" style="fill:none;stroke:#7d3990;stroke-miterlimit:10"/><line x1="24.98" y1="429.03" x2="19.44" y2="426.67" style="fill:none;stroke:#7d3990;stroke-miterlimit:10"/><polygon points="28.95 425.08 24.98 429.03 24.98 430.02 24.98 451.84 24.98 452.48 28.95 456.43 32.92 452.48 32.92 451.84 32.92 430.02 32.92 429.02 28.95 425.08" style="fill:#e6cbe2;stroke:#7d3990;stroke-miterlimit:10"/><path d="M160.61,511.25l-2.17-2.16a17.83,17.83,0,1,0-25.21,25.21l2.16,2.17" style="fill:#f2cd7b;stroke:#7c3990;stroke-miterlimit:10"/>
            <g style="clip-path:url(#clip-path-2)"><line x1="120.79" y1="520.67" x2="133.65" y2="533.53" style="fill:#f5ebf4;stroke:#7d3990;stroke-linejoin:bevel"/><line x1="122.71" y1="518.75" x2="135.57" y2="531.61" style="fill:#f5ebf4;stroke:#7d3990;stroke-linejoin:bevel"/><line x1="124.64" y1="516.82" x2="137.5" y2="529.68" style="fill:#f5ebf4;stroke:#7d3990;stroke-linejoin:bevel"/><line x1="126.56" y1="514.9" x2="139.42" y2="527.76" style="fill:#f5ebf4;stroke:#7d3990;stroke-linejoin:bevel"/><line x1="128.48" y1="512.98" x2="141.34" y2="525.84" style="fill:#f5ebf4;stroke:#7d3990;stroke-linejoin:bevel"/><line x1="130.4" y1="511.06" x2="143.26" y2="523.92" style="fill:#f5ebf4;stroke:#7d3990;stroke-linejoin:bevel"/><line x1="132.32" y1="509.14" x2="145.18" y2="522" style="fill:#f5ebf4;stroke:#7d3990;stroke-linejoin:bevel"/><line x1="134.24" y1="507.22" x2="147.1" y2="520.08" style="fill:#f5ebf4;stroke:#7d3990;stroke-linejoin:bevel"/><line x1="136.16" y1="505.3" x2="149.02" y2="518.16" style="fill:#f5ebf4;stroke:#7d3990;stroke-linejoin:bevel"/><line x1="138.08" y1="503.38" x2="150.94" y2="516.24" style="fill:#f5ebf4;stroke:#7d3990;stroke-linejoin:bevel"/><line x1="140.01" y1="501.45" x2="152.87" y2="514.31" style="fill:#f5ebf4;stroke:#7d3990;stroke-linejoin:bevel"/><line x1="141.93" y1="499.53" x2="154.79" y2="512.39" style="fill:#f5ebf4;stroke:#7d3990;stroke-linejoin:bevel"/><line x1="143.85" y1="497.61" x2="156.71" y2="510.47" style="fill:#f5ebf4;stroke:#7d3990;stroke-linejoin:bevel"/><line x1="144.81" y1="496.65" x2="157.67" y2="509.51" style="fill:#f5ebf4;stroke:#7d3990;stroke-linejoin:bevel"/></g><path d="M160.61,536.47a17.83,17.83,0,1,0-25.22,0A17.84,17.84,0,0,0,160.61,536.47Z" style="fill:#efb032;stroke:#7c3990;stroke-miterlimit:10"/><path d="M158.39,534.25a14.69,14.69,0,1,0-20.78,0A14.69,14.69,0,0,0,158.39,534.25Zm-20.78,0a14.69,14.69,0,0,0,20.78-20.78" style="fill:#f2c43c;stroke:#7c3990;stroke-miterlimit:10"/><path d="M158.39,513.47a14.69,14.69,0,0,1-20.78,20.78l-.32-.33A14.7,14.7,0,0,0,158,513.1" style="fill:#f2cd7b;stroke:#7c3990;stroke-miterlimit:10"/><path d="M147.8,532.51l-6.28-6.28a2.95,2.95,0,0,1,4.17-4.17l4.71,4.71" style="fill:none;stroke:#7d3990;stroke-miterlimit:10"/><line x1="146.23" y1="530.94" x2="154.57" y2="522.59" style="fill:none;stroke:#7d3990;stroke-miterlimit:10"/><line x1="142.13" y1="531.57" x2="144.49" y2="529.21" style="fill:none;stroke:#7d3990;stroke-miterlimit:10"/><line x1="139.93" y1="529.36" x2="142.29" y2="527" style="fill:none;stroke:#7d3990;stroke-miterlimit:10"/><line x1="152.84" y1="520.86" x2="155.2" y2="518.5" style="fill:none;stroke:#7d3990;stroke-miterlimit:10"/><line x1="150.64" y1="518.65" x2="153" y2="516.29" style="fill:none;stroke:#7d3990;stroke-miterlimit:10"/><path d="M145.69,522.06a3,3,0,1,1,4.18-4.17l6.28,6.28" style="fill:none;stroke:#7d3990;stroke-miterlimit:10"/><path d="M181,524.6l-17.61,17.61a25.66,25.66,0,0,1-36.27,0h0a25.64,25.64,0,0,1,0-36.27l17.61-17.61Z" style="fill:#d1ecf2;opacity:0.4"/><polygon points="137.12 548.42 135.89 497.14 127.93 505.1 128.82 543.94 137.12 548.42" style="fill:#fff;opacity:0.65"/><polygon points="142.94 549.62 141.36 491.66 139.23 493.8 140.76 549.33 142.94 549.62" style="fill:#fff;opacity:0.65"/><path d="M181,524.6l-17.62,17.62a25.65,25.65,0,0,1-36.27,0h0a25.66,25.66,0,0,1,0-36.27l17.51-17.5" style="fill:none;stroke:#7d3990;stroke-miterlimit:10"/><polyline points="557.94 547.09 560.4 544.62 561.94 539.38 566.77 534.93 569.01 532.69 551.92 518.07 533.85 518.07 531.39 520.54" style="fill:#828a90;stroke:#7c3990;stroke-miterlimit:10"/><polygon points="552.49 548.68 557.9 547.05 559.53 541.63 566.51 535.12 549.42 520.5 531.35 520.5 531.35 538.56 545.97 555.66 552.49 548.68" style="fill:#bac4ca;stroke:#7c3990;stroke-miterlimit:10"/><polygon points="548.77 522.25 563.88 535.17 557.99 540.67 556.5 545.64 551.53 547.13 546.03 553.03 533.1 537.92 533.1 522.25 548.77 522.25" style="fill:#bac4ca"/><polyline points="563.86 535.16 563.88 535.17 563.86 535.19" style="fill:none;stroke:#7c3990;stroke-linecap:round;stroke-linejoin:round"/><polyline points="560.67 538.17 557.99 540.67 557.13 543.53" style="fill:none;stroke:#7c3990;stroke-linecap:round;stroke-linejoin:round;stroke-dasharray:0.05455118045210838,4.364094257354736"/><polyline points="556.5 545.62 556.5 545.64 556.47 545.65" style="fill:none;stroke:#7c3990;stroke-linecap:round;stroke-linejoin:round"/><polyline points="552.29 546.9 551.53 547.13 547.53 551.42" style="fill:none;stroke:#7c3990;stroke-linecap:round;stroke-linejoin:round;stroke-dasharray:0.0545513890683651,4.364110946655273"/><polyline points="546.04 553.01 546.03 553.03 546.01 553.01" style="fill:none;stroke:#7c3990;stroke-linecap:round;stroke-linejoin:round"/><polyline points="543.47 550.04 533.1 537.92 533.1 524.23" style="fill:none;stroke:#7c3990;stroke-linecap:round;stroke-linejoin:round;stroke-dasharray:0.04876390099525452,3.9011120796203613"/><polyline points="533.1 522.28 533.1 522.25 533.13 522.25" style="fill:none;stroke:#7c3990;stroke-linecap:round;stroke-linejoin:round"/><polyline points="537.03 522.25 548.77 522.25 562.38 533.89" style="fill:none;stroke:#7c3990;stroke-linecap:round;stroke-linejoin:round;stroke-dasharray:0.048764269798994064,3.90114164352417"/><polygon points="548.12 524 561.25 535.23 556.45 539.72 555.09 544.24 550.57 545.59 546.08 550.4 534.85 537.27 534.85 524 548.12 524" style="fill:#bac4ca;stroke:#7c3990;stroke-miterlimit:10"/><path d="M553.89,535.2l-5.46,5.46a2.56,2.56,0,1,1-3.62-3.63l4.09-4.09" style="fill:none;stroke:#7d3990;stroke-miterlimit:10"/><line x1="552.52" y1="536.57" x2="545.27" y2="529.31" style="fill:none;stroke:#7d3990;stroke-miterlimit:10"/><line x1="553.07" y1="540.13" x2="551.02" y2="538.07" style="fill:none;stroke:#7d3990;stroke-miterlimit:10"/><line x1="551.15" y1="542.04" x2="549.1" y2="539.99" style="fill:none;stroke:#7d3990;stroke-miterlimit:10"/><line x1="543.76" y1="530.82" x2="541.71" y2="528.77" style="fill:none;stroke:#7d3990;stroke-miterlimit:10"/><line x1="541.85" y1="532.74" x2="539.79" y2="530.68" style="fill:none;stroke:#7d3990;stroke-miterlimit:10"/><path d="M544.81,537a2.57,2.57,0,0,1-3.63-3.63l5.46-5.45" style="fill:none;stroke:#7d3990;stroke-miterlimit:10"/><polygon points="546.99 549.43 536.19 536.66 536.19 524 534.85 524 534.85 537.27 546.08 550.4 546.99 549.43" style="fill:#828a90;stroke:#7c3990;stroke-miterlimit:10"/><path d="M548.91,499.78,567.16,518a26.57,26.57,0,0,1,0,37.58h0a26.58,26.58,0,0,1-37.59,0l-18.25-18.25Z" style="fill:#d1ecf2;opacity:0.4"/><polygon points="573.59 545.22 520.45 546.49 528.7 554.74 568.96 553.81 573.59 545.22" style="fill:#fff;opacity:0.65"/><polygon points="574.84 539.18 514.78 540.82 516.99 543.03 574.54 541.44 574.84 539.18" style="fill:#fff;opacity:0.65"/><path d="M548.91,499.77,567.16,518a26.58,26.58,0,0,1,0,37.59h0a26.57,26.57,0,0,1-37.58,0l-18.15-18.15" style="fill:none;stroke:#7d3990;stroke-miterlimit:10"/><polygon points="251.39 107.05 241.88 116.5 241.88 119.86 241.88 125.96 241.88 127.57 251.39 137.02 260.9 127.57 260.9 125.96 260.9 119.86 260.9 116.5 251.39 107.05" style="fill:#ee2c7b;stroke:#7c3990;stroke-miterlimit:10"/><polyline points="251.39 107.05 241.88 116.5 241.88 119.86 241.88 125.96 241.88 127.57 251.39 137.02" style="fill:#f6ebf4;stroke:#7d3990;stroke-miterlimit:10"/><line x1="255.36" y1="125.22" x2="260.9" y2="127.57" style="fill:none;stroke:#7d3990;stroke-miterlimit:10"/><line x1="251.39" y1="129.16" x2="251.39" y2="137.02" style="fill:none;stroke:#7d3990;stroke-miterlimit:10"/><line x1="247.42" y1="125.21" x2="241.88" y2="127.57" style="fill:none;stroke:#7d3990;stroke-miterlimit:10"/><line x1="255.36" y1="118.86" x2="260.9" y2="116.51" style="fill:none;stroke:#7d3990;stroke-miterlimit:10"/><line x1="251.39" y1="114.91" x2="251.39" y2="107.05" style="fill:none;stroke:#7d3990;stroke-miterlimit:10"/><line x1="247.42" y1="118.86" x2="241.88" y2="116.51" style="fill:none;stroke:#7d3990;stroke-miterlimit:10"/><polygon points="251.39 114.91 247.42 118.86 247.42 119.86 247.42 124.57 247.42 125.21 251.39 129.16 255.36 125.22 255.36 124.57 255.36 119.86 255.36 118.86 251.39 114.91" style="fill:#e6cbe2;stroke:#7d3990;stroke-miterlimit:10"/><path d="M87,557.75A16,16,0,0,0,72.11,568a4.24,4.24,0,0,0,4,5.73H97.92a4.24,4.24,0,0,0,4-5.73A16,16,0,0,0,87,557.75Z" style="fill:#fff"/><path d="M229,271a19,19,0,0,0-13.43,5.54,6,6,0,0,1-9.26-.93,26.16,26.16,0,0,0-44.66,1.77,5.81,5.81,0,0,1-7.87,2.12A11.95,11.95,0,0,0,137.93,284a4,4,0,0,0,3.5,6H243a4.39,4.39,0,0,0,4.2-5.69A19.06,19.06,0,0,0,229,271Z" style="fill:#fff"/><polyline points="481.69 435.13 519.38 472.82 516.37 475.83 478.68 438.14" style="fill:#fff"/><polyline points="450.24 466.59 487.93 504.27 484.55 507.65 446.86 469.96" style="fill:#fff"/><rect x="487.12" y="484.17" width="59.24" height="42.04" transform="translate(1239.35 497.03) rotate(135)" style="fill:#fce9f1"/><path
                d="M522.82,468.68l-3.44,3.44L482,434.78l-.7.71,37.33,37.33-2.3,2.31L479,437.79l-.7.71,3.23,3.23L476.07,464l-22.25,5.5-3.23-3.24-.71.71,37.34,37.33-2.67,2.67-37.34-37.33-.7.71,37.33,37.33-3.62,3.62,30.44,30.44,42.59-42.6Zm-51,16.64,5.07-20.52,20.53-5.07Zm26.46-25-5.13,20.77-20.77,5.13Zm1.19-.64,15.92,15.92-21.15,5.22Zm15.28,17.11-25.91,25.9L494,481.88Zm-32.37-34.19,15.93,15.92-21.15,5.22Zm-6.59,22.51-5.22,21.14-15.92-15.92Zm-4.06,22.3,21.15-5.22-5.23,21.14Zm9.91,23.9,2.91-2.91,4.08-4.09,27.74-27.73,3.72-3.72,2.73-2.73,29,29-41.18,41.18Z"
                style="fill:#7d3990"/><line x1="539.07" y1="501.18" x2="532" y2="494.11" style="fill:#ee2a7b;stroke:#7d3990;stroke-miterlimit:10"/><line x1="536.43" y1="503.82" x2="529.36" y2="496.75" style="fill:#ee2a7b;stroke:#7d3990;stroke-miterlimit:10"/><line x1="533.79" y1="506.46" x2="526.72" y2="499.39" style="fill:#ee2a7b;stroke:#7d3990;stroke-miterlimit:10"/><line x1="531.15" y1="509.09" x2="524.09" y2="502.03" style="fill:#ee2a7b;stroke:#7d3990;stroke-miterlimit:10"/><line x1="528.51" y1="511.73" x2="521.45" y2="504.67" style="fill:#ee2a7b;stroke:#7d3990;stroke-miterlimit:10"/><polyline points="525.45 487.43 525.45 489.58 523.3 489.58" style="fill:#ee2a7b;stroke:#7d3990;stroke-miterlimit:10"/><circle cx="522.58" cy="486.71" r="3.3" style="fill:#e9b7d5;stroke:#7d3990;stroke-miterlimit:10"/><polyline points="515.89 497.62 514.38 499.16 512.85 497.64" style="fill:#ee2a7b;stroke:#7d3990;stroke-miterlimit:10"/><circle cx="514.35" cy="495.1" r="3.3" style="fill:#e9b7d5;stroke:#7d3990;stroke-miterlimit:10"/><rect x="510.87" y="517.18" width="6.29" height="6.29" transform="translate(1245.4 524.78) rotate(135)" style="fill:#fce9f1"/><rect x="497.58" y="512.51" width="6.29" height="6.29" transform="translate(1219.41 526.21) rotate(135)" style="fill:#fce9f1"/><rect x="497.38" y="503.69" width="6.29" height="6.29" transform="translate(1212.83 511.29) rotate(135)" style="fill:#e9b7d5"/><line x1="504.99" y1="524.9" x2="514.02" y2="515.88" style="fill:#ee2a7b;stroke:#7d3990;stroke-miterlimit:10"/><line x1="500.43" y1="520.33" x2="509.45" y2="511.31" style="fill:#ee2a7b;stroke:#7d3990;stroke-miterlimit:10"/><line x1="513.94" y1="524.84" x2="495.91" y2="506.8" style="fill:#ee2a7b;stroke:#7d3990;stroke-miterlimit:10"/><line x1="495.86" y1="515.77" x2="504.88" y2="506.74" style="fill:#ee2a7b;stroke:#7d3990;stroke-miterlimit:10"/><rect x="498.5" y="502.93" width="12.76" height="25.66" transform="translate(1226.58 523.46) rotate(135)" style="fill:none;stroke:#7d3990;stroke-miterlimit:10"/><polyline points="238.17 471.14 214.26 495.05 210.72 491.51 234.63 467.61" style="fill:#fff"/><polyline points="201.24 434.21 177.33 458.12 173.37 454.16 197.28 430.25" style="fill:#fff"/><rect x="141.48" y="467.27" width="69.55" height="49.36" transform="translate(-46.97 964.44) rotate(-135)" style="fill:#e9b7d5"/><path
                d="M238.52,471.49l-.7-.7-23.56,23.55-2.83-2.82L235,468l-.71-.71-3.55,3.55-26.21-6.48-6.47-26.21,3.55-3.54-.71-.71-23.56,23.56-3.25-3.26,23.55-23.56-.7-.7-23.56,23.55-4.25-4.25-35.61,35.61L183.4,534.7,219,499.09l-4-4Zm-8.61.13L211,490.54l-6.21-25.12Zm-20.1,18.27L179,459l24.74,6.11Zm-6.38-25.84-25.12-6.2,18.91-18.91Zm14.16,35L183.4,533.28l-48.48-48.47,34.2-34.19,3.54,3.54,4.67,4.67h0L210,491.52l4.24,4.24Z"
                style="fill:#7d3990"/><line x1="218.3" y1="499.09" x2="169.12" y2="449.91" style="fill:#ee2a7b;stroke:#7d3990;stroke-miterlimit:10"/><line x1="180.97" y1="518.16" x2="189.26" y2="509.87" style="fill:#ee2a7b;stroke:#7d3990;stroke-miterlimit:10"/><line x1="177.87" y1="515.07" x2="186.16" y2="506.77" style="fill:#ee2a7b;stroke:#7d3990;stroke-miterlimit:10"/><line x1="174.77" y1="511.97" x2="183.07" y2="503.68" style="fill:#ee2a7b;stroke:#7d3990;stroke-miterlimit:10"/><line x1="171.67" y1="508.87" x2="179.97" y2="500.58" style="fill:#ee2a7b;stroke:#7d3990;stroke-miterlimit:10"/><line x1="168.58" y1="505.77" x2="176.87" y2="497.48" style="fill:#ee2a7b;stroke:#7d3990;stroke-miterlimit:10"/><polyline points="197.12 502.18 194.59 502.18 194.59 499.65" style="fill:#ee2a7b;stroke:#7d3990;stroke-miterlimit:10"/><circle cx="197.96" cy="498.81" r="3.87" style="fill:#ee2c7b;stroke:#7c3990;stroke-miterlimit:10"/><polyline points="185.15 490.96 183.34 489.18 185.12 487.38" style="fill:#ee2a7b;stroke:#7d3990;stroke-miterlimit:10"/><circle cx="188.11" cy="489.14" r="3.87" style="fill:#ee2c7b;stroke:#7c3990;stroke-miterlimit:10"/><rect x="154.8" y="485.06" width="7.38" height="7.38" transform="translate(-75.03 946.43) rotate(-135)" style="fill:#fce9f1"/><rect x="160.28" y="469.46" width="7.38" height="7.38" transform="translate(-54.65 923.66) rotate(-135)" style="fill:#ee2c7b"/><rect x="165.33" y="463.92" width="7.38" height="7.38" transform="translate(-42.11 917.77) rotate(-135)" style="fill:#e9b7d5"/><polygon points="675.7 301.16 693.33 318.75 685.37 326.87 693.32 335 675.7 352.62 649.16 326.87 675.7 301.16" style="fill:#f6ebf4;stroke:#7d3990;stroke-miterlimit:10"/><polygon points="675.7 352.62 649.16 326.87 655.69 326.87 675.7 346.23 675.7 352.62" style="fill:#da1c5c"/><polygon points="675.7 352.62 693.32 335 686.93 334.96 675.7 346.23 675.7 352.62" style="fill:#da1c5c"/><polygon points="685.37 326.87 693.27 318.77 686.87 318.74 679.01 326.87 685.37 326.87" style="fill:#da1c5c"/><polygon points="686.93 334.96 679.01 326.87 686.93 318.78 675.65 307.53 655.69 326.87 675.65 346.23 686.93 334.96" style="fill:#f11c5c;stroke:#7c3990;stroke-miterlimit:10"/><line x1="686.93" y1="334.96" x2="693.32" y2="335" style="fill:#da1c5c;stroke:#7c3990;stroke-miterlimit:10"/><line x1="685.37" y1="326.87" x2="679.01" y2="326.87" style="fill:#da1c5c;stroke:#7c3990;stroke-miterlimit:10"/><line x1="693.33" y1="318.74" x2="686.93" y2="318.78" style="fill:#da1c5c;stroke:#7c3990;stroke-miterlimit:10"/><line x1="655.69" y1="326.87" x2="649.16" y2="326.87" style="fill:#da1c5c;stroke:#7c3990;stroke-miterlimit:10"/><line x1="675.65" y1="346.23" x2="675.7" y2="352.62" style="fill:#da1c5c;stroke:#7c3990;stroke-miterlimit:10"/><line x1="675.7" y1="301.16" x2="675.65" y2="307.53" style="fill:#da1c5c;stroke:#7c3990;stroke-miterlimit:10"/><polygon points="675.7 301.16 693.33 318.75 685.37 326.87 693.32 335 675.7 352.62 649.16 326.87 675.7 301.16" style="fill:none;stroke:#7c3990;stroke-miterlimit:10"/><path d="M644.12,358.43h30.55A31.47,31.47,0,0,0,706.14,327h0a31.47,31.47,0,0,0-31.47-31.46H644.12Z" style="fill:#d1ecf2;opacity:0.4"/><polygon points="702.82 341.05 659.4 295.5 673.22 295.5 706.14 329.97 702.82 341.05" style="fill:#fff;opacity:0.65"/><polygon points="698.81 347.15 649.9 295.5 653.61 295.5 700.45 345 698.81 347.15" style="fill:#fff;opacity:0.65"/><path d="M644.12,358.43h30.56A31.47,31.47,0,0,0,706.15,327h0a31.46,31.46,0,0,0-31.47-31.46H644.31" style="fill:none;stroke:#7d3990;stroke-miterlimit:10"/><polyline points="512.09 292.12 588.29 292.12 588.29 298.21 512.09 298.21" style="fill:#fff"/><polyline points="512.09 355.71 588.29 355.71 588.29 362.54 512.09 362.54" style="fill:#fff"/><rect x="576" y="297.46" width="84.69" height="60.1" transform="translate(945.86 -290.83) rotate(90)" style="fill:#e9b7d5"/><line x1="636.86" y1="300.89" x2="622.58" y2="300.89" style="fill:#ee2a7b;stroke:#7d3990;stroke-miterlimit:10"/><line x1="636.86" y1="306.22" x2="622.58" y2="306.22" style="fill:#ee2a7b;stroke:#7d3990;stroke-miterlimit:10"/><line x1="636.86" y1="311.56" x2="622.58" y2="311.56" style="fill:#ee2a7b;stroke:#7d3990;stroke-miterlimit:10"/><line x1="636.86" y1="316.89" x2="622.58" y2="316.89" style="fill:#ee2a7b;stroke:#7d3990;stroke-miterlimit:10"/><line x1="636.86" y1="322.23" x2="622.58" y2="322.23" style="fill:#ee2a7b;stroke:#7d3990;stroke-miterlimit:10"/><path
                d="M587.79,284.67v6.95h-75.7v1h75.7v5.09h-75.7v1h6.66L535.81,327l-17.06,28.25h-6.66v1h75.7V362h-75.7v1h75.7v7.32H648.9V284.67ZM554.07,300,570.35,327l-16.28,27Zm.39-1.3h32.95L570.93,326Zm-1.39,54.9L537,327l16.09-26.64Zm17.86-25.68,16.48,27.28H554.46Zm.59-1L587.79,300v53.91Zm-51.6-28.25h33L536.39,326Zm16.47,29.22,16.48,27.28h-33ZM647.9,369.36H588.79V285.67H647.9Z"
                style="fill:#7d3990"/><polyline points="609.19 300.75 611.37 302.93 609.19 305.1" style="fill:#ee2a7b;stroke:#7d3990;stroke-miterlimit:10"/><circle cx="605.57" cy="302.93" r="4.71" style="fill:#ee2a7b;stroke:#7d3990;stroke-miterlimit:10"/><polyline points="607.64 323.25 605.39 325.37 603.28 323.12" style="fill:#ee2a7b;stroke:#7d3990;stroke-miterlimit:10"/><circle cx="605.57" cy="319.57" r="4.71" style="fill:#ee2a7b;stroke:#7d3990;stroke-miterlimit:10"/><line x1="153.12" y1="478.16" x2="163.71" y2="488.75" style="fill:#ee2a7b;stroke:#7d3990;stroke-miterlimit:10"/><line x1="158.48" y1="472.8" x2="169.07" y2="483.39" style="fill:#ee2a7b;stroke:#7d3990;stroke-miterlimit:10"/><line x1="153.19" y1="488.67" x2="174.36" y2="467.5" style="fill:#ee2a7b;stroke:#7d3990;stroke-miterlimit:10"/><line x1="163.84" y1="467.44" x2="174.43" y2="478.03" style="fill:#ee2a7b;stroke:#7d3990;stroke-miterlimit:10"/>
            <g id="buttons"><rect x="99.32" y="312.41" width="6.02" height="6.02" transform="translate(-213.09 417.76) rotate(-90)" style="fill:#e9b7d5"/><rect x="87.3" y="306.57" width="6.02" height="6.02" transform="translate(-219.27 399.89) rotate(-90)" style="fill:#e9b7d5"/><rect x="160.1" y="479.77" width="7.38" height="7.38" transform="translate(-62.26 941.14) rotate(-135)" style="fill:#ee2c7b"/><rect x="156.36" y="462.96" width="14.98" height="30.12" transform="translate(-58.31 931.9) rotate(-135)" style="fill:none;stroke:#7d3990;stroke-miterlimit:10"/><rect x="166.05" y="136.87" width="6.02" height="6.02" transform="translate(-49.39 160.51) rotate(-45)" style="fill:#ee2c7b"/><rect x="178.79" y="141.33" width="6.02" height="6.02" transform="translate(-48.82 170.83) rotate(-45)" style="fill:#ee2c7b"/><rect x="178.98" y="149.79" width="6.02" height="6.02" transform="translate(-54.74 173.44) rotate(-45)" style="fill:#ee2c7b"/><rect x="617.52" y="349.98" width="8.99" height="8.99" transform="translate(976.49 -267.53) rotate(90)" style="fill:#ee2a7b"/><rect x="599.41" y="341" width="8.99" height="8.99" transform="translate(949.39 -258.41) rotate(90)" style="fill:#ee2a7b"/></g><rect x="617.23" y="341.07" width="8.99" height="8.99" transform="translate(967.28 -276.16) rotate(90)" style="fill:#fce9f1"/><path d="M521.39,148.39,520,147a11.45,11.45,0,1,0-16.2,16.19l1.39,1.39" style="fill:#f2cd7b;stroke:#7c3990;stroke-miterlimit:10"/>
            <g style="clip-path:url(#clip-path-3)"><line x1="511.24" y1="139.01" x2="519.5" y2="147.27" style="fill:#f5ebf4;stroke:#7d3990;stroke-linejoin:bevel"/><line x1="510.01" y1="140.24" x2="518.27" y2="148.5" style="fill:#f5ebf4;stroke:#7d3990;stroke-linejoin:bevel"/><line x1="508.77" y1="141.48" x2="517.03" y2="149.74" style="fill:#f5ebf4;stroke:#7d3990;stroke-linejoin:bevel"/><line x1="507.54" y1="142.71" x2="515.8" y2="150.97" style="fill:#f5ebf4;stroke:#7d3990;stroke-linejoin:bevel"/><line x1="506.3" y1="143.95" x2="514.56" y2="152.21" style="fill:#f5ebf4;stroke:#7d3990;stroke-linejoin:bevel"/><line x1="505.07" y1="145.18" x2="513.33" y2="153.44" style="fill:#f5ebf4;stroke:#7d3990;stroke-linejoin:bevel"/><line x1="503.84" y1="146.41" x2="512.1" y2="154.67" style="fill:#f5ebf4;stroke:#7d3990;stroke-linejoin:bevel"/><line x1="502.6" y1="147.65" x2="510.86" y2="155.91" style="fill:#f5ebf4;stroke:#7d3990;stroke-linejoin:bevel"/><line x1="501.37" y1="148.88" x2="509.63" y2="157.14" style="fill:#f5ebf4;stroke:#7d3990;stroke-linejoin:bevel"/><line x1="500.13" y1="150.12" x2="508.39" y2="158.38" style="fill:#f5ebf4;stroke:#7d3990;stroke-linejoin:bevel"/><line x1="498.9" y1="151.35" x2="507.16" y2="159.61" style="fill:#f5ebf4;stroke:#7d3990;stroke-linejoin:bevel"/><line x1="497.67" y1="152.58" x2="505.93" y2="160.84" style="fill:#f5ebf4;stroke:#7d3990;stroke-linejoin:bevel"/><line x1="496.43" y1="153.82" x2="504.69" y2="162.08" style="fill:#f5ebf4;stroke:#7d3990;stroke-linejoin:bevel"/><line x1="495.82" y1="154.44" x2="504.08" y2="162.69" style="fill:#f5ebf4;stroke:#7d3990;stroke-linejoin:bevel"/></g><path d="M521.39,148.39a11.45,11.45,0,1,0,0,16.19A11.46,11.46,0,0,0,521.39,148.39Z" style="fill:#efb032;stroke:#7c3990;stroke-miterlimit:10"/><path d="M520,149.81a9.44,9.44,0,1,0,0,13.35A9.43,9.43,0,0,0,520,149.81Zm-13.35,13.35A9.44,9.44,0,1,0,520,149.81" style="fill:#f2c43c;stroke:#7c3990;stroke-miterlimit:10"/><path d="M506.61,163.16A9.44,9.44,0,1,0,520,149.81l-.21-.2a9.44,9.44,0,0,1-13.37,13.3" style="fill:#f2cd7b;stroke:#7c3990;stroke-miterlimit:10"/><path d="M513.05,150.56l4,4a1.9,1.9,0,0,1-2.68,2.68l-3-3" style="fill:none;stroke:#7d3990;stroke-miterlimit:10"/><line x1="514.06" y1="151.57" x2="508.7" y2="156.93" style="fill:none;stroke:#7d3990;stroke-miterlimit:10"/><line x1="516.69" y1="151.17" x2="515.18" y2="152.68" style="fill:none;stroke:#7d3990;stroke-miterlimit:10"/><line x1="518.11" y1="152.58" x2="516.59" y2="154.1" style="fill:none;stroke:#7d3990;stroke-miterlimit:10"/><line x1="509.81" y1="158.04" x2="508.3" y2="159.56" style="fill:none;stroke:#7d3990;stroke-miterlimit:10"/><line x1="511.23" y1="159.46" x2="509.71" y2="160.98" style="fill:none;stroke:#7d3990;stroke-miterlimit:10"/><path d="M514.4,157.27a1.9,1.9,0,0,1-2.68,2.68l-4-4" style="fill:none;stroke:#7d3990;stroke-miterlimit:10"/><path d="M513.65,178,525,166.71a16.45,16.45,0,0,0,0-23.29h0a16.47,16.47,0,0,0-23.29,0l-11.31,11.31Z" style="fill:#d1ecf2;opacity:0.4"/><polygon points="528.95 149.86 496.01 149.07 501.13 143.96 526.08 144.53 528.95 149.86" style="fill:#fff;opacity:0.65"/><polygon points="529.72 153.6 492.5 152.59 493.87 151.22 529.54 152.2 529.72 153.6" style="fill:#fff;opacity:0.65"/><path d="M513.65,178,525,166.71a16.47,16.47,0,0,0,0-23.29h0a16.46,16.46,0,0,0-23.3,0l-11.24,11.24" style="fill:none;stroke:#7d3990;stroke-miterlimit:10"/><polyline points="453.45 188.45 467.7 174.2 469.98 176.48 455.73 190.73" style="fill:#fff;stroke:#7c3990;stroke-miterlimit:10"/><line x1="469.98" y1="176.48" x2="478.5" y2="210.98" style="fill:none;stroke:#7c3990;stroke-miterlimit:10"/><line x1="491.49" y1="197.99" x2="456.99" y2="189.47" style="fill:none;stroke:#7c3990;stroke-miterlimit:10"/><polyline points="477.24 212.24 491.49 197.99 494.05 200.54 479.79 214.8" style="fill:#fff;stroke:#7c3990;stroke-miterlimit:10"/><rect x="469.78" y="160.3" width="44.81" height="31.8" transform="translate(268.75 -296.42) rotate(45)" style="fill:#ee2a7b;stroke:#7d3990;stroke-miterlimit:10"/><line x1="465.1" y1="171.6" x2="496.78" y2="203.28" style="fill:#ee2a7b;stroke:#7d3990;stroke-miterlimit:10"/><line x1="456.99" y1="189.47" x2="478.5" y2="210.98" style="fill:#ee2a7b;stroke:#7d3990;stroke-miterlimit:10"/><line x1="489.15" y1="159.31" x2="483.81" y2="164.65" style="fill:#ee2a7b;stroke:#7d3990;stroke-miterlimit:10"/><line x1="491.15" y1="161.31" x2="485.8" y2="166.65" style="fill:#ee2a7b;stroke:#7d3990;stroke-miterlimit:10"/><line x1="493.14" y1="163.3" x2="487.8" y2="168.64" style="fill:#ee2a7b;stroke:#7d3990;stroke-miterlimit:10"/><line x1="495.14" y1="165.3" x2="489.8" y2="170.64" style="fill:#ee2a7b;stroke:#7d3990;stroke-miterlimit:10"/><line x1="497.13" y1="167.29" x2="491.79" y2="172.64" style="fill:#ee2a7b;stroke:#7d3990;stroke-miterlimit:10"/><path
                d="M232.76,188.54l.71-.7-35.76-35.76,3.47-3.47L172,119.43l-40.84,40.84,29.19,29.18,3.3-3.29,35.75,35.75.71-.7-35.76-35.76,2.18-2.18L202.28,219l.7-.71-3.09-3.09L205.15,194l21.29-5.26,3.08,3.09.71-.71-35.75-35.75,2.52-2.53Zm-69.83-3.09L160.34,188l-27.77-27.77L172,120.84l27.78,27.77-33.25,33.25Zm4.57-2.61,20.19-5-5,20.19Zm21.29-5.26,19.81-4.89L183.89,197.4Zm10.28,36.83-15.2-15.21,20.18-5Zm5.26-21.29L184.75,198l24.41-24.42Zm21.28-5.26-20.19,5,5-20.19ZM209.24,171.5l-20.18,5,5-20.18ZM188,176.76l-19.81,4.89,24.7-24.71Z"
                style="fill:#7d3990"/><polyline points="478.75 169.61 480.38 169.61 480.38 171.24" style="fill:#ee2a7b;stroke:#7d3990;stroke-miterlimit:10"/><circle cx="478.21" cy="171.78" r="2.49" style="fill:#e9b7d5;stroke:#7d3990;stroke-miterlimit:10"/><polyline points="486.46 176.84 487.62 177.98 486.48 179.14" style="fill:#ee2a7b;stroke:#7d3990;stroke-miterlimit:10"/><circle cx="484.55" cy="178" r="2.49" style="fill:#e9b7d5;stroke:#7d3990;stroke-miterlimit:10"/><rect x="501.25" y="175.88" width="4.75" height="4.75" transform="translate(273.56 -303.91) rotate(45)" style="fill:#fce9f1"/><rect x="497.72" y="185.93" width="4.75" height="4.75" transform="translate(279.63 -298.47) rotate(45)" style="fill:#fce9f1"/><rect x="491.05" y="186.08" width="4.75" height="4.75" transform="translate(277.78 -293.71) rotate(45)" style="fill:#e9b7d5"/><line x1="507.09" y1="185.08" x2="500.27" y2="178.26" style="fill:#ee2a7b;stroke:#7d3990;stroke-miterlimit:10"/><line x1="503.64" y1="188.53" x2="496.81" y2="181.71" style="fill:#ee2a7b;stroke:#7d3990;stroke-miterlimit:10"/><line x1="507.05" y1="178.31" x2="493.41" y2="191.95" style="fill:#ee2a7b;stroke:#7d3990;stroke-miterlimit:10"/><line x1="500.18" y1="191.99" x2="493.36" y2="185.16" style="fill:#ee2a7b;stroke:#7d3990;stroke-miterlimit:10"/><rect x="495.35" y="175.46" width="9.65" height="19.41" transform="translate(277.43 -299.45) rotate(45)" style="fill:none;stroke:#7d3990;stroke-miterlimit:10"/><path d="M340.28,147.07A180.45,180.45,0,1,0,520.72,327.52,180.45,180.45,0,0,0,340.28,147.07Zm0,348.46a168,168,0,1,1,168-168A168,168,0,0,1,340.28,495.53Z" style="fill:#e6cae2;stroke:#7c3990;stroke-miterlimit:10"/><path d="M340.28,153A174.48,174.48,0,1,0,514.75,327.52,174.47,174.47,0,0,0,340.28,153Z" style="fill:none;stroke:#7c3990;stroke-miterlimit:10"/><path d="M548.88,400.53a19,19,0,0,0-13.51,5.61,6,6,0,0,1-9.24-.93,26.13,26.13,0,0,0-21.86-11.78c-21.4,0-31.95,26.22-24.43,26.22h80.74a6,6,0,0,0,5.44-8.5A19.14,19.14,0,0,0,548.88,400.53Z" style="fill:#fff"/><path d="M471.16,607.86c-2.68,17.32-22.56,45.26-33.78,43.52s-15.9-27.2-13.22-44.52,11.46-24.36,22.76-25.43C461.33,580.06,473.84,590.55,471.16,607.86Z" style="fill:#dff2f4"/><path d="M645.6,196.85c5.82-3.36,22.65,1.5,27.68,10.21s-3.66,18-9.49,21.33-31.38-2.22-36.41-10.93S639.77,200.21,645.6,196.85Z" style="fill:#dff2f4"/><polygon points="340.26 241.97 285.23 296.71 285.23 316.12 285.23 349 285.23 358.32 340.26 413.07 395.3 358.32 395.3 349 395.3 316.12 395.3 296.71 340.26 241.97" style="fill:#da1c5c"/><polyline points="340.26 241.97 285.23 296.71 285.23 316.12 285.23 349 285.23 358.32 340.26 413.07" style="fill:#f6ebf4"/><polygon points="340.27 287.49 317.28 310.34 317.28 316.12 317.28 340.97 317.28 344.69 340.27 367.54 363.24 344.71 363.24 340.97 363.24 316.12 363.24 310.32 340.27 287.49" style="fill:#e6cbe2"/><path d="M624.07,110.67a55.66,55.66,0,0,0-51.36,34.21,5.81,5.81,0,0,1-9.17,2.3,25.38,25.38,0,0,0-40.89,11.41,5.9,5.9,0,0,0,5.6,7.71H673.46a5.9,5.9,0,0,0,5.85-6.58A55.64,55.64,0,0,0,624.07,110.67Z" style="fill:#fff"/><line x1="626.4" y1="359.31" x2="626.4" y2="341.07" style="fill:#ee2a7b;stroke:#7d3990;stroke-miterlimit:10"/><line x1="617.16" y1="359.31" x2="617.16" y2="341.07" style="fill:#ee2a7b;stroke:#7d3990;stroke-miterlimit:10"/><line x1="635.38" y1="350.2" x2="598.92" y2="350.2" style="fill:#ee2a7b;stroke:#7d3990;stroke-miterlimit:10"/><line x1="607.93" y1="359.31" x2="607.93" y2="341.07" style="fill:#ee2a7b;stroke:#7d3990;stroke-miterlimit:10"/><rect x="607.92" y="331.85" width="18.24" height="36.68" transform="translate(967.23 -266.85) rotate(90)" style="fill:none;stroke:#7d3990;stroke-miterlimit:10"/><line x1="177.42" y1="135.56" x2="168.78" y2="144.2" style="fill:#ee2a7b;stroke:#7d3990;stroke-miterlimit:10"/><line x1="181.79" y1="139.93" x2="173.15" y2="148.58" style="fill:#ee2a7b;stroke:#7d3990;stroke-miterlimit:10"/><line x1="168.85" y1="135.62" x2="186.12" y2="152.9" style="fill:#ee2a7b;stroke:#7d3990;stroke-miterlimit:10"/><line x1="186.17" y1="144.31" x2="177.52" y2="152.95" style="fill:#ee2a7b;stroke:#7d3990;stroke-miterlimit:10"/><rect x="171.42" y="132.02" width="12.22" height="24.58" transform="translate(-50.05 167.8) rotate(-45)" style="fill:none;stroke:#7d3990;stroke-miterlimit:10"/><path
                d="M395.8,310.16V296.51l-55.54-55.25-55.39,55.1-.14.15v13.6l-4.88,2.33v29.92l4.88,3.24v12.93l55.53,55.24,55.39-55.1.15-.14V345.67l5-2.34V313.41Zm-1.38-13.61-31.06,13.18-22.59-22.45V243.17Zm-54.66-53.38v44.11l-22.6,22.47-31.07-13.2Zm-59,98.63V313.09l4-1.89v33.23Zm5,4.47v-48.8l31,13.2v33.69l-31,13.2Zm54,65.59-53.65-53.37,31.06-13.21,22.6,22.47Zm-22-67.38V310.55l22.49-22.36,22.47,22.34v34l-22.47,22.34Zm23,67.38V367.75l22.59-22.45,31.06,13.19Zm54-102.34v48l-31.06-13.18V310.66l31.06-13.19Zm5.11,33.16-4.11,1.9V311.33l4.11,2.65Z"
                style="fill:#7d3990"/><polygon points="455.58 48.08 440.13 63.46 440.13 68.91 440.13 93.48 440.13 96.09 455.58 111.47 471.03 96.09 471.03 93.48 471.03 68.91 471.03 63.46 455.58 48.08" style="fill:#ee2c7b"/><polyline points="455.58 48.08 440.13 63.46 440.13 68.91 440.13 93.48 440.13 96.09 455.58 111.47" style="fill:#f6ebf4"/><polygon points="455.58 60.87 449.13 67.28 449.13 68.91 449.13 91.22 449.13 92.27 455.58 98.69 462.03 92.27 462.03 91.22 462.03 68.91 462.03 67.28 455.58 60.87" style="fill:#e6cbe2"/><path
                d="M455.58,47.38,439.63,63.25V96.3l15.95,15.87L471.53,96.3v-33Zm6.57,19.31-6.07-6V49.29l14.07,14ZM455.58,98l-5.95-5.92V67.49l5.95-5.92,5.95,5.92V92.07Zm-.5-37.32-6.07,6-8-3.4,14.08-14Zm-6.45,7V91.94l-8,3.4V64.21ZM449,92.86l6.07,6v11.38L441,96.26Zm7.07,6,6.07-6,8,3.39-14.07,14Zm6.45-7V67.61l8-3.4V95.34Z"
                style="fill:#7d3990"/>
            <g id="tube-coins-left" clip-path="url(#left-tube-mask)">
                <g id="coin"><path d="M191,318.88h-1.44a8.38,8.38,0,1,0,0,16.76H191" style="fill:#f2cd7b;stroke:#7c3990;stroke-miterlimit:10"/>
                    <g style="clip-path:url(#clip-path-4)"><line x1="180.87" y1="319.28" x2="189.41" y2="319.28" style="fill:#f5ebf4;stroke:#7d3990;stroke-linejoin:bevel"/><line x1="180.87" y1="321.83" x2="189.41" y2="321.83" style="fill:#f5ebf4;stroke:#7d3990;stroke-linejoin:bevel"/><line x1="180.87" y1="324.39" x2="189.41" y2="324.39" style="fill:#f5ebf4;stroke:#7d3990;stroke-linejoin:bevel"/><line x1="180.87" y1="326.94" x2="189.41" y2="326.94" style="fill:#f5ebf4;stroke:#7d3990;stroke-linejoin:bevel"/><line x1="180.87" y1="329.49" x2="189.41" y2="329.49" style="fill:#f5ebf4;stroke:#7d3990;stroke-linejoin:bevel"/><line x1="180.87" y1="332.05" x2="189.41" y2="332.05" style="fill:#f5ebf4;stroke:#7d3990;stroke-linejoin:bevel"/><line x1="180.87" y1="334.6" x2="189.41" y2="334.6" style="fill:#f5ebf4;stroke:#7d3990;stroke-linejoin:bevel"/><line x1="180.87" y1="335.24" x2="189.41" y2="335.24" style="fill:#f5ebf4;stroke:#7d3990;stroke-linejoin:bevel"/></g><path d="M191,318.88a8.38,8.38,0,1,0,8.38,8.38A8.38,8.38,0,0,0,191,318.88Z" style="fill:#efb032;stroke:#7c3990;stroke-miterlimit:10"/><path d="M191,320.35a6.91,6.91,0,1,0,6.9,6.91A6.91,6.91,0,0,0,191,320.35Zm0,13.81a6.91,6.91,0,0,0,0-13.81" style="fill:#f2c43c;stroke:#7c3990;stroke-miterlimit:10"/><path d="M191,334.16a6.91,6.91,0,0,0,0-13.81h-.21a6.91,6.91,0,0,1,0,13.8" style="fill:#f2cd7b;stroke:#7c3990;stroke-miterlimit:10"/><line x1="190.72" y1="322.75" x2="190.72" y2="324.32" style="fill:none;stroke:#7d3990;stroke-miterlimit:10"/><line x1="190.72" y1="329.86" x2="190.72" y2="331.43" style="fill:none;stroke:#7d3990;stroke-miterlimit:10"/><path d="M187.46,329.86h4.88a1.39,1.39,0,0,0,0-2.77h-2.79a1.39,1.39,0,1,1,0-2.77h4.88" style="fill:none;stroke:#7d3990;stroke-miterlimit:10"/></g>
                <g id="coin-2" data-name="coin"><path d="M215.41,318.88H214a8.38,8.38,0,0,0,0,16.76h1.44" style="fill:#cbccce;stroke:#7c3990;stroke-miterlimit:10"/>
                    <g style="clip-path:url(#clip-path-5)"><line x1="205.31" y1="319.28" x2="213.86" y2="319.28" style="fill:#f5ebf4;stroke:#7d3990;stroke-linejoin:bevel"/><line x1="205.31" y1="321.83" x2="213.86" y2="321.83" style="fill:#f5ebf4;stroke:#7d3990;stroke-linejoin:bevel"/><line x1="205.31" y1="324.39" x2="213.86" y2="324.39" style="fill:#f5ebf4;stroke:#7d3990;stroke-linejoin:bevel"/><line x1="205.31" y1="326.94" x2="213.86" y2="326.94" style="fill:#f5ebf4;stroke:#7d3990;stroke-linejoin:bevel"/><line x1="205.31" y1="329.49" x2="213.86" y2="329.49" style="fill:#f5ebf4;stroke:#7d3990;stroke-linejoin:bevel"/><line x1="205.31" y1="332.05" x2="213.86" y2="332.05" style="fill:#f5ebf4;stroke:#7d3990;stroke-linejoin:bevel"/><line x1="205.31" y1="334.6" x2="213.86" y2="334.6" style="fill:#f5ebf4;stroke:#7d3990;stroke-linejoin:bevel"/><line x1="205.31" y1="335.24" x2="213.86" y2="335.24" style="fill:#f5ebf4;stroke:#7d3990;stroke-linejoin:bevel"/></g><path d="M215.41,318.88a8.38,8.38,0,1,0,8.38,8.38A8.38,8.38,0,0,0,215.41,318.88Z" style="fill:#808285;stroke:#7c3990;stroke-miterlimit:10"/><path d="M215.41,320.35a6.91,6.91,0,1,0,6.91,6.91A6.9,6.9,0,0,0,215.41,320.35Zm0,13.81a6.91,6.91,0,1,0,0-13.81" style="fill:#b3b5b8;stroke:#7c3990;stroke-miterlimit:10"/><path d="M215.41,334.16a6.91,6.91,0,1,0,0-13.81h-.21a6.91,6.91,0,0,1,0,13.8" style="fill:#f2cd7b;stroke:#7c3990;stroke-miterlimit:10"/><line x1="215.41" y1="322.75" x2="215.41" y2="324.32" style="fill:none;stroke:#7d3990;stroke-miterlimit:10"/><line x1="215.41" y1="329.86" x2="215.41" y2="331.43" style="fill:none;stroke:#7d3990;stroke-miterlimit:10"/><path d="M218.24,329.86h-4a2.77,2.77,0,1,1,0-5.54h4" style="fill:none;stroke:#7d3990;stroke-miterlimit:10"/></g>
                <g id="coin-3" data-name="coin"><path d="M239.93,318.88h-1.44a8.38,8.38,0,0,0,0,16.76h1.44" style="fill:#f2cd7b;stroke:#7c3990;stroke-miterlimit:10"/>
                    <g style="clip-path:url(#clip-path-6)"><line x1="229.83" y1="319.28" x2="238.37" y2="319.28" style="fill:#f5ebf4;stroke:#7d3990;stroke-linejoin:bevel"/><line x1="229.83" y1="321.83" x2="238.37" y2="321.83" style="fill:#f5ebf4;stroke:#7d3990;stroke-linejoin:bevel"/><line x1="229.83" y1="324.39" x2="238.37" y2="324.39" style="fill:#f5ebf4;stroke:#7d3990;stroke-linejoin:bevel"/><line x1="229.83" y1="326.94" x2="238.37" y2="326.94" style="fill:#f5ebf4;stroke:#7d3990;stroke-linejoin:bevel"/><line x1="229.83" y1="329.49" x2="238.37" y2="329.49" style="fill:#f5ebf4;stroke:#7d3990;stroke-linejoin:bevel"/><line x1="229.83" y1="332.05" x2="238.37" y2="332.05" style="fill:#f5ebf4;stroke:#7d3990;stroke-linejoin:bevel"/><line x1="229.83" y1="334.6" x2="238.37" y2="334.6" style="fill:#f5ebf4;stroke:#7d3990;stroke-linejoin:bevel"/><line x1="229.83" y1="335.24" x2="238.37" y2="335.24" style="fill:#f5ebf4;stroke:#7d3990;stroke-linejoin:bevel"/></g><path d="M239.93,318.88a8.38,8.38,0,1,0,8.37,8.38A8.38,8.38,0,0,0,239.93,318.88Z" style="fill:#efb032;stroke:#7c3990;stroke-miterlimit:10"/><path d="M239.93,320.35a6.91,6.91,0,1,0,6.9,6.91A6.91,6.91,0,0,0,239.93,320.35Zm0,13.81a6.91,6.91,0,0,0,0-13.81" style="fill:#f2c43c;stroke:#7c3990;stroke-miterlimit:10"/><path d="M239.93,334.16a6.91,6.91,0,0,0,0-13.81h-.22a6.91,6.91,0,0,1,0,13.8" style="fill:#f2cd7b;stroke:#7c3990;stroke-miterlimit:10"/><line x1="239.68" y1="322.75" x2="239.68" y2="324.32" style="fill:none;stroke:#7d3990;stroke-miterlimit:10"/><line x1="239.68" y1="329.86" x2="239.68" y2="331.43" style="fill:none;stroke:#7d3990;stroke-miterlimit:10"/><path d="M236.42,329.86h4.87a1.39,1.39,0,1,0,0-2.77h-2.78a1.39,1.39,0,1,1,0-2.77h4.88" style="fill:none;stroke:#7d3990;stroke-miterlimit:10"/></g>
                <g id="coin-4" data-name="coin"><path d="M264.37,318.88h-1.44a8.38,8.38,0,0,0,0,16.76h1.44" style="fill:#cbccce;stroke:#7c3990;stroke-miterlimit:10"/>
                    <g style="clip-path:url(#clip-path-7)"><line x1="254.27" y1="319.28" x2="262.81" y2="319.28" style="fill:#f5ebf4;stroke:#7d3990;stroke-linejoin:bevel"/><line x1="254.27" y1="321.83" x2="262.81" y2="321.83" style="fill:#f5ebf4;stroke:#7d3990;stroke-linejoin:bevel"/><line x1="254.27" y1="324.39" x2="262.81" y2="324.39" style="fill:#f5ebf4;stroke:#7d3990;stroke-linejoin:bevel"/><line x1="254.27" y1="326.94" x2="262.81" y2="326.94" style="fill:#f5ebf4;stroke:#7d3990;stroke-linejoin:bevel"/><line x1="254.27" y1="329.49" x2="262.81" y2="329.49" style="fill:#f5ebf4;stroke:#7d3990;stroke-linejoin:bevel"/><line x1="254.27" y1="332.05" x2="262.81" y2="332.05" style="fill:#f5ebf4;stroke:#7d3990;stroke-linejoin:bevel"/><line x1="254.27" y1="334.6" x2="262.81" y2="334.6" style="fill:#f5ebf4;stroke:#7d3990;stroke-linejoin:bevel"/><line x1="254.27" y1="335.24" x2="262.81" y2="335.24" style="fill:#f5ebf4;stroke:#7d3990;stroke-linejoin:bevel"/></g><path d="M264.37,318.88a8.38,8.38,0,1,0,8.38,8.38A8.38,8.38,0,0,0,264.37,318.88Z" style="fill:#808285;stroke:#7c3990;stroke-miterlimit:10"/><path d="M264.37,320.35a6.91,6.91,0,1,0,6.9,6.91A6.91,6.91,0,0,0,264.37,320.35Zm0,13.81a6.91,6.91,0,0,0,0-13.81" style="fill:#b3b5b8;stroke:#7c3990;stroke-miterlimit:10"/><path d="M264.37,334.16a6.91,6.91,0,0,0,0-13.81h-.21a6.91,6.91,0,0,1,0,13.8" style="fill:#f2cd7b;stroke:#7c3990;stroke-miterlimit:10"/><line x1="264.37" y1="322.75" x2="264.37" y2="324.32" style="fill:none;stroke:#7d3990;stroke-miterlimit:10"/><line x1="264.37" y1="329.86" x2="264.37" y2="331.43" style="fill:none;stroke:#7d3990;stroke-miterlimit:10"/><path d="M267.2,329.86h-3.95a2.77,2.77,0,1,1,0-5.54h3.95" style="fill:none;stroke:#7d3990;stroke-miterlimit:10"/></g><rect x="178.09" y="314.62" width="101.76" height="25.28" style="fill:#9fdae3;opacity:0.4"/></g>
            <g id="tube-coins-right" clip-path="url(#right-tube-mask)">
                <g id="coin-5" data-name="coin"><path d="M413.71,318.88h-1.44a8.38,8.38,0,0,0,0,16.76h1.44" style="fill:#f2cd7b;stroke:#7c3990;stroke-miterlimit:10"/>
                    <g style="clip-path:url(#clip-path-8)"><line x1="403.61" y1="319.28" x2="412.16" y2="319.28" style="fill:#f5ebf4;stroke:#7d3990;stroke-linejoin:bevel"/><line x1="403.61" y1="321.83" x2="412.16" y2="321.83" style="fill:#f5ebf4;stroke:#7d3990;stroke-linejoin:bevel"/><line x1="403.61" y1="324.39" x2="412.16" y2="324.39" style="fill:#f5ebf4;stroke:#7d3990;stroke-linejoin:bevel"/><line x1="403.61" y1="326.94" x2="412.16" y2="326.94" style="fill:#f5ebf4;stroke:#7d3990;stroke-linejoin:bevel"/><line x1="403.61" y1="329.49" x2="412.16" y2="329.49" style="fill:#f5ebf4;stroke:#7d3990;stroke-linejoin:bevel"/><line x1="403.61" y1="332.05" x2="412.16" y2="332.05" style="fill:#f5ebf4;stroke:#7d3990;stroke-linejoin:bevel"/><line x1="403.61" y1="334.6" x2="412.16" y2="334.6" style="fill:#f5ebf4;stroke:#7d3990;stroke-linejoin:bevel"/><line x1="403.61" y1="335.24" x2="412.16" y2="335.24" style="fill:#f5ebf4;stroke:#7d3990;stroke-linejoin:bevel"/></g><path d="M413.71,318.88a8.38,8.38,0,1,0,8.38,8.38A8.38,8.38,0,0,0,413.71,318.88Z" style="fill:#efb032;stroke:#7c3990;stroke-miterlimit:10"/><path d="M413.71,320.35a6.91,6.91,0,1,0,6.91,6.91A6.9,6.9,0,0,0,413.71,320.35Zm0,13.81a6.91,6.91,0,1,0,0-13.81" style="fill:#f2c43c;stroke:#7c3990;stroke-miterlimit:10"/><path d="M413.71,334.16a6.91,6.91,0,1,0,0-13.81h-.21a6.91,6.91,0,0,1,0,13.8" style="fill:#f2cd7b;stroke:#7c3990;stroke-miterlimit:10"/><line x1="413.46" y1="322.75" x2="413.46" y2="324.32" style="fill:none;stroke:#7d3990;stroke-miterlimit:10"/><line x1="413.46" y1="329.86" x2="413.46" y2="331.43" style="fill:none;stroke:#7d3990;stroke-miterlimit:10"/><path d="M410.2,329.86h4.88a1.39,1.39,0,1,0,0-2.77h-2.79a1.39,1.39,0,0,1,0-2.77h4.88" style="fill:none;stroke:#7d3990;stroke-miterlimit:10"/></g>
                <g id="coin-6" data-name="coin"><path d="M438.16,318.88h-1.44a8.38,8.38,0,0,0,0,16.76h1.44" style="fill:#cbccce;stroke:#7c3990;stroke-miterlimit:10"/>
                    <g style="clip-path:url(#clip-path-9)"><line x1="428.06" y1="319.28" x2="436.6" y2="319.28" style="fill:#f5ebf4;stroke:#7d3990;stroke-linejoin:bevel"/><line x1="428.06" y1="321.83" x2="436.6" y2="321.83" style="fill:#f5ebf4;stroke:#7d3990;stroke-linejoin:bevel"/><line x1="428.06" y1="324.39" x2="436.6" y2="324.39" style="fill:#f5ebf4;stroke:#7d3990;stroke-linejoin:bevel"/><line x1="428.06" y1="326.94" x2="436.6" y2="326.94" style="fill:#f5ebf4;stroke:#7d3990;stroke-linejoin:bevel"/><line x1="428.06" y1="329.49" x2="436.6" y2="329.49" style="fill:#f5ebf4;stroke:#7d3990;stroke-linejoin:bevel"/><line x1="428.06" y1="332.05" x2="436.6" y2="332.05" style="fill:#f5ebf4;stroke:#7d3990;stroke-linejoin:bevel"/><line x1="428.06" y1="334.6" x2="436.6" y2="334.6" style="fill:#f5ebf4;stroke:#7d3990;stroke-linejoin:bevel"/><line x1="428.06" y1="335.24" x2="436.6" y2="335.24" style="fill:#f5ebf4;stroke:#7d3990;stroke-linejoin:bevel"/></g><path d="M438.16,318.88a8.38,8.38,0,1,0,8.37,8.38A8.38,8.38,0,0,0,438.16,318.88Z" style="fill:#808285;stroke:#7c3990;stroke-miterlimit:10"/><path d="M438.16,320.35a6.91,6.91,0,1,0,6.9,6.91A6.91,6.91,0,0,0,438.16,320.35Zm0,13.81a6.91,6.91,0,0,0,0-13.81" style="fill:#b3b5b8;stroke:#7c3990;stroke-miterlimit:10"/><path d="M438.16,334.16a6.91,6.91,0,0,0,0-13.81h-.22a6.91,6.91,0,0,1,0,13.8" style="fill:#f2cd7b;stroke:#7c3990;stroke-miterlimit:10"/><line x1="438.16" y1="322.75" x2="438.16" y2="324.32" style="fill:none;stroke:#7d3990;stroke-miterlimit:10"/><line x1="438.16" y1="329.86" x2="438.16" y2="331.43" style="fill:none;stroke:#7d3990;stroke-miterlimit:10"/><path d="M441,329.86h-4a2.77,2.77,0,1,1,0-5.54h4" style="fill:none;stroke:#7d3990;stroke-miterlimit:10"/></g>
                <g id="coin-7" data-name="coin"><path d="M462.67,318.88h-1.44a8.38,8.38,0,0,0,0,16.76h1.44" style="fill:#f2cd7b;stroke:#7c3990;stroke-miterlimit:10"/>
                    <g style="clip-path:url(#clip-path-10)"><line x1="452.57" y1="319.28" x2="461.12" y2="319.28" style="fill:#f5ebf4;stroke:#7d3990;stroke-linejoin:bevel"/><line x1="452.57" y1="321.83" x2="461.12" y2="321.83" style="fill:#f5ebf4;stroke:#7d3990;stroke-linejoin:bevel"/><line x1="452.57" y1="324.39" x2="461.12" y2="324.39" style="fill:#f5ebf4;stroke:#7d3990;stroke-linejoin:bevel"/><line x1="452.57" y1="326.94" x2="461.12" y2="326.94" style="fill:#f5ebf4;stroke:#7d3990;stroke-linejoin:bevel"/><line x1="452.57" y1="329.49" x2="461.12" y2="329.49" style="fill:#f5ebf4;stroke:#7d3990;stroke-linejoin:bevel"/><line x1="452.57" y1="332.05" x2="461.12" y2="332.05" style="fill:#f5ebf4;stroke:#7d3990;stroke-linejoin:bevel"/><line x1="452.57" y1="334.6" x2="461.12" y2="334.6" style="fill:#f5ebf4;stroke:#7d3990;stroke-linejoin:bevel"/><line x1="452.57" y1="335.24" x2="461.12" y2="335.24" style="fill:#f5ebf4;stroke:#7d3990;stroke-linejoin:bevel"/></g><path d="M462.67,318.88a8.38,8.38,0,1,0,8.38,8.38A8.38,8.38,0,0,0,462.67,318.88Z" style="fill:#efb032;stroke:#7c3990;stroke-miterlimit:10"/><path d="M462.67,320.35a6.91,6.91,0,1,0,6.91,6.91A6.91,6.91,0,0,0,462.67,320.35Zm0,13.81a6.91,6.91,0,1,0,0-13.81" style="fill:#f2c43c;stroke:#7c3990;stroke-miterlimit:10"/><path d="M462.67,334.16a6.91,6.91,0,1,0,0-13.81h-.21a6.91,6.91,0,0,1,0,13.8" style="fill:#f2cd7b;stroke:#7c3990;stroke-miterlimit:10"/><line x1="462.42" y1="322.75" x2="462.42" y2="324.32" style="fill:none;stroke:#7d3990;stroke-miterlimit:10"/><line x1="462.42" y1="329.86" x2="462.42" y2="331.43" style="fill:none;stroke:#7d3990;stroke-miterlimit:10"/><path d="M459.16,329.86H464a1.39,1.39,0,0,0,0-2.77h-2.79a1.39,1.39,0,0,1,0-2.77h4.88" style="fill:none;stroke:#7d3990;stroke-miterlimit:10"/></g>
                <g id="coin-8" data-name="coin"><path d="M487.11,318.88h-1.44a8.38,8.38,0,0,0,0,16.76h1.44" style="fill:#cbccce;stroke:#7c3990;stroke-miterlimit:10"/>
                    <g style="clip-path:url(#clip-path-11)"><line x1="477.01" y1="319.28" x2="485.56" y2="319.28" style="fill:#f5ebf4;stroke:#7d3990;stroke-linejoin:bevel"/><line x1="477.01" y1="321.83" x2="485.56" y2="321.83" style="fill:#f5ebf4;stroke:#7d3990;stroke-linejoin:bevel"/><line x1="477.01" y1="324.39" x2="485.56" y2="324.39" style="fill:#f5ebf4;stroke:#7d3990;stroke-linejoin:bevel"/><line x1="477.01" y1="326.94" x2="485.56" y2="326.94" style="fill:#f5ebf4;stroke:#7d3990;stroke-linejoin:bevel"/><line x1="477.01" y1="329.49" x2="485.56" y2="329.49" style="fill:#f5ebf4;stroke:#7d3990;stroke-linejoin:bevel"/><line x1="477.01" y1="332.05" x2="485.56" y2="332.05" style="fill:#f5ebf4;stroke:#7d3990;stroke-linejoin:bevel"/><line x1="477.01" y1="334.6" x2="485.56" y2="334.6" style="fill:#f5ebf4;stroke:#7d3990;stroke-linejoin:bevel"/><line x1="477.01" y1="335.24" x2="485.56" y2="335.24" style="fill:#f5ebf4;stroke:#7d3990;stroke-linejoin:bevel"/></g><path d="M487.11,318.88a8.38,8.38,0,1,0,8.38,8.38A8.38,8.38,0,0,0,487.11,318.88Z" style="fill:#808285;stroke:#7c3990;stroke-miterlimit:10"/><path d="M487.11,320.35a6.91,6.91,0,1,0,6.91,6.91A6.9,6.9,0,0,0,487.11,320.35Zm0,13.81a6.91,6.91,0,1,0,0-13.81" style="fill:#b3b5b8;stroke:#7c3990;stroke-miterlimit:10"/><path d="M487.11,334.16a6.91,6.91,0,1,0,0-13.81h-.21a6.91,6.91,0,0,1,0,13.8" style="fill:#f2cd7b;stroke:#7c3990;stroke-miterlimit:10"/><line x1="487.11" y1="322.75" x2="487.11" y2="324.32" style="fill:none;stroke:#7d3990;stroke-miterlimit:10"/><line x1="487.11" y1="329.86" x2="487.11" y2="331.43" style="fill:none;stroke:#7d3990;stroke-miterlimit:10"/><path d="M489.94,329.86H486a2.77,2.77,0,1,1,0-5.54h3.95" style="fill:none;stroke:#7d3990;stroke-miterlimit:10"/></g><rect x="400.83" y="314.62" width="101.77" height="25.28" style="fill:#9fdae3;opacity:0.4"/></g><rect x="400.83" y="314.62" width="101.77" height="1.77" style="fill:#fff"/><rect x="178.09" y="314.62" width="101.76" height="1.77" style="fill:#fff"/><line x1="87.06" y1="306.21" x2="87.06" y2="318.44" style="fill:#ee2a7b;stroke:#7d3990;stroke-miterlimit:10"/><line x1="93.25" y1="306.21" x2="93.25" y2="318.44" style="fill:#ee2a7b;stroke:#7d3990;stroke-miterlimit:10"/><line x1="81.04" y1="312.31" x2="105.48" y2="312.31" style="fill:#ee2a7b;stroke:#7d3990;stroke-miterlimit:10"/><line x1="99.44" y1="306.21" x2="99.44" y2="318.44" style="fill:#ee2a7b;stroke:#7d3990;stroke-miterlimit:10"/><rect x="87.22" y="300.03" width="12.22" height="24.58" transform="translate(-218.99 405.66) rotate(-90)" style="fill:none;stroke:#7d3990;stroke-miterlimit:10"/></g>
    </g>
</svg>
