<svg id="Layer_14" data-name="Layer 14" xmlns="http://www.w3.org/2000/svg" width="136.8" height="91.31" viewBox="0 0 136.8 91.31"><title>Artboard 7</title><polygon points="104.43 19.87 104.43 28.82 106.31 28.82 106.31 20.64 104.43 19.87" style="fill:#fde9f1"/><polygon points="108.69 17.79 108.69 15.15 104.69 19.13 106.57 19.9 108.69 17.79" style="fill:#fde9f1"/><polygon points="111.85 20.58 111.85 28.82 113.73 28.82 113.73 19.81 111.85 20.58" style="fill:#ee2a7b"/><polygon points="111.55 19.86 113.43 19.09 109.47 15.15 109.47 17.79 111.55 19.86" style="fill:#ee2a7b"/><polygon points="109.08 18.51 107.09 20.48 107.09 28.82 111.07 28.82 111.07 20.48 109.08 18.51" style="fill:#ebb8d5"/><polygon points="104.43 19.87 103.81 19.61 104.1 18.89 104.69 19.13 108.69 15.15 108.69 14.21 109.47 14.21 109.47 15.15 113.43 19.09 113.92 18.89 114.21 19.61 113.73 19.81 113.73 28.82 114.51 28.82 114.51 19.06 109.08 13.66 103.65 19.06 103.65 28.82 104.43 28.82 104.43 19.87" style="fill:#a02373"/><polygon points="109.08 17.41 109.47 17.79 109.47 15.15 109.47 14.21 108.69 14.21 108.69 15.15 108.69 17.79 109.08 17.41" style="fill:#a02373"/><polygon points="111.85 20.16 111.85 20.58 113.73 19.81 114.21 19.61 113.92 18.89 113.43 19.09 111.55 19.86 111.85 20.16" style="fill:#a02373"/><polygon points="106.31 20.16 106.57 19.9 104.69 19.13 104.1 18.89 103.81 19.61 104.43 19.87 106.31 20.64 106.31 20.16" style="fill:#a02373"/><polygon points="111.85 20.16 111.55 19.86 109.47 17.79 109.08 17.41 108.69 17.79 106.57 19.9 106.31 20.16 106.31 20.64 106.31 28.82 107.09 28.82 107.09 20.48 109.08 18.51 111.07 20.48 111.07 28.82 111.85 28.82 111.85 20.58 111.85 20.16" style="fill:#a02373"/><path d="M114.7,42.3H103.46l-7.95-7.95V18.8l7.95-8H114.7l8,8V34.35Zm-10.82-1h10.41l7.36-7.36V19.21l-7.36-7.36H103.88l-7.37,7.36V33.94Z" style="fill:#7c3990"/><polyline points="96.01 26.03 96.01 38.53 109.08 51.52 122.15 38.53 122.15 26.03" style="fill:#bd92c2"/><polygon points="109.08 52.23 95.51 38.73 95.51 26.03 96.51 26.03 96.51 38.32 109.08 50.82 121.65 38.32 121.65 26.03 122.65 26.03 122.65 38.73 109.08 52.23" style="fill:#7d3990"/><polyline points="96.01 26.03 96.01 38.53 109.08 51.52 109.1 38.53 109.1 26.03" style="fill:#f5ebf4"/><polygon points="108.73 51.88 95.66 38.88 95.51 38.53 95.51 26.03 96.51 26.03 96.51 38.32 108.58 50.32 108.6 26.03 109.6 26.03 109.58 51.53 108.73 51.88" style="fill:#7d3990"/><polyline points="114.54 26.03 114.54 35.3 109.08 40.72 103.63 35.29 103.63 26.03" style="fill:#e6cbe2"/><polygon points="109.08 41.42 103.13 35.5 103.13 26.03 104.13 26.03 104.13 35.08 109.08 40.01 114.04 35.09 114.04 26.03 115.04 26.03 115.04 35.5 109.08 41.42" style="fill:#7d3990"/><rect x="117.84" y="32.78" width="1" height="8.27" transform="translate(38.12 131.42) rotate(-67)" style="fill:#7d3990"/><rect x="108.58" y="40.72" width="1" height="10.81" style="fill:#7d3990"/><rect x="95.68" y="36.41" width="8.27" height="1" transform="translate(-6.49 41.95) rotate(-23.01)" style="fill:#7d3990"/><rect x="95.51" y="25.53" width="27.13" height="1" style="fill:#7d3990"/><rect x="106.7" y="49.13" width="4.76" height="3.81" style="fill:#da1c5c"/><path d="M112,53.44H106.2V48.63H112Zm-4.76-1H111V49.63H107.2Z" style="fill:#7c3990"/><rect x="106.7" y="49.13" width="2.38" height="3.81" style="fill:#e6cbe2"/><path d="M109.58,53.44H106.2V48.63h3.38Zm-2.38-1h1.38V49.63H107.2Z" style="fill:#7c3990"/><rect x="108.39" y="5.17" width="1" height="4.83" style="fill:#7c3990"/><rect x="107.68" y="8.28" width="2.43" height="3.04" style="fill:#da1c5c"/><path d="M110.61,11.82h-3.43v-4h3.43Zm-2.43-1h1.43v-2h-1.43Z" style="fill:#7c3990"/><rect x="107.68" y="4.46" width="2.43" height="1.92" style="fill:#da1c5c"/><path d="M110.61,6.88h-3.43V4h3.43Zm-2.43-1h1.43V5h-1.43Z" style="fill:#7c3990"/><path d="M23.81,88.53h-20V69.73h20ZM4.31,88h19V70.23h-19Z" style="fill:#0f1f2c"/><rect x="11.36" y="79.23" width="1.92" height="6.15" transform="translate(-54.59 32.81) rotate(-45)" style="fill:#ee2a7b"/><rect x="14.35" y="79.23" width="1.92" height="6.15" transform="translate(62.68 13.28) rotate(45)" style="fill:#ee2a7b"/><rect x="12.85" y="73.1" width="1.92" height="10.23" style="fill:#ee2a7b"/><path d="M15,58.18l2,1,.75,2.08-.95,2L14.74,64l-.12,2.46L18.47,65l1.75-3.7-1.38-3.86-3.7-1.74Z" style="fill:#c093c3"/><path d="M15.26,55.46,19,57.21l.15.17,1.38,3.85v.22l-1.74,3.7-.17.15-3.85,1.38-.39-.28.12-2.46.19-.26,2-.7.84-1.79-.66-1.85-1.89-.9-.17-.27.12-2.46Zm3.35,2.22-3.2-1.51L15.32,58l1.82.87.15.16L18,61.11v.22l-1,2-.16.15-1.9.68L14.93,66l3.33-1.19,1.65-3.49Z" style="fill:#7c3990"/><path d="M12.48,55.73l-3.7,1.74L7.4,61.33,9.15,65,13,66.41,12.88,64l-2.08-.74-.94-2,.74-2.08,2-1Z" style="fill:#c093c3"/><path d="M12.77,55.71l.12,2.46-.17.27-1.89.9-.66,1.85L11,63l2,.7.19.26.12,2.46-.39.28L9.05,65.3l-.16-.15-1.75-3.7v-.22l1.38-3.85.15-.17,3.7-1.75Zm-5.06,5.6L9.36,64.8,12.69,66l-.09-1.83-1.9-.68-.16-.15-.95-2v-.22L10.33,59l.15-.16L12.3,58l-.09-1.83L9,57.68Z" style="fill:#7c3990"/><rect x="13.29" y="61.68" width="1.04" height="8.3" style="fill:#0f1f2c"/><rect x="12.15" y="68.36" width="3.16" height="1.61" style="fill:#0f1f2c"/><path d="M87.28,67.21h-.77C76,66.9,66.62,60.66,60.63,55.47l-2.34-2c-5.35-4.71-10.89-9.57-17.64-11.76a26,26,0,0,0-18.21.88c-5,2.16-9.31,6.93-8,11.86l-.73.19c-1.38-5.34,3.21-10.45,8.46-12.74A26.89,26.89,0,0,1,40.88,41c6.9,2.24,12.5,7.16,17.91,11.92l2.33,2C67,60,76.22,66.16,86.53,66.45c7,.21,14.58-2.42,18.8-6.52a10,10,0,0,0,3.37-7.08h.75a10.69,10.69,0,0,1-3.6,7.62C101.66,64.55,94.27,67.21,87.28,67.21Z" style="fill:#7c3990"/><polygon points="12.32 60.89 15.3 60.89 17.42 58.78 17.42 55.79 15.3 53.68 12.32 53.68 10.21 55.79 10.21 58.78 12.32 60.89" style="fill:#e6cae2"/><path d="M12.24,53.49h3.14l2.22,2.22v3.14l-2.22,2.22H12.24L10,58.85V55.71Zm3,.37H12.39l-2,2V58.7l2,2h2.84l2-2V55.87Z" style="fill:#7c3990"/><polygon points="15.3 60.89 12.32 60.89 10.21 58.78 10.21 55.79 12.32 53.68 15.3 53.68 14.73 55.05 14.73 59.51 15.3 60.89" style="fill:#b87bb5"/><polygon points="12.89 59.51 14.73 59.51 16.04 58.21 16.04 56.36 14.73 55.05 12.89 55.05 11.58 56.36 11.58 58.21 12.89 59.51" style="fill:#c093c3"/><path d="M12.81,54.87h2l1.41,1.41v2L14.81,59.7h-2L11.4,58.28v-2Zm1.85.37H13l-1.19,1.2v1.69L13,59.33h1.7l1.19-1.2V56.44Z" style="fill:#7c3990"/><rect x="14.83" y="59.46" width="0.37" height="1.49" transform="translate(-21.9 10.33) rotate(-22.5)" style="fill:#7c3990"/><rect x="11.86" y="60.02" width="1.49" height="0.37" transform="translate(-47.84 48.8) rotate(-67.49)" style="fill:#7c3990"/><rect x="10.15" y="58.31" width="1.49" height="0.37" transform="translate(-21.56 8.63) rotate(-22.51)" style="fill:#7c3990"/><rect x="10.71" y="55.33" width="0.37" height="1.49" transform="translate(-45.08 44.68) rotate(-67.5)" style="fill:#7c3990"/><rect x="12.42" y="53.62" width="0.37" height="1.49" transform="translate(-19.85 8.96) rotate(-22.5)" style="fill:#7c3990"/><rect x="14.27" y="54.18" width="1.49" height="0.37" transform="translate(-40.96 47.43) rotate(-67.49)" style="fill:#7c3990"/><rect x="15.98" y="55.89" width="1.49" height="0.37" transform="translate(-20.19 10.68) rotate(-22.51)" style="fill:#7c3990"/><rect x="16.54" y="57.75" width="0.37" height="1.49" transform="translate(-43.71 51.56) rotate(-67.5)" style="fill:#7c3990"/><path d="M12.24,53.49h3.14l2.22,2.22v3.14l-2.22,2.22H12.24L10,58.85V55.71Zm3,.37H12.39l-2,2V58.7l2,2h2.84l2-2V55.87Z" style="fill:#7c3990"/></svg>