<svg data-name="Layer 14" xmlns="http://www.w3.org/2000/svg" width="136.8" height="91.31" viewBox="0 0 136.8 91.31"><path fill="#fde9f1" d="M104.43 19.87v8.95h1.88v-8.18l-1.88-.77zm4.26-2.08v-2.64l-4 3.98 1.88.77 2.12-2.11z"/><path fill="#ee2a7b" d="M111.85 20.58v8.24h1.88v-9.01l-1.88.77zm-.3-.72l1.88-.77-3.96-3.94v2.64l2.08 2.07z"/><path fill="#ebb8d5" d="M109.08 18.51l-1.99 1.97v8.34h3.98v-8.34l-1.99-1.97z"/><path fill="#a02373" d="M104.43 19.87l-.62-.26.29-.72.59.24 4-3.98v-.94h.78v.94l3.96 3.94.49-.2.29.72-.48.2v9.01h.78v-9.76l-5.43-5.4-5.43 5.4v9.76h.78v-8.95z"/><path fill="#a02373" d="M109.08 17.41l.39.38v-3.58h-.78v3.58l.39-.38zm2.77 2.75v.42l1.88-.77.48-.2-.29-.72-.49.2-1.88.77.3.3zm-5.54 0l.26-.26-1.88-.77-.59-.24-.29.72.62.26 1.88.77v-.48z"/><path fill="#a02373" d="M111.85 20.16l-.3-.3-2.08-2.07-.39-.38-.39.38-2.12 2.11-.26.26v8.66h.78v-8.34l1.99-1.97 1.99 1.97v8.34h.78v-8.66z"/><path d="M114.7 42.3h-11.24l-7.95-7.95V18.8l7.95-8h11.24l8 8v15.55zm-10.82-1h10.41l7.36-7.36V19.21l-7.36-7.36h-10.41l-7.37 7.36v14.73z" fill="#7c3990"/><path fill="#bd92c2" d="M96.01 26.03v12.5l13.07 12.99 13.07-12.99v-12.5"/><path fill="#7d3990" d="M109.08 52.23l-13.57-13.5v-12.7h1v12.29l12.57 12.5 12.57-12.5V26.03h1v12.7l-13.57 13.5z"/><path fill="#f5ebf4" d="M96.01 26.03v12.5l13.07 12.99.02-12.99v-12.5"/><path fill="#7d3990" d="M108.73 51.88l-13.07-13-.15-.35v-12.5h1v12.29l12.07 12 .02-24.29h1l-.02 25.5-.85.35z"/><path fill="#e6cbe2" d="M114.54 26.03v9.27l-5.46 5.42-5.45-5.43v-9.26"/><path fill="#7d3990" d="M109.08 41.42l-5.95-5.92v-9.47h1v9.05l4.95 4.93 4.96-4.92v-9.06h1v9.47l-5.96 5.92z"/><path fill="#7d3990" d="M114.338 35.756l.39-.92 7.613 3.23-.39.921zm-5.758 4.964h1v10.81h-1zm-12.77-2.657l7.612-3.233.39.92-7.611 3.233zm-.3-12.533h27.13v1H95.51z"/><path fill="#da1c5c" d="M106.7 49.13h4.76v3.81h-4.76z"/><path d="M112 53.44h-5.8v-4.81h5.8zm-4.76-1H111v-2.81h-3.8z" fill="#7c3990"/><path fill="#e6cbe2" d="M106.7 49.13h2.38v3.81h-2.38z"/><path d="M109.58 53.44h-3.38v-4.81h3.38zm-2.38-1h1.38v-2.81h-1.38zm1.19-47.27h1V10h-1z" fill="#7c3990"/><path fill="#da1c5c" d="M107.68 8.28h2.43v3.04h-2.43z"/><path d="M110.61 11.82h-3.43v-4h3.43zm-2.43-1h1.43v-2h-1.43z" fill="#7c3990"/><path fill="#da1c5c" d="M107.68 4.46h2.43v1.92h-2.43z"/><path d="M110.61 6.88h-3.43V4h3.43zm-2.43-1h1.43V5h-1.43z" fill="#7c3990"/><path d="M23.81 88.53h-20v-18.8h20zM4.31 88h19V70.23h-19z" fill="#0f1f2c"/><path fill="#ee2a7b" d="M9.467 80.801l1.357-1.357 4.35 4.348-1.358 1.358z"/><path fill="#ee2a7b" d="M16.803 79.451l1.358 1.358-4.35 4.348-1.357-1.357z"/><path fill="#ee2a7b" d="M12.85 73.1h1.92v10.23h-1.92z"/><path d="M15 58.18l2 1 .75 2.08-.95 2-2.06.74-.12 2.46L18.47 65l1.75-3.7-1.38-3.86-3.7-1.74z" fill="#c093c3"/><path d="M15.26 55.46L19 57.21l.15.17 1.38 3.85v.22l-1.74 3.7-.17.15-3.85 1.38-.39-.28.12-2.46.19-.26 2-.7.84-1.79-.66-1.85-1.89-.9-.17-.27.12-2.46zm3.35 2.22l-3.2-1.51-.09 1.83 1.82.87.15.16.71 2.08v.22l-1 2-.16.15-1.9.68-.01 1.84 3.33-1.19 1.65-3.49z" fill="#7c3990"/><path d="M12.48 55.73l-3.7 1.74-1.38 3.86L9.15 65 13 66.41 12.88 64l-2.08-.74-.94-2 .74-2.08 2-1z" fill="#c093c3"/><path d="M12.77 55.71l.12 2.46-.17.27-1.89.9-.66 1.85L11 63l2 .7.19.26.12 2.46-.39.28-3.87-1.4-.16-.15-1.75-3.7v-.22l1.38-3.85.15-.17 3.7-1.75zm-5.06 5.6l1.65 3.49 3.33 1.2-.09-1.83-1.9-.68-.16-.15-.95-2v-.22l.74-2.12.15-.16L12.3 58l-.09-1.83L9 57.68z" fill="#7c3990"/><path fill="#0f1f2c" d="M13.29 61.68h1.04v8.3h-1.04z"/><path fill="#0f1f2c" d="M12.15 68.36h3.16v1.61h-3.16z"/><path d="M87.28 67.21h-.77C76 66.9 66.62 60.66 60.63 55.47l-2.34-2c-5.35-4.71-10.89-9.57-17.64-11.76a26 26 0 0 0-18.21.88c-5 2.16-9.31 6.93-8 11.86l-.73.19c-1.38-5.34 3.21-10.45 8.46-12.74a26.89 26.89 0 0 1 18.71-.9c6.9 2.24 12.5 7.16 17.91 11.92l2.33 2C67 60 76.22 66.16 86.53 66.45c7 .21 14.58-2.42 18.8-6.52a10 10 0 0 0 3.37-7.08h.75a10.69 10.69 0 0 1-3.6 7.62c-4.19 4.08-11.58 6.74-18.57 6.74z" fill="#7c3990"/><path fill="#e6cae2" d="M12.32 60.89h2.98l2.12-2.11v-2.99l-2.12-2.11h-2.98l-2.11 2.11v2.99l2.11 2.11z"/><path d="M12.24 53.49h3.14l2.22 2.22v3.14l-2.22 2.22h-3.14L10 58.85v-3.14zm3 .37h-2.85l-2 2v2.84l2 2h2.84l2-2v-2.83z" fill="#7c3990"/><path fill="#b87bb5" d="M15.3 60.89h-2.98l-2.11-2.11v-2.99l2.11-2.11h2.98l-.57 1.37v4.46l.57 1.38z"/><path fill="#c093c3" d="M12.89 59.51h1.84l1.31-1.3v-1.85l-1.31-1.31h-1.84l-1.31 1.31v1.85l1.31 1.3z"/><path d="M12.81 54.87h2l1.41 1.41v2l-1.41 1.42h-2l-1.41-1.42v-2zm1.85.37H13l-1.19 1.2v1.69l1.19 1.2h1.7l1.19-1.2v-1.69z" fill="#7c3990"/><path fill="#7c3990" d="M14.555 59.589l.342-.142.57 1.377-.341.141zm-2.407 1.233l.57-1.377.342.142-.57 1.377zm-2.008-2.21l1.377-.57.142.341-1.377.57zm-.003-2.652l.141-.343 1.377.57-.142.342zm2.007-2.215l.342-.141.57 1.376-.342.142zm2.411 1.245l.57-1.377.343.142-.57 1.376zm1.415 1.204l1.376-.57.142.341-1.377.57zm.004 2.185l.141-.342 1.377.57-.142.342z"/><path d="M12.24 53.49h3.14l2.22 2.22v3.14l-2.22 2.22h-3.14L10 58.85v-3.14zm3 .37h-2.85l-2 2v2.84l2 2h2.84l2-2v-2.83z" fill="#7c3990"/></svg>