<svg xmlns="http://www.w3.org/2000/svg" width="717.6" height="708.11"><defs><clipPath id="right-tube-mask"><path fill="none" d="M400.83 314.62H502.6v25.28H400.83z"/></clipPath><clipPath id="left-tube-mask"><path fill="none" d="M178.09 314.62h101.76v25.28H178.09z"/></clipPath><clipPath id="clip-path"><path d="M342 16.82h-3.75a21.88 21.88 0 1 0 0 43.75H342" fill="none"/></clipPath><linearGradient id="linear-gradient" x1="45.15" y1="353.87" x2="714.04" y2="353.87" gradientUnits="userSpaceOnUse"><stop offset="0" stop-color="#2484c6"/><stop offset="1" stop-color="#2484c6" stop-opacity="0"/></linearGradient><clipPath id="clip-path-2"><path d="M160.61 511.25l-2.17-2.16a17.83 17.83 0 1 0-25.21 25.21l2.16 2.17" fill="none"/></clipPath><clipPath id="clip-path-3"><path d="M521.39 148.39L520 147a11.45 11.45 0 1 0-16.2 16.19l1.39 1.39" fill="none"/></clipPath><clipPath id="clip-path-4"><path d="M191 318.88h-1.44a8.38 8.38 0 1 0 0 16.76H191" fill="none"/></clipPath><clipPath id="clip-path-5"><path d="M215.41 318.88H214a8.38 8.38 0 0 0 0 16.76h1.44" fill="none"/></clipPath><clipPath id="clip-path-6"><path d="M239.93 318.88h-1.44a8.38 8.38 0 0 0 0 16.76h1.44" fill="none"/></clipPath><clipPath id="clip-path-7"><path d="M264.37 318.88h-1.44a8.38 8.38 0 0 0 0 16.76h1.44" fill="none"/></clipPath><clipPath id="clip-path-8"><path d="M413.71 318.88h-1.44a8.38 8.38 0 0 0 0 16.76h1.44" fill="none"/></clipPath><clipPath id="clip-path-9"><path d="M438.16 318.88h-1.44a8.38 8.38 0 0 0 0 16.76h1.44" fill="none"/></clipPath><clipPath id="clip-path-10"><path d="M462.67 318.88h-1.44a8.38 8.38 0 0 0 0 16.76h1.44" fill="none"/></clipPath><clipPath id="clip-path-11"><path d="M487.11 318.88h-1.44a8.38 8.38 0 0 0 0 16.76h1.44" fill="none"/></clipPath></defs><g style="isolation:isolate"><g id="ILLO_5" data-name="ILLO 5"><g id="rocket-ship" stroke="#7d3990"><path fill="#ee2a7b" stroke-miterlimit="10" d="M357.19 585.08v43.66l-16.29 16.2-16.28-16.2v-43.66"/><path fill="#fce9f1" stroke-linejoin="bevel" d="M340.93 585.08v43.66l-.03 16.2-16.28-16.2v-43.66"/><path fill="none" stroke-miterlimit="10" d="M357.19 621.84v-36.76h-32.57v36.76"/><path fill="#e9b7d5" stroke-miterlimit="10" d="M334.1 585.08v39.63l6.8 6.76 6.8-6.75v-39.64"/><path fill="none" stroke-miterlimit="10" d="M347.7 624.72l9.49 4.02M340.9 631.47v13.47M334.1 624.71l-9.48 4.03"/><path fill="#ee2a7b" stroke-miterlimit="10" d="M355 585.08h-28.19l6.5-7.62h15.19l6.5 7.62z"/><path fill="#fce9f1" stroke-miterlimit="10" d="M324.62 613.13l-5.43-2.57-7.37-22.72h12.8v25.29z"/><path fill="#ee2a7b" stroke-miterlimit="10" d="M357.19 613.13l5.42-2.57 7.37-22.72h-12.79v25.29z"/></g><path fill="#da1c5c" stroke="#7c3990" stroke-miterlimit="10" d="M110.63 98.91l-.02 6.25 1.11 1.1 1.62 1.62.53.54 3.13-3.14 3.14-3.13-.53-.54-1.63-1.62-1.1-1.1-6.25.02z"/><path fill="#f6ebf4" stroke="#7d3990" stroke-miterlimit="10" d="M110.63 98.91l-.02 6.25 1.11 1.1 2.15 2.16 3.13-3.14"/><path fill="none" stroke="#7d3990" stroke-miterlimit="10" d="M115.83 101.49l1.05-2.6M113.22 101.5l-2.59-2.59M113.21 104.11l-2.6 1.05"/><path fill="#e6cbe2" stroke="#7d3990" stroke-miterlimit="10" d="M118.15 103.81l-.83-.83-1.16-1.16-.33-.33-2.61.01-.01 2.61.33.33 1.16 1.16.84.83"/><path transform="rotate(-45 120.5251 108.7969)" fill="#f6ebf4" stroke="#7d3990" stroke-miterlimit="10" d="M117.38 103.82h6.28v9.95h-6.28z"/><path fill="#f6ebf4" stroke="#7d3990" stroke-miterlimit="10" d="M116.49 109.22l4.45-4.45M118.3 111.02l4.44-4.44M120.1 112.82l4.45-4.44"/><path fill="#da1c5c" stroke="#7c3990" stroke-miterlimit="10" d="M150.84 130.44l-.04 8.64-8.63.04-20.07-22.43 6.31-6.31 22.43 20.06z"/><path fill="#f6ebf4" stroke="#7d3990" stroke-miterlimit="10" d="M150.8 139.08l-8.63.04-20.07-22.43 3.16-3.16"/><path fill="#da1c5c" stroke="#7c3990" stroke-miterlimit="10" d="M130.04 106.32l-1.9 1.89-8.2 8.21-1.9 1.89 1.27 5.06 1.28-1.28.16-3.64.61-.61 8.2-8.21.62-.61 3.64-.15 1.28-1.28-5.06-1.27z"/><path d="M342 16.82h-3.75a21.88 21.88 0 1 0 0 43.75H342" fill="#f2cd7b" stroke="#7c3990" stroke-miterlimit="10"/><g clip-path="url(#clip-path)" fill="#f5ebf4" stroke="#7d3990" stroke-linejoin="bevel"><path d="M315.64 17.86h22.31M315.64 21.19h22.31M315.64 24.53h22.31M315.64 27.86h22.31M315.64 31.2h22.31M315.64 34.53h22.31M315.64 37.86h22.31M315.64 41.2h22.31M315.64 44.53h22.31M315.64 47.86h22.31M315.64 51.2h22.31M315.64 54.53h22.31M315.64 57.86h22.31M315.64 59.53h22.31"/></g><path d="M342 16.82a21.88 21.88 0 1 0 21.89 21.88A21.87 21.87 0 0 0 342 16.82z" fill="#efb032" stroke="#7c3990" stroke-miterlimit="10"/><path d="M342 20.66a18 18 0 1 0 18 18 18 18 0 0 0-18-18zm0 36.07a18 18 0 1 0 0-36.07" fill="#f2c43c" stroke="#7c3990" stroke-miterlimit="10"/><path d="M342 56.73a18 18 0 1 0 0-36.07h-.55a18 18 0 0 1-.1 36" fill="#f2cd7b" stroke="#7c3990" stroke-miterlimit="10"/><path d="M333.69 31h10.89a3.62 3.62 0 1 1 0 7.24h-8.16M336.42 31.01V45.5M339.43 26.92v4.09M343.25 26.92v4.09M339.43 45.5v4.09M343.25 45.5v4.09M344.58 38.25a3.63 3.63 0 0 1 0 7.25h-10.89" fill="none" stroke="#7d3990" stroke-miterlimit="10"/><path d="M371.6 67.3V36.74a31.47 31.47 0 0 0-31.47-31.46 31.47 31.47 0 0 0-31.46 31.46V67.3z" fill="#d1ecf2" opacity=".4"/><path fill="#fff" opacity=".65" d="M354.22 8.6l-45.55 43.42V38.2l34.47-32.92 11.08 3.32zM360.32 12.61l-51.65 48.9v-3.7l49.51-46.85 2.14 1.65z"/><path d="M371.6 67.3V36.73a31.47 31.47 0 0 0-31.47-31.46 31.47 31.47 0 0 0-31.46 31.47v30.37" fill="none" stroke="#7d3990" stroke-miterlimit="10"/><path d="M168.77 122.46l-27.71-27.72a24.46 24.46 0 0 0-34.59 0 24.46 24.46 0 0 0 0 34.59l27.72 27.72z" fill="#d1ecf2" opacity=".4"/><path fill="#fff" opacity=".65" d="M116.03 88.82l-1.16 48.91-7.6-7.6.86-37.04 7.9-4.27zM121.59 87.68l-1.51 55.27-2.03-2.04 1.46-52.96 2.08-.27z"/><path d="M168.78 122.46l-27.73-27.72a24.45 24.45 0 0 0-34.58 0 24.44 24.44 0 0 0 0 34.59l27.61 27.61" fill="none" stroke="#7d3990" stroke-miterlimit="10"/><path fill="#ee2a7b" stroke="#7d3990" stroke-miterlimit="10" d="M65.72 343.53H22.05l-16.2-16.28 16.2-16.29h43.67"/><path fill="#fce9f1" stroke="#7d3990" stroke-linejoin="bevel" d="M65.72 327.27H22.05l-16.2-.02 16.2-16.29h43.67"/><path fill="none" stroke="#7d3990" stroke-miterlimit="10" d="M28.95 343.53h36.77v-32.57H28.95"/><path fill="#e9b7d5" stroke="#7d3990" stroke-miterlimit="10" d="M65.72 320.45H26.08l-6.76 6.8 6.75 6.8h39.65"/><path fill="none" stroke="#7d3990" stroke-miterlimit="10" d="M26.07 334.05l-4.02 9.48M19.32 327.25H5.85M26.08 320.45l-4.03-9.49"/><path fill="#ee2a7b" stroke="#7d3990" stroke-miterlimit="10" d="M65.72 341.34v-28.19l7.61 6.5v15.2l-7.61 6.49z"/><path fill="#fce9f1" stroke="#7d3990" stroke-miterlimit="10" d="M37.66 310.96l2.57-5.42 22.72-7.37v12.79H37.66z"/><path fill="#ee2a7b" stroke="#7d3990" stroke-miterlimit="10" d="M37.66 343.53l2.57 5.43 22.72 7.37v-12.8H37.66z"/><path d="M120.39 205.66a42.1 42.1 0 1 1-59-57.92A66.16 66.16 0 1 0 124 165.56a42.07 42.07 0 0 1-3.61 40.1z" fill="#fde9f1"/><path d="M95.15 633.77c-132.19-42.95 44-167 5.12-250.5-86.91-186.6 113.65-116.64 90.65-206.1-23.21-90.23 11.59-144.09 159.85-72.52s124.81-9.51 276.06-20.76c130.36-9.69-209.6 169-48.57 225.25C734.07 363.55 825.72 529.57 453 514.65c-171.51-6.86-287 142.13-357.85 119.12z" fill="#475290"/><path d="M578.26 309.14c-161-56.23 178.93-234.94 48.57-225.25C475.58 95.14 499 176.22 350.77 104.65s-183.06-17.71-159.85 72.52c23 89.46-177.56 19.5-90.65 206.1 38.9 83.53-137.27 207.55-5.12 250.5 70.81 23 186.34-126 357.88-119.12 372.69 14.92 281.04-151.1 125.23-205.51z" style="mix-blend-mode:multiply" fill="url(#linear-gradient)"/><path fill="#fff" d="M199.75 221.56l-36.11-36.11 2.88-2.88 36.11 36.1M229.88 191.43l-36.11-36.11 3.23-3.24 36.11 36.11"/><path transform="rotate(-45 166.1625 154.4432)" fill="#e9b7d5" d="M137.79 134.3h56.75v40.28h-56.75z"/><path fill="#ee2a7b" stroke="#7d3990" stroke-miterlimit="10" d="M144.78 158.29l6.76 6.76M147.31 155.76l6.76 6.76M149.83 153.23l6.77 6.77M152.36 150.7l6.77 6.77M154.89 148.17l6.77 6.77M157.82 171.46v-2.06h2.06"/><circle cx="160.57" cy="172.15" r="3.16" fill="#fff" stroke="#7d3990" stroke-miterlimit="10"/><path fill="#ee2a7b" stroke="#7d3990" stroke-miterlimit="10" d="M166.98 161.69l1.45-1.47 1.47 1.45"/><circle cx="168.46" cy="164.11" r="3.16" fill="#fff" stroke="#7d3990" stroke-miterlimit="10"/><path transform="rotate(-45 177.3217 140.101)" fill="#fff" d="M174.31 137.09h6.02v6.02h-6.02z"/><path transform="rotate(-45 177.6243 148.3156)" fill="#fff" d="M174.62 145.31h6.02v6.02h-6.02z"/><path fill="#fff" opacity=".8" d="M172.27 314.62h108.99v25.28H172.27z"/><path fill="#e6cae2" stroke="#7c3990" stroke-miterlimit="10" d="M171.66 310.4v34.98l5.93-2.37V313.7l-5.93-3.3z"/><path fill="#e6cae2" d="M285.73 345.38V310.4l-5.38 2.37v29.31l5.38 3.3z"/><path fill="#fff" opacity=".8" d="M395.01 314.62H504v25.28H395.01z"/><path fill="#e6cae2" d="M394.8 310.4v34.98l5.53-2.37V313.7l-5.53-3.3z"/><path fill="#e6cae2" stroke="#7c3990" stroke-miterlimit="10" d="M509.02 345.38V310.4l-5.93 2.37v29.31l5.93 3.3z"/><path d="M302.83 368c-2.49 2.49-5.32-.33-7.82 2.16s.34 5.32-2.16 7.82-5.32-.33-7.82 2.16.33 5.33-2.16 7.82-5.32-.33-7.82 2.16.34 5.32-2.16 7.82-5.32-.33-7.82 2.16.34 5.32-2.16 7.82-5.32-.33-7.82 2.16.33 5.33-2.16 7.82-5.33-.33-7.82 2.17.33 5.32-2.17 7.82-5.32-.33-7.82 2.16.33 5.33-2.16 7.82-5.33-.32-7.83 2.18.33 5.32-2.17 7.82M460.88 210c-2.49 2.49-5.32-.33-7.82 2.16s.34 5.32-2.16 7.82-5.32-.33-7.82 2.16.33 5.33-2.16 7.82-5.32-.33-7.82 2.16.34 5.32-2.16 7.82-5.32-.34-7.81 2.16.33 5.32-2.17 7.82-5.32-.34-7.82 2.16.34 5.33-2.16 7.82-5.33-.33-7.82 2.17.33 5.32-2.17 7.82-5.32-.33-7.82 2.16.33 5.33-2.16 7.82-5.33-.32-7.83 2.17.33 5.33-2.17 7.83M381 365.19c2.49 2.5-.34 5.32 2.16 7.82s5.32-.33 7.82 2.16-.33 5.33 2.16 7.82 5.33-.33 7.82 2.16-.33 5.33 2.16 7.82 5.32-.33 7.82 2.16-.34 5.32 2.16 7.82 5.32-.34 7.82 2.16-.34 5.32 2.16 7.82 5.33-.33 7.82 2.16-.33 5.33 2.17 7.82 5.32-.33 7.82 2.17-.34 5.32 2.16 7.82 5.33-.33 7.82 2.17-.33 5.32 2.17 7.82 5.33-.33 7.83 2.17M223 207.14c2.49 2.5-.34 5.32 2.16 7.82s5.32-.33 7.82 2.16-.33 5.33 2.16 7.82 5.33-.33 7.82 2.16-.33 5.33 2.16 7.82 5.32-.33 7.82 2.16-.34 5.32 2.16 7.82 5.32-.34 7.82 2.16-.34 5.32 2.16 7.82 5.32-.33 7.82 2.16-.33 5.33 2.16 7.82 5.33-.33 7.83 2.17-.34 5.32 2.16 7.82 5.33-.33 7.82 2.17-.33 5.32 2.17 7.82 5.33-.33 7.83 2.17M341.5 410.25c0 3.53-3.44 4.31-3.44 7.84s4.89 3.53 4.89 7.06-4.89 3.52-4.89 7.05 4.89 3.53 4.89 7.06-4.89 3.53-4.89 7.06 4.89 3.52 4.89 7.05-4.89 3.53-4.89 7.06S343 464 343 467.5s-4.89 3.52-4.89 7.05 4.89 3.53 4.89 7.07-4.89 3.53-4.89 7.07 4.89 3.53 4.89 7.06M343 159.28c0 3.53-4.89 3.53-4.89 7.06s4.89 3.52 4.89 7-4.89 3.53-4.89 7.06 4.89 3.6 4.89 7.11-4.89 3.53-4.89 7.06 4.89 3.53 4.89 7.06-4.89 3.53-4.89 7.05 4.89 3.53 4.89 7.06-4.89 3.53-4.89 7.06 4.89 3.53 4.89 7.06-4.89 3.53-4.89 7.06 3.76 5.85 3.76 9.38" fill="none" stroke="#fff" stroke-miterlimit="10"/><path fill="#fff" d="M163.66 351.24H112.6v-4.09h51.06"/><path transform="rotate(-90 92.455 327.515)" fill="#ee2a7b" d="M64.08 307.38h56.75v40.28H64.08z"/><path fill="#fff" d="M163.66 308.62H112.6v-4.57h51.06"/><path d="M163.66 304.54v-1H113.1v-4.9H71.82v57.75h41.28v-4.66h50.56v-1H113.1v-3.08h50.56v-1h-4.37L148 327.89l11.33-18.77h4.37v-1h-50.6v-3.58zm-39.43 24.31l10.77 17.8h-21.5zm-11.13 16.51v-34.94l10.55 17.47zm11.72-17.47l10.55-17.47v34.94zm11.55-17.27l10.42 17.27-10.42 17.26zm-12.14 16.3l-10.75-17.8H135zm-12.13 28.47H72.82v-55.75h39.28v55.75zm46-8.74h-21.47l10.75-17.8zm-10.74-19.73l-10.75-17.8h21.49z" fill="#7d3990"/><path fill="#ee2a7b" stroke="#7d3990" stroke-miterlimit="10" d="M80.05 345.36h9.57M80.05 341.79h9.57M80.05 338.21h9.57M80.05 334.63h9.57M80.05 331.06h9.57M101.16 346.7l-1.93.74-.74-1.92"/><circle cx="100.8" cy="343.88" r="3.16" fill="#e9b7d5" stroke="#7d3990" stroke-miterlimit="10"/><path fill="#ee2a7b" stroke="#7d3990" stroke-miterlimit="10" d="M103 331.21l1.32 1.59-1.59 1.32"/><circle cx="100.45" cy="332.45" r="3.16" fill="#e9b7d5" stroke="#7d3990" stroke-miterlimit="10"/><path transform="rotate(-90 84.055 315.425)" fill="#fce9f1" d="M81.04 312.41h6.02v6.02h-6.02z"/><path transform="rotate(-90 96.22 309.58)" fill="#fce9f1" d="M93.21 306.57h6.02v6.02h-6.02z"/><path transform="rotate(-90 96.215 314.925)" fill="#fce9f1" d="M93.21 311.91h6.02v6.02h-6.02z"/><path fill="#fff" d="M365.78 504.18v29.69h-4.34v-29.69M320.37 504.18v29.69h-4.88v-29.69"/><path transform="rotate(180 340.505 555.335)" fill="#ee2a7b" d="M310.26 533.87h60.49v42.93h-60.49z"/><path d="M366.28 533.37v-29.19h-1v29.19h-3.35v-29.19h-1v4.61l-20 12.1-20-12.1v-4.61h-1v29.19H316v-29.19h-1v29.19h-5.23v43.93h61.49v-43.93zM360.93 510v23l-19.06-11.52zm-1.29 23.41h-37.48l18.74-11.31zm-19.71-11.9L320.87 533v-23zm30.32 54.83h-59.49v-41.97h59.49z" fill="#7d3990"/><path fill="#ee2a7b" stroke="#7d3990" stroke-miterlimit="10" d="M370.75 533.87h-60.49M359.52 568.56v-10.2M355.71 568.56v-10.2M351.9 568.56v-10.2M348.09 568.56v-10.2M344.28 568.56v-10.2M359.63 548.8l-1.56 1.55-1.56-1.55"/><circle cx="358.07" cy="546.21" r="3.37" fill="#e9b7d5" stroke="#7d3990" stroke-miterlimit="10"/><path fill="#ee2a7b" stroke="#7d3990" stroke-miterlimit="10" d="M345.36 549.26l-2.2.02-.02-2.2"/><circle cx="346.07" cy="546.32" r="3.37" fill="#e9b7d5" stroke="#7d3990" stroke-miterlimit="10"/><path transform="rotate(180 321.39 564.295)" fill="#fce9f1" d="M318.18 561.08h6.42v6.42h-6.42z"/><path transform="rotate(180 321.39 551.33)" fill="#fce9f1" d="M318.18 548.12h6.42v6.42h-6.42z"/><path transform="rotate(180 327.615 544.815)" fill="#e9b7d5" d="M324.41 541.6h6.42v6.42h-6.42z"/><path transform="rotate(180 327.615 557.755)" fill="#e9b7d5" d="M324.41 554.54h6.42v6.42h-6.42z"/><path fill="#ee2a7b" stroke="#7d3990" stroke-miterlimit="10" d="M317.8 561.08h13.03M317.8 554.49h13.03M324.3 567.5v-26.04M317.8 547.9h13.03"/><path transform="rotate(180 324.31 554.405)" fill="none" stroke="#7d3990" stroke-miterlimit="10" d="M317.8 541.3h13.03v26.2H317.8z"/><path fill="#fff" d="M316.79 150.1V99.04h4.08v51.06M359.4 150.1V99.04h4.58v51.06"/><path fill="#ee2a7b" d="M301.12 61.14h78.76v37.9h-78.76z"/><path d="M380.39 60.64h-79.77v38.9h15.67v50.56h1V99.54h3.08v50.56h1v-4.37l18.77-11.33 18.76 11.33v4.37h1V99.54h3.58v50.56h1V99.54h15.91zm-57.73 61.17l17.48-10.55 17.47 10.55zm-1.29-.39V99.93l17.8 10.74zm36 1.39l-17.26 10.42-17.27-10.42zm-16.3-12.14l17.8-10.74v21.49zm-1-.58l-17.41-10.55h34.95zm-18.77 34.48v-21.5l17.8 10.75zm19.73-10.75l17.8-10.75v21.5zm38.29-35.28h-77.7v-36.9h77.77z" fill="#7d3990"/><path fill="#ee2a7b" stroke="#7d3990" stroke-miterlimit="10" d="M315.74 68.88v8.27M320.7 68.88v8.27M325.66 68.88v8.27M330.63 68.88v8.27M335.59 68.88v8.27M315.61 83.6l2.03-2.02 2.02 2.02"/><circle cx="317.64" cy="86.97" r="4.38" fill="#e9b7d5" stroke="#7d3990" stroke-miterlimit="10"/><path fill="#ee2a7b" stroke="#7d3990" stroke-miterlimit="10" d="M334.18 83l2.87-.02.02 2.87"/><circle cx="333.26" cy="86.83" r="4.38" fill="#e9b7d5" stroke="#7d3990" stroke-miterlimit="10"/><path fill="#fce9f1" d="M353.11 67.25h8.36v8.36h-8.36zM361.22 84.13h8.36v8.36h-8.36z"/><path fill="#ee2a7b" stroke="#7d3990" stroke-miterlimit="10" d="M370.07 75.61h-16.96M370.07 84.19h-16.96M361.6 67.25v25.24"/><path fill="none" stroke="#7d3990" stroke-miterlimit="10" d="M353.11 67.25h16.96v25.24h-16.96z"/><path fill="#ee2c7b" d="M611.37 412.77l-7.56 7.52v15.1l7.56 7.52 7.56-7.52v-15.1l-7.56-7.52z"/><path fill="#f6ebf4" stroke="#7d3990" stroke-miterlimit="10" d="M611.37 412.77l-7.56 7.52v15.1l7.56 7.52"/><path fill="#e6cbe2" d="M611.37 419.02l-3.15 3.14V433.52l3.15 3.14 3.16-3.14V422.15l-3.16-3.13z"/><path d="M611.37 412.06l-8.06 8v15.54l8.06 8 8.06-8v-15.52zm3.27 9.5l-2.77-2.75V414l6.18 6.15zM611.37 436l-2.65-2.65v-10.99l2.65-2.64 2.66 2.64v11zm-.5-17.15l-2.77 2.75-3.41-1.44 6.18-6.15zm-3.15 3.68v10.7l-3.41 1.45V421zm.38 11.62l2.77 2.76v4.84l-6.18-6.15zm3.77 2.76l2.77-2.75 3.41 1.44-6.18 6.15zm3.16-3.68v-10.7l3.4-1.45v13.6z" fill="#7d3990"/><path fill="#ee2c7b" stroke="#7c3990" stroke-miterlimit="10" d="M392.14 422.86l-5 4.98v10.01l5 4.97 5.01-4.97v-10.01l-5.01-4.98z"/><path fill="#f6ebf4" stroke="#7d3990" stroke-miterlimit="10" d="M392.14 422.86l-5 4.98v10.01l5 4.97"/><path fill="none" stroke="#7d3990" stroke-miterlimit="10" d="M394.23 436.61l2.92 1.23M392.14 438.68v4.14M390.05 436.61l-2.91 1.23M394.23 429.08l2.92-1.24M392.14 427v-4.14M390.05 429.08l-2.91-1.24"/><path fill="#e6cbe2" stroke="#7d3990" stroke-miterlimit="10" d="M392.14 427l-2.09 2.08V436.61l2.09 2.07 2.09-2.07V429.08l-2.09-2.08z"/><path fill="#ee2c7b" stroke="#7c3990" stroke-miterlimit="10" d="M525.9 202.03l-5 4.98v10l5 4.98 5.01-4.98v-10l-5.01-4.98z"/><path fill="#f6ebf4" stroke="#7d3990" stroke-miterlimit="10" d="M525.9 202.03l-5 4.98v10l5 4.98"/><path fill="none" stroke="#7d3990" stroke-miterlimit="10" d="M527.99 215.77l2.92 1.24M525.9 217.85v4.14M523.81 215.77l-2.91 1.24M527.99 208.24l2.92-1.23M525.9 206.17v-4.14M523.81 208.25l-2.91-1.24"/><path fill="#e6cbe2" stroke="#7d3990" stroke-miterlimit="10" d="M525.9 206.17l-2.09 2.08v7.52l2.09 2.08 2.09-2.07V208.25l-2.09-2.08z"/><path fill="#ee2c7b" stroke="#7c3990" stroke-miterlimit="10" d="M389.85 188.56l-7.83 7.79v15.66l7.83 7.79 7.83-7.79v-15.66l-7.83-7.79z"/><path fill="#f6ebf4" stroke="#7d3990" stroke-miterlimit="10" d="M389.85 188.56l-7.83 7.79v15.66l7.83 7.79"/><path fill="none" stroke="#7d3990" stroke-miterlimit="10" d="M393.12 210.07l4.56 1.94M389.85 213.32v6.48M386.58 210.07l-4.56 1.94M393.12 198.29l4.56-1.94M389.85 195.04v-6.48M386.58 198.29l-4.56-1.94"/><path fill="#e6cbe2" stroke="#7d3990" stroke-miterlimit="10" d="M389.85 195.04l-3.27 3.25v11.78l3.27 3.25 3.27-3.25v-11.78l-3.27-3.25z"/><path fill="#ee2c7b" stroke="#7c3990" stroke-miterlimit="10" d="M204.74 532.56l-3.45 3.43v6.89l3.45 3.43 3.45-3.43v-6.89l-3.45-3.43z"/><path fill="#f6ebf4" stroke="#7d3990" stroke-miterlimit="10" d="M204.74 532.56l-3.45 3.43v6.89l3.45 3.43"/><path fill="none" stroke="#7d3990" stroke-miterlimit="10" d="M206.18 542.03l2 .85M204.74 543.46v2.85M203.3 542.03l-2.01.85M206.18 536.84l2-.85M204.74 535.41v-2.85M203.3 536.84l-2.01-.85"/><path fill="#e6cbe2" stroke="#7d3990" stroke-miterlimit="10" d="M204.74 535.41l-1.44 1.44V542.03l1.44 1.43 1.44-1.43v-5.19l-1.44-1.43z"/><path fill="#ee2c7b" stroke="#7c3990" stroke-miterlimit="10" d="M28.95 417.22l-9.51 9.45V454.83l9.51 9.46 9.51-9.46V426.67l-9.51-9.45z"/><path fill="#f6ebf4" stroke="#7d3990" stroke-miterlimit="10" d="M28.95 417.22l-9.51 9.45V454.83l9.51 9.46"/><path fill="none" stroke="#7d3990" stroke-miterlimit="10" d="M32.92 452.48l5.54 2.35M28.95 456.43v7.86M24.98 452.48l-5.54 2.35M32.92 429.02l5.54-2.35M28.95 425.08v-7.86M24.98 429.03l-5.54-2.36"/><path fill="#e6cbe2" stroke="#7d3990" stroke-miterlimit="10" d="M28.95 425.08l-3.97 3.95v23.45l3.97 3.95 3.97-3.95v-23.46l-3.97-3.94z"/><path d="M160.61 511.25l-2.17-2.16a17.83 17.83 0 1 0-25.21 25.21l2.16 2.17" fill="#f2cd7b" stroke="#7c3990" stroke-miterlimit="10"/><g clip-path="url(#clip-path-2)" fill="#f5ebf4" stroke="#7d3990" stroke-linejoin="bevel"><path d="M120.79 520.67l12.86 12.86M122.71 518.75l12.86 12.86M124.64 516.82l12.86 12.86M126.56 514.9l12.86 12.86M128.48 512.98l12.86 12.86M130.4 511.06l12.86 12.86M132.32 509.14L145.18 522M134.24 507.22l12.86 12.86M136.16 505.3l12.86 12.86M138.08 503.38l12.86 12.86M140.01 501.45l12.86 12.86M141.93 499.53l12.86 12.86M143.85 497.61l12.86 12.86M144.81 496.65l12.86 12.86"/></g><path d="M160.61 536.47a17.83 17.83 0 1 0-25.22 0 17.84 17.84 0 0 0 25.22 0z" fill="#efb032" stroke="#7c3990" stroke-miterlimit="10"/><path d="M158.39 534.25a14.69 14.69 0 1 0-20.78 0 14.69 14.69 0 0 0 20.78 0zm-20.78 0a14.69 14.69 0 0 0 20.78-20.78" fill="#f2c43c" stroke="#7c3990" stroke-miterlimit="10"/><path d="M158.39 513.47a14.69 14.69 0 0 1-20.78 20.78l-.32-.33A14.7 14.7 0 0 0 158 513.1" fill="#f2cd7b" stroke="#7c3990" stroke-miterlimit="10"/><path d="M147.8 532.51l-6.28-6.28a2.95 2.95 0 0 1 4.17-4.17l4.71 4.71M146.23 530.94l8.34-8.35M142.13 531.57l2.36-2.36M139.93 529.36l2.36-2.36M152.84 520.86l2.36-2.36M150.64 518.65l2.36-2.36" fill="none" stroke="#7d3990" stroke-miterlimit="10"/><path d="M145.69 522.06a3 3 0 1 1 4.18-4.17l6.28 6.28" fill="none" stroke="#7d3990" stroke-miterlimit="10"/><path d="M181 524.6l-17.61 17.61a25.66 25.66 0 0 1-36.27 0 25.64 25.64 0 0 1 0-36.27l17.61-17.61z" fill="#d1ecf2" opacity=".4"/><path fill="#fff" opacity=".65" d="M137.12 548.42l-1.23-51.28-7.96 7.96.89 38.84 8.3 4.48zM142.94 549.62l-1.58-57.96-2.13 2.14 1.53 55.53 2.18.29z"/><path d="M181 524.6l-17.62 17.62a25.65 25.65 0 0 1-36.27 0 25.66 25.66 0 0 1 0-36.27l17.51-17.5" fill="none" stroke="#7d3990" stroke-miterlimit="10"/><path fill="#828a90" stroke="#7c3990" stroke-miterlimit="10" d="M557.94 547.09l2.46-2.47 1.54-5.24 4.83-4.45 2.24-2.24-17.09-14.62h-18.07l-2.46 2.47"/><path fill="#bac4ca" stroke="#7c3990" stroke-miterlimit="10" d="M552.49 548.68l5.41-1.63 1.63-5.42 6.98-6.51-17.09-14.62h-18.07v18.06l14.62 17.1 6.52-6.98z"/><path fill="#bac4ca" d="M548.77 522.25l15.11 12.92-5.89 5.5-1.49 4.97-4.97 1.49-5.5 5.9-12.93-15.11v-15.67h15.67z"/><path fill="none" stroke="#7c3990" stroke-linecap="round" stroke-linejoin="round" d="M563.86 535.16l.02.01-.02.02"/><path fill="none" stroke="#7c3990" stroke-linecap="round" stroke-linejoin="round" stroke-dasharray=".05455118045210838,4.364094257354736" d="M560.67 538.17l-2.68 2.5-.86 2.86"/><path fill="none" stroke="#7c3990" stroke-linecap="round" stroke-linejoin="round" d="M556.5 545.62v.02l-.03.01"/><path fill="none" stroke="#7c3990" stroke-linecap="round" stroke-linejoin="round" stroke-dasharray=".0545513890683651,4.364110946655273" d="M552.29 546.9l-.76.23-4 4.29"/><path fill="none" stroke="#7c3990" stroke-linecap="round" stroke-linejoin="round" d="M546.04 553.01l-.01.02-.02-.02"/><path fill="none" stroke="#7c3990" stroke-linecap="round" stroke-linejoin="round" stroke-dasharray=".04876390099525452,3.9011120796203613" d="M543.47 550.04l-10.37-12.12v-13.69"/><path fill="none" stroke="#7c3990" stroke-linecap="round" stroke-linejoin="round" d="M533.1 522.28v-.03h.03"/><path fill="none" stroke="#7c3990" stroke-linecap="round" stroke-linejoin="round" stroke-dasharray=".048764269798994064,3.90114164352417" d="M537.03 522.25h11.74l13.61 11.64"/><path fill="#bac4ca" stroke="#7c3990" stroke-miterlimit="10" d="M548.12 524l13.13 11.23-4.8 4.49-1.36 4.52-4.52 1.35-4.49 4.81-11.23-13.13V524h13.27z"/><path d="M553.89 535.2l-5.46 5.46a2.56 2.56 0 1 1-3.62-3.63l4.09-4.09M552.52 536.57l-7.25-7.26M553.07 540.13l-2.05-2.06M551.15 542.04l-2.05-2.05M543.76 530.82l-2.05-2.05M541.85 532.74l-2.06-2.06M544.81 537a2.57 2.57 0 0 1-3.63-3.63l5.46-5.45" fill="none" stroke="#7d3990" stroke-miterlimit="10"/><path fill="#828a90" stroke="#7c3990" stroke-miterlimit="10" d="M546.99 549.43l-10.8-12.77V524h-1.34v13.27l11.23 13.13.91-.97z"/><path d="M548.91 499.78L567.16 518a26.57 26.57 0 0 1 0 37.58 26.58 26.58 0 0 1-37.59 0l-18.25-18.25z" fill="#d1ecf2" opacity=".4"/><path fill="#fff" opacity=".65" d="M573.59 545.22l-53.14 1.27 8.25 8.25 40.26-.93 4.63-8.59zM574.84 539.18l-60.06 1.64 2.21 2.21 57.55-1.59.3-2.26z"/><path d="M548.91 499.77L567.16 518a26.58 26.58 0 0 1 0 37.59 26.57 26.57 0 0 1-37.58 0l-18.15-18.15" fill="none" stroke="#7d3990" stroke-miterlimit="10"/><path fill="#ee2c7b" stroke="#7c3990" stroke-miterlimit="10" d="M251.39 107.05l-9.51 9.45V127.57l9.51 9.45 9.51-9.45V116.5l-9.51-9.45z"/><path fill="#f6ebf4" stroke="#7d3990" stroke-miterlimit="10" d="M251.39 107.05l-9.51 9.45V127.57l9.51 9.45"/><path fill="none" stroke="#7d3990" stroke-miterlimit="10" d="M255.36 125.22l5.54 2.35M251.39 129.16v7.86M247.42 125.21l-5.54 2.36M255.36 118.86l5.54-2.35M251.39 114.91v-7.86M247.42 118.86l-5.54-2.35"/><path fill="#e6cbe2" stroke="#7d3990" stroke-miterlimit="10" d="M251.39 114.91l-3.97 3.95v6.35l3.97 3.95 3.97-3.94v-6.36l-3.97-3.95z"/><path d="M87 557.75A16 16 0 0 0 72.11 568a4.24 4.24 0 0 0 4 5.73h21.81a4.24 4.24 0 0 0 4-5.73A16 16 0 0 0 87 557.75zM229 271a19 19 0 0 0-13.43 5.54 6 6 0 0 1-9.26-.93 26.16 26.16 0 0 0-44.66 1.77 5.81 5.81 0 0 1-7.87 2.12 11.95 11.95 0 0 0-15.85 4.5 4 4 0 0 0 3.5 6H243a4.39 4.39 0 0 0 4.2-5.69A19.06 19.06 0 0 0 229 271zM481.69 435.13l37.69 37.69-3.01 3.01-37.69-37.69M450.24 466.59l37.69 37.68-3.38 3.38-37.69-37.69" fill="#fff"/><path transform="rotate(135 516.7367 505.1928)" fill="#fce9f1" d="M487.12 484.17h59.24v42.04h-59.24z"/><path d="M522.82 468.68l-3.44 3.44L482 434.78l-.7.71 37.33 37.33-2.3 2.31L479 437.79l-.7.71 3.23 3.23-5.46 22.27-22.25 5.5-3.23-3.24-.71.71 37.34 37.33-2.67 2.67-37.34-37.33-.7.71 37.33 37.33-3.62 3.62 30.44 30.44 42.59-42.6zm-51 16.64l5.07-20.52 20.53-5.07zm26.46-25l-5.13 20.77-20.77 5.13zm1.19-.64l15.92 15.92-21.15 5.22zm15.28 17.11l-25.91 25.9 5.16-20.81zm-32.37-34.19l15.93 15.92-21.15 5.22zm-6.59 22.51l-5.22 21.14-15.92-15.92zm-4.06 22.3l21.15-5.22-5.23 21.14zm9.91 23.9l2.91-2.91 4.08-4.09 27.74-27.73 3.72-3.72 2.73-2.73 29 29-41.18 41.18z" fill="#7d3990"/><path fill="#ee2a7b" stroke="#7d3990" stroke-miterlimit="10" d="M539.07 501.18l-7.07-7.07M536.43 503.82l-7.07-7.07M533.79 506.46l-7.07-7.07M531.15 509.09l-7.06-7.06M528.51 511.73l-7.06-7.06M525.45 487.43v2.15h-2.15"/><circle cx="522.58" cy="486.71" r="3.3" fill="#e9b7d5" stroke="#7d3990" stroke-miterlimit="10"/><path fill="#ee2a7b" stroke="#7d3990" stroke-miterlimit="10" d="M515.89 497.62l-1.51 1.54-1.53-1.52"/><circle cx="514.35" cy="495.1" r="3.3" fill="#e9b7d5" stroke="#7d3990" stroke-miterlimit="10"/><path transform="rotate(135 514.0145 520.3208)" fill="#fce9f1" d="M510.87 517.18h6.29v6.29h-6.29z"/><path transform="rotate(135 500.7233 515.653)" fill="#fce9f1" d="M497.58 512.51h6.29v6.29h-6.29z"/><path transform="rotate(135 500.5234 506.8303)" fill="#e9b7d5" d="M497.38 503.69h6.29v6.29h-6.29z"/><path fill="#ee2a7b" stroke="#7d3990" stroke-miterlimit="10" d="M504.99 524.9l9.03-9.02M500.43 520.33l9.02-9.02M513.94 524.84l-18.03-18.04M495.86 515.77l9.02-9.03"/><path transform="rotate(135 504.8779 515.763)" fill="none" stroke="#7d3990" stroke-miterlimit="10" d="M498.5 502.93h12.76v25.66H498.5z"/><path fill="#fff" d="M238.17 471.14l-23.91 23.91-3.54-3.54 23.91-23.9M201.24 434.21l-23.91 23.91-3.96-3.96 23.91-23.91"/><path transform="rotate(-135 176.257 491.9478)" fill="#e9b7d5" d="M141.48 467.27h69.55v49.36h-69.55z"/><path d="M238.52 471.49l-.7-.7-23.56 23.55-2.83-2.82L235 468l-.71-.71-3.55 3.55-26.21-6.48-6.47-26.21 3.55-3.54-.71-.71-23.56 23.56-3.25-3.26 23.55-23.56-.7-.7-23.56 23.55-4.25-4.25-35.61 35.61 49.88 49.85 35.6-35.61-4-4zm-8.61.13L211 490.54l-6.21-25.12zm-20.1 18.27L179 459l24.74 6.11zm-6.38-25.84l-25.12-6.2 18.91-18.91zm14.16 35l-34.19 34.23-48.48-48.47 34.2-34.19 3.54 3.54 4.67 4.67L210 491.52l4.24 4.24z" fill="#7d3990"/><path fill="#ee2a7b" stroke="#7d3990" stroke-miterlimit="10" d="M218.3 499.09l-49.18-49.18M180.97 518.16l8.29-8.29M177.87 515.07l8.29-8.3M174.77 511.97l8.3-8.29M171.67 508.87l8.3-8.29M168.58 505.77l8.29-8.29M197.12 502.18h-2.53v-2.53"/><circle cx="197.96" cy="498.81" r="3.87" fill="#ee2c7b" stroke="#7c3990" stroke-miterlimit="10"/><path fill="#ee2a7b" stroke="#7d3990" stroke-miterlimit="10" d="M185.15 490.96l-1.81-1.78 1.78-1.8"/><circle cx="188.11" cy="489.14" r="3.87" fill="#ee2c7b" stroke="#7c3990" stroke-miterlimit="10"/><path transform="rotate(-135 158.497 488.7542)" fill="#fce9f1" d="M154.8 485.06h7.38v7.38h-7.38z"/><path transform="rotate(-135 163.9712 473.1484)" fill="#ee2c7b" d="M160.28 469.46h7.38v7.38h-7.38z"/><path transform="rotate(-135 169.0214 467.6063)" fill="#e9b7d5" d="M165.33 463.92h7.38v7.38h-7.38z"/><path fill="#f6ebf4" stroke="#7d3990" stroke-miterlimit="10" d="M675.7 301.16l17.63 17.59-7.96 8.12 7.95 8.13-17.62 17.62-26.54-25.75 26.54-25.71z"/><path fill="#da1c5c" d="M675.7 352.62l-26.54-25.75h6.53l20.01 19.36v6.39zM675.7 352.62L693.32 335l-6.39-.04-11.23 11.27v6.39zM685.37 326.87l7.9-8.1-6.4-.03-7.86 8.13h6.36z"/><path fill="#f11c5c" stroke="#7c3990" stroke-miterlimit="10" d="M686.93 334.96l-7.92-8.09 7.92-8.09-11.28-11.25-19.96 19.34 19.96 19.36 11.28-11.27z"/><path fill="#da1c5c" stroke="#7c3990" stroke-miterlimit="10" d="M686.93 334.96l6.39.04M685.37 326.87h-6.36M693.33 318.74l-6.4.04M655.69 326.87h-6.53M675.65 346.23l.05 6.39M675.7 301.16l-.05 6.37"/><path fill="none" stroke="#7c3990" stroke-miterlimit="10" d="M675.7 301.16l17.63 17.59-7.96 8.12 7.95 8.13-17.62 17.62-26.54-25.75 26.54-25.71z"/><path d="M644.12 358.43h30.55A31.47 31.47 0 0 0 706.14 327a31.47 31.47 0 0 0-31.47-31.46h-30.55z" fill="#d1ecf2" opacity=".4"/><path fill="#fff" opacity=".65" d="M702.82 341.05L659.4 295.5h13.82l32.92 34.47-3.32 11.08zM698.81 347.15L649.9 295.5h3.71l46.84 49.5-1.64 2.15z"/><path d="M644.12 358.43h30.56A31.47 31.47 0 0 0 706.15 327a31.46 31.46 0 0 0-31.47-31.46h-30.37" fill="none" stroke="#7d3990" stroke-miterlimit="10"/><path fill="#fff" d="M512.09 292.12h76.2v6.09h-76.2M512.09 355.71h76.2v6.83h-76.2"/><path transform="rotate(90 618.345 327.515)" fill="#e9b7d5" d="M576 297.46h84.69v60.1H576z"/><path fill="#ee2a7b" stroke="#7d3990" stroke-miterlimit="10" d="M636.86 300.89h-14.28M636.86 306.22h-14.28M636.86 311.56h-14.28M636.86 316.89h-14.28M636.86 322.23h-14.28"/><path d="M587.79 284.67v6.95h-75.7v1h75.7v5.09h-75.7v1h6.66L535.81 327l-17.06 28.25h-6.66v1h75.7V362h-75.7v1h75.7v7.32h61.11v-85.65zM554.07 300l16.28 27-16.28 27zm.39-1.3h32.95L570.93 326zm-1.39 54.9L537 327l16.09-26.64zm17.86-25.68l16.48 27.28h-32.95zm.59-1L587.79 300v53.91zm-51.6-28.25h33L536.39 326zm16.47 29.22l16.48 27.28h-33zm111.51 41.47h-59.11v-83.69h59.11z" fill="#7d3990"/><path fill="#ee2a7b" stroke="#7d3990" stroke-miterlimit="10" d="M609.19 300.75l2.18 2.18-2.18 2.17"/><circle cx="605.57" cy="302.93" r="4.71" fill="#ee2a7b" stroke="#7d3990" stroke-miterlimit="10"/><path fill="#ee2a7b" stroke="#7d3990" stroke-miterlimit="10" d="M607.64 323.25l-2.25 2.12-2.11-2.25"/><circle cx="605.57" cy="319.57" r="4.71" fill="#ee2a7b" stroke="#7d3990" stroke-miterlimit="10"/><path fill="#ee2a7b" stroke="#7d3990" stroke-miterlimit="10" d="M153.12 478.16l10.59 10.59M158.48 472.8l10.59 10.59M153.19 488.67l21.17-21.17M163.84 467.44l10.59 10.59"/><g id="buttons"><path transform="rotate(-90 102.335 315.425)" fill="#e9b7d5" d="M99.32 312.41h6.02v6.02h-6.02z"/><path transform="rotate(-90 90.31 309.58)" fill="#e9b7d5" d="M87.3 306.57h6.02v6.02H87.3z"/><path transform="rotate(-135 163.7865 483.4645)" fill="#ee2c7b" d="M160.1 479.77h7.38v7.38h-7.38z"/><path transform="rotate(-135 163.8478 478.0264)" fill="none" stroke="#7d3990" stroke-miterlimit="10" d="M156.36 462.96h14.98v30.12h-14.98z"/><path transform="rotate(-45 169.0577 139.874)" fill="#ee2c7b" d="M166.05 136.87h6.02v6.02h-6.02z"/><path transform="rotate(-45 181.8 144.346)" fill="#ee2c7b" d="M178.79 141.33h6.02v6.02h-6.02z"/><path transform="rotate(-45 181.9906 152.797)" fill="#ee2c7b" d="M178.98 149.79H185v6.02h-6.02z"/><path transform="rotate(90 622.01 354.48)" fill="#ee2a7b" d="M617.52 349.98h8.99v8.99h-8.99z"/><path transform="rotate(90 603.9 345.49)" fill="#ee2a7b" d="M599.41 341h8.99v8.99h-8.99z"/></g><path transform="rotate(90 621.72 345.56)" fill="#fce9f1" d="M617.23 341.07h8.99v8.99h-8.99z"/><path d="M521.39 148.39L520 147a11.45 11.45 0 1 0-16.2 16.19l1.39 1.39" fill="#f2cd7b" stroke="#7c3990" stroke-miterlimit="10"/><g clip-path="url(#clip-path-3)" fill="#f5ebf4" stroke="#7d3990" stroke-linejoin="bevel"><path d="M511.24 139.01l8.26 8.26M510.01 140.24l8.26 8.26M508.77 141.48l8.26 8.26M507.54 142.71l8.26 8.26M506.3 143.95l8.26 8.26M505.07 145.18l8.26 8.26M503.84 146.41l8.26 8.26M502.6 147.65l8.26 8.26M501.37 148.88l8.26 8.26M500.13 150.12l8.26 8.26M498.9 151.35l8.26 8.26M497.67 152.58l8.26 8.26M496.43 153.82l8.26 8.26M495.82 154.44l8.26 8.25"/></g><path d="M521.39 148.39a11.45 11.45 0 1 0 0 16.19 11.46 11.46 0 0 0 0-16.19z" fill="#efb032" stroke="#7c3990" stroke-miterlimit="10"/><path d="M520 149.81a9.44 9.44 0 1 0 0 13.35 9.43 9.43 0 0 0 0-13.35zm-13.35 13.35A9.44 9.44 0 1 0 520 149.81" fill="#f2c43c" stroke="#7c3990" stroke-miterlimit="10"/><path d="M506.61 163.16A9.44 9.44 0 1 0 520 149.81l-.21-.2a9.44 9.44 0 0 1-13.37 13.3" fill="#f2cd7b" stroke="#7c3990" stroke-miterlimit="10"/><path d="M513.05 150.56l4 4a1.9 1.9 0 0 1-2.68 2.68l-3-3M514.06 151.57l-5.36 5.36M516.69 151.17l-1.51 1.51M518.11 152.58l-1.52 1.52M509.81 158.04l-1.51 1.52M511.23 159.46l-1.52 1.52M514.4 157.27a1.9 1.9 0 0 1-2.68 2.68l-4-4" fill="none" stroke="#7d3990" stroke-miterlimit="10"/><path d="M513.65 178L525 166.71a16.45 16.45 0 0 0 0-23.29 16.47 16.47 0 0 0-23.29 0l-11.31 11.31z" fill="#d1ecf2" opacity=".4"/><path fill="#fff" opacity=".65" d="M528.95 149.86l-32.94-.79 5.12-5.11 24.95.57 2.87 5.33zM529.72 153.6l-37.22-1.01 1.37-1.37 35.67.98.18 1.4z"/><path d="M513.65 178L525 166.71a16.47 16.47 0 0 0 0-23.29 16.46 16.46 0 0 0-23.3 0l-11.24 11.24" fill="none" stroke="#7d3990" stroke-miterlimit="10"/><path fill="#fff" stroke="#7c3990" stroke-miterlimit="10" d="M453.45 188.45l14.25-14.25 2.28 2.28-14.25 14.25"/><path fill="none" stroke="#7c3990" stroke-miterlimit="10" d="M469.98 176.48l8.52 34.5M491.49 197.99l-34.5-8.52"/><path fill="#fff" stroke="#7c3990" stroke-miterlimit="10" d="M477.24 212.24l14.25-14.25 2.56 2.55-14.26 14.26"/><path transform="rotate(45 492.1856 176.2)" fill="#ee2a7b" stroke="#7d3990" stroke-miterlimit="10" d="M469.78 160.3h44.81v31.8h-44.81z"/><path fill="#ee2a7b" stroke="#7d3990" stroke-miterlimit="10" d="M465.1 171.6l31.68 31.68M456.99 189.47l21.51 21.51M489.15 159.31l-5.34 5.34M491.15 161.31l-5.35 5.34M493.14 163.3l-5.34 5.34M495.14 165.3l-5.34 5.34M497.13 167.29l-5.34 5.35"/><path d="M232.76 188.54l.71-.7-35.76-35.76 3.47-3.47L172 119.43l-40.84 40.84 29.19 29.18 3.3-3.29 35.75 35.75.71-.7-35.76-35.76 2.18-2.18L202.28 219l.7-.71-3.09-3.09 5.26-21.2 21.29-5.26 3.08 3.09.71-.71-35.75-35.75 2.52-2.53zm-69.83-3.09l-2.59 2.55-27.77-27.77L172 120.84l27.78 27.77-33.25 33.25zm4.57-2.61l20.19-5-5 20.19zm21.29-5.26l19.81-4.89-24.71 24.71zm10.28 36.83l-15.2-15.21 20.18-5zm5.26-21.29L184.75 198l24.41-24.42zm21.28-5.26l-20.19 5 5-20.19zm-16.37-16.36l-20.18 5 5-20.18zM188 176.76l-19.81 4.89 24.7-24.71z" fill="#7d3990"/><path fill="#ee2a7b" stroke="#7d3990" stroke-miterlimit="10" d="M478.75 169.61h1.63v1.63"/><circle cx="478.21" cy="171.78" r="2.49" fill="#e9b7d5" stroke="#7d3990" stroke-miterlimit="10"/><path fill="#ee2a7b" stroke="#7d3990" stroke-miterlimit="10" d="M486.46 176.84l1.16 1.14-1.14 1.16"/><circle cx="484.55" cy="178" r="2.49" fill="#e9b7d5" stroke="#7d3990" stroke-miterlimit="10"/><path transform="rotate(45 503.6318 178.2611)" fill="#fce9f1" d="M501.25 175.88H506v4.75h-4.75z"/><path transform="rotate(45 500.1002 188.3083)" fill="#fce9f1" d="M497.72 185.93h4.75v4.75h-4.75z"/><path transform="rotate(45 493.4293 188.4551)" fill="#e9b7d5" d="M491.05 186.08h4.75v4.75h-4.75z"/><path fill="#ee2a7b" stroke="#7d3990" stroke-miterlimit="10" d="M507.09 185.08l-6.82-6.82M503.64 188.53l-6.83-6.82M507.05 178.31l-13.64 13.64M500.18 191.99l-6.82-6.83"/><path transform="rotate(45 500.1831 185.1626)" fill="none" stroke="#7d3990" stroke-miterlimit="10" d="M495.35 175.46H505v19.41h-9.65z"/><path d="M340.28 147.07a180.45 180.45 0 1 0 180.44 180.45 180.45 180.45 0 0 0-180.44-180.45zm0 348.46a168 168 0 1 1 168-168 168 168 0 0 1-168 168z" fill="#e6cae2" stroke="#7c3990" stroke-miterlimit="10"/><path d="M340.28 153a174.48 174.48 0 1 0 174.47 174.52A174.47 174.47 0 0 0 340.28 153z" fill="none" stroke="#7c3990" stroke-miterlimit="10"/><path d="M548.88 400.53a19 19 0 0 0-13.51 5.61 6 6 0 0 1-9.24-.93 26.13 26.13 0 0 0-21.86-11.78c-21.4 0-31.95 26.22-24.43 26.22h80.74a6 6 0 0 0 5.44-8.5 19.14 19.14 0 0 0-17.14-10.62z" fill="#fff"/><path d="M471.16 607.86c-2.68 17.32-22.56 45.26-33.78 43.52s-15.9-27.2-13.22-44.52 11.46-24.36 22.76-25.43c14.41-1.37 26.92 9.12 24.24 26.43zM645.6 196.85c5.82-3.36 22.65 1.5 27.68 10.21s-3.66 18-9.49 21.33-31.38-2.22-36.41-10.93 12.39-17.25 18.22-20.61z" fill="#dff2f4"/><path fill="#da1c5c" d="M340.26 241.97l-55.03 54.74V358.32l55.03 54.75 55.04-54.75v-61.61l-55.04-54.74z"/><path fill="#f6ebf4" d="M340.26 241.97l-55.03 54.74V358.32l55.03 54.75"/><path fill="#e6cbe2" d="M340.27 287.49l-22.99 22.85v34.35l22.99 22.85 22.97-22.83v-34.39l-22.97-22.83z"/><path d="M624.07 110.67a55.66 55.66 0 0 0-51.36 34.21 5.81 5.81 0 0 1-9.17 2.3 25.38 25.38 0 0 0-40.89 11.41 5.9 5.9 0 0 0 5.6 7.71h145.21a5.9 5.9 0 0 0 5.85-6.58 55.64 55.64 0 0 0-55.24-49.05z" fill="#fff"/><path fill="#ee2a7b" stroke="#7d3990" stroke-miterlimit="10" d="M626.4 359.31v-18.24M617.16 359.31v-18.24M635.38 350.2h-36.46M607.93 359.31v-18.24"/><path transform="rotate(90 617.04 350.19)" fill="none" stroke="#7d3990" stroke-miterlimit="10" d="M607.92 331.85h18.24v36.68h-18.24z"/><path fill="#ee2a7b" stroke="#7d3990" stroke-miterlimit="10" d="M177.42 135.56l-8.64 8.64M181.79 139.93l-8.64 8.65M168.85 135.62l17.27 17.28M186.17 144.31l-8.65 8.64"/><path transform="rotate(-45 177.5275 144.3157)" fill="none" stroke="#7d3990" stroke-miterlimit="10" d="M171.42 132.02h12.22v24.58h-12.22z"/><path d="M395.8 310.16v-13.65l-55.54-55.25-55.39 55.1-.14.15v13.6l-4.88 2.33v29.92l4.88 3.24v12.93l55.53 55.24 55.39-55.1.15-.14v-12.86l5-2.34v-29.92zm-1.38-13.61l-31.06 13.18-22.59-22.45v-44.11zm-54.66-53.38v44.11l-22.6 22.47-31.07-13.2zm-59 98.63v-28.71l4-1.89v33.23zm5 4.47v-48.8l31 13.2v33.69l-31 13.2zm54 65.59l-53.65-53.37 31.06-13.21 22.6 22.47zm-22-67.38v-33.93l22.49-22.36 22.47 22.34v34l-22.47 22.34zm23 67.38v-44.11l22.59-22.45 31.06 13.19zm54-102.34v48l-31.06-13.18v-33.68l31.06-13.19zm5.11 33.16l-4.11 1.9v-33.25l4.11 2.65z" fill="#7d3990"/><path fill="#ee2c7b" d="M455.58 48.08l-15.45 15.38v32.63l15.45 15.38 15.45-15.38V63.46l-15.45-15.38z"/><path fill="#f6ebf4" d="M455.58 48.08l-15.45 15.38v32.63l15.45 15.38"/><path fill="#e6cbe2" d="M455.58 60.87l-6.45 6.41v24.99l6.45 6.42 6.45-6.42V67.28l-6.45-6.41z"/><path d="M455.58 47.38l-15.95 15.87V96.3l15.95 15.87 15.95-15.87v-33zm6.57 19.31l-6.07-6v-11.4l14.07 14zM455.58 98l-5.95-5.92V67.49l5.95-5.92 5.95 5.92v24.58zm-.5-37.32l-6.07 6-8-3.4 14.08-14zm-6.45 7v24.26l-8 3.4V64.21zm.37 25.18l6.07 6v11.38L441 96.26zm7.07 6l6.07-6 8 3.39-14.07 14zm6.45-7V67.61l8-3.4v31.13z" fill="#7d3990"/><g id="tube-coins-left" clip-path="url(#left-tube-mask)"><g id="coin"><path d="M191 318.88h-1.44a8.38 8.38 0 1 0 0 16.76H191" fill="#f2cd7b" stroke="#7c3990" stroke-miterlimit="10"/><g clip-path="url(#clip-path-4)" fill="#f5ebf4" stroke="#7d3990" stroke-linejoin="bevel"><path d="M180.87 319.28h8.54M180.87 321.83h8.54M180.87 324.39h8.54M180.87 326.94h8.54M180.87 329.49h8.54M180.87 332.05h8.54M180.87 334.6h8.54M180.87 335.24h8.54"/></g><path d="M191 318.88a8.38 8.38 0 1 0 8.38 8.38 8.38 8.38 0 0 0-8.38-8.38z" fill="#efb032" stroke="#7c3990" stroke-miterlimit="10"/><path d="M191 320.35a6.91 6.91 0 1 0 6.9 6.91 6.91 6.91 0 0 0-6.9-6.91zm0 13.81a6.91 6.91 0 0 0 0-13.81" fill="#f2c43c" stroke="#7c3990" stroke-miterlimit="10"/><path d="M191 334.16a6.91 6.91 0 0 0 0-13.81h-.21a6.91 6.91 0 0 1 0 13.8" fill="#f2cd7b" stroke="#7c3990" stroke-miterlimit="10"/><path fill="none" stroke="#7d3990" stroke-miterlimit="10" d="M190.72 322.75v1.57M190.72 329.86v1.57M187.46 329.86h4.88a1.39 1.39 0 0 0 0-2.77h-2.79a1.39 1.39 0 1 1 0-2.77h4.88"/></g><g id="coin-2" data-name="coin"><path d="M215.41 318.88H214a8.38 8.38 0 0 0 0 16.76h1.44" fill="#cbccce" stroke="#7c3990" stroke-miterlimit="10"/><g clip-path="url(#clip-path-5)" fill="#f5ebf4" stroke="#7d3990" stroke-linejoin="bevel"><path d="M205.31 319.28h8.55M205.31 321.83h8.55M205.31 324.39h8.55M205.31 326.94h8.55M205.31 329.49h8.55M205.31 332.05h8.55M205.31 334.6h8.55M205.31 335.24h8.55"/></g><path d="M215.41 318.88a8.38 8.38 0 1 0 8.38 8.38 8.38 8.38 0 0 0-8.38-8.38z" fill="#808285" stroke="#7c3990" stroke-miterlimit="10"/><path d="M215.41 320.35a6.91 6.91 0 1 0 6.91 6.91 6.9 6.9 0 0 0-6.91-6.91zm0 13.81a6.91 6.91 0 1 0 0-13.81" fill="#b3b5b8" stroke="#7c3990" stroke-miterlimit="10"/><path d="M215.41 334.16a6.91 6.91 0 1 0 0-13.81h-.21a6.91 6.91 0 0 1 0 13.8" fill="#f2cd7b" stroke="#7c3990" stroke-miterlimit="10"/><path fill="none" stroke="#7d3990" stroke-miterlimit="10" d="M215.41 322.75v1.57M215.41 329.86v1.57M218.24 329.86h-4a2.77 2.77 0 1 1 0-5.54h4"/></g><g id="coin-3" data-name="coin"><path d="M239.93 318.88h-1.44a8.38 8.38 0 0 0 0 16.76h1.44" fill="#f2cd7b" stroke="#7c3990" stroke-miterlimit="10"/><g clip-path="url(#clip-path-6)" fill="#f5ebf4" stroke="#7d3990" stroke-linejoin="bevel"><path d="M229.83 319.28h8.54M229.83 321.83h8.54M229.83 324.39h8.54M229.83 326.94h8.54M229.83 329.49h8.54M229.83 332.05h8.54M229.83 334.6h8.54M229.83 335.24h8.54"/></g><path d="M239.93 318.88a8.38 8.38 0 1 0 8.37 8.38 8.38 8.38 0 0 0-8.37-8.38z" fill="#efb032" stroke="#7c3990" stroke-miterlimit="10"/><path d="M239.93 320.35a6.91 6.91 0 1 0 6.9 6.91 6.91 6.91 0 0 0-6.9-6.91zm0 13.81a6.91 6.91 0 0 0 0-13.81" fill="#f2c43c" stroke="#7c3990" stroke-miterlimit="10"/><path d="M239.93 334.16a6.91 6.91 0 0 0 0-13.81h-.22a6.91 6.91 0 0 1 0 13.8" fill="#f2cd7b" stroke="#7c3990" stroke-miterlimit="10"/><path fill="none" stroke="#7d3990" stroke-miterlimit="10" d="M239.68 322.75v1.57M239.68 329.86v1.57M236.42 329.86h4.87a1.39 1.39 0 1 0 0-2.77h-2.78a1.39 1.39 0 1 1 0-2.77h4.88"/></g><g id="coin-4" data-name="coin"><path d="M264.37 318.88h-1.44a8.38 8.38 0 0 0 0 16.76h1.44" fill="#cbccce" stroke="#7c3990" stroke-miterlimit="10"/><g clip-path="url(#clip-path-7)" fill="#f5ebf4" stroke="#7d3990" stroke-linejoin="bevel"><path d="M254.27 319.28h8.54M254.27 321.83h8.54M254.27 324.39h8.54M254.27 326.94h8.54M254.27 329.49h8.54M254.27 332.05h8.54M254.27 334.6h8.54M254.27 335.24h8.54"/></g><path d="M264.37 318.88a8.38 8.38 0 1 0 8.38 8.38 8.38 8.38 0 0 0-8.38-8.38z" fill="#808285" stroke="#7c3990" stroke-miterlimit="10"/><path d="M264.37 320.35a6.91 6.91 0 1 0 6.9 6.91 6.91 6.91 0 0 0-6.9-6.91zm0 13.81a6.91 6.91 0 0 0 0-13.81" fill="#b3b5b8" stroke="#7c3990" stroke-miterlimit="10"/><path d="M264.37 334.16a6.91 6.91 0 0 0 0-13.81h-.21a6.91 6.91 0 0 1 0 13.8" fill="#f2cd7b" stroke="#7c3990" stroke-miterlimit="10"/><path fill="none" stroke="#7d3990" stroke-miterlimit="10" d="M264.37 322.75v1.57M264.37 329.86v1.57M267.2 329.86h-3.95a2.77 2.77 0 1 1 0-5.54h3.95"/></g><path fill="#9fdae3" opacity=".4" d="M178.09 314.62h101.76v25.28H178.09z"/></g><g id="tube-coins-right" clip-path="url(#right-tube-mask)"><g id="coin-5" data-name="coin"><path d="M413.71 318.88h-1.44a8.38 8.38 0 0 0 0 16.76h1.44" fill="#f2cd7b" stroke="#7c3990" stroke-miterlimit="10"/><g clip-path="url(#clip-path-8)" fill="#f5ebf4" stroke="#7d3990" stroke-linejoin="bevel"><path d="M403.61 319.28h8.55M403.61 321.83h8.55M403.61 324.39h8.55M403.61 326.94h8.55M403.61 329.49h8.55M403.61 332.05h8.55M403.61 334.6h8.55M403.61 335.24h8.55"/></g><path d="M413.71 318.88a8.38 8.38 0 1 0 8.38 8.38 8.38 8.38 0 0 0-8.38-8.38z" fill="#efb032" stroke="#7c3990" stroke-miterlimit="10"/><path d="M413.71 320.35a6.91 6.91 0 1 0 6.91 6.91 6.9 6.9 0 0 0-6.91-6.91zm0 13.81a6.91 6.91 0 1 0 0-13.81" fill="#f2c43c" stroke="#7c3990" stroke-miterlimit="10"/><path d="M413.71 334.16a6.91 6.91 0 1 0 0-13.81h-.21a6.91 6.91 0 0 1 0 13.8" fill="#f2cd7b" stroke="#7c3990" stroke-miterlimit="10"/><path fill="none" stroke="#7d3990" stroke-miterlimit="10" d="M413.46 322.75v1.57M413.46 329.86v1.57M410.2 329.86h4.88a1.39 1.39 0 1 0 0-2.77h-2.79a1.39 1.39 0 0 1 0-2.77h4.88"/></g><g id="coin-6" data-name="coin"><path d="M438.16 318.88h-1.44a8.38 8.38 0 0 0 0 16.76h1.44" fill="#cbccce" stroke="#7c3990" stroke-miterlimit="10"/><g clip-path="url(#clip-path-9)" fill="#f5ebf4" stroke="#7d3990" stroke-linejoin="bevel"><path d="M428.06 319.28h8.54M428.06 321.83h8.54M428.06 324.39h8.54M428.06 326.94h8.54M428.06 329.49h8.54M428.06 332.05h8.54M428.06 334.6h8.54M428.06 335.24h8.54"/></g><path d="M438.16 318.88a8.38 8.38 0 1 0 8.37 8.38 8.38 8.38 0 0 0-8.37-8.38z" fill="#808285" stroke="#7c3990" stroke-miterlimit="10"/><path d="M438.16 320.35a6.91 6.91 0 1 0 6.9 6.91 6.91 6.91 0 0 0-6.9-6.91zm0 13.81a6.91 6.91 0 0 0 0-13.81" fill="#b3b5b8" stroke="#7c3990" stroke-miterlimit="10"/><path d="M438.16 334.16a6.91 6.91 0 0 0 0-13.81h-.22a6.91 6.91 0 0 1 0 13.8" fill="#f2cd7b" stroke="#7c3990" stroke-miterlimit="10"/><path fill="none" stroke="#7d3990" stroke-miterlimit="10" d="M438.16 322.75v1.57M438.16 329.86v1.57M441 329.86h-4a2.77 2.77 0 1 1 0-5.54h4"/></g><g id="coin-7" data-name="coin"><path d="M462.67 318.88h-1.44a8.38 8.38 0 0 0 0 16.76h1.44" fill="#f2cd7b" stroke="#7c3990" stroke-miterlimit="10"/><g clip-path="url(#clip-path-10)" fill="#f5ebf4" stroke="#7d3990" stroke-linejoin="bevel"><path d="M452.57 319.28h8.55M452.57 321.83h8.55M452.57 324.39h8.55M452.57 326.94h8.55M452.57 329.49h8.55M452.57 332.05h8.55M452.57 334.6h8.55M452.57 335.24h8.55"/></g><path d="M462.67 318.88a8.38 8.38 0 1 0 8.38 8.38 8.38 8.38 0 0 0-8.38-8.38z" fill="#efb032" stroke="#7c3990" stroke-miterlimit="10"/><path d="M462.67 320.35a6.91 6.91 0 1 0 6.91 6.91 6.91 6.91 0 0 0-6.91-6.91zm0 13.81a6.91 6.91 0 1 0 0-13.81" fill="#f2c43c" stroke="#7c3990" stroke-miterlimit="10"/><path d="M462.67 334.16a6.91 6.91 0 1 0 0-13.81h-.21a6.91 6.91 0 0 1 0 13.8" fill="#f2cd7b" stroke="#7c3990" stroke-miterlimit="10"/><path fill="none" stroke="#7d3990" stroke-miterlimit="10" d="M462.42 322.75v1.57M462.42 329.86v1.57M459.16 329.86H464a1.39 1.39 0 0 0 0-2.77h-2.79a1.39 1.39 0 0 1 0-2.77h4.88"/></g><g id="coin-8" data-name="coin"><path d="M487.11 318.88h-1.44a8.38 8.38 0 0 0 0 16.76h1.44" fill="#cbccce" stroke="#7c3990" stroke-miterlimit="10"/><g clip-path="url(#clip-path-11)" fill="#f5ebf4" stroke="#7d3990" stroke-linejoin="bevel"><path d="M477.01 319.28h8.55M477.01 321.83h8.55M477.01 324.39h8.55M477.01 326.94h8.55M477.01 329.49h8.55M477.01 332.05h8.55M477.01 334.6h8.55M477.01 335.24h8.55"/></g><path d="M487.11 318.88a8.38 8.38 0 1 0 8.38 8.38 8.38 8.38 0 0 0-8.38-8.38z" fill="#808285" stroke="#7c3990" stroke-miterlimit="10"/><path d="M487.11 320.35a6.91 6.91 0 1 0 6.91 6.91 6.9 6.9 0 0 0-6.91-6.91zm0 13.81a6.91 6.91 0 1 0 0-13.81" fill="#b3b5b8" stroke="#7c3990" stroke-miterlimit="10"/><path d="M487.11 334.16a6.91 6.91 0 1 0 0-13.81h-.21a6.91 6.91 0 0 1 0 13.8" fill="#f2cd7b" stroke="#7c3990" stroke-miterlimit="10"/><path fill="none" stroke="#7d3990" stroke-miterlimit="10" d="M487.11 322.75v1.57M487.11 329.86v1.57M489.94 329.86H486a2.77 2.77 0 1 1 0-5.54h3.95"/></g><path fill="#9fdae3" opacity=".4" d="M400.83 314.62H502.6v25.28H400.83z"/></g><path fill="#fff" d="M400.83 314.62H502.6v1.77H400.83zM178.09 314.62h101.76v1.77H178.09z"/><path fill="#ee2a7b" stroke="#7d3990" stroke-miterlimit="10" d="M87.06 306.21v12.23M93.25 306.21v12.23M81.04 312.31h24.44M99.44 306.21v12.23"/><path transform="rotate(-90 93.335 312.325)" fill="none" stroke="#7d3990" stroke-miterlimit="10" d="M87.22 300.03h12.22v24.58H87.22z"/></g></g></svg>