<svg data-name="Layer 1" xmlns="http://www.w3.org/2000/svg" width="23.74" height="10.92" viewBox="0 0 23.74 10.92"><path fill="#fde9f1" d="M21.89 5.5l-3.64-3.67H5.07L1.42 5.5l3.65 3.67h13.18l3.64-3.67z"/><path fill="#ee2a7b" d="M21.89 5.5H1.42l3.65 3.67h13.18l3.64-3.67z"/><path fill="#ebb8d5" d="M19.36 5.5L17.5 3.63H5.81L3.95 5.5l1.86 1.87H17.5l1.86-1.87z"/><path fill="#a02373" d="M9.34 2.36h8.68l3.13 3.14-3.13 3.14H9.34v.53h8.91l3.64-3.67-3.64-3.67H9.34v.53z"/><path fill="#a02373" d="M18.99 5.24h2.53v.53h-2.53zm-1.92 1.78l.49-.201.803 1.951-.49.202zm-.001-3.127l.803-1.95.49.201-.803 1.951z"/><path fill="#a02373" d="M9.34 4.16h7.94l1.34 1.34-1.34 1.34H9.34v.53h8.16l1.86-1.87-1.86-1.87H9.34v.53z"/><path fill="#a02373" d="M10.03 2.36H5.29L2.16 5.5l3.13 3.14h4.74v.53H5.07L1.42 5.5l3.65-3.67h4.96v.53z"/><path fill="#a02373" d="M1.79 5.24h2.53v.53H1.79zm3.164 3.529l.804-1.951.49.202-.804 1.95zm-.009-6.626l.49-.202.803 1.951-.49.202z"/><path fill="#a02373" d="M10.03 4.16h-4L4.69 5.5l1.34 1.34h4v.53H5.81L3.95 5.5l1.86-1.87h4.22v.53z"/></svg>