<svg id="Layer_1" data-name="Layer 1" xmlns="http://www.w3.org/2000/svg" width="23.74" height="10.92" viewBox="0 0 23.74 10.92"><title>Artboard 22</title><polygon points="21.89 5.5 18.25 1.83 5.07 1.83 1.42 5.5 5.07 9.17 18.25 9.17 21.89 5.5" style="fill:#fde9f1"/><polygon points="21.89 5.5 21.89 5.5 1.42 5.5 1.42 5.5 5.07 9.17 18.25 9.17 21.89 5.5" style="fill:#ee2a7b"/><polygon points="19.36 5.5 17.5 3.63 5.81 3.63 3.95 5.5 5.81 7.37 17.5 7.37 19.36 5.5" style="fill:#ebb8d5"/><polygon points="9.34 2.36 18.02 2.36 21.15 5.5 18.02 8.64 9.34 8.64 9.34 9.17 18.25 9.17 21.89 5.5 18.25 1.83 9.34 1.83 9.34 2.36" style="fill:#a02373"/><rect x="18.99" y="5.24" width="2.53" height="0.53" style="fill:#a02373"/><rect x="17.45" y="6.84" width="0.53" height="2.11" transform="translate(-1.67 7.34) rotate(-22.38)" style="fill:#a02373"/><rect x="16.66" y="2.75" width="2.11" height="0.53" transform="translate(8.18 18.25) rotate(-67.61)" style="fill:#a02373"/><polygon points="9.34 4.16 17.28 4.16 18.62 5.5 17.28 6.84 9.34 6.84 9.34 7.37 17.5 7.37 19.36 5.5 17.5 3.63 9.34 3.63 9.34 4.16" style="fill:#a02373"/><polygon points="10.03 2.36 5.29 2.36 2.16 5.5 5.29 8.64 10.03 8.64 10.03 9.17 5.07 9.17 1.42 5.5 5.07 1.83 10.03 1.83 10.03 2.36" style="fill:#a02373"/><rect x="1.79" y="5.24" width="2.53" height="0.53" style="fill:#a02373"/><rect x="4.54" y="7.63" width="2.11" height="0.53" transform="translate(-3.83 10.06) rotate(-67.61)" style="fill:#a02373"/><rect x="5.33" y="1.96" width="0.53" height="2.11" transform="translate(-0.73 2.36) rotate(-22.38)" style="fill:#a02373"/><polygon points="10.03 4.16 6.03 4.16 4.69 5.5 6.03 6.84 10.03 6.84 10.03 7.37 5.81 7.37 3.95 5.5 5.81 3.63 10.03 3.63 10.03 4.16" style="fill:#a02373"/></svg>