<svg xmlns="http://www.w3.org/2000/svg" width="970.92" height="673.64" viewBox="0 0 970.92 673.64"><title>Artboard 50</title><g id="Header_isolated" data-name="Header isolated"><rect id="right-tube-bg" x="517.51" y="442.79" width="82.95" height="15.32" style="fill:#fff;opacity:0.8"/><g id="board-bottom-rupie"><polygon points="645.69 277.04 640.75 281.95 640.75 316.78 645.69 321.69 650.61 316.8 650.61 281.93 645.69 277.04" style="fill:#ebb8d5"/><polygon points="645.69 268.11 645.69 277.04 650.61 281.93 650.61 316.8 645.69 321.69 645.69 330.63 656.89 319.48 656.89 279.25 645.69 268.11" style="fill:#ee2a7b"/><polygon points="645.69 268.11 634.49 279.25 634.49 319.48 645.69 330.63 645.69 321.69 640.75 316.78 640.75 281.95 645.69 277.04 645.69 268.11" style="fill:#fde9f1"/><polygon points="634.49 279.25 645.69 268.11 656.89 279.25 656.89 319.48 645.69 330.63 634.49 319.48 634.49 279.25" style="fill:none;stroke:#a02373;stroke-miterlimit:10"/><polygon points="640.75 281.95 645.69 277.04 650.61 281.93 650.61 316.8 645.69 321.69 640.75 316.78 640.75 281.95" style="fill:none;stroke:#a02373;stroke-miterlimit:10"/><line x1="640.75" y1="281.95" x2="634.49" y2="279.25" style="fill:none;stroke:#a02373;stroke-miterlimit:10"/><line x1="645.69" y1="268.1" x2="645.69" y2="277.04" style="fill:none;stroke:#a02373;stroke-miterlimit:10"/><line x1="650.61" y1="281.93" x2="656.89" y2="279.25" style="fill:none;stroke:#a02373;stroke-miterlimit:10"/><line x1="650.61" y1="316.8" x2="656.89" y2="319.48" style="fill:none;stroke:#a02373;stroke-miterlimit:10"/><line x1="645.69" y1="321.69" x2="645.69" y2="330.63" style="fill:none;stroke:#a02373;stroke-miterlimit:10"/><line x1="634.49" y1="319.48" x2="640.75" y2="316.78" style="fill:none;stroke:#a02373;stroke-miterlimit:10"/><polyline points="621.41 296.65 626.21 304.97 665.16 304.97 669.97 296.65" style="fill:#ebb8d5;stroke:#a02373;stroke-miterlimit:10"/></g><rect x="516.28" y="236.46" width="41" height="15.32" style="fill:#fff"/><g id="board-rupies"><g id="rupie"><polygon points="550.07 244 546.35 240.25 532.89 240.25 529.16 244 532.89 247.75 546.35 247.75 550.07 244" style="fill:#fde9f1"/><polygon points="550.07 244 550.07 244 529.16 244 529.16 244 532.89 247.75 546.35 247.75 550.07 244" style="fill:#ee2a7b"/><polygon points="547.49 244 545.59 242.09 533.64 242.09 531.74 244 533.64 245.91 545.59 245.91 547.49 244" style="fill:#ebb8d5"/><polygon points="537.25 240.79 546.12 240.79 549.31 244 546.12 247.21 537.25 247.21 537.25 247.75 546.35 247.75 550.07 244 546.35 240.25 537.25 240.25 537.25 240.79" style="fill:#a02373"/><rect x="547.11" y="243.73" width="2.58" height="0.54" style="fill:#a02373"/><rect x="545.54" y="245.37" width="0.54" height="2.15" transform="translate(-52.72 226.41) rotate(-22.38)" style="fill:#a02373"/><rect x="544.73" y="241.19" width="2.15" height="0.54" transform="translate(114.64 654.13) rotate(-67.61)" style="fill:#a02373"/><polygon points="537.25 242.63 545.36 242.63 546.73 244 545.36 245.37 537.25 245.37 537.25 245.91 545.59 245.91 547.49 244 545.59 242.09 537.25 242.09 537.25 242.63" style="fill:#a02373"/><polygon points="537.95 240.79 533.11 240.79 529.92 244 533.11 247.21 537.95 247.21 537.95 247.75 532.89 247.75 529.16 244 532.89 240.25 537.95 240.25 537.95 240.79" style="fill:#a02373"/><rect x="529.54" y="243.73" width="2.58" height="0.54" style="fill:#a02373"/><rect x="532.35" y="246.17" width="2.15" height="0.54" transform="translate(102.39 645.79) rotate(-67.61)" style="fill:#a02373"/><rect x="533.15" y="240.38" width="0.54" height="2.15" transform="translate(-51.76 221.32) rotate(-22.38)" style="fill:#a02373"/><polygon points="537.95 242.63 533.87 242.63 532.5 244 533.87 245.37 537.95 245.37 537.95 245.91 533.64 245.91 531.74 244 533.64 242.09 537.95 242.09 537.95 242.63" style="fill:#a02373"/></g><g id="rupie-2" data-name="rupie"><polygon points="523.98 244 520.25 240.25 506.8 240.25 503.07 244 506.8 247.75 520.25 247.75 523.98 244" style="fill:#fde9f1"/><polygon points="523.98 244 523.98 244 503.07 244 503.07 244 506.8 247.75 520.25 247.75 523.98 244" style="fill:#ee2a7b"/><polygon points="521.4 244 519.5 242.09 507.55 242.09 505.65 244 507.55 245.91 519.5 245.91 521.4 244" style="fill:#ebb8d5"/><polygon points="511.16 240.79 520.03 240.79 523.22 244 520.03 247.21 511.16 247.21 511.16 247.75 520.25 247.75 523.98 244 520.25 240.25 511.16 240.25 511.16 240.79" style="fill:#a02373"/><rect x="521.02" y="243.73" width="2.58" height="0.54" style="fill:#a02373"/><rect x="519.45" y="245.37" width="0.54" height="2.15" transform="translate(-54.69 216.47) rotate(-22.38)" style="fill:#a02373"/><rect x="518.64" y="241.19" width="2.15" height="0.54" transform="translate(98.49 630.01) rotate(-67.61)" style="fill:#a02373"/><polygon points="511.16 242.63 519.27 242.63 520.64 244 519.27 245.37 511.16 245.37 511.16 245.91 519.5 245.91 521.4 244 519.5 242.09 511.16 242.09 511.16 242.63" style="fill:#a02373"/><polygon points="511.86 240.79 507.02 240.79 503.83 244 507.02 247.21 511.86 247.21 511.86 247.75 506.8 247.75 503.07 244 506.8 240.25 511.86 240.25 511.86 240.79" style="fill:#a02373"/><rect x="503.45" y="243.73" width="2.58" height="0.54" style="fill:#a02373"/><rect x="506.26" y="246.17" width="2.15" height="0.54" transform="translate(86.23 621.67) rotate(-67.61)" style="fill:#a02373"/><rect x="507.06" y="240.38" width="0.54" height="2.15" transform="translate(-53.72 211.38) rotate(-22.38)" style="fill:#a02373"/><polygon points="511.86 242.63 507.78 242.63 506.41 244 507.78 245.37 511.86 245.37 511.86 245.91 507.55 245.91 505.65 244 507.55 242.09 511.86 242.09 511.86 242.63" style="fill:#a02373"/></g></g><rect x="516.84" y="443.18" width="83.94" height="15.32" style="fill:#fff;opacity:0.8"/><rect x="517.51" y="236.46" width="39.77" height="15.32" style="fill:#d1ecf2;opacity:0.4"/><polygon points="513.28 233.9 513.28 255.1 516.88 253.66 516.88 235.9 513.28 233.9" style="fill:#e9b7d5;stroke:#a02373;stroke-miterlimit:10;stroke-width:1.2673276855274px"/><rect x="407.36" y="352.25" width="37.59" height="15.32" style="fill:#fff;opacity:0.8"/><g id="top-left-rupies"><g id="rupie-3" data-name="rupie"><polygon points="466.12 359.79 462.39 356.04 448.93 356.04 445.21 359.79 448.93 363.54 462.39 363.54 466.12 359.79" style="fill:#fde9f1"/><polygon points="466.12 359.79 466.12 359.79 445.21 359.79 445.21 359.79 448.93 363.54 462.39 363.54 466.12 359.79" style="fill:#ee2a7b"/><polygon points="463.53 359.79 461.63 357.88 449.69 357.88 447.79 359.79 449.69 361.7 461.63 361.7 463.53 359.79" style="fill:#ebb8d5"/><polygon points="453.3 356.58 462.17 356.58 465.36 359.79 462.17 363 453.3 363 453.3 363.54 462.39 363.54 466.12 359.79 462.39 356.04 453.3 356.04 453.3 356.58" style="fill:#a02373"/><rect x="463.15" y="359.52" width="2.58" height="0.54" style="fill:#a02373"/><rect x="461.58" y="361.15" width="0.54" height="2.15" transform="translate(-103.14 203.16) rotate(-22.38)" style="fill:#a02373"/><rect x="460.78" y="356.98" width="2.15" height="0.54" transform="translate(-44.39 648.19) rotate(-67.61)" style="fill:#a02373"/><polygon points="453.3 358.42 461.41 358.42 462.77 359.79 461.41 361.16 453.3 361.16 453.3 361.7 461.63 361.7 463.53 359.79 461.63 357.88 453.3 357.88 453.3 358.42" style="fill:#a02373"/><polygon points="454 356.58 449.16 356.58 445.97 359.79 449.16 363 454 363 454 363.54 448.93 363.54 445.21 359.79 448.93 356.04 454 356.04 454 356.58" style="fill:#a02373"/><rect x="445.59" y="359.52" width="2.58" height="0.54" style="fill:#a02373"/><rect x="448.4" y="361.96" width="2.15" height="0.54" transform="translate(-56.65 639.86) rotate(-67.61)" style="fill:#a02373"/><rect x="449.2" y="356.17" width="0.54" height="2.15" transform="translate(-102.17 198.07) rotate(-22.38)" style="fill:#a02373"/><polygon points="454 358.42 449.92 358.42 448.55 359.79 449.92 361.16 454 361.16 454 361.7 449.69 361.7 447.79 359.79 449.69 357.88 454 357.88 454 358.42" style="fill:#a02373"/></g><g id="rupie-4" data-name="rupie"><polygon points="440.06 359.79 436.33 356.04 422.88 356.04 419.15 359.79 422.88 363.54 436.33 363.54 440.06 359.79" style="fill:#fde9f1"/><polygon points="440.06 359.79 440.06 359.79 419.15 359.79 419.15 359.79 422.88 363.54 436.33 363.54 440.06 359.79" style="fill:#ee2a7b"/><polygon points="437.48 359.79 435.58 357.88 423.63 357.88 421.73 359.79 423.63 361.7 435.58 361.7 437.48 359.79" style="fill:#ebb8d5"/><polygon points="427.24 356.58 436.11 356.58 439.3 359.79 436.11 363 427.24 363 427.24 363.54 436.33 363.54 440.06 359.79 436.33 356.04 427.24 356.04 427.24 356.58" style="fill:#a02373"/><rect x="437.1" y="359.52" width="2.58" height="0.54" style="fill:#a02373"/><rect x="435.53" y="361.15" width="0.54" height="2.15" transform="translate(-105.1 193.24) rotate(-22.38)" style="fill:#a02373"/><rect x="434.72" y="356.98" width="2.15" height="0.54" transform="translate(-60.52 624.1) rotate(-67.61)" style="fill:#a02373"/><polygon points="427.24 358.42 435.35 358.42 436.72 359.79 435.35 361.16 427.24 361.16 427.24 361.7 435.58 361.7 437.48 359.79 435.58 357.88 427.24 357.88 427.24 358.42" style="fill:#a02373"/><polygon points="427.94 356.58 423.1 356.58 419.91 359.79 423.1 363 427.94 363 427.94 363.54 422.88 363.54 419.15 359.79 422.88 356.04 427.94 356.04 427.94 356.58" style="fill:#a02373"/><rect x="419.53" y="359.52" width="2.58" height="0.54" style="fill:#a02373"/><rect x="422.34" y="361.96" width="2.15" height="0.54" transform="translate(-72.78 615.76) rotate(-67.61)" style="fill:#a02373"/><rect x="423.15" y="356.17" width="0.54" height="2.15" transform="translate(-104.14 188.15) rotate(-22.38)" style="fill:#a02373"/><polygon points="427.94 358.42 423.86 358.42 422.5 359.79 423.86 361.16 427.94 361.16 427.94 361.7 423.63 361.7 421.73 359.79 423.63 357.88 427.94 357.88 427.94 358.42" style="fill:#a02373"/></g><g id="rupie-5" data-name="rupie"><polygon points="413.97 359.79 410.24 356.04 396.79 356.04 393.06 359.79 396.79 363.54 410.24 363.54 413.97 359.79" style="fill:#fde9f1"/><polygon points="413.97 359.79 413.97 359.79 393.06 359.79 393.06 359.79 396.79 363.54 410.24 363.54 413.97 359.79" style="fill:#ee2a7b"/><polygon points="411.39 359.79 409.49 357.88 397.54 357.88 395.64 359.79 397.54 361.7 409.49 361.7 411.39 359.79" style="fill:#ebb8d5"/><polygon points="401.15 356.58 410.02 356.58 413.21 359.79 410.02 363 401.15 363 401.15 363.54 410.24 363.54 413.97 359.79 410.24 356.04 401.15 356.04 401.15 356.58" style="fill:#a02373"/><rect x="411.01" y="359.52" width="2.58" height="0.54" style="fill:#a02373"/><rect x="409.44" y="361.15" width="0.54" height="2.15" transform="translate(-107.07 183.31) rotate(-22.38)" style="fill:#a02373"/><rect x="408.63" y="356.98" width="2.15" height="0.54" transform="translate(-76.67 599.98) rotate(-67.61)" style="fill:#a02373"/><polygon points="401.15 358.42 409.26 358.42 410.63 359.79 409.26 361.16 401.15 361.16 401.15 361.7 409.49 361.7 411.39 359.79 409.49 357.88 401.15 357.88 401.15 358.42" style="fill:#a02373"/><polygon points="401.85 356.58 397.01 356.58 393.82 359.79 397.01 363 401.85 363 401.85 363.54 396.79 363.54 393.06 359.79 396.79 356.04 401.85 356.04 401.85 356.58" style="fill:#a02373"/><rect x="393.44" y="359.52" width="2.58" height="0.54" style="fill:#a02373"/><rect x="396.25" y="361.96" width="2.15" height="0.54" transform="translate(-88.94 591.64) rotate(-67.61)" style="fill:#a02373"/><rect x="397.05" y="356.17" width="0.54" height="2.15" transform="translate(-106.1 178.22) rotate(-22.38)" style="fill:#a02373"/><polygon points="401.85 358.42 397.77 358.42 396.4 359.79 397.77 361.16 401.85 361.16 401.85 361.7 397.54 361.7 395.64 359.79 397.54 357.88 401.85 357.88 401.85 358.42" style="fill:#a02373"/></g></g><rect x="403.52" y="352.25" width="41.44" height="15.32" style="fill:#9fdae3;opacity:0.4"/><rect x="403.54" y="352.25" width="39.23" height="1.68" style="fill:#fff"/><polygon points="444.81 370.89 444.81 349.69 441.21 351.13 441.21 368.89 444.81 370.89" style="fill:#fde9f1;stroke:#a02373;stroke-miterlimit:10"/><polygon points="403.27 349.69 403.27 370.89 406.87 369.45 406.87 351.69 403.27 349.69" style="fill:#e9b7d5;stroke:#a02373;stroke-miterlimit:10"/><rect x="362.12" y="426.19" width="78.6" height="15.32" style="fill:#fff;opacity:0.8"/><g id="bottom-left-rupies"><g id="rupie-6" data-name="rupie"><polygon points="452.3 433.73 448.57 429.98 435.11 429.98 431.38 433.73 435.11 437.48 448.57 437.48 452.3 433.73" style="fill:#fde9f1"/><polygon points="452.3 433.73 452.3 433.73 431.38 433.73 431.38 433.73 435.11 437.48 448.57 437.48 452.3 433.73" style="fill:#ee2a7b"/><polygon points="449.71 433.73 447.81 431.82 435.87 431.82 433.97 433.73 435.87 435.64 447.81 435.64 449.71 433.73" style="fill:#ebb8d5"/><polygon points="439.48 430.52 448.35 430.52 451.54 433.73 448.35 436.94 439.48 436.94 439.48 437.48 448.57 437.48 452.3 433.73 448.57 429.98 439.48 429.98 439.48 430.52" style="fill:#a02373"/><rect x="449.33" y="433.46" width="2.58" height="0.54" style="fill:#a02373"/><rect x="447.76" y="435.1" width="0.54" height="2.15" transform="translate(-132.34 203.47) rotate(-22.38)" style="fill:#a02373"/><rect x="446.96" y="430.92" width="2.15" height="0.54" transform="translate(-121.32 681.19) rotate(-67.61)" style="fill:#a02373"/><polygon points="439.48 432.36 447.59 432.36 448.95 433.73 447.59 435.1 439.48 435.1 439.48 435.64 447.81 435.64 449.71 433.73 447.81 431.82 439.48 431.82 439.48 432.36" style="fill:#a02373"/><polygon points="440.17 430.52 435.34 430.52 432.14 433.73 435.34 436.94 440.17 436.94 440.17 437.48 435.11 437.48 431.38 433.73 435.11 429.98 440.17 429.98 440.17 430.52" style="fill:#a02373"/><rect x="431.76" y="433.46" width="2.58" height="0.54" style="fill:#a02373"/><rect x="434.57" y="435.9" width="2.15" height="0.54" transform="translate(-133.58 672.86) rotate(-67.61)" style="fill:#a02373"/><rect x="435.38" y="430.11" width="0.54" height="2.15" transform="translate(-131.37 198.38) rotate(-22.38)" style="fill:#a02373"/><polygon points="440.17 432.36 436.09 432.36 434.73 433.73 436.09 435.1 440.17 435.1 440.17 435.64 435.87 435.64 433.97 433.73 435.87 431.82 440.17 431.82 440.17 432.36" style="fill:#a02373"/></g><g id="rupie-7" data-name="rupie"><polygon points="426.24 433.73 422.51 429.98 409.06 429.98 405.33 433.73 409.06 437.48 422.51 437.48 426.24 433.73" style="fill:#fde9f1"/><polygon points="426.24 433.73 426.24 433.73 405.33 433.73 405.33 433.73 409.06 437.48 422.51 437.48 426.24 433.73" style="fill:#ee2a7b"/><polygon points="423.66 433.73 421.76 431.82 409.81 431.82 407.91 433.73 409.81 435.64 421.76 435.64 423.66 433.73" style="fill:#ebb8d5"/><polygon points="413.42 430.52 422.29 430.52 425.48 433.73 422.29 436.94 413.42 436.94 413.42 437.48 422.51 437.48 426.24 433.73 422.51 429.98 413.42 429.98 413.42 430.52" style="fill:#a02373"/><rect x="423.28" y="433.46" width="2.58" height="0.54" style="fill:#a02373"/><rect x="421.71" y="435.1" width="0.54" height="2.15" transform="translate(-134.3 193.55) rotate(-22.38)" style="fill:#a02373"/><rect x="420.9" y="430.92" width="2.15" height="0.54" transform="translate(-137.45 657.1) rotate(-67.61)" style="fill:#a02373"/><polygon points="413.42 432.36 421.53 432.36 422.9 433.73 421.53 435.1 413.42 435.1 413.42 435.64 421.76 435.64 423.66 433.73 421.76 431.82 413.42 431.82 413.42 432.36" style="fill:#a02373"/><polygon points="414.12 430.52 409.28 430.52 406.09 433.73 409.28 436.94 414.12 436.94 414.12 437.48 409.06 437.48 405.33 433.73 409.06 429.98 414.12 429.98 414.12 430.52" style="fill:#a02373"/><rect x="405.71" y="433.46" width="2.58" height="0.54" style="fill:#a02373"/><rect x="408.52" y="435.9" width="2.15" height="0.54" transform="translate(-149.71 648.76) rotate(-67.61)" style="fill:#a02373"/><rect x="409.32" y="430.11" width="0.54" height="2.15" transform="translate(-133.34 188.46) rotate(-22.38)" style="fill:#a02373"/><polygon points="414.12 432.36 410.04 432.36 408.67 433.73 410.04 435.1 414.12 435.1 414.12 435.64 409.81 435.64 407.91 433.73 409.81 431.82 414.12 431.82 414.12 432.36" style="fill:#a02373"/></g><g id="rupie-8" data-name="rupie"><polygon points="400.15 433.73 396.42 429.98 382.96 429.98 379.24 433.73 382.96 437.48 396.42 437.48 400.15 433.73" style="fill:#fde9f1"/><polygon points="400.15 433.73 400.15 433.73 379.24 433.73 379.24 433.73 382.96 437.48 396.42 437.48 400.15 433.73" style="fill:#ee2a7b"/><polygon points="397.56 433.73 395.67 431.82 383.72 431.82 381.82 433.73 383.72 435.64 395.67 435.64 397.56 433.73" style="fill:#ebb8d5"/><polygon points="387.33 430.52 396.2 430.52 399.39 433.73 396.2 436.94 387.33 436.94 387.33 437.48 396.42 437.48 400.15 433.73 396.42 429.98 387.33 429.98 387.33 430.52" style="fill:#a02373"/><rect x="397.18" y="433.46" width="2.58" height="0.54" style="fill:#a02373"/><rect x="395.62" y="435.1" width="0.54" height="2.15" transform="translate(-136.27 183.61) rotate(-22.38)" style="fill:#a02373"/><rect x="394.81" y="430.92" width="2.15" height="0.54" transform="translate(-153.6 632.97) rotate(-67.61)" style="fill:#a02373"/><polygon points="387.33 432.36 395.44 432.36 396.81 433.73 395.44 435.1 387.33 435.1 387.33 435.64 395.67 435.64 397.56 433.73 395.67 431.82 387.33 431.82 387.33 432.36" style="fill:#a02373"/><polygon points="388.03 430.52 383.19 430.52 380 433.73 383.19 436.94 388.03 436.94 388.03 437.48 382.96 437.48 379.24 433.73 382.96 429.98 388.03 429.98 388.03 430.52" style="fill:#a02373"/><rect x="379.62" y="433.46" width="2.58" height="0.54" style="fill:#a02373"/><rect x="382.43" y="435.9" width="2.15" height="0.54" transform="translate(-165.86 624.64) rotate(-67.61)" style="fill:#a02373"/><rect x="383.23" y="430.11" width="0.54" height="2.15" transform="translate(-135.3 178.52) rotate(-22.38)" style="fill:#a02373"/><polygon points="388.03 432.36 383.94 432.36 382.58 433.73 383.94 435.1 388.03 435.1 388.03 435.64 383.72 435.64 381.82 433.73 383.72 431.82 388.03 431.82 388.03 432.36" style="fill:#a02373"/></g><g id="rupie-9" data-name="rupie"><polygon points="374.26 433.73 370.54 429.98 357.08 429.98 353.35 433.73 357.08 437.48 370.54 437.48 374.26 433.73" style="fill:#fde9f1"/><polygon points="374.26 433.73 374.26 433.73 353.35 433.73 353.35 433.73 357.08 437.48 370.54 437.48 374.26 433.73" style="fill:#ee2a7b"/><polygon points="371.68 433.73 369.78 431.82 357.83 431.82 355.93 433.73 357.83 435.64 369.78 435.64 371.68 433.73" style="fill:#ebb8d5"/><polygon points="361.44 430.52 370.31 430.52 373.5 433.73 370.31 436.94 361.44 436.94 361.44 437.48 370.54 437.48 374.26 433.73 370.54 429.98 361.44 429.98 361.44 430.52" style="fill:#a02373"/><rect x="371.3" y="433.46" width="2.58" height="0.54" style="fill:#a02373"/><rect x="369.73" y="435.1" width="0.54" height="2.15" transform="translate(-138.22 173.76) rotate(-22.38)" style="fill:#a02373"/><rect x="368.92" y="430.92" width="2.15" height="0.54" transform="translate(-169.62 609.04) rotate(-67.61)" style="fill:#a02373"/><polygon points="361.44 432.36 369.55 432.36 370.92 433.73 369.55 435.1 361.44 435.1 361.44 435.64 369.78 435.64 371.68 433.73 369.78 431.82 361.44 431.82 361.44 432.36" style="fill:#a02373"/><polygon points="362.14 430.52 357.3 430.52 354.11 433.73 357.3 436.94 362.14 436.94 362.14 437.48 357.08 437.48 353.35 433.73 357.08 429.98 362.14 429.98 362.14 430.52" style="fill:#a02373"/><rect x="353.73" y="433.46" width="2.58" height="0.54" style="fill:#a02373"/><rect x="356.54" y="435.9" width="2.15" height="0.54" transform="translate(-181.89 600.7) rotate(-67.61)" style="fill:#a02373"/><rect x="357.34" y="430.11" width="0.54" height="2.15" transform="translate(-137.25 168.67) rotate(-22.38)" style="fill:#a02373"/><polygon points="362.14 432.36 358.06 432.36 356.69 433.73 358.06 435.1 362.14 435.1 362.14 435.64 357.83 435.64 355.93 433.73 357.83 431.82 362.14 431.82 362.14 432.36" style="fill:#a02373"/></g></g><rect x="362.12" y="426.19" width="78.81" height="15.32" style="fill:#9fdae3;opacity:0.4"/><polygon points="444.96 444.83 444.96 423.63 441.37 425.07 441.37 442.83 444.96 444.83" style="fill:#fde9f1;stroke:#a02373;stroke-miterlimit:10"/><polygon points="358.04 423.63 358.04 444.83 361.63 443.39 361.63 425.63 358.04 423.63" style="fill:#e9b7d5;stroke:#a02373;stroke-miterlimit:10"/><rect x="362.12" y="426.19" width="78.76" height="1.68" style="fill:#fff"/><rect x="516.84" y="385" width="83.94" height="15.32" style="fill:#fff;opacity:0.8"/><g id="top-right-rupies"><g id="rupie-10" data-name="rupie"><polygon points="606.65 392.54 602.92 388.79 589.46 388.79 585.73 392.54 589.46 396.29 602.92 396.29 606.65 392.54" style="fill:#fde9f1"/><polygon points="606.65 392.54 606.65 392.54 585.73 392.54 585.73 392.54 589.46 396.29 602.92 396.29 606.65 392.54" style="fill:#ee2a7b"/><polygon points="604.06 392.54 602.16 390.63 590.22 390.63 588.32 392.54 590.22 394.45 602.16 394.45 604.06 392.54" style="fill:#ebb8d5"/><polygon points="593.82 389.33 602.69 389.33 605.89 392.54 602.69 395.75 593.82 395.75 593.82 396.29 602.92 396.29 606.65 392.54 602.92 388.79 593.82 388.79 593.82 389.33" style="fill:#a02373"/><rect x="603.68" y="392.27" width="2.58" height="0.54" style="fill:#a02373"/><rect x="602.11" y="393.91" width="0.54" height="2.15" transform="translate(-105.02 259.14) rotate(-22.38)" style="fill:#a02373"/><rect x="601.3" y="389.73" width="2.15" height="0.54" transform="translate(12.32 798.4) rotate(-67.61)" style="fill:#a02373"/><polygon points="593.82 391.17 601.94 391.17 603.3 392.54 601.94 393.91 593.82 393.91 593.82 394.45 602.16 394.45 604.06 392.54 602.16 390.63 593.82 390.63 593.82 391.17" style="fill:#a02373"/><polygon points="594.52 389.33 589.68 389.33 586.49 392.54 589.68 395.75 594.52 395.75 594.52 396.29 589.46 396.29 585.73 392.54 589.46 388.79 594.52 388.79 594.52 389.33" style="fill:#a02373"/><rect x="586.11" y="392.27" width="2.58" height="0.54" style="fill:#a02373"/><rect x="588.92" y="394.71" width="2.15" height="0.54" transform="translate(0.07 790.07) rotate(-67.61)" style="fill:#a02373"/><rect x="589.73" y="388.92" width="0.54" height="2.15" transform="translate(-104.06 254.05) rotate(-22.38)" style="fill:#a02373"/><polygon points="594.52 391.17 590.44 391.17 589.08 392.54 590.44 393.91 594.52 393.91 594.52 394.45 590.22 394.45 588.32 392.54 590.22 390.63 594.52 390.63 594.52 391.17" style="fill:#a02373"/></g><g id="rupie-11" data-name="rupie"><polygon points="580.59 392.54 576.86 388.79 563.4 388.79 559.68 392.54 563.4 396.29 576.86 396.29 580.59 392.54" style="fill:#fde9f1"/><polygon points="580.59 392.54 580.59 392.54 559.68 392.54 559.68 392.54 563.4 396.29 576.86 396.29 580.59 392.54" style="fill:#ee2a7b"/><polygon points="578 392.54 576.11 390.63 564.16 390.63 562.26 392.54 564.16 394.45 576.11 394.45 578 392.54" style="fill:#ebb8d5"/><polygon points="567.77 389.33 576.64 389.33 579.83 392.54 576.64 395.75 567.77 395.75 567.77 396.29 576.86 396.29 580.59 392.54 576.86 388.79 567.77 388.79 567.77 389.33" style="fill:#a02373"/><rect x="577.62" y="392.27" width="2.58" height="0.54" style="fill:#a02373"/><rect x="576.05" y="393.91" width="0.54" height="2.15" transform="translate(-106.99 249.22) rotate(-22.38)" style="fill:#a02373"/><rect x="575.25" y="389.73" width="2.15" height="0.54" transform="translate(-3.81 774.31) rotate(-67.61)" style="fill:#a02373"/><polygon points="567.77 391.17 575.88 391.17 577.24 392.54 575.88 393.91 567.77 393.91 567.77 394.45 576.11 394.45 578 392.54 576.11 390.63 567.77 390.63 567.77 391.17" style="fill:#a02373"/><polygon points="568.47 389.33 563.63 389.33 560.44 392.54 563.63 395.75 568.47 395.75 568.47 396.29 563.4 396.29 559.68 392.54 563.4 388.79 568.47 388.79 568.47 389.33" style="fill:#a02373"/><rect x="560.06" y="392.27" width="2.58" height="0.54" style="fill:#a02373"/><rect x="562.87" y="394.71" width="2.15" height="0.54" transform="translate(-16.06 765.98) rotate(-67.61)" style="fill:#a02373"/><rect x="563.67" y="388.92" width="0.54" height="2.15" transform="translate(-106.02 244.13) rotate(-22.38)" style="fill:#a02373"/><polygon points="568.47 391.17 564.38 391.17 563.02 392.54 564.38 393.91 568.47 393.91 568.47 394.45 564.16 394.45 562.26 392.54 564.16 390.63 568.47 390.63 568.47 391.17" style="fill:#a02373"/></g><g id="rupie-12" data-name="rupie"><polygon points="554.5 392.54 550.77 388.79 537.31 388.79 533.59 392.54 537.31 396.29 550.77 396.29 554.5 392.54" style="fill:#fde9f1"/><polygon points="554.5 392.54 554.5 392.54 533.59 392.54 533.59 392.54 537.31 396.29 550.77 396.29 554.5 392.54" style="fill:#ee2a7b"/><polygon points="551.91 392.54 550.01 390.63 538.07 390.63 536.17 392.54 538.07 394.45 550.01 394.45 551.91 392.54" style="fill:#ebb8d5"/><polygon points="541.68 389.33 550.55 389.33 553.74 392.54 550.55 395.75 541.68 395.75 541.68 396.29 550.77 396.29 554.5 392.54 550.77 388.79 541.68 388.79 541.68 389.33" style="fill:#a02373"/><rect x="551.53" y="392.27" width="2.58" height="0.54" style="fill:#a02373"/><rect x="549.96" y="393.91" width="0.54" height="2.15" transform="translate(-108.95 239.29) rotate(-22.38)" style="fill:#a02373"/><rect x="549.16" y="389.73" width="2.15" height="0.54" transform="translate(-19.96 750.18) rotate(-67.61)" style="fill:#a02373"/><polygon points="541.68 391.17 549.79 391.17 551.15 392.54 549.79 393.91 541.68 393.91 541.68 394.45 550.01 394.45 551.91 392.54 550.01 390.63 541.68 390.63 541.68 391.17" style="fill:#a02373"/><polygon points="542.38 389.33 537.54 389.33 534.35 392.54 537.54 395.75 542.38 395.75 542.38 396.29 537.31 396.29 533.59 392.54 537.31 388.79 542.38 388.79 542.38 389.33" style="fill:#a02373"/><rect x="533.97" y="392.27" width="2.58" height="0.54" style="fill:#a02373"/><rect x="536.77" y="394.71" width="2.15" height="0.54" transform="translate(-32.21 741.85) rotate(-67.61)" style="fill:#a02373"/><rect x="537.58" y="388.92" width="0.54" height="2.15" transform="translate(-107.99 234.2) rotate(-22.38)" style="fill:#a02373"/><polygon points="542.38 391.17 538.29 391.17 536.93 392.54 538.29 393.91 542.38 393.91 542.38 394.45 538.07 394.45 536.17 392.54 538.07 390.63 542.38 390.63 542.38 391.17" style="fill:#a02373"/></g><g id="rupie-13" data-name="rupie"><polygon points="528.61 392.54 524.88 388.79 511.43 388.79 507.7 392.54 511.43 396.29 524.88 396.29 528.61 392.54" style="fill:#fde9f1"/><polygon points="528.61 392.54 528.61 392.54 507.7 392.54 507.7 392.54 511.43 396.29 524.88 396.29 528.61 392.54" style="fill:#ee2a7b"/><polygon points="526.03 392.54 524.13 390.63 512.18 390.63 510.28 392.54 512.18 394.45 524.13 394.45 526.03 392.54" style="fill:#ebb8d5"/><polygon points="515.79 389.33 524.66 389.33 527.85 392.54 524.66 395.75 515.79 395.75 515.79 396.29 524.88 396.29 528.61 392.54 524.88 388.79 515.79 388.79 515.79 389.33" style="fill:#a02373"/><rect x="525.65" y="392.27" width="2.58" height="0.54" style="fill:#a02373"/><rect x="524.08" y="393.91" width="0.54" height="2.15" transform="translate(-110.9 229.43) rotate(-22.38)" style="fill:#a02373"/><rect x="523.27" y="389.73" width="2.15" height="0.54" transform="translate(-35.99 726.25) rotate(-67.61)" style="fill:#a02373"/><polygon points="515.79 391.17 523.9 391.17 525.27 392.54 523.9 393.91 515.79 393.91 515.79 394.45 524.13 394.45 526.03 392.54 524.13 390.63 515.79 390.63 515.79 391.17" style="fill:#a02373"/><polygon points="516.49 389.33 511.65 389.33 508.46 392.54 511.65 395.75 516.49 395.75 516.49 396.29 511.43 396.29 507.7 392.54 511.43 388.79 516.49 388.79 516.49 389.33" style="fill:#a02373"/><rect x="508.08" y="392.27" width="2.58" height="0.54" style="fill:#a02373"/><rect x="510.89" y="394.71" width="2.15" height="0.54" transform="translate(-48.24 717.91) rotate(-67.61)" style="fill:#a02373"/><rect x="511.69" y="388.92" width="0.54" height="2.15" transform="translate(-109.94 224.34) rotate(-22.38)" style="fill:#a02373"/><polygon points="516.49 391.17 512.41 391.17 511.04 392.54 512.41 393.91 516.49 393.91 516.49 394.45 512.18 394.45 510.28 392.54 512.18 390.63 516.49 390.63 516.49 391.17" style="fill:#a02373"/></g></g><rect x="517.28" y="385" width="83.5" height="15.32" style="fill:#9fdae3;opacity:0.4"/><rect x="517.28" y="385" width="82.95" height="1.68" style="fill:#fff"/><polygon points="604.38 403.64 604.38 382.44 600.79 383.88 600.79 401.64 604.38 403.64" style="fill:#fde9f1;stroke:#a02373;stroke-miterlimit:10"/><polygon points="513.25 382.44 513.25 403.64 516.84 402.2 516.84 384.44 513.25 382.44" style="fill:#e9b7d5;stroke:#a02373;stroke-miterlimit:10"/><g id="bottom-right-tube"><rect id="bottom-right-bg" x="517.51" y="443.18" width="82.95" height="15.32" style="fill:#fff;opacity:0.8"/><g id="bottom-right-rupies"><g id="rupie-14" data-name="rupie"><polygon points="618.96 450.33 615.23 446.58 601.77 446.58 598.05 450.33 601.77 454.08 615.23 454.08 618.96 450.33" style="fill:#fde9f1"/><polygon points="618.96 450.33 618.96 450.33 598.05 450.33 598.05 450.33 601.77 454.08 615.23 454.08 618.96 450.33" style="fill:#ee2a7b"/><polygon points="616.38 450.33 614.48 448.42 602.53 448.42 600.63 450.33 602.53 452.24 614.48 452.24 616.38 450.33" style="fill:#ebb8d5"/><polygon points="606.14 447.12 615.01 447.12 618.2 450.33 615.01 453.54 606.14 453.54 606.14 454.08 615.23 454.08 618.96 450.33 615.23 446.58 606.14 446.58 606.14 447.12" style="fill:#a02373"/><rect x="616" y="450.06" width="2.58" height="0.54" style="fill:#a02373"/><rect x="614.43" y="451.7" width="0.54" height="2.15" transform="translate(-126.1 268.19) rotate(-22.38)" style="fill:#a02373"/><rect x="613.62" y="447.52" width="2.15" height="0.54" transform="translate(-33.49 845.56) rotate(-67.61)" style="fill:#a02373"/><polygon points="606.14 448.96 614.25 448.96 615.62 450.33 614.25 451.7 606.14 451.7 606.14 452.24 614.48 452.24 616.38 450.33 614.48 448.42 606.14 448.42 606.14 448.96" style="fill:#a02373"/><polygon points="606.84 447.12 602 447.12 598.81 450.33 602 453.54 606.84 453.54 606.84 454.08 601.77 454.08 598.05 450.33 601.77 446.58 606.84 446.58 606.84 447.12" style="fill:#a02373"/><rect x="598.43" y="450.06" width="2.58" height="0.54" style="fill:#a02373"/><rect x="601.24" y="452.51" width="2.15" height="0.54" transform="translate(-45.74 837.24) rotate(-67.61)" style="fill:#a02373"/><rect x="602.04" y="446.71" width="0.54" height="2.15" transform="translate(-125.14 263.1) rotate(-22.38)" style="fill:#a02373"/><polygon points="606.84 448.96 602.76 448.96 601.39 450.33 602.76 451.7 606.84 451.7 606.84 452.24 602.53 452.24 600.63 450.33 602.53 448.42 606.84 448.42 606.84 448.96" style="fill:#a02373"/></g><g id="rupie-15" data-name="rupie"><polygon points="592.9 450.33 589.18 446.58 575.72 446.58 571.99 450.33 575.72 454.08 589.18 454.08 592.9 450.33" style="fill:#fde9f1"/><polygon points="592.9 450.33 592.9 450.33 571.99 450.33 571.99 450.33 575.72 454.08 589.18 454.08 592.9 450.33" style="fill:#ee2a7b"/><polygon points="590.32 450.33 588.42 448.42 576.48 448.42 574.58 450.33 576.48 452.24 588.42 452.24 590.32 450.33" style="fill:#ebb8d5"/><polygon points="580.08 447.12 588.95 447.12 592.14 450.33 588.95 453.54 580.08 453.54 580.08 454.08 589.18 454.08 592.9 450.33 589.18 446.58 580.08 446.58 580.08 447.12" style="fill:#a02373"/><rect x="589.94" y="450.06" width="2.58" height="0.54" style="fill:#a02373"/><rect x="588.37" y="451.7" width="0.54" height="2.15" transform="translate(-128.07 258.27) rotate(-22.38)" style="fill:#a02373"/><rect x="587.56" y="447.52" width="2.15" height="0.54" transform="matrix(0.38, -0.92, 0.92, 0.38, -49.62, 821.47)" style="fill:#a02373"/><polygon points="580.08 448.96 588.2 448.96 589.56 450.33 588.2 451.7 580.08 451.7 580.08 452.24 588.42 452.24 590.32 450.33 588.42 448.42 580.08 448.42 580.08 448.96" style="fill:#a02373"/><polygon points="580.78 447.12 575.94 447.12 572.75 450.33 575.94 453.54 580.78 453.54 580.78 454.08 575.72 454.08 571.99 450.33 575.72 446.58 580.78 446.58 580.78 447.12" style="fill:#a02373"/><rect x="572.37" y="450.06" width="2.58" height="0.54" style="fill:#a02373"/><rect x="575.18" y="452.51" width="2.15" height="0.54" transform="translate(-61.87 813.14) rotate(-67.61)" style="fill:#a02373"/><rect x="575.99" y="446.71" width="0.54" height="2.15" transform="translate(-127.1 253.18) rotate(-22.38)" style="fill:#a02373"/><polygon points="580.78 448.96 576.7 448.96 575.34 450.33 576.7 451.7 580.78 451.7 580.78 452.24 576.48 452.24 574.58 450.33 576.48 448.42 580.78 448.42 580.78 448.96" style="fill:#a02373"/></g><g id="rupie-16" data-name="rupie"><polygon points="566.81 450.33 563.09 446.58 549.63 446.58 545.9 450.33 549.63 454.08 563.09 454.08 566.81 450.33" style="fill:#fde9f1"/><polygon points="566.81 450.33 566.81 450.33 545.9 450.33 545.9 450.33 549.63 454.08 563.09 454.08 566.81 450.33" style="fill:#ee2a7b"/><polygon points="564.23 450.33 562.33 448.42 550.38 448.42 548.49 450.33 550.38 452.24 562.33 452.24 564.23 450.33" style="fill:#ebb8d5"/><polygon points="553.99 447.12 562.86 447.12 566.05 450.33 562.86 453.54 553.99 453.54 553.99 454.08 563.09 454.08 566.81 450.33 563.09 446.58 553.99 446.58 553.99 447.12" style="fill:#a02373"/><rect x="563.85" y="450.06" width="2.58" height="0.54" style="fill:#a02373"/><rect x="562.28" y="451.7" width="0.54" height="2.15" transform="translate(-130.03 248.33) rotate(-22.38)" style="fill:#a02373"/><rect x="561.47" y="447.52" width="2.15" height="0.54" transform="translate(-65.77 797.35) rotate(-67.61)" style="fill:#a02373"/><polygon points="553.99 448.96 562.1 448.96 563.47 450.33 562.1 451.7 553.99 451.7 553.99 452.24 562.33 452.24 564.23 450.33 562.33 448.42 553.99 448.42 553.99 448.96" style="fill:#a02373"/><polygon points="554.69 447.12 549.85 447.12 546.66 450.33 549.85 453.54 554.69 453.54 554.69 454.08 549.63 454.08 545.9 450.33 549.63 446.58 554.69 446.58 554.69 447.12" style="fill:#a02373"/><rect x="546.28" y="450.06" width="2.58" height="0.54" style="fill:#a02373"/><rect x="549.09" y="452.51" width="2.15" height="0.54" transform="translate(-78.03 789.02) rotate(-67.61)" style="fill:#a02373"/><rect x="549.9" y="446.71" width="0.54" height="2.15" transform="translate(-129.07 243.24) rotate(-22.38)" style="fill:#a02373"/><polygon points="554.69 448.96 550.61 448.96 549.25 450.33 550.61 451.7 554.69 451.7 554.69 452.24 550.38 452.24 548.49 450.33 550.38 448.42 554.69 448.42 554.69 448.96" style="fill:#a02373"/></g><g id="rupie-17" data-name="rupie"><polygon points="540.92 450.33 537.2 446.58 523.74 446.58 520.01 450.33 523.74 454.08 537.2 454.08 540.92 450.33" style="fill:#fde9f1"/><polygon points="540.92 450.33 540.92 450.33 520.01 450.33 520.01 450.33 523.74 454.08 537.2 454.08 540.92 450.33" style="fill:#ee2a7b"/><polygon points="538.34 450.33 536.44 448.42 524.5 448.42 522.6 450.33 524.5 452.24 536.44 452.24 538.34 450.33" style="fill:#ebb8d5"/><polygon points="528.1 447.12 536.97 447.12 540.16 450.33 536.97 453.54 528.1 453.54 528.1 454.08 537.2 454.08 540.92 450.33 537.2 446.58 528.1 446.58 528.1 447.12" style="fill:#a02373"/><rect x="537.96" y="450.06" width="2.58" height="0.54" style="fill:#a02373"/><rect x="536.39" y="451.7" width="0.54" height="2.15" transform="translate(-131.98 238.47) rotate(-22.38)" style="fill:#a02373"/><rect x="535.58" y="447.52" width="2.15" height="0.54" transform="translate(-81.8 773.41) rotate(-67.61)" style="fill:#a02373"/><polygon points="528.1 448.96 536.22 448.96 537.58 450.33 536.22 451.7 528.1 451.7 528.1 452.24 536.44 452.24 538.34 450.33 536.44 448.42 528.1 448.42 528.1 448.96" style="fill:#a02373"/><polygon points="528.8 447.12 523.96 447.12 520.77 450.33 523.96 453.54 528.8 453.54 528.8 454.08 523.74 454.08 520.01 450.33 523.74 446.58 528.8 446.58 528.8 447.12" style="fill:#a02373"/><rect x="520.39" y="450.06" width="2.58" height="0.54" style="fill:#a02373"/><rect x="523.2" y="452.51" width="2.15" height="0.54" transform="translate(-94.06 765.08) rotate(-67.61)" style="fill:#a02373"/><rect x="524.01" y="446.71" width="0.54" height="2.15" transform="translate(-131.02 233.38) rotate(-22.38)" style="fill:#a02373"/><polygon points="528.8 448.96 524.72 448.96 523.36 450.33 524.72 451.7 528.8 451.7 528.8 452.24 524.5 452.24 522.6 450.33 524.5 448.42 528.8 448.42 528.8 448.96" style="fill:#a02373"/></g></g><rect x="517.51" y="442.79" width="82.95" height="15.32" style="fill:#9fdae3;opacity:0.4"/><polygon points="604.55 461.43 604.55 440.24 600.95 441.67 600.95 459.43 604.55 461.43" style="fill:#fde9f1;stroke:#a02373;stroke-miterlimit:10"/><polygon points="513.41 440.24 513.41 461.43 517.01 460 517.01 442.23 513.41 440.24" style="fill:#e9b7d5;stroke:#a02373;stroke-miterlimit:10"/><rect x="517.51" y="442.79" width="82.88" height="1.68" style="fill:#fff"/></g><polyline points="565.6 230.79 557.28 234.72 557.28 254.69 565.6 259.49" style="fill:#ebb8d5;stroke:#a02373;stroke-miterlimit:10"/><line x1="696.79" y1="296.07" x2="680.76" y2="296.07" style="fill:#ee2a7b;stroke:#a02373;stroke-miterlimit:10"/><polyline points="680.76 296.07 727.32 296.07 727.32 193.69 565.6 193.69 565.6 296.07 583.82 296.07" style="fill:#544b9f"/><polygon points="574.23 203.94 575.86 202.32 577.49 203.94 577.49 209.79 575.86 211.41 574.23 209.79 574.23 203.94" style="fill:#fff;stroke:#491246;stroke-miterlimit:10"/><polygon points="579.32 203.94 580.95 202.32 582.57 203.94 582.57 209.79 580.95 211.41 579.32 209.79 579.32 203.94" style="fill:#fff;stroke:#491246;stroke-miterlimit:10"/><polygon points="584.4 203.94 586.03 202.32 587.66 203.94 587.66 209.79 586.03 211.41 584.4 209.79 584.4 203.94" style="fill:#fff;stroke:#491246;stroke-miterlimit:10"/><polygon points="589.49 203.94 591.12 202.32 592.75 203.94 592.75 209.79 591.12 211.41 589.49 209.79 589.49 203.94" style="fill:#fff;stroke:#491246;stroke-miterlimit:10"/><polygon points="594.58 203.94 596.21 202.32 597.84 203.94 597.84 209.79 596.21 211.41 594.58 209.79 594.58 203.94" style="fill:#ee2c7b;stroke:#491246;stroke-miterlimit:10"/><polygon points="599.67 203.94 601.3 202.32 602.93 203.94 602.93 209.79 601.3 211.41 599.67 209.79 599.67 203.94" style="fill:#ee2c7b;stroke:#491246;stroke-miterlimit:10"/><polygon points="604.76 203.94 606.39 202.32 608.02 203.94 608.02 209.79 606.39 211.41 604.76 209.79 604.76 203.94" style="fill:#ee2c7b;stroke:#491246;stroke-miterlimit:10"/><g id="meteors"><polygon id="illustration__game-meteor-md-3" points="648.59 210.65 642.88 210.65 640.02 215.6 642.88 220.54 648.59 220.54 651.44 215.6 648.59 210.65" style="fill:#9589c2;stroke:#491246;stroke-miterlimit:10"/><polygon id="illustration__game-meteor-sm-1" points="647.09 234.71 643.73 234.71 642.04 237.62 643.73 240.53 647.09 240.53 648.77 237.62 647.09 234.71" style="fill:#9589c2;stroke:#491246;stroke-miterlimit:10"/><polygon id="illustration__game-meteor-l-2" points="596.11 227.93 587.11 223.37 578.66 228.89 579.22 238.96 588.22 243.52 596.66 238 596.11 227.93" style="fill:#9589c2;stroke:#491246;stroke-miterlimit:10"/><polygon id="illustration__game-meteor-md-1" points="712.4 252.82 706.69 252.82 703.84 257.76 706.69 262.71 712.4 262.71 715.26 257.76 712.4 252.82" style="fill:#9589c2;stroke:#491246;stroke-miterlimit:10"/><polygon id="illustration__game-meteor-xl-2" points="597.69 279.69 595.93 265.17 582.48 259.43 570.78 268.22 572.54 282.74 586 288.47 597.69 279.69" style="fill:#9589c2;stroke:#491246;stroke-miterlimit:10"/><polygon id="illustration__game-meteor-xl-1" points="700.48 301.8 698.73 287.28 685.27 281.55 673.58 290.33 675.33 304.85 688.79 310.59 700.48 301.8" style="fill:#9589c2;stroke:#491246;stroke-miterlimit:10"/><polygon id="illustration__game-meteor-l-1" points="706.96 209.34 697.96 204.79 689.52 210.3 690.07 220.37 699.07 224.93 707.52 219.41 706.96 209.34" style="fill:#9589c2;stroke:#491246;stroke-miterlimit:10"/><polygon id="illustration__game-meteor-md-2" points="692.71 239.23 689.4 234.57 683.72 235.11 681.35 240.31 684.66 244.96 690.34 244.42 692.71 239.23" style="fill:#9589c2;stroke:#491246;stroke-miterlimit:10"/></g><polygon points="561.33 256.94 561.33 233.11 557.28 234.72 557.28 254.69 561.33 256.94" style="fill:#fde9f1;stroke:#a02373;stroke-miterlimit:10"/><rect x="517.57" y="236.46" width="38.67" height="1.68" style="fill:#fff"/><path d="M806.83,208.09a5.16,5.16,0,0,0-2.62.7,2.45,2.45,0,0,0,1.21,4.59h2.83a2.45,2.45,0,0,0,1.37-4.49A5.2,5.2,0,0,0,806.83,208.09Z" style="fill:#fff"/><path d="M727.32,193.69V296.07H565.6V193.69H727.32m1-1H564.6V297.07H728.32V192.69Z" style="fill:#491245"/><polygon points="665.08 194.15 566.01 276.1 566.01 251.86 635.71 194.12 665.08 194.15" style="fill:#fff;opacity:0.06"/><polygon points="686.04 194.13 566.01 292.76 566.01 286.27 678.26 194.1 686.04 194.13" style="fill:#fff;opacity:0.06"/><g id="TOP_RIGHT_MASK" data-name="TOP RIGHT MASK"><rect id="TOP_RIGHT_TUBE_MASK_1" data-name="TOP RIGHT TUBE MASK 1" x="517.35" y="385" width="44.44" height="15.55" style="fill:none"/><rect id="TOP_RIGHT_TUBE_MASK_2" data-name="TOP RIGHT TUBE MASK 2" x="590.93" y="385" width="9.34" height="15.55" style="fill:none"/></g><rect id="Top_Left_Mask" data-name="Top Left Mask" x="407.36" y="352.25" width="33.35" height="15.32" style="fill:none;opacity:0.4"/><rect id="BOTTOM_LEFT_MASK" data-name="BOTTOM LEFT MASK" x="362.12" y="426.19" width="78.76" height="15.32" style="fill:none;opacity:0.4"/><rect id="BOTTOM_RIGHT_MASK" data-name="BOTTOM RIGHT MASK" x="517.51" y="442.79" width="82.95" height="15.32" style="fill:none;opacity:0.4"/><rect id="GAME_BOARD_TUBE_MASK" data-name="GAME BOARD TUBE MASK" x="517.51" y="236.46" width="39.27" height="15.32" style="fill:none;opacity:0.4"/><rect id="GAME_BOARD_MASK" data-name="GAME BOARD MASK" x="565.6" y="193.69" width="161.72" height="102.38" style="fill:none"/></g></svg>