<svg xmlns="http://www.w3.org/2000/svg" width="80.25" height="36.52" viewBox="0 0 80.25 36.52"><title>Artboard 16</title>
<g style="isolation:isolate"><g id="Layer_1" data-name="Layer 1" clip-path="url(#clip-path)"><line x1="52.88" y1="24.42" x2="40.7" y2="24.42" style="fill:none;stroke:#7d398f;stroke-miterlimit:10;stroke-width:0.844885123684936px"/><line x1="52.88" y1="21.04" x2="40.7" y2="21.04" style="fill:none;stroke:#7d398f;stroke-miterlimit:10;stroke-width:0.844885123684936px"/><polygon points="65.34 14.59 65.34 8.13 59.75 4.9 54.16 8.13 54.16 14.59 59.75 17.82 65.34 14.59" style="fill:#fff;opacity:0.4"/><polygon points="65.34 14.59 65.34 8.13 59.75 4.9 54.16 8.13 54.16 14.59 59.75 17.82 65.34 14.59" style="fill:none;stroke:#7c3990;stroke-miterlimit:10;stroke-width:0.633663842763702px"/><polygon points="51.53 22.19 51.53 25.77 69.01 25.77 67.49 22.19 51.53 22.19" style="fill:#da1c5c"/><polygon points="68.25 21.87 69.78 25.46 76.17 19.03 71.08 19.03 68.25 21.87" style="fill:#da1c5c"/><polygon points="77.75 18.62 77.46 18.32 77.17 18.62 77.17 18.62 77.17 18.62 77.17 18.62 77.17 19.03 76.17 19.03 69.78 25.46 70.02 26.03 69.25 26.35 69.01 25.77 51.53 25.77 51.53 26.61 69.81 26.61 77.75 18.62" style="fill:#7c3990"/><polygon points="71.08 18.2 76.17 18.2 69.77 11.78 68.25 15.36 71.08 18.2" style="fill:#f6ebf4"/><polygon points="69.01 11.46 51.53 11.46 51.53 15.04 67.48 15.04 69.01 11.46" style="fill:#f6ebf4"/><polygon points="77.17 18.62 77.17 18.62 77.17 18.62 77.17 18.62" style="fill:#f6ebf4"/><polygon points="51.53 11.46 69.01 11.46 69.25 10.88 70.02 11.21 69.77 11.78 76.17 18.2 77.17 18.2 77.17 18.62 77.17 18.62 77.17 18.62 77.46 18.32 77.46 18.32 69.81 10.63 51.53 10.63 51.53 11.46" style="fill:#7d398f"/><polygon points="67.94 22.19 67.49 22.19 69.01 25.77 69.25 26.35 70.02 26.03 69.78 25.46 68.25 21.87 67.94 22.19" style="fill:#7d398f"/><polygon points="77.17 18.2 76.17 18.2 71.08 18.2 71.49 18.62 71.08 19.03 76.17 19.03 77.17 19.03 77.17 18.62 77.17 18.2" style="fill:#7d398f"/><polygon points="67.93 15.04 68.25 15.36 69.77 11.78 70.02 11.21 69.25 10.88 69.01 11.46 67.48 15.04 67.93 15.04" style="fill:#7d398f"/><polygon points="70.32 18.62 67.59 15.87 51.53 15.87 51.53 21.36 67.59 21.36 70.32 18.62" style="fill:#e6cbe2"/><polygon points="67.94 22.19 68.25 21.87 71.08 19.03 71.49 18.62 71.08 18.2 68.25 15.36 67.93 15.04 67.48 15.04 51.53 15.04 51.53 15.87 67.59 15.87 70.32 18.62 67.59 21.36 51.53 21.36 51.53 22.19 67.49 22.19 67.94 22.19" style="fill:#7d398f"/><polyline points="52.36 10.63 51.53 10.63 51.53 23.81 51.53 26.6 51.95 26.6 52.36 26.6 52.36 23.81" style="fill:#7d398f"/><rect x="12.9" y="19.1" width="28.41" height="7.26" style="fill:#bd92c2;stroke:#7d398f;stroke-miterlimit:10;stroke-width:0.633663842763702px"/><rect x="12.9" y="19.1" width="28.41" height="3.66" style="fill:#e6cbe2;stroke:#7d398f;stroke-miterlimit:10;stroke-width:0.633663842763702px"/><polygon points="40.16 10.45 36.67 6.94 11.93 6.94 8.44 10.45 11.91 13.95 36.69 13.95 40.16 10.45" style="fill:#ebb8d5"/><polygon points="46.51 10.45 40.16 10.45 36.69 13.95 11.91 13.95 8.44 10.45 2.09 10.45 10.01 18.41 38.59 18.41 46.51 10.45" style="fill:#ee2a7b"/><polygon points="46.51 10.45 38.59 2.49 10.01 2.49 2.09 10.45 8.44 10.45 11.93 6.94 36.67 6.94 40.16 10.45 46.51 10.45" style="fill:#fde9f1"/><polygon points="38.59 2.49 46.51 10.45 38.59 18.41 10.01 18.41 2.09 10.45 10.01 2.49 38.59 2.49" style="fill:none;stroke:#a02373;stroke-miterlimit:10;stroke-width:0.844885123684936px"/><polygon points="36.67 6.94 40.16 10.45 36.69 13.95 11.91 13.95 8.44 10.45 11.93 6.94 36.67 6.94" style="fill:none;stroke:#a02373;stroke-miterlimit:10;stroke-width:0.844885123684936px"/><line x1="36.67" y1="6.94" x2="38.59" y2="2.49" style="fill:none;stroke:#a02373;stroke-miterlimit:10;stroke-width:0.844885123684936px"/><line x1="46.51" y1="10.45" x2="40.16" y2="10.45" style="fill:none;stroke:#a02373;stroke-miterlimit:10;stroke-width:0.844885123684936px"/><line x1="36.69" y1="13.94" x2="38.59" y2="18.41" style="fill:none;stroke:#a02373;stroke-miterlimit:10;stroke-width:0.844885123684936px"/><line x1="11.91" y1="13.94" x2="10.01" y2="18.41" style="fill:none;stroke:#a02373;stroke-miterlimit:10;stroke-width:0.844885123684936px"/><line x1="8.44" y1="10.45" x2="2.09" y2="10.45" style="fill:none;stroke:#a02373;stroke-miterlimit:10;stroke-width:0.844885123684936px"/><line x1="10.01" y1="2.49" x2="11.93" y2="6.94" style="fill:none;stroke:#a02373;stroke-miterlimit:10;stroke-width:0.844885123684936px"/><path d="M27.84,19v0Z" style="fill:none;stroke:#7c3990;stroke-linejoin:bevel;stroke-width:0.844885123684936px"/><polyline points="21.56 19.03 27.84 2.22 34.11 19.03" style="fill:none;stroke:#7c3990;stroke-linejoin:bevel;stroke-width:0.844885123684936px"/><polyline points="12.9 19.1 22.94 2.22 34.11 19.03" style="fill:none;stroke:#7c3990;stroke-linejoin:bevel;stroke-width:0.844885123684936px"/><rect x="17.04" y="30.73" width="51.2" height="3.32" rx="1.41" ry="1.41" style="fill:#c9c9c9;opacity:0.45;mix-blend-mode:multiply"/></g></g></svg>
