<svg id="Layer_1" data-name="Layer 1" xmlns="http://www.w3.org/2000/svg" width="118.5" height="153.5" viewBox="0 0 118.5 153.5"><title>Artboard 6</title><polygon points="104.68 17.93 11.97 17.93 6.12 23.81 11.97 29.69 104.68 29.69 110.53 23.81 104.68 17.93" style="fill:#bd92c2;stroke:#7d398f;stroke-miterlimit:10;stroke-width:0.844885123684936px"/><polygon points="104.74 17.93 110.59 23.81 104.74 29.69 103.28 26.26 105.72 23.81 103.28 21.35 104.74 17.93" style="fill:#975f99;stroke:#7e3a8f;stroke-linejoin:bevel;stroke-width:0.844885123684936px"/><polygon points="11.97 17.93 6.12 23.81 11.97 29.69 13.42 26.26 10.98 23.81 13.43 21.35 11.97 17.93" style="fill:#f5ebf4;stroke:#7e3a8f;stroke-linejoin:bevel;stroke-width:0.844885123684936px"/><line x1="13.42" y1="26.26" x2="11.97" y2="29.69" style="fill:none;stroke:#7d398f;stroke-miterlimit:10;stroke-width:0.844885123684936px"/><line x1="6.12" y1="23.81" x2="10.98" y2="23.81" style="fill:none;stroke:#7d398f;stroke-miterlimit:10;stroke-width:0.844885123684936px"/><line x1="13.43" y1="21.35" x2="11.97" y2="17.93" style="fill:none;stroke:#7d398f;stroke-miterlimit:10;stroke-width:0.844885123684936px"/><line x1="103.23" y1="26.26" x2="104.68" y2="29.69" style="fill:none;stroke:#7d398f;stroke-miterlimit:10;stroke-width:0.844885123684936px"/><line x1="105.67" y1="23.81" x2="110.53" y2="23.81" style="fill:none;stroke:#7d398f;stroke-miterlimit:10;stroke-width:0.844885123684936px"/><line x1="103.22" y1="21.35" x2="104.68" y2="17.93" style="fill:none;stroke:#7d398f;stroke-miterlimit:10;stroke-width:0.844885123684936px"/><polygon points="103.22 21.35 65.96 21.35 64.77 21.35 13.43 21.35 10.98 23.81 13.42 26.26 64.77 26.26 65.96 26.26 103.23 26.26 105.67 23.81 103.22 21.35" style="fill:#e6cbe2;stroke:#7d398f;stroke-miterlimit:10;stroke-width:0.844885123684936px"/><rect x="17.77" y="6.12" width="11.86" height="11.86" style="fill:none;stroke:#7c3990;stroke-miterlimit:10;stroke-width:0.844885123684936px"/><line x1="17.77" y1="6.12" x2="29.63" y2="17.98" style="fill:none;stroke:#7c3990;stroke-miterlimit:10;stroke-width:0.844885123684936px"/><rect x="17.77" y="17.98" width="11.86" height="11.86" transform="translate(47.4 47.82) rotate(-180)" style="fill:none;stroke:#7c3990;stroke-miterlimit:10;stroke-width:0.844885123684936px"/><line x1="29.63" y1="17.98" x2="17.77" y2="29.84" style="fill:none;stroke:#7c3990;stroke-miterlimit:10;stroke-width:0.844885123684936px"/><rect x="17.77" y="29.69" width="11.86" height="11.86" style="fill:none;stroke:#7c3990;stroke-miterlimit:10;stroke-width:0.844885123684936px"/><line x1="17.77" y1="29.69" x2="29.63" y2="41.55" style="fill:none;stroke:#7c3990;stroke-miterlimit:10;stroke-width:0.844885123684936px"/><rect x="17.77" y="41.55" width="11.86" height="11.86" transform="translate(47.4 94.96) rotate(-180)" style="fill:none;stroke:#7c3990;stroke-miterlimit:10;stroke-width:0.844885123684936px"/><line x1="29.63" y1="41.55" x2="17.77" y2="53.41" style="fill:none;stroke:#7c3990;stroke-miterlimit:10;stroke-width:0.844885123684936px"/><rect x="17.77" y="53.26" width="11.86" height="11.86" style="fill:none;stroke:#7c3990;stroke-miterlimit:10;stroke-width:0.844885123684936px"/><line x1="17.77" y1="53.26" x2="29.63" y2="65.12" style="fill:none;stroke:#7c3990;stroke-miterlimit:10;stroke-width:0.844885123684936px"/><rect x="17.77" y="65.12" width="11.86" height="11.86" transform="translate(47.4 142.1) rotate(-180)" style="fill:none;stroke:#7c3990;stroke-miterlimit:10;stroke-width:0.844885123684936px"/><line x1="29.63" y1="65.12" x2="17.77" y2="76.98" style="fill:none;stroke:#7c3990;stroke-miterlimit:10;stroke-width:0.844885123684936px"/><rect x="17.77" y="76.82" width="11.86" height="11.86" style="fill:none;stroke:#7c3990;stroke-miterlimit:10;stroke-width:0.844885123684936px"/><line x1="17.77" y1="76.82" x2="29.63" y2="88.69" style="fill:none;stroke:#7c3990;stroke-miterlimit:10;stroke-width:0.844885123684936px"/><rect x="17.77" y="88.69" width="11.86" height="11.86" transform="translate(47.4 189.23) rotate(-180)" style="fill:none;stroke:#7c3990;stroke-miterlimit:10;stroke-width:0.844885123684936px"/><line x1="29.63" y1="88.69" x2="17.77" y2="100.55" style="fill:none;stroke:#7c3990;stroke-miterlimit:10;stroke-width:0.844885123684936px"/><rect x="17.77" y="100.55" width="11.86" height="11.86" style="fill:none;stroke:#7c3990;stroke-miterlimit:10;stroke-width:0.844885123684936px"/><line x1="17.77" y1="100.55" x2="29.63" y2="112.41" style="fill:none;stroke:#7c3990;stroke-miterlimit:10;stroke-width:0.844885123684936px"/><rect x="17.77" y="112.41" width="11.86" height="11.86" transform="translate(47.4 236.68) rotate(-180)" style="fill:none;stroke:#7c3990;stroke-miterlimit:10;stroke-width:0.844885123684936px"/><line x1="29.63" y1="112.41" x2="17.77" y2="124.27" style="fill:none;stroke:#7c3990;stroke-miterlimit:10;stroke-width:0.844885123684936px"/><rect x="17.77" y="124.12" width="11.86" height="11.86" style="fill:none;stroke:#7c3990;stroke-miterlimit:10;stroke-width:0.844885123684936px"/><line x1="17.77" y1="124.12" x2="29.63" y2="135.98" style="fill:none;stroke:#7c3990;stroke-miterlimit:10;stroke-width:0.844885123684936px"/><rect x="17.77" y="135.98" width="11.86" height="11.86" transform="translate(47.4 283.82) rotate(-180)" style="fill:none;stroke:#7c3990;stroke-miterlimit:10;stroke-width:0.844885123684936px"/><line x1="29.63" y1="135.98" x2="17.77" y2="147.84" style="fill:none;stroke:#7c3990;stroke-miterlimit:10;stroke-width:0.844885123684936px"/></svg>