<svg id="Layer_1" data-name="Layer 1" xmlns="http://www.w3.org/2000/svg" width="168.25" height="170.5" viewBox="0 0 168.25 170.5"><title>Artboard 4</title><path d="M83.93,4.32a81.43,81.43,0,1,0,81.42,81.42A81.42,81.42,0,0,0,83.93,4.32Zm0,157.24a75.82,75.82,0,1,1,75.81-75.82A75.83,75.83,0,0,1,83.93,161.56Z" style="fill:#e6cae2;stroke:#7c3990;stroke-miterlimit:10;stroke-width:0.844885123684936px"/><line x1="83.93" y1="71.67" x2="83.93" y2="10.08" style="fill:none;stroke:#7c3990;stroke-miterlimit:10;stroke-width:0.844885123684936px"/><line x1="83.93" y1="161.35" x2="83.93" y2="99.76" style="fill:none;stroke:#7c3990;stroke-miterlimit:10;stroke-width:0.844885123684936px"/><line x1="69.88" y1="85.71" x2="8.29" y2="85.71" style="fill:none;stroke:#7c3990;stroke-miterlimit:10;stroke-width:0.844885123684936px"/><line x1="159.56" y1="85.71" x2="97.98" y2="85.71" style="fill:none;stroke:#7c3990;stroke-miterlimit:10;stroke-width:0.844885123684936px"/><line x1="73.99" y1="75.78" x2="30.45" y2="32.23" style="fill:none;stroke:#7c3990;stroke-miterlimit:10;stroke-width:0.844885123684936px"/><line x1="137.41" y1="139.19" x2="93.86" y2="95.65" style="fill:none;stroke:#7c3990;stroke-miterlimit:10;stroke-width:0.844885123684936px"/><line x1="73.99" y1="95.65" x2="30.45" y2="139.19" style="fill:none;stroke:#7c3990;stroke-miterlimit:10;stroke-width:0.844885123684936px"/><line x1="137.41" y1="32.23" x2="93.86" y2="75.78" style="fill:none;stroke:#7c3990;stroke-miterlimit:10;stroke-width:0.844885123684936px"/><polygon points="98.11 90.35 98.11 81.14 92.69 73.68 83.93 70.83 75.16 73.68 69.75 81.14 69.75 90.35 75.16 97.81 83.93 100.66 92.69 97.81 98.11 90.35" style="fill:#e6cae2;stroke:#7c3990;stroke-miterlimit:10;stroke-width:0.844885123684936px"/><path d="M83.93,7a78.73,78.73,0,1,0,78.73,78.73A78.73,78.73,0,0,0,83.93,7Z" style="fill:none;stroke:#7c3990;stroke-miterlimit:10;stroke-width:0.844885123684936px"/></svg>