<svg id="Layer_1" data-name="Layer 1" xmlns="http://www.w3.org/2000/svg" width="21.6" height="32.75" viewBox="0 0 21.6 32.75"><title>Artboard 5</title><polygon points="5.89 9.38 5.89 18.8 7.88 18.8 7.88 10.19 5.89 9.38" style="fill:#fde9f1"/><polygon points="10.38 7.19 10.38 4.41 6.17 8.6 8.15 9.41 10.38 7.19" style="fill:#fde9f1"/><polygon points="13.71 10.13 13.71 18.8 15.69 18.8 15.69 9.31 13.71 10.13" style="fill:#ee2a7b"/><polygon points="13.39 9.37 15.37 8.55 11.2 4.41 11.2 7.19 13.39 9.37" style="fill:#ee2a7b"/><polygon points="10.79 7.95 8.7 10.03 8.7 18.8 12.88 18.8 12.88 10.03 10.79 7.95" style="fill:#ebb8d5"/><polygon points="5.89 9.38 5.24 9.1 5.55 8.34 6.17 8.6 10.38 4.41 10.38 3.42 11.2 3.42 11.2 4.41 15.37 8.55 15.88 8.34 16.19 9.1 15.69 9.31 15.69 18.8 16.51 18.8 16.51 8.53 10.79 2.84 5.07 8.53 5.07 18.8 5.89 18.8 5.89 9.38" style="fill:#a02373"/><polygon points="10.79 6.79 11.2 7.19 11.2 4.41 11.2 3.42 10.38 3.42 10.38 4.41 10.38 7.19 10.79 6.79" style="fill:#a02373"/><polygon points="13.71 9.68 13.71 10.13 15.69 9.31 16.19 9.1 15.88 8.34 15.37 8.55 13.39 9.37 13.71 9.68" style="fill:#a02373"/><polygon points="7.88 9.68 8.15 9.41 6.17 8.6 5.55 8.34 5.24 9.1 5.89 9.38 7.88 10.19 7.88 9.68" style="fill:#a02373"/><polygon points="13.71 9.68 13.39 9.37 11.2 7.19 10.79 6.79 10.38 7.19 8.15 9.41 7.88 9.68 7.88 10.19 7.88 18.8 8.7 18.8 8.7 10.03 10.79 7.95 12.88 10.03 12.88 18.8 13.71 18.8 13.71 10.13 13.71 9.68" style="fill:#a02373"/><polyline points="2.76 15.1 2.76 22.77 10.78 30.75 18.8 22.77 18.8 15.1" style="fill:#bd92c2;stroke:#7d398f;stroke-miterlimit:10;stroke-width:0.844885123684936px"/><polyline points="2.76 15.1 2.76 22.77 10.78 30.75 10.79 22.77 10.79 15.1" style="fill:#f5ebf4;stroke:#7d398f;stroke-linejoin:bevel;stroke-width:0.844885123684936px"/><polyline points="14.13 15.1 14.13 20.79 10.78 24.12 7.43 20.79 7.43 15.1" style="fill:#e6cbe2;stroke:#7d398f;stroke-miterlimit:10;stroke-width:0.844885123684936px"/><line x1="14.13" y1="20.79" x2="18.8" y2="22.77" style="fill:none;stroke:#7d398f;stroke-miterlimit:10;stroke-width:0.844885123684936px"/><line x1="10.78" y1="24.12" x2="10.78" y2="30.75" style="fill:none;stroke:#7d398f;stroke-miterlimit:10;stroke-width:0.844885123684936px"/><line x1="7.43" y1="20.79" x2="2.76" y2="22.77" style="fill:none;stroke:#7d398f;stroke-miterlimit:10;stroke-width:0.844885123684936px"/><line x1="2.76" y1="15.1" x2="18.8" y2="15.1" style="fill:none;stroke:#7d398f;stroke-linecap:square;stroke-linejoin:bevel;stroke-width:0.844885123684936px"/></svg>