<svg xmlns="http://www.w3.org/2000/svg" width="208.26" height="98.88" viewBox="0 0 208.26 98.88"><title>Artboard 52</title><g style="isolation:isolate"><g id="BOTTOM_ILLOS" data-name="BOTTOM ILLOS"><line x1="142.51" y1="66.86" x2="110.3" y2="66.86" style="fill:none;stroke:#7d3990;stroke-miterlimit:10"/><line x1="142.51" y1="57.92" x2="110.3" y2="57.92" style="fill:none;stroke:#7d3990;stroke-miterlimit:10"/><polygon points="175.45 40.88 175.45 23.8 160.66 15.26 145.88 23.8 145.88 40.88 160.66 49.42 175.45 40.88" style="fill:#fff;opacity:0.4"/><polygon points="175.45 40.88 175.45 23.8 160.66 15.26 145.88 23.8 145.88 40.88 160.66 49.42 175.45 40.88" style="fill:none;stroke:#7c3990;stroke-miterlimit:10"/><polygon points="138.95 60.98 138.95 70.44 185.15 70.44 181.13 60.98 138.95 60.98" style="fill:#da1c5c"/><polygon points="183.15 60.13 187.17 69.61 204.08 52.62 190.62 52.62 183.15 60.13" style="fill:#da1c5c"/><polygon points="208.26 51.52 207.5 50.75 206.72 51.52 206.72 51.52 206.72 51.52 206.72 51.52 206.72 52.62 204.08 52.62 187.17 69.61 187.81 71.11 185.79 71.97 185.15 70.44 138.95 70.44 138.95 72.64 187.26 72.64 208.26 51.52" style="fill:#7c3990"/><polygon points="190.62 50.42 204.08 50.42 187.17 33.43 183.15 42.91 190.62 50.42" style="fill:#f6ebf4"/><polygon points="185.14 32.6 138.95 32.6 138.95 42.06 181.12 42.06 185.14 32.6" style="fill:#f6ebf4"/><polygon points="206.72 51.52 206.72 51.52 206.72 51.52 206.72 51.52" style="fill:#f6ebf4"/><polygon points="138.95 32.6 185.14 32.6 185.79 31.07 187.81 31.93 187.17 33.43 204.08 50.42 206.72 50.42 206.72 51.52 206.72 51.52 206.72 51.52 207.5 50.75 207.5 50.75 187.26 30.4 138.95 30.4 138.95 32.6" style="fill:#7d398f"/><polygon points="182.31 60.98 181.13 60.98 185.15 70.44 185.79 71.97 187.81 71.11 187.17 69.61 183.15 60.13 182.31 60.98" style="fill:#7d398f"/><polygon points="206.72 50.42 204.08 50.42 190.62 50.42 191.71 51.52 190.62 52.62 204.08 52.62 206.72 52.62 206.72 51.52 206.72 50.42" style="fill:#7d398f"/><polygon points="182.3 42.06 183.15 42.91 187.17 33.43 187.81 31.93 185.79 31.07 185.14 32.6 181.12 42.06 182.3 42.06" style="fill:#7d398f"/><polygon points="188.61 51.52 181.39 44.26 138.95 44.26 138.95 58.78 181.4 58.78 188.61 51.52" style="fill:#e6cbe2"/><polygon points="182.31 60.98 183.15 60.13 190.62 52.62 191.71 51.52 190.62 50.42 183.15 42.91 182.3 42.06 181.12 42.06 138.95 42.06 138.95 44.26 181.39 44.26 188.61 51.52 181.4 58.78 138.95 58.78 138.95 60.98 181.13 60.98 182.31 60.98" style="fill:#7d398f"/><polyline points="141.14 30.4 138.94 30.4 138.95 65.25 138.95 72.63 140.04 72.63 141.14 72.63 141.14 65.25" style="fill:#7d398f"/><rect x="36.8" y="52.79" width="75.12" height="19.19" style="fill:#bd92c2;stroke:#7d3990;stroke-miterlimit:10"/><rect x="36.8" y="52.79" width="75.12" height="9.67" style="fill:#e6cbe2;stroke:#7d3990;stroke-miterlimit:10"/><polygon points="108.43 29.78 99.2 20.5 33.78 20.5 24.55 29.78 33.73 39.02 99.24 39.02 108.43 29.78" style="fill:#ebb8d5"/><polygon points="125.21 29.78 108.43 29.78 99.24 39.02 33.73 39.02 24.55 29.78 7.76 29.78 28.7 50.82 104.28 50.82 125.21 29.78" style="fill:#ee2a7b"/><polygon points="125.21 29.78 104.28 8.73 28.7 8.73 7.76 29.78 24.55 29.78 33.78 20.5 99.2 20.5 108.43 29.78 125.21 29.78" style="fill:#fde9f1"/><polygon points="104.28 8.73 125.21 29.78 104.28 50.82 28.7 50.82 7.76 29.78 28.7 8.73 104.28 8.73" style="fill:none;stroke:#a02373;stroke-miterlimit:10"/><polygon points="99.2 20.5 108.43 29.78 99.24 39.02 33.73 39.02 24.55 29.78 33.78 20.5 99.2 20.5" style="fill:none;stroke:#a02373;stroke-miterlimit:10"/><line x1="99.2" y1="20.5" x2="104.28" y2="8.73" style="fill:none;stroke:#a02373;stroke-miterlimit:10"/><line x1="125.21" y1="29.78" x2="108.43" y2="29.78" style="fill:none;stroke:#a02373;stroke-miterlimit:10"/><line x1="99.24" y1="39.01" x2="104.28" y2="50.82" style="fill:none;stroke:#a02373;stroke-miterlimit:10"/><line x1="33.73" y1="39.01" x2="28.7" y2="50.82" style="fill:none;stroke:#a02373;stroke-miterlimit:10"/><line x1="24.55" y1="29.78" x2="7.76" y2="29.78" style="fill:none;stroke:#a02373;stroke-miterlimit:10"/><line x1="28.7" y1="8.73" x2="33.78" y2="20.5" style="fill:none;stroke:#a02373;stroke-miterlimit:10"/><path d="M76.14,51.9v0Z" style="fill:none;stroke:#7c3990;stroke-linejoin:bevel"/><polyline points="59.51 52.62 76.14 8.05 92.78 52.62" style="fill:none;stroke:#7c3990;stroke-linejoin:bevel"/><rect x="47.75" y="83.55" width="135.37" height="8.77" rx="3.73" ry="3.73" style="fill:#c9c9c9;opacity:0.45;mix-blend-mode:multiply"/></g></g></svg>