<svg id="Layer_1" data-name="Layer 1" xmlns="http://www.w3.org/2000/svg" width="31.96" height="29.44" viewBox="0 0 31.96 29.44"><title>Artboard 32</title><polyline points="8.62 8.24 4.32 11.17 5.17 22 14.94 26.75 19.23 23.83" style="fill:#bd92c2;stroke:#7d398f;stroke-miterlimit:10;stroke-width:0.844885123684936px"/><polyline points="8.62 8.24 4.32 11.17 5.17 22 9.64 18.97 13.93 16.05" style="fill:#f5ebf4;stroke:#7d398f;stroke-linejoin:bevel;stroke-width:0.844885123684936px"/><polyline points="16.14 19.29 12.96 21.46 8.88 19.47 8.53 14.95 11.71 12.78" style="fill:#e6cbe2;stroke:#7d398f;stroke-miterlimit:10;stroke-width:0.844885123684936px"/><line x1="12.96" y1="21.46" x2="14.94" y2="26.75" style="fill:none;stroke:#7d398f;stroke-miterlimit:10;stroke-width:0.844885123684936px"/><line x1="8.88" y1="19.47" x2="5.17" y2="22" style="fill:none;stroke:#7d398f;stroke-miterlimit:10;stroke-width:0.844885123684936px"/><line x1="8.53" y1="14.95" x2="4.32" y2="11.17" style="fill:none;stroke:#7d398f;stroke-miterlimit:10;stroke-width:0.844885123684936px"/><line x1="8.61" y1="8.24" x2="19.23" y2="23.83" style="fill:none;stroke:#7d398f;stroke-linecap:square;stroke-linejoin:bevel;stroke-width:0.844885123684936px"/><line x1="18.65" y1="22.98" x2="24.91" y2="9.79" style="fill:none;stroke:#7c3990;stroke-miterlimit:10;stroke-width:0.844885123684936px"/><line x1="23.77" y1="8.12" x2="9.15" y2="9.03" style="fill:none;stroke:#7c3990;stroke-miterlimit:10;stroke-width:0.844885123684936px"/><polygon points="29.36 5.54 25.52 4.8 17.3 10.4 16.59 14.24 20.42 14.98 28.64 9.38 29.36 5.54" style="fill:#f5ebf4"/><polygon points="29.36 5.54 29.36 5.54 16.59 14.24 16.59 14.24 20.42 14.98 28.64 9.38 29.36 5.54" style="fill:#c093c3"/><polygon points="27.78 6.61 25.82 6.24 18.53 11.21 18.16 13.16 20.12 13.54 27.41 8.57 27.78 6.61" style="fill:#e6cae2"/><path d="M25.52,4.8,17.3,10.4l-.71,3.84,3.83.74,8.22-5.6.72-3.84Zm1.93,3.56.28-1.47,1.11-.76-.52,2.8Zm-7.33,6.15L17.33,14l1.11-.76,1.47.28ZM18.5,11.39l-.28,1.5-1.12.76.53-2.83ZM20,13.12l-1.4-.27.26-1.41,7-4.78,1.41.27-.27,1.4ZM27.5,6.56,26,6.27l-.22-1,2.83.54Zm-2.09-1.2.21,1-6.89,4.7-.86-.57Zm-4.9,9.07-.21-1,6.94-4.73.86.57Z" style="fill:#7c3990"/></svg>