<svg id="Layer_1" data-name="Layer 1" xmlns="http://www.w3.org/2000/svg" width="276.58" height="195.48" viewBox="0 0 276.58 195.48"><title>Artboard 31</title><polygon points="198.79 40.94 193.39 28.54 187.06 40.94 189.46 40.93 193.2 33.61 196.39 40.93 198.79 40.94" style="fill:#c093c3;stroke:#7d398f;stroke-miterlimit:10;stroke-width:0.844885123684936px"/><polygon points="193.39 28.54 187.06 40.94 189.46 40.93 193.2 33.61 193.39 28.54" style="fill:#e6cbe2;stroke:#7d398f;stroke-linejoin:bevel;stroke-width:0.844885123684936px"/><polyline points="180.18 45.16 182.61 40.94 202.38 40.94 204.82 45.16" style="fill:#ebb8d5;stroke:#a02373;stroke-miterlimit:10;stroke-width:0.844885123684936px"/><polygon points="180.18 44.92 182.61 40.94 192.5 40.94 192.5 45 180.18 44.92" style="fill:#fce9f1;stroke:#a02373;stroke-miterlimit:10;stroke-width:0.844885123684936px"/><line x1="193.2" y1="33.61" x2="193.39" y2="28.54" style="fill:none;stroke:#7d398f;stroke-miterlimit:10;stroke-width:0.844885123684936px"/><polygon points="134 125.88 129.16 130.69 129.16 164.79 134 169.6 138.81 164.81 138.81 130.67 134 125.88" style="fill:#ebb8d5"/><polygon points="134 117.14 134 125.88 138.81 130.67 138.81 164.81 134 169.6 134 178.35 144.97 167.44 144.97 128.05 134 117.14" style="fill:#ee2a7b"/><polygon points="134 117.14 123.03 128.05 123.03 167.44 134 178.35 134 169.6 129.16 164.79 129.16 130.69 134 125.88 134 117.14" style="fill:#fde9f1"/><polygon points="123.03 128.05 134 117.14 144.97 128.05 144.97 167.44 134 178.35 123.03 167.44 123.03 128.05" style="fill:none;stroke:#a02373;stroke-miterlimit:10;stroke-width:0.844885123684936px"/><polygon points="129.16 130.69 134 125.88 138.81 130.67 138.81 164.81 134 169.6 129.16 164.79 129.16 130.69" style="fill:none;stroke:#a02373;stroke-miterlimit:10;stroke-width:0.844885123684936px"/><line x1="129.16" y1="130.7" x2="123.03" y2="128.05" style="fill:none;stroke:#a02373;stroke-miterlimit:10;stroke-width:0.844885123684936px"/><line x1="134" y1="117.14" x2="134" y2="125.88" style="fill:none;stroke:#a02373;stroke-miterlimit:10;stroke-width:0.844885123684936px"/><line x1="138.81" y1="130.67" x2="144.96" y2="128.05" style="fill:none;stroke:#a02373;stroke-miterlimit:10;stroke-width:0.844885123684936px"/><line x1="138.81" y1="164.82" x2="144.96" y2="167.44" style="fill:none;stroke:#a02373;stroke-miterlimit:10;stroke-width:0.844885123684936px"/><line x1="134" y1="169.6" x2="134" y2="178.35" style="fill:none;stroke:#a02373;stroke-miterlimit:10;stroke-width:0.844885123684936px"/><line x1="123.03" y1="167.44" x2="129.16" y2="164.79" style="fill:none;stroke:#a02373;stroke-miterlimit:10;stroke-width:0.844885123684936px"/><polyline points="55.58 81.48 47.44 85.34 47.44 104.89 55.58 109.59" style="fill:#ebb8d5;stroke:#a02373;stroke-miterlimit:10;stroke-width:0.844885123684936px"/><polyline points="110.22 145.09 114.93 153.23 153.06 153.23 157.76 145.09" style="fill:#ebb8d5;stroke:#a02373;stroke-miterlimit:10;stroke-width:0.844885123684936px"/><line x1="184.03" y1="145.4" x2="168.33" y2="145.4" style="fill:#ee2a7b;stroke:#a02373;stroke-miterlimit:10;stroke-width:0.844885123684936px"/><polyline points="168.33 145.4 213.92 145.4 213.92 45.16 55.58 45.16 55.58 145.4 73.42 145.4" style="fill:#544b9f;stroke:#a02373;stroke-miterlimit:10;stroke-width:0.844885123684936px"/><polygon points="51.39 107.09 51.39 83.76 47.44 85.34 47.44 104.89 51.39 107.09" style="fill:#fde9f1;stroke:#a02373;stroke-miterlimit:10;stroke-width:0.844885123684936px"/><polygon points="110.22 145.55 114.93 153.23 134 153.23 134 145.4 110.22 145.55" style="fill:#fce9f1;stroke:#a02373;stroke-miterlimit:10;stroke-width:0.844885123684936px"/><line x1="184.03" y1="145.4" x2="168.33" y2="145.4" style="fill:none;stroke:#a02373;stroke-miterlimit:10;stroke-width:0.844885123684936px"/><polygon points="168.33 145.4 213.92 145.4 213.92 45.16 55.58 45.16 55.58 145.4 73.42 145.4 168.33 145.4" style="fill:none;stroke:#491245;stroke-miterlimit:10;stroke-width:0.844885123684936px"/><polygon points="152.98 45.61 55.98 125.85 55.98 102.12 124.22 45.58 152.98 45.61" style="fill:#fff;opacity:0.06"/><polygon points="173.51 45.59 55.98 142.16 55.98 135.81 165.88 45.56 173.51 45.59" style="fill:#fff;opacity:0.06"/></svg>