<svg xmlns="http://www.w3.org/2000/svg" width="970.92" height="673.64" viewBox="0 0 970.92 673.64">
    <defs>
        <clipPath id="top-right-tube-mask">
            <rect data-name="TOP RIGHT TUBE MASK 1" x="517.35" y="384" width="44.44" height="15.55" style="fill:none"/>
            <rect data-name="TOP RIGHT TUBE MASK 2" x="590.93" y="384" width="9.34" height="15.55" style="fill:none"/>
        </clipPath>
        <clipPath id="top-left-tube-mask">
            <rect data-name="Top Left Mask" x="407.36" y="351.25" width="33.35" height="15.32" style="fill:none;"/>
        </clipPath>
        <clipPath id="bottom-left-tube-mask">
            <rect data-name="BOTTOM LEFT MASK" x="362.12" y="425.19" width="78.76" height="15.32" style="fill:none;"/>
        </clipPath>
        <clipPath id="bottom-right-tube-mask">
            <rect data-name="BOTTOM RIGHT MASK" x="517.51" y="441.79" width="82.95" height="15.32" style="fill:none;"/>
        </clipPath>
        <clipPath id="game-board-tube-mask">
            <rect data-name="GAME BOARD TUBE MASK" x="517.51" y="235.46" width="39.27" height="15.32" style="fill:none;"/>
        </clipPath>
        <clipPath id="game-board-mask">
            <rect data-name="GAME BOARD MASK" x="565.6" y="192.69" width="161.72" height="102.38" style="fill:none"/>
        </clipPath>
    </defs>
    <g id="board-bottom-rupie"><polygon points="645.69 276.04 640.75 280.95 640.75 315.78 645.69 320.69 650.61 315.8 650.61 280.93 645.69 276.04" style="fill:#ebb8d5"/><polygon points="645.69 267.11 645.69 276.04 650.61 280.93 650.61 315.8 645.69 320.69 645.69 329.63 656.89 318.48 656.89 278.25 645.69 267.11" style="fill:#ee2a7b"/><polygon points="645.69 267.11 634.49 278.25 634.49 318.48 645.69 329.63 645.69 320.69 640.75 315.78 640.75 280.95 645.69 276.04 645.69 267.11" style="fill:#fde9f1"/><polygon points="634.49 278.25 645.69 267.11 656.89 278.25 656.89 318.48 645.69 329.63 634.49 318.48 634.49 278.25" style="fill:none;stroke:#a02373;stroke-miterlimit:10"/><polygon points="640.75 280.95 645.69 276.04 650.61 280.93 650.61 315.8 645.69 320.69 640.75 315.78 640.75 280.95" style="fill:none;stroke:#a02373;stroke-miterlimit:10"/><line x1="640.75" y1="280.95" x2="634.49" y2="278.25" style="fill:none;stroke:#a02373;stroke-miterlimit:10"/><line x1="645.69" y1="267.1" x2="645.69" y2="276.04" style="fill:none;stroke:#a02373;stroke-miterlimit:10"/><line x1="650.61" y1="280.93" x2="656.89" y2="278.25" style="fill:none;stroke:#a02373;stroke-miterlimit:10"/><line x1="650.61" y1="315.8" x2="656.89" y2="318.48" style="fill:none;stroke:#a02373;stroke-miterlimit:10"/><line x1="645.69" y1="320.69" x2="645.69" y2="329.63" style="fill:none;stroke:#a02373;stroke-miterlimit:10"/><line x1="634.49" y1="318.48" x2="640.75" y2="315.78" style="fill:none;stroke:#a02373;stroke-miterlimit:10"/><polyline points="621.41 295.65 626.21 303.97 665.16 303.97 669.97 295.65" style="fill:#ebb8d5;stroke:#a02373;stroke-miterlimit:10"/></g><rect x="516.28" y="235.46" width="41" height="15.32" style="fill:#fff"/>
        <g id="board-rupies" clip-path="url(#game-board-tube-mask)">
            <g id="rupie" data-name="rupie"><polygon points="550.07 243 546.35 239.25 532.89 239.25 529.16 243 532.89 246.75 546.35 246.75 550.07 243" style="fill:#fde9f1"/><polygon points="550.07 243 550.07 243 529.16 243 529.16 243 532.89 246.75 546.35 246.75 550.07 243" style="fill:#ee2a7b"/><polygon points="547.49 243 545.59 241.09 533.64 241.09 531.74 243 533.64 244.91 545.59 244.91 547.49 243" style="fill:#ebb8d5"/><polygon points="537.25 239.79 546.12 239.79 549.31 243 546.12 246.21 537.25 246.21 537.25 246.75 546.35 246.75 550.07 243 546.35 239.25 537.25 239.25 537.25 239.79" style="fill:#a02373"/><rect x="547.11" y="242.73" width="2.58" height="0.54" style="fill:#a02373"/><rect x="545.54" y="244.37" width="0.54" height="2.15" transform="translate(-52.34 226.33) rotate(-22.38)" style="fill:#a02373"/><rect x="544.73" y="240.19" width="2.15" height="0.54" transform="translate(115.56 653.52) rotate(-67.61)" style="fill:#a02373"/><polygon points="537.25 241.63 545.36 241.63 546.73 243 545.36 244.37 537.25 244.37 537.25 244.91 545.59 244.91 547.49 243 545.59 241.09 537.25 241.09 537.25 241.63" style="fill:#a02373"/><polygon points="537.95 239.79 533.11 239.79 529.92 243 533.11 246.21 537.95 246.21 537.95 246.75 532.89 246.75 529.16 243 532.89 239.25 537.95 239.25 537.95 239.79" style="fill:#a02373"/><rect x="529.54" y="242.73" width="2.58" height="0.54" style="fill:#a02373"/><rect x="532.35" y="245.17" width="2.15" height="0.54" transform="translate(103.31 645.18) rotate(-67.61)" style="fill:#a02373"/><rect x="533.15" y="239.38" width="0.54" height="2.15" transform="translate(-51.38 221.24) rotate(-22.38)" style="fill:#a02373"/><polygon points="537.95 241.63 533.87 241.63 532.5 243 533.87 244.37 537.95 244.37 537.95 244.91 533.64 244.91 531.74 243 533.64 241.09 537.95 241.09 537.95 241.63" style="fill:#a02373"/></g>
            <g id="rupie-2" data-name="rupie"><polygon points="523.98 243 520.25 239.25 506.8 239.25 503.07 243 506.8 246.75 520.25 246.75 523.98 243" style="fill:#fde9f1"/><polygon points="523.98 243 523.98 243 503.07 243 503.07 243 506.8 246.75 520.25 246.75 523.98 243" style="fill:#ee2a7b"/><polygon points="521.4 243 519.5 241.09 507.55 241.09 505.65 243 507.55 244.91 519.5 244.91 521.4 243" style="fill:#ebb8d5"/><polygon points="511.16 239.79 520.03 239.79 523.22 243 520.03 246.21 511.16 246.21 511.16 246.75 520.25 246.75 523.98 243 520.25 239.25 511.16 239.25 511.16 239.79" style="fill:#a02373"/><rect x="521.02" y="242.73" width="2.58" height="0.54" style="fill:#a02373"/><rect x="519.45" y="244.37" width="0.54" height="2.15" transform="translate(-54.31 216.4) rotate(-22.38)" style="fill:#a02373"/><rect x="518.64" y="240.19" width="2.15" height="0.54" transform="translate(99.41 629.39) rotate(-67.61)" style="fill:#a02373"/><polygon points="511.16 241.63 519.27 241.63 520.64 243 519.27 244.37 511.16 244.37 511.16 244.91 519.5 244.91 521.4 243 519.5 241.09 511.16 241.09 511.16 241.63" style="fill:#a02373"/><polygon points="511.86 239.79 507.02 239.79 503.83 243 507.02 246.21 511.86 246.21 511.86 246.75 506.8 246.75 503.07 243 506.8 239.25 511.86 239.25 511.86 239.79" style="fill:#a02373"/><rect x="503.45" y="242.73" width="2.58" height="0.54" style="fill:#a02373"/><rect x="506.26" y="245.17" width="2.15" height="0.54" transform="translate(87.16 621.05) rotate(-67.61)" style="fill:#a02373"/><rect x="507.06" y="239.38" width="0.54" height="2.15" transform="translate(-53.34 211.31) rotate(-22.38)" style="fill:#a02373"/><polygon points="511.86 241.63 507.78 241.63 506.41 243 507.78 244.37 511.86 244.37 511.86 244.91 507.55 244.91 505.65 243 507.55 241.09 511.86 241.09 511.86 241.63" style="fill:#a02373"/></g>
        </g><rect x="517.51" y="235.46" width="39.77" height="15.32" style="fill:#d1ecf2;opacity:0.4"/><polygon points="513.28 232.9 513.28 254.1 516.88 252.66 516.88 234.9 513.28 232.9" style="fill:#e9b7d5;stroke:#a02373;stroke-miterlimit:10;stroke-width:1.2673276855274px"/><rect x="407.36" y="351.25" width="37.59" height="15.32" style="fill:#fff;opacity:0.8"/>
        <g id="top-left-rupies" clip-path="url(#top-left-tube-mask)">
            <g id="rupie-3" data-name="rupie"><polygon points="466.12 358.79 462.39 355.04 448.93 355.04 445.21 358.79 448.93 362.54 462.39 362.54 466.12 358.79" style="fill:#fde9f1"/><polygon points="466.12 358.79 466.12 358.79 445.21 358.79 445.21 358.79 448.93 362.54 462.39 362.54 466.12 358.79" style="fill:#ee2a7b"/><polygon points="463.53 358.79 461.63 356.88 449.69 356.88 447.79 358.79 449.69 360.7 461.63 360.7 463.53 358.79" style="fill:#ebb8d5"/><polygon points="453.3 355.58 462.17 355.58 465.36 358.79 462.17 362 453.3 362 453.3 362.54 462.39 362.54 466.12 358.79 462.39 355.04 453.3 355.04 453.3 355.58" style="fill:#a02373"/><rect x="463.15" y="358.52" width="2.58" height="0.54" style="fill:#a02373"/><rect x="461.58" y="360.15" width="0.54" height="2.15" transform="translate(-102.76 203.09) rotate(-22.38)" style="fill:#a02373"/><rect x="460.78" y="355.98" width="2.15" height="0.54" transform="translate(-43.47 647.57) rotate(-67.61)" style="fill:#a02373"/><polygon points="453.3 357.42 461.41 357.42 462.77 358.79 461.41 360.16 453.3 360.16 453.3 360.7 461.63 360.7 463.53 358.79 461.63 356.88 453.3 356.88 453.3 357.42" style="fill:#a02373"/><polygon points="454 355.58 449.16 355.58 445.97 358.79 449.16 362 454 362 454 362.54 448.93 362.54 445.21 358.79 448.93 355.04 454 355.04 454 355.58" style="fill:#a02373"/><rect x="445.59" y="358.52" width="2.58" height="0.54" style="fill:#a02373"/><rect x="448.4" y="360.96" width="2.15" height="0.54" transform="translate(-55.73 639.24) rotate(-67.61)" style="fill:#a02373"/><rect x="449.2" y="355.17" width="0.54" height="2.15" transform="translate(-101.79 198) rotate(-22.38)" style="fill:#a02373"/><polygon points="454 357.42 449.92 357.42 448.55 358.79 449.92 360.16 454 360.16 454 360.7 449.69 360.7 447.79 358.79 449.69 356.88 454 356.88 454 357.42" style="fill:#a02373"/></g>
            <g id="rupie-4" data-name="rupie"><polygon points="440.06 358.79 436.33 355.04 422.88 355.04 419.15 358.79 422.88 362.54 436.33 362.54 440.06 358.79" style="fill:#fde9f1"/><polygon points="440.06 358.79 440.06 358.79 419.15 358.79 419.15 358.79 422.88 362.54 436.33 362.54 440.06 358.79" style="fill:#ee2a7b"/><polygon points="437.48 358.79 435.58 356.88 423.63 356.88 421.73 358.79 423.63 360.7 435.58 360.7 437.48 358.79" style="fill:#ebb8d5"/><polygon points="427.24 355.58 436.11 355.58 439.3 358.79 436.11 362 427.24 362 427.24 362.54 436.33 362.54 440.06 358.79 436.33 355.04 427.24 355.04 427.24 355.58" style="fill:#a02373"/><rect x="437.1" y="358.52" width="2.58" height="0.54" style="fill:#a02373"/><rect x="435.53" y="360.15" width="0.54" height="2.15" transform="translate(-104.72 193.17) rotate(-22.38)" style="fill:#a02373"/><rect x="434.72" y="355.98" width="2.15" height="0.54" transform="translate(-59.6 623.48) rotate(-67.61)" style="fill:#a02373"/><polygon points="427.24 357.42 435.35 357.42 436.72 358.79 435.35 360.16 427.24 360.16 427.24 360.7 435.58 360.7 437.48 358.79 435.58 356.88 427.24 356.88 427.24 357.42" style="fill:#a02373"/><polygon points="427.94 355.58 423.1 355.58 419.91 358.79 423.1 362 427.94 362 427.94 362.54 422.88 362.54 419.15 358.79 422.88 355.04 427.94 355.04 427.94 355.58" style="fill:#a02373"/><rect x="419.53" y="358.52" width="2.58" height="0.54" style="fill:#a02373"/><rect x="422.34" y="360.96" width="2.15" height="0.54" transform="translate(-71.86 615.14) rotate(-67.61)" style="fill:#a02373"/><rect x="423.15" y="355.17" width="0.54" height="2.15" transform="translate(-103.76 188.08) rotate(-22.38)" style="fill:#a02373"/><polygon points="427.94 357.42 423.86 357.42 422.5 358.79 423.86 360.16 427.94 360.16 427.94 360.7 423.63 360.7 421.73 358.79 423.63 356.88 427.94 356.88 427.94 357.42" style="fill:#a02373"/></g>
            <g id="rupie-5" data-name="rupie"><polygon points="413.97 358.79 410.24 355.04 396.79 355.04 393.06 358.79 396.79 362.54 410.24 362.54 413.97 358.79" style="fill:#fde9f1"/><polygon points="413.97 358.79 413.97 358.79 393.06 358.79 393.06 358.79 396.79 362.54 410.24 362.54 413.97 358.79" style="fill:#ee2a7b"/><polygon points="411.39 358.79 409.49 356.88 397.54 356.88 395.64 358.79 397.54 360.7 409.49 360.7 411.39 358.79" style="fill:#ebb8d5"/><polygon points="401.15 355.58 410.02 355.58 413.21 358.79 410.02 362 401.15 362 401.15 362.54 410.24 362.54 413.97 358.79 410.24 355.04 401.15 355.04 401.15 355.58" style="fill:#a02373"/><rect x="411.01" y="358.52" width="2.58" height="0.54" style="fill:#a02373"/><rect x="409.44" y="360.15" width="0.54" height="2.15" transform="translate(-106.69 183.23) rotate(-22.38)" style="fill:#a02373"/><rect x="408.63" y="355.98" width="2.15" height="0.54" transform="translate(-75.75 599.36) rotate(-67.61)" style="fill:#a02373"/><polygon points="401.15 357.42 409.26 357.42 410.63 358.79 409.26 360.16 401.15 360.16 401.15 360.7 409.49 360.7 411.39 358.79 409.49 356.88 401.15 356.88 401.15 357.42" style="fill:#a02373"/><polygon points="401.85 355.58 397.01 355.58 393.82 358.79 397.01 362 401.85 362 401.85 362.54 396.79 362.54 393.06 358.79 396.79 355.04 401.85 355.04 401.85 355.58" style="fill:#a02373"/><rect x="393.44" y="358.52" width="2.58" height="0.54" style="fill:#a02373"/><rect x="396.25" y="360.96" width="2.15" height="0.54" transform="translate(-88.01 591.02) rotate(-67.61)" style="fill:#a02373"/><rect x="397.05" y="355.17" width="0.54" height="2.15" transform="translate(-105.72 178.14) rotate(-22.38)" style="fill:#a02373"/><polygon points="401.85 357.42 397.77 357.42 396.4 358.79 397.77 360.16 401.85 360.16 401.85 360.7 397.54 360.7 395.64 358.79 397.54 356.88 401.85 356.88 401.85 357.42" style="fill:#a02373"/></g>
        </g><rect x="403.52" y="351.25" width="41.44" height="15.32" style="fill:#9fdae3;opacity:0.4"/><rect x="403.54" y="351.25" width="39.23" height="1.68" style="fill:#fff"/><polygon points="444.81 369.89 444.81 348.69 441.21 350.13 441.21 367.89 444.81 369.89" style="fill:#fde9f1;stroke:#a02373;stroke-miterlimit:10"/><polygon points="403.27 348.69 403.27 369.89 406.87 368.45 406.87 350.69 403.27 348.69" style="fill:#e9b7d5;stroke:#a02373;stroke-miterlimit:10"/><rect x="362.12" y="425.19" width="78.6" height="15.32" style="fill:#fff;opacity:0.8"/>
        <g id="bottom-left-rupies" clip-path="url(#bottom-left-tube-mask)">
            <g id="rupie-6" data-name="rupie"><polygon points="452.3 432.73 448.57 428.98 435.11 428.98 431.38 432.73 435.11 436.48 448.57 436.48 452.3 432.73" style="fill:#fde9f1"/><polygon points="452.3 432.73 452.3 432.73 431.38 432.73 431.38 432.73 435.11 436.48 448.57 436.48 452.3 432.73" style="fill:#ee2a7b"/><polygon points="449.71 432.73 447.81 430.82 435.87 430.82 433.97 432.73 435.87 434.64 447.81 434.64 449.71 432.73" style="fill:#ebb8d5"/><polygon points="439.48 429.52 448.35 429.52 451.54 432.73 448.35 435.94 439.48 435.94 439.48 436.48 448.57 436.48 452.3 432.73 448.57 428.98 439.48 428.98 439.48 429.52" style="fill:#a02373"/><rect x="449.33" y="432.46" width="2.58" height="0.54" style="fill:#a02373"/><rect x="447.76" y="434.1" width="0.54" height="2.15" transform="translate(-131.96 203.4) rotate(-22.38)" style="fill:#a02373"/><rect x="446.96" y="429.92" width="2.15" height="0.54" transform="translate(-120.39 680.57) rotate(-67.61)" style="fill:#a02373"/><polygon points="439.48 431.36 447.59 431.36 448.95 432.73 447.59 434.1 439.48 434.1 439.48 434.64 447.81 434.64 449.71 432.73 447.81 430.82 439.48 430.82 439.48 431.36" style="fill:#a02373"/><polygon points="440.17 429.52 435.34 429.52 432.14 432.73 435.34 435.94 440.17 435.94 440.17 436.48 435.11 436.48 431.38 432.73 435.11 428.98 440.17 428.98 440.17 429.52" style="fill:#a02373"/><rect x="431.76" y="432.46" width="2.58" height="0.54" style="fill:#a02373"/><rect x="434.57" y="434.9" width="2.15" height="0.54" transform="translate(-132.65 672.24) rotate(-67.61)" style="fill:#a02373"/><rect x="435.38" y="429.11" width="0.54" height="2.15" transform="translate(-130.99 198.31) rotate(-22.38)" style="fill:#a02373"/><polygon points="440.17 431.36 436.09 431.36 434.73 432.73 436.09 434.1 440.17 434.1 440.17 434.64 435.87 434.64 433.97 432.73 435.87 430.82 440.17 430.82 440.17 431.36" style="fill:#a02373"/></g>
            <g id="rupie-7" data-name="rupie"><polygon points="426.24 432.73 422.51 428.98 409.06 428.98 405.33 432.73 409.06 436.48 422.51 436.48 426.24 432.73" style="fill:#fde9f1"/><polygon points="426.24 432.73 426.24 432.73 405.33 432.73 405.33 432.73 409.06 436.48 422.51 436.48 426.24 432.73" style="fill:#ee2a7b"/><polygon points="423.66 432.73 421.76 430.82 409.81 430.82 407.91 432.73 409.81 434.64 421.76 434.64 423.66 432.73" style="fill:#ebb8d5"/><polygon points="413.42 429.52 422.29 429.52 425.48 432.73 422.29 435.94 413.42 435.94 413.42 436.48 422.51 436.48 426.24 432.73 422.51 428.98 413.42 428.98 413.42 429.52" style="fill:#a02373"/><rect x="423.28" y="432.46" width="2.58" height="0.54" style="fill:#a02373"/><rect x="421.71" y="434.1" width="0.54" height="2.15" transform="translate(-133.92 193.47) rotate(-22.38)" style="fill:#a02373"/><rect x="420.9" y="429.92" width="2.15" height="0.54" transform="translate(-136.52 656.48) rotate(-67.61)" style="fill:#a02373"/><polygon points="413.42 431.36 421.53 431.36 422.9 432.73 421.53 434.1 413.42 434.1 413.42 434.64 421.76 434.64 423.66 432.73 421.76 430.82 413.42 430.82 413.42 431.36" style="fill:#a02373"/><polygon points="414.12 429.52 409.28 429.52 406.09 432.73 409.28 435.94 414.12 435.94 414.12 436.48 409.06 436.48 405.33 432.73 409.06 428.98 414.12 428.98 414.12 429.52" style="fill:#a02373"/><rect x="405.71" y="432.46" width="2.58" height="0.54" style="fill:#a02373"/><rect x="408.52" y="434.9" width="2.15" height="0.54" transform="translate(-148.78 648.14) rotate(-67.61)" style="fill:#a02373"/><rect x="409.32" y="429.11" width="0.54" height="2.15" transform="translate(-132.96 188.38) rotate(-22.38)" style="fill:#a02373"/><polygon points="414.12 431.36 410.04 431.36 408.67 432.73 410.04 434.1 414.12 434.1 414.12 434.64 409.81 434.64 407.91 432.73 409.81 430.82 414.12 430.82 414.12 431.36" style="fill:#a02373"/></g>
            <g id="rupie-8" data-name="rupie"><polygon points="400.15 432.73 396.42 428.98 382.96 428.98 379.24 432.73 382.96 436.48 396.42 436.48 400.15 432.73" style="fill:#fde9f1"/><polygon points="400.15 432.73 400.15 432.73 379.24 432.73 379.24 432.73 382.96 436.48 396.42 436.48 400.15 432.73" style="fill:#ee2a7b"/><polygon points="397.56 432.73 395.67 430.82 383.72 430.82 381.82 432.73 383.72 434.64 395.67 434.64 397.56 432.73" style="fill:#ebb8d5"/><polygon points="387.33 429.52 396.2 429.52 399.39 432.73 396.2 435.94 387.33 435.94 387.33 436.48 396.42 436.48 400.15 432.73 396.42 428.98 387.33 428.98 387.33 429.52" style="fill:#a02373"/><rect x="397.18" y="432.46" width="2.58" height="0.54" style="fill:#a02373"/><rect x="395.62" y="434.1" width="0.54" height="2.15" transform="translate(-135.89 183.54) rotate(-22.38)" style="fill:#a02373"/><rect x="394.81" y="429.92" width="2.15" height="0.54" transform="translate(-152.67 632.35) rotate(-67.61)" style="fill:#a02373"/><polygon points="387.33 431.36 395.44 431.36 396.81 432.73 395.44 434.1 387.33 434.1 387.33 434.64 395.67 434.64 397.56 432.73 395.67 430.82 387.33 430.82 387.33 431.36" style="fill:#a02373"/><polygon points="388.03 429.52 383.19 429.52 380 432.73 383.19 435.94 388.03 435.94 388.03 436.48 382.96 436.48 379.24 432.73 382.96 428.98 388.03 428.98 388.03 429.52" style="fill:#a02373"/><rect x="379.62" y="432.46" width="2.58" height="0.54" style="fill:#a02373"/><rect x="382.43" y="434.9" width="2.15" height="0.54" transform="translate(-164.94 624.02) rotate(-67.61)" style="fill:#a02373"/><rect x="383.23" y="429.11" width="0.54" height="2.15" transform="translate(-134.92 178.45) rotate(-22.38)" style="fill:#a02373"/><polygon points="388.03 431.36 383.94 431.36 382.58 432.73 383.94 434.1 388.03 434.1 388.03 434.64 383.72 434.64 381.82 432.73 383.72 430.82 388.03 430.82 388.03 431.36" style="fill:#a02373"/></g>
            <g id="rupie-9" data-name="rupie"><polygon points="374.26 432.73 370.54 428.98 357.08 428.98 353.35 432.73 357.08 436.48 370.54 436.48 374.26 432.73" style="fill:#fde9f1"/><polygon points="374.26 432.73 374.26 432.73 353.35 432.73 353.35 432.73 357.08 436.48 370.54 436.48 374.26 432.73" style="fill:#ee2a7b"/><polygon points="371.68 432.73 369.78 430.82 357.83 430.82 355.93 432.73 357.83 434.64 369.78 434.64 371.68 432.73" style="fill:#ebb8d5"/><polygon points="361.44 429.52 370.31 429.52 373.5 432.73 370.31 435.94 361.44 435.94 361.44 436.48 370.54 436.48 374.26 432.73 370.54 428.98 361.44 428.98 361.44 429.52" style="fill:#a02373"/><rect x="371.3" y="432.46" width="2.58" height="0.54" style="fill:#a02373"/><rect x="369.73" y="434.1" width="0.54" height="2.15" transform="translate(-137.84 173.68) rotate(-22.38)" style="fill:#a02373"/><rect x="368.92" y="429.92" width="2.15" height="0.54" transform="translate(-168.7 608.42) rotate(-67.61)" style="fill:#a02373"/><polygon points="361.44 431.36 369.55 431.36 370.92 432.73 369.55 434.1 361.44 434.1 361.44 434.64 369.78 434.64 371.68 432.73 369.78 430.82 361.44 430.82 361.44 431.36" style="fill:#a02373"/><polygon points="362.14 429.52 357.3 429.52 354.11 432.73 357.3 435.94 362.14 435.94 362.14 436.48 357.08 436.48 353.35 432.73 357.08 428.98 362.14 428.98 362.14 429.52" style="fill:#a02373"/><rect x="353.73" y="432.46" width="2.58" height="0.54" style="fill:#a02373"/><rect x="356.54" y="434.9" width="2.15" height="0.54" transform="translate(-180.96 600.08) rotate(-67.61)" style="fill:#a02373"/><rect x="357.34" y="429.11" width="0.54" height="2.15" transform="translate(-136.87 168.59) rotate(-22.38)" style="fill:#a02373"/><polygon points="362.14 431.36 358.06 431.36 356.69 432.73 358.06 434.1 362.14 434.1 362.14 434.64 357.83 434.64 355.93 432.73 357.83 430.82 362.14 430.82 362.14 431.36" style="fill:#a02373"/></g>
        </g><rect x="362.12" y="425.19" width="78.81" height="15.32" style="fill:#9fdae3;opacity:0.4"/><polygon points="444.96 443.83 444.96 422.63 441.37 424.07 441.37 441.83 444.96 443.83" style="fill:#fde9f1;stroke:#a02373;stroke-miterlimit:10"/><polygon points="358.04 422.63 358.04 443.83 361.63 442.39 361.63 424.63 358.04 422.63" style="fill:#e9b7d5;stroke:#a02373;stroke-miterlimit:10"/><rect x="362.12" y="425.19" width="78.76" height="1.68" style="fill:#fff"/><rect x="516.84" y="384" width="83.94" height="15.32" clip-path="url(#top-right-tube-mask)" style="fill:#fff;opacity:0.8"/>
        <g id="top-right-rupies" clip-path="url(#top-right-tube-mask)">
            <g id="rupie-10" data-name="rupie"><polygon points="606.65 391.54 602.92 387.79 589.46 387.79 585.73 391.54 589.46 395.29 602.92 395.29 606.65 391.54" style="fill:#fde9f1"/><polygon points="606.65 391.54 606.65 391.54 585.73 391.54 585.73 391.54 589.46 395.29 602.92 395.29 606.65 391.54" style="fill:#ee2a7b"/><polygon points="604.06 391.54 602.16 389.63 590.22 389.63 588.32 391.54 590.22 393.45 602.16 393.45 604.06 391.54" style="fill:#ebb8d5"/><polygon points="593.82 388.33 602.69 388.33 605.89 391.54 602.69 394.75 593.82 394.75 593.82 395.29 602.92 395.29 606.65 391.54 602.92 387.79 593.82 387.79 593.82 388.33" style="fill:#a02373"/><rect x="603.68" y="391.27" width="2.58" height="0.54" style="fill:#a02373"/><rect x="602.11" y="392.91" width="0.54" height="2.15" transform="translate(-104.64 259.07) rotate(-22.38)" style="fill:#a02373"/><rect x="601.3" y="388.73" width="2.15" height="0.54" transform="translate(13.25 797.78) rotate(-67.61)" style="fill:#a02373"/><polygon points="593.82 390.17 601.94 390.17 603.3 391.54 601.94 392.91 593.82 392.91 593.82 393.45 602.16 393.45 604.06 391.54 602.16 389.63 593.82 389.63 593.82 390.17" style="fill:#a02373"/><polygon points="594.52 388.33 589.68 388.33 586.49 391.54 589.68 394.75 594.52 394.75 594.52 395.29 589.46 395.29 585.73 391.54 589.46 387.79 594.52 387.79 594.52 388.33" style="fill:#a02373"/><rect x="586.11" y="391.27" width="2.58" height="0.54" style="fill:#a02373"/><rect x="588.92" y="393.71" width="2.15" height="0.54" transform="translate(1 789.45) rotate(-67.61)" style="fill:#a02373"/><rect x="589.73" y="387.92" width="0.54" height="2.15" transform="translate(-103.68 253.98) rotate(-22.38)" style="fill:#a02373"/><polygon points="594.52 390.17 590.44 390.17 589.08 391.54 590.44 392.91 594.52 392.91 594.52 393.45 590.22 393.45 588.32 391.54 590.22 389.63 594.52 389.63 594.52 390.17" style="fill:#a02373"/></g>
            <g id="rupie-11" data-name="rupie"><polygon points="580.59 391.54 576.86 387.79 563.4 387.79 559.68 391.54 563.4 395.29 576.86 395.29 580.59 391.54" style="fill:#fde9f1"/><polygon points="580.59 391.54 580.59 391.54 559.68 391.54 559.68 391.54 563.4 395.29 576.86 395.29 580.59 391.54" style="fill:#ee2a7b"/><polygon points="578 391.54 576.11 389.63 564.16 389.63 562.26 391.54 564.16 393.45 576.11 393.45 578 391.54" style="fill:#ebb8d5"/><polygon points="567.77 388.33 576.64 388.33 579.83 391.54 576.64 394.75 567.77 394.75 567.77 395.29 576.86 395.29 580.59 391.54 576.86 387.79 567.77 387.79 567.77 388.33" style="fill:#a02373"/><rect x="577.62" y="391.27" width="2.58" height="0.54" style="fill:#a02373"/><rect x="576.05" y="392.91" width="0.54" height="2.15" transform="translate(-106.61 249.15) rotate(-22.38)" style="fill:#a02373"/><rect x="575.25" y="388.73" width="2.15" height="0.54" transform="translate(-2.88 773.69) rotate(-67.61)" style="fill:#a02373"/><polygon points="567.77 390.17 575.88 390.17 577.24 391.54 575.88 392.91 567.77 392.91 567.77 393.45 576.11 393.45 578 391.54 576.11 389.63 567.77 389.63 567.77 390.17" style="fill:#a02373"/><polygon points="568.47 388.33 563.63 388.33 560.44 391.54 563.63 394.75 568.47 394.75 568.47 395.29 563.4 395.29 559.68 391.54 563.4 387.79 568.47 387.79 568.47 388.33" style="fill:#a02373"/><rect x="560.06" y="391.27" width="2.58" height="0.54" style="fill:#a02373"/><rect x="562.87" y="393.71" width="2.15" height="0.54" transform="translate(-15.14 765.36) rotate(-67.61)" style="fill:#a02373"/><rect x="563.67" y="387.92" width="0.54" height="2.15" transform="translate(-105.64 244.06) rotate(-22.38)" style="fill:#a02373"/><polygon points="568.47 390.17 564.38 390.17 563.02 391.54 564.38 392.91 568.47 392.91 568.47 393.45 564.16 393.45 562.26 391.54 564.16 389.63 568.47 389.63 568.47 390.17" style="fill:#a02373"/></g>
            <g id="rupie-12" data-name="rupie"><polygon points="554.5 391.54 550.77 387.79 537.31 387.79 533.59 391.54 537.31 395.29 550.77 395.29 554.5 391.54" style="fill:#fde9f1"/><polygon points="554.5 391.54 554.5 391.54 533.59 391.54 533.59 391.54 537.31 395.29 550.77 395.29 554.5 391.54" style="fill:#ee2a7b"/><polygon points="551.91 391.54 550.01 389.63 538.07 389.63 536.17 391.54 538.07 393.45 550.01 393.45 551.91 391.54" style="fill:#ebb8d5"/><polygon points="541.68 388.33 550.55 388.33 553.74 391.54 550.55 394.75 541.68 394.75 541.68 395.29 550.77 395.29 554.5 391.54 550.77 387.79 541.68 387.79 541.68 388.33" style="fill:#a02373"/><rect x="551.53" y="391.27" width="2.58" height="0.54" style="fill:#a02373"/><rect x="549.96" y="392.91" width="0.54" height="2.15" transform="translate(-108.57 239.21) rotate(-22.38)" style="fill:#a02373"/><rect x="549.16" y="388.73" width="2.15" height="0.54" transform="translate(-19.04 749.56) rotate(-67.61)" style="fill:#a02373"/><polygon points="541.68 390.17 549.79 390.17 551.15 391.54 549.79 392.91 541.68 392.91 541.68 393.45 550.01 393.45 551.91 391.54 550.01 389.63 541.68 389.63 541.68 390.17" style="fill:#a02373"/><polygon points="542.38 388.33 537.54 388.33 534.35 391.54 537.54 394.75 542.38 394.75 542.38 395.29 537.31 395.29 533.59 391.54 537.31 387.79 542.38 387.79 542.38 388.33" style="fill:#a02373"/><rect x="533.97" y="391.27" width="2.58" height="0.54" style="fill:#a02373"/><rect x="536.77" y="393.71" width="2.15" height="0.54" transform="translate(-31.29 741.23) rotate(-67.61)" style="fill:#a02373"/><rect x="537.58" y="387.92" width="0.54" height="2.15" transform="translate(-107.61 234.12) rotate(-22.38)" style="fill:#a02373"/><polygon points="542.38 390.17 538.29 390.17 536.93 391.54 538.29 392.91 542.38 392.91 542.38 393.45 538.07 393.45 536.17 391.54 538.07 389.63 542.38 389.63 542.38 390.17" style="fill:#a02373"/></g>
            <g id="rupie-13" data-name="rupie"><polygon points="528.61 391.54 524.88 387.79 511.43 387.79 507.7 391.54 511.43 395.29 524.88 395.29 528.61 391.54" style="fill:#fde9f1"/><polygon points="528.61 391.54 528.61 391.54 507.7 391.54 507.7 391.54 511.43 395.29 524.88 395.29 528.61 391.54" style="fill:#ee2a7b"/><polygon points="526.03 391.54 524.13 389.63 512.18 389.63 510.28 391.54 512.18 393.45 524.13 393.45 526.03 391.54" style="fill:#ebb8d5"/><polygon points="515.79 388.33 524.66 388.33 527.85 391.54 524.66 394.75 515.79 394.75 515.79 395.29 524.88 395.29 528.61 391.54 524.88 387.79 515.79 387.79 515.79 388.33" style="fill:#a02373"/><rect x="525.65" y="391.27" width="2.58" height="0.54" style="fill:#a02373"/><rect x="524.08" y="392.91" width="0.54" height="2.15" transform="translate(-110.52 229.35) rotate(-22.38)" style="fill:#a02373"/><rect x="523.27" y="388.73" width="2.15" height="0.54" transform="translate(-35.06 725.63) rotate(-67.61)" style="fill:#a02373"/><polygon points="515.79 390.17 523.9 390.17 525.27 391.54 523.9 392.91 515.79 392.91 515.79 393.45 524.13 393.45 526.03 391.54 524.13 389.63 515.79 389.63 515.79 390.17" style="fill:#a02373"/><polygon points="516.49 388.33 511.65 388.33 508.46 391.54 511.65 394.75 516.49 394.75 516.49 395.29 511.43 395.29 507.7 391.54 511.43 387.79 516.49 387.79 516.49 388.33" style="fill:#a02373"/><rect x="508.08" y="391.27" width="2.58" height="0.54" style="fill:#a02373"/><rect x="510.89" y="393.71" width="2.15" height="0.54" transform="translate(-47.32 717.3) rotate(-67.61)" style="fill:#a02373"/><rect x="511.69" y="387.92" width="0.54" height="2.15" transform="translate(-109.56 224.26) rotate(-22.38)" style="fill:#a02373"/><polygon points="516.49 390.17 512.41 390.17 511.04 391.54 512.41 392.91 516.49 392.91 516.49 393.45 512.18 393.45 510.28 391.54 512.18 389.63 516.49 389.63 516.49 390.17" style="fill:#a02373"/></g>
        </g><rect x="517.28" y="384" width="83.5" height="15.32" clip-path="url(#top-right-tube-mask)" style="fill:#9fdae3;opacity:0.4"/><rect x="517.28" y="384" width="82.95" height="1.68" style="fill:#fff" clip-path="url(#top-right-tube-mask)"/><polygon points="604.38 402.64 604.38 381.44 600.79 382.88 600.79 400.64 604.38 402.64" style="fill:#fde9f1;stroke:#a02373;stroke-miterlimit:10"/><rect clip-path="url(#top-right-tube-mask)" x="517.51" y="442.79" width="82.95" height="15.32" style="fill:#fff;opacity:0.8"/><polygon points="513.25 381.44 513.25 402.64 516.84 401.2 516.84 383.44 513.25 381.44" style="fill:#e9b7d5;stroke:#a02373;stroke-miterlimit:10"/>
        <g id="bottom-right-rupies" clip-path="url(#bottom-right-tube-mask)">
            <g id="rupie-14" data-name="rupie"><polygon points="618.96 449.33 615.23 445.58 601.77 445.58 598.05 449.33 601.77 453.08 615.23 453.08 618.96 449.33" style="fill:#fde9f1"/><polygon points="618.96 449.33 618.96 449.33 598.05 449.33 598.05 449.33 601.77 453.08 615.23 453.08 618.96 449.33" style="fill:#ee2a7b"/><polygon points="616.38 449.33 614.48 447.42 602.53 447.42 600.63 449.33 602.53 451.24 614.48 451.24 616.38 449.33" style="fill:#ebb8d5"/><polygon points="606.14 446.12 615.01 446.12 618.2 449.33 615.01 452.54 606.14 452.54 606.14 453.08 615.23 453.08 618.96 449.33 615.23 445.58 606.14 445.58 606.14 446.12" style="fill:#a02373"/><rect x="616" y="449.06" width="2.58" height="0.54" style="fill:#a02373"/><rect x="614.43" y="450.7" width="0.54" height="2.15" transform="translate(-125.72 268.11) rotate(-22.38)" style="fill:#a02373"/><rect x="613.62" y="446.52" width="2.15" height="0.54" transform="translate(-32.57 844.94) rotate(-67.61)" style="fill:#a02373"/><polygon points="606.14 447.96 614.25 447.96 615.62 449.33 614.25 450.7 606.14 450.7 606.14 451.24 614.48 451.24 616.38 449.33 614.48 447.42 606.14 447.42 606.14 447.96" style="fill:#a02373"/><polygon points="606.84 446.12 602 446.12 598.81 449.33 602 452.54 606.84 452.54 606.84 453.08 601.77 453.08 598.05 449.33 601.77 445.58 606.84 445.58 606.84 446.12" style="fill:#a02373"/><rect x="598.43" y="449.06" width="2.58" height="0.54" style="fill:#a02373"/><rect x="601.24" y="451.51" width="2.15" height="0.54" transform="translate(-44.82 836.62) rotate(-67.61)" style="fill:#a02373"/><rect x="602.04" y="445.71" width="0.54" height="2.15" transform="translate(-124.76 263.02) rotate(-22.38)" style="fill:#a02373"/><polygon points="606.84 447.96 602.76 447.96 601.39 449.33 602.76 450.7 606.84 450.7 606.84 451.24 602.53 451.24 600.63 449.33 602.53 447.42 606.84 447.42 606.84 447.96" style="fill:#a02373"/></g>
            <g id="rupie-15" data-name="rupie"><polygon points="592.9 449.33 589.18 445.58 575.72 445.58 571.99 449.33 575.72 453.08 589.18 453.08 592.9 449.33" style="fill:#fde9f1"/><polygon points="592.9 449.33 592.9 449.33 571.99 449.33 571.99 449.33 575.72 453.08 589.18 453.08 592.9 449.33" style="fill:#ee2a7b"/><polygon points="590.32 449.33 588.42 447.42 576.48 447.42 574.58 449.33 576.48 451.24 588.42 451.24 590.32 449.33" style="fill:#ebb8d5"/><polygon points="580.08 446.12 588.95 446.12 592.14 449.33 588.95 452.54 580.08 452.54 580.08 453.08 589.18 453.08 592.9 449.33 589.18 445.58 580.08 445.58 580.08 446.12" style="fill:#a02373"/><rect x="589.94" y="449.06" width="2.58" height="0.54" style="fill:#a02373"/><rect x="588.37" y="450.7" width="0.54" height="2.15" transform="translate(-127.69 258.19) rotate(-22.38)" style="fill:#a02373"/><rect x="587.56" y="446.52" width="2.15" height="0.54" transform="matrix(0.38, -0.92, 0.92, 0.38, -48.7, 820.85)" style="fill:#a02373"/><polygon points="580.08 447.96 588.2 447.96 589.56 449.33 588.2 450.7 580.08 450.7 580.08 451.24 588.42 451.24 590.32 449.33 588.42 447.42 580.08 447.42 580.08 447.96" style="fill:#a02373"/><polygon points="580.78 446.12 575.94 446.12 572.75 449.33 575.94 452.54 580.78 452.54 580.78 453.08 575.72 453.08 571.99 449.33 575.72 445.58 580.78 445.58 580.78 446.12" style="fill:#a02373"/><rect x="572.37" y="449.06" width="2.58" height="0.54" style="fill:#a02373"/><rect x="575.18" y="451.51" width="2.15" height="0.54" transform="translate(-60.95 812.52) rotate(-67.61)" style="fill:#a02373"/><rect x="575.99" y="445.71" width="0.54" height="2.15" transform="translate(-126.72 253.1) rotate(-22.38)" style="fill:#a02373"/><polygon points="580.78 447.96 576.7 447.96 575.34 449.33 576.7 450.7 580.78 450.7 580.78 451.24 576.48 451.24 574.58 449.33 576.48 447.42 580.78 447.42 580.78 447.96" style="fill:#a02373"/></g>
            <g id="rupie-16" data-name="rupie"><polygon points="566.81 449.33 563.09 445.58 549.63 445.58 545.9 449.33 549.63 453.08 563.09 453.08 566.81 449.33" style="fill:#fde9f1"/><polygon points="566.81 449.33 566.81 449.33 545.9 449.33 545.9 449.33 549.63 453.08 563.09 453.08 566.81 449.33" style="fill:#ee2a7b"/><polygon points="564.23 449.33 562.33 447.42 550.38 447.42 548.49 449.33 550.38 451.24 562.33 451.24 564.23 449.33" style="fill:#ebb8d5"/><polygon points="553.99 446.12 562.86 446.12 566.05 449.33 562.86 452.54 553.99 452.54 553.99 453.08 563.09 453.08 566.81 449.33 563.09 445.58 553.99 445.58 553.99 446.12" style="fill:#a02373"/><rect x="563.85" y="449.06" width="2.58" height="0.54" style="fill:#a02373"/><rect x="562.28" y="450.7" width="0.54" height="2.15" transform="translate(-129.65 248.26) rotate(-22.38)" style="fill:#a02373"/><rect x="561.47" y="446.52" width="2.15" height="0.54" transform="translate(-64.85 796.73) rotate(-67.61)" style="fill:#a02373"/><polygon points="553.99 447.96 562.1 447.96 563.47 449.33 562.1 450.7 553.99 450.7 553.99 451.24 562.33 451.24 564.23 449.33 562.33 447.42 553.99 447.42 553.99 447.96" style="fill:#a02373"/><polygon points="554.69 446.12 549.85 446.12 546.66 449.33 549.85 452.54 554.69 452.54 554.69 453.08 549.63 453.08 545.9 449.33 549.63 445.58 554.69 445.58 554.69 446.12" style="fill:#a02373"/><rect x="546.28" y="449.06" width="2.58" height="0.54" style="fill:#a02373"/><rect x="549.09" y="451.51" width="2.15" height="0.54" transform="translate(-77.1 788.4) rotate(-67.61)" style="fill:#a02373"/><rect x="549.9" y="445.71" width="0.54" height="2.15" transform="translate(-128.69 243.16) rotate(-22.38)" style="fill:#a02373"/><polygon points="554.69 447.96 550.61 447.96 549.25 449.33 550.61 450.7 554.69 450.7 554.69 451.24 550.38 451.24 548.49 449.33 550.38 447.42 554.69 447.42 554.69 447.96" style="fill:#a02373"/></g>
            <g id="rupie-17" data-name="rupie"><polygon points="540.92 449.33 537.2 445.58 523.74 445.58 520.01 449.33 523.74 453.08 537.2 453.08 540.92 449.33" style="fill:#fde9f1"/><polygon points="540.92 449.33 540.92 449.33 520.01 449.33 520.01 449.33 523.74 453.08 537.2 453.08 540.92 449.33" style="fill:#ee2a7b"/><polygon points="538.34 449.33 536.44 447.42 524.5 447.42 522.6 449.33 524.5 451.24 536.44 451.24 538.34 449.33" style="fill:#ebb8d5"/><polygon points="528.1 446.12 536.97 446.12 540.16 449.33 536.97 452.54 528.1 452.54 528.1 453.08 537.2 453.08 540.92 449.33 537.2 445.58 528.1 445.58 528.1 446.12" style="fill:#a02373"/><rect x="537.96" y="449.06" width="2.58" height="0.54" style="fill:#a02373"/><rect x="536.39" y="450.7" width="0.54" height="2.15" transform="translate(-131.6 238.4) rotate(-22.38)" style="fill:#a02373"/><rect x="535.58" y="446.52" width="2.15" height="0.54" transform="translate(-80.87 772.79) rotate(-67.61)" style="fill:#a02373"/><polygon points="528.1 447.96 536.22 447.96 537.58 449.33 536.22 450.7 528.1 450.7 528.1 451.24 536.44 451.24 538.34 449.33 536.44 447.42 528.1 447.42 528.1 447.96" style="fill:#a02373"/><polygon points="528.8 446.12 523.96 446.12 520.77 449.33 523.96 452.54 528.8 452.54 528.8 453.08 523.74 453.08 520.01 449.33 523.74 445.58 528.8 445.58 528.8 446.12" style="fill:#a02373"/><rect x="520.39" y="449.06" width="2.58" height="0.54" style="fill:#a02373"/><rect x="523.2" y="451.51" width="2.15" height="0.54" transform="translate(-93.13 764.46) rotate(-67.61)" style="fill:#a02373"/><rect x="524.01" y="445.71" width="0.54" height="2.15" transform="translate(-130.64 233.31) rotate(-22.38)" style="fill:#a02373"/><polygon points="528.8 447.96 524.72 447.96 523.36 449.33 524.72 450.7 528.8 450.7 528.8 451.24 524.5 451.24 522.6 449.33 524.5 447.42 528.8 447.42 528.8 447.96" style="fill:#a02373"/></g>
        </g><rect x="517.51" y="441.79" width="82.95" height="15.32" style="fill:#9fdae3;opacity:0.4"/><polygon points="604.55 460.43 604.55 439.24 600.95 440.67 600.95 458.43 604.55 460.43" style="fill:#fde9f1;stroke:#a02373;stroke-miterlimit:10"/><polygon points="513.41 439.24 513.41 460.43 517.01 459 517.01 441.23 513.41 439.24" style="fill:#e9b7d5;stroke:#a02373;stroke-miterlimit:10"/><rect x="517.51" y="441.79" width="82.88" height="1.68" style="fill:#fff"/><polyline points="565.6 229.79 557.28 233.72 557.28 253.69 565.6 258.49" style="fill:#ebb8d5;stroke:#a02373;stroke-miterlimit:10"/><line x1="696.79" y1="295.07" x2="680.76" y2="295.07" style="fill:#ee2a7b;stroke:#a02373;stroke-miterlimit:10"/><polyline points="680.76 295.07 727.32 295.07 727.32 192.69 565.6 192.69 565.6 295.07 583.82 295.07" style="fill:#544b9f"/><polygon points="574.23 202.94 575.86 201.32 577.49 202.94 577.49 208.79 575.86 210.41 574.23 208.79 574.23 202.94" style="fill:#fff;stroke:#491246;stroke-miterlimit:10"/><polygon points="579.32 202.94 580.95 201.32 582.57 202.94 582.57 208.79 580.95 210.41 579.32 208.79 579.32 202.94" style="fill:#fff;stroke:#491246;stroke-miterlimit:10"/><polygon points="584.4 202.94 586.03 201.32 587.66 202.94 587.66 208.79 586.03 210.41 584.4 208.79 584.4 202.94" style="fill:#fff;stroke:#491246;stroke-miterlimit:10"/><polygon points="589.49 202.94 591.12 201.32 592.75 202.94 592.75 208.79 591.12 210.41 589.49 208.79 589.49 202.94" style="fill:#fff;stroke:#491246;stroke-miterlimit:10"/><polygon points="594.58 202.94 596.21 201.32 597.84 202.94 597.84 208.79 596.21 210.41 594.58 208.79 594.58 202.94" style="fill:#ee2c7b;stroke:#491246;stroke-miterlimit:10"/><polygon points="599.67 202.94 601.3 201.32 602.93 202.94 602.93 208.79 601.3 210.41 599.67 208.79 599.67 202.94" style="fill:#ee2c7b;stroke:#491246;stroke-miterlimit:10"/><polygon points="604.76 202.94 606.39 201.32 608.02 202.94 608.02 208.79 606.39 210.41 604.76 208.79 604.76 202.94" style="fill:#ee2c7b;stroke:#491246;stroke-miterlimit:10"/>
        <g id="meteors" clip-path="url(#game-board-mask)"><polygon id="illustration__game-meteor-md-3" points="648.59 209.65 642.88 209.65 640.02 214.6 642.88 219.54 648.59 219.54 651.44 214.6 648.59 209.65" style="fill:#9589c2;stroke:#491246;stroke-miterlimit:10"/><polygon id="illustration__game-meteor-sm-1" points="647.09 233.71 643.73 233.71 642.04 236.62 643.73 239.53 647.09 239.53 648.77 236.62 647.09 233.71" style="fill:#9589c2;stroke:#491246;stroke-miterlimit:10"/><polygon id="illustration__game-meteor-l-2" points="596.11 226.93 587.11 222.37 578.66 227.89 579.22 237.96 588.22 242.52 596.66 237 596.11 226.93" style="fill:#9589c2;stroke:#491246;stroke-miterlimit:10"/><polygon id="illustration__game-meteor-md-1" points="712.4 251.82 706.69 251.82 703.84 256.76 706.69 261.71 712.4 261.71 715.26 256.76 712.4 251.82" style="fill:#9589c2;stroke:#491246;stroke-miterlimit:10"/><polygon id="illustration__game-meteor-xl-2" points="597.69 278.69 595.93 264.17 582.48 258.43 570.78 267.22 572.54 281.74 586 287.47 597.69 278.69" style="fill:#9589c2;stroke:#491246;stroke-miterlimit:10"/><polygon id="illustration__game-meteor-xl-1" points="700.48 300.8 698.73 286.28 685.27 280.55 673.58 289.33 675.33 303.85 688.79 309.59 700.48 300.8" style="fill:#9589c2;stroke:#491246;stroke-miterlimit:10"/><polygon id="illustration__game-meteor-l-1" points="706.96 208.34 697.96 203.79 689.52 209.3 690.07 219.37 699.07 223.93 707.52 218.41 706.96 208.34" style="fill:#9589c2;stroke:#491246;stroke-miterlimit:10"/><polygon id="illustration__game-meteor-md-2" points="692.71 238.23 689.4 233.57 683.72 234.11 681.35 239.31 684.66 243.96 690.34 243.42 692.71 238.23" style="fill:#9589c2;stroke:#491246;stroke-miterlimit:10"/></g><polygon points="561.33 255.94 561.33 232.11 557.28 233.72 557.28 253.69 561.33 255.94" style="fill:#fde9f1;stroke:#a02373;stroke-miterlimit:10"/><rect x="517.57" y="235.46" width="38.67" height="1.68" style="fill:#fff"/><path d="M806.83,208.09a5.16,5.16,0,0,0-2.62.7,2.45,2.45,0,0,0,1.21,4.59h2.83a2.45,2.45,0,0,0,1.37-4.49A5.2,5.2,0,0,0,806.83,208.09Z" style="fill:#fff"/><path d="M727.32,192.69V295.07H565.6V192.69H727.32m1-1H564.6V296.07H728.32V191.69Z" style="fill:#491245"/><polygon points="665.08 193.15 566.01 275.1 566.01 250.86 635.71 193.12 665.08 193.15" style="fill:#fff;opacity:0.06"/><polygon points="686.04 193.13 566.01 291.76 566.01 285.27 678.26 193.1 686.04 193.13" style="fill:#fff;opacity:0.06"/>
</svg>
