<svg xmlns="http://www.w3.org/2000/svg" xmlns:xlink="http://www.w3.org/1999/xlink" width="682" height="890.85" viewBox="0 0 682 890.85" class="section__illustration__robot"><defs><linearGradient id="Fading_Sky" x1="16.63" y1="797.85" x2="663.08" y2="797.85" gradientUnits="userSpaceOnUse"><stop offset="0" stop-color="#2484c6"/><stop offset="1" stop-color="#2484c6" stop-opacity="0"/></linearGradient><linearGradient id="Fading_Sky-2" x1="37.7" y1="706.34" x2="642.64" y2="706.34" xlink:href="#Fading_Sky"/><linearGradient id="linear-gradient" x1="159.88" y1="871.26" x2="516.07" y2="572.38" gradientUnits="userSpaceOnUse"><stop offset="0" stop-color="#007a48"/><stop offset="0.6" stop-color="#cbdb2a" stop-opacity="0"/></linearGradient></defs><title>Artboard 49</title><g style="isolation:isolate"><g id="ILLO_7" data-name="ILLO 7"><path d="M16.26,725.65s36.22,144.4,329.19,144.4c270.69,0,317.26-144.4,317.26-144.4Z" style="fill:#dff2f4"/><g style="mix-blend-mode:hard-light"><path d="M16.63,725.65s38.58,144.4,329.18,144.4c270.69,0,317.27-144.4,317.27-144.4Z" style="fill:url(#Fading_Sky)"/></g><polygon points="489.89 399.76 460.23 399.76 453.15 325.18 495.95 325.18 489.89 399.76" style="fill:#da1c5c;stroke:#7c3990;stroke-miterlimit:10"/><polygon points="485.85 458.96 465.29 458.96 458.21 404.28 491.91 404.28 485.85 458.96" style="fill:#da1c5c;stroke:#7c3990;stroke-miterlimit:10"/><rect x="356.5" y="277.76" width="47.5" height="23.11" style="fill:#e6cbe2;stroke:#7d3990;stroke-miterlimit:10"/><line x1="356.5" y1="282.98" x2="403.99" y2="280.96" style="fill:#e6cbe2;stroke:#7d3990;stroke-miterlimit:10"/><line x1="356.5" y1="286.7" x2="403.99" y2="284.67" style="fill:#e6cbe2;stroke:#7d3990;stroke-miterlimit:10"/><line x1="356.5" y1="290.41" x2="403.99" y2="288.39" style="fill:#e6cbe2;stroke:#7d3990;stroke-miterlimit:10"/><rect x="298.11" y="309.81" width="30" height="13.38" transform="translate(-3.38 629.61) rotate(-90)" style="fill:#e6cbe2;stroke:#7d3990;stroke-miterlimit:10"/><line x1="309.32" y1="331.49" x2="308.66" y2="301.49" style="fill:#e6cbe2;stroke:#7d3990;stroke-miterlimit:10"/><line x1="312.64" y1="331.49" x2="311.99" y2="301.49" style="fill:#e6cbe2;stroke:#7d3990;stroke-miterlimit:10"/><line x1="315.97" y1="331.49" x2="315.31" y2="301.49" style="fill:#e6cbe2;stroke:#7d3990;stroke-miterlimit:10"/><rect x="432.38" y="309.81" width="30" height="13.38" transform="translate(763.87 -130.88) rotate(90)" style="fill:#e6cbe2;stroke:#7d3990;stroke-miterlimit:10"/><line x1="451.17" y1="301.49" x2="451.82" y2="331.49" style="fill:#e6cbe2;stroke:#7d3990;stroke-miterlimit:10"/><line x1="447.85" y1="301.49" x2="448.5" y2="331.49" style="fill:#e6cbe2;stroke:#7d3990;stroke-miterlimit:10"/><line x1="444.52" y1="301.49" x2="445.18" y2="331.49" style="fill:#e6cbe2;stroke:#7d3990;stroke-miterlimit:10"/><rect x="323.17" y="556.79" width="30" height="13.38" transform="translate(676.35 1126.96) rotate(180)" style="fill:#e6cbe2;stroke:#7d3990;stroke-miterlimit:10"/><line x1="353.17" y1="567.28" x2="323.17" y2="567.93" style="fill:#e6cbe2;stroke:#7d3990;stroke-miterlimit:10"/><line x1="353.17" y1="563.95" x2="323.17" y2="564.61" style="fill:#e6cbe2;stroke:#7d3990;stroke-miterlimit:10"/><line x1="353.17" y1="560.63" x2="323.17" y2="561.28" style="fill:#e6cbe2;stroke:#7d3990;stroke-miterlimit:10"/><rect x="334.34" y="454.29" width="21.75" height="27.08" transform="translate(258.51 1042.74) rotate(-135)" style="fill:#e6cbe2;stroke:#7d3990;stroke-miterlimit:10"/><line x1="346.09" y1="482.33" x2="330.25" y2="467.42" style="fill:#e6cbe2;stroke:#7d3990;stroke-miterlimit:10"/><line x1="348.82" y1="479.6" x2="332.98" y2="464.69" style="fill:#e6cbe2;stroke:#7d3990;stroke-miterlimit:10"/><line x1="351.55" y1="476.88" x2="335.71" y2="461.96" style="fill:#e6cbe2;stroke:#7d3990;stroke-miterlimit:10"/><line x1="354.28" y1="474.15" x2="338.44" y2="459.23" style="fill:#e6cbe2;stroke:#7d3990;stroke-miterlimit:10"/><line x1="357.01" y1="471.42" x2="341.17" y2="456.5" style="fill:#e6cbe2;stroke:#7d3990;stroke-miterlimit:10"/><line x1="359.74" y1="468.69" x2="343.9" y2="453.77" style="fill:#e6cbe2;stroke:#7d3990;stroke-miterlimit:10"/><rect x="405.04" y="454.29" width="21.75" height="27.08" transform="translate(-208.99 431.12) rotate(-45)" style="fill:#e6cbe2;stroke:#7d3990;stroke-miterlimit:10"/><line x1="415.03" y1="482.33" x2="430.87" y2="467.42" style="fill:#e6cbe2;stroke:#7d3990;stroke-miterlimit:10"/><line x1="412.3" y1="479.6" x2="428.15" y2="464.69" style="fill:#e6cbe2;stroke:#7d3990;stroke-miterlimit:10"/><line x1="409.57" y1="476.88" x2="425.42" y2="461.96" style="fill:#e6cbe2;stroke:#7d3990;stroke-miterlimit:10"/><line x1="406.85" y1="474.15" x2="422.69" y2="459.23" style="fill:#e6cbe2;stroke:#7d3990;stroke-miterlimit:10"/><line x1="404.12" y1="471.42" x2="419.96" y2="456.5" style="fill:#e6cbe2;stroke:#7d3990;stroke-miterlimit:10"/><line x1="401.39" y1="468.69" x2="417.23" y2="453.77" style="fill:#e6cbe2;stroke:#7d3990;stroke-miterlimit:10"/><rect x="139.67" y="301.81" width="11.83" height="373.88" style="fill:#e6cbe2;stroke:#7d3990;stroke-miterlimit:10"/><line x1="151.49" y1="511.29" x2="247.61" y2="578.73" style="fill:none;stroke:#7c3990;stroke-miterlimit:10"/><line x1="247.61" y1="511.29" x2="151.49" y2="578.73" style="fill:none;stroke:#7c3990;stroke-miterlimit:10"/><rect x="247.61" y="301.81" width="13.26" height="373.88" style="fill:#e6cbe2;stroke:#7d3990;stroke-miterlimit:10"/><line x1="151.49" y1="511.65" x2="247.61" y2="511.65" style="fill:none;stroke:#7d3990;stroke-miterlimit:10"/><line x1="151.49" y1="577.99" x2="247.61" y2="645.43" style="fill:none;stroke:#7c3990;stroke-miterlimit:10"/><line x1="247.61" y1="577.99" x2="151.49" y2="645.43" style="fill:none;stroke:#7c3990;stroke-miterlimit:10"/><line x1="151.49" y1="578.35" x2="247.61" y2="578.35" style="fill:none;stroke:#7d3990;stroke-miterlimit:10"/><line x1="151.49" y1="377.15" x2="247.61" y2="444.59" style="fill:none;stroke:#7c3990;stroke-miterlimit:10"/><line x1="247.61" y1="377.15" x2="151.49" y2="444.59" style="fill:none;stroke:#7c3990;stroke-miterlimit:10"/><line x1="151.49" y1="377.52" x2="247.61" y2="377.52" style="fill:none;stroke:#7d3990;stroke-miterlimit:10"/><line x1="151.49" y1="309.71" x2="247.61" y2="377.15" style="fill:none;stroke:#7c3990;stroke-miterlimit:10"/><line x1="247.61" y1="309.71" x2="151.49" y2="377.15" style="fill:none;stroke:#7c3990;stroke-miterlimit:10"/><line x1="151.49" y1="310.08" x2="247.61" y2="310.08" style="fill:none;stroke:#7d3990;stroke-miterlimit:10"/><line x1="151.49" y1="443.85" x2="247.61" y2="511.29" style="fill:none;stroke:#7c3990;stroke-miterlimit:10"/><line x1="247.61" y1="443.85" x2="151.49" y2="511.29" style="fill:none;stroke:#7c3990;stroke-miterlimit:10"/><line x1="151.49" y1="444.21" x2="247.61" y2="444.21" style="fill:none;stroke:#7d3990;stroke-miterlimit:10"/><line x1="151.49" y1="645.05" x2="247.61" y2="645.05" style="fill:none;stroke:#7d3990;stroke-miterlimit:10"/><rect x="128.52" y="285.01" width="143.08" height="17.36" style="fill:#ee2a7b;stroke:#7d3990;stroke-miterlimit:10"/><path d="M326.93,293.69H433.56a8.55,8.55,0,0,1,8.55,8.55v98.52a0,0,0,0,1,0,0H318.38a0,0,0,0,1,0,0V302.24A8.55,8.55,0,0,1,326.93,293.69Z" style="fill:#c51164;stroke:#7c3990;stroke-miterlimit:10"/><path d="M326.93,293.69h53.32a0,0,0,0,1,0,0V400.75a0,0,0,0,1,0,0H318.38a0,0,0,0,1,0,0V302.24A8.55,8.55,0,0,1,326.93,293.69Z" style="fill:#da1c5c;stroke:#7c3990;stroke-miterlimit:10"/><polygon points="357.24 472.69 403.25 472.69 422.05 455.63 422.05 426.06 338.44 426.06 338.44 455.63 357.24 472.69" style="fill:#f26d79;stroke:#96388f;stroke-miterlimit:10"/><line x1="422.05" y1="442.58" x2="338.44" y2="442.58" style="fill:#f26d79;stroke:#96388f;stroke-miterlimit:10"/><polygon points="441.33 412.21 319.16 412.21 330.3 428.09 430.19 428.09 441.33 412.21" style="fill:#ee2a7b;stroke:#7d3990;stroke-miterlimit:10"/><path d="M283.62,674.63a28.47,28.47,0,0,1,3.93-14A30.94,30.94,0,0,1,314.05,645h42.29l.5,29.59Z" style="fill:#ee2a7b"/><path d="M355.85,645.54l.48,28.59h-72.2a28,28,0,0,1,3.85-13.3,30.44,30.44,0,0,1,26.07-15.29h41.8m1-1H314.05a31.25,31.25,0,0,0-26.93,15.79,28.93,28.93,0,0,0-4,14.8h74.24l-.52-30.59Z" style="fill:#7d3990"/><polyline points="128.41 295.75 126.35 293.69 128.41 291.62" style="fill:#7d3990;stroke:#7d3990;stroke-miterlimit:10"/><rect x="137.08" y="292.23" width="2.92" height="2.92" transform="translate(-167.09 183.98) rotate(-45)" style="fill:#7d3990;stroke:#7d3990;stroke-miterlimit:10"/><rect x="154.28" y="292.23" width="2.92" height="2.92" transform="translate(-162.05 196.14) rotate(-45)" style="fill:#7d3990;stroke:#7d3990;stroke-miterlimit:10"/><rect x="173.11" y="292.23" width="2.92" height="2.92" transform="translate(-156.54 209.46) rotate(-45)" style="fill:#7d3990;stroke:#7d3990;stroke-miterlimit:10"/><rect x="190.31" y="292.23" width="2.92" height="2.92" transform="translate(-151.5 221.62) rotate(-45)" style="fill:#7d3990;stroke:#7d3990;stroke-miterlimit:10"/><rect x="207.51" y="292.23" width="2.92" height="2.92" transform="translate(-146.46 233.78) rotate(-45)" style="fill:#7d3990;stroke:#7d3990;stroke-miterlimit:10"/><rect x="224.71" y="292.23" width="2.92" height="2.92" transform="translate(-141.43 245.94) rotate(-45)" style="fill:#7d3990;stroke:#7d3990;stroke-miterlimit:10"/><rect x="241.91" y="292.23" width="2.92" height="2.92" transform="translate(-136.39 258.11) rotate(-45)" style="fill:#7d3990;stroke:#7d3990;stroke-miterlimit:10"/><rect x="259.11" y="292.23" width="2.92" height="2.92" transform="translate(-131.35 270.27) rotate(-45)" style="fill:#7d3990;stroke:#7d3990;stroke-miterlimit:10"/><polyline points="271.7 291.62 273.76 293.69 271.7 295.75" style="fill:#7d3990;stroke:#7d3990;stroke-miterlimit:10"/><line x1="374.91" y1="144.63" x2="374.91" y2="181.93" style="fill:#fff;stroke:#7c3990;stroke-miterlimit:10"/><line x1="386.29" y1="144.63" x2="386.29" y2="181.93" style="fill:#fff;stroke:#7c3990;stroke-miterlimit:10"/><polygon points="380.6 202.35 391.49 191.52 391.49 180.28 369.71 180.28 369.71 191.52 380.6 202.35" style="fill:#b87bb5;stroke:#7c3990;stroke-miterlimit:10"/><polyline points="380.6 180.28 369.71 180.28 369.71 191.52 380.6 202.35" style="fill:#e6cae2;stroke:#7c3990;stroke-miterlimit:10"/><polygon points="395.02 115.02 175.64 115.02 160.91 129.83 175.64 144.63 395.02 144.63 409.75 129.83 395.02 115.02" style="fill:#bd92c2;stroke:#7d3990;stroke-miterlimit:10"/><polygon points="395.17 115.02 409.89 129.83 395.17 144.63 391.5 136.01 397.65 129.83 391.5 123.64 395.17 115.02" style="fill:#975f99;stroke:#7e3a8f;stroke-linejoin:bevel"/><polygon points="175.64 115.02 160.91 129.83 175.64 144.63 179.3 136.01 173.16 129.83 179.3 123.64 175.64 115.02" style="fill:#f5ebf4;stroke:#7e3a8f;stroke-linejoin:bevel"/><line x1="179.3" y1="136.01" x2="175.64" y2="144.63" style="fill:none;stroke:#7d3990;stroke-miterlimit:10"/><line x1="160.91" y1="129.83" x2="173.16" y2="129.83" style="fill:none;stroke:#7d3990;stroke-miterlimit:10"/><line x1="179.3" y1="123.65" x2="175.64" y2="115.02" style="fill:none;stroke:#7d3990;stroke-miterlimit:10"/><line x1="391.36" y1="136.01" x2="395.02" y2="144.63" style="fill:none;stroke:#7d3990;stroke-miterlimit:10"/><line x1="397.5" y1="129.83" x2="409.75" y2="129.83" style="fill:none;stroke:#7d3990;stroke-miterlimit:10"/><line x1="391.36" y1="123.65" x2="395.02" y2="115.02" style="fill:none;stroke:#7d3990;stroke-miterlimit:10"/><polygon points="391.36 123.64 311.57 123.64 308.57 123.64 179.3 123.64 173.16 129.83 179.3 136.01 308.57 136.01 311.57 136.01 391.36 136.01 397.5 129.83 391.36 123.64" style="fill:#e6cbe2;stroke:#7d3990;stroke-miterlimit:10"/><rect x="196.82" y="142.26" width="4.9" height="142.75" style="fill:#fff;stroke:#7c3990;stroke-miterlimit:10"/><line x1="201.72" y1="229.06" x2="247.99" y2="257" style="fill:none;stroke:#7c3990;stroke-miterlimit:10"/><line x1="247.99" y1="229.06" x2="201.72" y2="257" style="fill:none;stroke:#7c3990;stroke-miterlimit:10"/><rect x="247.99" y="142.26" width="5.49" height="142.38" style="fill:#fff;stroke:#7c3990;stroke-miterlimit:10"/><line x1="201.72" y1="229.21" x2="247.99" y2="229.21" style="fill:none;stroke:#7d3990;stroke-miterlimit:10"/><line x1="201.72" y1="256.7" x2="247.99" y2="284.64" style="fill:none;stroke:#7c3990;stroke-miterlimit:10"/><line x1="247.99" y1="256.7" x2="201.72" y2="284.64" style="fill:none;stroke:#7c3990;stroke-miterlimit:10"/><line x1="201.72" y1="256.85" x2="247.99" y2="256.85" style="fill:none;stroke:#7d3990;stroke-miterlimit:10"/><line x1="201.72" y1="173.48" x2="247.99" y2="201.42" style="fill:none;stroke:#7c3990;stroke-miterlimit:10"/><line x1="247.99" y1="173.48" x2="201.72" y2="201.42" style="fill:none;stroke:#7c3990;stroke-miterlimit:10"/><line x1="201.72" y1="173.63" x2="247.99" y2="173.63" style="fill:none;stroke:#7d3990;stroke-miterlimit:10"/><line x1="201.72" y1="145.54" x2="247.99" y2="173.48" style="fill:none;stroke:#7c3990;stroke-miterlimit:10"/><line x1="247.99" y1="145.54" x2="201.72" y2="173.48" style="fill:none;stroke:#7c3990;stroke-miterlimit:10"/><line x1="201.72" y1="145.69" x2="247.99" y2="145.69" style="fill:none;stroke:#7d3990;stroke-miterlimit:10"/><line x1="201.72" y1="201.12" x2="247.99" y2="229.06" style="fill:none;stroke:#7c3990;stroke-miterlimit:10"/><line x1="247.99" y1="201.12" x2="201.72" y2="229.06" style="fill:none;stroke:#7c3990;stroke-miterlimit:10"/><line x1="201.72" y1="201.27" x2="247.99" y2="201.27" style="fill:none;stroke:#7d3990;stroke-miterlimit:10"/><polygon points="231.46 88.86 196.82 88.86 196.82 145.53 253.49 145.53 253.49 118.86 231.46 88.86" style="fill:#da1c5c;stroke:#7c3990;stroke-miterlimit:10"/><polygon points="243.09 118.16 204.47 118.16 204.47 95.91 227.41 95.91 243.09 118.16" style="fill:#d1ecf2;stroke:#7c3990;stroke-miterlimit:10"/><line x1="206.12" y1="125.69" x2="216.17" y2="125.69" style="fill:#e6cbe2;stroke:#7d3990;stroke-miterlimit:10"/><path d="M373.73,216.58a6.9,6.9,0,1,0,6.82-7.85h0v-6.38" style="fill:none;stroke:#7c3990;stroke-miterlimit:10"/><g id="arm-boat"><polygon points="323.34 777.25 324.14 747.6 398.89 742.55 397.73 785.33 323.34 777.25" style="fill:#da1c5c;stroke:#7c3990;stroke-miterlimit:10"/><polygon points="264.27 771.6 264.83 751.05 319.68 745.46 318.77 779.14 264.27 771.6" style="fill:#da1c5c;stroke:#7c3990;stroke-miterlimit:10"/><path d="M256.32,768.87l-11.7,12-6.56.18-4.77-4.5-.18-6.56-6.82-2.6.34,12.14,8.83,8.34,12.14-.34,15.54-16.09Z" style="fill:#c093c3"/><path d="M263.76,772.06l-15.54,16.08-.59.27-12.14.35-.62-.24-8.82-8.33-.27-.6-.35-12.14,1.16-.83,6.82,2.6.55.78.18,6.2,4.25,4,5.85-.17,11.46-11.77.92-.21,6.82,2.6Zm-16.54,14.65,14.41-14.89-5.08-1.94-11.31,11.6-.6.27-6.55.19-.62-.23-4.77-4.51-.26-.6-.17-6-5.09-1.94.3,10.5,8.31,7.85Z" style="fill:#7c3990"/><path d="M263.72,750.11,249.07,733.2l-12.1-1-9.26,7.85-1,12.1,7-2.23.54-6.53,5-4.24,6.54.54,11,12.64Z" style="fill:#c093c3"/><path d="M264,750.92l-7,2.23-.92-.27-10.8-12.36-5.83-.49L235,743.81l-.51,6.19-.6.74L227,753l-1.11-.89,1-12.1.3-.59,9.27-7.84.62-.2,12.11,1,.58.3,14.64,16.9Zm-26.72-17.84-8.73,7.39-.87,10.47,5.18-1.66.5-6,.3-.59,5-4.24.63-.2,6.54.55.58.3,10.66,12.2,5.18-1.66L248.65,734Z" style="fill:#7c3990"/><polygon points="245.92 753.3 245.53 767.29 255.15 777.46 269.14 777.86 279.31 768.24 279.71 754.24 270.09 744.07 256.1 743.68 245.92 753.3" style="fill:#e6cae2"/><path d="M280.59,753.91l-.42,14.71-10.69,10.11-14.71-.41-10.12-10.69.42-14.72,10.69-10.11,14.71.41Zm-2.13,13.94.37-13.27-9.12-9.65-13.28-.37-9.65,9.12L246.41,767l9.12,9.65,13.28.37Z" style="fill:#7c3990"/><polygon points="245.53 767.29 245.92 753.3 256.1 743.68 270.09 744.07 279.71 754.24 279.31 768.24 272.94 765.39 252.06 764.8 245.53 767.29" style="fill:#b87bb5"/><polygon points="252.3 756.15 252.06 764.8 258 771.09 266.65 771.33 272.94 765.39 273.18 756.73 267.24 750.45 258.59 750.2 252.3 756.15" style="fill:#c093c3"/><path d="M274.06,756.4l-.26,9.37L267,772.21l-9.37-.26-6.44-6.81.26-9.37,6.81-6.45,9.37.27Zm-2,8.6.23-7.93-5.46-5.77-7.93-.22-5.77,5.45-.22,7.94,5.45,5.76,7.94.22Z" style="fill:#7c3990"/><rect x="245.3" y="765.18" width="6.98" height="1.74" transform="translate(-256.85 139.11) rotate(-20.89)" style="fill:#7c3990"/><rect x="248.24" y="751.23" width="1.74" height="6.98" transform="translate(-541.53 673.75) rotate(-65.89)" style="fill:#7c3990"/><rect x="256.47" y="743.45" width="1.74" height="6.98" transform="translate(-249.55 140.96) rotate(-20.9)" style="fill:#7c3990"/><rect x="265.17" y="746.39" width="6.98" height="1.74" transform="translate(-523.15 687.27) rotate(-65.89)" style="fill:#7c3990"/><rect x="272.95" y="754.62" width="6.98" height="1.74" transform="translate(-251.27 148.28) rotate(-20.89)" style="fill:#7c3990"/><rect x="275.26" y="763.32" width="1.74" height="6.98" transform="translate(-536.58 705.56) rotate(-65.89)" style="fill:#7c3990"/><rect x="267.03" y="771.1" width="1.74" height="6.98" transform="translate(-258.72 146.55) rotate(-20.9)" style="fill:#7c3990"/><rect x="253.08" y="773.41" width="6.98" height="1.74" transform="translate(-554.97 692.22) rotate(-65.89)" style="fill:#7c3990"/><path d="M280.59,753.91l-.42,14.71-10.69,10.11-14.71-.41-10.12-10.69.42-14.72,10.69-10.11,14.71.41Zm-2.13,13.94.37-13.27-9.12-9.65-13.28-.37-9.65,9.12L246.41,767l9.12,9.65,13.28.37Z" style="fill:#7c3990"/><circle cx="326.54" cy="762.5" r="19.44" style="fill:#e6cbe2;stroke:#7d3990;stroke-miterlimit:10"/><path d="M338.34,747.06A25.88,25.88,0,0,1,317.84,775a26.28,26.28,0,0,1-5.75.54,19.43,19.43,0,1,0,26.25-28.43Z" style="fill:#96388f;stroke:#96388f;stroke-miterlimit:10;opacity:0.13"/><circle cx="406.95" cy="763.55" r="25.32" style="fill:#f16d90;stroke:#96388f;stroke-miterlimit:10"/><path d="M423.85,744.72a33.68,33.68,0,0,1-37,34.2,25.3,25.3,0,1,0,37-34.2Z" style="fill:#96388f;stroke:#96388f;stroke-miterlimit:10;opacity:0.13"/><line x1="449.34" y1="800.63" x2="421.53" y2="800.63" style="fill:none;stroke:#7d3990;stroke-miterlimit:10"/><line x1="449.34" y1="792.92" x2="421.53" y2="792.92" style="fill:none;stroke:#7d3990;stroke-miterlimit:10"/><polygon points="477.77 778.21 477.77 763.47 465.01 756.1 452.24 763.47 452.24 778.21 465.01 785.58 477.77 778.21" style="fill:#fff;opacity:0.4"/><polygon points="477.77 778.21 477.77 763.47 465.01 756.1 452.24 763.47 452.24 778.21 465.01 785.58 477.77 778.21" style="fill:none;stroke:#7c3990;stroke-miterlimit:10"/><polygon points="446.26 795.55 446.26 803.72 486.13 803.72 482.67 795.55 446.26 795.55" style="fill:#da1c5c"/><polygon points="484.41 794.82 487.89 803 502.48 788.34 490.86 788.34 484.41 794.82" style="fill:#da1c5c"/><polygon points="506.09 787.39 505.43 786.72 504.75 787.39 504.75 787.39 504.75 787.39 504.75 787.39 504.75 788.34 502.48 788.34 487.89 803 488.44 804.3 486.69 805.04 486.13 803.72 446.26 803.72 446.26 805.62 487.96 805.62 506.09 787.39" style="fill:#7c3990"/><polygon points="490.86 786.45 502.48 786.45 487.89 771.78 484.41 779.96 490.86 786.45" style="fill:#f6ebf4"/><polygon points="486.13 771.06 446.26 771.06 446.26 779.23 482.66 779.23 486.13 771.06" style="fill:#f6ebf4"/><polygon points="504.75 787.39 504.75 787.39 504.75 787.39 504.75 787.39" style="fill:#f6ebf4"/><polygon points="446.26 771.06 486.13 771.06 486.69 769.74 488.44 770.48 487.89 771.78 502.48 786.45 504.75 786.44 504.75 787.39 504.75 787.39 504.75 787.39 505.43 786.72 505.43 786.72 487.96 769.16 446.26 769.16 446.26 771.06" style="fill:#7d398f"/><polygon points="483.69 795.55 482.67 795.55 486.13 803.72 486.69 805.04 488.44 804.3 487.89 803 484.41 794.82 483.69 795.55" style="fill:#7d398f"/><polygon points="504.75 786.44 502.48 786.45 490.86 786.45 491.8 787.39 490.86 788.34 502.48 788.34 504.75 788.34 504.75 787.39 504.75 786.44" style="fill:#7d398f"/><polygon points="483.68 779.23 484.41 779.96 487.89 771.78 488.44 770.48 486.69 769.74 486.13 771.06 482.66 779.23 483.68 779.23" style="fill:#7d398f"/><polygon points="489.13 787.39 482.89 781.12 446.26 781.12 446.26 793.66 482.9 793.66 489.13 787.39" style="fill:#e6cbe2"/><polygon points="483.69 795.55 484.41 794.82 490.86 788.34 491.8 787.39 490.86 786.45 484.41 779.96 483.68 779.23 482.66 779.23 446.26 779.23 446.26 781.12 482.89 781.12 489.13 787.39 482.9 793.66 446.26 793.66 446.26 795.55 482.67 795.55 483.69 795.55" style="fill:#7d398f"/><polyline points="448.15 769.16 446.26 769.16 446.26 799.25 446.26 805.62 447.21 805.62 448.15 805.62 448.15 799.25" style="fill:#7d398f"/><rect x="234.75" y="788.49" width="188.18" height="16.56" style="fill:#bd92c2;stroke:#7d3990;stroke-miterlimit:10"/><rect x="234.75" y="788.49" width="188.18" height="8.35" style="fill:#e6cbe2;stroke:#7d3990;stroke-miterlimit:10"/><path d="M392.05,788.73l9.52-50.5Z" style="fill:none;stroke:#7c3990;stroke-linejoin:bevel"/><polyline points="377.69 788.34 401.57 738.23 419.53 788.34" style="fill:none;stroke:#7c3990;stroke-linejoin:bevel"/><polyline points="257.77 788.73 264.47 743.05 285.25 788.34 298.38 747.26" style="fill:none;stroke:#7c3990;stroke-linejoin:bevel"/><rect x="252.29" y="815.04" width="232.09" height="7.57" rx="3.22" ry="3.22" style="fill:#c9c9c9;opacity:0.45;mix-blend-mode:multiply"/></g><polygon points="611.84 686.52 70.22 686.52 37.7 725.66 642.64 726.16 611.84 686.52" style="fill:#68c180"/><polygon points="611.84 686.52 70.22 686.52 37.7 725.66 642.64 726.16 611.84 686.52" style="mix-blend-mode:overlay;fill:url(#Fading_Sky-2)"/><polygon points="611.84 686.52 70.22 686.52 37.7 725.66 642.64 726.16 611.84 686.52" style="mix-blend-mode:overlay;fill:url(#linear-gradient)"/><polygon points="611.84 686.52 70.22 686.52 37.7 725.66 642.64 726.16 611.84 686.52" style="fill:#39b54a;mix-blend-mode:multiply"/><polygon points="611.84 686.52 70.22 686.52 38.01 725.66 642.64 726.16 611.84 686.52" style="fill:#0fa04a;opacity:0.25;mix-blend-mode:multiply"/><g style="opacity:0.55"><path d="M126.94,695.8a6.86,6.86,0,0,1-13.72,0" style="fill:#0fa049;mix-blend-mode:multiply"/><path d="M147.13,695.8a6.86,6.86,0,0,1-13.72,0" style="fill:#0fa049;mix-blend-mode:multiply"/><path d="M167.32,695.8a6.86,6.86,0,0,1-13.72,0" style="fill:#0fa049;mix-blend-mode:multiply"/><path d="M187.51,695.8a6.86,6.86,0,0,1-13.71,0" style="fill:#0fa049;mix-blend-mode:multiply"/><path d="M207.71,695.8a6.86,6.86,0,0,1-13.72,0" style="fill:#0fa049;mix-blend-mode:multiply"/><path d="M227.9,695.8a6.86,6.86,0,0,1-13.72,0" style="fill:#0fa049;mix-blend-mode:multiply"/><path d="M248.09,695.8a6.86,6.86,0,0,1-13.72,0" style="fill:#0fa049;mix-blend-mode:multiply"/><path d="M268.28,695.8a6.86,6.86,0,0,1-13.72,0" style="fill:#0fa049;mix-blend-mode:multiply"/><path d="M288.47,695.8a6.86,6.86,0,0,1-13.71,0" style="fill:#0fa049;mix-blend-mode:multiply"/><path d="M308.66,695.8a6.86,6.86,0,0,1-13.71,0" style="fill:#0fa049;mix-blend-mode:multiply"/><path d="M328.86,695.8a6.86,6.86,0,0,1-13.72,0" style="fill:#0fa049;mix-blend-mode:multiply"/><path d="M349.05,695.8a6.86,6.86,0,0,1-13.72,0" style="fill:#0fa049;mix-blend-mode:multiply"/><path d="M369.24,695.8a6.86,6.86,0,0,1-13.72,0" style="fill:#0fa049;mix-blend-mode:multiply"/><path d="M389.43,695.8a6.86,6.86,0,0,1-13.72,0" style="fill:#0fa049;mix-blend-mode:multiply"/><path d="M409.62,695.8a6.86,6.86,0,0,1-13.71,0" style="fill:#0fa049;mix-blend-mode:multiply"/><path d="M429.82,695.8a6.86,6.86,0,0,1-13.72,0" style="fill:#0fa049;mix-blend-mode:multiply"/><path d="M450,695.8a6.86,6.86,0,0,1-13.72,0" style="fill:#0fa049;mix-blend-mode:multiply"/><path d="M470.2,695.8a6.86,6.86,0,0,1-13.72,0" style="fill:#0fa049;mix-blend-mode:multiply"/><path d="M490.39,695.8a6.86,6.86,0,0,1-13.72,0" style="fill:#0fa049;mix-blend-mode:multiply"/><path d="M510.58,695.8a6.86,6.86,0,0,1-13.71,0" style="fill:#0fa049;mix-blend-mode:multiply"/><path d="M530.77,695.8a6.86,6.86,0,0,1-13.71,0" style="fill:#0fa049;mix-blend-mode:multiply"/><path d="M551,695.8a6.86,6.86,0,0,1-13.72,0" style="fill:#0fa049;mix-blend-mode:multiply"/><path d="M571.16,695.8a6.86,6.86,0,0,1-13.72,0" style="fill:#0fa049;mix-blend-mode:multiply"/><path d="M591.35,695.8a6.86,6.86,0,0,1-13.72,0" style="fill:#0fa049;mix-blend-mode:multiply"/><path d="M611.54,695.8a6.86,6.86,0,0,1-13.72,0" style="fill:#0fa049;mix-blend-mode:multiply"/><path d="M116.65,709.81a6.86,6.86,0,0,1-13.72,0" style="fill:#0fa049;mix-blend-mode:multiply"/><path d="M136.84,709.81a6.86,6.86,0,1,1-13.71,0" style="fill:#0fa049;mix-blend-mode:multiply"/><path d="M85.76,695.8a6.86,6.86,0,0,1-13.72,0" style="fill:#0fa049;mix-blend-mode:multiply"/><path d="M106,695.8a6.86,6.86,0,0,1-13.71,0" style="fill:#0fa049;mix-blend-mode:multiply"/><path d="M75.47,709.81a6.86,6.86,0,1,1-13.71,0" style="fill:#0fa049;mix-blend-mode:multiply"/><path d="M95.67,709.81a6.86,6.86,0,0,1-13.72,0" style="fill:#0fa049;mix-blend-mode:multiply"/><path d="M157,709.81a6.86,6.86,0,1,1-13.72,0" style="fill:#0fa049;mix-blend-mode:multiply"/><path d="M177.23,709.81a6.86,6.86,0,1,1-13.72,0" style="fill:#0fa049;mix-blend-mode:multiply"/><path d="M197.42,709.81a6.86,6.86,0,1,1-13.72,0" style="fill:#0fa049;mix-blend-mode:multiply"/><path d="M217.61,709.81a6.86,6.86,0,0,1-13.72,0" style="fill:#0fa049;mix-blend-mode:multiply"/><path d="M237.8,709.81a6.86,6.86,0,1,1-13.71,0" style="fill:#0fa049;mix-blend-mode:multiply"/><path d="M258,709.81a6.86,6.86,0,1,1-13.71,0" style="fill:#0fa049;mix-blend-mode:multiply"/><path d="M278.19,709.81a6.86,6.86,0,0,1-13.72,0" style="fill:#0fa049;mix-blend-mode:multiply"/><path d="M298.38,709.81a6.86,6.86,0,0,1-13.72,0" style="fill:#0fa049;mix-blend-mode:multiply"/><path d="M318.57,709.81a6.86,6.86,0,0,1-13.72,0" style="fill:#0fa049;mix-blend-mode:multiply"/><path d="M338.76,709.81a6.86,6.86,0,1,1-13.71,0" style="fill:#0fa049;mix-blend-mode:multiply"/><path d="M359,709.81a6.86,6.86,0,1,1-13.71,0" style="fill:#0fa049;mix-blend-mode:multiply"/><path d="M379.15,709.81a6.86,6.86,0,1,1-13.72,0" style="fill:#0fa049;mix-blend-mode:multiply"/><path d="M399.34,709.81a6.86,6.86,0,1,1-13.72,0" style="fill:#0fa049;mix-blend-mode:multiply"/><path d="M419.53,709.81a6.86,6.86,0,1,1-13.72,0" style="fill:#0fa049;mix-blend-mode:multiply"/><path d="M439.72,709.81a6.86,6.86,0,1,1-13.72,0" style="fill:#0fa049;mix-blend-mode:multiply"/><path d="M459.91,709.81a6.86,6.86,0,1,1-13.71,0" style="fill:#0fa049;mix-blend-mode:multiply"/><path d="M480.11,709.81a6.86,6.86,0,0,1-13.72,0" style="fill:#0fa049;mix-blend-mode:multiply"/><path d="M500.3,709.81a6.86,6.86,0,0,1-13.72,0" style="fill:#0fa049;mix-blend-mode:multiply"/><path d="M520.49,709.81a6.86,6.86,0,1,1-13.72,0" style="fill:#0fa049;mix-blend-mode:multiply"/><path d="M540.68,709.81a6.86,6.86,0,0,1-13.72,0" style="fill:#0fa049;mix-blend-mode:multiply"/><path d="M560.87,709.81a6.86,6.86,0,1,1-13.71,0" style="fill:#0fa049;mix-blend-mode:multiply"/><path d="M581.06,709.81a6.86,6.86,0,1,1-13.71,0" style="fill:#0fa049;mix-blend-mode:multiply"/><path d="M601.26,709.81a6.86,6.86,0,1,1-13.72,0" style="fill:#0fa049;mix-blend-mode:multiply"/><path d="M621.83,709.81a6.86,6.86,0,0,1-13.72,0" style="fill:#0fa049;mix-blend-mode:multiply"/></g><rect x="313.73" y="400.75" width="133.03" height="13.55" style="fill:#e6cbe2;stroke:#7d3990;stroke-miterlimit:10"/><path d="M483.33,467l12.34,11.37.37,6.55-4.38,4.89-6.55.37L482.7,497l12.12-.67,8.1-9.05-.67-12.13-16.5-15.09Z" style="fill:#c093c3"/><path d="M486.32,459.46l16.5,15.09.28.59.68,12.13-.22.62-8.1,9.05-.59.28-12.12.68-.86-1.14,2.41-6.89.77-.57,6.19-.34,3.9-4.36-.33-5.84-12.07-11.14-.23-.92,2.41-6.89Zm15.09,16.13-15.28-14-1.8,5.14,11.91,11,.29.6.36,6.54-.21.62-4.38,4.89-.59.29-6,.33-1.8,5.13,10.49-.58,7.63-8.52Z" style="fill:#7c3990"/><path d="M464.37,460.1l-16.49,15.09-.68,12.13,8.1,9.05,12.12.67L465,490.16l-6.55-.37-4.37-4.89.36-6.55L466.79,467Z" style="fill:#c093c3"/><path d="M465.18,459.81l2.42,6.89-.24.92-12.07,11.14L455,484.6l3.9,4.36,6.2.34.76.57,2.41,6.89-.86,1.14-12.12-.68-.59-.28-8.1-9.05-.22-.62.68-12.13.28-.59,16.5-15.09ZM448.08,487l7.62,8.52,10.49.58-1.8-5.13-6-.33-.59-.29-4.37-4.89-.22-.62.36-6.54.29-.6,11.91-11-1.8-5.14-15.28,14Z" style="fill:#7c3990"/><polygon points="468.05 477.8 482.05 477.81 491.95 467.92 491.97 453.92 482.08 444.01 468.08 444 458.17 453.89 458.16 467.89 468.05 477.8" style="fill:#e6cae2"/><path d="M467.72,443.13h14.72l10.39,10.42v14.72l-10.42,10.4-14.71,0-10.4-10.41V453.53Zm14,1.75H468.44l-9.4,9.38,0,13.28,9.39,9.4h13.28l9.4-9.38V454.28Z" style="fill:#7c3990"/><polygon points="482.05 477.81 468.05 477.8 458.16 467.89 458.17 453.89 468.08 444 482.08 444.01 479.4 450.46 479.38 471.36 482.05 477.81" style="fill:#b87bb5"/><polygon points="470.72 471.35 479.38 471.36 485.5 465.24 485.51 456.59 479.4 450.46 470.74 450.45 464.62 456.57 464.61 465.22 470.72 471.35" style="fill:#c093c3"/><path d="M470.39,449.58h9.37l6.62,6.64v9.37l-6.63,6.62h-9.38l-6.62-6.63v-9.37Zm8.65,1.75H471.1l-5.62,5.61v7.93l5.6,5.62H479l5.62-5.61v-7.94Z" style="fill:#7c3990"/><rect x="479.84" y="471.09" width="1.74" height="6.98" transform="translate(-144.79 219.51) rotate(-22.45)" style="fill:#7c3990"/><rect x="465.89" y="473.7" width="6.98" height="1.74" transform="translate(-148.96 725.95) rotate(-67.44)" style="fill:#7c3990"/><rect x="457.89" y="465.69" width="6.98" height="1.74" transform="translate(-143.22 211.6) rotate(-22.45)" style="fill:#7c3990"/><rect x="460.52" y="451.74" width="1.74" height="6.98" transform="translate(-135.99 706.72) rotate(-67.45)" style="fill:#7c3990"/><rect x="468.54" y="443.73" width="1.74" height="6.98" transform="translate(-135.2 213.13) rotate(-22.45)" style="fill:#7c3990"/><rect x="477.25" y="446.37" width="6.98" height="1.74" transform="translate(-116.72 719.59) rotate(-67.44)" style="fill:#7c3990"/><rect x="485.25" y="454.39" width="6.98" height="1.74" transform="translate(-136.83 221.19) rotate(-22.45)" style="fill:#7c3990"/><rect x="487.86" y="463.09" width="1.74" height="6.98" transform="translate(-129.62 738.96) rotate(-67.45)" style="fill:#7c3990"/><path d="M467.72,443.13h14.72l10.39,10.42v14.72l-10.42,10.4-14.71,0-10.4-10.41V453.53Zm14,1.75H468.44l-9.4,9.38,0,13.28,9.39,9.4h13.28l9.4-9.38V454.28Z" style="fill:#7c3990"/><path d="M358.27,349.78l1.45-4.7-4.61,1.73a11,11,0,1,0,3.16,3Z" style="fill:#cf82aa;stroke:#663695;stroke-miterlimit:10"/><circle cx="349.31" cy="356.14" r="6.33" style="fill:#da1c5c;stroke:#7c3990;stroke-miterlimit:10"/><path d="M343.37,313.07l-4.63-1.66,1.52,4.68a11,11,0,1,0,3.11-3Z" style="fill:#cf82aa;stroke:#663695;stroke-miterlimit:10"/><circle cx="349.31" cy="322.31" r="6.33" style="fill:#da1c5c;stroke:#7c3990;stroke-miterlimit:10"/><line x1="400.34" y1="334.29" x2="400.34" y2="310.34" style="fill:#da1c5c;stroke:#7c3990;stroke-miterlimit:10"/><line x1="405.76" y1="334.29" x2="405.76" y2="310.34" style="fill:#da1c5c;stroke:#7c3990;stroke-miterlimit:10"/><line x1="411.18" y1="334.29" x2="411.18" y2="310.34" style="fill:#da1c5c;stroke:#7c3990;stroke-miterlimit:10"/><line x1="416.59" y1="334.29" x2="416.59" y2="310.34" style="fill:#da1c5c;stroke:#7c3990;stroke-miterlimit:10"/><line x1="422.01" y1="334.29" x2="422.01" y2="310.34" style="fill:#da1c5c;stroke:#7c3990;stroke-miterlimit:10"/><line x1="338.62" y1="390.09" x2="338.62" y2="379.53" style="fill:#da1c5c;stroke:#7c3990;stroke-miterlimit:10"/><line x1="344.04" y1="390.09" x2="344.04" y2="379.53" style="fill:#da1c5c;stroke:#7c3990;stroke-miterlimit:10"/><line x1="349.46" y1="390.09" x2="349.46" y2="379.53" style="fill:#da1c5c;stroke:#7c3990;stroke-miterlimit:10"/><line x1="354.88" y1="390.09" x2="354.88" y2="379.53" style="fill:#da1c5c;stroke:#7c3990;stroke-miterlimit:10"/><line x1="360.29" y1="390.09" x2="360.29" y2="379.53" style="fill:#da1c5c;stroke:#7c3990;stroke-miterlimit:10"/><rect x="390.75" y="356.94" width="10.98" height="9.3" transform="translate(34.65 757.83) rotate(-90)" style="fill:#e6cbe2"/><rect x="422.2" y="356.83" width="10.98" height="9.3" transform="translate(66.21 789.16) rotate(-90)" style="fill:#e6cbe2"/><rect x="401.32" y="345.81" width="10.98" height="10.45" transform="translate(55.78 757.85) rotate(-90)" style="fill:#618bc8"/><rect x="412.21" y="345.3" width="10.98" height="10.13" transform="translate(67.34 768.06) rotate(-90)" style="fill:#da1c5c"/><rect x="401.3" y="356.21" width="10.98" height="9.82" transform="translate(45.67 767.91) rotate(-90)" style="fill:#da1c5c"/><rect x="401.06" y="335.65" width="21.97" height="40.9" transform="translate(55.94 768.14) rotate(-90)" style="fill:none;stroke:#7c3990;stroke-miterlimit:10"/><line x1="401.32" y1="367.08" x2="401.32" y2="345.12" style="fill:none;stroke:#7c3990;stroke-miterlimit:10"/><line x1="412.04" y1="367.08" x2="412.04" y2="345.12" style="fill:none;stroke:#7c3990;stroke-miterlimit:10"/><line x1="422.76" y1="367.08" x2="422.76" y2="345.12" style="fill:none;stroke:#7c3990;stroke-miterlimit:10"/><line x1="432.49" y1="356.1" x2="391.59" y2="356.1" style="fill:none;stroke:#7c3990;stroke-miterlimit:10"/><rect x="401.32" y="379.63" width="10.98" height="10.45" transform="translate(21.96 791.67) rotate(-90)" style="fill:#e6cbe2"/><rect x="411.82" y="379.75" width="11.75" height="10.13" transform="translate(32.89 802.51) rotate(-90)" style="fill:#da1c5c"/><rect x="406.17" y="364.36" width="11.75" height="40.9" transform="translate(27.23 796.85) rotate(-90)" style="fill:none;stroke:#7c3990;stroke-miterlimit:10"/><line x1="401.32" y1="390.69" x2="401.32" y2="378.94" style="fill:none;stroke:#7c3990;stroke-miterlimit:10"/><line x1="412.04" y1="390.69" x2="412.04" y2="378.94" style="fill:none;stroke:#7c3990;stroke-miterlimit:10"/><line x1="422.76" y1="390.69" x2="422.76" y2="378.94" style="fill:none;stroke:#7c3990;stroke-miterlimit:10"/><circle cx="475.06" cy="396.96" r="19.44" style="fill:#e6cbe2;stroke:#7d3990;stroke-miterlimit:10"/><path d="M481.12,378.5A25.86,25.86,0,0,1,465.69,414a19.43,19.43,0,1,0,15.43-35.48Z" style="fill:#96388f;stroke:#96388f;stroke-miterlimit:10;opacity:0.13"/><circle cx="474.94" cy="316.55" r="25.32" style="fill:#f16d90;stroke:#96388f;stroke-miterlimit:10"/><path d="M482.83,292.51a33.72,33.72,0,0,1-20.09,46.2,25.3,25.3,0,1,0,20.09-46.2Z" style="fill:#96388f;stroke:#96388f;stroke-miterlimit:10;opacity:0.13"/><polyline points="329.48 293.47 380.55 222.57 432.06 293.9" style="fill:none;stroke:#7c3990;stroke-miterlimit:10"/><circle cx="447.2" cy="407.4" r="2.04" style="fill:#c51164;stroke:#7c3990;stroke-miterlimit:10"/><circle cx="338.53" cy="435.93" r="2.04" style="fill:#c51164;stroke:#7c3990;stroke-miterlimit:10"/><circle cx="352.43" cy="435.93" r="2.04" style="fill:#c51164;stroke:#7c3990;stroke-miterlimit:10"/><circle cx="366.34" cy="435.93" r="2.04" style="fill:#c51164;stroke:#7c3990;stroke-miterlimit:10"/><circle cx="380.24" cy="435.93" r="2.04" style="fill:#c51164;stroke:#7c3990;stroke-miterlimit:10"/><circle cx="394.15" cy="435.93" r="2.04" style="fill:#c51164;stroke:#7c3990;stroke-miterlimit:10"/><circle cx="408.06" cy="435.93" r="2.04" style="fill:#c51164;stroke:#7c3990;stroke-miterlimit:10"/><circle cx="421.96" cy="435.93" r="2.04" style="fill:#c51164;stroke:#7c3990;stroke-miterlimit:10"/><circle cx="313.93" cy="407.4" r="2.04" style="fill:#c51164;stroke:#7c3990;stroke-miterlimit:10"/><circle cx="327.25" cy="407.4" r="2.04" style="fill:#c51164;stroke:#7c3990;stroke-miterlimit:10"/><circle cx="340.58" cy="407.4" r="2.04" style="fill:#c51164;stroke:#7c3990;stroke-miterlimit:10"/><circle cx="353.91" cy="407.4" r="2.04" style="fill:#c51164;stroke:#7c3990;stroke-miterlimit:10"/><circle cx="367.24" cy="407.4" r="2.04" style="fill:#c51164;stroke:#7c3990;stroke-miterlimit:10"/><circle cx="380.56" cy="407.4" r="2.04" style="fill:#c51164;stroke:#7c3990;stroke-miterlimit:10"/><circle cx="393.89" cy="407.4" r="2.04" style="fill:#c51164;stroke:#7c3990;stroke-miterlimit:10"/><circle cx="407.22" cy="407.4" r="2.04" style="fill:#c51164;stroke:#7c3990;stroke-miterlimit:10"/><circle cx="420.55" cy="407.4" r="2.04" style="fill:#c51164;stroke:#7c3990;stroke-miterlimit:10"/><circle cx="433.87" cy="407.4" r="2.04" style="fill:#c51164;stroke:#7c3990;stroke-miterlimit:10"/><polygon points="361.15 558.7 315.19 558.7 315.19 466.76 361.15 477.88 361.15 558.7" style="fill:#c51164;stroke:#7c3990;stroke-miterlimit:10"/><polygon points="320.17 553.85 315.26 558.7 315.26 466.69 361.15 477.81 356.17 481.71 320.17 473.63 320.17 553.85" style="fill:#f6ebf4"/><polygon points="356.17 553.85 320.17 553.85 320.17 473.63 356.17 481.71 356.17 553.85" style="fill:#da1c5c;stroke:#7c3990;stroke-miterlimit:10"/><line x1="320.17" y1="473.63" x2="315.26" y2="466.69" style="fill:#da1c5c;stroke:#7c3990;stroke-miterlimit:10"/><line x1="356.17" y1="481.71" x2="361.09" y2="477.81" style="fill:#da1c5c;stroke:#7c3990;stroke-miterlimit:10"/><line x1="356.17" y1="553.85" x2="361.09" y2="558.77" style="fill:#da1c5c;stroke:#7c3990;stroke-miterlimit:10"/><line x1="320.17" y1="553.85" x2="315.26" y2="558.77" style="fill:#da1c5c;stroke:#7c3990;stroke-miterlimit:10"/><polygon points="361.15 558.7 315.19 558.7 315.19 466.76 361.15 477.88 361.15 558.7" style="fill:none;stroke:#7c3990;stroke-miterlimit:10"/><circle cx="327.34" cy="547.77" r="2.04" style="fill:#c51164;stroke:#7c3990;stroke-miterlimit:10"/><circle cx="349.14" cy="487.34" r="2.04" style="fill:#c51164;stroke:#7c3990;stroke-miterlimit:10"/><circle cx="349.14" cy="547.77" r="2.04" style="fill:#c51164;stroke:#7c3990;stroke-miterlimit:10"/><circle cx="327.34" cy="482.33" r="2.04" style="fill:#c51164;stroke:#7c3990;stroke-miterlimit:10"/><g id="robot-leg"><polygon points="588.58 510.14 598.53 520.03 598.53 523.54 598.53 541.85 598.53 543.54 588.58 553.43 578.63 543.54 578.63 541.85 578.63 523.54 578.63 520.03 588.58 510.14" style="fill:#da1c5c;stroke:#7c3990;stroke-miterlimit:10"/><polyline points="588.58 510.14 598.53 520.03 598.53 523.54 598.53 541.85 598.53 543.54 588.58 553.43" style="fill:#f6ebf4;stroke:#7d3990;stroke-miterlimit:10"/><line x1="584.42" y1="541.08" x2="578.63" y2="543.54" style="fill:none;stroke:#7d3990;stroke-miterlimit:10"/><line x1="588.58" y1="545.2" x2="588.58" y2="553.43" style="fill:none;stroke:#7d3990;stroke-miterlimit:10"/><line x1="592.73" y1="541.07" x2="598.53" y2="543.54" style="fill:none;stroke:#7d3990;stroke-miterlimit:10"/><line x1="584.42" y1="522.49" x2="578.63" y2="520.03" style="fill:none;stroke:#7d3990;stroke-miterlimit:10"/><line x1="588.58" y1="518.37" x2="588.58" y2="510.14" style="fill:none;stroke:#7d3990;stroke-miterlimit:10"/><line x1="592.73" y1="522.5" x2="598.53" y2="520.03" style="fill:none;stroke:#7d3990;stroke-miterlimit:10"/><polygon points="588.58 518.37 592.73 522.5 592.73 523.54 592.73 540.4 592.73 541.07 588.58 545.2 584.42 541.08 584.42 540.4 584.42 523.54 584.42 522.49 588.58 518.37" style="fill:#e6cbe2;stroke:#7d3990;stroke-miterlimit:10"/><polygon points="578.9 500.64 598.33 500.64 612.06 514.38 612.06 553.88 598.33 567.61 578.9 567.61 565.17 553.88 565.17 514.38 578.9 500.64" style="fill:none;stroke:#7c3990;stroke-miterlimit:10"/><polyline points="612.06 539.32 612.06 561.74 588.61 585.07 565.17 561.74 565.17 539.32" style="fill:#bd92c2;stroke:#7d3990;stroke-miterlimit:10"/><polyline points="612.06 539.32 612.06 561.74 588.61 585.07 588.58 561.74 588.58 539.32" style="fill:#f5ebf4;stroke:#7d3990;stroke-linejoin:bevel"/><polyline points="578.82 539.32 578.82 555.94 588.61 565.67 598.4 555.94 598.4 539.32" style="fill:#e6cbe2;stroke:#7d3990;stroke-miterlimit:10"/><line x1="578.82" y1="555.94" x2="565.17" y2="561.74" style="fill:none;stroke:#7d3990;stroke-miterlimit:10"/><line x1="588.61" y1="565.67" x2="588.61" y2="585.07" style="fill:none;stroke:#7d3990;stroke-miterlimit:10"/><line x1="598.4" y1="555.94" x2="612.06" y2="561.74" style="fill:none;stroke:#7d3990;stroke-miterlimit:10"/><line x1="612.06" y1="539.32" x2="565.17" y2="539.32" style="fill:none;stroke:#7d3990;stroke-linecap:square;stroke-linejoin:bevel"/><rect x="584.35" y="580.77" width="8.53" height="6.84" transform="translate(1177.23 1168.38) rotate(-180)" style="fill:#da1c5c;stroke:#7c3990;stroke-miterlimit:10"/><rect x="588.61" y="580.77" width="4.27" height="6.84" transform="translate(1181.49 1168.38) rotate(-180)" style="fill:#e6cbe2;stroke:#7c3990;stroke-miterlimit:10"/><path d="M488.71,617.49l3.87-6.25-1.68-7.15-6.25-3.86-7.15,1.68,2.58,3.58,3.86-.91,3.38,2.09.91,3.86-2.09,3.38Z" style="fill:#c093c3"/><path d="M488.29,617.79l-2.57-3.58,0-.58,2-3.19-.81-3.44-3-1.87-3.65.86-.54-.2-2.58-3.58.3-.81,7.16-1.68.39.07,6.24,3.86.23.32,1.69,7.15-.07.4-3.87,6.24Zm2.15-13.37-5.88-3.64-6.18,1.45,1.92,2.68,3.52-.83.4.06,3.37,2.09.23.32.91,3.86-.06.4-1.91,3.07,1.92,2.68,3.35-5.41Z" style="fill:#7c3990"/><path d="M480.83,620.23l-3,2.56-4-.35-2.55-3,.34-4-3.91-2-.64,7.32,4.73,5.62,7.32.63,5.62-4.72Z" style="fill:#c093c3"/><path d="M485.08,622.66l-5.62,4.73-.38.12-7.31-.63-.36-.19-4.72-5.62-.12-.38.63-7.32L468,613l3.91,2,.28.51-.32,3.74L474.1,622l3.53.3,2.87-2.41.57-.07,3.92,2Zm-6.12,3.8,4.86-4.09-2.92-1.52-2.77,2.33-.38.12L473.8,623l-.35-.18-2.56-3-.12-.38.32-3.61-2.92-1.51-.55,6.33,4.45,5.29Z" style="fill:#7c3990"/><polygon points="478.41 615.66 481.87 611.57 487.21 611.12 491.31 614.58 491.75 619.92 488.3 624.01 482.96 624.46 478.86 621 478.41 615.66" style="fill:#e6cae2"/><path d="M482.85,624.8l-4.31-3.63-.47-5.62,3.64-4.3,5.61-.47,4.3,3.63.48,5.62-3.64,4.3ZM491,614.74l-3.89-3.28-5.06.43-3.28,3.88.42,5.07,3.89,3.28,5.06-.43,3.28-3.88Z" style="fill:#7c3990"/><polygon points="481.87 611.57 478.41 615.66 478.86 621 482.96 624.46 488.3 624.01 491.75 619.92 489.21 619.11 483.1 613.95 481.87 611.57" style="fill:#b87bb5"/><polygon points="480.96 616.48 483.1 613.95 486.4 613.67 488.93 615.8 489.21 619.11 487.07 621.64 483.77 621.91 481.24 619.78 480.96 616.48" style="fill:#c093c3"/><path d="M483.66,622.26l-2.74-2.32-.3-3.57,2.31-2.74,3.58-.3,2.74,2.31.3,3.58L487.24,622Zm4.95-6.29-2.32-2-3,.25-2,2.33.26,3,2.32,2,3-.25,2-2.32Z" style="fill:#7c3990"/><rect x="482.15" y="611.42" width="0.66" height="2.67" transform="translate(-227.37 289.7) rotate(-27.31)" style="fill:#7c3990"/><rect x="479.35" y="614.73" width="0.66" height="2.67" transform="translate(-252.96 886.02) rotate(-72.32)" style="fill:#7c3990"/><rect x="478.71" y="620.06" width="2.67" height="0.66" transform="translate(-231.11 289.35) rotate(-27.31)" style="fill:#7c3990"/><rect x="482.03" y="622.86" width="2.67" height="0.66" transform="translate(-257.21 894.39) rotate(-72.32)" style="fill:#7c3990"/><rect x="487.35" y="621.49" width="0.66" height="2.67" transform="translate(-231.41 293.21) rotate(-27.31)" style="fill:#7c3990"/><rect x="490.15" y="618.18" width="0.66" height="2.67" transform="translate(-248.72 898.71) rotate(-72.32)" style="fill:#7c3990"/><rect x="488.78" y="614.86" width="2.67" height="0.66" transform="translate(-227.6 293.39) rotate(-27.31)" style="fill:#7c3990"/><rect x="485.47" y="612.06" width="2.67" height="0.66" transform="translate(-244.53 890.16) rotate(-72.32)" style="fill:#7c3990"/><path d="M482.85,624.8l-4.31-3.63-.47-5.62,3.64-4.3,5.61-.47,4.3,3.63.48,5.62-3.64,4.3ZM491,614.74l-3.89-3.28-5.06.43-3.28,3.88.42,5.07,3.89,3.28,5.06-.43,3.28-3.88Z" style="fill:#7c3990"/><polygon points="431.1 612.97 477.06 612.97 477.06 521.03 431.1 532.15 431.1 612.97" style="fill:#c51164;stroke:#7c3990;stroke-miterlimit:10"/><polygon points="436.01 608.12 431.1 612.97 431.1 532.15 477.06 521.03 472.08 527.9 436.08 535.99 436.01 608.12" style="fill:#f6ebf4"/><polygon points="436.08 608.12 472.08 608.12 472.08 527.9 436.08 535.99 436.08 608.12" style="fill:#da1c5c;stroke:#7c3990;stroke-miterlimit:10"/><line x1="472.08" y1="527.9" x2="476.99" y2="520.96" style="fill:#da1c5c;stroke:#7c3990;stroke-miterlimit:10"/><line x1="436.08" y1="535.98" x2="431.16" y2="532.08" style="fill:#da1c5c;stroke:#7c3990;stroke-miterlimit:10"/><line x1="436.08" y1="608.12" x2="431.16" y2="613.04" style="fill:#da1c5c;stroke:#7c3990;stroke-miterlimit:10"/><line x1="472.08" y1="608.12" x2="476.99" y2="613.04" style="fill:#da1c5c;stroke:#7c3990;stroke-miterlimit:10"/><polygon points="431.1 612.97 477.06 612.97 477.06 521.03 431.1 532.15 431.1 612.97" style="fill:none;stroke:#7c3990;stroke-miterlimit:10"/><circle cx="464.92" cy="602.04" r="2.04" style="fill:#c51164;stroke:#7c3990;stroke-miterlimit:10"/><circle cx="443.11" cy="541.61" r="2.04" style="fill:#c51164;stroke:#7c3990;stroke-miterlimit:10"/><circle cx="443.11" cy="602.04" r="2.04" style="fill:#c51164;stroke:#7c3990;stroke-miterlimit:10"/><circle cx="464.92" cy="536.6" r="2.04" style="fill:#c51164;stroke:#7c3990;stroke-miterlimit:10"/><path d="M588.61,587.61s-1.07,43.94-36,31.18c-35.5-13-49.85,22.93-62.5,3" style="fill:none;stroke:#7d3990;stroke-miterlimit:10"/></g><rect x="319.52" y="570.21" width="37.32" height="74.74" style="fill:#bd92c2;stroke:#7d3990;stroke-miterlimit:10"/><polygon points="322.46 642.09 319.56 644.95 319.56 570.17 356.83 570.17 353.89 573.08 322.46 573.08 322.46 642.09" style="fill:#f6ebf4"/><rect x="322.46" y="573.07" width="31.43" height="69.01" style="fill:#e6cbe2;stroke:#7d3990;stroke-miterlimit:10"/><line x1="322.46" y1="573.07" x2="319.56" y2="570.17" style="fill:#da1c5c;stroke:#7c3990;stroke-miterlimit:10"/><line x1="353.89" y1="573.07" x2="356.79" y2="570.17" style="fill:#da1c5c;stroke:#7c3990;stroke-miterlimit:10"/><line x1="353.89" y1="642.09" x2="356.79" y2="644.99" style="fill:#da1c5c;stroke:#7c3990;stroke-miterlimit:10"/><line x1="322.46" y1="642.09" x2="319.56" y2="644.99" style="fill:#da1c5c;stroke:#7c3990;stroke-miterlimit:10"/><rect x="319.52" y="570.21" width="37.32" height="74.74" style="fill:none;stroke:#7c3990;stroke-miterlimit:10"/><circle cx="327.34" cy="577.99" r="2.04" style="fill:#c51164;stroke:#7c3990;stroke-miterlimit:10"/><circle cx="349.14" cy="577.99" r="2.04" style="fill:#c51164;stroke:#7c3990;stroke-miterlimit:10"/><circle cx="327.34" cy="637.35" r="2.04" style="fill:#c51164;stroke:#7c3990;stroke-miterlimit:10"/><circle cx="349.14" cy="637.35" r="2.04" style="fill:#c51164;stroke:#7c3990;stroke-miterlimit:10"/><line x1="284.66" y1="667.95" x2="356.79" y2="667.95" style="fill:#ee2a7b;stroke:#7d3990;stroke-miterlimit:10"/><line x1="351.18" y1="667.95" x2="351.18" y2="675.13" style="fill:#ee2a7b;stroke:#7d3990;stroke-miterlimit:10"/><polygon points="611.84 686.52 70.22 686.52 79.86 675.13 601.99 675.13 611.84 686.52" style="fill:#f4dfe8"/><line x1="345.52" y1="667.95" x2="345.52" y2="675.13" style="fill:#ee2a7b;stroke:#7d3990;stroke-miterlimit:10"/><line x1="339.85" y1="667.95" x2="339.85" y2="675.13" style="fill:#ee2a7b;stroke:#7d3990;stroke-miterlimit:10"/><line x1="334.19" y1="667.95" x2="334.19" y2="675.13" style="fill:#ee2a7b;stroke:#7d3990;stroke-miterlimit:10"/><line x1="328.52" y1="667.95" x2="328.52" y2="675.13" style="fill:#ee2a7b;stroke:#7d3990;stroke-miterlimit:10"/><line x1="322.85" y1="667.95" x2="322.85" y2="675.13" style="fill:#ee2a7b;stroke:#7d3990;stroke-miterlimit:10"/><line x1="317.19" y1="667.95" x2="317.19" y2="675.13" style="fill:#ee2a7b;stroke:#7d3990;stroke-miterlimit:10"/><line x1="311.52" y1="667.95" x2="311.52" y2="675.13" style="fill:#ee2a7b;stroke:#7d3990;stroke-miterlimit:10"/><line x1="305.86" y1="667.95" x2="305.86" y2="675.13" style="fill:#ee2a7b;stroke:#7d3990;stroke-miterlimit:10"/><line x1="300.19" y1="667.95" x2="300.19" y2="675.13" style="fill:#ee2a7b;stroke:#7d3990;stroke-miterlimit:10"/><line x1="294.52" y1="667.95" x2="294.52" y2="675.13" style="fill:#ee2a7b;stroke:#7d3990;stroke-miterlimit:10"/><line x1="288.86" y1="667.95" x2="288.86" y2="675.13" style="fill:#ee2a7b;stroke:#7d3990;stroke-miterlimit:10"/><path d="M85.35,202.35a26.72,26.72,0,0,0-24.93,17.11,7.09,7.09,0,0,0,6.65,9.59h36.57a7.09,7.09,0,0,0,6.64-9.59A26.71,26.71,0,0,0,85.35,202.35Z" style="fill:#dff2f4"/><path d="M559.54,425.81a13,13,0,0,0-12.15,8.34,3.46,3.46,0,0,0,3.24,4.68h17.82a3.45,3.45,0,0,0,3.24-4.68A13,13,0,0,0,559.54,425.81Z" style="fill:#dff2f4"/><path d="M64.64,517.92a13,13,0,0,0-12.15,8.34,3.46,3.46,0,0,0,3.24,4.68H73.55a3.46,3.46,0,0,0,3.24-4.68A13,13,0,0,0,64.64,517.92Z" style="fill:#dff2f4"/><path d="M636.09,617.79a13,13,0,0,0-12.15,8.34,3.46,3.46,0,0,0,3.24,4.68H645a3.46,3.46,0,0,0,3.24-4.68A13,13,0,0,0,636.09,617.79Z" style="fill:#dff2f4"/><path d="M344.24,218.76a34.81,34.81,0,0,1,32.12,21.39,3.64,3.64,0,0,0,5.74,1.45,15.87,15.87,0,0,1,25.58,7.13,3.69,3.69,0,0,1-3.5,4.83H313.33a3.68,3.68,0,0,1-3.65-4.12A34.8,34.8,0,0,1,344.24,218.76Z" style="fill:#dff2f4"/><path d="M452,247.5a17.72,17.72,0,0,0-33.06,0,4.7,4.7,0,0,0,4.41,6.36h24.24A4.71,4.71,0,0,0,452,247.5Z" style="fill:#dff2f4"/><path d="M338.69,33.45a9.88,9.88,0,0,0-8.54-4.91,9.76,9.76,0,0,0-4.6,1.14A4.82,4.82,0,0,1,319,27.92a21.65,21.65,0,0,0-37-1.47c-1.75,2.63-6.08,3.13-10.86-1.66a21.64,21.64,0,0,0-34.84,1.66,5,5,0,0,1-7.67.77,15.77,15.77,0,0,0-26.17,6.49A3.63,3.63,0,0,0,206,38.42H335.79A3.33,3.33,0,0,0,338.69,33.45Z" style="fill:#dff2f4"/><g id="helicopter"><g id="helicopter-blades"><polygon points="502.53 46.74 420.43 57.17 419.85 52.62 502.53 46.74" style="fill:#e6cbe2;stroke:#7c3990;stroke-miterlimit:10"/><polygon points="503.29 46.64 585.39 36.21 584.81 31.65 503.29 46.64" style="fill:#e6cbe2;stroke:#7c3990;stroke-miterlimit:10"/></g><line x1="502.6" y1="43.82" x2="504.07" y2="55.39" style="fill:none;stroke:#7c3990;stroke-miterlimit:10"/><rect x="499.42" y="58.49" width="11.71" height="12.74" transform="translate(1014.69 65.5) rotate(172.76)" style="fill:#e6cbe2;stroke:#7c3990;stroke-miterlimit:10"/><rect x="501.08" y="51.24" width="5.85" height="7.33" transform="translate(1010.91 45.83) rotate(172.76)" style="fill:#da1c5c;stroke:#7c3990;stroke-miterlimit:10"/><polygon points="462.92 89.94 478.92 69.18 485.42 68.35 496.43 66.95 499.55 66.56 520.23 82.66 504.23 103.42 501.11 103.82 490.1 105.22 483.6 106.05 462.92 89.94" style="fill:#da1c5c;stroke:#7c3990;stroke-miterlimit:10"/><polyline points="462.92 89.94 478.92 69.18 485.42 68.35 496.43 66.95 499.55 66.56 520.23 82.66" style="fill:#f6ebf4;stroke:#7d3990;stroke-miterlimit:10"/><line x1="498.31" y1="93.27" x2="504.23" y2="103.42" style="fill:none;stroke:#7d3990;stroke-miterlimit:10"/><line x1="504.98" y1="84.6" x2="520.23" y2="82.66" style="fill:none;stroke:#7d3990;stroke-miterlimit:10"/><line x1="496.35" y1="77.87" x2="499.55" y2="66.56" style="fill:none;stroke:#7d3990;stroke-miterlimit:10"/><line x1="486.79" y1="94.73" x2="483.6" y2="106.05" style="fill:none;stroke:#7d3990;stroke-miterlimit:10"/><line x1="478.17" y1="88.01" x2="462.92" y2="89.94" style="fill:none;stroke:#7d3990;stroke-miterlimit:10"/><line x1="484.84" y1="79.34" x2="478.92" y2="69.18" style="fill:none;stroke:#7d3990;stroke-miterlimit:10"/><polygon points="478.17 88.01 484.84 79.33 486.78 79.09 495.1 78.03 496.35 77.87 504.98 84.6 498.31 93.27 497.06 93.42 488.74 94.48 486.8 94.73 478.17 88.01" style="fill:#e6cbe2;stroke:#7d3990;stroke-miterlimit:10"/><line x1="505.65" y1="71.24" x2="629.47" y2="55.5" style="fill:none;stroke:#7c3990;stroke-miterlimit:10"/><line x1="629.47" y1="55.5" x2="508.96" y2="97.29" style="fill:none;stroke:#7c3990;stroke-miterlimit:10"/><line x1="603.26" y1="58.83" x2="597.05" y2="66.85" style="fill:none;stroke:#7c3990;stroke-miterlimit:10"/><line x1="587.32" y1="60.86" x2="577.51" y2="73.52" style="fill:none;stroke:#7c3990;stroke-miterlimit:10"/><line x1="569.06" y1="63.18" x2="554.85" y2="81.53" style="fill:none;stroke:#7c3990;stroke-miterlimit:10"/><line x1="549.85" y1="65.62" x2="531.33" y2="89.53" style="fill:none;stroke:#7c3990;stroke-miterlimit:10"/><line x1="548.64" y1="83.53" x2="529.08" y2="68.37" style="fill:none;stroke:#7c3990;stroke-miterlimit:10"/><line x1="569.02" y1="76.46" x2="553.61" y2="64.52" style="fill:none;stroke:#7c3990;stroke-miterlimit:10"/><line x1="586.97" y1="69.84" x2="577.28" y2="62.33" style="fill:none;stroke:#7c3990;stroke-miterlimit:10"/><line x1="522.56" y1="69.09" x2="515.12" y2="78.69" style="fill:none;stroke:#7c3990;stroke-miterlimit:10"/><line x1="516.36" y1="87.68" x2="523.02" y2="92.85" style="fill:none;stroke:#7c3990;stroke-miterlimit:10"/><line x1="608.23" y1="63.05" x2="603.08" y2="59.06" style="fill:none;stroke:#7c3990;stroke-miterlimit:10"/><polygon points="622.22 46.91 629.37 46 635.06 50.41 635.97 57.55 631.56 63.25 624.41 64.16 618.72 59.74 617.81 52.6 622.22 46.91" style="fill:#e6cae2"/><path d="M618.3,60l-.95-7.52,4.63-6,7.51-1,6,4.64.95,7.51-4.63,6-7.51,1Zm17.2-2.56-.86-6.78-5.4-4.18-6.78.86-4.18,5.4.86,6.78,5.4,4.18,6.78-.86Z" style="fill:#7c3990"/><polygon points="629.37 46 622.22 46.91 617.81 52.6 618.72 59.74 624.41 64.16 631.56 63.25 629.78 60.13 628.42 49.47 629.37 46" style="fill:#b87bb5"/><polygon points="624 50.03 628.42 49.47 631.94 52.19 632.5 56.61 629.78 60.13 625.36 60.69 621.84 57.96 621.28 53.55 624 50.03" style="fill:#c093c3"/><path d="M621.42,58.2l-.61-4.78,3-3.81,4.78-.61,3.81,3,.61,4.79-3,3.81-4.79.61ZM632,56.48l-.52-4-3.23-2.5-4,.52-2.5,3.22.52,4,3.23,2.5,4-.51Z" style="fill:#7c3990"/><rect x="627.1" y="47.29" width="3.59" height="0.89" transform="translate(417.34 641.9) rotate(-74.74)" style="fill:#7c3990"/><rect x="622.67" y="46.67" width="0.89" height="3.59" transform="translate(58.08 315.59) rotate(-29.75)" style="fill:#7c3990"/><rect x="619.1" y="51.28" width="0.89" height="3.59" transform="translate(405.22 636.79) rotate(-74.73)" style="fill:#7c3990"/><rect x="618.48" y="58.41" width="3.59" height="0.89" transform="translate(52.52 315.49) rotate(-29.74)" style="fill:#7c3990"/><rect x="623.09" y="61.98" width="3.59" height="0.89" transform="translate(400.21 648.85) rotate(-74.74)" style="fill:#7c3990"/><rect x="630.22" y="59.89" width="0.89" height="3.59" transform="translate(52.52 321.08) rotate(-29.75)" style="fill:#7c3990"/><rect x="633.79" y="55.28" width="0.89" height="3.59" transform="translate(412.18 653.91) rotate(-74.73)" style="fill:#7c3990"/><rect x="631.7" y="50.85" width="3.59" height="0.89" transform="translate(58.01 321.05) rotate(-29.74)" style="fill:#7c3990"/><path d="M618.3,60l-.95-7.52,4.63-6,7.51-1,6,4.64.95,7.51-4.63,6-7.51,1Zm17.2-2.56-.86-6.78-5.4-4.18-6.78.86-4.18,5.4.86,6.78,5.4,4.18,6.78-.86Z" style="fill:#7c3990"/><g id="tail-blades"><polygon points="637.24 27.53 626.81 55.51 629.99 31.76 637.24 27.53" style="fill:#e6cbe2"/><path d="M629.75,31.73l.11-.17,7.26-4.24.35.29L627,55.59l-.47-.11Zm.46.18-2.87,21.51,9.44-25.34Z" style="fill:#7c3990"/><polygon points="616.54 82.63 626.97 54.65 623.8 78.39 616.54 82.63" style="fill:#e6cbe2"/><path d="M624,78.42l-.11.18-7.26,4.24-.35-.3,10.43-28,.47.12Zm-.46-.18,2.88-21.5L617,82.08Z" style="fill:#7c3990"/><polygon points="654.44 65.43 626.46 55 650.21 58.17 654.44 65.43" style="fill:#e6cbe2"/><path d="M650.24,57.93l.17.12,4.24,7.26-.29.35-28-10.43.11-.47Zm-.18.47-21.51-2.88L653.89,65Z" style="fill:#7c3990"/><polygon points="599.34 44.72 627.32 55.16 603.58 51.98 599.34 44.72" style="fill:#e6cbe2"/><path d="M603.54,52.22l-.17-.12-4.24-7.25.29-.35,28,10.43-.11.46Zm.18-.46,21.51,2.87-25.34-9.44Z" style="fill:#7c3990"/></g><rect x="499.75" y="42.11" width="5.85" height="4.63" transform="translate(1006.94 25.13) rotate(172.76)" style="fill:#da1c5c;stroke:#7c3990;stroke-miterlimit:10"/><line x1="500.19" y1="103.94" x2="501.68" y2="115.62" style="fill:none;stroke:#7c3990;stroke-miterlimit:10"/><line x1="488.07" y1="105.48" x2="489.55" y2="117.16" style="fill:none;stroke:#7c3990;stroke-miterlimit:10"/><polyline points="470.32 114.89 475.49 118.9 515.72 113.79 519.73 108.62" style="fill:none;stroke:#7c3990;stroke-miterlimit:10"/><g id="robot-head"><polygon points="495.93 143.92 480.61 159.15 480.61 164.55 480.61 172.47 480.61 175.06 495.93 190.29 511.24 175.06 511.24 172.47 511.24 164.55 511.24 159.15 495.93 143.92" style="fill:#da1c5c;stroke:#7c3990;stroke-miterlimit:10"/><polyline points="495.93 143.92 480.61 159.15 480.61 164.55 480.61 172.47 480.61 175.06 495.93 190.29" style="fill:#f6ebf4;stroke:#7d3990;stroke-miterlimit:10"/><line x1="502.32" y1="171.27" x2="511.24" y2="175.06" style="fill:none;stroke:#7d3990;stroke-miterlimit:10"/><line x1="495.93" y1="177.62" x2="495.93" y2="190.29" style="fill:none;stroke:#7d3990;stroke-miterlimit:10"/><line x1="489.53" y1="171.27" x2="480.61" y2="175.06" style="fill:none;stroke:#7d3990;stroke-miterlimit:10"/><line x1="502.32" y1="162.94" x2="511.24" y2="159.15" style="fill:none;stroke:#7d3990;stroke-miterlimit:10"/><line x1="495.93" y1="156.58" x2="495.93" y2="143.92" style="fill:none;stroke:#7d3990;stroke-miterlimit:10"/><line x1="489.53" y1="162.94" x2="480.61" y2="159.15" style="fill:none;stroke:#7d3990;stroke-miterlimit:10"/><polygon points="495.93 156.58 489.53 162.94 489.53 164.55 489.53 170.23 489.53 171.27 495.93 177.63 502.32 171.27 502.32 170.23 502.32 164.55 502.32 162.94 495.93 156.58" style="fill:#e6cbe2;stroke:#7d3990;stroke-miterlimit:10"/><path d="M526,197.06V167.81a30.11,30.11,0,0,0-30.12-30.11h0a30.11,30.11,0,0,0-30.11,30.11v29.25Z" style="fill:#d1ecf2;opacity:0.4"/><polygon points="509.41 140.87 465.81 182.43 465.81 169.21 498.81 137.69 509.41 140.87" style="fill:#fff;opacity:0.65"/><polygon points="515.25 144.71 465.81 191.52 465.81 187.98 513.19 143.14 515.25 144.71" style="fill:#fff;opacity:0.65"/><path d="M526,197.06V167.8a30.11,30.11,0,0,0-30.12-30.11h0a30.11,30.11,0,0,0-30.11,30.12v29.07" style="fill:none;stroke:#7d3990;stroke-miterlimit:10"/><polyline points="447.49 167.88 495.02 116.42 546.39 167.88" style="fill:none;stroke:#7d3990;stroke-miterlimit:10"/><polyline points="546.39 167.88 546.39 215.64 496.94 249.67 447.49 215.64 447.49 167.88" style="fill:#ee2a7b;stroke:#7d3990;stroke-miterlimit:10"/><polyline points="497.01 167.88 497.01 207.56 496.94 249.67 447.49 215.64 447.49 167.88" style="fill:#fce9f1;stroke:#7d3990;stroke-linejoin:bevel"/><polyline points="546.39 194.68 546.39 167.88 447.49 167.88 447.49 194.68" style="fill:none;stroke:#7d3990;stroke-miterlimit:10"/><polyline points="475.28 167.88 475.28 203.4 495.93 215.84 516.57 203.41 516.57 167.88" style="fill:#e9b7d5;stroke:#7d3990;stroke-miterlimit:10"/><line x1="517.59" y1="203.41" x2="546.39" y2="215.64" style="fill:none;stroke:#7d3990;stroke-miterlimit:10"/><line x1="476.29" y1="203.4" x2="447.49" y2="215.64" style="fill:none;stroke:#7d3990;stroke-miterlimit:10"/><polygon points="447.49 167.88 447.49 215.64 496.94 249.67 546.39 215.64 546.39 167.88 447.49 167.88" style="fill:none;stroke:#7d3990;stroke-miterlimit:10"/><rect x="460.18" y="181.28" width="71.8" height="13.4" style="fill:#ee2a7b;stroke:#7d3990;stroke-miterlimit:10"/></g></g></g></g></svg>
