<svg xmlns="http://www.w3.org/2000/svg" xmlns:xlink="http://www.w3.org/1999/xlink" width="682" height="890.85" class="section__illustration__robot"><defs><linearGradient id="Fading_Sky" x1="16.63" y1="797.85" x2="663.08" y2="797.85" gradientUnits="userSpaceOnUse"><stop offset="0" stop-color="#2484c6"/><stop offset="1" stop-color="#2484c6" stop-opacity="0"/></linearGradient><linearGradient id="Fading_Sky-2" x1="37.7" y1="706.34" x2="642.64" y2="706.34" xlink:href="#Fading_Sky"/><linearGradient id="linear-gradient" x1="159.88" y1="871.26" x2="516.07" y2="572.38" gradientUnits="userSpaceOnUse"><stop offset="0" stop-color="#007a48"/><stop offset=".6" stop-color="#cbdb2a" stop-opacity="0"/></linearGradient></defs><g style="isolation:isolate"><g id="ILLO_7" data-name="ILLO 7"><path fill="#da1c5c" d="M468.08 444l14 .01 4.88 4.89 4.95-44.62h-33.7l5.68 43.9 4.19-4.18z"/><path d="M16.26 725.65s36.22 144.4 329.19 144.4c270.69 0 317.26-144.4 317.26-144.4z" fill="#dff2f4"/><path d="M16.63 725.65s38.58 144.4 329.18 144.4c270.69 0 317.27-144.4 317.27-144.4z" fill="url(#Fading_Sky)" style="fill:url(#Fading_Sky)"/><path fill="#da1c5c" stroke="#7c3990" stroke-miterlimit="10" d="M489.89 399.76h-29.66l-7.08-74.58h42.8l-6.06 74.58z"/><path fill="#e6cbe2" stroke="#7d3990" stroke-miterlimit="10" d="M356.5 277.76H404v23.11h-47.5zM356.5 282.98l47.49-2.02M356.5 286.7l47.49-2.03M356.5 290.41l47.49-2.02"/><path transform="rotate(-90 313.115 316.495)" fill="#e6cbe2" stroke="#7d3990" stroke-miterlimit="10" d="M298.11 309.81h30v13.38h-30z"/><path fill="#e6cbe2" stroke="#7d3990" stroke-miterlimit="10" d="M309.32 331.49l-.66-30M312.64 331.49l-.65-30M315.97 331.49l-.66-30"/><path transform="rotate(90 447.375 316.495)" fill="#e6cbe2" stroke="#7d3990" stroke-miterlimit="10" d="M432.38 309.81h30v13.38h-30z"/><path fill="#e6cbe2" stroke="#7d3990" stroke-miterlimit="10" d="M451.17 301.49l.65 30M447.85 301.49l.65 30M444.52 301.49l.66 30"/><path transform="rotate(180 338.175 563.48)" fill="#e6cbe2" stroke="#7d3990" stroke-miterlimit="10" d="M323.17 556.79h30v13.38h-30z"/><path fill="#e6cbe2" stroke="#7d3990" stroke-miterlimit="10" d="M353.17 567.28l-30 .65M353.17 563.95l-30 .66M353.17 560.63l-30 .65"/><path transform="rotate(-135 345.2135 467.8308)" fill="#e6cbe2" stroke="#7d3990" stroke-miterlimit="10" d="M334.34 454.29h21.75v27.08h-21.75z"/><path fill="#e6cbe2" stroke="#7d3990" stroke-miterlimit="10" d="M346.09 482.33l-15.84-14.91M348.82 479.6l-15.84-14.91M351.55 476.88l-15.84-14.92M354.28 474.15l-15.84-14.92M357.01 471.42l-15.84-14.92M359.74 468.69l-15.84-14.92"/><path transform="rotate(-45 415.9129 467.8332)" fill="#e6cbe2" stroke="#7d3990" stroke-miterlimit="10" d="M405.04 454.29h21.75v27.08h-21.75z"/><path fill="#e6cbe2" stroke="#7d3990" stroke-miterlimit="10" d="M415.03 482.33l15.84-14.91M412.3 479.6l15.85-14.91M409.57 476.88l15.85-14.92M406.85 474.15l15.84-14.92M404.12 471.42l15.84-14.92M401.39 468.69l15.84-14.92M139.67 301.81h11.83v373.88h-11.83zM247.61 301.81h13.26v373.88h-13.26z"/><path d="M200.42 343.43l46.83-32.85h.36v-.26l.29-.2-.29-.41v-.13h-.1l-.19-.28-.39.28h-94.76l-.39-.28-.19.28h-.1v.13l-.28.41.28.2v.26h.36l46.83 32.85-47.47 33.31.28.41-.28.41.28.2v.24h.36l46.83 32.85L152 443.61l-.24-.17-.19.27h-.1v.14l-.18.26-.1.07.1.08.18.25v.12h.09l.2.29.24-.17 46.66 32.74-47.47 33.31.28.41-.28.41.28.2v.25h.36L198.68 545 152 577.75l-.24-.17-.19.27h-.1v.15l-.18.26-.1.07.1.07.18.26v.12h.09l.2.29.24-.07 46.66 32.74-46.81 32.84h-.38v.27l-.28.2.28.41v.12h.09l.2.29.41-.29h94.72l.41.29.2-.29h.09v-.12l.29-.41-.29-.2v-.27h-.38l-46.81-32.84L247.08 579l.24.17.2-.29h.09v-.12l.18-.26.11-.07-.11-.07-.18-.26v-.14h-.1l-.19-.27-.24.17L200.42 545l46.83-32.86h.36v-.25l.29-.2-.29-.41.29-.41-47.48-33.31 46.66-32.74.24.17.2-.29h.09v-.12l.18-.25.11-.08-.11-.07-.18-.26v-.14h-.1l-.19-.27-.24.17-46.66-32.74L247.25 378h.36v-.26l.29-.2-.29-.41.29-.41zm-46.83-32.85h91.92l-46 32.24zM246.54 377h-94l47-33zm-1 267.53h-91.92l45.93-32.23zm-91.9-65.7h91.92l-46 32.25zm91.9-1h-91.93l45.94-32.23zm-45.99-33.43l-46-32.25h91.92zm47-33.25h-94l47-33zm-92.95-66.44h91.92l-46 32.25zm91.9-1h-91.88l45.93-32.23zm-45.94-33.45l-46-32.24h91.92z" fill="#7d3990"/><path fill="#ee2a7b" stroke="#7d3990" stroke-miterlimit="10" d="M128.52 285.01H271.6v17.36H128.52z"/><path d="M326.93 293.69h106.63a8.55 8.55 0 0 1 8.55 8.55v98.52H318.38v-98.52a8.55 8.55 0 0 1 8.55-8.55z" fill="#c51164"/><path d="M326.93 293.69h53.32v107.06h-61.87v-98.51a8.55 8.55 0 0 1 8.55-8.55z" fill="#da1c5c" stroke="#7c3990" stroke-miterlimit="10"/><path fill="#f26d79" stroke="#96388f" stroke-miterlimit="10" d="M357.24 472.69h46.01l18.8-17.06v-29.57h-83.61v29.57l18.8 17.06zM422.05 442.58h-83.61"/><path fill="#ee2a7b" stroke="#7d3990" stroke-miterlimit="10" d="M441.33 412.21H319.16l11.14 15.88h99.89l11.14-15.88z"/><path fill="#7d3990" stroke="#7d3990" stroke-miterlimit="10" d="M128.41 295.75l-2.06-2.06 2.06-2.07"/><path transform="rotate(-45 138.5385 293.6855)" fill="#7d3990" stroke="#7d3990" stroke-miterlimit="10" d="M137.08 292.23H140v2.92h-2.92z"/><path transform="rotate(-45 155.737 293.6817)" fill="#7d3990" stroke="#7d3990" stroke-miterlimit="10" d="M154.28 292.23h2.92v2.92h-2.92z"/><path transform="rotate(-45 174.5706 293.6905)" fill="#7d3990" stroke="#7d3990" stroke-miterlimit="10" d="M173.11 292.23h2.92v2.92h-2.92z"/><path transform="rotate(-45 191.769 293.6867)" fill="#7d3990" stroke="#7d3990" stroke-miterlimit="10" d="M190.31 292.23h2.92v2.92h-2.92z"/><path transform="rotate(-45 208.9674 293.6829)" fill="#7d3990" stroke="#7d3990" stroke-miterlimit="10" d="M207.51 292.23h2.92v2.92h-2.92z"/><path transform="rotate(-45 226.1608 293.6911)" fill="#7d3990" stroke="#7d3990" stroke-miterlimit="10" d="M224.71 292.23h2.92v2.92h-2.92z"/><path transform="rotate(-45 243.3713 293.6923)" fill="#7d3990" stroke="#7d3990" stroke-miterlimit="10" d="M241.91 292.23h2.92v2.92h-2.92z"/><path transform="rotate(-45 260.5697 293.6885)" fill="#7d3990" stroke="#7d3990" stroke-miterlimit="10" d="M259.11 292.23h2.92v2.92h-2.92z"/><path fill="#7d3990" stroke="#7d3990" stroke-miterlimit="10" d="M271.7 291.62l2.06 2.07-2.06 2.06"/><path fill="#b87bb5" d="M380.6 202.35l10.89-10.83v-11.24h-21.78v11.24l10.89 10.83z"/><path fill="#e6cae2" stroke="#7c3990" stroke-miterlimit="10" d="M380.6 180.28h-10.89v11.24l10.89 10.83"/><path fill="#bd92c2" stroke="#7d3990" stroke-miterlimit="10" d="M395.02 115.02H175.64l-14.73 14.81 14.73 14.8h219.38l14.73-14.8-14.73-14.81z"/><path fill="#975f99" stroke="#7e3a8f" stroke-linejoin="bevel" d="M395.17 115.02l14.72 14.81-14.72 14.8-3.67-8.62 6.15-6.18-6.15-6.19 3.67-8.62z"/><path fill="#f5ebf4" stroke="#7e3a8f" stroke-linejoin="bevel" d="M175.64 115.02l-14.73 14.81 14.73 14.8 3.66-8.62-6.14-6.18 6.14-6.19-3.66-8.62z"/><path fill="none" stroke="#7d3990" stroke-miterlimit="10" d="M179.3 136.01l-3.66 8.62M160.91 129.83h12.25M179.3 123.65l-3.66-8.63M391.36 136.01l3.66 8.62M397.5 129.83h12.25M391.36 123.65l3.66-8.63"/><path fill="#e6cbe2" stroke="#7d3990" stroke-miterlimit="10" d="M391.36 123.64H179.3l-6.14 6.19 6.14 6.18h212.06l6.14-6.18-6.14-6.19z"/><path fill="#fff" stroke="#7c3990" stroke-miterlimit="10" d="M196.82 142.26h4.9v142.75h-4.9zM247.99 142.26h5.49v142.38h-5.49z"/><path fill="none" stroke="#7d3990" stroke-miterlimit="10" d="M201.72 145.69h46.27"/><path d="M225.82 159.51L248.25 146l-.52-.85-22.88 13.81L202 145.11l-.51.85 22.43 13.55-22.43 13.54.26.43-.26.43.26.15v.07h.11l22.06 13.32-22 13.32h-.12v.07l-.26.16.16.27-.16.27.26.16v.07h.11l22.06 13.32-22.43 13.54.26.43-.26.43.26.15v.07h.11L223.89 243l-22 13.32h-.12v.07l-.26.16.16.27-.16.27.26.16v.07h.11l22.06 13.32-22.43 13.54.51.86 22.88-13.82 22.88 13.82.52-.86-22.43-13.54 22.06-13.32h.07v-.07l.26-.16-.17-.27.17-.27-.26-.16v-.07h-.12L225.82 243l22.06-13.32h.12v-.07l.26-.15-.26-.43.26-.43-22.43-13.54 22.06-13.32h.11v-.07l.26-.16-.17-.27.17-.27-.26-.16v-.07h-.12l-22.05-13.32 22.06-13.32h.11v-.07l.26-.15-.26-.43.26-.43zm20.63 13.62h-43.19l21.59-13zm-42.69 84.22H246l-21.1 12.74zm42.18-1h-42.17l21.08-12.73zm-21.09-13.9l-21.09-12.74H246zm21.6-13.74h-43.19l21.59-13zm-42.69-26.94H246l-21.1 12.73zm42.18-1h-42.17L224.85 188zm-21.09-13.9l-21.09-12.74H246z" fill="#7d3990"/><path fill="#da1c5c" stroke="#7c3990" stroke-miterlimit="10" d="M231.46 88.86h-34.64v56.67h56.67v-26.67l-22.03-30z"/><path fill="#d1ecf2" stroke="#7c3990" stroke-miterlimit="10" d="M243.09 118.16h-38.62V95.91h22.94l15.68 22.25z"/><path fill="#e6cbe2" stroke="#7d3990" stroke-miterlimit="10" d="M206.12 125.69h10.05"/><g id="arm-boat"><path fill="#da1c5c" stroke="#7c3990" stroke-miterlimit="10" d="M323.34 777.25l.8-29.65 74.75-5.05-1.16 42.78-74.39-8.08zM264.27 771.6l.56-20.55 54.85-5.59-.91 33.68-54.5-7.54z"/><path d="M256.32 768.87l-11.7 12-6.56.18-4.77-4.5-.18-6.56-6.82-2.6.34 12.14 8.83 8.34 12.14-.34 15.54-16.09z" fill="#c093c3"/><path d="M263.76 772.06l-15.54 16.08-.59.27-12.14.35-.62-.24-8.82-8.33-.27-.6-.35-12.14 1.16-.83 6.82 2.6.55.78.18 6.2 4.25 4 5.85-.17 11.46-11.77.92-.21 6.82 2.6zm-16.54 14.65l14.41-14.89-5.08-1.94-11.31 11.6-.6.27-6.55.19-.62-.23-4.77-4.51-.26-.6-.17-6-5.09-1.94.3 10.5 8.31 7.85z" fill="#7c3990"/><path d="M263.72 750.11l-14.65-16.91-12.1-1-9.26 7.85-1 12.1 7-2.23.54-6.53 5-4.24 6.54.54 11 12.64z" fill="#c093c3"/><path d="M264 750.92l-7 2.23-.92-.27-10.8-12.36-5.83-.49-4.45 3.78-.51 6.19-.6.74L227 753l-1.11-.89 1-12.1.3-.59 9.27-7.84.62-.2 12.11 1 .58.3 14.64 16.9zm-26.72-17.84l-8.73 7.39-.87 10.47 5.18-1.66.5-6 .3-.59 5-4.24.63-.2 6.54.55.58.3 10.66 12.2 5.18-1.66-13.6-15.64z" fill="#7c3990"/><path fill="#e6cae2" d="M245.92 753.3l-.39 13.99 9.62 10.17 13.99.4 10.17-9.62.4-14-9.62-10.17-13.99-.39-10.18 9.62z"/><path d="M280.59 753.91l-.42 14.71-10.69 10.11-14.71-.41-10.12-10.69.42-14.72 10.69-10.11 14.71.41zm-2.13 13.94l.37-13.27-9.12-9.65-13.28-.37-9.65 9.12-.37 13.32 9.12 9.65 13.28.37z" fill="#7c3990"/><path fill="#b87bb5" d="M245.53 767.29l.39-13.99 10.18-9.62 13.99.39 9.62 10.17-.4 14-6.37-2.85-20.88-.59-6.53 2.49z"/><path fill="#c093c3" d="M252.3 756.15l-.24 8.65 5.94 6.29 8.65.24 6.29-5.94.24-8.66-5.94-6.28-8.65-.25-6.29 5.95z"/><path d="M274.06 756.4l-.26 9.37-6.8 6.44-9.37-.26-6.44-6.81.26-9.37 6.81-6.45 9.37.27zm-2 8.6l.23-7.93-5.46-5.77-7.93-.22-5.77 5.45-.22 7.94 5.45 5.76 7.94.22z" fill="#7c3990"/><path transform="rotate(-20.89 248.8812 766.2058)" fill="#7c3990" d="M245.3 765.18h6.98v1.74h-6.98z"/><path transform="rotate(-65.89 249.0688 754.694)" fill="#7c3990" d="M248.24 751.23h1.74v6.98h-1.74z"/><path transform="rotate(-20.9 257.3618 747)" fill="#7c3990" d="M256.47 743.45h1.74v6.98h-1.74z"/><path transform="rotate(-65.89 268.6902 747.273)" fill="#7c3990" d="M265.17 746.39h6.98v1.74h-6.98z"/><path transform="rotate(-20.89 276.5428 755.6562)" fill="#7c3990" d="M272.95 754.62h6.98v1.74h-6.98z"/><path transform="rotate(-65.89 276.0869 766.7799)" fill="#7c3990" d="M275.26 763.32H277v6.98h-1.74z"/><path transform="rotate(-20.9 267.9311 774.6544)" fill="#7c3990" d="M267.03 771.1h1.74v6.98h-1.74z"/><path transform="rotate(-65.89 256.5994 774.2987)" fill="#7c3990" d="M253.08 773.41h6.98v1.74h-6.98z"/><path d="M280.59 753.91l-.42 14.71-10.69 10.11-14.71-.41-10.12-10.69.42-14.72 10.69-10.11 14.71.41zm-2.13 13.94l.37-13.27-9.12-9.65-13.28-.37-9.65 9.12-.37 13.32 9.12 9.65 13.28.37z" fill="#7c3990"/><circle cx="326.54" cy="762.5" r="19.44" fill="#e6cbe2" stroke="#7d3990" stroke-miterlimit="10"/><path d="M338.34 747.06a25.88 25.88 0 0 1-20.5 27.94 26.28 26.28 0 0 1-5.75.54 19.43 19.43 0 1 0 26.25-28.43z" fill="#96388f" stroke="#96388f" stroke-miterlimit="10" opacity=".13"/><circle cx="406.95" cy="763.55" r="25.32" fill="#f16d90" stroke="#96388f" stroke-miterlimit="10"/><path d="M423.85 744.72a33.68 33.68 0 0 1-37 34.2 25.3 25.3 0 1 0 37-34.2z" fill="#96388f" stroke="#96388f" stroke-miterlimit="10" opacity=".13"/><path fill="none" stroke="#7d3990" stroke-miterlimit="10" d="M449.34 800.63h-27.81M449.34 792.92h-27.81"/><path fill="#fff" opacity=".4" d="M477.77 778.21v-14.74l-12.76-7.37-12.77 7.37v14.74l12.77 7.37 12.76-7.37z"/><path fill="none" stroke="#7c3990" stroke-miterlimit="10" d="M477.77 778.21v-14.74l-12.76-7.37-12.77 7.37v14.74l12.77 7.37 12.76-7.37z"/><path fill="#da1c5c" d="M446.26 795.55v8.17h39.87l-3.46-8.17h-36.41zM484.41 794.82l3.48 8.18 14.59-14.66h-11.62l-6.45 6.48z"/><path fill="#f6ebf4" d="M490.86 786.45h11.62l-14.59-14.67-3.48 8.18 6.45 6.49zM486.13 771.06h-39.87v8.17h36.4l3.47-8.17zM504.75 787.39z"/><path fill="#e6cbe2" d="M489.13 787.39l-6.24-6.27h-36.63v12.54h36.64l6.23-6.27z"/><path d="M505.43 786.72L488 769.16h-41.7v36.46H488l18.13-18.23zm-14.57-.27l-6.45-6.45 3.48-8.18 14.59 14.66zm-8 7.21h-34.71v-12.54h34.74l6.24 6.27zm3.23-22.6l-3.47 8.17h-34.47v-8.17zm-38 32.66v-8.17h34.52l3.46 8.17zm39.74-.72l-3.48-8.18 6.45-6.48h11.62zm16.86-15.61z" fill="#7d398f"/><path fill="#bd92c2" stroke="#7d3990" stroke-miterlimit="10" d="M234.75 788.49h188.18v16.56H234.75z"/><path fill="#e6cbe2" stroke="#7d3990" stroke-miterlimit="10" d="M234.75 788.49h188.18v8.35H234.75z"/><path d="M392.05 788.73l9.52-50.5zM377.69 788.34l23.88-50.11 17.96 50.11M257.77 788.73l6.7-45.68 20.78 45.29 13.13-41.08" fill="none" stroke="#7c3990" stroke-linejoin="bevel"/><rect x="252.29" y="815.04" width="232.09" height="7.57" rx="3.22" ry="3.22" style="mix-blend-mode:multiply" fill="#c9c9c9" opacity=".45"/></g><path fill="#68c180" d="M611.84 686.52H70.22L37.7 725.66l604.94.5-30.8-39.64z"/><path style="mix-blend-mode:overlay" fill="url(#Fading_Sky-2)" d="M611.84 686.52H70.22L37.7 725.66l604.94.5-30.8-39.64z"/><path style="mix-blend-mode:overlay" fill="url(#linear-gradient)" d="M611.84 686.52H70.22L37.7 725.66l604.94.5-30.8-39.64z"/><path style="mix-blend-mode:multiply" fill="#39b54a" d="M611.84 686.52H70.22L37.7 725.66l604.94.5-30.8-39.64z"/><path style="mix-blend-mode:multiply" fill="#0fa04a" opacity=".25" d="M611.84 686.52H70.22l-32.21 39.14 604.63.5-30.8-39.64z"/><g opacity=".55" fill="#0fa049"><path d="M126.94 695.8a6.86 6.86 0 0 1-13.72 0M147.13 695.8a6.86 6.86 0 0 1-13.72 0M167.32 695.8a6.86 6.86 0 0 1-13.72 0M187.51 695.8a6.86 6.86 0 0 1-13.71 0M207.71 695.8a6.86 6.86 0 0 1-13.72 0M227.9 695.8a6.86 6.86 0 0 1-13.72 0M248.09 695.8a6.86 6.86 0 0 1-13.72 0M268.28 695.8a6.86 6.86 0 0 1-13.72 0M288.47 695.8a6.86 6.86 0 0 1-13.71 0M308.66 695.8a6.86 6.86 0 0 1-13.71 0M328.86 695.8a6.86 6.86 0 0 1-13.72 0M349.05 695.8a6.86 6.86 0 0 1-13.72 0M369.24 695.8a6.86 6.86 0 0 1-13.72 0M389.43 695.8a6.86 6.86 0 0 1-13.72 0M409.62 695.8a6.86 6.86 0 0 1-13.71 0M429.82 695.8a6.86 6.86 0 0 1-13.72 0M450 695.8a6.86 6.86 0 0 1-13.72 0M470.2 695.8a6.86 6.86 0 0 1-13.72 0M490.39 695.8a6.86 6.86 0 0 1-13.72 0M510.58 695.8a6.86 6.86 0 0 1-13.71 0M530.77 695.8a6.86 6.86 0 0 1-13.71 0M551 695.8a6.86 6.86 0 0 1-13.72 0M571.16 695.8a6.86 6.86 0 0 1-13.72 0M591.35 695.8a6.86 6.86 0 0 1-13.72 0M611.54 695.8a6.86 6.86 0 0 1-13.72 0M116.65 709.81a6.86 6.86 0 0 1-13.72 0M136.84 709.81a6.86 6.86 0 1 1-13.71 0M85.76 695.8a6.86 6.86 0 0 1-13.72 0M106 695.8a6.86 6.86 0 0 1-13.71 0M75.47 709.81a6.86 6.86 0 1 1-13.71 0M95.67 709.81a6.86 6.86 0 0 1-13.72 0M157 709.81a6.86 6.86 0 1 1-13.72 0M177.23 709.81a6.86 6.86 0 1 1-13.72 0M197.42 709.81a6.86 6.86 0 1 1-13.72 0M217.61 709.81a6.86 6.86 0 0 1-13.72 0M237.8 709.81a6.86 6.86 0 1 1-13.71 0M258 709.81a6.86 6.86 0 1 1-13.71 0M278.19 709.81a6.86 6.86 0 0 1-13.72 0M298.38 709.81a6.86 6.86 0 0 1-13.72 0M318.57 709.81a6.86 6.86 0 0 1-13.72 0M338.76 709.81a6.86 6.86 0 1 1-13.71 0M359 709.81a6.86 6.86 0 1 1-13.71 0M379.15 709.81a6.86 6.86 0 1 1-13.72 0M399.34 709.81a6.86 6.86 0 1 1-13.72 0M419.53 709.81a6.86 6.86 0 1 1-13.72 0M439.72 709.81a6.86 6.86 0 1 1-13.72 0M459.91 709.81a6.86 6.86 0 1 1-13.71 0M480.11 709.81a6.86 6.86 0 0 1-13.72 0M500.3 709.81a6.86 6.86 0 0 1-13.72 0M520.49 709.81a6.86 6.86 0 1 1-13.72 0M540.68 709.81a6.86 6.86 0 0 1-13.72 0M560.87 709.81a6.86 6.86 0 1 1-13.71 0M581.06 709.81a6.86 6.86 0 1 1-13.71 0M601.26 709.81a6.86 6.86 0 1 1-13.72 0M621.83 709.81a6.86 6.86 0 0 1-13.72 0" style="mix-blend-mode:multiply"/></g><path fill="#e6cbe2" stroke="#7d3990" stroke-miterlimit="10" d="M313.73 400.75h133.03v13.55H313.73z"/><g id="claw"><path d="M483.33 467l12.34 11.37.37 6.55-4.38 4.89-6.55.37-2.41 6.82 12.12-.67 8.1-9.05-.67-12.13-16.5-15.09z" fill="#c093c3"/><path d="M486.32 459.46l16.5 15.09.28.59.68 12.13-.22.62-8.1 9.05-.59.28-12.12.68-.86-1.14 2.41-6.89.77-.57 6.19-.34 3.9-4.36-.33-5.84-12.07-11.14-.23-.92 2.41-6.89zm15.09 16.13l-15.28-14-1.8 5.14 11.91 11 .29.6.36 6.54-.21.62-4.38 4.89-.59.29-6 .33-1.8 5.13 10.49-.58 7.63-8.52z" fill="#7c3990"/><path d="M464.37 460.1l-16.49 15.09-.68 12.13 8.1 9.05 12.12.67-2.42-6.88-6.55-.37-4.37-4.89.36-6.55L466.79 467z" fill="#c093c3"/><path d="M465.18 459.81l2.42 6.89-.24.92-12.07 11.14-.29 5.84 3.9 4.36 6.2.34.76.57 2.41 6.89-.86 1.14-12.12-.68-.59-.28-8.1-9.05-.22-.62.68-12.13.28-.59 16.5-15.09zM448.08 487l7.62 8.52 10.49.58-1.8-5.13-6-.33-.59-.29-4.37-4.89-.22-.62.36-6.54.29-.6 11.91-11-1.8-5.14-15.28 14z" fill="#7c3990"/><path fill="#e6cae2" d="M468.05 477.8l14 .01 9.9-9.89.02-14-9.89-9.91-14-.01-9.91 9.89-.01 14 9.89 9.91z"/><path d="M467.72 443.13h14.72l10.39 10.42v14.72l-10.42 10.4H467.7l-10.4-10.41v-14.73zm14 1.75h-13.28l-9.4 9.38v13.28l9.39 9.4h13.28l9.4-9.38v-13.28z" fill="#7c3990"/><path fill="#b87bb5" d="M482.05 477.81l-14-.01-9.89-9.91.01-14 9.91-9.89 14 .01-2.68 6.45-.02 20.9 2.67 6.45z"/><path fill="#c093c3" d="M470.72 471.35l8.66.01 6.12-6.12.01-8.65-6.11-6.13-8.66-.01-6.12 6.12-.01 8.65 6.11 6.13z"/><path d="M487.54 448.25l4.93-44.47h-34.83l5.66 43.76-6 6v14.72l10.4 10.41h14.71l10.42-10.4v-14.71zm2.89 5.36l-4.71 1.95-5.3-5.3 2-4.72zm-11.61-4h-7.5l-1.94-4.72h11.4zm.22 1.74l5.6 5.61v7.94l-5.64 5.59h-7.94l-5.6-5.62v-7.93l5.62-5.61zm-20.26-46.55h32.57l-4.72 42.57-4.19-4.21h-14.72l-3.52 3.51zm9 40.75l2 4.72-5.31 5.29-4.71-2zm-8.78 9.64l4.72 2v7.49l-4.72 1.91zm.66 13l4.71-1.95 5.3 5.31-2 4.71zm9.66 8.74l1.95-4.71h7.5l1.95 4.72zm13-.65l-2-4.72 5.31-5.3 4.71 2zm8.74-9.66l-4.72-2v-7.49l4.72-1.95z" fill="#7c3990"/></g><path d="M358.27 349.78l1.45-4.7-4.61 1.73a11 11 0 1 0 3.16 3z" fill="#cf82aa" stroke="#663695" stroke-miterlimit="10"/><circle cx="349.31" cy="356.14" r="6.33" fill="#da1c5c" stroke="#7c3990" stroke-miterlimit="10"/><path d="M343.37 313.07l-4.63-1.66 1.52 4.68a11 11 0 1 0 3.11-3z" fill="#cf82aa" stroke="#663695" stroke-miterlimit="10"/><circle cx="349.31" cy="322.31" r="6.33" fill="#da1c5c" stroke="#7c3990" stroke-miterlimit="10"/><path fill="#da1c5c" stroke="#7c3990" stroke-miterlimit="10" d="M400.34 334.29v-23.95M405.76 334.29v-23.95M411.18 334.29v-23.95M416.59 334.29v-23.95M422.01 334.29v-23.95M338.62 390.09v-10.56M344.04 390.09v-10.56M349.46 390.09v-10.56M354.88 390.09v-10.56M360.29 390.09v-10.56"/><path transform="rotate(-90 396.24 361.59)" fill="#e6cbe2" d="M390.75 356.94h10.98v9.3h-10.98z"/><path transform="rotate(-90 427.685 361.475)" fill="#e6cbe2" d="M422.2 356.83h10.98v9.3H422.2z"/><path transform="rotate(-90 406.815 351.035)" fill="#618bc8" d="M401.32 345.81h10.98v10.45h-10.98z"/><path transform="rotate(-90 417.7 350.36)" fill="#da1c5c" d="M412.21 345.3h10.98v10.13h-10.98z"/><path transform="rotate(-90 406.79 361.12)" fill="#da1c5c" d="M401.3 356.21h10.98v9.82H401.3z"/><path transform="rotate(-90 412.04 356.1)" fill="none" stroke="#7c3990" stroke-miterlimit="10" d="M401.06 335.65h21.97v40.9h-21.97z"/><path fill="none" stroke="#7c3990" stroke-miterlimit="10" d="M401.32 367.08v-21.96M412.04 367.08v-21.96M422.76 367.08v-21.96M432.49 356.1h-40.9"/><path transform="rotate(-90 406.815 384.855)" fill="#e6cbe2" d="M401.32 379.63h10.98v10.45h-10.98z"/><path transform="rotate(-90 417.7 384.81)" fill="#da1c5c" d="M411.82 379.75h11.75v10.13h-11.75z"/><path transform="rotate(-90 412.04 384.81)" fill="none" stroke="#7c3990" stroke-miterlimit="10" d="M406.17 364.36h11.75v40.9h-11.75z"/><path fill="none" stroke="#7c3990" stroke-miterlimit="10" d="M401.32 390.69v-11.75M412.04 390.69v-11.75M422.76 390.69v-11.75"/><circle cx="475.06" cy="396.96" r="19.44" fill="#e6cbe2" stroke="#7d3990" stroke-miterlimit="10"/><path d="M481.12 378.5a25.86 25.86 0 0 1-15.43 35.5 19.43 19.43 0 1 0 15.43-35.48z" fill="#96388f" stroke="#96388f" stroke-miterlimit="10" opacity=".13"/><circle cx="474.94" cy="316.55" r="25.32" fill="#f16d90" stroke="#96388f" stroke-miterlimit="10"/><path d="M482.83 292.51a33.72 33.72 0 0 1-20.09 46.2 25.3 25.3 0 1 0 20.09-46.2z" fill="#96388f" stroke="#96388f" stroke-miterlimit="10" opacity=".13"/><path d="M433.56 293.19h-1.4L381.48 223a7.42 7.42 0 0 0-.43-14.76v-5.64L392 191.73v-11.95h-5.2v-35.15h-1v35.15h-10.39v-35.15h-1v35.15h-5.2v11.95l10.84 10.77v6.73h.5a6.42 6.42 0 0 1 .25 12.83l-.25-.34-.24.33a6.42 6.42 0 0 1-6.09-5.54l-1 .13a7.44 7.44 0 0 0 6.39 6.37l-50.55 70.17h-2.14a9.06 9.06 0 0 0-9.05 9.05v99h124.74v-99a9.06 9.06 0 0 0-9.05-9.04zm-63.35-112.41H391v10.53l-10.4 10.33-10.39-10.33zm10.34 42.65l50.37 69.76H330.3zm61.06 176.82H318.88v-98a8.06 8.06 0 0 1 8.05-8.05h106.63a8.06 8.06 0 0 1 8.05 8.05z" fill="#7c3990"/><circle cx="447.2" cy="407.4" r="2.04" fill="#c51164" stroke="#7c3990" stroke-miterlimit="10"/><circle cx="338.53" cy="435.93" r="2.04" fill="#c51164" stroke="#7c3990" stroke-miterlimit="10"/><circle cx="352.43" cy="435.93" r="2.04" fill="#c51164" stroke="#7c3990" stroke-miterlimit="10"/><circle cx="366.34" cy="435.93" r="2.04" fill="#c51164" stroke="#7c3990" stroke-miterlimit="10"/><circle cx="380.24" cy="435.93" r="2.04" fill="#c51164" stroke="#7c3990" stroke-miterlimit="10"/><circle cx="394.15" cy="435.93" r="2.04" fill="#c51164" stroke="#7c3990" stroke-miterlimit="10"/><circle cx="408.06" cy="435.93" r="2.04" fill="#c51164" stroke="#7c3990" stroke-miterlimit="10"/><circle cx="421.96" cy="435.93" r="2.04" fill="#c51164" stroke="#7c3990" stroke-miterlimit="10"/><circle cx="313.93" cy="407.4" r="2.04" fill="#c51164" stroke="#7c3990" stroke-miterlimit="10"/><circle cx="327.25" cy="407.4" r="2.04" fill="#c51164" stroke="#7c3990" stroke-miterlimit="10"/><circle cx="340.58" cy="407.4" r="2.04" fill="#c51164" stroke="#7c3990" stroke-miterlimit="10"/><circle cx="353.91" cy="407.4" r="2.04" fill="#c51164" stroke="#7c3990" stroke-miterlimit="10"/><circle cx="367.24" cy="407.4" r="2.04" fill="#c51164" stroke="#7c3990" stroke-miterlimit="10"/><circle cx="380.56" cy="407.4" r="2.04" fill="#c51164" stroke="#7c3990" stroke-miterlimit="10"/><circle cx="393.89" cy="407.4" r="2.04" fill="#c51164" stroke="#7c3990" stroke-miterlimit="10"/><circle cx="407.22" cy="407.4" r="2.04" fill="#c51164" stroke="#7c3990" stroke-miterlimit="10"/><circle cx="420.55" cy="407.4" r="2.04" fill="#c51164" stroke="#7c3990" stroke-miterlimit="10"/><circle cx="433.87" cy="407.4" r="2.04" fill="#c51164" stroke="#7c3990" stroke-miterlimit="10"/><path fill="#c51164" stroke="#7c3990" stroke-miterlimit="10" d="M361.15 558.7h-45.96v-91.94l45.96 11.12v80.82z"/><path fill="#f6ebf4" d="M320.17 553.85l-4.91 4.85v-92.01l45.89 11.12-4.98 3.9-36-8.08v80.22z"/><path fill="#da1c5c" stroke="#7c3990" stroke-miterlimit="10" d="M356.17 553.85h-36v-80.22l36 8.08v72.14zM320.17 473.63l-4.91-6.94M356.17 481.71l4.92-3.9M356.17 553.85l4.92 4.92M320.17 553.85l-4.91 4.92"/><path fill="none" stroke="#7c3990" stroke-miterlimit="10" d="M361.15 558.7h-45.96v-91.94l45.96 11.12v80.82z"/><circle cx="327.34" cy="547.77" r="2.04" fill="#c51164" stroke="#7c3990" stroke-miterlimit="10"/><circle cx="349.14" cy="487.34" r="2.04" fill="#c51164" stroke="#7c3990" stroke-miterlimit="10"/><circle cx="349.14" cy="547.77" r="2.04" fill="#c51164" stroke="#7c3990" stroke-miterlimit="10"/><circle cx="327.34" cy="482.33" r="2.04" fill="#c51164" stroke="#7c3990" stroke-miterlimit="10"/><g id="robot-leg"><path fill="#da1c5c" stroke="#7c3990" stroke-miterlimit="10" d="M588.58 510.14l9.95 9.89v23.51l-9.95 9.89-9.95-9.89V520.03l9.95-9.89z"/><path fill="#f6ebf4" stroke="#7d3990" stroke-miterlimit="10" d="M588.58 510.14l9.95 9.89v23.51l-9.95 9.89"/><path fill="none" stroke="#7d3990" stroke-miterlimit="10" d="M584.42 541.08l-5.79 2.46M588.58 545.2v8.23M592.73 541.07l5.8 2.47M584.42 522.49l-5.79-2.46M588.58 518.37v-8.23M592.73 522.5l5.8-2.47"/><path fill="#e6cbe2" stroke="#7d3990" stroke-miterlimit="10" d="M588.58 518.37l4.15 4.13v18.57l-4.15 4.13-4.16-4.12v-18.59l4.16-4.12z"/><path fill="none" stroke="#7c3990" stroke-miterlimit="10" d="M578.9 500.64h19.43l13.73 13.74v39.5l-13.73 13.73H578.9l-13.73-13.73v-39.5l13.73-13.74z"/><path fill="#bd92c2" stroke="#7d3990" stroke-miterlimit="10" d="M612.06 539.32v22.42l-23.45 23.33-23.44-23.33v-22.42"/><path fill="#f5ebf4" stroke="#7d3990" stroke-linejoin="bevel" d="M612.06 539.32v22.42l-23.45 23.33-.03-23.33v-22.42"/><path fill="#e6cbe2" stroke="#7d3990" stroke-miterlimit="10" d="M578.82 539.32v16.62l9.79 9.73 9.79-9.73v-16.62"/><path fill="none" stroke="#7d3990" stroke-miterlimit="10" d="M578.82 555.94l-13.65 5.8M588.61 565.67v19.4M598.4 555.94l13.66 5.8"/><path fill="none" stroke="#7d3990" stroke-linecap="square" stroke-linejoin="bevel" d="M612.06 539.32h-46.89"/><path transform="rotate(-180 588.615 584.19)" fill="#da1c5c" stroke="#7c3990" stroke-miterlimit="10" d="M584.35 580.77h8.53v6.84h-8.53z"/><path transform="rotate(-180 590.745 584.19)" fill="#e6cbe2" stroke="#7c3990" stroke-miterlimit="10" d="M588.61 580.77h4.27v6.84h-4.27z"/><path d="M488.71 617.49l3.87-6.25-1.68-7.15-6.25-3.86-7.15 1.68 2.58 3.58 3.86-.91 3.38 2.09.91 3.86-2.09 3.38z" fill="#c093c3"/><path d="M488.29 617.79l-2.57-3.58v-.58l2-3.19-.81-3.44-3-1.87-3.65.86-.54-.2-2.58-3.58.3-.81 7.16-1.68.39.07 6.24 3.86.23.32 1.69 7.15-.07.4-3.87 6.24zm2.15-13.37l-5.88-3.64-6.18 1.45 1.92 2.68 3.52-.83.4.06 3.37 2.09.23.32.91 3.86-.06.4-1.91 3.07 1.92 2.68 3.35-5.41z" fill="#7c3990"/><path d="M480.83 620.23l-3 2.56-4-.35-2.55-3 .34-4-3.91-2-.64 7.32 4.73 5.62 7.32.63 5.62-4.72z" fill="#c093c3"/><path d="M485.08 622.66l-5.62 4.73-.38.12-7.31-.63-.36-.19-4.72-5.62-.12-.38.63-7.32.8-.37 3.91 2 .28.51-.32 3.74 2.23 2.75 3.53.3 2.87-2.41.57-.07 3.92 2zm-6.12 3.8l4.86-4.09-2.92-1.52-2.77 2.33-.38.12-3.95-.3-.35-.18-2.56-3-.12-.38.32-3.61-2.92-1.51-.55 6.33 4.45 5.29z" fill="#7c3990"/><path fill="#e6cae2" d="M478.41 615.66l3.46-4.09 5.34-.45 4.1 3.46.44 5.34-3.45 4.09-5.34.45-4.1-3.46-.45-5.34z"/><path d="M482.85 624.8l-4.31-3.63-.47-5.62 3.64-4.3 5.61-.47 4.3 3.63.48 5.62-3.64 4.3zm8.15-10.06l-3.89-3.28-5.06.43-3.28 3.88.42 5.07 3.89 3.28 5.06-.43 3.28-3.88z" fill="#7c3990"/><path fill="#b87bb5" d="M481.87 611.57l-3.46 4.09.45 5.34 4.1 3.46 5.34-.45 3.45-4.09-2.54-.81-6.11-5.16-1.23-2.38z"/><path fill="#c093c3" d="M480.96 616.48l2.14-2.53 3.3-.28 2.53 2.13.28 3.31-2.14 2.53-3.3.27-2.53-2.13-.28-3.3z"/><path d="M483.66 622.26l-2.74-2.32-.3-3.57 2.31-2.74 3.58-.3 2.74 2.31.3 3.58-2.31 2.78zm4.95-6.29l-2.32-2-3 .25-2 2.33.26 3 2.32 2 3-.25 2-2.32z" fill="#7c3990"/><path transform="rotate(-27.31 482.5483 612.8016)" fill="#7c3990" d="M482.15 611.42h.66v2.67h-.66z"/><path transform="rotate(-72.32 479.704 616.0764)" fill="#7c3990" d="M479.35 614.73h.66v2.67h-.66z"/><path transform="rotate(-27.31 479.958 620.3239)" fill="#7c3990" d="M478.71 620.06h2.67v.66h-2.67z"/><path transform="rotate(-72.32 483.3054 623.169)" fill="#7c3990" d="M482.03 622.86h2.67v.66h-2.67z"/><path transform="rotate(-27.31 487.7523 622.8713)" fill="#7c3990" d="M487.35 621.49h.66v2.67h-.66z"/><path transform="rotate(-72.32 490.506 619.5205)" fill="#7c3990" d="M490.15 618.18h.66v2.67h-.66z"/><path transform="rotate(-27.31 490.0277 615.12)" fill="#7c3990" d="M488.78 614.86h2.67v.66h-2.67z"/><path transform="rotate(-72.32 486.7514 612.3789)" fill="#7c3990" d="M485.47 612.06h2.67v.66h-2.67z"/><path d="M482.85 624.8l-4.31-3.63-.47-5.62 3.64-4.3 5.61-.47 4.3 3.63.48 5.62-3.64 4.3zm8.15-10.06l-3.89-3.28-5.06.43-3.28 3.88.42 5.07 3.89 3.28 5.06-.43 3.28-3.88z" fill="#7c3990"/><path fill="#c51164" stroke="#7c3990" stroke-miterlimit="10" d="M431.1 612.97h45.96v-91.94l-45.96 11.12v80.82z"/><path fill="#f6ebf4" d="M436.01 608.12l-4.91 4.85v-80.82l45.96-11.12-4.98 6.87-36 8.09-.07 72.13z"/><path fill="#da1c5c" stroke="#7c3990" stroke-miterlimit="10" d="M436.08 608.12h36V527.9l-36 8.09v72.13zM472.08 527.9l4.91-6.94M436.08 535.98l-4.92-3.9M436.08 608.12l-4.92 4.92M472.08 608.12l4.91 4.92"/><path fill="none" stroke="#7c3990" stroke-miterlimit="10" d="M431.1 612.97h45.96v-91.94l-45.96 11.12v80.82z"/><circle cx="464.92" cy="602.04" r="2.04" fill="#c51164" stroke="#7c3990" stroke-miterlimit="10"/><circle cx="443.11" cy="541.61" r="2.04" fill="#c51164" stroke="#7c3990" stroke-miterlimit="10"/><circle cx="443.11" cy="602.04" r="2.04" fill="#c51164" stroke="#7c3990" stroke-miterlimit="10"/><circle cx="464.92" cy="536.6" r="2.04" fill="#c51164" stroke="#7c3990" stroke-miterlimit="10"/><path d="M588.61 587.61s-1.07 43.94-36 31.18c-35.5-13-49.85 22.93-62.5 3" fill="none" stroke="#7d3990" stroke-miterlimit="10"/></g><path fill="#bd92c2" stroke="#7d3990" stroke-miterlimit="10" d="M319.52 570.21h37.32v74.74h-37.32z"/><path fill="#f6ebf4" d="M322.46 642.09l-2.9 2.86v-74.78h37.27l-2.94 2.91h-31.43v69.01z"/><path fill="#e6cbe2" stroke="#7d3990" stroke-miterlimit="10" d="M322.46 573.07h31.43v69.01h-31.43z"/><path fill="#da1c5c" stroke="#7c3990" stroke-miterlimit="10" d="M322.46 573.07l-2.9-2.9M353.89 573.07l2.9-2.9M353.89 642.09l2.9 2.9M322.46 642.09l-2.9 2.9"/><path fill="none" stroke="#7c3990" stroke-miterlimit="10" d="M319.52 570.21h37.32v74.74h-37.32z"/><circle cx="327.34" cy="577.99" r="2.04" fill="#c51164" stroke="#7c3990" stroke-miterlimit="10"/><circle cx="349.14" cy="577.99" r="2.04" fill="#c51164" stroke="#7c3990" stroke-miterlimit="10"/><circle cx="327.34" cy="637.35" r="2.04" fill="#c51164" stroke="#7c3990" stroke-miterlimit="10"/><circle cx="349.14" cy="637.35" r="2.04" fill="#c51164" stroke="#7c3990" stroke-miterlimit="10"/><path fill="#f4dfe8" d="M611.84 686.52H70.22l9.64-11.39h522.13l9.85 11.39z"/><path d="M356.83 644.54h-42.78a31.25 31.25 0 0 0-26.93 15.79 28.93 28.93 0 0 0-4 14.8h74.24z" fill="#ee2a7b"/><path d="M357.35 675.13l-.52-30.59h-42.78a31.25 31.25 0 0 0-26.93 15.79 28.93 28.93 0 0 0-4 14.8zm-5.67-1v-5.68h4.56l.09 5.68zM288 660.83a30.44 30.44 0 0 1 26.07-15.29h41.8l.37 21.91h-71.07a28.4 28.4 0 0 1 2.83-6.62zm-3.85 13.3a28.26 28.26 0 0 1 .78-5.68h3.45v5.68zm5.23 0v-5.68H294v5.68zm5.66 0v-5.68h4.67v5.68zm5.67 0v-5.68h4.67v5.68zm5.67 0v-5.68H311v5.68zm5.66 0v-5.68h4.67v5.68zm5.67 0v-5.68h4.66v5.68zm5.66 0v-5.68H328v5.68zm5.67 0v-5.68h4.67v5.68zm5.67 0v-5.68h4.66v5.68zm5.66 0v-5.68H345v5.68zm5.67 0v-5.68h4.66v5.68z" fill="#7d3990"/><path d="M85.35 202.35a26.72 26.72 0 0 0-24.93 17.11 7.09 7.09 0 0 0 6.65 9.59h36.57a7.09 7.09 0 0 0 6.64-9.59 26.71 26.71 0 0 0-24.93-17.11zM559.54 425.81a13 13 0 0 0-12.15 8.34 3.46 3.46 0 0 0 3.24 4.68h17.82a3.45 3.45 0 0 0 3.24-4.68 13 13 0 0 0-12.15-8.34zM64.64 517.92a13 13 0 0 0-12.15 8.34 3.46 3.46 0 0 0 3.24 4.68h17.82a3.46 3.46 0 0 0 3.24-4.68 13 13 0 0 0-12.15-8.34zM636.09 617.79a13 13 0 0 0-12.15 8.34 3.46 3.46 0 0 0 3.24 4.68H645a3.46 3.46 0 0 0 3.24-4.68 13 13 0 0 0-12.15-8.34zM344.24 218.76a34.81 34.81 0 0 1 32.12 21.39 3.64 3.64 0 0 0 5.74 1.45 15.87 15.87 0 0 1 25.58 7.13 3.69 3.69 0 0 1-3.5 4.83h-90.85a3.68 3.68 0 0 1-3.65-4.12 34.8 34.8 0 0 1 34.56-30.68zM452 247.5a17.72 17.72 0 0 0-33.06 0 4.7 4.7 0 0 0 4.41 6.36h24.24a4.71 4.71 0 0 0 4.41-6.36zM338.69 33.45a9.88 9.88 0 0 0-8.54-4.91 9.76 9.76 0 0 0-4.6 1.14 4.82 4.82 0 0 1-6.55-1.76 21.65 21.65 0 0 0-37-1.47c-1.75 2.63-6.08 3.13-10.86-1.66a21.64 21.64 0 0 0-34.84 1.66 5 5 0 0 1-7.67.77 15.77 15.77 0 0 0-26.17 6.49 3.63 3.63 0 0 0 3.54 4.71h129.79a3.33 3.33 0 0 0 2.9-4.97z" fill="#dff2f4"/><g id="helicopter"><path fill="none" stroke="#7c3990" stroke-miterlimit="10" d="M502.6 43.82l1.47 11.57"/><path transform="rotate(172.76 505.273 64.8472)" fill="#e6cbe2" d="M499.42 58.49h11.71v12.74h-11.71z"/><path transform="rotate(172.76 504.0053 54.8927)" fill="#da1c5c" stroke="#7c3990" stroke-miterlimit="10" d="M501.08 51.24h5.85v7.33h-5.85z"/><path fill="#da1c5c" d="M462.92 89.94l16-20.76 6.5-.83 11.01-1.4 3.12-.39 20.68 16.1-16 20.76-3.12.4-11.01 1.4-6.5.83-20.68-16.11z"/><path fill="#f6ebf4" d="M462.87 89.88l15.99-20.77 6.5-.82 11.02-1.4 3.12-.4 20.67 16.1"/><path fill="#e6cbe2" d="M478.17 88.01l6.67-8.68 1.94-.24 8.32-1.06 1.25-.16 8.63 6.73-6.67 8.67-1.25.15-8.32 1.06-1.94.25-8.63-6.72z"/><path transform="rotate(172.76 502.675 44.417)" fill="#da1c5c" stroke="#7c3990" stroke-miterlimit="10" d="M499.75 42.11h5.85v4.63h-5.85z"/><path d="M629.47 55.5l-.06-.5-75 9.53-.52-.4-.4.52-41.2 5.23-1.6-12.64-12.61 1.6.93 7.28-20.38 2.59L462.22 90l21.24 16.54 4.17-.53 1.37 10.67-13.34 1.7-5-3.88-.61.79 5.34 4.13 18.38-2.33-46.61 50.46.74.67 47.1-51.08 51 51.1.71-.71-50.61-50.74 19.69-2.5h.2l4.13-5.34-.79-.61-3.88 5L502.1 115l-1.35-10.65 3.75-.48 4.76-6.18 13.28-4.6.17.13.21-.26 32.26-11.19h.07l.07-.1 42.11-14.6L629.64 56zm-43.29 6l-3.43 4.43-4.43-3.43zm-18.25 2.32l-5.4 7-7-5.4zm-19.21 2.45l-8.08 10.43-10.43-8.08zm-27.29 3.46L515 78l-8.22-6.4zm-11.59-11.37L511.32 70l-3.86.49-1.75.22-5.65-4.4-.84-6.61zM499.39 69l.85-1.23L519 82.32l-13.85 1.76-8.2-6.39zm4.89 15.73L498 92.8l-11.1 1.41-8.07-6.29 6.24-8.11 11.1-1.41zm-5.42-17.54L496 77.42l-10.89 1.38-5.38-9.22zm-20 2.92l5.38 9.23-6.34 8.24-13.85 1.72zm4.46 35.12l-19.14-14.9 13.82-1.8 8.19 6.39zm17.79 10l-5.91.75-.19-.19-.23.25-4.8.61-1.36-10.65 11.14-1.41zm-16.82-9.69l2.9-10.27 10.86-1.38 5.37 9.22zm20-2.92l-5.38-9.22 6.34-8.24 13.85-1.76zm6.09-6.26l6.07-7.88 5.15 4zM522.73 92l-5.67-4.4 3.87-5-5.1-4 7-9 6-.76L540 77.49l-9 11.62zm10-3.48l8.06-10.41 6.79 5.26zm22-7.62l-6 2.08-7.31-5.66 8.69-11.22 4-.51 7.77 6zm1.73-.59l6.27-8.1 5.27 4.08zm12.67-4.4l-5.79-4.49 6-7.76 7.69-1 5.17 4-4.93 6.36zm9.83-3.41l4-5.15 3.36 2.6zm17.92-6.21l-9.75 3.38.17-.22-3.74-2.89 4.05-5.22 14.54-1.85zm1.73-.6l4.58-5.92 3.86 3zm9.57-3.32l-4-3.13 20.66-2.63z" fill="#7d3990"/><g id="robot-head"><path fill="#da1c5c" stroke="#7c3990" stroke-miterlimit="10" d="M495.93 143.92l-15.32 15.23v15.91l15.32 15.23 15.31-15.23v-15.91l-15.31-15.23z"/><path fill="#f6ebf4" stroke="#7d3990" stroke-miterlimit="10" d="M495.93 143.92l-15.32 15.23v15.91l15.32 15.23"/><path fill="none" stroke="#7d3990" stroke-miterlimit="10" d="M502.32 171.27l8.92 3.79M495.93 177.62v12.67M489.53 171.27l-8.92 3.79M502.32 162.94l8.92-3.79M495.93 156.58v-12.66M489.53 162.94l-8.92-3.79"/><path fill="#e6cbe2" stroke="#7d3990" stroke-miterlimit="10" d="M495.93 156.58l-6.4 6.36v8.33l6.4 6.36 6.39-6.36v-8.33l-6.39-6.36z"/><path d="M526 197.06v-29.25a30.11 30.11 0 0 0-30.12-30.11 30.11 30.11 0 0 0-30.11 30.11v29.25z" fill="#d1ecf2" opacity=".4"/><path fill="#fff" opacity=".65" d="M509.41 140.87l-43.6 41.56v-13.22l33-31.52 10.6 3.18zM515.25 144.71l-49.44 46.81v-3.54l47.38-44.84 2.06 1.57z"/><path d="M526 197.06V167.8a30.11 30.11 0 0 0-30.12-30.11 30.11 30.11 0 0 0-30.11 30.12v29.07" fill="none" stroke="#7d3990" stroke-miterlimit="10"/><path fill="#ee2a7b" stroke="#7d3990" stroke-miterlimit="10" d="M546.39 167.88v47.76l-49.45 34.03-49.45-34.03v-47.76"/><path fill="#fce9f1" d="M496.08 167.88l.71 81.52-49.89-34.06v-47.46h49.41"/><path fill="none" stroke="#7d3990" stroke-miterlimit="10" d="M546.39 194.68v-26.8h-98.9v26.8"/><path fill="#e9b7d5" d="M475.28 167.88v35.52l20.65 12.44 20.64-12.43v-35.53"/><path d="M546.89 167.38H446.4v48.22l18.33 12.52 31.92 22 .29.19.12-.08.24.16V250l49.59-34.13zm-1 47.52l-28.82-11.82v-34.7h28.82zm-29.82-46.52v34.75L497 214.62l-1.06.64-20.15-12.14v-34.74zm-19.79 80.07l-30.95-21.13-17.15-11.81L475.29 204l20.64 12.44.07-.05zm-21.5-80.07v34.74L448 214.51v-46.13zM497 215.79L516.62 204l28.72 11.78-48.05 33.07z" fill="#7d3990"/><path fill="#ee2a7b" stroke="#7d3990" stroke-miterlimit="10" d="M460.18 181.28h71.8v13.4h-71.8z"/></g><path fill="#e6cae2" d="M622.22 46.91l7.15-.91 5.69 4.41.91 7.14-4.41 5.7-7.15.91-5.69-4.42-.91-7.14 4.41-5.69z"/><path d="M618.3 60l-.95-7.52 4.63-6 7.51-1 6 4.64.95 7.51-4.63 6-7.51 1zm17.2-2.56l-.86-6.78-5.4-4.18-6.78.86-4.18 5.4.86 6.78 5.4 4.18 6.78-.86z" fill="#7c3990"/><path fill="#b87bb5" d="M629.37 46l-7.15.91-4.41 5.69.91 7.14 5.69 4.42 7.15-.91-1.78-3.12-1.36-10.66.95-3.47z"/><path fill="#c093c3" d="M624 50.03l4.42-.56 3.52 2.72.56 4.42-2.72 3.52-4.42.56-3.52-2.73-.56-4.41 2.72-3.52z"/><path d="M621.42 58.2l-.61-4.78 3-3.81 4.78-.61 3.81 3 .61 4.79-3 3.81-4.79.61zM632 56.48l-.52-4-3.23-2.5-4 .52-2.5 3.22.52 4 3.23 2.5 4-.51z" fill="#7c3990"/><path transform="rotate(-74.74 628.911 47.7246)" fill="#7c3990" d="M627.1 47.29h3.59v.89h-3.59z"/><path transform="rotate(-29.75 623.1203 48.4627)" fill="#7c3990" d="M622.67 46.67h.89v3.59h-.89z"/><path transform="rotate(-74.73 619.581 53.0564)" fill="#7c3990" d="M619.1 51.28h.89v3.59h-.89z"/><path transform="rotate(-29.74 620.361 58.8443)" fill="#7c3990" d="M618.48 58.41h3.59v.89h-3.59z"/><path transform="rotate(-74.74 624.896 62.4143)" fill="#7c3990" d="M623.09 61.98h3.59v.89h-3.59z"/><path transform="rotate(-29.75 630.6749 61.674)" fill="#7c3990" d="M630.22 59.89h.89v3.59h-.89z"/><path transform="rotate(-74.73 634.2712 57.059)" fill="#7c3990" d="M633.79 55.28h.89v3.59h-.89z"/><path transform="rotate(-29.74 633.576 51.286)" fill="#7c3990" d="M631.7 50.85h3.59v.89h-3.59z"/><path d="M618.3 60l-.95-7.52 4.63-6 7.51-1 6 4.64.95 7.51-4.63 6-7.51 1zm17.2-2.56l-.86-6.78-5.4-4.18-6.78.86-4.18 5.4.86 6.78 5.4 4.18 6.78-.86z" fill="#7c3990"/><g id="tail-blades"><path fill="#e6cbe2" d="M637.24 27.53l-10.43 27.98 3.18-23.75 7.25-4.23z"/><path d="M629.75 31.73l.11-.17 7.26-4.24.35.29L627 55.59l-.47-.11zm.46.18l-2.87 21.51 9.44-25.34z" fill="#7c3990"/><path fill="#e6cbe2" d="M616.54 82.63l10.43-27.98-3.17 23.74-7.26 4.24z"/><path d="M624 78.42l-.11.18-7.26 4.24-.35-.3 10.43-28 .47.12zm-.46-.18l2.88-21.5L617 82.08z" fill="#7c3990"/><path fill="#e6cbe2" d="M654.44 65.43L626.46 55l23.75 3.17 4.23 7.26z"/><path d="M650.24 57.93l.17.12 4.24 7.26-.29.35-28-10.43.11-.47zm-.18.47l-21.51-2.88L653.89 65z" fill="#7c3990"/><path fill="#e6cbe2" d="M599.34 44.72l27.98 10.44-23.74-3.18-4.24-7.26z"/><path d="M603.54 52.22l-.17-.12-4.24-7.25.29-.35 28 10.43-.11.46zm.18-.46l21.51 2.87-25.34-9.44z" fill="#7c3990"/></g></g></g></g></svg>