<svg id="rupie-tokens" xmlns="http://www.w3.org/2000/svg" xmlns:xlink="http://www.w3.org/1999/xlink" width="1421.93" height="330.27" viewBox="0 0 1421.93 330.27"><defs><clipPath id="clip-path"><path d="M637.13,162.71h9.27a54,54,0,1,0,0-108h-9.27" style="fill:none"/></clipPath><clipPath id="clip-path-2"><path d="M768.48,162.71h9.28a54,54,0,1,0,0-108h-9.28" style="fill:none"/></clipPath><clipPath id="clip-path-3"><path d="M637.13,284.45h9.27a54,54,0,1,0,0-108h-9.27" style="fill:none"/></clipPath><clipPath id="clip-path-4"><path d="M768.48,284.45h9.28a54,54,0,1,0,0-108h-9.28" style="fill:none"/></clipPath></defs><title>Artboard 1</title><g style="opacity:0.8"><rect x="1031.82" y="230.43" width="342.92" height="30.64" transform="translate(2406.56 491.5) rotate(-180)" style="fill:#fff"/></g><g id="rupie-right-tube"><g id="rupie"><polygon points="1010.19 245.51 1017.65 238.01 1044.56 238.01 1052.02 245.51 1044.56 253 1017.65 253 1010.19 245.51" style="fill:#fde9f2"/><polygon points="1010.19 245.51 1010.19 245.51 1052.02 245.51 1052.02 245.51 1044.56 253 1017.65 253 1010.19 245.51" style="fill:#ee2e7b"/><polygon points="1015.36 245.51 1019.16 241.69 1043.05 241.69 1046.85 245.51 1043.05 249.33 1019.16 249.33 1015.36 245.51" style="fill:#eab7d5"/><polygon points="1035.84 239.09 1018.1 239.09 1011.71 245.51 1018.1 251.92 1035.84 251.92 1035.84 253 1017.65 253 1010.19 245.51 1017.65 238.01 1035.84 238.01 1035.84 239.09" style="fill:#a12573"/><rect x="1010.95" y="244.97" width="5.17" height="1.08" style="fill:#a12573"/><rect x="1016.57" y="249.85" width="4.3" height="1.08" transform="matrix(0.38, -0.92, 0.92, 0.38, 399.27, 1097.01)" style="fill:#a12573"/><rect x="1018.18" y="238.27" width="1.08" height="4.3" transform="translate(-14.78 406.19) rotate(-22.39)" style="fill:#a12573"/><polygon points="1035.84 242.76 1019.61 242.76 1016.88 245.51 1019.61 248.25 1035.84 248.25 1035.84 249.33 1019.16 249.33 1015.36 245.51 1019.16 241.69 1035.84 241.69 1035.84 242.76" style="fill:#a12573"/><polygon points="1034.44 239.09 1044.12 239.09 1050.5 245.51 1044.12 251.92 1034.44 251.92 1034.44 253 1044.56 253 1052.02 245.51 1044.56 238.01 1034.44 238.01 1034.44 239.09" style="fill:#a12573"/><rect x="1046.09" y="244.97" width="5.17" height="1.08" style="fill:#a12573"/><rect x="1042.95" y="248.24" width="1.08" height="4.3" transform="translate(-16.72 416.32) rotate(-22.39)" style="fill:#a12573"/><rect x="1041.34" y="239.88" width="4.3" height="1.08" transform="translate(423.82 1113.74) rotate(-67.62)" style="fill:#a12573"/><polygon points="1034.44 242.76 1042.6 242.76 1045.33 245.51 1042.6 248.25 1034.44 248.25 1034.44 249.33 1043.05 249.33 1046.85 245.51 1043.05 241.69 1034.44 241.69 1034.44 242.76" style="fill:#a12573"/></g><g id="rupie-2" data-name="rupie"><polygon points="1062.31 245.51 1069.76 238.01 1096.68 238.01 1104.13 245.51 1096.68 253 1069.76 253 1062.31 245.51" style="fill:#fde9f2"/><polygon points="1062.31 245.51 1062.31 245.51 1104.13 245.51 1104.13 245.51 1096.68 253 1069.76 253 1062.31 245.51" style="fill:#ee2e7b"/><polygon points="1067.47 245.51 1071.28 241.69 1095.16 241.69 1098.96 245.51 1095.16 249.33 1071.28 249.33 1067.47 245.51" style="fill:#eab7d5"/><polygon points="1087.95 239.09 1070.21 239.09 1063.83 245.51 1070.21 251.92 1087.95 251.92 1087.95 253 1069.76 253 1062.31 245.51 1069.76 238.01 1087.95 238.01 1087.95 239.09" style="fill:#a12573"/><rect x="1063.07" y="244.97" width="5.17" height="1.08" style="fill:#a12573"/><rect x="1068.68" y="249.85" width="4.3" height="1.08" transform="translate(431.54 1145.2) rotate(-67.62)" style="fill:#a12573"/><rect x="1070.3" y="238.27" width="1.08" height="4.3" transform="translate(-10.85 426.04) rotate(-22.39)" style="fill:#a12573"/><polygon points="1087.95 242.76 1071.72 242.76 1069 245.51 1071.72 248.25 1087.95 248.25 1087.95 249.33 1071.28 249.33 1067.47 245.51 1071.28 241.69 1087.95 241.69 1087.95 242.76" style="fill:#a12573"/><polygon points="1086.55 239.09 1096.23 239.09 1102.61 245.51 1096.23 251.92 1086.55 251.92 1086.55 253 1096.68 253 1104.13 245.51 1096.68 238.01 1086.55 238.01 1086.55 239.09" style="fill:#a12573"/><rect x="1098.2" y="244.97" width="5.17" height="1.08" style="fill:#a12573"/><rect x="1095.06" y="248.24" width="1.08" height="4.3" transform="translate(-12.79 436.16) rotate(-22.39)" style="fill:#a12573"/><rect x="1093.45" y="239.88" width="4.3" height="1.08" transform="translate(456.09 1161.93) rotate(-67.62)" style="fill:#a12573"/><polygon points="1086.55 242.76 1094.71 242.76 1097.44 245.51 1094.71 248.25 1086.55 248.25 1086.55 249.33 1095.16 249.33 1098.96 245.51 1095.16 241.69 1086.55 241.69 1086.55 242.76" style="fill:#a12573"/></g><g id="rupie-3" data-name="rupie"><polygon points="1114.49 245.51 1121.94 238.01 1148.86 238.01 1156.31 245.51 1148.86 253 1121.94 253 1114.49 245.51" style="fill:#fde9f2"/><polygon points="1114.49 245.51 1114.49 245.51 1156.31 245.51 1156.31 245.51 1148.86 253 1121.94 253 1114.49 245.51" style="fill:#ee2e7b"/><polygon points="1119.66 245.51 1123.46 241.69 1147.34 241.69 1151.14 245.51 1147.34 249.33 1123.46 249.33 1119.66 245.51" style="fill:#eab7d5"/><polygon points="1140.13 239.09 1122.39 239.09 1116.01 245.51 1122.39 251.92 1140.13 251.92 1140.13 253 1121.94 253 1114.49 245.51 1121.94 238.01 1140.13 238.01 1140.13 239.09" style="fill:#a12573"/><rect x="1115.25" y="244.97" width="5.17" height="1.08" style="fill:#a12573"/><rect x="1120.87" y="249.85" width="4.3" height="1.08" transform="translate(463.85 1193.45) rotate(-67.62)" style="fill:#a12573"/><rect x="1122.48" y="238.27" width="1.08" height="4.3" transform="translate(-6.91 445.92) rotate(-22.39)" style="fill:#a12573"/><polygon points="1140.13 242.76 1123.9 242.76 1121.18 245.51 1123.9 248.25 1140.13 248.25 1140.13 249.33 1123.46 249.33 1119.66 245.51 1123.46 241.69 1140.13 241.69 1140.13 242.76" style="fill:#a12573"/><polygon points="1138.73 239.09 1148.41 239.09 1154.79 245.51 1148.41 251.92 1138.73 251.92 1138.73 253 1148.86 253 1156.31 245.51 1148.86 238.01 1138.73 238.01 1138.73 239.09" style="fill:#a12573"/><rect x="1150.38" y="244.97" width="5.17" height="1.08" style="fill:#a12573"/><rect x="1147.24" y="248.24" width="1.08" height="4.3" transform="translate(-8.85 456.04) rotate(-22.39)" style="fill:#a12573"/><rect x="1145.63" y="239.88" width="4.3" height="1.08" transform="matrix(0.38, -0.92, 0.92, 0.38, 488.4, 1210.18)" style="fill:#a12573"/><polygon points="1138.73 242.76 1146.9 242.76 1149.62 245.51 1146.9 248.25 1138.73 248.25 1138.73 249.33 1147.34 249.33 1151.14 245.51 1147.34 241.69 1138.73 241.69 1138.73 242.76" style="fill:#a12573"/></g><g id="rupie-4" data-name="rupie"><polygon points="1166.26 245.51 1173.72 238.01 1200.63 238.01 1208.09 245.51 1200.63 253 1173.72 253 1166.26 245.51" style="fill:#fde9f2"/><polygon points="1166.26 245.51 1166.26 245.51 1208.09 245.51 1208.09 245.51 1200.63 253 1173.72 253 1166.26 245.51" style="fill:#ee2e7b"/><polygon points="1171.43 245.51 1175.23 241.69 1199.12 241.69 1202.92 245.51 1199.12 249.33 1175.23 249.33 1171.43 245.51" style="fill:#eab7d5"/><polygon points="1191.91 239.09 1174.17 239.09 1167.78 245.51 1174.17 251.92 1191.91 251.92 1191.91 253 1173.72 253 1166.26 245.51 1173.72 238.01 1191.91 238.01 1191.91 239.09" style="fill:#a12573"/><rect x="1167.02" y="244.97" width="5.17" height="1.08" style="fill:#a12573"/><rect x="1172.64" y="249.85" width="4.3" height="1.08" transform="translate(495.91 1241.32) rotate(-67.62)" style="fill:#a12573"/><rect x="1174.25" y="238.27" width="1.08" height="4.3" transform="translate(-3.01 465.64) rotate(-22.39)" style="fill:#a12573"/><polygon points="1191.91 242.76 1175.68 242.76 1172.95 245.51 1175.68 248.25 1191.91 248.25 1191.91 249.33 1175.23 249.33 1171.43 245.51 1175.23 241.69 1191.91 241.69 1191.91 242.76" style="fill:#a12573"/><polygon points="1190.51 239.09 1200.19 239.09 1206.57 245.51 1200.19 251.92 1190.51 251.92 1190.51 253 1200.63 253 1208.09 245.51 1200.63 238.01 1190.51 238.01 1190.51 239.09" style="fill:#a12573"/><rect x="1202.16" y="244.97" width="5.17" height="1.08" style="fill:#a12573"/><rect x="1199.02" y="248.24" width="1.08" height="4.3" transform="translate(-4.95 475.76) rotate(-22.39)" style="fill:#a12573"/><rect x="1197.41" y="239.88" width="4.3" height="1.08" transform="translate(520.46 1258.05) rotate(-67.62)" style="fill:#a12573"/><polygon points="1190.51 242.76 1198.67 242.76 1201.4 245.51 1198.67 248.25 1190.51 248.25 1190.51 249.33 1199.12 249.33 1202.92 245.51 1199.12 241.69 1190.51 241.69 1190.51 242.76" style="fill:#a12573"/></g><g id="rupie-5" data-name="rupie"><polygon points="1217.5 245.51 1224.96 238.01 1251.87 238.01 1259.33 245.51 1251.87 253 1224.96 253 1217.5 245.51" style="fill:#fde9f2"/><polygon points="1217.5 245.51 1217.5 245.51 1259.33 245.51 1259.33 245.51 1251.87 253 1224.96 253 1217.5 245.51" style="fill:#ee2e7b"/><polygon points="1222.67 245.51 1226.47 241.69 1250.36 241.69 1254.16 245.51 1250.36 249.33 1226.47 249.33 1222.67 245.51" style="fill:#eab7d5"/><polygon points="1243.15 239.09 1225.4 239.09 1219.02 245.51 1225.4 251.92 1243.15 251.92 1243.15 253 1224.96 253 1217.5 245.51 1224.96 238.01 1243.15 238.01 1243.15 239.09" style="fill:#a12573"/><rect x="1218.26" y="244.97" width="5.17" height="1.08" style="fill:#a12573"/><rect x="1223.88" y="249.85" width="4.3" height="1.08" transform="matrix(0.38, -0.92, 0.92, 0.38, 527.63, 1288.7)" style="fill:#a12573"/><rect x="1225.49" y="238.27" width="1.08" height="4.3" transform="translate(0.85 485.16) rotate(-22.39)" style="fill:#a12573"/><polygon points="1243.15 242.76 1226.92 242.76 1224.19 245.51 1226.92 248.25 1243.15 248.25 1243.15 249.33 1226.47 249.33 1222.67 245.51 1226.47 241.69 1243.15 241.69 1243.15 242.76" style="fill:#a12573"/><polygon points="1241.75 239.09 1251.42 239.09 1257.81 245.51 1251.42 251.92 1241.75 251.92 1241.75 253 1251.87 253 1259.33 245.51 1251.87 238.01 1241.75 238.01 1241.75 239.09" style="fill:#a12573"/><rect x="1253.4" y="244.97" width="5.17" height="1.08" style="fill:#a12573"/><rect x="1250.26" y="248.24" width="1.08" height="4.3" transform="translate(-1.09 495.28) rotate(-22.39)" style="fill:#a12573"/><rect x="1248.65" y="239.88" width="4.3" height="1.08" transform="translate(552.19 1305.43) rotate(-67.62)" style="fill:#a12573"/><polygon points="1241.75 242.76 1249.91 242.76 1252.64 245.51 1249.91 248.25 1241.75 248.25 1241.75 249.33 1250.36 249.33 1254.16 245.51 1250.36 241.69 1241.75 241.69 1241.75 242.76" style="fill:#a12573"/></g><g id="rupie-6" data-name="rupie"><polygon points="1269.62 245.51 1277.07 238.01 1303.99 238.01 1311.44 245.51 1303.99 253 1277.07 253 1269.62 245.51" style="fill:#fde9f2"/><polygon points="1269.62 245.51 1269.62 245.51 1311.44 245.51 1311.44 245.51 1303.99 253 1277.07 253 1269.62 245.51" style="fill:#ee2e7b"/><polygon points="1274.79 245.51 1278.59 241.69 1302.47 241.69 1306.27 245.51 1302.47 249.33 1278.59 249.33 1274.79 245.51" style="fill:#eab7d5"/><polygon points="1295.26 239.09 1277.52 239.09 1271.13 245.51 1277.52 251.92 1295.26 251.92 1295.26 253 1277.07 253 1269.62 245.51 1277.07 238.01 1295.26 238.01 1295.26 239.09" style="fill:#a12573"/><rect x="1270.38" y="244.97" width="5.17" height="1.08" style="fill:#a12573"/><rect x="1275.99" y="249.85" width="4.3" height="1.08" transform="translate(559.9 1336.89) rotate(-67.62)" style="fill:#a12573"/><rect x="1277.61" y="238.27" width="1.08" height="4.3" transform="translate(4.78 505.01) rotate(-22.39)" style="fill:#a12573"/><polygon points="1295.26 242.76 1279.03 242.76 1276.31 245.51 1279.03 248.25 1295.26 248.25 1295.26 249.33 1278.59 249.33 1274.79 245.51 1278.59 241.69 1295.26 241.69 1295.26 242.76" style="fill:#a12573"/><polygon points="1293.86 239.09 1303.54 239.09 1309.92 245.51 1303.54 251.92 1293.86 251.92 1293.86 253 1303.99 253 1311.44 245.51 1303.99 238.01 1293.86 238.01 1293.86 239.09" style="fill:#a12573"/><rect x="1305.51" y="244.97" width="5.17" height="1.08" style="fill:#a12573"/><rect x="1302.37" y="248.24" width="1.08" height="4.3" transform="translate(2.84 515.12) rotate(-22.39)" style="fill:#a12573"/><rect x="1300.76" y="239.88" width="4.3" height="1.08" transform="translate(584.45 1353.62) rotate(-67.62)" style="fill:#a12573"/><polygon points="1293.86 242.76 1302.02 242.76 1304.75 245.51 1302.02 248.25 1293.86 248.25 1293.86 249.33 1302.47 249.33 1306.27 245.51 1302.47 241.69 1293.86 241.69 1293.86 242.76" style="fill:#a12573"/></g><g id="rupie-7" data-name="rupie"><polygon points="1321.8 245.51 1329.25 238.01 1356.17 238.01 1363.62 245.51 1356.17 253 1329.25 253 1321.8 245.51" style="fill:#fde9f2"/><polygon points="1321.8 245.51 1321.8 245.51 1363.62 245.51 1363.62 245.51 1356.17 253 1329.25 253 1321.8 245.51" style="fill:#ee2e7b"/><polygon points="1326.97 245.51 1330.77 241.69 1354.65 241.69 1358.45 245.51 1354.65 249.33 1330.77 249.33 1326.97 245.51" style="fill:#eab7d5"/><polygon points="1347.44 239.09 1329.7 239.09 1323.32 245.51 1329.7 251.92 1347.44 251.92 1347.44 253 1329.25 253 1321.8 245.51 1329.25 238.01 1347.44 238.01 1347.44 239.09" style="fill:#a12573"/><rect x="1322.56" y="244.97" width="5.17" height="1.08" style="fill:#a12573"/><rect x="1328.18" y="249.85" width="4.3" height="1.08" transform="translate(592.21 1385.14) rotate(-67.62)" style="fill:#a12573"/><rect x="1329.79" y="238.27" width="1.08" height="4.3" transform="translate(8.72 524.89) rotate(-22.39)" style="fill:#a12573"/><polygon points="1347.44 242.76 1331.21 242.76 1328.49 245.51 1331.21 248.25 1347.44 248.25 1347.44 249.33 1330.77 249.33 1326.97 245.51 1330.77 241.69 1347.44 241.69 1347.44 242.76" style="fill:#a12573"/><polygon points="1346.04 239.09 1355.72 239.09 1362.1 245.51 1355.72 251.92 1346.04 251.92 1346.04 253 1356.17 253 1363.62 245.51 1356.17 238.01 1346.04 238.01 1346.04 239.09" style="fill:#a12573"/><rect x="1357.69" y="244.97" width="5.17" height="1.08" style="fill:#a12573"/><rect x="1354.55" y="248.24" width="1.08" height="4.3" transform="translate(6.77 535) rotate(-22.39)" style="fill:#a12573"/><rect x="1352.94" y="239.88" width="4.3" height="1.08" transform="matrix(0.38, -0.92, 0.92, 0.38, 616.77, 1401.87)" style="fill:#a12573"/><polygon points="1346.04 242.76 1354.21 242.76 1356.93 245.51 1354.21 248.25 1346.04 248.25 1346.04 249.33 1354.65 249.33 1358.45 245.51 1354.65 241.69 1346.04 241.69 1346.04 242.76" style="fill:#a12573"/></g><g id="rupie-8" data-name="rupie"><polygon points="1373.57 245.51 1381.03 238.01 1407.94 238.01 1415.4 245.51 1407.94 253 1381.03 253 1373.57 245.51" style="fill:#fde9f2"/><polygon points="1373.57 245.51 1373.57 245.51 1415.4 245.51 1415.4 245.51 1407.94 253 1381.03 253 1373.57 245.51" style="fill:#ee2e7b"/><polygon points="1378.74 245.51 1382.54 241.69 1406.43 241.69 1410.23 245.51 1406.43 249.33 1382.54 249.33 1378.74 245.51" style="fill:#eab7d5"/><polygon points="1399.22 239.09 1381.47 239.09 1375.09 245.51 1381.47 251.92 1399.22 251.92 1399.22 253 1381.03 253 1373.57 245.51 1381.03 238.01 1399.22 238.01 1399.22 239.09" style="fill:#a12573"/><rect x="1374.33" y="244.97" width="5.17" height="1.08" style="fill:#a12573"/><rect x="1379.95" y="249.85" width="4.3" height="1.08" transform="translate(624.27 1433.01) rotate(-67.62)" style="fill:#a12573"/><rect x="1381.56" y="238.27" width="1.08" height="4.3" transform="translate(12.62 544.61) rotate(-22.39)" style="fill:#a12573"/><polygon points="1399.22 242.76 1382.99 242.76 1380.26 245.51 1382.99 248.25 1399.22 248.25 1399.22 249.33 1382.54 249.33 1378.74 245.51 1382.54 241.69 1399.22 241.69 1399.22 242.76" style="fill:#a12573"/><polygon points="1397.82 239.09 1407.5 239.09 1413.88 245.51 1407.5 251.92 1397.82 251.92 1397.82 253 1407.94 253 1415.4 245.51 1407.94 238.01 1397.82 238.01 1397.82 239.09" style="fill:#a12573"/><rect x="1409.47" y="244.97" width="5.17" height="1.08" style="fill:#a12573"/><rect x="1406.33" y="248.24" width="1.08" height="4.3" transform="translate(10.67 554.72) rotate(-22.39)" style="fill:#a12573"/><rect x="1404.72" y="239.88" width="4.3" height="1.08" transform="translate(648.83 1449.74) rotate(-67.62)" style="fill:#a12573"/><polygon points="1397.82 242.76 1405.98 242.76 1408.71 245.51 1405.98 248.25 1397.82 248.25 1397.82 249.33 1406.43 249.33 1410.23 245.51 1406.43 241.69 1397.82 241.69 1397.82 242.76" style="fill:#a12573"/></g></g><polygon points="1024.86 267.71 1024.86 225.31 1032.06 228.19 1032.06 263.71 1024.86 267.71" style="fill:#fde9f2"/><path d="M1024.36,224.57l8.2,3.28V264l-8.2,4.56Zm7.2,4-6.2-2.47v40.81l6.2-3.45Z" style="fill:#a12573"/><g id="tube-right"><g style="opacity:0.4"><rect x="1032.55" y="230.43" width="382.09" height="30.64" transform="translate(2447.19 491.5) rotate(-180)" style="fill:#a0dbe3"/></g><rect x="1032.57" y="232.31" width="382.07" height="2.94" transform="translate(2447.21 467.56) rotate(-180)" style="fill:#fff"/></g><g style="opacity:0.8"><rect x="41.65" y="77.12" width="342.92" height="30.64" style="fill:#fff"/></g><g id="rupie-left-tube"><g id="rupie-9" data-name="rupie"><polygon points="406.2 92.19 398.74 84.7 371.83 84.7 364.37 92.19 371.83 99.69 398.74 99.69 406.2 92.19" style="fill:#fde9f2"/><polygon points="406.2 92.19 406.2 92.19 364.37 92.19 364.37 92.19 371.83 99.69 398.74 99.69 406.2 92.19" style="fill:#ee2e7b"/><polygon points="401.03 92.19 397.23 88.37 373.34 88.37 369.54 92.19 373.34 96.01 397.23 96.01 401.03 92.19" style="fill:#eab7d5"/><polygon points="380.55 85.78 398.29 85.78 404.68 92.19 398.29 98.61 380.55 98.61 380.55 99.69 398.74 99.69 406.2 92.19 398.74 84.7 380.55 84.7 380.55 85.78" style="fill:#a12573"/><rect x="400.27" y="91.65" width="5.17" height="1.08" style="fill:#a12573"/><rect x="397.13" y="94.93" width="1.08" height="4.3" transform="translate(-7.01 158.75) rotate(-22.38)" style="fill:#a12573"/><rect x="395.52" y="86.57" width="4.3" height="1.08" transform="translate(165.64 421.61) rotate(-67.61)" style="fill:#a12573"/><polygon points="380.55 89.45 396.78 89.45 399.51 92.19 396.78 94.94 380.55 94.94 380.55 96.01 397.23 96.01 401.03 92.19 397.23 88.37 380.55 88.37 380.55 89.45" style="fill:#a12573"/><polygon points="381.95 85.78 372.27 85.78 365.89 92.19 372.27 98.61 381.95 98.61 381.95 99.69 371.83 99.69 364.37 92.19 371.83 84.7 381.95 84.7 381.95 85.78" style="fill:#a12573"/><rect x="365.13" y="91.65" width="5.17" height="1.08" style="fill:#a12573"/><rect x="370.75" y="96.54" width="4.3" height="1.08" transform="translate(141.11 404.9) rotate(-67.61)" style="fill:#a12573"/><rect x="372.36" y="84.96" width="1.08" height="4.3" transform="translate(-5.08 148.56) rotate(-22.38)" style="fill:#a12573"/><polygon points="381.95 89.45 373.79 89.45 371.06 92.19 373.79 94.94 381.95 94.94 381.95 96.01 373.34 96.01 369.54 92.19 373.34 88.37 381.95 88.37 381.95 89.45" style="fill:#a12573"/></g><g id="rupie-10" data-name="rupie"><polygon points="354.08 92.19 346.63 84.7 319.71 84.7 312.26 92.19 319.71 99.69 346.63 99.69 354.08 92.19" style="fill:#fde9f2"/><polygon points="354.08 92.19 354.08 92.19 312.26 92.19 312.26 92.19 319.71 99.69 346.63 99.69 354.08 92.19" style="fill:#ee2e7b"/><polygon points="348.91 92.19 345.11 88.37 321.23 88.37 317.43 92.19 321.23 96.01 345.11 96.01 348.91 92.19" style="fill:#eab7d5"/><polygon points="328.44 85.78 346.18 85.78 352.56 92.19 346.18 98.61 328.44 98.61 328.44 99.69 346.63 99.69 354.08 92.19 346.63 84.7 328.44 84.7 328.44 85.78" style="fill:#a12573"/><rect x="348.15" y="91.65" width="5.17" height="1.08" style="fill:#a12573"/><rect x="345.01" y="94.93" width="1.08" height="4.3" transform="translate(-10.93 138.9) rotate(-22.38)" style="fill:#a12573"/><rect x="343.4" y="86.57" width="4.3" height="1.08" transform="translate(133.38 373.43) rotate(-67.61)" style="fill:#a12573"/><polygon points="328.44 89.45 344.67 89.45 347.39 92.19 344.67 94.94 328.44 94.94 328.44 96.01 345.11 96.01 348.91 92.19 345.11 88.37 328.44 88.37 328.44 89.45" style="fill:#a12573"/><polygon points="329.84 85.78 320.16 85.78 313.78 92.19 320.16 98.61 329.84 98.61 329.84 99.69 319.71 99.69 312.26 92.19 319.71 84.7 329.84 84.7 329.84 85.78" style="fill:#a12573"/><rect x="313.02" y="91.65" width="5.17" height="1.08" style="fill:#a12573"/><rect x="318.64" y="96.54" width="4.3" height="1.08" transform="translate(108.85 356.71) rotate(-67.61)" style="fill:#a12573"/><rect x="320.25" y="84.96" width="1.08" height="4.3" transform="translate(-9 128.72) rotate(-22.38)" style="fill:#a12573"/><polygon points="329.84 89.45 321.68 89.45 318.95 92.19 321.68 94.94 329.84 94.94 329.84 96.01 321.23 96.01 317.43 92.19 321.23 88.37 329.84 88.37 329.84 89.45" style="fill:#a12573"/></g><g id="rupie-11" data-name="rupie"><polygon points="301.9 92.19 294.45 84.7 267.53 84.7 260.08 92.19 267.53 99.69 294.45 99.69 301.9 92.19" style="fill:#fde9f2"/><polygon points="301.9 92.19 301.9 92.19 260.08 92.19 260.08 92.19 267.53 99.69 294.45 99.69 301.9 92.19" style="fill:#ee2e7b"/><polygon points="296.73 92.19 292.93 88.37 269.05 88.37 265.25 92.19 269.05 96.01 292.93 96.01 296.73 92.19" style="fill:#eab7d5"/><polygon points="276.26 85.78 294 85.78 300.38 92.19 294 98.61 276.26 98.61 276.26 99.69 294.45 99.69 301.9 92.19 294.45 84.7 276.26 84.7 276.26 85.78" style="fill:#a12573"/><rect x="295.97" y="91.65" width="5.17" height="1.08" style="fill:#a12573"/><rect x="292.83" y="94.93" width="1.08" height="4.3" transform="translate(-14.86 119.03) rotate(-22.38)" style="fill:#a12573"/><rect x="291.22" y="86.57" width="4.3" height="1.08" transform="translate(101.08 325.18) rotate(-67.61)" style="fill:#a12573"/><polygon points="276.26 89.45 292.49 89.45 295.21 92.19 292.49 94.94 276.26 94.94 276.26 96.01 292.93 96.01 296.73 92.19 292.93 88.37 276.26 88.37 276.26 89.45" style="fill:#a12573"/><polygon points="277.66 85.78 267.98 85.78 261.6 92.19 267.98 98.61 277.66 98.61 277.66 99.69 267.53 99.69 260.08 92.19 267.53 84.7 277.66 84.7 277.66 85.78" style="fill:#a12573"/><rect x="260.84" y="91.65" width="5.17" height="1.08" style="fill:#a12573"/><rect x="266.45" y="96.54" width="4.3" height="1.08" transform="translate(76.54 308.46) rotate(-67.61)" style="fill:#a12573"/><rect x="268.07" y="84.96" width="1.08" height="4.3" transform="translate(-12.93 108.85) rotate(-22.38)" style="fill:#a12573"/><polygon points="277.66 89.45 269.49 89.45 266.77 92.19 269.49 94.94 277.66 94.94 277.66 96.01 269.05 96.01 265.25 92.19 269.05 88.37 277.66 88.37 277.66 89.45" style="fill:#a12573"/></g><g id="rupie-12" data-name="rupie"><polygon points="250.13 92.19 242.67 84.7 215.76 84.7 208.3 92.19 215.76 99.69 242.67 99.69 250.13 92.19" style="fill:#fde9f2"/><polygon points="250.13 92.19 250.13 92.19 208.3 92.19 208.3 92.19 215.76 99.69 242.67 99.69 250.13 92.19" style="fill:#ee2e7b"/><polygon points="244.96 92.19 241.16 88.37 217.27 88.37 213.47 92.19 217.27 96.01 241.16 96.01 244.96 92.19" style="fill:#eab7d5"/><polygon points="224.48 85.78 242.22 85.78 248.61 92.19 242.22 98.61 224.48 98.61 224.48 99.69 242.67 99.69 250.13 92.19 242.67 84.7 224.48 84.7 224.48 85.78" style="fill:#a12573"/><rect x="244.2" y="91.65" width="5.17" height="1.08" style="fill:#a12573"/><rect x="241.06" y="94.93" width="1.08" height="4.3" transform="translate(-18.76 99.31) rotate(-22.38)" style="fill:#a12573"/><rect x="239.44" y="86.57" width="4.3" height="1.08" transform="matrix(0.38, -0.92, 0.92, 0.38, 69.02, 277.31)" style="fill:#a12573"/><polygon points="224.48 89.45 240.71 89.45 243.44 92.19 240.71 94.94 224.48 94.94 224.48 96.01 241.16 96.01 244.96 92.19 241.16 88.37 224.48 88.37 224.48 89.45" style="fill:#a12573"/><polygon points="225.88 85.78 216.2 85.78 209.82 92.19 216.2 98.61 225.88 98.61 225.88 99.69 215.76 99.69 208.3 92.19 215.76 84.7 225.88 84.7 225.88 85.78" style="fill:#a12573"/><rect x="209.06" y="91.65" width="5.17" height="1.08" style="fill:#a12573"/><rect x="214.68" y="96.54" width="4.3" height="1.08" transform="translate(44.48 260.59) rotate(-67.61)" style="fill:#a12573"/><rect x="216.29" y="84.96" width="1.08" height="4.3" transform="translate(-16.83 89.13) rotate(-22.38)" style="fill:#a12573"/><polygon points="225.88 89.45 217.72 89.45 214.99 92.19 217.72 94.94 225.88 94.94 225.88 96.01 217.27 96.01 213.47 92.19 217.27 88.37 225.88 88.37 225.88 89.45" style="fill:#a12573"/></g><g id="rupie-13" data-name="rupie"><polygon points="198.89 92.19 191.43 84.7 164.52 84.7 157.06 92.19 164.52 99.69 191.43 99.69 198.89 92.19" style="fill:#fde9f2"/><polygon points="198.89 92.19 198.89 92.19 157.06 92.19 157.06 92.19 164.52 99.69 191.43 99.69 198.89 92.19" style="fill:#ee2e7b"/><polygon points="193.72 92.19 189.92 88.37 166.03 88.37 162.23 92.19 166.03 96.01 189.92 96.01 193.72 92.19" style="fill:#eab7d5"/><polygon points="173.24 85.78 190.99 85.78 197.37 92.19 190.99 98.61 173.24 98.61 173.24 99.69 191.43 99.69 198.89 92.19 191.43 84.7 173.24 84.7 173.24 85.78" style="fill:#a12573"/><rect x="192.96" y="91.65" width="5.17" height="1.08" style="fill:#a12573"/><rect x="189.82" y="94.93" width="1.08" height="4.3" transform="translate(-22.63 79.8) rotate(-22.38)" style="fill:#a12573"/><rect x="188.21" y="86.57" width="4.3" height="1.08" transform="translate(37.3 229.93) rotate(-67.61)" style="fill:#a12573"/><polygon points="173.24 89.45 189.47 89.45 192.2 92.19 189.47 94.94 173.24 94.94 173.24 96.01 189.92 96.01 193.72 92.19 189.92 88.37 173.24 88.37 173.24 89.45" style="fill:#a12573"/><polygon points="174.64 85.78 164.96 85.78 158.58 92.19 164.96 98.61 174.64 98.61 174.64 99.69 164.52 99.69 157.06 92.19 164.52 84.7 174.64 84.7 174.64 85.78" style="fill:#a12573"/><rect x="157.82" y="91.65" width="5.17" height="1.08" style="fill:#a12573"/><rect x="163.44" y="96.54" width="4.3" height="1.08" transform="translate(12.76 213.21) rotate(-67.61)" style="fill:#a12573"/><rect x="165.05" y="84.96" width="1.08" height="4.3" transform="translate(-20.7 69.62) rotate(-22.38)" style="fill:#a12573"/><polygon points="174.64 89.45 166.48 89.45 163.75 92.19 166.48 94.94 174.64 94.94 174.64 96.01 166.03 96.01 162.23 92.19 166.03 88.37 174.64 88.37 174.64 89.45" style="fill:#a12573"/></g><g id="rupie-14" data-name="rupie"><polygon points="146.78 92.19 139.32 84.7 112.4 84.7 104.95 92.19 112.4 99.69 139.32 99.69 146.78 92.19" style="fill:#fde9f2"/><polygon points="146.78 92.19 146.78 92.19 104.95 92.19 104.95 92.19 112.4 99.69 139.32 99.69 146.78 92.19" style="fill:#ee2e7b"/><polygon points="141.6 92.19 137.81 88.37 113.92 88.37 110.12 92.19 113.92 96.01 137.81 96.01 141.6 92.19" style="fill:#eab7d5"/><polygon points="121.13 85.78 138.87 85.78 145.25 92.19 138.87 98.61 121.13 98.61 121.13 99.69 139.32 99.69 146.78 92.19 139.32 84.7 121.13 84.7 121.13 85.78" style="fill:#a12573"/><rect x="140.84" y="91.65" width="5.17" height="1.08" style="fill:#a12573"/><rect x="137.71" y="94.93" width="1.08" height="4.3" transform="translate(-26.55 59.96) rotate(-22.38)" style="fill:#a12573"/><rect x="136.09" y="86.57" width="4.3" height="1.08" transform="translate(5.04 181.75) rotate(-67.61)" style="fill:#a12573"/><polygon points="121.13 89.45 137.36 89.45 140.09 92.19 137.36 94.94 121.13 94.94 121.13 96.01 137.81 96.01 141.6 92.19 137.81 88.37 121.13 88.37 121.13 89.45" style="fill:#a12573"/><polygon points="122.53 85.78 112.85 85.78 106.47 92.19 112.85 98.61 122.53 98.61 122.53 99.69 112.4 99.69 104.95 92.19 112.4 84.7 122.53 84.7 122.53 85.78" style="fill:#a12573"/><rect x="105.71" y="91.65" width="5.17" height="1.08" style="fill:#a12573"/><rect x="111.33" y="96.54" width="4.3" height="1.08" transform="translate(-19.5 165.03) rotate(-67.61)" style="fill:#a12573"/><rect x="112.94" y="84.96" width="1.08" height="4.3" transform="translate(-24.62 49.78) rotate(-22.38)" style="fill:#a12573"/><polygon points="122.53 89.45 114.36 89.45 111.64 92.19 114.36 94.94 122.53 94.94 122.53 96.01 113.92 96.01 110.12 92.19 113.92 88.37 122.53 88.37 122.53 89.45" style="fill:#a12573"/></g><g id="rupie-15" data-name="rupie"><polygon points="94.59 92.19 87.14 84.7 60.22 84.7 52.77 92.19 60.22 99.69 87.14 99.69 94.59 92.19" style="fill:#fde9f2"/><polygon points="94.59 92.19 94.59 92.19 52.77 92.19 52.77 92.19 60.22 99.69 87.14 99.69 94.59 92.19" style="fill:#ee2e7b"/><polygon points="89.42 92.19 85.62 88.37 61.74 88.37 57.94 92.19 61.74 96.01 85.62 96.01 89.42 92.19" style="fill:#eab7d5"/><polygon points="68.95 85.78 86.69 85.78 93.07 92.19 86.69 98.61 68.95 98.61 68.95 99.69 87.14 99.69 94.59 92.19 87.14 84.7 68.95 84.7 68.95 85.78" style="fill:#a12573"/><rect x="88.66" y="91.65" width="5.17" height="1.08" style="fill:#a12573"/><rect x="85.52" y="94.93" width="1.08" height="4.3" transform="translate(-30.48 40.09) rotate(-22.38)" style="fill:#a12573"/><rect x="83.91" y="86.57" width="4.3" height="1.08" transform="translate(-27.26 133.5) rotate(-67.61)" style="fill:#a12573"/><polygon points="68.95 89.45 85.17 89.45 87.9 92.19 85.17 94.94 68.95 94.94 68.95 96.01 85.62 96.01 89.42 92.19 85.62 88.37 68.95 88.37 68.95 89.45" style="fill:#a12573"/><polygon points="70.35 85.78 60.67 85.78 54.29 92.19 60.67 98.61 70.35 98.61 70.35 99.69 60.22 99.69 52.77 92.19 60.22 84.7 70.35 84.7 70.35 85.78" style="fill:#a12573"/><rect x="53.53" y="91.65" width="5.17" height="1.08" style="fill:#a12573"/><rect x="59.15" y="96.54" width="4.3" height="1.08" transform="translate(-51.81 116.78) rotate(-67.61)" style="fill:#a12573"/><rect x="60.76" y="84.96" width="1.08" height="4.3" transform="translate(-28.55 29.9) rotate(-22.38)" style="fill:#a12573"/><polygon points="70.35 89.45 62.18 89.45 59.46 92.19 62.18 94.94 70.35 94.94 70.35 96.01 61.74 96.01 57.94 92.19 61.74 88.37 70.35 88.37 70.35 89.45" style="fill:#a12573"/></g><g id="rupie-16" data-name="rupie"><polygon points="42.82 92.19 35.36 84.7 8.45 84.7 0.99 92.19 8.45 99.69 35.36 99.69 42.82 92.19" style="fill:#fde9f2"/><polygon points="42.82 92.19 42.82 92.19 0.99 92.19 0.99 92.19 8.45 99.69 35.36 99.69 42.82 92.19" style="fill:#ee2e7b"/><polygon points="37.65 92.19 33.85 88.37 9.96 88.37 6.16 92.19 9.96 96.01 33.85 96.01 37.65 92.19" style="fill:#eab7d5"/><polygon points="17.17 85.78 34.91 85.78 41.3 92.19 34.91 98.61 17.17 98.61 17.17 99.69 35.36 99.69 42.82 92.19 35.36 84.7 17.17 84.7 17.17 85.78" style="fill:#a12573"/><rect x="36.89" y="91.65" width="5.17" height="1.08" style="fill:#a12573"/><rect x="33.75" y="94.93" width="1.08" height="4.3" transform="translate(-34.38 20.37) rotate(-22.38)" style="fill:#a12573"/><rect x="32.14" y="86.57" width="4.3" height="1.08" transform="matrix(0.38, -0.92, 0.92, 0.38, -59.32, 85.63)" style="fill:#a12573"/><polygon points="17.17 89.45 33.4 89.45 36.13 92.19 33.4 94.94 17.17 94.94 17.17 96.01 33.85 96.01 37.65 92.19 33.85 88.37 17.17 88.37 17.17 89.45" style="fill:#a12573"/><polygon points="18.57 85.78 8.89 85.78 2.51 92.19 8.89 98.61 18.57 98.61 18.57 99.69 8.45 99.69 0.99 92.19 8.45 84.7 18.57 84.7 18.57 85.78" style="fill:#a12573"/><rect x="1.75" y="91.65" width="5.17" height="1.08" style="fill:#a12573"/><rect x="7.37" y="96.54" width="4.3" height="1.08" transform="translate(-83.87 68.91) rotate(-67.61)" style="fill:#a12573"/><rect x="8.98" y="84.96" width="1.08" height="4.3" transform="translate(-32.45 10.19) rotate(-22.38)" style="fill:#a12573"/><polygon points="18.57 89.45 10.41 89.45 7.68 92.19 10.41 94.94 18.57 94.94 18.57 96.01 9.96 96.01 6.16 92.19 9.96 88.37 18.57 88.37 18.57 89.45" style="fill:#a12573"/></g></g><polygon points="391.53 114.39 391.53 72 384.33 74.87 384.33 110.4 391.53 114.39" style="fill:#fde9f2"/><path d="M392,115.25l-8.2-4.56V74.53l8.2-3.27Zm-7.2-5.15,6.2,3.45V72.74l-6.2,2.47Z" style="fill:#a12573"/><g id="tube-left"><g style="opacity:0.4"><rect x="1.75" y="77.12" width="382.09" height="30.64" style="fill:#a0dbe3"/></g><rect x="1.75" y="78.99" width="382.07" height="2.94" style="fill:#fff"/></g><polyline points="920.97 273.4 978.75 273.4 978.75 268.79 920.97 268.79" style="fill:#fff"/><polygon points="979.33 273.98 920.97 273.98 920.97 272.83 978.18 272.83 978.18 269.36 920.97 269.36 920.97 268.21 979.33 268.21 979.33 273.98" style="fill:#7d3a90"/><rect x="965.01" y="221.52" width="1.15" height="50.94" transform="translate(11.34 534.7) rotate(-31.13)" style="fill:#7d3a90"/><rect x="940.12" y="246.41" width="50.94" height="1.15" transform="translate(254.43 945.28) rotate(-58.83)" style="fill:#7d3a90"/><rect x="938.82" y="221.52" width="1.15" height="50.94" transform="translate(7.57 521.16) rotate(-31.13)" style="fill:#7d3a90"/><rect x="913.93" y="246.41" width="50.94" height="1.15" transform="translate(241.8 922.87) rotate(-58.83)" style="fill:#7d3a90"/><polyline points="920.97 225.18 978.75 225.18 978.75 220.01 920.97 220.01" style="fill:#fff"/><polygon points="979.33 225.76 920.97 225.76 920.97 224.61 978.18 224.61 978.18 220.58 920.97 220.58 920.97 219.43 979.33 219.43 979.33 225.76" style="fill:#7d3a90"/><rect x="969.69" y="223.78" width="64.22" height="45.57" transform="translate(755.24 1248.37) rotate(-90)" style="fill:#ee2e7b"/><path d="M1025.17,279.25H978.44V213.88h46.73Zm-45.58-1.15H1024V215H979.59Z" style="fill:#7e3a90"/><rect x="1024.01" y="214.46" width="1.15" height="64.22" style="fill:#7e3a90"/><line x1="952.42" y1="268.79" x2="952.42" y2="225.18" style="fill:#ee2e7b"/><rect x="951.85" y="225.18" width="1.15" height="43.6" style="fill:#7e3a90"/><rect x="987.77" y="266.18" width="10.83" height="1.15" style="fill:#7e3a90"/><rect x="987.77" y="262.14" width="10.83" height="1.15" style="fill:#7e3a90"/><rect x="987.77" y="258.09" width="10.83" height="1.15" style="fill:#7e3a90"/><rect x="987.77" y="254.04" width="10.83" height="1.15" style="fill:#7e3a90"/><rect x="987.77" y="250" width="10.83" height="1.15" style="fill:#7e3a90"/><polyline points="1011.65 268.27 1009.47 269.11 1008.62 266.93" style="fill:#ee2e7b"/><polygon points="1009.14 269.86 1008.09 267.14 1009.16 266.73 1009.8 268.37 1011.44 267.73 1011.85 268.8 1009.14 269.86" style="fill:#7e3a90"/><circle cx="1011.24" cy="265.09" r="3.57" style="fill:#e8b7d5"/><path d="M1011.24,269.24a4.16,4.16,0,0,1-3.79-5.83h0a4.15,4.15,0,1,1,3.79,5.83Zm-2.74-5.36a3,3,0,1,0,1.66-1.59,3,3,0,0,0-1.66,1.59Z" style="fill:#7e3a90"/><polyline points="1013.73 250.75 1015.22 252.54 1013.43 254.04" style="fill:#ee2e7b"/><polygon points="1013.79 254.48 1013.06 253.6 1014.41 252.47 1013.28 251.12 1014.17 250.38 1016.03 252.62 1013.79 254.48" style="fill:#7e3a90"/><circle cx="1010.84" cy="252.14" r="3.57" style="fill:#e8b7d5"/><path d="M1010.85,256.29h-.39a4.15,4.15,0,0,1-3.75-4.51,4.06,4.06,0,0,1,1.48-2.81,4.14,4.14,0,0,1,6.78,3.56,4.15,4.15,0,0,1-4.12,3.77Zm-.28-1.16a3,3,0,0,0,3.26-2.71,3,3,0,1,0-6-.55,3,3,0,0,0,2.71,3.26Z" style="fill:#7e3a90"/><rect x="988.89" y="229.48" width="6.81" height="6.81" transform="translate(759.41 1225.18) rotate(-90)" style="fill:#fde9f2"/><rect x="1002.65" y="222.86" width="6.81" height="6.81" transform="translate(779.79 1232.33) rotate(-90)" style="fill:#fde9f2"/><rect x="1002.65" y="228.91" width="6.81" height="6.81" transform="translate(773.74 1238.37) rotate(-90)" style="fill:#fde9f2"/><rect x="1009.57" y="229.48" width="6.81" height="6.81" transform="translate(780.09 1245.86) rotate(-90)" style="fill:#e8b7d5"/><rect x="995.96" y="222.86" width="6.81" height="6.81" transform="translate(773.1 1225.64) rotate(-90)" style="fill:#e8b7d5"/><rect x="995.12" y="222.46" width="1.15" height="13.83" style="fill:#7e3a90"/><rect x="1002.12" y="222.46" width="1.15" height="13.83" style="fill:#7e3a90"/><rect x="988.89" y="228.79" width="27.65" height="1.15" style="fill:#7e3a90"/><rect x="1009.12" y="222.46" width="1.15" height="13.83" style="fill:#7e3a90"/><path d="M1017.28,236.87h-29v-15h29Zm-27.82-1.16h26.66V223H989.46Z" style="fill:#7e3a90"/><polyline points="494.39 120.09 436.62 120.09 436.62 115.47 494.39 115.47" style="fill:#fff"/><polygon points="494.39 120.67 436.04 120.67 436.04 114.9 494.39 114.9 494.39 116.05 437.19 116.05 437.19 119.51 494.39 119.51 494.39 120.67" style="fill:#7d3a90"/><rect x="424.31" y="93.09" width="50.93" height="1.15" transform="translate(137.26 430.43) rotate(-58.9)" style="fill:#7d3a90"/><rect x="449.2" y="68.2" width="1.15" height="50.93" transform="translate(16.33 245.99) rotate(-31.13)" style="fill:#7d3a90"/><rect x="450.5" y="93.09" width="50.93" height="1.15" transform="translate(149.92 452.85) rotate(-58.9)" style="fill:#7d3a90"/><rect x="475.39" y="68.2" width="1.15" height="50.93" transform="translate(20.1 259.53) rotate(-31.13)" style="fill:#7d3a90"/><polyline points="494.39 71.87 436.62 71.87 436.62 66.69 494.39 66.69" style="fill:#fff"/><polygon points="494.39 72.45 436.04 72.45 436.04 66.12 494.39 66.12 494.39 67.27 437.19 67.27 437.19 71.3 494.39 71.3 494.39 72.45" style="fill:#7d3a90"/><rect x="381.72" y="70.46" width="64.22" height="45.57" transform="translate(320.58 507.08) rotate(-90)" style="fill:#ee2e7b"/><path d="M437.19,125.94H390.46V60.57h46.73Zm-45.57-1.15H436V61.72H391.62Z" style="fill:#7e3a90"/><rect x="436.04" y="61.14" width="1.15" height="64.22" style="fill:#7e3a90"/><rect x="462.37" y="71.87" width="1.15" height="43.6" style="fill:#7e3a90"/><rect x="399.79" y="112.87" width="10.83" height="1.15" style="fill:#7e3a90"/><rect x="399.79" y="108.82" width="10.83" height="1.15" style="fill:#7e3a90"/><rect x="399.79" y="104.78" width="10.83" height="1.15" style="fill:#7e3a90"/><rect x="399.79" y="100.73" width="10.83" height="1.15" style="fill:#7e3a90"/><rect x="399.79" y="96.68" width="10.83" height="1.15" style="fill:#7e3a90"/><polyline points="423.67 114.95 421.49 115.8 420.65 113.62" style="fill:#ee2e7b"/><polygon points="421.16 116.54 420.11 113.83 421.19 113.41 421.82 115.05 423.46 114.42 423.88 115.49 421.16 116.54" style="fill:#7e3a90"/><circle cx="423.27" cy="111.77" r="3.57" style="fill:#e8b7d5"/><path d="M423.27,115.92a4.16,4.16,0,1,1,1.5-.28A4.12,4.12,0,0,1,423.27,115.92Zm0-7.14a3,3,0,1,0,2.79,1.91,2.93,2.93,0,0,0-1.58-1.66A3,3,0,0,0,423.27,108.78Z" style="fill:#7e3a90"/><polyline points="425.75 97.44 427.25 99.23 425.45 100.73" style="fill:#ee2e7b"/><polygon points="425.82 101.17 425.08 100.28 426.44 99.16 425.31 97.8 426.19 97.07 428.06 99.31 425.82 101.17" style="fill:#7e3a90"/><circle cx="422.87" cy="98.83" r="3.57" style="fill:#e8b7d5"/><path d="M422.87,103l-.38,0h0a4.17,4.17,0,0,1-3.76-4.51,4.15,4.15,0,1,1,4.14,4.53Zm0-7.15a3,3,0,0,0-3,2.73,3,3,0,0,0,.68,2.19,3,3,0,0,0,2,1.06h0a3,3,0,1,0,.55-6Z" style="fill:#7e3a90"/><rect x="400.91" y="76.16" width="6.81" height="6.81" transform="translate(324.75 483.89) rotate(-90)" style="fill:#fde9f2"/><rect x="414.67" y="69.55" width="6.81" height="6.81" transform="translate(345.13 491.04) rotate(-90)" style="fill:#fde9f2"/><rect x="414.67" y="75.6" width="6.81" height="6.81" transform="translate(339.08 497.08) rotate(-90)" style="fill:#fde9f2"/><rect x="421.59" y="76.16" width="6.81" height="6.81" transform="translate(345.43 504.57) rotate(-90)" style="fill:#e8b7d5"/><rect x="407.99" y="69.55" width="6.81" height="6.81" transform="translate(338.44 484.35) rotate(-90)" style="fill:#e8b7d5"/><rect x="407.15" y="69.14" width="1.15" height="13.83" style="fill:#7e3a90"/><rect x="414.15" y="69.14" width="1.15" height="13.83" style="fill:#7e3a90"/><rect x="400.91" y="75.47" width="27.65" height="1.15" style="fill:#7e3a90"/><rect x="421.15" y="69.14" width="1.15" height="13.83" style="fill:#7e3a90"/><path d="M429.3,83.55h-29v-15h29ZM401.49,82.4h26.66V69.72H401.49Z" style="fill:#7e3a90"/><rect x="853.2" y="328.37" width="49.98" height="1.6" style="fill:#a12573"/><polyline points="797.97 329.17 920.85 329.17 920.85 9.98 494.04 9.98 494.04 329.17 542.12 329.17" style="fill:#544da0"/><polygon points="921.53 329.97 797.97 329.97 797.97 328.37 920.17 328.37 920.17 10.78 494.71 10.78 494.71 328.37 542.12 328.37 542.12 329.97 493.36 329.97 493.36 9.18 921.53 9.18 921.53 329.97" style="fill:#a12573"/><polygon points="798.2 329.17 921.13 329.17 921.13 9.98 494.16 9.98 494.16 329.17 542.26 329.17 798.2 329.17" style="fill:#cf82aa"/><polygon points="505.36 318.15 494.16 329.17 494.16 9.98 919.96 9.98 909.63 21 505.36 21 505.36 318.15" style="fill:#eab7d5"/><rect x="505.23" y="21" width="404.71" height="297.15" style="fill:#544da0"/><path d="M910.61,319h-406V20.2H910.61Zm-404.71-1.6H909.27V21.8H505.9Z" style="fill:#673996"/><rect x="853.2" y="328.37" width="49.98" height="1.6" style="fill:#a12573"/><line x1="505.36" y1="21" x2="494.25" y2="9.89" style="fill:#544da0"/><rect x="499" y="7.59" width="1.6" height="15.71" transform="translate(135.44 357.91) rotate(-45)" style="fill:#673996"/><line x1="909.64" y1="21" x2="920.83" y2="9.98" style="fill:#544da0"/><rect x="907.38" y="14.69" width="15.71" height="1.6" transform="translate(251.86 646.23) rotate(-44.53)" style="fill:#673996"/><line x1="909.64" y1="318.15" x2="920.83" y2="329.17" style="fill:#544da0"/><rect x="914.44" y="315.8" width="1.6" height="15.71" transform="translate(42.56 748.92) rotate(-45.46)" style="fill:#673996"/><line x1="505.36" y1="318.15" x2="494.16" y2="329.17" style="fill:#544da0"/><rect x="491.9" y="322.86" width="15.71" height="1.6" transform="translate(-83.5 443.35) rotate(-44.53)" style="fill:#673996"/><path d="M921.49,330H493.36V9.18H921.49Zm-426.78-1.6H920.14V10.78H494.71Z" style="fill:#673996"/><path d="M637.13,162.71h9.27a54,54,0,1,0,0-108h-9.27" style="fill:#f1c9df"/><path d="M637.13,163h9.27a54.26,54.26,0,0,0,0-108.52h-9.27V55h9.27a53.76,53.76,0,1,1,0,107.51h-9.27Z" style="fill:#7e3a90"/><g style="clip-path:url(#clip-path)"><line x1="702.24" y1="57.26" x2="647.15" y2="57.26" style="fill:#f5ebf4"/><rect x="647.15" y="57.01" width="55.09" height="0.5" style="fill:#7e3a90"/><line x1="702.24" y1="61.38" x2="647.15" y2="61.38" style="fill:#f5ebf4"/><rect x="647.15" y="61.13" width="55.09" height="0.5" style="fill:#7e3a90"/><line x1="702.24" y1="65.49" x2="647.15" y2="65.49" style="fill:#f5ebf4"/><rect x="647.15" y="65.24" width="55.09" height="0.5" style="fill:#7e3a90"/><line x1="702.24" y1="69.61" x2="647.15" y2="69.61" style="fill:#f5ebf4"/><rect x="647.15" y="69.36" width="55.09" height="0.5" style="fill:#7e3a90"/><line x1="702.24" y1="73.73" x2="647.15" y2="73.73" style="fill:#f5ebf4"/><rect x="647.15" y="73.47" width="55.09" height="0.5" style="fill:#7e3a90"/><line x1="702.24" y1="77.84" x2="647.15" y2="77.84" style="fill:#f5ebf4"/><rect x="647.15" y="77.59" width="55.09" height="0.5" style="fill:#7e3a90"/><line x1="702.24" y1="81.96" x2="647.15" y2="81.96" style="fill:#f5ebf4"/><rect x="647.15" y="81.7" width="55.09" height="0.5" style="fill:#7e3a90"/><line x1="702.24" y1="86.07" x2="647.15" y2="86.07" style="fill:#f5ebf4"/><rect x="647.15" y="85.82" width="55.09" height="0.5" style="fill:#7e3a90"/><line x1="702.24" y1="90.19" x2="647.15" y2="90.19" style="fill:#f5ebf4"/><rect x="647.15" y="89.93" width="55.09" height="0.5" style="fill:#7e3a90"/><line x1="702.24" y1="94.3" x2="647.15" y2="94.3" style="fill:#f5ebf4"/><rect x="647.15" y="94.05" width="55.09" height="0.5" style="fill:#7e3a90"/><line x1="702.24" y1="98.42" x2="647.15" y2="98.42" style="fill:#f5ebf4"/><rect x="647.15" y="98.16" width="55.09" height="0.5" style="fill:#7e3a90"/><line x1="702.24" y1="102.53" x2="647.15" y2="102.53" style="fill:#f5ebf4"/><rect x="647.15" y="102.28" width="55.09" height="0.5" style="fill:#7e3a90"/><line x1="702.24" y1="106.65" x2="647.15" y2="106.65" style="fill:#f5ebf4"/><rect x="647.15" y="106.39" width="55.09" height="0.5" style="fill:#7e3a90"/><line x1="702.24" y1="110.76" x2="647.15" y2="110.76" style="fill:#f5ebf4"/><rect x="647.15" y="110.51" width="55.09" height="0.5" style="fill:#7e3a90"/><line x1="702.24" y1="114.88" x2="647.15" y2="114.88" style="fill:#f5ebf4"/><rect x="647.15" y="114.62" width="55.09" height="0.5" style="fill:#7e3a90"/><line x1="702.24" y1="118.99" x2="647.15" y2="118.99" style="fill:#f5ebf4"/><rect x="647.15" y="118.74" width="55.09" height="0.5" style="fill:#7e3a90"/><line x1="702.24" y1="123.11" x2="647.15" y2="123.11" style="fill:#f5ebf4"/><rect x="647.15" y="122.85" width="55.09" height="0.5" style="fill:#7e3a90"/><line x1="702.24" y1="127.22" x2="647.15" y2="127.22" style="fill:#f5ebf4"/><rect x="647.15" y="126.97" width="55.09" height="0.5" style="fill:#7e3a90"/><line x1="702.24" y1="131.34" x2="647.15" y2="131.34" style="fill:#f5ebf4"/><rect x="647.15" y="131.09" width="55.09" height="0.5" style="fill:#7e3a90"/><line x1="702.24" y1="135.45" x2="647.15" y2="135.45" style="fill:#f5ebf4"/><rect x="647.15" y="135.2" width="55.09" height="0.5" style="fill:#7e3a90"/><line x1="702.24" y1="139.57" x2="647.15" y2="139.57" style="fill:#f5ebf4"/><rect x="647.15" y="139.32" width="55.09" height="0.5" style="fill:#7e3a90"/><line x1="702.24" y1="143.68" x2="647.15" y2="143.68" style="fill:#f5ebf4"/><rect x="647.15" y="143.43" width="55.09" height="0.5" style="fill:#7e3a90"/><line x1="702.24" y1="147.8" x2="647.15" y2="147.8" style="fill:#f5ebf4"/><rect x="647.15" y="147.55" width="55.09" height="0.5" style="fill:#7e3a90"/><line x1="702.24" y1="151.91" x2="647.15" y2="151.91" style="fill:#f5ebf4"/><rect x="647.15" y="151.66" width="55.09" height="0.5" style="fill:#7e3a90"/><line x1="702.24" y1="156.03" x2="647.15" y2="156.03" style="fill:#f5ebf4"/><rect x="647.15" y="155.78" width="55.09" height="0.5" style="fill:#7e3a90"/><line x1="702.24" y1="160.14" x2="647.15" y2="160.14" style="fill:#f5ebf4"/><rect x="647.15" y="159.89" width="55.09" height="0.5" style="fill:#7e3a90"/></g><path d="M583.12,108.7a54,54,0,1,0,54-54A54,54,0,0,0,583.12,108.7Z" style="fill:#f7fcfe"/><path d="M582.87,108.7A54.26,54.26,0,1,1,637.13,163,54.32,54.32,0,0,1,582.87,108.7Zm.5,0A53.76,53.76,0,1,0,637.13,55,53.83,53.83,0,0,0,583.37,108.7Z" style="fill:#7e3a90"/><path d="M588.19,108.7a48.94,48.94,0,1,0,48.94-48.94A48.95,48.95,0,0,0,588.19,108.7Zm48.94-48.94a48.95,48.95,0,0,0,0,97.89" style="fill:#f6ebf4"/><path d="M587.93,108.7a49.2,49.2,0,1,1,49.2,49.2A49.25,49.25,0,0,1,587.93,108.7Zm.51,0A48.69,48.69,0,1,0,637.13,60,48.75,48.75,0,0,0,588.44,108.7Z" style="fill:#7e3a90"/><polygon points="637.13 71.37 661.15 95.26 661.15 103.73 661.15 118.08 661.15 122.15 637.13 146.04 613.12 122.15 613.12 118.08 613.12 103.73 613.12 95.26 637.13 71.37" style="fill:#da1a5d"/><path d="M612.87,122.25V95.16L637.14,71l24.27,24.15v27.09l-24.27,24.14Zm48-26.88L637.14,71.73,613.37,95.37V122l23.77,23.64L660.9,122Z" style="fill:#7d3a90"/><polyline points="637.13 71.37 661.15 95.26 661.15 103.73 661.15 118.08 661.15 122.15 637.13 146.04" style="fill:#f1bfd9"/><polygon points="637.31 146.22 661.4 122.25 661.4 95.16 637.31 71.19 636.96 71.55 660.9 95.37 660.9 122.04 636.96 145.86 637.31 146.22" style="fill:#7e3a90"/><rect x="612.51" y="118.92" width="15.2" height="0.51" transform="translate(2.74 251.84) rotate(-23.01)" style="fill:#7e3a90"/><rect x="636.88" y="126.17" width="0.5" height="19.87" style="fill:#7e3a90"/><rect x="653.91" y="111.57" width="0.5" height="15.2" transform="translate(288.79 674.72) rotate(-66.99)" style="fill:#7e3a90"/><rect x="619.86" y="90.63" width="0.51" height="15.2" transform="translate(287.53 630.75) rotate(-67.01)" style="fill:#7e3a90"/><rect x="636.88" y="71.37" width="0.5" height="19.87" style="fill:#7e3a90"/><rect x="646.56" y="97.98" width="15.2" height="0.5" transform="translate(13.71 263.75) rotate(-23.03)" style="fill:#7e3a90"/><polygon points="637.13 91.24 647.16 101.21 647.16 103.73 647.16 114.58 647.16 116.2 637.13 126.17 627.11 116.21 627.11 114.58 627.11 103.73 627.11 101.2 637.13 91.24" style="fill:#dd6178"/><path d="M626.85,116.31V101.1l10.28-10.22,10.29,10.22v15.2l-10.29,10.23Zm20.06-15-9.78-9.72-9.77,9.72V116.1l9.77,9.72,9.78-9.73Z" style="fill:#7d3a90"/><path d="M637.13,157.65a48.95,48.95,0,0,1,0-97.89l1.51,0a48.94,48.94,0,0,0,.26,97.81" style="fill:#f1c9df"/><path d="M587.93,108.7a49.25,49.25,0,0,1,49.21-49.19l1.51,0v.51a48.69,48.69,0,0,0,.26,97.31l0,.5c-.59,0-1.17-.05-1.76-.09v.13A49.25,49.25,0,0,1,587.93,108.7Zm.51,0a48.76,48.76,0,0,0,43.46,48.42,49.21,49.21,0,0,1-.13-96.81A48.75,48.75,0,0,0,588.44,108.7Z" style="fill:#7e3a90"/><polygon points="673.63 100.41 677.54 104.29 677.54 105.67 677.54 111.44 677.54 112.11 673.63 115.99 669.72 112.11 669.72 111.44 669.72 105.67 669.72 104.29 673.63 100.41" style="fill:#bd1e51"/><path d="M669.47,112.21v-8l4.16-4.14,4.16,4.14v8l-4.16,4.14Zm7.82-7.81-3.66-3.64L670,104.4V112l3.65,3.64,3.66-3.64Z" style="fill:#7d3a90"/><polyline points="673.63 100.41 677.54 104.29 677.54 105.67 677.54 111.44 677.54 112.11 673.63 115.99" style="fill:#f3d4e6"/><polygon points="673.81 116.17 677.79 112.21 677.79 104.19 673.81 100.23 673.45 100.59 677.29 104.4 677.29 112 673.45 115.81 673.81 116.17" style="fill:#7e3a90"/><rect x="669.63" y="111.37" width="2.47" height="0.51" transform="translate(9.73 271.07) rotate(-23.01)" style="fill:#7e3a90"/><rect x="673.38" y="112.76" width="0.5" height="3.23" style="fill:#7e3a90"/><rect x="676.15" y="110.38" width="0.5" height="2.47" transform="translate(309.29 690.59) rotate(-66.99)" style="fill:#7e3a90"/><rect x="670.61" y="103.54" width="0.51" height="2.47" transform="translate(312.43 681.46) rotate(-67.01)" style="fill:#7e3a90"/><rect x="673.38" y="100.41" width="0.5" height="3.23" style="fill:#7e3a90"/><rect x="675.16" y="104.53" width="2.47" height="0.5" transform="translate(12.91 272.94) rotate(-23.03)" style="fill:#7e3a90"/><polygon points="673.63 103.64 675.26 105.26 675.26 105.67 675.26 110.87 675.26 111.14 673.63 112.76 672 111.14 672 110.87 672 105.67 672 105.26 673.63 103.64" style="fill:#c97ea8"/><path d="M671.75,111.24v-6.09l1.88-1.87,1.89,1.88v6.08l-1.89,1.88Zm3.26-5.87L673.63,104l-1.38,1.37V111l1.38,1.37L675,111Z" style="fill:#7e3a90"/><polygon points="601.73 100.41 605.64 104.29 605.64 105.67 605.64 111.44 605.64 112.11 601.73 115.99 597.83 112.11 597.83 111.44 597.83 105.67 597.83 104.29 601.73 100.41" style="fill:#bd1e51"/><path d="M597.57,112.21v-8l4.16-4.14,4.16,4.14v8l-4.16,4.14Zm7.82-7.81-3.66-3.64-3.65,3.64V112l3.65,3.64,3.66-3.64Z" style="fill:#7d3a90"/><polyline points="601.73 100.41 605.64 104.29 605.64 105.67 605.64 111.44 605.64 112.11 601.73 115.99" style="fill:#f3d4e6"/><polygon points="601.91 116.17 605.89 112.21 605.89 104.19 601.91 100.23 601.55 100.59 605.39 104.4 605.39 112 601.55 115.81 601.91 116.17" style="fill:#7e3a90"/><rect x="597.73" y="111.37" width="2.47" height="0.51" transform="translate(4.01 242.97) rotate(-23.01)" style="fill:#7e3a90"/><rect x="601.48" y="112.76" width="0.5" height="3.23" style="fill:#7e3a90"/><rect x="604.25" y="110.38" width="0.5" height="2.47" transform="translate(265.49 624.41) rotate(-66.99)" style="fill:#7e3a90"/><rect x="598.71" y="103.54" width="0.51" height="2.47" transform="translate(268.61 615.27) rotate(-67.01)" style="fill:#7e3a90"/><rect x="601.48" y="100.41" width="0.5" height="3.23" style="fill:#7e3a90"/><rect x="603.26" y="104.53" width="2.47" height="0.5" transform="translate(7.19 244.86) rotate(-23.03)" style="fill:#7e3a90"/><polygon points="601.73 103.64 603.36 105.26 603.36 105.67 603.36 110.87 603.36 111.14 601.73 112.76 600.1 111.14 600.1 110.87 600.1 105.67 600.1 105.26 601.73 103.64" style="fill:#c97ea8"/><path d="M599.85,111.24v-6.09l1.88-1.87,1.89,1.88v6.08l-1.89,1.88Zm3.26-5.87L601.73,104l-1.38,1.37V111l1.38,1.37,1.38-1.37Z" style="fill:#7e3a90"/><path d="M768.48,162.71h9.28a54,54,0,1,0,0-108h-9.28" style="fill:#f1c9df"/><path d="M768.48,163h9.28a54.26,54.26,0,0,0,0-108.52h-9.28V55h9.28a53.76,53.76,0,0,1,0,107.51h-9.28Z" style="fill:#7e3a90"/><g style="clip-path:url(#clip-path-2)"><line x1="833.6" y1="57.26" x2="778.51" y2="57.26" style="fill:#f5ebf4"/><rect x="778.51" y="57.01" width="55.09" height="0.5" style="fill:#7e3a90"/><line x1="833.6" y1="61.38" x2="778.51" y2="61.38" style="fill:#f5ebf4"/><rect x="778.51" y="61.13" width="55.09" height="0.5" style="fill:#7e3a90"/><line x1="833.6" y1="65.49" x2="778.51" y2="65.49" style="fill:#f5ebf4"/><rect x="778.51" y="65.24" width="55.09" height="0.5" style="fill:#7e3a90"/><line x1="833.6" y1="69.61" x2="778.51" y2="69.61" style="fill:#f5ebf4"/><rect x="778.51" y="69.36" width="55.09" height="0.5" style="fill:#7e3a90"/><line x1="833.6" y1="73.73" x2="778.51" y2="73.73" style="fill:#f5ebf4"/><rect x="778.51" y="73.47" width="55.09" height="0.5" style="fill:#7e3a90"/><line x1="833.6" y1="77.84" x2="778.51" y2="77.84" style="fill:#f5ebf4"/><rect x="778.51" y="77.59" width="55.09" height="0.5" style="fill:#7e3a90"/><line x1="833.6" y1="81.96" x2="778.51" y2="81.96" style="fill:#f5ebf4"/><rect x="778.51" y="81.7" width="55.09" height="0.5" style="fill:#7e3a90"/><line x1="833.6" y1="86.07" x2="778.51" y2="86.07" style="fill:#f5ebf4"/><rect x="778.51" y="85.82" width="55.09" height="0.5" style="fill:#7e3a90"/><line x1="833.6" y1="90.19" x2="778.51" y2="90.19" style="fill:#f5ebf4"/><rect x="778.51" y="89.93" width="55.09" height="0.5" style="fill:#7e3a90"/><line x1="833.6" y1="94.3" x2="778.51" y2="94.3" style="fill:#f5ebf4"/><rect x="778.51" y="94.05" width="55.09" height="0.5" style="fill:#7e3a90"/><line x1="833.6" y1="98.42" x2="778.51" y2="98.42" style="fill:#f5ebf4"/><rect x="778.51" y="98.16" width="55.09" height="0.5" style="fill:#7e3a90"/><line x1="833.6" y1="102.53" x2="778.51" y2="102.53" style="fill:#f5ebf4"/><rect x="778.51" y="102.28" width="55.09" height="0.5" style="fill:#7e3a90"/><line x1="833.6" y1="106.65" x2="778.51" y2="106.65" style="fill:#f5ebf4"/><rect x="778.51" y="106.39" width="55.09" height="0.5" style="fill:#7e3a90"/><line x1="833.6" y1="110.76" x2="778.51" y2="110.76" style="fill:#f5ebf4"/><rect x="778.51" y="110.51" width="55.09" height="0.5" style="fill:#7e3a90"/><line x1="833.6" y1="114.88" x2="778.51" y2="114.88" style="fill:#f5ebf4"/><rect x="778.51" y="114.62" width="55.09" height="0.5" style="fill:#7e3a90"/><line x1="833.6" y1="118.99" x2="778.51" y2="118.99" style="fill:#f5ebf4"/><rect x="778.51" y="118.74" width="55.09" height="0.5" style="fill:#7e3a90"/><line x1="833.6" y1="123.11" x2="778.51" y2="123.11" style="fill:#f5ebf4"/><rect x="778.51" y="122.85" width="55.09" height="0.5" style="fill:#7e3a90"/><line x1="833.6" y1="127.22" x2="778.51" y2="127.22" style="fill:#f5ebf4"/><rect x="778.51" y="126.97" width="55.09" height="0.5" style="fill:#7e3a90"/><line x1="833.6" y1="131.34" x2="778.51" y2="131.34" style="fill:#f5ebf4"/><rect x="778.51" y="131.09" width="55.09" height="0.5" style="fill:#7e3a90"/><line x1="833.6" y1="135.45" x2="778.51" y2="135.45" style="fill:#f5ebf4"/><rect x="778.51" y="135.2" width="55.09" height="0.5" style="fill:#7e3a90"/><line x1="833.6" y1="139.57" x2="778.51" y2="139.57" style="fill:#f5ebf4"/><rect x="778.51" y="139.32" width="55.09" height="0.5" style="fill:#7e3a90"/><line x1="833.6" y1="143.68" x2="778.51" y2="143.68" style="fill:#f5ebf4"/><rect x="778.51" y="143.43" width="55.09" height="0.5" style="fill:#7e3a90"/><line x1="833.6" y1="147.8" x2="778.51" y2="147.8" style="fill:#f5ebf4"/><rect x="778.51" y="147.55" width="55.09" height="0.5" style="fill:#7e3a90"/><line x1="833.6" y1="151.91" x2="778.51" y2="151.91" style="fill:#f5ebf4"/><rect x="778.51" y="151.66" width="55.09" height="0.5" style="fill:#7e3a90"/><line x1="833.6" y1="156.03" x2="778.51" y2="156.03" style="fill:#f5ebf4"/><rect x="778.51" y="155.78" width="55.09" height="0.5" style="fill:#7e3a90"/><line x1="833.6" y1="160.14" x2="778.51" y2="160.14" style="fill:#f5ebf4"/><rect x="778.51" y="159.89" width="55.09" height="0.5" style="fill:#7e3a90"/></g><path d="M714.48,108.7a54,54,0,1,0,54-54A54,54,0,0,0,714.48,108.7Z" style="fill:#f7fcfe"/><path d="M714.22,108.7A54.27,54.27,0,1,1,768.48,163,54.33,54.33,0,0,1,714.22,108.7Zm.51,0A53.76,53.76,0,1,0,768.48,55,53.82,53.82,0,0,0,714.73,108.7Z" style="fill:#7e3a90"/><path d="M719.54,108.7a48.95,48.95,0,1,0,48.94-48.94A48.95,48.95,0,0,0,719.54,108.7Zm48.94-48.94a48.95,48.95,0,0,0,0,97.89" style="fill:#f6ebf4"/><path d="M719.29,108.7a49.2,49.2,0,1,1,49.19,49.2A49.25,49.25,0,0,1,719.29,108.7Zm.5,0A48.7,48.7,0,1,0,768.48,60,48.76,48.76,0,0,0,719.79,108.7Z" style="fill:#7e3a90"/><polygon points="768.49 71.37 792.51 95.26 792.51 103.73 792.51 118.08 792.51 122.15 768.49 146.04 744.47 122.15 744.47 118.08 744.47 103.73 744.47 95.26 768.49 71.37" style="fill:#da1a5d"/><path d="M744.22,122.25V95.16L768.49,71l24.27,24.15v27.09l-24.27,24.14Zm48-26.88L768.49,71.73,744.73,95.37V122l23.76,23.64L792.26,122Z" style="fill:#7d3a90"/><polyline points="768.49 71.37 792.51 95.26 792.51 103.73 792.51 118.08 792.51 122.15 768.49 146.04" style="fill:#f1bfd9"/><polygon points="768.67 146.22 792.76 122.25 792.76 95.16 768.67 71.19 768.31 71.55 792.25 95.37 792.25 122.04 768.31 145.86 768.67 146.22" style="fill:#7e3a90"/><rect x="743.87" y="118.92" width="15.2" height="0.51" transform="translate(13.19 303.17) rotate(-23.01)" style="fill:#7e3a90"/><rect x="768.24" y="126.17" width="0.5" height="19.87" style="fill:#7e3a90"/><rect x="785.26" y="111.57" width="0.5" height="15.2" transform="translate(368.8 795.62) rotate(-66.99)" style="fill:#7e3a90"/><rect x="751.21" y="90.63" width="0.51" height="15.2" transform="translate(367.59 751.68) rotate(-67.01)" style="fill:#7e3a90"/><rect x="768.24" y="71.37" width="0.5" height="19.87" style="fill:#7e3a90"/><rect x="777.91" y="97.98" width="15.2" height="0.5" transform="translate(24.17 315.13) rotate(-23.03)" style="fill:#7e3a90"/><polygon points="768.49 91.24 778.52 101.21 778.52 103.73 778.52 114.58 778.52 116.2 768.49 126.17 758.46 116.21 758.46 114.58 758.46 103.73 758.46 101.2 768.49 91.24" style="fill:#dd6178"/><path d="M758.21,116.31V101.1l10.28-10.22,10.28,10.22v15.2l-10.28,10.23Zm20.06-15-9.78-9.72-9.78,9.72V116.1l9.78,9.72,9.78-9.73Z" style="fill:#7d3a90"/><path d="M768.48,157.65a48.95,48.95,0,0,1,0-97.89l1.52,0a48.94,48.94,0,0,0,.26,97.81" style="fill:#f1c9df"/><path d="M719.29,108.7a49.25,49.25,0,0,1,49.2-49.19l1.51,0v.51a48.69,48.69,0,0,0,.26,97.31l0,.5-1.77-.09v.13A49.25,49.25,0,0,1,719.29,108.7Zm.5,0a48.76,48.76,0,0,0,43.46,48.42,49.21,49.21,0,0,1-.13-96.81A48.76,48.76,0,0,0,719.79,108.7Z" style="fill:#7e3a90"/><polygon points="804.99 100.41 808.89 104.29 808.89 105.67 808.89 111.44 808.89 112.11 804.99 115.99 801.08 112.11 801.08 111.44 801.08 105.67 801.08 104.29 804.99 100.41" style="fill:#bd1e51"/><path d="M800.83,112.21v-8l4.16-4.14,4.16,4.14v8L805,116.35Zm7.81-7.81L805,100.76l-3.66,3.64V112l3.66,3.64,3.65-3.64Z" style="fill:#7d3a90"/><polyline points="804.99 100.41 808.89 104.29 808.89 105.67 808.89 111.44 808.89 112.11 804.99 115.99" style="fill:#f3d4e6"/><polygon points="805.16 116.17 809.15 112.21 809.15 104.19 805.16 100.23 804.81 100.59 808.64 104.4 808.64 112 804.81 115.81 805.16 116.17" style="fill:#7e3a90"/><rect x="800.98" y="111.37" width="2.47" height="0.51" transform="translate(20.18 322.4) rotate(-23.01)" style="fill:#7e3a90"/><rect x="804.73" y="112.76" width="0.5" height="3.23" style="fill:#7e3a90"/><rect x="807.5" y="110.38" width="0.5" height="2.47" transform="translate(389.3 811.5) rotate(-66.99)" style="fill:#7e3a90"/><rect x="801.96" y="103.54" width="0.51" height="2.47" transform="translate(392.49 802.38) rotate(-67.01)" style="fill:#7e3a90"/><rect x="804.73" y="100.41" width="0.5" height="3.23" style="fill:#7e3a90"/><rect x="806.52" y="104.53" width="2.47" height="0.5" transform="translate(23.38 324.32) rotate(-23.03)" style="fill:#7e3a90"/><polygon points="804.99 103.64 806.62 105.26 806.62 105.67 806.62 110.87 806.62 111.14 804.99 112.76 803.36 111.14 803.36 110.87 803.36 105.67 803.36 105.26 804.99 103.64" style="fill:#c97ea8"/><path d="M803.1,111.24v-6.09l1.89-1.87,1.88,1.88v6.08L805,113.12Zm3.27-5.87L805,104l-1.38,1.37V111L805,112.4l1.38-1.37Z" style="fill:#7e3a90"/><polygon points="733.09 100.41 736.99 104.29 736.99 105.67 736.99 111.44 736.99 112.11 733.09 115.99 729.18 112.11 729.18 111.44 729.18 105.67 729.18 104.29 733.09 100.41" style="fill:#bd1e51"/><path d="M728.93,112.21v-8l4.16-4.14,4.16,4.14v8l-4.16,4.14Zm7.81-7.81-3.65-3.64-3.66,3.64V112l3.66,3.64,3.65-3.64Z" style="fill:#7d3a90"/><polyline points="733.09 100.41 736.99 104.29 736.99 105.67 736.99 111.44 736.99 112.11 733.09 115.99" style="fill:#f3d4e6"/><polygon points="733.26 116.17 737.25 112.21 737.25 104.19 733.26 100.23 732.91 100.59 736.74 104.4 736.74 112 732.91 115.81 733.26 116.17" style="fill:#7e3a90"/><rect x="729.08" y="111.37" width="2.47" height="0.51" transform="translate(14.46 294.3) rotate(-23.01)" style="fill:#7e3a90"/><rect x="732.83" y="112.76" width="0.5" height="3.23" style="fill:#7e3a90"/><rect x="735.6" y="110.38" width="0.5" height="2.47" transform="translate(345.5 745.32) rotate(-66.99)" style="fill:#7e3a90"/><rect x="730.07" y="103.54" width="0.51" height="2.47" transform="translate(348.67 736.19) rotate(-67.01)" style="fill:#7e3a90"/><rect x="732.83" y="100.41" width="0.5" height="3.23" style="fill:#7e3a90"/><rect x="734.62" y="104.53" width="2.47" height="0.5" transform="translate(17.66 296.25) rotate(-23.03)" style="fill:#7e3a90"/><polygon points="733.09 103.64 734.72 105.26 734.72 105.67 734.72 110.87 734.72 111.14 733.09 112.76 731.46 111.14 731.46 110.87 731.46 105.67 731.46 105.26 733.09 103.64" style="fill:#c97ea8"/><path d="M731.2,111.24v-6.09l1.89-1.87,1.88,1.88v6.08l-1.88,1.88Zm3.27-5.87L733.09,104l-1.38,1.37V111l1.38,1.37,1.38-1.37Z" style="fill:#7e3a90"/><path d="M637.13,284.45h9.27a54,54,0,1,0,0-108h-9.27" style="fill:#f1c9df"/><path d="M637.13,284.71h9.27a54.26,54.26,0,0,0,0-108.52h-9.27v.5h9.27a53.76,53.76,0,1,1,0,107.51h-9.27Z" style="fill:#7e3a90"/><g style="clip-path:url(#clip-path-3)"><line x1="702.24" y1="179.01" x2="647.15" y2="179.01" style="fill:#f5ebf4"/><rect x="647.15" y="178.75" width="55.09" height="0.5" style="fill:#7e3a90"/><line x1="702.24" y1="183.12" x2="647.15" y2="183.12" style="fill:#f5ebf4"/><rect x="647.15" y="182.87" width="55.09" height="0.5" style="fill:#7e3a90"/><line x1="702.24" y1="187.24" x2="647.15" y2="187.24" style="fill:#f5ebf4"/><rect x="647.15" y="186.98" width="55.09" height="0.5" style="fill:#7e3a90"/><line x1="702.24" y1="191.35" x2="647.15" y2="191.35" style="fill:#f5ebf4"/><rect x="647.15" y="191.1" width="55.09" height="0.5" style="fill:#7e3a90"/><line x1="702.24" y1="195.47" x2="647.15" y2="195.47" style="fill:#f5ebf4"/><rect x="647.15" y="195.21" width="55.09" height="0.5" style="fill:#7e3a90"/><line x1="702.24" y1="199.58" x2="647.15" y2="199.58" style="fill:#f5ebf4"/><rect x="647.15" y="199.33" width="55.09" height="0.5" style="fill:#7e3a90"/><line x1="702.24" y1="203.7" x2="647.15" y2="203.7" style="fill:#f5ebf4"/><rect x="647.15" y="203.44" width="55.09" height="0.5" style="fill:#7e3a90"/><line x1="702.24" y1="207.81" x2="647.15" y2="207.81" style="fill:#f5ebf4"/><rect x="647.15" y="207.56" width="55.09" height="0.5" style="fill:#7e3a90"/><line x1="702.24" y1="211.93" x2="647.15" y2="211.93" style="fill:#f5ebf4"/><rect x="647.15" y="211.68" width="55.09" height="0.5" style="fill:#7e3a90"/><line x1="702.24" y1="216.04" x2="647.15" y2="216.04" style="fill:#f5ebf4"/><rect x="647.15" y="215.79" width="55.09" height="0.5" style="fill:#7e3a90"/><line x1="702.24" y1="220.16" x2="647.15" y2="220.16" style="fill:#f5ebf4"/><rect x="647.15" y="219.91" width="55.09" height="0.5" style="fill:#7e3a90"/><line x1="702.24" y1="224.27" x2="647.15" y2="224.27" style="fill:#f5ebf4"/><rect x="647.15" y="224.02" width="55.09" height="0.5" style="fill:#7e3a90"/><line x1="702.24" y1="228.39" x2="647.15" y2="228.39" style="fill:#f5ebf4"/><rect x="647.15" y="228.14" width="55.09" height="0.5" style="fill:#7e3a90"/><line x1="702.24" y1="232.5" x2="647.15" y2="232.5" style="fill:#f5ebf4"/><rect x="647.15" y="232.25" width="55.09" height="0.5" style="fill:#7e3a90"/><line x1="702.24" y1="236.62" x2="647.15" y2="236.62" style="fill:#f5ebf4"/><rect x="647.15" y="236.37" width="55.09" height="0.5" style="fill:#7e3a90"/><line x1="702.24" y1="240.73" x2="647.15" y2="240.73" style="fill:#f5ebf4"/><rect x="647.15" y="240.48" width="55.09" height="0.5" style="fill:#7e3a90"/><line x1="702.24" y1="244.85" x2="647.15" y2="244.85" style="fill:#f5ebf4"/><rect x="647.15" y="244.6" width="55.09" height="0.5" style="fill:#7e3a90"/><line x1="702.24" y1="248.96" x2="647.15" y2="248.96" style="fill:#f5ebf4"/><rect x="647.15" y="248.71" width="55.09" height="0.5" style="fill:#7e3a90"/><line x1="702.24" y1="253.08" x2="647.15" y2="253.08" style="fill:#f5ebf4"/><rect x="647.15" y="252.83" width="55.09" height="0.5" style="fill:#7e3a90"/><line x1="702.24" y1="257.19" x2="647.15" y2="257.19" style="fill:#f5ebf4"/><rect x="647.15" y="256.94" width="55.09" height="0.5" style="fill:#7e3a90"/><line x1="702.24" y1="261.31" x2="647.15" y2="261.31" style="fill:#f5ebf4"/><rect x="647.15" y="261.06" width="55.09" height="0.5" style="fill:#7e3a90"/><line x1="702.24" y1="265.42" x2="647.15" y2="265.42" style="fill:#f5ebf4"/><rect x="647.15" y="265.17" width="55.09" height="0.5" style="fill:#7e3a90"/><line x1="702.24" y1="269.54" x2="647.15" y2="269.54" style="fill:#f5ebf4"/><rect x="647.15" y="269.29" width="55.09" height="0.5" style="fill:#7e3a90"/><line x1="702.24" y1="273.66" x2="647.15" y2="273.66" style="fill:#f5ebf4"/><rect x="647.15" y="273.4" width="55.09" height="0.5" style="fill:#7e3a90"/><line x1="702.24" y1="277.77" x2="647.15" y2="277.77" style="fill:#f5ebf4"/><rect x="647.15" y="277.52" width="55.09" height="0.5" style="fill:#7e3a90"/><line x1="702.24" y1="281.89" x2="647.15" y2="281.89" style="fill:#f5ebf4"/><rect x="647.15" y="281.63" width="55.09" height="0.5" style="fill:#7e3a90"/></g><path d="M583.12,230.45a54,54,0,1,0,54-54A54,54,0,0,0,583.12,230.45Z" style="fill:#f7fcfe"/><path d="M582.87,230.45a54.26,54.26,0,1,1,54.26,54.26A54.32,54.32,0,0,1,582.87,230.45Zm.5,0a53.76,53.76,0,1,0,53.76-53.76A53.82,53.82,0,0,0,583.37,230.45Z" style="fill:#7e3a90"/><path d="M588.19,230.45a48.94,48.94,0,1,0,48.94-48.95A48.94,48.94,0,0,0,588.19,230.45Zm48.94-48.95a48.95,48.95,0,0,0,0,97.89" style="fill:#f6ebf4"/><path d="M587.93,230.45a49.2,49.2,0,1,1,49.2,49.19A49.25,49.25,0,0,1,587.93,230.45Zm.51,0a48.69,48.69,0,1,0,48.69-48.7A48.75,48.75,0,0,0,588.44,230.45Z" style="fill:#7e3a90"/><polygon points="637.13 193.11 661.15 217 661.15 225.47 661.15 239.82 661.15 243.89 637.13 267.78 613.12 243.89 613.12 239.82 613.12 225.47 613.12 217 637.13 193.11" style="fill:#da1a5d"/><path d="M612.87,244V216.9l24.27-24.14,24.27,24.14V244l-24.27,24.15Zm48-26.88-23.76-23.64-23.77,23.64v26.67l23.77,23.64,23.76-23.64Z" style="fill:#7d3a90"/><polyline points="637.13 193.11 661.15 217 661.15 225.47 661.15 239.82 661.15 243.89 637.13 267.78" style="fill:#f1bfd9"/><polygon points="637.31 267.96 661.4 243.99 661.4 216.9 637.31 192.93 636.96 193.29 660.9 217.11 660.9 243.78 636.96 267.6 637.31 267.96" style="fill:#7e3a90"/><rect x="612.51" y="240.67" width="15.2" height="0.51" transform="translate(-44.84 261.52) rotate(-23.01)" style="fill:#7e3a90"/><rect x="636.88" y="247.91" width="0.5" height="19.87" style="fill:#7e3a90"/><rect x="653.91" y="233.31" width="0.5" height="15.2" transform="translate(176.73 748.88) rotate(-66.99)" style="fill:#7e3a90"/><rect x="619.86" y="212.38" width="0.51" height="15.2" transform="translate(175.45 704.95) rotate(-67.01)" style="fill:#7e3a90"/><rect x="636.88" y="193.11" width="0.5" height="19.87" style="fill:#7e3a90"/><rect x="646.56" y="219.73" width="15.2" height="0.5" transform="translate(-33.92 273.45) rotate(-23.03)" style="fill:#7e3a90"/><polygon points="637.13 212.98 647.16 222.95 647.16 225.47 647.16 236.32 647.16 237.94 637.13 247.91 627.11 237.95 627.11 236.32 627.11 225.47 627.11 222.94 637.13 212.98" style="fill:#dd6178"/><path d="M626.85,238.05V222.84l10.28-10.22,10.29,10.23v15.2l-10.29,10.22Zm20.06-15-9.78-9.73-9.77,9.72v14.79l9.77,9.72,9.78-9.72Z" style="fill:#7d3a90"/><path d="M637.13,279.39a48.95,48.95,0,0,1,0-97.89l1.51,0a48.94,48.94,0,0,0,.26,97.81" style="fill:#f1c9df"/><path d="M587.93,230.45a49.26,49.26,0,0,1,49.21-49.2l1.51,0v.5a48.69,48.69,0,0,0,.26,97.31l0,.51-1.76-.1v.13A49.25,49.25,0,0,1,587.93,230.45Zm.51,0a48.76,48.76,0,0,0,43.46,48.41,49.21,49.21,0,0,1-.13-96.81A48.76,48.76,0,0,0,588.44,230.45Z" style="fill:#7e3a90"/><path d="M768.48,284.45h9.28a54,54,0,1,0,0-108h-9.28" style="fill:#f1c9df"/><path d="M768.48,284.71h9.28a54.26,54.26,0,0,0,0-108.52h-9.28v.5h9.28a53.76,53.76,0,0,1,0,107.51h-9.28Z" style="fill:#7e3a90"/><g style="clip-path:url(#clip-path-4)"><line x1="833.6" y1="179.01" x2="778.51" y2="179.01" style="fill:#f5ebf4"/><rect x="778.51" y="178.75" width="55.09" height="0.5" style="fill:#7e3a90"/><line x1="833.6" y1="183.12" x2="778.51" y2="183.12" style="fill:#f5ebf4"/><rect x="778.51" y="182.87" width="55.09" height="0.5" style="fill:#7e3a90"/><line x1="833.6" y1="187.24" x2="778.51" y2="187.24" style="fill:#f5ebf4"/><rect x="778.51" y="186.98" width="55.09" height="0.5" style="fill:#7e3a90"/><line x1="833.6" y1="191.35" x2="778.51" y2="191.35" style="fill:#f5ebf4"/><rect x="778.51" y="191.1" width="55.09" height="0.5" style="fill:#7e3a90"/><line x1="833.6" y1="195.47" x2="778.51" y2="195.47" style="fill:#f5ebf4"/><rect x="778.51" y="195.21" width="55.09" height="0.5" style="fill:#7e3a90"/><line x1="833.6" y1="199.58" x2="778.51" y2="199.58" style="fill:#f5ebf4"/><rect x="778.51" y="199.33" width="55.09" height="0.5" style="fill:#7e3a90"/><line x1="833.6" y1="203.7" x2="778.51" y2="203.7" style="fill:#f5ebf4"/><rect x="778.51" y="203.44" width="55.09" height="0.5" style="fill:#7e3a90"/><line x1="833.6" y1="207.81" x2="778.51" y2="207.81" style="fill:#f5ebf4"/><rect x="778.51" y="207.56" width="55.09" height="0.5" style="fill:#7e3a90"/><line x1="833.6" y1="211.93" x2="778.51" y2="211.93" style="fill:#f5ebf4"/><rect x="778.51" y="211.68" width="55.09" height="0.5" style="fill:#7e3a90"/><line x1="833.6" y1="216.04" x2="778.51" y2="216.04" style="fill:#f5ebf4"/><rect x="778.51" y="215.79" width="55.09" height="0.5" style="fill:#7e3a90"/><line x1="833.6" y1="220.16" x2="778.51" y2="220.16" style="fill:#f5ebf4"/><rect x="778.51" y="219.91" width="55.09" height="0.5" style="fill:#7e3a90"/><line x1="833.6" y1="224.27" x2="778.51" y2="224.27" style="fill:#f5ebf4"/><rect x="778.51" y="224.02" width="55.09" height="0.5" style="fill:#7e3a90"/><line x1="833.6" y1="228.39" x2="778.51" y2="228.39" style="fill:#f5ebf4"/><rect x="778.51" y="228.14" width="55.09" height="0.5" style="fill:#7e3a90"/><line x1="833.6" y1="232.5" x2="778.51" y2="232.5" style="fill:#f5ebf4"/><rect x="778.51" y="232.25" width="55.09" height="0.5" style="fill:#7e3a90"/><line x1="833.6" y1="236.62" x2="778.51" y2="236.62" style="fill:#f5ebf4"/><rect x="778.51" y="236.37" width="55.09" height="0.5" style="fill:#7e3a90"/><line x1="833.6" y1="240.73" x2="778.51" y2="240.73" style="fill:#f5ebf4"/><rect x="778.51" y="240.48" width="55.09" height="0.5" style="fill:#7e3a90"/><line x1="833.6" y1="244.85" x2="778.51" y2="244.85" style="fill:#f5ebf4"/><rect x="778.51" y="244.6" width="55.09" height="0.5" style="fill:#7e3a90"/><line x1="833.6" y1="248.96" x2="778.51" y2="248.96" style="fill:#f5ebf4"/><rect x="778.51" y="248.71" width="55.09" height="0.5" style="fill:#7e3a90"/><line x1="833.6" y1="253.08" x2="778.51" y2="253.08" style="fill:#f5ebf4"/><rect x="778.51" y="252.83" width="55.09" height="0.5" style="fill:#7e3a90"/><line x1="833.6" y1="257.19" x2="778.51" y2="257.19" style="fill:#f5ebf4"/><rect x="778.51" y="256.94" width="55.09" height="0.5" style="fill:#7e3a90"/><line x1="833.6" y1="261.31" x2="778.51" y2="261.31" style="fill:#f5ebf4"/><rect x="778.51" y="261.06" width="55.09" height="0.5" style="fill:#7e3a90"/><line x1="833.6" y1="265.42" x2="778.51" y2="265.42" style="fill:#f5ebf4"/><rect x="778.51" y="265.17" width="55.09" height="0.5" style="fill:#7e3a90"/><line x1="833.6" y1="269.54" x2="778.51" y2="269.54" style="fill:#f5ebf4"/><rect x="778.51" y="269.29" width="55.09" height="0.5" style="fill:#7e3a90"/><line x1="833.6" y1="273.66" x2="778.51" y2="273.66" style="fill:#f5ebf4"/><rect x="778.51" y="273.4" width="55.09" height="0.5" style="fill:#7e3a90"/><line x1="833.6" y1="277.77" x2="778.51" y2="277.77" style="fill:#f5ebf4"/><rect x="778.51" y="277.52" width="55.09" height="0.5" style="fill:#7e3a90"/><line x1="833.6" y1="281.89" x2="778.51" y2="281.89" style="fill:#f5ebf4"/><rect x="778.51" y="281.63" width="55.09" height="0.5" style="fill:#7e3a90"/></g><path d="M714.48,230.45a54,54,0,1,0,54-54A54,54,0,0,0,714.48,230.45Z" style="fill:#f7fcfe"/><path d="M714.22,230.45a54.27,54.27,0,1,1,54.26,54.26A54.33,54.33,0,0,1,714.22,230.45Zm.51,0a53.76,53.76,0,1,0,53.75-53.76A53.81,53.81,0,0,0,714.73,230.45Z" style="fill:#7e3a90"/><path d="M719.54,230.45a48.95,48.95,0,1,0,48.94-48.95A48.94,48.94,0,0,0,719.54,230.45Zm48.94-48.95a48.95,48.95,0,0,0,0,97.89" style="fill:#f6ebf4"/><path d="M719.29,230.45a49.2,49.2,0,1,1,49.19,49.19A49.25,49.25,0,0,1,719.29,230.45Zm.5,0a48.7,48.7,0,1,0,48.69-48.7A48.76,48.76,0,0,0,719.79,230.45Z" style="fill:#7e3a90"/><polygon points="768.49 193.11 792.51 217 792.51 225.47 792.51 239.82 792.51 243.89 768.49 267.78 744.47 243.89 744.47 239.82 744.47 225.47 744.47 217 768.49 193.11" style="fill:#da1a5d"/><path d="M744.22,244V216.9l24.27-24.14,24.27,24.14V244l-24.27,24.15Zm48-26.88-23.77-23.64-23.76,23.64v26.67l23.76,23.64,23.77-23.64Z" style="fill:#7d3a90"/><polyline points="768.49 193.11 792.51 217 792.51 225.47 792.51 239.82 792.51 243.89 768.49 267.78" style="fill:#f1bfd9"/><polygon points="768.67 267.96 792.76 243.99 792.76 216.9 768.67 192.93 768.31 193.29 792.25 217.11 792.25 243.78 768.31 267.6 768.67 267.96" style="fill:#7e3a90"/><rect x="743.87" y="240.67" width="15.2" height="0.51" transform="translate(-34.39 312.86) rotate(-23.01)" style="fill:#7e3a90"/><rect x="768.24" y="247.91" width="0.5" height="19.87" style="fill:#7e3a90"/><rect x="785.26" y="233.31" width="0.5" height="15.2" transform="translate(256.74 869.78) rotate(-66.99)" style="fill:#7e3a90"/><rect x="751.21" y="212.38" width="0.51" height="15.2" transform="translate(255.51 825.88) rotate(-67.01)" style="fill:#7e3a90"/><rect x="768.24" y="193.11" width="0.5" height="19.87" style="fill:#7e3a90"/><rect x="777.91" y="219.73" width="15.2" height="0.5" transform="translate(-23.45 324.84) rotate(-23.03)" style="fill:#7e3a90"/><polygon points="768.49 212.98 778.52 222.95 778.52 225.47 778.52 236.32 778.52 237.94 768.49 247.91 758.46 237.95 758.46 236.32 758.46 225.47 758.46 222.94 768.49 212.98" style="fill:#dd6178"/><path d="M758.21,238.05V222.84l10.28-10.22,10.28,10.23v15.2l-10.28,10.22Zm20.06-15-9.78-9.73-9.78,9.72v14.79l9.78,9.72,9.78-9.72Z" style="fill:#7d3a90"/><path d="M768.48,279.39a48.95,48.95,0,0,1,0-97.89l1.52,0a48.94,48.94,0,0,0,.26,97.81" style="fill:#f1c9df"/><path d="M719.29,230.45a49.25,49.25,0,0,1,49.2-49.2l1.51,0v.5a48.69,48.69,0,0,0,.26,97.31l0,.51-1.77-.1v.13A49.25,49.25,0,0,1,719.29,230.45Zm.5,0a48.76,48.76,0,0,0,43.46,48.41,49.21,49.21,0,0,1-.13-96.81A48.77,48.77,0,0,0,719.79,230.45Z" style="fill:#7e3a90"/><polygon points="804.99 222.15 808.89 226.03 808.89 227.41 808.89 233.19 808.89 233.85 804.99 237.73 801.08 233.85 801.08 233.19 801.08 227.41 801.08 226.03 804.99 222.15" style="fill:#bd1e51"/><path d="M800.83,234v-8l4.16-4.14,4.16,4.14v8L805,238.09Zm7.81-7.81L805,222.5l-3.66,3.64v7.6l3.66,3.64,3.65-3.64Z" style="fill:#7d3a90"/><polyline points="804.99 222.15 808.89 226.03 808.89 227.41 808.89 233.19 808.89 233.85 804.99 237.73" style="fill:#f3d4e6"/><polygon points="805.16 237.91 809.15 233.95 809.15 225.93 805.16 221.97 804.81 222.33 808.64 226.14 808.64 233.74 804.81 237.55 805.16 237.91" style="fill:#7e3a90"/><rect x="800.98" y="233.11" width="2.47" height="0.51" transform="translate(-27.4 332.09) rotate(-23.01)" style="fill:#7e3a90"/><rect x="804.73" y="234.5" width="0.5" height="3.23" style="fill:#7e3a90"/><rect x="807.5" y="232.13" width="0.5" height="2.47" transform="translate(277.24 885.65) rotate(-66.99)" style="fill:#7e3a90"/><rect x="801.96" y="225.28" width="0.51" height="2.47" transform="translate(280.42 876.59) rotate(-67.01)" style="fill:#7e3a90"/><rect x="804.73" y="222.15" width="0.5" height="3.23" style="fill:#7e3a90"/><rect x="806.52" y="226.27" width="2.47" height="0.5" transform="translate(-24.24 334.02) rotate(-23.03)" style="fill:#7e3a90"/><polygon points="804.99 225.38 806.62 227 806.62 227.41 806.62 232.62 806.62 232.88 804.99 234.5 803.36 232.88 803.36 232.62 803.36 227.41 803.36 227 804.99 225.38" style="fill:#c97ea8"/><path d="M803.1,233V226.9L805,225l1.88,1.88V233L805,234.86Zm3.27-5.88L805,225.74l-1.38,1.37v5.67l1.38,1.37,1.38-1.38Z" style="fill:#7e3a90"/><polygon points="733.09 222.15 736.99 226.03 736.99 227.41 736.99 233.19 736.99 233.85 733.09 237.73 729.18 233.85 729.18 233.19 729.18 227.41 729.18 226.03 733.09 222.15" style="fill:#bd1e51"/><path d="M728.93,234v-8l4.16-4.14,4.16,4.14v8l-4.16,4.14Zm7.81-7.81-3.65-3.64-3.66,3.64v7.6l3.66,3.64,3.65-3.64Z" style="fill:#7d3a90"/><polyline points="733.09 222.15 736.99 226.03 736.99 227.41 736.99 233.19 736.99 233.85 733.09 237.73" style="fill:#f3d4e6"/><polygon points="733.26 237.91 737.25 233.95 737.25 225.93 733.26 221.97 732.91 222.33 736.74 226.14 736.74 233.74 732.91 237.55 733.26 237.91" style="fill:#7e3a90"/><rect x="729.08" y="233.11" width="2.47" height="0.51" transform="translate(-33.12 303.99) rotate(-23.01)" style="fill:#7e3a90"/><rect x="732.83" y="234.5" width="0.5" height="3.23" style="fill:#7e3a90"/><rect x="735.6" y="232.13" width="0.5" height="2.47" transform="translate(233.45 819.47) rotate(-66.99)" style="fill:#7e3a90"/><rect x="730.07" y="225.28" width="0.51" height="2.47" transform="translate(236.6 810.4) rotate(-67.01)" style="fill:#7e3a90"/><rect x="732.83" y="222.15" width="0.5" height="3.23" style="fill:#7e3a90"/><rect x="734.62" y="226.27" width="2.47" height="0.5" transform="translate(-29.97 305.96) rotate(-23.03)" style="fill:#7e3a90"/><polygon points="733.09 225.38 734.72 227 734.72 227.41 734.72 232.62 734.72 232.88 733.09 234.5 731.46 232.88 731.46 232.62 731.46 227.41 731.46 227 733.09 225.38" style="fill:#c97ea8"/><path d="M731.2,233V226.9l1.89-1.88L735,226.9V233l-1.88,1.88Zm3.27-5.88-1.38-1.37-1.38,1.37v5.67l1.38,1.37,1.38-1.38Z" style="fill:#7e3a90"/></svg>
