<svg id="rupie-tokens" xmlns="http://www.w3.org/2000/svg" xmlns:xlink="http://www.w3.org/1999/xlink" width="1421.93" height="330.27" viewBox="0 0 1421.93 330.27"><defs><clipPath id="clip-path"><path d="M768.48,284.45h9.28a54,54,0,1,0,0-108h-9.28" style="fill:none"/></clipPath><clipPath id="clip-path-2"><path d="M768.48,162.71h9.28a54,54,0,1,0,0-108h-9.28" style="fill:none"/></clipPath><clipPath id="clip-path-3"><path d="M634.27,162.71h9.28a54,54,0,1,0,0-108h-9.28" style="fill:none"/></clipPath><clipPath id="clip-path-4"><path d="M634.27,283.48h9.28a54,54,0,1,0,0-108h-9.28" style="fill:none"/></clipPath></defs><title>Artboard 1</title><g style="opacity:0.8"><rect x="1031.82" y="230.43" width="342.92" height="30.64" transform="translate(2406.56 491.5) rotate(-180)" style="fill:#fff"/></g><g id="rupie-right-tube"><g id="rupie" data-name="rupie"><polygon points="1016.03 245.51 1023.49 238.01 1050.4 238.01 1057.86 245.51 1050.4 253 1023.49 253 1016.03 245.51" style="fill:#fde9f2"/><polygon points="1016.03 245.51 1016.03 245.51 1057.86 245.51 1057.86 245.51 1050.4 253 1023.49 253 1016.03 245.51" style="fill:#ee2e7b"/><polygon points="1021.2 245.51 1025 241.69 1048.89 241.69 1052.69 245.51 1048.89 249.33 1025 249.33 1021.2 245.51" style="fill:#eab7d5"/><path d="M1050.4,238h-26.91l-7.46,7.5,7.46,7.49h26.91l7.46-7.49Zm-1.1,10.9,2.85-2.87h3.65l-5.43,5.47Zm-25.78,2.6-5.43-5.47h3.65l2.85,2.87Zm1.13-9.47-2.91,2.93h-3.65l5.49-5.52Zm.8,6.21-2.73-2.74,2.73-2.75h23l2.73,2.75-2.73,2.74h-23Zm26.7-3.28-2.91-2.93,1.07-2.59,5.49,5.52Zm-10.47-5.88h7.62l-1.07,2.6h-22.56l-1.07-2.6h17.08Zm-1.4,12.83h-15.76l1.07-2.59h22.72l1.07,2.59h-9.1Z" style="fill:#a12573"/></g><g id="rupie-2" data-name="rupie"><polygon points="1062.31 245.51 1069.76 238.01 1096.68 238.01 1104.13 245.51 1096.68 253 1069.76 253 1062.31 245.51" style="fill:#fde9f2"/><polygon points="1062.31 245.51 1062.31 245.51 1104.13 245.51 1104.13 245.51 1096.68 253 1069.76 253 1062.31 245.51" style="fill:#ee2e7b"/><polygon points="1067.47 245.51 1071.28 241.69 1095.16 241.69 1098.96 245.51 1095.16 249.33 1071.28 249.33 1067.47 245.51" style="fill:#eab7d5"/><path d="M1096.68,238h-26.92l-7.45,7.5,7.45,7.49h26.92l7.45-7.49Zm-1.11,10.9,2.86-2.87h3.65l-5.44,5.47Zm-25.78,2.6-5.43-5.47H1068l2.85,2.87Zm1.13-9.47L1068,245h-3.65l5.49-5.52Zm.8,6.21-2.72-2.74,2.72-2.75h23l2.73,2.75-2.73,2.74h-23Zm26.71-3.28-2.91-2.93,1.07-2.59,5.49,5.52ZM1088,239.09h7.62l-1.07,2.6h-22.56l-1.07-2.6H1088Zm-1.4,12.83h-15.76l1.07-2.59h22.72l1.07,2.59h-9.1Z" style="fill:#a12573"/></g><g id="rupie-3" data-name="rupie"><polygon points="1114.49 245.51 1121.94 238.01 1148.86 238.01 1156.31 245.51 1148.86 253 1121.94 253 1114.49 245.51" style="fill:#fde9f2"/><polygon points="1114.49 245.51 1114.49 245.51 1156.31 245.51 1156.31 245.51 1148.86 253 1121.94 253 1114.49 245.51" style="fill:#ee2e7b"/><polygon points="1119.66 245.51 1123.46 241.69 1147.34 241.69 1151.14 245.51 1147.34 249.33 1123.46 249.33 1119.66 245.51" style="fill:#eab7d5"/><path d="M1148.86,238h-26.92l-7.45,7.5,7.45,7.49h26.92l7.45-7.49Zm-1.1,10.9,2.85-2.87h3.65l-5.43,5.47Zm-25.78,2.6-5.44-5.47h3.65l2.85,2.87Zm1.12-9.47-2.91,2.93h-3.65l5.49-5.52Zm.8,6.21-2.72-2.74,2.72-2.75h23l2.72,2.75-2.72,2.74h-23Zm26.71-3.28L1147.7,242l1.07-2.59,5.49,5.52Zm-10.48-5.88h7.62l-1.07,2.6h-22.56l-1.07-2.6h17.08Zm-1.4,12.83H1123l1.07-2.59h22.72l1.07,2.59h-9.1Z" style="fill:#a12573"/></g><g id="rupie-4" data-name="rupie"><polygon points="1166.26 245.51 1173.72 238.01 1200.63 238.01 1208.09 245.51 1200.63 253 1173.72 253 1166.26 245.51" style="fill:#fde9f2"/><polygon points="1166.26 245.51 1166.26 245.51 1208.09 245.51 1208.09 245.51 1200.63 253 1173.72 253 1166.26 245.51" style="fill:#ee2e7b"/><polygon points="1171.43 245.51 1175.23 241.69 1199.12 241.69 1202.92 245.51 1199.12 249.33 1175.23 249.33 1171.43 245.51" style="fill:#eab7d5"/><path d="M1200.63,238h-26.91l-7.46,7.5,7.46,7.49h26.91l7.46-7.49Zm-1.1,10.9,2.85-2.87H1206l-5.43,5.47Zm-25.78,2.6-5.43-5.47H1172l2.85,2.87Zm1.13-9.47L1172,245h-3.65l5.49-5.52Zm.8,6.21-2.73-2.74,2.73-2.75h23l2.73,2.75-2.73,2.74h-23Zm26.7-3.28-2.91-2.93,1.07-2.59L1206,245Zm-10.47-5.88h7.62l-1.07,2.6H1175.9l-1.07-2.6h17.08Zm-1.4,12.83h-15.77l1.07-2.59h22.73l1.07,2.59h-9.1Z" style="fill:#a12573"/></g><g id="rupie-5" data-name="rupie"><polygon points="1217.5 245.51 1224.96 238.01 1251.87 238.01 1259.33 245.51 1251.87 253 1224.96 253 1217.5 245.51" style="fill:#fde9f2"/><polygon points="1217.5 245.51 1217.5 245.51 1259.33 245.51 1259.33 245.51 1251.87 253 1224.96 253 1217.5 245.51" style="fill:#ee2e7b"/><polygon points="1222.67 245.51 1226.47 241.69 1250.36 241.69 1254.16 245.51 1250.36 249.33 1226.47 249.33 1222.67 245.51" style="fill:#eab7d5"/><path d="M1251.87,238H1225l-7.46,7.5L1225,253h26.91l7.46-7.49Zm-1.1,10.9,2.85-2.87h3.65l-5.43,5.47Zm-25.78,2.6-5.43-5.47h3.65l2.85,2.87Zm1.13-9.47-2.91,2.93h-3.65l5.49-5.52Zm.8,6.21-2.73-2.74,2.73-2.75h23l2.73,2.75-2.73,2.74h-23Zm26.7-3.28-2.91-2.93,1.07-2.59,5.49,5.52Zm-10.47-5.88h7.61l-1.07,2.6h-22.55l-1.07-2.6h17.08Zm-1.4,12.83H1226l1.07-2.59h22.73l1.07,2.59h-9.1Z" style="fill:#a12573"/></g><g id="rupie-6" data-name="rupie"><polygon points="1269.62 245.51 1277.07 238.01 1303.99 238.01 1311.44 245.51 1303.99 253 1277.07 253 1269.62 245.51" style="fill:#fde9f2"/><polygon points="1269.62 245.51 1269.62 245.51 1311.44 245.51 1311.44 245.51 1303.99 253 1277.07 253 1269.62 245.51" style="fill:#ee2e7b"/><polygon points="1274.79 245.51 1278.59 241.69 1302.47 241.69 1306.27 245.51 1302.47 249.33 1278.59 249.33 1274.79 245.51" style="fill:#eab7d5"/><path d="M1304,238h-26.92l-7.45,7.5,7.45,7.49H1304l7.45-7.49Zm-1.11,10.9,2.86-2.87h3.65l-5.44,5.47Zm-25.78,2.6-5.43-5.47h3.65l2.85,2.87Zm1.13-9.47-2.91,2.93h-3.65l5.49-5.52Zm.8,6.21-2.72-2.74,2.72-2.75h23l2.73,2.75-2.73,2.74h-23Zm26.71-3.28-2.91-2.93,1.07-2.59,5.49,5.52Zm-10.48-5.88h7.62l-1.07,2.6h-22.56l-1.07-2.6h17.08Zm-1.4,12.83H1278.1l1.07-2.59h22.72l1.07,2.59h-9.1Z" style="fill:#a12573"/></g><g id="rupie-7" data-name="rupie"><polygon points="1321.8 245.51 1329.25 238.01 1356.17 238.01 1363.62 245.51 1356.17 253 1329.25 253 1321.8 245.51" style="fill:#fde9f2"/><polygon points="1321.8 245.51 1321.8 245.51 1363.62 245.51 1363.62 245.51 1356.17 253 1329.25 253 1321.8 245.51" style="fill:#ee2e7b"/><polygon points="1326.97 245.51 1330.77 241.69 1354.65 241.69 1358.45 245.51 1354.65 249.33 1330.77 249.33 1326.97 245.51" style="fill:#eab7d5"/><path d="M1356.17,238h-26.92l-7.45,7.5,7.45,7.49h26.92l7.45-7.49Zm-1.1,10.9,2.85-2.87h3.65l-5.43,5.47Zm-25.78,2.6-5.44-5.47h3.65l2.85,2.87Zm1.12-9.47L1327.5,245h-3.65l5.49-5.52Zm.8,6.21-2.72-2.74,2.72-2.75h23l2.72,2.75-2.72,2.74h-23Zm26.71-3.28L1355,242l1.07-2.59,5.49,5.52Zm-10.48-5.88h7.62l-1.07,2.6h-22.56l-1.07-2.6h17.08Zm-1.4,12.83h-15.76l1.07-2.59h22.72l1.07,2.59H1346Z" style="fill:#a12573"/></g><g id="rupie-8" data-name="rupie"><polygon points="1373.57 245.51 1381.03 238.01 1407.94 238.01 1415.4 245.51 1407.94 253 1381.03 253 1373.57 245.51" style="fill:#fde9f2"/><polygon points="1373.57 245.51 1373.57 245.51 1415.4 245.51 1415.4 245.51 1407.94 253 1381.03 253 1373.57 245.51" style="fill:#ee2e7b"/><polygon points="1378.74 245.51 1382.54 241.69 1406.43 241.69 1410.23 245.51 1406.43 249.33 1382.54 249.33 1378.74 245.51" style="fill:#eab7d5"/><path d="M1407.94,238H1381l-7.46,7.5L1381,253h26.91l7.46-7.49Zm-1.1,10.9,2.85-2.87h3.65l-5.43,5.47Zm-25.78,2.6-5.43-5.47h3.65l2.85,2.87Zm1.13-9.47-2.91,2.93h-3.65l5.49-5.52Zm.8,6.21-2.73-2.74,2.73-2.75h23l2.73,2.75-2.73,2.74h-23Zm26.7-3.28-2.91-2.93,1.07-2.59,5.49,5.52Zm-10.47-5.88h7.62l-1.07,2.6h-22.56l-1.07-2.6h17.08Zm-1.4,12.83h-15.77l1.07-2.59h22.73l1.07,2.59h-9.1Z" style="fill:#a12573"/></g></g><polygon points="1024.86 267.71 1024.86 225.31 1032.06 228.19 1032.06 263.71 1024.86 267.71" style="fill:#fde9f2"/><path d="M1024.36,224.57l8.2,3.28V264l-8.2,4.56Zm7.2,4-6.2-2.47v40.81l6.2-3.45Z" style="fill:#a12573"/><g id="tube-right"><g style="opacity:0.4"><rect x="1032.55" y="230.43" width="382.09" height="30.64" transform="translate(2447.19 491.5) rotate(-180)" style="fill:#a0dbe3"/></g><rect x="1032.57" y="232.31" width="382.07" height="2.94" transform="translate(2447.21 467.56) rotate(-180)" style="fill:#fff"/></g><g style="opacity:0.8"><rect x="41.65" y="77.12" width="342.92" height="30.64" style="fill:#fff"/></g><g id="rupie-left-tube"><g id="rupie-9" data-name="rupie"><polygon points="406.2 92.19 398.74 84.7 371.83 84.7 364.37 92.19 371.83 99.69 398.74 99.69 406.2 92.19" style="fill:#fde9f2"/><polygon points="406.2 92.19 406.2 92.19 364.37 92.19 364.37 92.19 371.83 99.69 398.74 99.69 406.2 92.19" style="fill:#ee2e7b"/><polygon points="401.03 92.19 397.23 88.37 373.34 88.37 369.54 92.19 373.34 96.01 397.23 96.01 401.03 92.19" style="fill:#eab7d5"/><path d="M398.74,84.7H371.83l-7.46,7.49,7.46,7.5h26.91l7.46-7.5Zm-1.1,10.9,2.85-2.87h3.65l-5.43,5.46Zm-25.78,2.59-5.43-5.46h3.65l2.85,2.87ZM373,88.73l-2.91,2.92h-3.65l5.49-5.52Zm.8,6.2-2.73-2.74,2.73-2.74h23l2.73,2.74-2.73,2.74h-23Zm26.7-3.28-2.91-2.92,1.07-2.6,5.49,5.52ZM382,85.78h15.68l-1.07,2.59H374l-1.07-2.59h9Zm-1.4,12.83h-7.7l1.07-2.6h22.73l1.07,2.6H380.55Z" style="fill:#a12573"/></g><g id="rupie-10" data-name="rupie"><polygon points="354.08 92.19 346.63 84.7 319.71 84.7 312.26 92.19 319.71 99.69 346.63 99.69 354.08 92.19" style="fill:#fde9f2"/><polygon points="354.08 92.19 354.08 92.19 312.26 92.19 312.26 92.19 319.71 99.69 346.63 99.69 354.08 92.19" style="fill:#ee2e7b"/><polygon points="348.91 92.19 345.11 88.37 321.23 88.37 317.43 92.19 321.23 96.01 345.11 96.01 348.91 92.19" style="fill:#eab7d5"/><path d="M346.63,84.7H319.71l-7.45,7.49,7.45,7.5h26.92l7.45-7.5Zm-1.1,10.9,2.85-2.87H352l-5.43,5.46Zm-25.78,2.59-5.44-5.46H318l2.85,2.87Zm1.12-9.46L318,91.65h-3.65l5.49-5.52Zm.81,6.2L319,92.19l2.73-2.74h23l2.72,2.74-2.72,2.74h-23Zm26.7-3.28-2.91-2.92,1.07-2.6L352,91.65Zm-18.54-5.87h15.68l-1.07,2.59H321.89l-1.07-2.59h9Zm-1.4,12.83h-7.7l1.07-2.6h22.72l1.07,2.6H328.44Z" style="fill:#a12573"/></g><g id="rupie-11" data-name="rupie"><polygon points="301.9 92.19 294.45 84.7 267.53 84.7 260.08 92.19 267.53 99.69 294.45 99.69 301.9 92.19" style="fill:#fde9f2"/><polygon points="301.9 92.19 301.9 92.19 260.08 92.19 260.08 92.19 267.53 99.69 294.45 99.69 301.9 92.19" style="fill:#ee2e7b"/><polygon points="296.73 92.19 292.93 88.37 269.05 88.37 265.25 92.19 269.05 96.01 292.93 96.01 296.73 92.19" style="fill:#eab7d5"/><path d="M294.45,84.7H267.53l-7.45,7.49,7.45,7.5h26.92l7.45-7.5Zm-1.1,10.9,2.85-2.87h3.65l-5.44,5.46Zm-25.79,2.59-5.43-5.46h3.65l2.85,2.87Zm1.13-9.46-2.91,2.92h-3.65l5.49-5.52Zm.8,6.2-2.72-2.74,2.72-2.74h23l2.73,2.74-2.73,2.74h-23Zm26.71-3.28-2.91-2.92,1.07-2.6,5.49,5.52Zm-18.54-5.87h15.68l-1.07,2.59H269.71l-1.07-2.59h9Zm-1.4,12.83h-7.7l1.07-2.6h22.72l1.07,2.6H276.26Z" style="fill:#a12573"/></g><g id="rupie-12" data-name="rupie"><polygon points="250.13 92.19 242.67 84.7 215.76 84.7 208.3 92.19 215.76 99.69 242.67 99.69 250.13 92.19" style="fill:#fde9f2"/><polygon points="250.13 92.19 250.13 92.19 208.3 92.19 208.3 92.19 215.76 99.69 242.67 99.69 250.13 92.19" style="fill:#ee2e7b"/><polygon points="244.96 92.19 241.16 88.37 217.27 88.37 213.47 92.19 217.27 96.01 241.16 96.01 244.96 92.19" style="fill:#eab7d5"/><path d="M242.67,84.7H215.76l-7.46,7.49,7.46,7.5h26.91l7.46-7.5Zm-1.1,10.9,2.85-2.87h3.65l-5.43,5.46Zm-25.78,2.59-5.43-5.46H214l2.85,2.87Zm1.13-9.46L214,91.65h-3.65l5.49-5.52Zm.8,6.2L215,92.19l2.73-2.74h23l2.73,2.74-2.73,2.74h-23Zm26.7-3.28-2.91-2.92,1.07-2.6,5.49,5.52Zm-18.54-5.87h15.68l-1.07,2.59H217.93l-1.07-2.59h9Zm-1.4,12.83h-7.7l1.07-2.6h22.72l1.08,2.6H224.48Z" style="fill:#a12573"/></g><g id="rupie-13" data-name="rupie"><polygon points="198.89 92.19 191.43 84.7 164.52 84.7 157.06 92.19 164.52 99.69 191.43 99.69 198.89 92.19" style="fill:#fde9f2"/><polygon points="198.89 92.19 198.89 92.19 157.06 92.19 157.06 92.19 164.52 99.69 191.43 99.69 198.89 92.19" style="fill:#ee2e7b"/><polygon points="193.72 92.19 189.92 88.37 166.03 88.37 162.23 92.19 166.03 96.01 189.92 96.01 193.72 92.19" style="fill:#eab7d5"/><path d="M191.43,84.7H164.52l-7.46,7.49,7.46,7.5h26.91l7.46-7.5Zm5.4,7h-3.65l-2.91-2.92,1.07-2.6Zm-4.63.54-2.73,2.74h-23l-2.73-2.74,2.73-2.74h23Zm-19-6.41h17.08l-1.07,2.59H166.69l-1.07-2.59Zm-8.63.35,1.07,2.6-2.91,2.92h-3.65Zm-5.49,6.6h3.65l2.85,2.87-1.07,2.59Zm15.52,5.88h-9.1l1.07-2.6h22.73l1.07,2.6Zm16.76-.42-1.07-2.59,2.85-2.87h3.65Z" style="fill:#a12573"/></g><g id="rupie-14" data-name="rupie"><polygon points="146.78 92.19 139.32 84.7 112.4 84.7 104.95 92.19 112.4 99.69 139.32 99.69 146.78 92.19" style="fill:#fde9f2"/><polygon points="146.78 92.19 146.78 92.19 104.95 92.19 104.95 92.19 112.4 99.69 139.32 99.69 146.78 92.19" style="fill:#ee2e7b"/><polygon points="141.6 92.19 137.81 88.37 113.92 88.37 110.12 92.19 113.92 96.01 137.81 96.01 141.6 92.19" style="fill:#eab7d5"/><path d="M139.32,84.7H112.4L105,92.19l7.45,7.5h26.92l7.45-7.5Zm-1.1,10.9,2.85-2.87h3.65l-5.43,5.46Zm-25.78,2.59L107,92.73h3.65l2.86,2.87Zm1.12-9.46-2.91,2.92H107l5.49-5.52Zm.81,6.2-2.73-2.74,2.73-2.74h23l2.72,2.74-2.72,2.74h-23Zm26.7-3.28-2.91-2.92,1.07-2.6,5.49,5.52Zm-18.54-5.87h15.68l-1.07,2.59H114.58l-1.07-2.59h9Zm-1.4,12.83h-7.7L114.5,96h22.72l1.07,2.6H121.13Z" style="fill:#a12573"/></g><g id="rupie-15" data-name="rupie"><polygon points="94.59 92.19 87.14 84.7 60.22 84.7 52.77 92.19 60.22 99.69 87.14 99.69 94.59 92.19" style="fill:#fde9f2"/><polygon points="94.59 92.19 94.59 92.19 52.77 92.19 52.77 92.19 60.22 99.69 87.14 99.69 94.59 92.19" style="fill:#ee2e7b"/><polygon points="89.42 92.19 85.62 88.37 61.74 88.37 57.94 92.19 61.74 96.01 85.62 96.01 89.42 92.19" style="fill:#eab7d5"/><path d="M87.14,84.7H60.22l-7.45,7.49,7.45,7.5H87.14l7.45-7.5ZM86,95.6l2.85-2.87h3.65L87.1,98.19ZM60.25,98.19l-5.43-5.46h3.65l2.85,2.87Zm1.13-9.46-2.91,2.92H54.82l5.49-5.52Zm.8,6.2-2.72-2.74,2.72-2.74h23l2.72,2.74-2.72,2.74h-23Zm26.71-3.28L86,88.73l1.07-2.6,5.49,5.52ZM70.35,85.78H86L85,88.37H62.4l-1.07-2.59h9ZM69,98.61h-7.7L62.32,96H85l1.07,2.6H69Z" style="fill:#a12573"/></g><g id="rupie-16" data-name="rupie"><polygon points="42.82 92.19 35.36 84.7 8.45 84.7 0.99 92.19 8.45 99.69 35.36 99.69 42.82 92.19" style="fill:#fde9f2"/><polygon points="42.82 92.19 42.82 92.19 0.99 92.19 0.99 92.19 8.45 99.69 35.36 99.69 42.82 92.19" style="fill:#ee2e7b"/><polygon points="37.65 92.19 33.85 88.37 9.96 88.37 6.16 92.19 9.96 96.01 33.85 96.01 37.65 92.19" style="fill:#eab7d5"/><path d="M35.36,84.7H8.45L1,92.19l7.46,7.5H35.36l7.46-7.5Zm-1.1,10.9,2.85-2.87h3.65l-5.43,5.46ZM8.48,98.19,3.05,92.73H6.7L9.55,95.6Zm1.13-9.46L6.7,91.65H3.05l5.49-5.52Zm.8,6.2L7.68,92.19l2.73-2.74h23l2.73,2.74L33.4,94.93h-23Zm26.7-3.28L34.2,88.73l1.07-2.6,5.49,5.52ZM18.57,85.78H34.25l-1.07,2.59H10.62L9.55,85.78h9Zm-1.4,12.83H9.47L10.54,96H33.27l1.07,2.6H17.17Z" style="fill:#a12573"/></g></g><polygon points="391.53 114.39 391.53 72 384.33 74.87 384.33 110.4 391.53 114.39" style="fill:#fde9f2"/><path d="M392,115.25l-8.2-4.56V74.53l8.2-3.27Zm-7.2-5.15,6.2,3.45V72.74l-6.2,2.47Z" style="fill:#a12573"/><g id="tube-left"><g style="opacity:0.4"><rect x="1.75" y="77.12" width="382.09" height="30.64" style="fill:#a0dbe3"/></g><rect x="1.75" y="78.99" width="382.07" height="2.94" style="fill:#fff"/></g><polyline points="920.97 273.4 978.75 273.4 978.75 268.79 920.97 268.79" style="fill:#fff"/><polygon points="979.33 273.98 920.97 273.98 920.97 272.83 978.18 272.83 978.18 269.36 920.97 269.36 920.97 268.21 979.33 268.21 979.33 273.98" style="fill:#7d3a90"/><rect x="965.01" y="221.52" width="1.15" height="50.94" transform="translate(11.34 534.7) rotate(-31.13)" style="fill:#7d3a90"/><rect x="940.12" y="246.41" width="50.94" height="1.15" transform="translate(254.43 945.28) rotate(-58.83)" style="fill:#7d3a90"/><rect x="938.82" y="221.52" width="1.15" height="50.94" transform="translate(7.57 521.16) rotate(-31.13)" style="fill:#7d3a90"/><rect x="913.93" y="246.41" width="50.94" height="1.15" transform="translate(241.8 922.87) rotate(-58.83)" style="fill:#7d3a90"/><polyline points="920.97 225.18 978.75 225.18 978.75 220.01 920.97 220.01" style="fill:#fff"/><polygon points="979.33 225.76 920.97 225.76 920.97 224.61 978.18 224.61 978.18 220.58 920.97 220.58 920.97 219.43 979.33 219.43 979.33 225.76" style="fill:#7d3a90"/><rect x="969.69" y="223.78" width="64.22" height="45.57" transform="translate(755.24 1248.37) rotate(-90)" style="fill:#ee2e7b"/><path d="M1025.17,279.25H978.44V213.88h46.73Zm-45.58-1.15H1024V215H979.59Z" style="fill:#7e3a90"/><rect x="1024.01" y="214.46" width="1.15" height="64.22" style="fill:#7e3a90"/><line x1="952.42" y1="268.79" x2="952.42" y2="225.18" style="fill:#ee2e7b"/><rect x="951.85" y="225.18" width="1.15" height="43.6" style="fill:#7e3a90"/><rect x="987.77" y="266.18" width="10.83" height="1.15" style="fill:#7e3a90"/><rect x="987.77" y="262.14" width="10.83" height="1.15" style="fill:#7e3a90"/><rect x="987.77" y="258.09" width="10.83" height="1.15" style="fill:#7e3a90"/><rect x="987.77" y="254.04" width="10.83" height="1.15" style="fill:#7e3a90"/><rect x="987.77" y="250" width="10.83" height="1.15" style="fill:#7e3a90"/><polyline points="1011.65 268.27 1009.47 269.11 1008.62 266.93" style="fill:#ee2e7b"/><polygon points="1009.14 269.86 1008.09 267.14 1009.16 266.73 1009.8 268.37 1011.44 267.73 1011.85 268.8 1009.14 269.86" style="fill:#7e3a90"/><circle cx="1011.24" cy="265.09" r="3.57" style="fill:#e8b7d5"/><path d="M1011.24,269.24a4.16,4.16,0,0,1-3.79-5.83h0a4.15,4.15,0,1,1,3.79,5.83Zm-2.74-5.36a3,3,0,1,0,1.66-1.59,3,3,0,0,0-1.66,1.59Z" style="fill:#7e3a90"/><polyline points="1013.73 250.75 1015.22 252.54 1013.43 254.04" style="fill:#ee2e7b"/><polygon points="1013.79 254.48 1013.06 253.6 1014.41 252.47 1013.28 251.12 1014.17 250.38 1016.03 252.62 1013.79 254.48" style="fill:#7e3a90"/><circle cx="1010.84" cy="252.14" r="3.57" style="fill:#e8b7d5"/><path d="M1010.85,256.29h-.39a4.15,4.15,0,0,1-3.75-4.51,4.06,4.06,0,0,1,1.48-2.81,4.14,4.14,0,0,1,6.78,3.56,4.15,4.15,0,0,1-4.12,3.77Zm-.28-1.16a3,3,0,0,0,3.26-2.71,3,3,0,1,0-6-.55,3,3,0,0,0,2.71,3.26Z" style="fill:#7e3a90"/><rect x="988.89" y="229.48" width="6.81" height="6.81" transform="translate(759.41 1225.18) rotate(-90)" style="fill:#fde9f2"/><rect x="1002.65" y="222.86" width="6.81" height="6.81" transform="translate(779.79 1232.33) rotate(-90)" style="fill:#fde9f2"/><rect x="1002.65" y="228.91" width="6.81" height="6.81" transform="translate(773.74 1238.37) rotate(-90)" style="fill:#fde9f2"/><rect x="1009.57" y="229.48" width="6.81" height="6.81" transform="translate(780.09 1245.86) rotate(-90)" style="fill:#e8b7d5"/><rect x="995.96" y="222.86" width="6.81" height="6.81" transform="translate(773.1 1225.64) rotate(-90)" style="fill:#e8b7d5"/><rect x="995.12" y="222.46" width="1.15" height="13.83" style="fill:#7e3a90"/><rect x="1002.12" y="222.46" width="1.15" height="13.83" style="fill:#7e3a90"/><rect x="988.89" y="228.79" width="27.65" height="1.15" style="fill:#7e3a90"/><rect x="1009.12" y="222.46" width="1.15" height="13.83" style="fill:#7e3a90"/><path d="M1017.28,236.87h-29v-15h29Zm-27.82-1.16h26.66V223H989.46Z" style="fill:#7e3a90"/><polyline points="494.39 120.09 436.62 120.09 436.62 115.47 494.39 115.47" style="fill:#fff"/><polygon points="494.39 120.67 436.04 120.67 436.04 114.9 494.39 114.9 494.39 116.05 437.19 116.05 437.19 119.51 494.39 119.51 494.39 120.67" style="fill:#7d3a90"/><rect x="424.31" y="93.09" width="50.93" height="1.15" transform="translate(137.26 430.43) rotate(-58.9)" style="fill:#7d3a90"/><rect x="449.2" y="68.2" width="1.15" height="50.93" transform="translate(16.33 245.99) rotate(-31.13)" style="fill:#7d3a90"/><rect x="450.5" y="93.09" width="50.93" height="1.15" transform="translate(149.92 452.85) rotate(-58.9)" style="fill:#7d3a90"/><rect x="475.39" y="68.2" width="1.15" height="50.93" transform="translate(20.1 259.53) rotate(-31.13)" style="fill:#7d3a90"/><polyline points="494.39 71.87 436.62 71.87 436.62 66.69 494.39 66.69" style="fill:#fff"/><polygon points="494.39 72.45 436.04 72.45 436.04 66.12 494.39 66.12 494.39 67.27 437.19 67.27 437.19 71.3 494.39 71.3 494.39 72.45" style="fill:#7d3a90"/><rect x="381.72" y="70.46" width="64.22" height="45.57" transform="translate(320.58 507.08) rotate(-90)" style="fill:#ee2e7b"/><path d="M437.19,125.94H390.46V60.57h46.73Zm-45.57-1.15H436V61.72H391.62Z" style="fill:#7e3a90"/><rect x="436.04" y="61.14" width="1.15" height="64.22" style="fill:#7e3a90"/><rect x="462.37" y="71.87" width="1.15" height="43.6" style="fill:#7e3a90"/><rect x="399.79" y="112.87" width="10.83" height="1.15" style="fill:#7e3a90"/><rect x="399.79" y="108.82" width="10.83" height="1.15" style="fill:#7e3a90"/><rect x="399.79" y="104.78" width="10.83" height="1.15" style="fill:#7e3a90"/><rect x="399.79" y="100.73" width="10.83" height="1.15" style="fill:#7e3a90"/><rect x="399.79" y="96.68" width="10.83" height="1.15" style="fill:#7e3a90"/><polyline points="423.67 114.95 421.49 115.8 420.65 113.62" style="fill:#ee2e7b"/><polygon points="421.16 116.54 420.11 113.83 421.19 113.41 421.82 115.05 423.46 114.42 423.88 115.49 421.16 116.54" style="fill:#7e3a90"/><circle cx="423.27" cy="111.77" r="3.57" style="fill:#e8b7d5"/><path d="M423.27,115.92a4.16,4.16,0,1,1,1.5-.28A4.12,4.12,0,0,1,423.27,115.92Zm0-7.14a3,3,0,1,0,2.79,1.91,2.93,2.93,0,0,0-1.58-1.66A3,3,0,0,0,423.27,108.78Z" style="fill:#7e3a90"/><polyline points="425.75 97.44 427.25 99.23 425.45 100.73" style="fill:#ee2e7b"/><polygon points="425.82 101.17 425.08 100.28 426.44 99.16 425.31 97.8 426.19 97.07 428.06 99.31 425.82 101.17" style="fill:#7e3a90"/><circle cx="422.87" cy="98.83" r="3.57" style="fill:#e8b7d5"/><path d="M422.87,103l-.38,0h0a4.17,4.17,0,0,1-3.76-4.51,4.15,4.15,0,1,1,4.14,4.53Zm0-7.15a3,3,0,0,0-3,2.73,3,3,0,0,0,.68,2.19,3,3,0,0,0,2,1.06h0a3,3,0,1,0,.55-6Z" style="fill:#7e3a90"/><rect x="400.91" y="76.16" width="6.81" height="6.81" transform="translate(324.75 483.89) rotate(-90)" style="fill:#fde9f2"/><rect x="414.67" y="69.55" width="6.81" height="6.81" transform="translate(345.13 491.04) rotate(-90)" style="fill:#fde9f2"/><rect x="414.67" y="75.6" width="6.81" height="6.81" transform="translate(339.08 497.08) rotate(-90)" style="fill:#fde9f2"/><rect x="421.59" y="76.16" width="6.81" height="6.81" transform="translate(345.43 504.57) rotate(-90)" style="fill:#e8b7d5"/><rect x="407.99" y="69.55" width="6.81" height="6.81" transform="translate(338.44 484.35) rotate(-90)" style="fill:#e8b7d5"/><rect x="407.15" y="69.14" width="1.15" height="13.83" style="fill:#7e3a90"/><rect x="414.15" y="69.14" width="1.15" height="13.83" style="fill:#7e3a90"/><rect x="400.91" y="75.47" width="27.65" height="1.15" style="fill:#7e3a90"/><rect x="421.15" y="69.14" width="1.15" height="13.83" style="fill:#7e3a90"/><path d="M429.3,83.55h-29v-15h29ZM401.49,82.4h26.66V69.72H401.49Z" style="fill:#7e3a90"/><rect x="853.2" y="328.37" width="49.98" height="1.6" style="fill:#a12573"/><polyline points="797.97 329.17 920.85 329.17 920.85 9.98 494.04 9.98 494.04 329.17 542.12 329.17" style="fill:#544da0"/><polygon points="921.53 329.97 797.97 329.97 797.97 328.37 920.17 328.37 920.17 10.78 494.71 10.78 494.71 328.37 542.12 328.37 542.12 329.97 493.36 329.97 493.36 9.18 921.53 9.18 921.53 329.97" style="fill:#a12573"/><polygon points="798.2 329.17 921.13 329.17 921.13 9.98 494.16 9.98 494.16 329.17 542.26 329.17 798.2 329.17" style="fill:#cf82aa"/><polygon points="505.36 318.15 494.16 329.17 494.16 9.98 919.96 9.98 909.63 21 505.36 21 505.36 318.15" style="fill:#eab7d5"/><rect x="505.23" y="21" width="404.71" height="297.15" style="fill:#544da0"/><path d="M910.61,319h-406V20.2H910.61Zm-404.71-1.6H909.27V21.8H505.9Z" style="fill:#673996"/><rect x="853.2" y="328.37" width="49.98" height="1.6" style="fill:#a12573"/><line x1="505.36" y1="21" x2="494.25" y2="9.89" style="fill:#544da0"/><rect x="499" y="7.59" width="1.6" height="15.71" transform="translate(135.44 357.91) rotate(-45)" style="fill:#673996"/><line x1="909.64" y1="21" x2="920.83" y2="9.98" style="fill:#544da0"/><rect x="907.38" y="14.69" width="15.71" height="1.6" transform="translate(251.86 646.23) rotate(-44.53)" style="fill:#673996"/><line x1="909.64" y1="318.15" x2="920.83" y2="329.17" style="fill:#544da0"/><rect x="914.44" y="315.8" width="1.6" height="15.71" transform="translate(42.56 748.92) rotate(-45.46)" style="fill:#673996"/><line x1="505.36" y1="318.15" x2="494.16" y2="329.17" style="fill:#544da0"/><rect x="491.9" y="322.86" width="15.71" height="1.6" transform="translate(-83.5 443.35) rotate(-44.53)" style="fill:#673996"/><path d="M921.49,330H493.36V9.18H921.49Zm-426.78-1.6H920.14V10.78H494.71Z" style="fill:#673996"/><path d="M768.48,284.45h9.28a54,54,0,1,0,0-108h-9.28" style="fill:#f1c9df"/><path d="M768.48,284.71h9.28a54.26,54.26,0,0,0,0-108.52h-9.28v.5h9.28a53.76,53.76,0,0,1,0,107.51h-9.28Z" style="fill:#7e3a90"/><g style="clip-path:url(#clip-path)"><line x1="833.6" y1="179.01" x2="778.51" y2="179.01" style="fill:#f5ebf4"/><rect x="778.51" y="178.75" width="55.09" height="0.5" style="fill:#7e3a90"/><line x1="833.6" y1="183.12" x2="778.51" y2="183.12" style="fill:#f5ebf4"/><rect x="778.51" y="182.87" width="55.09" height="0.5" style="fill:#7e3a90"/><line x1="833.6" y1="187.24" x2="778.51" y2="187.24" style="fill:#f5ebf4"/><rect x="778.51" y="186.98" width="55.09" height="0.5" style="fill:#7e3a90"/><line x1="833.6" y1="191.35" x2="778.51" y2="191.35" style="fill:#f5ebf4"/><rect x="778.51" y="191.1" width="55.09" height="0.5" style="fill:#7e3a90"/><line x1="833.6" y1="195.47" x2="778.51" y2="195.47" style="fill:#f5ebf4"/><rect x="778.51" y="195.21" width="55.09" height="0.5" style="fill:#7e3a90"/><line x1="833.6" y1="199.58" x2="778.51" y2="199.58" style="fill:#f5ebf4"/><rect x="778.51" y="199.33" width="55.09" height="0.5" style="fill:#7e3a90"/><line x1="833.6" y1="203.7" x2="778.51" y2="203.7" style="fill:#f5ebf4"/><rect x="778.51" y="203.44" width="55.09" height="0.5" style="fill:#7e3a90"/><line x1="833.6" y1="207.81" x2="778.51" y2="207.81" style="fill:#f5ebf4"/><rect x="778.51" y="207.56" width="55.09" height="0.5" style="fill:#7e3a90"/><line x1="833.6" y1="211.93" x2="778.51" y2="211.93" style="fill:#f5ebf4"/><rect x="778.51" y="211.68" width="55.09" height="0.5" style="fill:#7e3a90"/><line x1="833.6" y1="216.04" x2="778.51" y2="216.04" style="fill:#f5ebf4"/><rect x="778.51" y="215.79" width="55.09" height="0.5" style="fill:#7e3a90"/><line x1="833.6" y1="220.16" x2="778.51" y2="220.16" style="fill:#f5ebf4"/><rect x="778.51" y="219.91" width="55.09" height="0.5" style="fill:#7e3a90"/><line x1="833.6" y1="224.27" x2="778.51" y2="224.27" style="fill:#f5ebf4"/><rect x="778.51" y="224.02" width="55.09" height="0.5" style="fill:#7e3a90"/><line x1="833.6" y1="228.39" x2="778.51" y2="228.39" style="fill:#f5ebf4"/><rect x="778.51" y="228.14" width="55.09" height="0.5" style="fill:#7e3a90"/><line x1="833.6" y1="232.5" x2="778.51" y2="232.5" style="fill:#f5ebf4"/><rect x="778.51" y="232.25" width="55.09" height="0.5" style="fill:#7e3a90"/><line x1="833.6" y1="236.62" x2="778.51" y2="236.62" style="fill:#f5ebf4"/><rect x="778.51" y="236.37" width="55.09" height="0.5" style="fill:#7e3a90"/><line x1="833.6" y1="240.73" x2="778.51" y2="240.73" style="fill:#f5ebf4"/><rect x="778.51" y="240.48" width="55.09" height="0.5" style="fill:#7e3a90"/><line x1="833.6" y1="244.85" x2="778.51" y2="244.85" style="fill:#f5ebf4"/><rect x="778.51" y="244.6" width="55.09" height="0.5" style="fill:#7e3a90"/><line x1="833.6" y1="248.96" x2="778.51" y2="248.96" style="fill:#f5ebf4"/><rect x="778.51" y="248.71" width="55.09" height="0.5" style="fill:#7e3a90"/><line x1="833.6" y1="253.08" x2="778.51" y2="253.08" style="fill:#f5ebf4"/><rect x="778.51" y="252.83" width="55.09" height="0.5" style="fill:#7e3a90"/><line x1="833.6" y1="257.19" x2="778.51" y2="257.19" style="fill:#f5ebf4"/><rect x="778.51" y="256.94" width="55.09" height="0.5" style="fill:#7e3a90"/><line x1="833.6" y1="261.31" x2="778.51" y2="261.31" style="fill:#f5ebf4"/><rect x="778.51" y="261.06" width="55.09" height="0.5" style="fill:#7e3a90"/><line x1="833.6" y1="265.42" x2="778.51" y2="265.42" style="fill:#f5ebf4"/><rect x="778.51" y="265.17" width="55.09" height="0.5" style="fill:#7e3a90"/><line x1="833.6" y1="269.54" x2="778.51" y2="269.54" style="fill:#f5ebf4"/><rect x="778.51" y="269.29" width="55.09" height="0.5" style="fill:#7e3a90"/><line x1="833.6" y1="273.66" x2="778.51" y2="273.66" style="fill:#f5ebf4"/><rect x="778.51" y="273.4" width="55.09" height="0.5" style="fill:#7e3a90"/><line x1="833.6" y1="277.77" x2="778.51" y2="277.77" style="fill:#f5ebf4"/><rect x="778.51" y="277.52" width="55.09" height="0.5" style="fill:#7e3a90"/><line x1="833.6" y1="281.89" x2="778.51" y2="281.89" style="fill:#f5ebf4"/><rect x="778.51" y="281.63" width="55.09" height="0.5" style="fill:#7e3a90"/></g><path d="M714.48,230.45a54,54,0,1,0,54-54A54,54,0,0,0,714.48,230.45Z" style="fill:#f7fcfe"/><path d="M714.22,230.45a54.27,54.27,0,1,1,54.26,54.26A54.33,54.33,0,0,1,714.22,230.45Zm.51,0a53.76,53.76,0,1,0,53.75-53.76A53.81,53.81,0,0,0,714.73,230.45Z" style="fill:#7e3a90"/><path d="M719.54,230.45a48.95,48.95,0,1,0,48.94-48.95A48.94,48.94,0,0,0,719.54,230.45Zm48.94-48.95a48.95,48.95,0,0,0,0,97.89" style="fill:#f6ebf4"/><path d="M719.29,230.45a49.2,49.2,0,1,1,49.19,49.19A49.25,49.25,0,0,1,719.29,230.45Zm.5,0a48.7,48.7,0,1,0,48.69-48.7A48.76,48.76,0,0,0,719.79,230.45Z" style="fill:#7e3a90"/><polygon points="768.49 193.11 792.51 217 792.51 225.47 792.51 239.82 792.51 243.89 768.49 267.78 744.47 243.89 744.47 239.82 744.47 225.47 744.47 217 768.49 193.11" style="fill:#da1a5d"/><path d="M744.22,244V216.9l24.27-24.14,24.27,24.14V244l-24.27,24.15Zm48-26.88-23.77-23.64-23.76,23.64v26.67l23.76,23.64,23.77-23.64Z" style="fill:#7d3a90"/><polyline points="768.49 193.11 792.51 217 792.51 225.47 792.51 239.82 792.51 243.89 768.49 267.78" style="fill:#f1bfd9"/><polygon points="768.67 267.96 792.76 243.99 792.76 216.9 768.67 192.93 768.31 193.29 792.25 217.11 792.25 243.78 768.31 267.6 768.67 267.96" style="fill:#7e3a90"/><rect x="743.87" y="240.67" width="15.2" height="0.51" transform="translate(-34.39 312.86) rotate(-23.01)" style="fill:#7e3a90"/><rect x="768.24" y="247.91" width="0.5" height="19.87" style="fill:#7e3a90"/><rect x="785.26" y="233.31" width="0.5" height="15.2" transform="translate(256.74 869.78) rotate(-66.99)" style="fill:#7e3a90"/><rect x="751.21" y="212.38" width="0.51" height="15.2" transform="translate(255.51 825.88) rotate(-67.01)" style="fill:#7e3a90"/><rect x="768.24" y="193.11" width="0.5" height="19.87" style="fill:#7e3a90"/><rect x="777.91" y="219.73" width="15.2" height="0.5" transform="translate(-23.45 324.84) rotate(-23.03)" style="fill:#7e3a90"/><polygon points="768.49 212.98 778.52 222.95 778.52 225.47 778.52 236.32 778.52 237.94 768.49 247.91 758.46 237.95 758.46 236.32 758.46 225.47 758.46 222.94 768.49 212.98" style="fill:#dd6178"/><path d="M758.21,238.05V222.84l10.28-10.22,10.28,10.23v15.2l-10.28,10.22Zm20.06-15-9.78-9.73-9.78,9.72v14.79l9.78,9.72,9.78-9.72Z" style="fill:#7d3a90"/><path d="M768.48,279.39a48.95,48.95,0,0,1,0-97.89l1.52,0a48.94,48.94,0,0,0,.26,97.81" style="fill:#f1c9df"/><path d="M719.29,230.45a49.25,49.25,0,0,1,49.2-49.2l1.51,0v.5a48.69,48.69,0,0,0,.26,97.31l0,.51-1.77-.1v.13A49.25,49.25,0,0,1,719.29,230.45Zm.5,0a48.76,48.76,0,0,0,43.46,48.41,49.21,49.21,0,0,1-.13-96.81A48.77,48.77,0,0,0,719.79,230.45Z" style="fill:#7e3a90"/><polygon points="804.99 222.15 808.89 226.03 808.89 227.41 808.89 233.19 808.89 233.85 804.99 237.73 801.08 233.85 801.08 233.19 801.08 227.41 801.08 226.03 804.99 222.15" style="fill:#bd1e51"/><path d="M800.83,234v-8l4.16-4.14,4.16,4.14v8L805,238.09Zm7.81-7.81L805,222.5l-3.66,3.64v7.6l3.66,3.64,3.65-3.64Z" style="fill:#7d3a90"/><polyline points="804.99 222.15 808.89 226.03 808.89 227.41 808.89 233.19 808.89 233.85 804.99 237.73" style="fill:#f3d4e6"/><polygon points="805.16 237.91 809.15 233.95 809.15 225.93 805.16 221.97 804.81 222.33 808.64 226.14 808.64 233.74 804.81 237.55 805.16 237.91" style="fill:#7e3a90"/><rect x="800.98" y="233.11" width="2.47" height="0.51" transform="translate(-27.4 332.09) rotate(-23.01)" style="fill:#7e3a90"/><rect x="804.73" y="234.5" width="0.5" height="3.23" style="fill:#7e3a90"/><rect x="807.5" y="232.13" width="0.5" height="2.47" transform="translate(277.24 885.65) rotate(-66.99)" style="fill:#7e3a90"/><rect x="801.96" y="225.28" width="0.51" height="2.47" transform="translate(280.42 876.59) rotate(-67.01)" style="fill:#7e3a90"/><rect x="804.73" y="222.15" width="0.5" height="3.23" style="fill:#7e3a90"/><rect x="806.52" y="226.27" width="2.47" height="0.5" transform="translate(-24.24 334.02) rotate(-23.03)" style="fill:#7e3a90"/><polygon points="804.99 225.38 806.62 227 806.62 227.41 806.62 232.62 806.62 232.88 804.99 234.5 803.36 232.88 803.36 232.62 803.36 227.41 803.36 227 804.99 225.38" style="fill:#c97ea8"/><path d="M803.1,233V226.9L805,225l1.88,1.88V233L805,234.86Zm3.27-5.88L805,225.74l-1.38,1.37v5.67l1.38,1.37,1.38-1.38Z" style="fill:#7e3a90"/><polygon points="733.09 222.15 736.99 226.03 736.99 227.41 736.99 233.19 736.99 233.85 733.09 237.73 729.18 233.85 729.18 233.19 729.18 227.41 729.18 226.03 733.09 222.15" style="fill:#bd1e51"/><path d="M728.93,234v-8l4.16-4.14,4.16,4.14v8l-4.16,4.14Zm7.81-7.81-3.65-3.64-3.66,3.64v7.6l3.66,3.64,3.65-3.64Z" style="fill:#7d3a90"/><polyline points="733.09 222.15 736.99 226.03 736.99 227.41 736.99 233.19 736.99 233.85 733.09 237.73" style="fill:#f3d4e6"/><polygon points="733.26 237.91 737.25 233.95 737.25 225.93 733.26 221.97 732.91 222.33 736.74 226.14 736.74 233.74 732.91 237.55 733.26 237.91" style="fill:#7e3a90"/><rect x="729.08" y="233.11" width="2.47" height="0.51" transform="translate(-33.12 303.99) rotate(-23.01)" style="fill:#7e3a90"/><rect x="732.83" y="234.5" width="0.5" height="3.23" style="fill:#7e3a90"/><rect x="735.6" y="232.13" width="0.5" height="2.47" transform="translate(233.45 819.47) rotate(-66.99)" style="fill:#7e3a90"/><rect x="730.07" y="225.28" width="0.51" height="2.47" transform="translate(236.6 810.4) rotate(-67.01)" style="fill:#7e3a90"/><rect x="732.83" y="222.15" width="0.5" height="3.23" style="fill:#7e3a90"/><rect x="734.62" y="226.27" width="2.47" height="0.5" transform="translate(-29.97 305.96) rotate(-23.03)" style="fill:#7e3a90"/><polygon points="733.09 225.38 734.72 227 734.72 227.41 734.72 232.62 734.72 232.88 733.09 234.5 731.46 232.88 731.46 232.62 731.46 227.41 731.46 227 733.09 225.38" style="fill:#c97ea8"/><path d="M731.2,233V226.9l1.89-1.88L735,226.9V233l-1.88,1.88Zm3.27-5.88-1.38-1.37-1.38,1.37v5.67l1.38,1.37,1.38-1.38Z" style="fill:#7e3a90"/><path d="M768.48,162.71h9.28a54,54,0,1,0,0-108h-9.28" style="fill:#f1c9df"/><path d="M768.48,163h9.28a54.26,54.26,0,0,0,0-108.52h-9.28V55h9.28a53.76,53.76,0,0,1,0,107.51h-9.28Z" style="fill:#7e3a90"/><g style="clip-path:url(#clip-path-2)"><line x1="833.6" y1="57.26" x2="778.51" y2="57.26" style="fill:#f5ebf4"/><rect x="778.51" y="57.01" width="55.09" height="0.5" style="fill:#7e3a90"/><line x1="833.6" y1="61.38" x2="778.51" y2="61.38" style="fill:#f5ebf4"/><rect x="778.51" y="61.13" width="55.09" height="0.5" style="fill:#7e3a90"/><line x1="833.6" y1="65.49" x2="778.51" y2="65.49" style="fill:#f5ebf4"/><rect x="778.51" y="65.24" width="55.09" height="0.5" style="fill:#7e3a90"/><line x1="833.6" y1="69.61" x2="778.51" y2="69.61" style="fill:#f5ebf4"/><rect x="778.51" y="69.36" width="55.09" height="0.5" style="fill:#7e3a90"/><line x1="833.6" y1="73.73" x2="778.51" y2="73.73" style="fill:#f5ebf4"/><rect x="778.51" y="73.47" width="55.09" height="0.5" style="fill:#7e3a90"/><line x1="833.6" y1="77.84" x2="778.51" y2="77.84" style="fill:#f5ebf4"/><rect x="778.51" y="77.59" width="55.09" height="0.5" style="fill:#7e3a90"/><line x1="833.6" y1="81.96" x2="778.51" y2="81.96" style="fill:#f5ebf4"/><rect x="778.51" y="81.7" width="55.09" height="0.5" style="fill:#7e3a90"/><line x1="833.6" y1="86.07" x2="778.51" y2="86.07" style="fill:#f5ebf4"/><rect x="778.51" y="85.82" width="55.09" height="0.5" style="fill:#7e3a90"/><line x1="833.6" y1="90.19" x2="778.51" y2="90.19" style="fill:#f5ebf4"/><rect x="778.51" y="89.93" width="55.09" height="0.5" style="fill:#7e3a90"/><line x1="833.6" y1="94.3" x2="778.51" y2="94.3" style="fill:#f5ebf4"/><rect x="778.51" y="94.05" width="55.09" height="0.5" style="fill:#7e3a90"/><line x1="833.6" y1="98.42" x2="778.51" y2="98.42" style="fill:#f5ebf4"/><rect x="778.51" y="98.16" width="55.09" height="0.5" style="fill:#7e3a90"/><line x1="833.6" y1="102.53" x2="778.51" y2="102.53" style="fill:#f5ebf4"/><rect x="778.51" y="102.28" width="55.09" height="0.5" style="fill:#7e3a90"/><line x1="833.6" y1="106.65" x2="778.51" y2="106.65" style="fill:#f5ebf4"/><rect x="778.51" y="106.39" width="55.09" height="0.5" style="fill:#7e3a90"/><line x1="833.6" y1="110.76" x2="778.51" y2="110.76" style="fill:#f5ebf4"/><rect x="778.51" y="110.51" width="55.09" height="0.5" style="fill:#7e3a90"/><line x1="833.6" y1="114.88" x2="778.51" y2="114.88" style="fill:#f5ebf4"/><rect x="778.51" y="114.62" width="55.09" height="0.5" style="fill:#7e3a90"/><line x1="833.6" y1="118.99" x2="778.51" y2="118.99" style="fill:#f5ebf4"/><rect x="778.51" y="118.74" width="55.09" height="0.5" style="fill:#7e3a90"/><line x1="833.6" y1="123.11" x2="778.51" y2="123.11" style="fill:#f5ebf4"/><rect x="778.51" y="122.85" width="55.09" height="0.5" style="fill:#7e3a90"/><line x1="833.6" y1="127.22" x2="778.51" y2="127.22" style="fill:#f5ebf4"/><rect x="778.51" y="126.97" width="55.09" height="0.5" style="fill:#7e3a90"/><line x1="833.6" y1="131.34" x2="778.51" y2="131.34" style="fill:#f5ebf4"/><rect x="778.51" y="131.09" width="55.09" height="0.5" style="fill:#7e3a90"/><line x1="833.6" y1="135.45" x2="778.51" y2="135.45" style="fill:#f5ebf4"/><rect x="778.51" y="135.2" width="55.09" height="0.5" style="fill:#7e3a90"/><line x1="833.6" y1="139.57" x2="778.51" y2="139.57" style="fill:#f5ebf4"/><rect x="778.51" y="139.32" width="55.09" height="0.5" style="fill:#7e3a90"/><line x1="833.6" y1="143.68" x2="778.51" y2="143.68" style="fill:#f5ebf4"/><rect x="778.51" y="143.43" width="55.09" height="0.5" style="fill:#7e3a90"/><line x1="833.6" y1="147.8" x2="778.51" y2="147.8" style="fill:#f5ebf4"/><rect x="778.51" y="147.55" width="55.09" height="0.5" style="fill:#7e3a90"/><line x1="833.6" y1="151.91" x2="778.51" y2="151.91" style="fill:#f5ebf4"/><rect x="778.51" y="151.66" width="55.09" height="0.5" style="fill:#7e3a90"/><line x1="833.6" y1="156.03" x2="778.51" y2="156.03" style="fill:#f5ebf4"/><rect x="778.51" y="155.78" width="55.09" height="0.5" style="fill:#7e3a90"/><line x1="833.6" y1="160.14" x2="778.51" y2="160.14" style="fill:#f5ebf4"/><rect x="778.51" y="159.89" width="55.09" height="0.5" style="fill:#7e3a90"/></g><path d="M714.48,108.7a54,54,0,1,0,54-54A54,54,0,0,0,714.48,108.7Z" style="fill:#f7fcfe"/><path d="M714.22,108.7A54.27,54.27,0,1,1,768.48,163,54.33,54.33,0,0,1,714.22,108.7Zm.51,0A53.76,53.76,0,1,0,768.48,55,53.82,53.82,0,0,0,714.73,108.7Z" style="fill:#7e3a90"/><path d="M719.54,108.7a48.95,48.95,0,1,0,48.94-48.94A48.95,48.95,0,0,0,719.54,108.7Zm48.94-48.94a48.95,48.95,0,0,0,0,97.89" style="fill:#f6ebf4"/><path d="M719.29,108.7a49.2,49.2,0,1,1,49.19,49.2A49.25,49.25,0,0,1,719.29,108.7Zm.5,0A48.7,48.7,0,1,0,768.48,60,48.76,48.76,0,0,0,719.79,108.7Z" style="fill:#7e3a90"/><polygon points="768.49 71.37 792.51 95.26 792.51 103.73 792.51 118.08 792.51 122.15 768.49 146.04 744.47 122.15 744.47 118.08 744.47 103.73 744.47 95.26 768.49 71.37" style="fill:#da1a5d"/><path d="M744.22,122.25V95.16L768.49,71l24.27,24.15v27.09l-24.27,24.14Zm48-26.88L768.49,71.73,744.73,95.37V122l23.76,23.64L792.26,122Z" style="fill:#7d3a90"/><polyline points="768.49 71.37 792.51 95.26 792.51 103.73 792.51 118.08 792.51 122.15 768.49 146.04" style="fill:#f1bfd9"/><polygon points="768.67 146.22 792.76 122.25 792.76 95.16 768.67 71.19 768.31 71.55 792.25 95.37 792.25 122.04 768.31 145.86 768.67 146.22" style="fill:#7e3a90"/><rect x="743.87" y="118.92" width="15.2" height="0.51" transform="translate(13.19 303.17) rotate(-23.01)" style="fill:#7e3a90"/><rect x="768.24" y="126.17" width="0.5" height="19.87" style="fill:#7e3a90"/><rect x="785.26" y="111.57" width="0.5" height="15.2" transform="translate(368.8 795.62) rotate(-66.99)" style="fill:#7e3a90"/><rect x="751.21" y="90.63" width="0.51" height="15.2" transform="translate(367.59 751.68) rotate(-67.01)" style="fill:#7e3a90"/><rect x="768.24" y="71.37" width="0.5" height="19.87" style="fill:#7e3a90"/><rect x="777.91" y="97.98" width="15.2" height="0.5" transform="translate(24.17 315.13) rotate(-23.03)" style="fill:#7e3a90"/><polygon points="768.49 91.24 778.52 101.21 778.52 103.73 778.52 114.58 778.52 116.2 768.49 126.17 758.46 116.21 758.46 114.58 758.46 103.73 758.46 101.2 768.49 91.24" style="fill:#dd6178"/><path d="M758.21,116.31V101.1l10.28-10.22,10.28,10.22v15.2l-10.28,10.23Zm20.06-15-9.78-9.72-9.78,9.72V116.1l9.78,9.72,9.78-9.73Z" style="fill:#7d3a90"/><path d="M768.48,157.65a48.95,48.95,0,0,1,0-97.89l1.52,0a48.94,48.94,0,0,0,.26,97.81" style="fill:#f1c9df"/><path d="M719.29,108.7a49.25,49.25,0,0,1,49.2-49.19l1.51,0v.51a48.69,48.69,0,0,0,.26,97.31l0,.5-1.77-.09v.13A49.25,49.25,0,0,1,719.29,108.7Zm.5,0a48.76,48.76,0,0,0,43.46,48.42,49.21,49.21,0,0,1-.13-96.81A48.76,48.76,0,0,0,719.79,108.7Z" style="fill:#7e3a90"/><polygon points="804.99 100.41 808.89 104.29 808.89 105.67 808.89 111.44 808.89 112.11 804.99 115.99 801.08 112.11 801.08 111.44 801.08 105.67 801.08 104.29 804.99 100.41" style="fill:#bd1e51"/><path d="M800.83,112.21v-8l4.16-4.14,4.16,4.14v8L805,116.35Zm7.81-7.81L805,100.76l-3.66,3.64V112l3.66,3.64,3.65-3.64Z" style="fill:#7d3a90"/><polyline points="804.99 100.41 808.89 104.29 808.89 105.67 808.89 111.44 808.89 112.11 804.99 115.99" style="fill:#f3d4e6"/><polygon points="805.16 116.17 809.15 112.21 809.15 104.19 805.16 100.23 804.81 100.59 808.64 104.4 808.64 112 804.81 115.81 805.16 116.17" style="fill:#7e3a90"/><rect x="800.98" y="111.37" width="2.47" height="0.51" transform="translate(20.18 322.4) rotate(-23.01)" style="fill:#7e3a90"/><rect x="804.73" y="112.76" width="0.5" height="3.23" style="fill:#7e3a90"/><rect x="807.5" y="110.38" width="0.5" height="2.47" transform="translate(389.3 811.5) rotate(-66.99)" style="fill:#7e3a90"/><rect x="801.96" y="103.54" width="0.51" height="2.47" transform="translate(392.49 802.38) rotate(-67.01)" style="fill:#7e3a90"/><rect x="804.73" y="100.41" width="0.5" height="3.23" style="fill:#7e3a90"/><rect x="806.52" y="104.52" width="2.47" height="0.5" transform="translate(23.38 324.32) rotate(-23.03)" style="fill:#7e3a90"/><polygon points="804.99 103.64 806.62 105.26 806.62 105.67 806.62 110.87 806.62 111.14 804.99 112.76 803.36 111.14 803.36 110.87 803.36 105.67 803.36 105.26 804.99 103.64" style="fill:#c97ea8"/><path d="M803.1,111.24v-6.09l1.89-1.87,1.88,1.88v6.08L805,113.12Zm3.27-5.87L805,104l-1.38,1.37V111L805,112.4l1.38-1.37Z" style="fill:#7e3a90"/><polygon points="733.09 100.41 736.99 104.29 736.99 105.67 736.99 111.44 736.99 112.11 733.09 115.99 729.18 112.11 729.18 111.44 729.18 105.67 729.18 104.29 733.09 100.41" style="fill:#bd1e51"/><path d="M728.93,112.21v-8l4.16-4.14,4.16,4.14v8l-4.16,4.14Zm7.81-7.81-3.65-3.64-3.66,3.64V112l3.66,3.64,3.65-3.64Z" style="fill:#7d3a90"/><polyline points="733.09 100.41 736.99 104.29 736.99 105.67 736.99 111.44 736.99 112.11 733.09 115.99" style="fill:#f3d4e6"/><polygon points="733.26 116.17 737.25 112.21 737.25 104.19 733.26 100.23 732.91 100.59 736.74 104.4 736.74 112 732.91 115.81 733.26 116.17" style="fill:#7e3a90"/><rect x="729.08" y="111.37" width="2.47" height="0.51" transform="translate(14.46 294.3) rotate(-23.01)" style="fill:#7e3a90"/><rect x="732.83" y="112.76" width="0.5" height="3.23" style="fill:#7e3a90"/><rect x="735.6" y="110.38" width="0.5" height="2.47" transform="translate(345.5 745.32) rotate(-66.99)" style="fill:#7e3a90"/><rect x="730.07" y="103.54" width="0.51" height="2.47" transform="translate(348.67 736.19) rotate(-67.01)" style="fill:#7e3a90"/><rect x="732.83" y="100.41" width="0.5" height="3.23" style="fill:#7e3a90"/><rect x="734.62" y="104.52" width="2.47" height="0.5" transform="translate(17.66 296.25) rotate(-23.03)" style="fill:#7e3a90"/><polygon points="733.09 103.64 734.72 105.26 734.72 105.67 734.72 110.87 734.72 111.14 733.09 112.76 731.46 111.14 731.46 110.87 731.46 105.67 731.46 105.26 733.09 103.64" style="fill:#c97ea8"/><path d="M731.2,111.24v-6.09l1.89-1.87,1.88,1.88v6.08l-1.88,1.88Zm3.27-5.87L733.09,104l-1.38,1.37V111l1.38,1.37,1.38-1.37Z" style="fill:#7e3a90"/><path d="M634.27,162.71h9.28a54,54,0,1,0,0-108h-9.28" style="fill:#f1c9df"/><path d="M634.27,163h9.28a54.26,54.26,0,0,0,0-108.52h-9.28V55h9.28a53.76,53.76,0,0,1,0,107.51h-9.28Z" style="fill:#7e3a90"/><g style="clip-path:url(#clip-path-3)"><line x1="699.39" y1="57.26" x2="644.3" y2="57.26" style="fill:#f5ebf4"/><rect x="644.3" y="57.01" width="55.09" height="0.5" style="fill:#7e3a90"/><line x1="699.39" y1="61.38" x2="644.3" y2="61.38" style="fill:#f5ebf4"/><rect x="644.3" y="61.13" width="55.09" height="0.5" style="fill:#7e3a90"/><line x1="699.39" y1="65.49" x2="644.3" y2="65.49" style="fill:#f5ebf4"/><rect x="644.3" y="65.24" width="55.09" height="0.5" style="fill:#7e3a90"/><line x1="699.39" y1="69.61" x2="644.3" y2="69.61" style="fill:#f5ebf4"/><rect x="644.3" y="69.36" width="55.09" height="0.5" style="fill:#7e3a90"/><line x1="699.39" y1="73.73" x2="644.3" y2="73.73" style="fill:#f5ebf4"/><rect x="644.3" y="73.47" width="55.09" height="0.5" style="fill:#7e3a90"/><line x1="699.39" y1="77.84" x2="644.3" y2="77.84" style="fill:#f5ebf4"/><rect x="644.3" y="77.59" width="55.09" height="0.5" style="fill:#7e3a90"/><line x1="699.39" y1="81.96" x2="644.3" y2="81.96" style="fill:#f5ebf4"/><rect x="644.3" y="81.7" width="55.09" height="0.5" style="fill:#7e3a90"/><line x1="699.39" y1="86.07" x2="644.3" y2="86.07" style="fill:#f5ebf4"/><rect x="644.3" y="85.82" width="55.09" height="0.5" style="fill:#7e3a90"/><line x1="699.39" y1="90.19" x2="644.3" y2="90.19" style="fill:#f5ebf4"/><rect x="644.3" y="89.93" width="55.09" height="0.5" style="fill:#7e3a90"/><line x1="699.39" y1="94.3" x2="644.3" y2="94.3" style="fill:#f5ebf4"/><rect x="644.3" y="94.05" width="55.09" height="0.5" style="fill:#7e3a90"/><line x1="699.39" y1="98.42" x2="644.3" y2="98.42" style="fill:#f5ebf4"/><rect x="644.3" y="98.16" width="55.09" height="0.5" style="fill:#7e3a90"/><line x1="699.39" y1="102.53" x2="644.3" y2="102.53" style="fill:#f5ebf4"/><rect x="644.3" y="102.28" width="55.09" height="0.5" style="fill:#7e3a90"/><line x1="699.39" y1="106.65" x2="644.3" y2="106.65" style="fill:#f5ebf4"/><rect x="644.3" y="106.39" width="55.09" height="0.5" style="fill:#7e3a90"/><line x1="699.39" y1="110.76" x2="644.3" y2="110.76" style="fill:#f5ebf4"/><rect x="644.3" y="110.51" width="55.09" height="0.5" style="fill:#7e3a90"/><line x1="699.39" y1="114.88" x2="644.3" y2="114.88" style="fill:#f5ebf4"/><rect x="644.3" y="114.62" width="55.09" height="0.5" style="fill:#7e3a90"/><line x1="699.39" y1="118.99" x2="644.3" y2="118.99" style="fill:#f5ebf4"/><rect x="644.3" y="118.74" width="55.09" height="0.5" style="fill:#7e3a90"/><line x1="699.39" y1="123.11" x2="644.3" y2="123.11" style="fill:#f5ebf4"/><rect x="644.3" y="122.85" width="55.09" height="0.5" style="fill:#7e3a90"/><line x1="699.39" y1="127.22" x2="644.3" y2="127.22" style="fill:#f5ebf4"/><rect x="644.3" y="126.97" width="55.09" height="0.5" style="fill:#7e3a90"/><line x1="699.39" y1="131.34" x2="644.3" y2="131.34" style="fill:#f5ebf4"/><rect x="644.3" y="131.09" width="55.09" height="0.5" style="fill:#7e3a90"/><line x1="699.39" y1="135.45" x2="644.3" y2="135.45" style="fill:#f5ebf4"/><rect x="644.3" y="135.2" width="55.09" height="0.5" style="fill:#7e3a90"/><line x1="699.39" y1="139.57" x2="644.3" y2="139.57" style="fill:#f5ebf4"/><rect x="644.3" y="139.32" width="55.09" height="0.5" style="fill:#7e3a90"/><line x1="699.39" y1="143.68" x2="644.3" y2="143.68" style="fill:#f5ebf4"/><rect x="644.3" y="143.43" width="55.09" height="0.5" style="fill:#7e3a90"/><line x1="699.39" y1="147.8" x2="644.3" y2="147.8" style="fill:#f5ebf4"/><rect x="644.3" y="147.55" width="55.09" height="0.5" style="fill:#7e3a90"/><line x1="699.39" y1="151.91" x2="644.3" y2="151.91" style="fill:#f5ebf4"/><rect x="644.3" y="151.66" width="55.09" height="0.5" style="fill:#7e3a90"/><line x1="699.39" y1="156.03" x2="644.3" y2="156.03" style="fill:#f5ebf4"/><rect x="644.3" y="155.78" width="55.09" height="0.5" style="fill:#7e3a90"/><line x1="699.39" y1="160.14" x2="644.3" y2="160.14" style="fill:#f5ebf4"/><rect x="644.3" y="159.89" width="55.09" height="0.5" style="fill:#7e3a90"/></g><path d="M580.27,108.7a54,54,0,1,0,54-54A54,54,0,0,0,580.27,108.7Z" style="fill:#f7fcfe"/><path d="M580,108.7A54.27,54.27,0,1,1,634.27,163,54.33,54.33,0,0,1,580,108.7Zm.51,0A53.76,53.76,0,1,0,634.27,55,53.82,53.82,0,0,0,580.52,108.7Z" style="fill:#7e3a90"/><path d="M585.33,108.7a48.95,48.95,0,1,0,48.94-48.94A48.95,48.95,0,0,0,585.33,108.7Zm48.94-48.94a48.95,48.95,0,0,0,0,97.89" style="fill:#f6ebf4"/><path d="M585.08,108.7a49.2,49.2,0,1,1,49.19,49.2A49.25,49.25,0,0,1,585.08,108.7Zm.5,0A48.7,48.7,0,1,0,634.27,60,48.76,48.76,0,0,0,585.58,108.7Z" style="fill:#7e3a90"/><polygon points="634.28 71.37 658.3 95.26 658.3 103.73 658.3 118.08 658.3 122.15 634.28 146.04 610.26 122.15 610.26 118.08 610.26 103.73 610.26 95.26 634.28 71.37" style="fill:#da1a5d"/><path d="M610,122.25V95.16L634.28,71l24.27,24.15v27.09l-24.27,24.14Zm48-26.88L634.28,71.73,610.52,95.37V122l23.76,23.64L658.05,122Z" style="fill:#7d3a90"/><polyline points="634.28 71.37 658.3 95.26 658.3 103.73 658.3 118.08 658.3 122.15 634.28 146.04" style="fill:#f1bfd9"/><polygon points="634.46 146.22 658.55 122.25 658.55 95.16 634.46 71.19 634.1 71.55 658.04 95.37 658.04 122.04 634.1 145.86 634.46 146.22" style="fill:#7e3a90"/><rect x="609.66" y="118.92" width="15.2" height="0.51" transform="translate(2.52 250.72) rotate(-23.01)" style="fill:#7e3a90"/><rect x="634.03" y="126.17" width="0.5" height="19.87" style="fill:#7e3a90"/><rect x="651.05" y="111.57" width="0.5" height="15.2" transform="translate(287.05 672.09) rotate(-66.99)" style="fill:#7e3a90"/><rect x="617" y="90.63" width="0.51" height="15.2" transform="translate(285.79 628.12) rotate(-67.01)" style="fill:#7e3a90"/><rect x="634.03" y="71.37" width="0.5" height="19.87" style="fill:#7e3a90"/><rect x="643.7" y="97.98" width="15.2" height="0.5" transform="translate(13.48 262.63) rotate(-23.03)" style="fill:#7e3a90"/><polygon points="634.28 91.24 644.31 101.21 644.31 103.73 644.31 114.58 644.31 116.2 634.28 126.17 624.25 116.21 624.25 114.58 624.25 103.73 624.25 101.2 634.28 91.24" style="fill:#dd6178"/><path d="M624,116.31V101.1l10.28-10.22,10.28,10.22v15.2l-10.28,10.23Zm20.06-15-9.78-9.72-9.78,9.72V116.1l9.78,9.72,9.78-9.73Z" style="fill:#7d3a90"/><path d="M634.27,157.65a48.95,48.95,0,0,1,0-97.89l1.52,0a48.94,48.94,0,0,0,.26,97.81" style="fill:#f1c9df"/><path d="M585.08,108.7a49.25,49.25,0,0,1,49.2-49.19l1.51,0v.51a48.69,48.69,0,0,0,.26,97.31l0,.5-1.77-.09v.13A49.25,49.25,0,0,1,585.08,108.7Zm.5,0A48.76,48.76,0,0,0,629,157.12a49.21,49.21,0,0,1-.13-96.81A48.76,48.76,0,0,0,585.58,108.7Z" style="fill:#7e3a90"/><polygon points="670.78 100.41 674.68 104.29 674.68 105.67 674.68 111.44 674.68 112.11 670.78 115.99 666.87 112.11 666.87 111.44 666.87 105.67 666.87 104.29 670.78 100.41" style="fill:#bd1e51"/><path d="M666.62,112.21v-8l4.16-4.14,4.16,4.14v8l-4.16,4.14Zm7.81-7.81-3.65-3.64-3.66,3.64V112l3.66,3.64,3.65-3.64Z" style="fill:#7d3a90"/><polyline points="670.78 100.41 674.68 104.29 674.68 105.67 674.68 111.44 674.68 112.11 670.78 115.99" style="fill:#f3d4e6"/><polygon points="670.95 116.17 674.94 112.21 674.94 104.19 670.95 100.23 670.6 100.59 674.43 104.4 674.43 112 670.6 115.81 670.95 116.17" style="fill:#7e3a90"/><rect x="666.77" y="111.37" width="2.47" height="0.51" transform="translate(9.51 269.95) rotate(-23.01)" style="fill:#7e3a90"/><rect x="670.52" y="112.76" width="0.5" height="3.23" style="fill:#7e3a90"/><rect x="673.29" y="110.38" width="0.5" height="2.47" transform="translate(307.55 687.96) rotate(-66.99)" style="fill:#7e3a90"/><rect x="667.75" y="103.54" width="0.51" height="2.47" transform="translate(310.69 678.83) rotate(-67.01)" style="fill:#7e3a90"/><rect x="670.52" y="100.41" width="0.5" height="3.23" style="fill:#7e3a90"/><rect x="672.31" y="104.52" width="2.47" height="0.5" transform="translate(12.68 271.82) rotate(-23.03)" style="fill:#7e3a90"/><polygon points="670.78 103.64 672.41 105.26 672.41 105.67 672.41 110.87 672.41 111.14 670.78 112.76 669.14 111.14 669.14 110.87 669.14 105.67 669.14 105.26 670.78 103.64" style="fill:#c97ea8"/><path d="M668.89,111.24v-6.09l1.89-1.87,1.88,1.88v6.08l-1.88,1.88Zm3.27-5.87L670.78,104l-1.38,1.37V111l1.38,1.37,1.38-1.37Z" style="fill:#7e3a90"/><polygon points="598.88 100.41 602.78 104.29 602.78 105.67 602.78 111.44 602.78 112.11 598.88 115.99 594.97 112.11 594.97 111.44 594.97 105.67 594.97 104.29 598.88 100.41" style="fill:#bd1e51"/><path d="M594.72,112.21v-8l4.16-4.14,4.16,4.14v8l-4.16,4.14Zm7.81-7.81-3.65-3.64-3.66,3.64V112l3.66,3.64,3.65-3.64Z" style="fill:#7d3a90"/><polyline points="598.88 100.41 602.78 104.29 602.78 105.67 602.78 111.44 602.78 112.11 598.88 115.99" style="fill:#f3d4e6"/><polygon points="599.05 116.17 603.04 112.21 603.04 104.19 599.05 100.23 598.7 100.59 602.53 104.4 602.53 112 598.7 115.81 599.05 116.17" style="fill:#7e3a90"/><rect x="594.87" y="111.37" width="2.47" height="0.51" transform="translate(3.79 241.85) rotate(-23.01)" style="fill:#7e3a90"/><rect x="598.62" y="112.76" width="0.5" height="3.23" style="fill:#7e3a90"/><rect x="601.39" y="110.38" width="0.5" height="2.47" transform="translate(263.75 621.78) rotate(-66.99)" style="fill:#7e3a90"/><rect x="595.85" y="103.54" width="0.51" height="2.47" transform="translate(266.87 612.64) rotate(-67.01)" style="fill:#7e3a90"/><rect x="598.62" y="100.41" width="0.5" height="3.23" style="fill:#7e3a90"/><rect x="600.41" y="104.52" width="2.47" height="0.5" transform="translate(6.97 243.74) rotate(-23.03)" style="fill:#7e3a90"/><polygon points="598.88 103.64 600.51 105.26 600.51 105.67 600.51 110.87 600.51 111.14 598.88 112.76 597.25 111.14 597.25 110.87 597.25 105.67 597.25 105.26 598.88 103.64" style="fill:#c97ea8"/><path d="M597,111.24v-6.09l1.89-1.87,1.88,1.88v6.08l-1.88,1.88Zm3.27-5.87L598.88,104l-1.38,1.37V111l1.38,1.37,1.38-1.37Z" style="fill:#7e3a90"/><path d="M634.27,283.48h9.28a54,54,0,1,0,0-108h-9.28" style="fill:#f1c9df"/><path d="M634.27,283.74h9.28a54.26,54.26,0,0,0,0-108.52h-9.28v.5h9.28a53.76,53.76,0,0,1,0,107.51h-9.28Z" style="fill:#7e3a90"/><g style="clip-path:url(#clip-path-4)"><line x1="699.39" y1="178.04" x2="644.3" y2="178.04" style="fill:#f5ebf4"/><rect x="644.3" y="177.78" width="55.09" height="0.5" style="fill:#7e3a90"/><line x1="699.39" y1="182.15" x2="644.3" y2="182.15" style="fill:#f5ebf4"/><rect x="644.3" y="181.9" width="55.09" height="0.5" style="fill:#7e3a90"/><line x1="699.39" y1="186.27" x2="644.3" y2="186.27" style="fill:#f5ebf4"/><rect x="644.3" y="186.01" width="55.09" height="0.5" style="fill:#7e3a90"/><line x1="699.39" y1="190.38" x2="644.3" y2="190.38" style="fill:#f5ebf4"/><rect x="644.3" y="190.13" width="55.09" height="0.5" style="fill:#7e3a90"/><line x1="699.39" y1="194.5" x2="644.3" y2="194.5" style="fill:#f5ebf4"/><rect x="644.3" y="194.24" width="55.09" height="0.5" style="fill:#7e3a90"/><line x1="699.39" y1="198.61" x2="644.3" y2="198.61" style="fill:#f5ebf4"/><rect x="644.3" y="198.36" width="55.09" height="0.5" style="fill:#7e3a90"/><line x1="699.39" y1="202.73" x2="644.3" y2="202.73" style="fill:#f5ebf4"/><rect x="644.3" y="202.48" width="55.09" height="0.5" style="fill:#7e3a90"/><line x1="699.39" y1="206.84" x2="644.3" y2="206.84" style="fill:#f5ebf4"/><rect x="644.3" y="206.59" width="55.09" height="0.5" style="fill:#7e3a90"/><line x1="699.39" y1="210.96" x2="644.3" y2="210.96" style="fill:#f5ebf4"/><rect x="644.3" y="210.71" width="55.09" height="0.5" style="fill:#7e3a90"/><line x1="699.39" y1="215.07" x2="644.3" y2="215.07" style="fill:#f5ebf4"/><rect x="644.3" y="214.82" width="55.09" height="0.5" style="fill:#7e3a90"/><line x1="699.39" y1="219.19" x2="644.3" y2="219.19" style="fill:#f5ebf4"/><rect x="644.3" y="218.94" width="55.09" height="0.5" style="fill:#7e3a90"/><line x1="699.39" y1="223.3" x2="644.3" y2="223.3" style="fill:#f5ebf4"/><rect x="644.3" y="223.05" width="55.09" height="0.5" style="fill:#7e3a90"/><line x1="699.39" y1="227.42" x2="644.3" y2="227.42" style="fill:#f5ebf4"/><rect x="644.3" y="227.17" width="55.09" height="0.5" style="fill:#7e3a90"/><line x1="699.39" y1="231.53" x2="644.3" y2="231.53" style="fill:#f5ebf4"/><rect x="644.3" y="231.28" width="55.09" height="0.5" style="fill:#7e3a90"/><line x1="699.39" y1="235.65" x2="644.3" y2="235.65" style="fill:#f5ebf4"/><rect x="644.3" y="235.4" width="55.09" height="0.5" style="fill:#7e3a90"/><line x1="699.39" y1="239.76" x2="644.3" y2="239.76" style="fill:#f5ebf4"/><rect x="644.3" y="239.51" width="55.09" height="0.5" style="fill:#7e3a90"/><line x1="699.39" y1="243.88" x2="644.3" y2="243.88" style="fill:#f5ebf4"/><rect x="644.3" y="243.63" width="55.09" height="0.5" style="fill:#7e3a90"/><line x1="699.39" y1="247.99" x2="644.3" y2="247.99" style="fill:#f5ebf4"/><rect x="644.3" y="247.74" width="55.09" height="0.5" style="fill:#7e3a90"/><line x1="699.39" y1="252.11" x2="644.3" y2="252.11" style="fill:#f5ebf4"/><rect x="644.3" y="251.86" width="55.09" height="0.5" style="fill:#7e3a90"/><line x1="699.39" y1="256.22" x2="644.3" y2="256.22" style="fill:#f5ebf4"/><rect x="644.3" y="255.97" width="55.09" height="0.5" style="fill:#7e3a90"/><line x1="699.39" y1="260.34" x2="644.3" y2="260.34" style="fill:#f5ebf4"/><rect x="644.3" y="260.09" width="55.09" height="0.5" style="fill:#7e3a90"/><line x1="699.39" y1="264.46" x2="644.3" y2="264.46" style="fill:#f5ebf4"/><rect x="644.3" y="264.2" width="55.09" height="0.5" style="fill:#7e3a90"/><line x1="699.39" y1="268.57" x2="644.3" y2="268.57" style="fill:#f5ebf4"/><rect x="644.3" y="268.32" width="55.09" height="0.5" style="fill:#7e3a90"/><line x1="699.39" y1="272.69" x2="644.3" y2="272.69" style="fill:#f5ebf4"/><rect x="644.3" y="272.43" width="55.09" height="0.5" style="fill:#7e3a90"/><line x1="699.39" y1="276.8" x2="644.3" y2="276.8" style="fill:#f5ebf4"/><rect x="644.3" y="276.55" width="55.09" height="0.5" style="fill:#7e3a90"/><line x1="699.39" y1="280.92" x2="644.3" y2="280.92" style="fill:#f5ebf4"/><rect x="644.3" y="280.66" width="55.09" height="0.5" style="fill:#7e3a90"/></g><path d="M580.27,229.48a54,54,0,1,0,54-54A54,54,0,0,0,580.27,229.48Z" style="fill:#f7fcfe"/><path d="M580,229.48a54.27,54.27,0,1,1,54.26,54.26A54.33,54.33,0,0,1,580,229.48Zm.51,0a53.76,53.76,0,1,0,53.75-53.76A53.81,53.81,0,0,0,580.52,229.48Z" style="fill:#7e3a90"/><path d="M585.33,229.48a48.95,48.95,0,1,0,48.94-48.95A48.94,48.94,0,0,0,585.33,229.48Zm48.94-48.95a48.95,48.95,0,0,0,0,97.89" style="fill:#f6ebf4"/><path d="M585.08,229.48a49.2,49.2,0,1,1,49.19,49.19A49.25,49.25,0,0,1,585.08,229.48Zm.5,0a48.7,48.7,0,1,0,48.69-48.7A48.76,48.76,0,0,0,585.58,229.48Z" style="fill:#7e3a90"/><polygon points="634.28 192.14 658.3 216.03 658.3 224.5 658.3 238.85 658.3 242.92 634.28 266.81 610.26 242.92 610.26 238.85 610.26 224.5 610.26 216.03 634.28 192.14" style="fill:#da1a5d"/><path d="M610,243V215.93l24.27-24.14,24.27,24.14V243l-24.27,24.15Zm48-26.88L634.28,192.5l-23.76,23.64v26.67l23.76,23.64,23.77-23.64Z" style="fill:#7d3a90"/><polyline points="634.28 192.14 658.3 216.03 658.3 224.5 658.3 238.85 658.3 242.92 634.28 266.81" style="fill:#f1bfd9"/><polygon points="634.46 266.99 658.55 243.02 658.55 215.93 634.46 191.96 634.1 192.32 658.04 216.14 658.04 242.81 634.1 266.63 634.46 266.99" style="fill:#7e3a90"/><rect x="609.66" y="239.7" width="15.2" height="0.51" transform="translate(-44.68 260.33) rotate(-23.01)" style="fill:#7e3a90"/><rect x="634.03" y="246.94" width="0.5" height="19.87" style="fill:#7e3a90"/><rect x="651.05" y="232.34" width="0.5" height="15.2" transform="translate(175.88 745.66) rotate(-66.99)" style="fill:#7e3a90"/><rect x="617" y="211.41" width="0.51" height="15.2" transform="translate(174.6 701.73) rotate(-67.01)" style="fill:#7e3a90"/><rect x="634.03" y="192.14" width="0.5" height="19.87" style="fill:#7e3a90"/><rect x="643.7" y="218.76" width="15.2" height="0.5" transform="translate(-33.77 272.25) rotate(-23.03)" style="fill:#7e3a90"/><polygon points="634.28 212.01 644.31 221.98 644.31 224.5 644.31 235.35 644.31 236.97 634.28 246.94 624.25 236.98 624.25 235.35 624.25 224.5 624.25 221.97 634.28 212.01" style="fill:#dd6178"/><path d="M624,237.08V221.87l10.28-10.22,10.28,10.23v15.2L634.28,247.3Zm20.06-15-9.78-9.73-9.78,9.72v14.79l9.78,9.72,9.78-9.72Z" style="fill:#7d3a90"/><path d="M634.27,278.42a48.95,48.95,0,0,1,0-97.89l1.52,0a48.94,48.94,0,0,0,.26,97.81" style="fill:#f1c9df"/><path d="M585.08,229.48a49.25,49.25,0,0,1,49.2-49.2l1.51,0v.5a48.69,48.69,0,0,0,.26,97.31l0,.51-1.77-.1v.13A49.25,49.25,0,0,1,585.08,229.48Zm.5,0A48.76,48.76,0,0,0,629,277.89a49.21,49.21,0,0,1-.13-96.81A48.77,48.77,0,0,0,585.58,229.48Z" style="fill:#7e3a90"/><polygon points="670.78 221.18 674.68 225.07 674.68 226.44 674.68 232.22 674.68 232.88 670.78 236.76 666.87 232.88 666.87 232.22 666.87 226.44 666.87 225.07 670.78 221.18" style="fill:#bd1e51"/><path d="M666.62,233v-8l4.16-4.14,4.16,4.14v8l-4.16,4.14Zm7.81-7.81-3.65-3.64-3.66,3.64v7.6l3.66,3.64,3.65-3.64Z" style="fill:#7d3a90"/><polyline points="670.78 221.18 674.68 225.07 674.68 226.44 674.68 232.22 674.68 232.88 670.78 236.76" style="fill:#f3d4e6"/><polygon points="670.95 236.94 674.94 232.98 674.94 224.96 670.95 221 670.6 221.36 674.43 225.17 674.43 232.77 670.6 236.59 670.95 236.94" style="fill:#7e3a90"/><rect x="666.77" y="232.14" width="2.47" height="0.51" transform="translate(-37.7 279.56) rotate(-23.01)" style="fill:#7e3a90"/><rect x="670.52" y="233.53" width="0.5" height="3.23" style="fill:#7e3a90"/><rect x="673.29" y="231.16" width="0.5" height="2.47" transform="translate(196.38 761.53) rotate(-66.99)" style="fill:#7e3a90"/><rect x="667.75" y="224.31" width="0.51" height="2.47" transform="translate(199.51 752.44) rotate(-67.01)" style="fill:#7e3a90"/><rect x="670.52" y="221.18" width="0.5" height="3.23" style="fill:#7e3a90"/><rect x="672.31" y="225.3" width="2.47" height="0.5" transform="translate(-34.56 281.45) rotate(-23.03)" style="fill:#7e3a90"/><polygon points="670.78 224.41 672.41 226.03 672.41 226.44 672.41 231.65 672.41 231.91 670.78 233.53 669.14 231.91 669.14 231.65 669.14 226.44 669.14 226.03 670.78 224.41" style="fill:#c97ea8"/><path d="M668.89,232v-6.09l1.89-1.88,1.88,1.88V232l-1.88,1.88Zm3.27-5.88-1.38-1.37-1.38,1.37v5.67l1.38,1.37,1.38-1.38Z" style="fill:#7e3a90"/><polygon points="598.88 221.18 602.78 225.07 602.78 226.44 602.78 232.22 602.78 232.88 598.88 236.76 594.97 232.88 594.97 232.22 594.97 226.44 594.97 225.07 598.88 221.18" style="fill:#bd1e51"/><path d="M594.72,233v-8l4.16-4.14L603,225v8l-4.16,4.14Zm7.81-7.81-3.65-3.64-3.66,3.64v7.6l3.66,3.64,3.65-3.64Z" style="fill:#7d3a90"/><polyline points="598.88 221.18 602.78 225.07 602.78 226.44 602.78 232.22 602.78 232.88 598.88 236.76" style="fill:#f3d4e6"/><polygon points="599.05 236.94 603.04 232.98 603.04 224.96 599.05 221 598.7 221.36 602.53 225.17 602.53 232.77 598.7 236.59 599.05 236.94" style="fill:#7e3a90"/><rect x="594.87" y="232.14" width="2.47" height="0.51" transform="translate(-43.41 251.46) rotate(-23.01)" style="fill:#7e3a90"/><rect x="598.62" y="233.53" width="0.5" height="3.23" style="fill:#7e3a90"/><rect x="601.39" y="231.16" width="0.5" height="2.47" transform="translate(152.58 695.35) rotate(-66.99)" style="fill:#7e3a90"/><rect x="595.85" y="224.31" width="0.51" height="2.47" transform="translate(155.69 686.25) rotate(-67.01)" style="fill:#7e3a90"/><rect x="598.62" y="221.18" width="0.5" height="3.23" style="fill:#7e3a90"/><rect x="600.41" y="225.3" width="2.47" height="0.5" transform="translate(-40.29 253.37) rotate(-23.03)" style="fill:#7e3a90"/><polygon points="598.88 224.41 600.51 226.03 600.51 226.44 600.51 231.65 600.51 231.91 598.88 233.53 597.25 231.91 597.25 231.65 597.25 226.44 597.25 226.03 598.88 224.41" style="fill:#c97ea8"/><path d="M597,232v-6.09l1.89-1.88,1.88,1.88V232l-1.88,1.88Zm3.27-5.88-1.38-1.37-1.38,1.37v5.67l1.38,1.37,1.38-1.38Z" style="fill:#7e3a90"/></svg>
