<svg id="Rupie_Tokens" xmlns="http://www.w3.org/2000/svg" xmlns:xlink="http://www.w3.org/1999/xlink" width="118.58" height="108.92" viewBox="0 0 118.58 108.92"><defs><clipPath id="clip-path"><path d="M54.38,108.48h9.27a54,54,0,1,0,0-108H54.38" style="fill:none"/></clipPath></defs><title>Artboard 2</title><path d="M54.38,108.48h9.27a54,54,0,1,0,0-108H54.38" style="fill:#f1c9df"/><path d="M54.38,108.74h9.27A54.26,54.26,0,0,0,63.65.22H54.38v.5h9.27a53.76,53.76,0,1,1,0,107.51H54.38Z" style="fill:#7e3a90"/><g style="clip-path:url(#clip-path)"><line x1="119.49" y1="3.04" x2="64.4" y2="3.04" style="fill:#f5ebf4"/><rect x="64.4" y="2.78" width="55.09" height="0.5" style="fill:#7e3a90"/><line x1="119.49" y1="7.15" x2="64.4" y2="7.15" style="fill:#f5ebf4"/><rect x="64.4" y="6.9" width="55.09" height="0.5" style="fill:#7e3a90"/><line x1="119.49" y1="11.27" x2="64.4" y2="11.27" style="fill:#f5ebf4"/><rect x="64.4" y="11.01" width="55.09" height="0.5" style="fill:#7e3a90"/><line x1="119.49" y1="15.38" x2="64.4" y2="15.38" style="fill:#f5ebf4"/><rect x="64.4" y="15.13" width="55.09" height="0.5" style="fill:#7e3a90"/><line x1="119.49" y1="19.5" x2="64.4" y2="19.5" style="fill:#f5ebf4"/><rect x="64.4" y="19.25" width="55.09" height="0.5" style="fill:#7e3a90"/><line x1="119.49" y1="23.61" x2="64.4" y2="23.61" style="fill:#f5ebf4"/><rect x="64.4" y="23.36" width="55.09" height="0.5" style="fill:#7e3a90"/><line x1="119.49" y1="27.73" x2="64.4" y2="27.73" style="fill:#f5ebf4"/><rect x="64.4" y="27.48" width="55.09" height="0.5" style="fill:#7e3a90"/><line x1="119.49" y1="31.84" x2="64.4" y2="31.84" style="fill:#f5ebf4"/><rect x="64.4" y="31.59" width="55.09" height="0.5" style="fill:#7e3a90"/><line x1="119.49" y1="35.96" x2="64.4" y2="35.96" style="fill:#f5ebf4"/><rect x="64.4" y="35.71" width="55.09" height="0.5" style="fill:#7e3a90"/><line x1="119.49" y1="40.07" x2="64.4" y2="40.07" style="fill:#f5ebf4"/><rect x="64.4" y="39.82" width="55.09" height="0.5" style="fill:#7e3a90"/><line x1="119.49" y1="44.19" x2="64.4" y2="44.19" style="fill:#f5ebf4"/><rect x="64.4" y="43.94" width="55.09" height="0.5" style="fill:#7e3a90"/><line x1="119.49" y1="48.3" x2="64.4" y2="48.3" style="fill:#f5ebf4"/><rect x="64.4" y="48.05" width="55.09" height="0.5" style="fill:#7e3a90"/><line x1="119.49" y1="52.42" x2="64.4" y2="52.42" style="fill:#f5ebf4"/><rect x="64.4" y="52.17" width="55.09" height="0.5" style="fill:#7e3a90"/><line x1="119.49" y1="56.53" x2="64.4" y2="56.53" style="fill:#f5ebf4"/><rect x="64.4" y="56.28" width="55.09" height="0.5" style="fill:#7e3a90"/><line x1="119.49" y1="60.65" x2="64.4" y2="60.65" style="fill:#f5ebf4"/><rect x="64.4" y="60.4" width="55.09" height="0.5" style="fill:#7e3a90"/><line x1="119.49" y1="64.76" x2="64.4" y2="64.76" style="fill:#f5ebf4"/><rect x="64.4" y="64.51" width="55.09" height="0.5" style="fill:#7e3a90"/><line x1="119.49" y1="68.88" x2="64.4" y2="68.88" style="fill:#f5ebf4"/><rect x="64.4" y="68.63" width="55.09" height="0.5" style="fill:#7e3a90"/><line x1="119.49" y1="72.99" x2="64.4" y2="72.99" style="fill:#f5ebf4"/><rect x="64.4" y="72.74" width="55.09" height="0.5" style="fill:#7e3a90"/><line x1="119.49" y1="77.11" x2="64.4" y2="77.11" style="fill:#f5ebf4"/><rect x="64.4" y="76.86" width="55.09" height="0.5" style="fill:#7e3a90"/><line x1="119.49" y1="81.23" x2="64.4" y2="81.23" style="fill:#f5ebf4"/><rect x="64.4" y="80.97" width="55.09" height="0.5" style="fill:#7e3a90"/><line x1="119.49" y1="85.34" x2="64.4" y2="85.34" style="fill:#f5ebf4"/><rect x="64.4" y="85.09" width="55.09" height="0.5" style="fill:#7e3a90"/><line x1="119.49" y1="89.46" x2="64.4" y2="89.46" style="fill:#f5ebf4"/><rect x="64.4" y="89.2" width="55.09" height="0.5" style="fill:#7e3a90"/><line x1="119.49" y1="93.57" x2="64.4" y2="93.57" style="fill:#f5ebf4"/><rect x="64.4" y="93.32" width="55.09" height="0.5" style="fill:#7e3a90"/><line x1="119.49" y1="97.69" x2="64.4" y2="97.69" style="fill:#f5ebf4"/><rect x="64.4" y="97.43" width="55.09" height="0.5" style="fill:#7e3a90"/><line x1="119.49" y1="101.8" x2="64.4" y2="101.8" style="fill:#f5ebf4"/><rect x="64.4" y="101.55" width="55.09" height="0.5" style="fill:#7e3a90"/><line x1="119.49" y1="105.92" x2="64.4" y2="105.92" style="fill:#f5ebf4"/><rect x="64.4" y="105.66" width="55.09" height="0.5" style="fill:#7e3a90"/></g><path d="M.37,54.48a54,54,0,1,0,54-54A54,54,0,0,0,.37,54.48Z" style="fill:#f7fcfe"/><path d="M.12,54.48a54.26,54.26,0,1,1,54.26,54.26A54.32,54.32,0,0,1,.12,54.48Zm.5,0A53.76,53.76,0,1,0,54.38.72,53.82,53.82,0,0,0,.62,54.48Z" style="fill:#7e3a90"/><path d="M5.44,54.48A48.94,48.94,0,1,0,54.38,5.53,48.94,48.94,0,0,0,5.44,54.48ZM54.38,5.53a48.95,48.95,0,0,0,0,97.89" style="fill:#f6ebf4"/><path d="M5.18,54.48a49.2,49.2,0,1,1,49.2,49.19A49.25,49.25,0,0,1,5.18,54.48Zm.51,0A48.69,48.69,0,1,0,54.38,5.79,48.75,48.75,0,0,0,5.69,54.48Z" style="fill:#7e3a90"/><polygon points="54.38 17.14 78.4 41.03 78.4 49.5 78.4 63.85 78.4 67.92 54.38 91.81 30.37 67.92 30.37 63.85 30.37 49.5 30.37 41.03 54.38 17.14" style="fill:#da1a5d"/><path d="M30.12,68V40.93L54.39,16.79,78.65,40.93V68L54.39,92.17Zm48-26.88L54.39,17.5,30.62,41.14V67.81L54.39,91.45,78.15,67.81Z" style="fill:#7d3a90"/><polyline points="54.38 17.14 78.4 41.03 78.4 49.5 78.4 63.85 78.4 67.92 54.38 91.81" style="fill:#f1bfd9"/><polygon points="54.56 91.99 78.66 68.02 78.66 40.93 54.56 16.96 54.21 17.32 78.15 41.14 78.15 67.81 54.21 91.63 54.56 91.99" style="fill:#7e3a90"/><rect x="29.76" y="64.7" width="15.2" height="0.51" transform="translate(-22.41 19.77) rotate(-23.01)" style="fill:#7e3a90"/><rect x="54.13" y="71.94" width="0.5" height="19.87" style="fill:#7e3a90"/><rect x="71.16" y="57.34" width="0.5" height="15.2" transform="translate(-16.28 105.29) rotate(-66.99)" style="fill:#7e3a90"/><rect x="37.11" y="36.41" width="0.51" height="15.2" transform="translate(-17.74 61.22) rotate(-67.01)" style="fill:#7e3a90"/><rect x="54.13" y="17.14" width="0.5" height="19.87" style="fill:#7e3a90"/><rect x="63.81" y="43.76" width="15.2" height="0.5" transform="translate(-11.53 31.44) rotate(-23.03)" style="fill:#7e3a90"/><polygon points="54.38 37.01 64.41 46.98 64.41 49.5 64.41 60.35 64.41 61.97 54.38 71.94 44.36 61.98 44.36 60.35 44.36 49.5 44.36 46.97 54.38 37.01" style="fill:#dd6178"/><path d="M44.1,62.08V46.87L54.38,36.65,64.67,46.88v15.2L54.38,72.3Zm20.06-15-9.78-9.72-9.77,9.71V61.87l9.77,9.72,9.78-9.72Z" style="fill:#7d3a90"/><path d="M54.38,103.42a48.95,48.95,0,0,1,0-97.89l1.51,0a48.94,48.94,0,0,0,.26,97.81" style="fill:#f1c9df"/><path d="M5.18,54.48A49.26,49.26,0,0,1,54.39,5.28l1.51,0v.5a48.69,48.69,0,0,0,.26,97.31l0,.51c-.59,0-1.17-.06-1.76-.1v.13A49.25,49.25,0,0,1,5.18,54.48Zm.51,0a48.76,48.76,0,0,0,43.46,48.41A49.21,49.21,0,0,1,49,6.08,48.76,48.76,0,0,0,5.69,54.48Z" style="fill:#7e3a90"/><polygon points="90.88 46.18 94.79 50.07 94.79 51.44 94.79 57.22 94.79 57.88 90.88 61.76 86.97 57.88 86.97 57.22 86.97 51.44 86.97 50.07 90.88 46.18" style="fill:#bd1e51"/><path d="M86.72,58V50l4.16-4.14L95,50v8l-4.16,4.14Zm7.82-7.81-3.66-3.63-3.65,3.63v7.6l3.65,3.64,3.66-3.64Z" style="fill:#7d3a90"/><polyline points="90.88 46.18 94.79 50.07 94.79 51.44 94.79 57.22 94.79 57.88 90.88 61.76" style="fill:#f3d4e6"/><polygon points="91.06 61.94 95.04 57.98 95.04 49.96 91.06 46 90.7 46.36 94.54 50.17 94.54 57.77 90.7 61.59 91.06 61.94" style="fill:#7e3a90"/><rect x="86.88" y="57.14" width="2.47" height="0.51" transform="translate(-15.42 39) rotate(-23.01)" style="fill:#7e3a90"/><rect x="90.63" y="58.53" width="0.5" height="3.23" style="fill:#7e3a90"/><rect x="93.4" y="56.16" width="0.5" height="2.47" transform="translate(4.22 121.16) rotate(-66.99)" style="fill:#7e3a90"/><rect x="87.86" y="49.31" width="0.51" height="2.47" transform="translate(7.17 111.93) rotate(-67.01)" style="fill:#7e3a90"/><rect x="90.63" y="46.18" width="0.5" height="3.23" style="fill:#7e3a90"/><rect x="92.41" y="50.3" width="2.47" height="0.5" transform="translate(-12.31 40.66) rotate(-23.03)" style="fill:#7e3a90"/><polygon points="90.88 49.41 92.51 51.03 92.51 51.44 92.51 56.65 92.51 56.91 90.88 58.53 89.25 56.91 89.25 56.65 89.25 51.44 89.25 51.03 90.88 49.41" style="fill:#c97ea8"/><path d="M89,57V50.93l1.88-1.87,1.88,1.87V57l-1.88,1.88Zm3.26-5.88-1.38-1.37L89.5,51.14v5.67l1.38,1.37,1.38-1.38Z" style="fill:#7e3a90"/><polygon points="18.98 46.18 22.89 50.07 22.89 51.44 22.89 57.22 22.89 57.88 18.98 61.76 15.07 57.88 15.07 57.22 15.07 51.44 15.07 50.07 18.98 46.18" style="fill:#bd1e51"/><path d="M14.82,58V50L19,45.82,23.14,50v8L19,62.12Zm7.82-7.81L19,46.54l-3.65,3.63v7.6L19,61.41l3.66-3.64Z" style="fill:#7d3a90"/><polyline points="18.98 46.18 22.89 50.07 22.89 51.44 22.89 57.22 22.89 57.88 18.98 61.76" style="fill:#f3d4e6"/><polygon points="19.16 61.94 23.14 57.98 23.14 49.96 19.16 46 18.8 46.36 22.64 50.17 22.64 57.77 18.8 61.59 19.16 61.94" style="fill:#7e3a90"/><rect x="14.98" y="57.14" width="2.47" height="0.51" transform="translate(-21.14 10.9) rotate(-23.01)" style="fill:#7e3a90"/><rect x="18.73" y="58.53" width="0.5" height="3.23" style="fill:#7e3a90"/><rect x="21.5" y="56.16" width="0.5" height="2.47" transform="translate(-39.58 54.98) rotate(-66.99)" style="fill:#7e3a90"/><rect x="15.96" y="49.31" width="0.51" height="2.47" transform="translate(-36.65 45.74) rotate(-67.01)" style="fill:#7e3a90"/><rect x="18.73" y="46.18" width="0.5" height="3.23" style="fill:#7e3a90"/><rect x="20.51" y="50.3" width="2.47" height="0.5" transform="translate(-18.04 12.54) rotate(-23.03)" style="fill:#7e3a90"/><polygon points="18.98 49.41 20.61 51.03 20.61 51.44 20.61 56.65 20.61 56.91 18.98 58.53 17.35 56.91 17.35 56.65 17.35 51.44 17.35 51.03 18.98 49.41" style="fill:#c97ea8"/><path d="M17.1,57V50.93L19,49.06l1.89,1.87V57L19,58.89Zm3.26-5.88L19,49.77,17.6,51.14v5.67L19,58.18l1.38-1.38Z" style="fill:#7e3a90"/></svg>