<svg xmlns="http://www.w3.org/2000/svg" width="60.4" height="70.47" viewBox="0 0 60.4 70.47"><g data-name="ILLO 5" stroke="#7d3990"><path fill="#ee2a7b" stroke-miterlimit="10" d="M46.53 9.47v43.67l-16.29 16.2-16.28-16.2V9.47"/><path fill="#fce9f1" stroke-linejoin="bevel" d="M30.27 9.47v43.67l-.03 16.2-16.28-16.2V9.47"/><path fill="none" stroke-miterlimit="10" d="M46.53 46.24V9.47H13.96v36.77"/><path fill="#e9b7d5" stroke-miterlimit="10" d="M23.44 9.47v39.64l6.8 6.76 6.8-6.76V9.47"/><path fill="none" stroke-miterlimit="10" d="M37.04 49.11l9.49 4.03m-16.29 2.73v13.47m-6.8-20.23l-9.48 4.03"/><path fill="#ee2a7b" stroke-miterlimit="10" d="M44.34 9.47H16.15l6.5-7.61h15.19l6.5 7.61z"/><path fill="#fce9f1" stroke-miterlimit="10" d="M13.96 37.53l-5.43-2.57-7.36-22.72h12.79v25.29z"/><path fill="#ee2a7b" stroke-miterlimit="10" d="M46.53 37.53l5.42-2.57 7.37-22.72H46.53v25.29z"/></g></svg>