<svg xmlns="http://www.w3.org/2000/svg" width="60.4" height="70.47" viewBox="0 0 60.4 70.47"><title>Artboard 42</title><g id="ILLO_5" data-name="ILLO 5"><polyline points="46.53 9.47 46.53 53.14 30.24 69.34 13.96 53.14 13.96 9.47" style="fill:#ee2a7b;stroke:#7d3990;stroke-miterlimit:10"/><polyline points="30.27 9.47 30.27 53.14 30.24 69.34 13.96 53.14 13.96 9.47" style="fill:#fce9f1;stroke:#7d3990;stroke-linejoin:bevel"/><polyline points="46.53 46.24 46.53 9.47 13.96 9.47 13.96 46.24" style="fill:none;stroke:#7d3990;stroke-miterlimit:10"/><polyline points="23.44 9.47 23.44 49.11 30.24 55.87 37.04 49.11 37.04 9.47" style="fill:#e9b7d5;stroke:#7d3990;stroke-miterlimit:10"/><line x1="37.04" y1="49.11" x2="46.53" y2="53.14" style="fill:none;stroke:#7d3990;stroke-miterlimit:10"/><line x1="30.24" y1="55.87" x2="30.24" y2="69.34" style="fill:none;stroke:#7d3990;stroke-miterlimit:10"/><line x1="23.44" y1="49.11" x2="13.96" y2="53.14" style="fill:none;stroke:#7d3990;stroke-miterlimit:10"/><polygon points="44.34 9.47 16.15 9.47 22.65 1.86 37.84 1.86 44.34 9.47" style="fill:#ee2a7b;stroke:#7d3990;stroke-miterlimit:10"/><polygon points="13.96 37.53 8.53 34.96 1.17 12.24 13.96 12.24 13.96 37.53" style="fill:#fce9f1;stroke:#7d3990;stroke-miterlimit:10"/><polygon points="46.53 37.53 51.95 34.96 59.32 12.24 46.53 12.24 46.53 37.53" style="fill:#ee2a7b;stroke:#7d3990;stroke-miterlimit:10"/></g></svg>