<svg xmlns="http://www.w3.org/2000/svg" width="20.17" height="18.83" viewBox="0 0 20.17 18.83"><defs><clipPath id="a"><path d="M10.72 1H9.28a8.38 8.38 0 0 0 0 16.75h1.44" fill="none"/></clipPath></defs><g data-name="ILLO 5"><path d="M10.72 1H9.28a8.38 8.38 0 0 0 0 16.75h1.44" fill="#cbccce" stroke="#7c3990" stroke-miterlimit="10"/><g clip-path="url(#a)" fill="#f5ebf4" stroke="#7d3990" stroke-linejoin="bevel"><path d="M.62 1.4h8.55M.62 3.95h8.55M.62 6.5h8.55M.62 9.06h8.55M.62 11.61h8.55M.62 14.16h8.55M.62 16.72h8.55m-8.55.63h8.55"/></g><path d="M10.72 1a8.38 8.38 0 1 0 8.38 8.38A8.38 8.38 0 0 0 10.72 1z" fill="#808285" stroke="#7c3990" stroke-miterlimit="10"/><path d="M10.72 2.47a6.91 6.91 0 1 0 6.91 6.91 6.9 6.9 0 0 0-6.91-6.91zm0 13.81a6.91 6.91 0 1 0 0-13.81" fill="#b3b5b8" stroke="#7c3990" stroke-miterlimit="10"/><path d="M10.72 16.28a6.91 6.91 0 1 0 0-13.81h-.21a6.91 6.91 0 0 1 0 13.81" fill="#f2cd7b" stroke="#7c3990" stroke-miterlimit="10"/><path fill="none" stroke="#7d3990" stroke-miterlimit="10" d="M10.72 4.86v1.57m0 5.55v1.57M13.55 12h-4a2.78 2.78 0 0 1 0-5.55h4"/></g></svg>