<svg xmlns="http://www.w3.org/2000/svg" width="717.6" height="654.91"><defs><linearGradient id="a" x1="45.15" y1="353.87" x2="714.04" y2="353.87" gradientUnits="userSpaceOnUse"><stop offset="0" stop-color="#2484c6"/><stop offset="1" stop-color="#2484c6" stop-opacity="0"/></linearGradient></defs><g data-name="ILLO 5"><path fill="#da1c5c" stroke="#7c3990" stroke-miterlimit="10" d="M110.63 98.91l-.02 6.25 1.11 1.1 1.62 1.62.53.54 3.13-3.14 3.14-3.13-.53-.54-1.63-1.62-1.1-1.1-6.25.02z"/><path fill="#f6ebf4" stroke="#7d3990" stroke-miterlimit="10" d="M110.63 98.91l-.02 6.25 1.11 1.1 2.15 2.16 3.13-3.14"/><path fill="none" stroke="#7d3990" stroke-miterlimit="10" d="M115.83 101.49l1.05-2.6m-3.66 2.61l-2.59-2.59m2.58 5.2l-2.6 1.05"/><path fill="#e6cbe2" stroke="#7d3990" stroke-miterlimit="10" d="M118.15 103.81l-.83-.83-1.16-1.16-.33-.33-2.61.01-.01 2.61.33.33 1.16 1.16.84.83"/><path fill="#f6ebf4" stroke="#7d3990" stroke-miterlimit="10" d="M114.782 107.502l4.44-4.441 7.036 7.036-4.44 4.44zm1.708 1.718l4.45-4.45m-2.64 6.25l4.44-4.44m-2.64 6.24l4.45-4.44"/><path fill="#da1c5c" stroke="#7c3990" stroke-miterlimit="10" d="M150.84 130.44l-.04 8.64-8.63.04-20.07-22.43 6.31-6.31 22.43 20.06z"/><path fill="#f6ebf4" stroke="#7d3990" stroke-miterlimit="10" d="M150.8 139.08l-8.63.04-20.07-22.43 3.16-3.16"/><path fill="#da1c5c" stroke="#7c3990" stroke-miterlimit="10" d="M130.04 106.32l-1.9 1.89-8.2 8.21-1.9 1.89 1.27 5.06 1.28-1.28.16-3.64.61-.61 8.2-8.21.62-.61 3.64-.15 1.28-1.28-5.06-1.27z"/><path d="M342 16.82h-3.75a21.88 21.88 0 1 0 0 43.75H342" fill="#f2cd7b" stroke="#7c3990" stroke-miterlimit="10"/><g clip-path="url(#clip-path)" fill="#f5ebf4" stroke="#7d3990" stroke-linejoin="bevel"><path d="M315.64 17.86h22.31m-22.31 3.33h22.31m-22.31 3.34h22.31m-22.31 3.33h22.31m-22.31 3.34h22.31m-22.31 3.33h22.31m-22.31 3.33h22.31m-22.31 3.34h22.31m-22.31 3.33h22.31m-22.31 3.33h22.31m-22.31 3.34h22.31m-22.31 3.33h22.31m-22.31 3.33h22.31m-22.31 1.67h22.31"/></g><path d="M342 16.82a21.88 21.88 0 1 0 21.89 21.88A21.87 21.87 0 0 0 342 16.82z" fill="#efb032" stroke="#7c3990" stroke-miterlimit="10"/><path d="M342 20.66a18 18 0 1 0 18 18 18 18 0 0 0-18-18zm0 36.07a18 18 0 1 0 0-36.07" fill="#f2c43c" stroke="#7c3990" stroke-miterlimit="10"/><path d="M342 56.73a18 18 0 1 0 0-36.07h-.55a18 18 0 0 1-.1 36" fill="#f2cd7b" stroke="#7c3990" stroke-miterlimit="10"/><path d="M333.69 31h10.89a3.62 3.62 0 1 1 0 7.24h-8.16m0-7.23V45.5m3.01-18.58v4.09m3.82-4.09v4.09m-3.82 14.49v4.09m3.82-4.09v4.09m1.33-11.34a3.63 3.63 0 0 1 0 7.25h-10.89" fill="none" stroke="#7d3990" stroke-miterlimit="10"/><path d="M371.6 67.3V36.74a31.47 31.47 0 0 0-31.47-31.46 31.47 31.47 0 0 0-31.46 31.46V67.3z" fill="#d1ecf2" opacity=".4"/><path fill="#fff" opacity=".65" d="M354.22 8.6l-45.55 43.42V38.2l34.47-32.92 11.08 3.32zm6.1 4.01l-51.65 48.9v-3.7l49.51-46.85 2.14 1.65z"/><path d="M371.6 67.3V36.73a31.47 31.47 0 0 0-31.47-31.46 31.47 31.47 0 0 0-31.46 31.47v30.37" fill="none" stroke="#7d3990" stroke-miterlimit="10"/><path d="M168.77 122.46l-27.71-27.72a24.46 24.46 0 0 0-34.59 0 24.46 24.46 0 0 0 0 34.59l27.72 27.72z" fill="#d1ecf2" opacity=".4"/><path fill="#fff" opacity=".65" d="M116.03 88.82l-1.16 48.91-7.6-7.6.86-37.04 7.9-4.27zm5.56-1.14l-1.51 55.27-2.03-2.04 1.46-52.96 2.08-.27z"/><path d="M168.78 122.46l-27.73-27.72a24.45 24.45 0 0 0-34.58 0 24.44 24.44 0 0 0 0 34.59l27.61 27.61" fill="none" stroke="#7d3990" stroke-miterlimit="10"/><path fill="#ee2a7b" stroke="#7d3990" stroke-miterlimit="10" d="M65.72 343.53H22.05l-16.2-16.28 16.2-16.29h43.67"/><path fill="#fce9f1" stroke="#7d3990" stroke-linejoin="bevel" d="M65.72 327.27H22.05l-16.2-.02 16.2-16.29h43.67"/><path fill="none" stroke="#7d3990" stroke-miterlimit="10" d="M28.95 343.53h36.77v-32.57H28.95"/><path fill="#e9b7d5" stroke="#7d3990" stroke-miterlimit="10" d="M65.72 320.45H26.08l-6.76 6.8 6.75 6.8h39.65"/><path fill="none" stroke="#7d3990" stroke-miterlimit="10" d="M26.07 334.05l-4.02 9.48m-2.73-16.28H5.85m20.23-6.8l-4.03-9.49"/><path fill="#ee2a7b" stroke="#7d3990" stroke-miterlimit="10" d="M65.72 341.34v-28.19l7.61 6.5v15.2l-7.61 6.49z"/><path fill="#fce9f1" stroke="#7d3990" stroke-miterlimit="10" d="M37.66 310.96l2.57-5.42 22.72-7.37v12.79H37.66z"/><path fill="#ee2a7b" stroke="#7d3990" stroke-miterlimit="10" d="M37.66 343.53l2.57 5.43 22.72 7.37v-12.8H37.66z"/><path d="M120.39 205.66a42.1 42.1 0 1 1-59-57.92A66.16 66.16 0 1 0 124 165.56a42.07 42.07 0 0 1-3.61 40.1z" fill="#fde9f1"/><path d="M95.15 633.77c-132.19-42.95 44-167 5.12-250.5-86.91-186.6 113.65-116.64 90.65-206.1-23.21-90.23 11.59-144.09 159.85-72.52s124.81-9.51 276.06-20.76c130.36-9.69-209.6 169-48.57 225.25C734.07 363.55 825.72 529.57 453 514.65c-171.51-6.86-287 142.13-357.85 119.12z" fill="#475290"/><path d="M578.26 309.14c-161-56.23 178.93-234.94 48.57-225.25C475.58 95.14 499 176.22 350.77 104.65s-183.06-17.71-159.85 72.52c23 89.46-177.56 19.5-90.65 206.1 38.9 83.53-137.27 207.55-5.12 250.5 70.81 23 186.34-126 357.88-119.12 372.69 14.92 281.04-151.1 125.23-205.51z" style="mix-blend-mode:multiply" fill="url(#a)"/><path fill="#fff" stroke="#7c3990" stroke-miterlimit="10" d="M199.75 221.56l-36.11-36.11 2.88-2.88 36.11 36.1"/><path fill="none" stroke="#7c3990" stroke-miterlimit="10" d="M166.52 182.57l43.7-10.8m-16.45-16.45l-10.79 43.7m-.09-.09l43.7-10.79m-16.45-16.46l-10.8 43.7"/><path fill="#fff" stroke="#7c3990" stroke-miterlimit="10" d="M229.88 191.43l-36.11-36.11 3.23-3.24 36.11 36.11"/><path fill="#e9b7d5" stroke="#7d3990" stroke-miterlimit="10" d="M131.857 160.262l40.128-40.128 28.482 28.482-40.128 40.129z"/><path fill="#ee2a7b" stroke="#7d3990" stroke-miterlimit="10" d="M160.34 188.75l40.13-40.14m-17.49 50.41l27.24-27.25m-65.44-13.48l6.76 6.76m-4.23-9.29l6.76 6.76m-4.24-9.29l6.77 6.77m-4.24-9.3l6.77 6.77m-4.24-9.3l6.77 6.77m-3.84 16.52v-2.06h2.06"/><circle cx="160.57" cy="172.15" r="3.16" fill="#fff" stroke="#7d3990" stroke-miterlimit="10"/><path fill="#ee2a7b" stroke="#7d3990" stroke-miterlimit="10" d="M166.98 161.69l1.45-1.47 1.47 1.45"/><circle cx="168.46" cy="164.11" r="3.16" fill="#fff" stroke="#7d3990" stroke-miterlimit="10"/><path fill="#fff" d="M173.063 140.101l4.257-4.256 4.257 4.256-4.257 4.257zm.312 8.214l4.256-4.257 4.257 4.257-4.257 4.256z"/><path fill="#fff" opacity=".8" d="M172.27 314.62h108.99v25.28H172.27z"/><path fill="#e6cae2" stroke="#7c3990" stroke-miterlimit="10" d="M171.66 310.4v34.98l5.93-2.37V313.7l-5.93-3.3z"/><path fill="#9fdae3" opacity=".4" d="M177.86 314.62H280.8v25.28H177.86z"/><path fill="#fff" d="M178.32 314.62h102.03v1.77H178.32z"/><path fill="#e6cae2" d="M285.73 345.38V310.4l-5.38 2.37v29.31l5.38 3.3z"/><path fill="#fff" opacity=".8" d="M395.01 314.62H504v25.28H395.01z"/><path fill="#e6cae2" d="M394.8 310.4v34.98l5.53-2.37V313.7l-5.53-3.3z"/><path fill="#9fdae3" opacity=".4" d="M400.6 314.62h102.94v25.28H400.6z"/><path fill="#fff" d="M400.83 314.62h102.03v1.77H400.83z"/><path fill="#e6cae2" stroke="#7c3990" stroke-miterlimit="10" d="M509.02 345.38V310.4l-5.93 2.37v29.31l5.93 3.3z"/><path d="M302.83 368c-2.49 2.49-5.32-.33-7.82 2.16s.34 5.32-2.16 7.82-5.32-.33-7.82 2.16.33 5.33-2.16 7.82-5.32-.33-7.82 2.16.34 5.32-2.16 7.82-5.32-.33-7.82 2.16.34 5.32-2.16 7.82-5.32-.33-7.82 2.16.33 5.33-2.16 7.82-5.33-.33-7.82 2.17.33 5.32-2.17 7.82-5.32-.33-7.82 2.16.33 5.33-2.16 7.82-5.33-.32-7.83 2.18.33 5.32-2.17 7.82M460.88 210c-2.49 2.49-5.32-.33-7.82 2.16s.34 5.32-2.16 7.82-5.32-.33-7.82 2.16.33 5.33-2.16 7.82-5.32-.33-7.82 2.16.34 5.32-2.16 7.82-5.32-.34-7.81 2.16.33 5.32-2.17 7.82-5.32-.34-7.82 2.16.34 5.33-2.16 7.82-5.33-.33-7.82 2.17.33 5.32-2.17 7.82-5.32-.33-7.82 2.16.33 5.33-2.16 7.82-5.33-.32-7.83 2.17.33 5.33-2.17 7.83m-.01 75.32c2.49 2.5-.34 5.32 2.16 7.82s5.32-.33 7.82 2.16-.33 5.33 2.16 7.82 5.33-.33 7.82 2.16-.33 5.33 2.16 7.82 5.32-.33 7.82 2.16-.34 5.32 2.16 7.82 5.32-.34 7.82 2.16-.34 5.32 2.16 7.82 5.33-.33 7.82 2.16-.33 5.33 2.17 7.82 5.32-.33 7.82 2.17-.34 5.32 2.16 7.82 5.33-.33 7.82 2.17-.33 5.32 2.17 7.82 5.33-.33 7.83 2.17M223 207.14c2.49 2.5-.34 5.32 2.16 7.82s5.32-.33 7.82 2.16-.33 5.33 2.16 7.82 5.33-.33 7.82 2.16-.33 5.33 2.16 7.82 5.32-.33 7.82 2.16-.34 5.32 2.16 7.82 5.32-.34 7.82 2.16-.34 5.32 2.16 7.82 5.32-.33 7.82 2.16-.33 5.33 2.16 7.82 5.33-.33 7.83 2.17-.34 5.32 2.16 7.82 5.33-.33 7.82 2.17-.33 5.32 2.17 7.82 5.33-.33 7.83 2.17m38.63 123.24c0 3.53-3.44 4.31-3.44 7.84s4.89 3.53 4.89 7.06-4.89 3.52-4.89 7.05 4.89 3.53 4.89 7.06-4.89 3.53-4.89 7.06 4.89 3.52 4.89 7.05-4.89 3.53-4.89 7.06S343 464 343 467.5s-4.89 3.52-4.89 7.05 4.89 3.53 4.89 7.07-4.89 3.53-4.89 7.07 4.89 3.53 4.89 7.06m0-336.47c0 3.53-4.89 3.53-4.89 7.06s4.89 3.52 4.89 7-4.89 3.53-4.89 7.06 4.89 3.6 4.89 7.11-4.89 3.53-4.89 7.06 4.89 3.53 4.89 7.06-4.89 3.53-4.89 7.05 4.89 3.53 4.89 7.06-4.89 3.53-4.89 7.06 4.89 3.53 4.89 7.06-4.89 3.53-4.89 7.06 3.76 5.85 3.76 9.38" fill="none" stroke="#fff" stroke-miterlimit="10"/><path fill="#fff" stroke="#7c3990" stroke-miterlimit="10" d="M163.66 351.24H112.6v-4.09h51.06"/><path fill="none" stroke="#7c3990" stroke-miterlimit="10" d="M112.6 347.15l23.27-38.53m-23.27 0l23.27 38.53m-.13 0l23.27-38.53m-23.27 0l23.27 38.53"/><path fill="#fff" stroke="#7c3990" stroke-miterlimit="10" d="M163.66 308.62H112.6v-4.57h51.06"/><path fill="#ee2a7b" stroke="#7d3990" stroke-miterlimit="10" d="M72.32 355.89v-56.75h40.28v56.75zm40.28 0v-56.75m23.27 48.01v-38.53m-55.82 36.74h9.57m-9.57-3.57h9.57m-9.57-3.58h9.57m-9.57-3.58h9.57m-9.57-3.57h9.57"/><path fill="#ee2a7b" stroke="#7d3990" stroke-miterlimit="10" d="M101.16 346.7l-1.93.74-.74-1.92"/><circle cx="100.8" cy="343.88" r="3.16" fill="#e9b7d5" stroke="#7d3990" stroke-miterlimit="10"/><path fill="#ee2a7b" stroke="#7d3990" stroke-miterlimit="10" d="M103 331.21l1.32 1.59-1.59 1.32"/><circle cx="100.45" cy="332.45" r="3.16" fill="#e9b7d5" stroke="#7d3990" stroke-miterlimit="10"/><path fill="#fce9f1" d="M81.04 318.44v-6.02h6.02v6.02zm12.17-5.85v-6.02h6.02v6.02z"/><path fill="#fce9f1" d="M93.2 317.93v-6.02h6.02v6.02z"/><path fill="#ee2a7b" stroke="#7d3990" stroke-miterlimit="10" d="M87.06 306.21v12.23m6.19-12.23v12.23m-12.21-6.13h24.44m-6.04-6.1v12.23"/><path fill="none" stroke="#7d3990" stroke-miterlimit="10" d="M81.04 318.44v-12.22h24.58v12.22z"/><path fill="#fff" stroke="#7c3990" stroke-miterlimit="10" d="M365.78 504.18v29.69h-4.34v-29.69"/><path fill="none" stroke="#7c3990" stroke-miterlimit="10" d="M361.43 533.87l-41.06-24.8m0 24.8l41.06-24.8"/><path fill="#fff" stroke="#7c3990" stroke-miterlimit="10" d="M320.37 504.18v29.69h-4.88v-29.69"/><path fill="#ee2a7b" stroke="#7d3990" stroke-miterlimit="10" d="M370.75 576.8h-60.49v-42.93h60.49zm0-42.93h-60.49m49.26 34.69v-10.2m-3.81 10.2v-10.2m-3.81 10.2v-10.2m-3.81 10.2v-10.2m-3.81 10.2v-10.2"/><path fill="#ee2a7b" stroke="#7d3990" stroke-miterlimit="10" d="M359.63 548.8l-1.56 1.55-1.56-1.55"/><circle cx="358.07" cy="546.21" r="3.37" fill="#e9b7d5" stroke="#7d3990" stroke-miterlimit="10"/><path fill="#ee2a7b" stroke="#7d3990" stroke-miterlimit="10" d="M345.36 549.26l-2.2.02-.02-2.2"/><circle cx="346.07" cy="546.32" r="3.37" fill="#e9b7d5" stroke="#7d3990" stroke-miterlimit="10"/><path fill="#fce9f1" d="M324.6 567.51h-6.42v-6.42h6.42zm0-12.97h-6.42v-6.42h6.42z"/><path fill="#e9b7d5" d="M330.82 548.03h-6.42v-6.42h6.42zm0 12.94h-6.42v-6.42h6.42z"/><path fill="#ee2a7b" stroke="#7d3990" stroke-miterlimit="10" d="M317.8 561.08h13.03m-13.03-6.59h13.03m-6.53 13.01v-26.04m-6.5 6.44h13.03"/><path fill="none" stroke="#7d3990" stroke-miterlimit="10" d="M330.82 567.51h-13.03v-26.2h13.03z"/><path fill="#fff" stroke="#7c3990" stroke-miterlimit="10" d="M316.79 150.1V99.04h4.08v51.06"/><path fill="none" stroke="#7c3990" stroke-miterlimit="10" d="M320.87 99.04l38.53 23.27m0-23.27l-38.53 23.27m0-.13l38.53 23.27m0-23.27l-38.53 23.27"/><path fill="#fff" stroke="#7c3990" stroke-miterlimit="10" d="M359.4 150.1V99.04h4.58v51.06"/><path fill="#ee2a7b" stroke="#7d3990" stroke-miterlimit="10" d="M301.12 61.14h78.76v37.9h-78.76zm11.01 37.9h56.75m-48.01 23.27h38.53m-43.66-53.43v8.27m4.96-8.27v8.27m4.96-8.27v8.27m4.97-8.27v8.27m4.96-8.27v8.27"/><path fill="#ee2a7b" stroke="#7d3990" stroke-miterlimit="10" d="M315.61 83.6l2.03-2.02 2.02 2.02"/><circle cx="317.64" cy="86.97" r="4.38" fill="#e9b7d5" stroke="#7d3990" stroke-miterlimit="10"/><path fill="#ee2a7b" stroke="#7d3990" stroke-miterlimit="10" d="M334.18 83l2.87-.02.02 2.87"/><circle cx="333.26" cy="86.83" r="4.38" fill="#e9b7d5" stroke="#7d3990" stroke-miterlimit="10"/><path fill="#fce9f1" d="M353.11 67.25h8.36v8.36h-8.36zm8.11 16.88h8.36v8.36h-8.36z"/><path fill="#ee2a7b" stroke="#7d3990" stroke-miterlimit="10" d="M370.07 75.61h-16.96m16.96 8.58h-16.96m8.49-16.94v25.24"/><path fill="none" stroke="#7d3990" stroke-miterlimit="10" d="M353.11 67.25h16.96v25.24h-16.96z"/><path fill="#ee2c7b" d="M611.37 412.77l-7.56 7.52v15.1l7.56 7.52 7.56-7.52v-15.1l-7.56-7.52z"/><path fill="#f6ebf4" stroke="#7d3990" stroke-miterlimit="10" d="M611.37 412.77l-7.56 7.52v15.1l7.56 7.52"/><path fill="#e6cbe2" d="M611.37 419.02l-3.15 3.14v11.36l3.15 3.14 3.16-3.14v-11.37l-3.16-3.13z"/><path d="M611.37 412.06l-8.06 8v15.54l8.06 8 8.06-8v-15.52zm3.27 9.5l-2.77-2.75V414l6.18 6.15zM611.37 436l-2.65-2.65v-10.99l2.65-2.64 2.66 2.64v11zm-.5-17.15l-2.77 2.75-3.41-1.44 6.18-6.15zm-3.15 3.68v10.7l-3.41 1.45V421zm.38 11.62l2.77 2.76v4.84l-6.18-6.15zm3.77 2.76l2.77-2.75 3.41 1.44-6.18 6.15zm3.16-3.68v-10.7l3.4-1.45v13.6z" fill="#7d3990"/><path fill="#ee2c7b" stroke="#7c3990" stroke-miterlimit="10" d="M392.14 422.86l-5 4.98v10.01l5 4.97 5.01-4.97v-10.01l-5.01-4.98z"/><path fill="#f6ebf4" stroke="#7d3990" stroke-miterlimit="10" d="M392.14 422.86l-5 4.98v10.01l5 4.97"/><path fill="none" stroke="#7d3990" stroke-miterlimit="10" d="M394.23 436.61l2.92 1.23m-5.01.84v4.14m-2.09-6.21l-2.91 1.23m7.09-8.76l2.92-1.24m-5.01-.84v-4.14m-2.09 6.22l-2.91-1.24"/><path fill="#e6cbe2" stroke="#7d3990" stroke-miterlimit="10" d="M392.14 427l-2.09 2.08v7.53l2.09 2.07 2.09-2.07v-7.53l-2.09-2.08z"/><path fill="#ee2c7b" stroke="#7c3990" stroke-miterlimit="10" d="M525.9 202.03l-5 4.98v10l5 4.98 5.01-4.98v-10l-5.01-4.98z"/><path fill="#f6ebf4" stroke="#7d3990" stroke-miterlimit="10" d="M525.9 202.03l-5 4.98v10l5 4.98"/><path fill="none" stroke="#7d3990" stroke-miterlimit="10" d="M527.99 215.77l2.92 1.24m-5.01.84v4.14m-2.09-6.22l-2.91 1.24m7.09-8.77l2.92-1.23m-5.01-.84v-4.14m-2.09 6.22l-2.91-1.24"/><path fill="#e6cbe2" stroke="#7d3990" stroke-miterlimit="10" d="M525.9 206.17l-2.09 2.08v7.52l2.09 2.08 2.09-2.07v-7.53l-2.09-2.08z"/><path fill="#ee2c7b" stroke="#7c3990" stroke-miterlimit="10" d="M389.85 188.56l-7.83 7.79v15.66l7.83 7.79 7.83-7.79v-15.66l-7.83-7.79z"/><path fill="#f6ebf4" stroke="#7d3990" stroke-miterlimit="10" d="M389.85 188.56l-7.83 7.79v15.66l7.83 7.79"/><path fill="none" stroke="#7d3990" stroke-miterlimit="10" d="M393.12 210.07l4.56 1.94m-7.83 1.31v6.48m-3.27-9.73l-4.56 1.94m11.1-13.72l4.56-1.94m-7.83-1.31v-6.48m-3.27 9.73l-4.56-1.94"/><path fill="#e6cbe2" stroke="#7d3990" stroke-miterlimit="10" d="M389.85 195.04l-3.27 3.25v11.78l3.27 3.25 3.27-3.25v-11.78l-3.27-3.25z"/><path fill="#ee2c7b" stroke="#7c3990" stroke-miterlimit="10" d="M204.74 532.56l-3.45 3.43v6.89l3.45 3.43 3.45-3.43v-6.89l-3.45-3.43z"/><path fill="#f6ebf4" stroke="#7d3990" stroke-miterlimit="10" d="M204.74 532.56l-3.45 3.43v6.89l3.45 3.43"/><path fill="none" stroke="#7d3990" stroke-miterlimit="10" d="M206.18 542.03l2 .85m-3.44.58v2.85m-1.44-4.28l-2.01.85m4.89-6.04l2-.85m-3.44-.58v-2.85m-1.44 4.28l-2.01-.85"/><path fill="#e6cbe2" stroke="#7d3990" stroke-miterlimit="10" d="M204.74 535.41l-1.44 1.44v5.18l1.44 1.43 1.44-1.43v-5.19l-1.44-1.43z"/><path fill="#ee2c7b" stroke="#7c3990" stroke-miterlimit="10" d="M28.95 417.22l-9.51 9.45v28.16l9.51 9.46 9.51-9.46v-28.16l-9.51-9.45z"/><path fill="#f6ebf4" stroke="#7d3990" stroke-miterlimit="10" d="M28.95 417.22l-9.51 9.45v28.16l9.51 9.46"/><path fill="none" stroke="#7d3990" stroke-miterlimit="10" d="M32.92 452.48l5.54 2.35m-9.51 1.6v7.86m-3.97-11.81l-5.54 2.35m13.48-25.81l5.54-2.35m-9.51-1.59v-7.86m-3.97 11.81l-5.54-2.36"/><path fill="#e6cbe2" stroke="#7d3990" stroke-miterlimit="10" d="M28.95 425.08l-3.97 3.95v23.45l3.97 3.95 3.97-3.95v-23.46l-3.97-3.94z"/><path d="M160.61 511.25l-2.17-2.16a17.83 17.83 0 1 0-25.21 25.21l2.16 2.17" fill="#f2cd7b" stroke="#7c3990" stroke-miterlimit="10"/><g clip-path="url(#clip-path-2)" fill="#f5ebf4" stroke="#7d3990" stroke-linejoin="bevel"><path d="M120.79 520.67l12.86 12.86m-10.94-14.78l12.86 12.86m-10.93-14.79l12.86 12.86m-10.94-14.78l12.86 12.86m-10.94-14.78l12.86 12.86m-10.94-14.78l12.86 12.86m-10.94-14.78L145.18 522m-10.94-14.78l12.86 12.86m-10.94-14.78l12.86 12.86m-10.94-14.78l12.86 12.86m-10.93-14.79l12.86 12.86m-10.94-14.78l12.86 12.86m-10.94-14.78l12.86 12.86m-11.9-13.82l12.86 12.86"/></g><path d="M160.61 536.47a17.83 17.83 0 1 0-25.22 0 17.84 17.84 0 0 0 25.22 0z" fill="#efb032" stroke="#7c3990" stroke-miterlimit="10"/><path d="M158.39 534.25a14.69 14.69 0 1 0-20.78 0 14.69 14.69 0 0 0 20.78 0zm-20.78 0a14.69 14.69 0 0 0 20.78-20.78" fill="#f2c43c" stroke="#7c3990" stroke-miterlimit="10"/><path d="M158.39 513.47a14.69 14.69 0 0 1-20.78 20.78l-.32-.33A14.7 14.7 0 0 0 158 513.1" fill="#f2cd7b" stroke="#7c3990" stroke-miterlimit="10"/><path d="M147.8 532.51l-6.28-6.28a2.95 2.95 0 0 1 4.17-4.17l4.71 4.71m-4.17 4.17l8.34-8.35m-12.44 8.98l2.36-2.36m-4.56.15l2.36-2.36m10.55-6.14l2.36-2.36m-4.56.15l2.36-2.36" fill="none" stroke="#7d3990" stroke-miterlimit="10"/><path d="M145.69 522.06a3 3 0 1 1 4.18-4.17l6.28 6.28" fill="none" stroke="#7d3990" stroke-miterlimit="10"/><path d="M181 524.6l-17.61 17.61a25.66 25.66 0 0 1-36.27 0 25.64 25.64 0 0 1 0-36.27l17.61-17.61z" fill="#d1ecf2" opacity=".4"/><path fill="#fff" opacity=".65" d="M137.12 548.42l-1.23-51.28-7.96 7.96.89 38.84 8.3 4.48zm5.82 1.2l-1.58-57.96-2.13 2.14 1.53 55.53 2.18.29z"/><path d="M181 524.6l-17.62 17.62a25.65 25.65 0 0 1-36.27 0 25.66 25.66 0 0 1 0-36.27l17.51-17.5" fill="none" stroke="#7d3990" stroke-miterlimit="10"/><path fill="#828a90" stroke="#7c3990" stroke-miterlimit="10" d="M557.94 547.09l2.46-2.47 1.54-5.24 4.83-4.45 2.24-2.24-17.09-14.62h-18.07l-2.46 2.47"/><path fill="#bac4ca" stroke="#7c3990" stroke-miterlimit="10" d="M552.49 548.68l5.41-1.63 1.63-5.42 6.98-6.51-17.09-14.62h-18.07v18.06l14.62 17.1 6.52-6.98z"/><path fill="#bac4ca" d="M548.77 522.25l15.11 12.92-5.89 5.5-1.49 4.97-4.97 1.49-5.5 5.9-12.93-15.11v-15.67h15.67z"/><path fill="none" stroke="#7c3990" stroke-linecap="round" stroke-linejoin="round" d="M563.86 535.16l.02.01-.02.02"/><path fill="none" stroke="#7c3990" stroke-linecap="round" stroke-linejoin="round" stroke-dasharray=".05455118045210838,4.364094257354736" d="M560.67 538.17l-2.68 2.5-.86 2.86"/><path fill="none" stroke="#7c3990" stroke-linecap="round" stroke-linejoin="round" d="M556.5 545.62v.02l-.03.01"/><path fill="none" stroke="#7c3990" stroke-linecap="round" stroke-linejoin="round" stroke-dasharray=".0545513890683651,4.364110946655273" d="M552.29 546.9l-.76.23-4 4.29"/><path fill="none" stroke="#7c3990" stroke-linecap="round" stroke-linejoin="round" d="M546.04 553.01l-.01.02-.02-.02"/><path fill="none" stroke="#7c3990" stroke-linecap="round" stroke-linejoin="round" stroke-dasharray=".04876390099525452,3.9011120796203613" d="M543.47 550.04l-10.37-12.12v-13.69"/><path fill="none" stroke="#7c3990" stroke-linecap="round" stroke-linejoin="round" d="M533.1 522.28v-.03h.03"/><path fill="none" stroke="#7c3990" stroke-linecap="round" stroke-linejoin="round" stroke-dasharray=".048764269798994064,3.90114164352417" d="M537.03 522.25h11.74l13.61 11.64"/><path fill="#bac4ca" stroke="#7c3990" stroke-miterlimit="10" d="M548.12 524l13.13 11.23-4.8 4.49-1.36 4.52-4.52 1.35-4.49 4.81-11.23-13.13V524h13.27z"/><path d="M553.89 535.2l-5.46 5.46a2.56 2.56 0 1 1-3.62-3.63l4.09-4.09m3.62 3.63l-7.25-7.26m7.8 10.82l-2.05-2.06m.13 3.97l-2.05-2.05m-5.34-9.17l-2.05-2.05m.14 3.97l-2.06-2.06m5.02 6.32a2.57 2.57 0 0 1-3.63-3.63l5.46-5.45" fill="none" stroke="#7d3990" stroke-miterlimit="10"/><path fill="#828a90" stroke="#7c3990" stroke-miterlimit="10" d="M546.99 549.43l-10.8-12.77V524h-1.34v13.27l11.23 13.13.91-.97z"/><path d="M548.91 499.78L567.16 518a26.57 26.57 0 0 1 0 37.58 26.58 26.58 0 0 1-37.59 0l-18.25-18.25z" fill="#d1ecf2" opacity=".4"/><path fill="#fff" opacity=".65" d="M573.59 545.22l-53.14 1.27 8.25 8.25 40.26-.93 4.63-8.59zm1.25-6.04l-60.06 1.64 2.21 2.21 57.55-1.59.3-2.26z"/><path d="M548.91 499.77L567.16 518a26.58 26.58 0 0 1 0 37.59 26.57 26.57 0 0 1-37.58 0l-18.15-18.15" fill="none" stroke="#7d3990" stroke-miterlimit="10"/><path fill="#ee2c7b" stroke="#7c3990" stroke-miterlimit="10" d="M251.39 107.05l-9.51 9.45v11.07l9.51 9.45 9.51-9.45V116.5l-9.51-9.45z"/><path fill="#f6ebf4" stroke="#7d3990" stroke-miterlimit="10" d="M251.39 107.05l-9.51 9.45v11.07l9.51 9.45"/><path fill="none" stroke="#7d3990" stroke-miterlimit="10" d="M255.36 125.22l5.54 2.35m-9.51 1.59v7.86m-3.97-11.81l-5.54 2.36m13.48-8.71l5.54-2.35m-9.51-1.6v-7.86m-3.97 11.81l-5.54-2.35"/><path fill="#e6cbe2" stroke="#7d3990" stroke-miterlimit="10" d="M251.39 114.91l-3.97 3.95v6.35l3.97 3.95 3.97-3.94v-6.36l-3.97-3.95z"/><path d="M87 557.75A16 16 0 0 0 72.11 568a4.24 4.24 0 0 0 4 5.73h21.81a4.24 4.24 0 0 0 4-5.73A16 16 0 0 0 87 557.75zM229 271a19 19 0 0 0-13.43 5.54 6 6 0 0 1-9.26-.93 26.16 26.16 0 0 0-44.66 1.77 5.81 5.81 0 0 1-7.87 2.12 11.95 11.95 0 0 0-15.85 4.5 4 4 0 0 0 3.5 6H243a4.39 4.39 0 0 0 4.2-5.69A19.06 19.06 0 0 0 229 271z" fill="#fff"/><path fill="#fff" stroke="#7c3990" stroke-miterlimit="10" d="M481.69 435.13l37.69 37.69-3.01 3.01-37.69-37.69"/><path fill="none" stroke="#7c3990" stroke-miterlimit="10" d="M516.37 475.83l-45.62 11.27m17.18 17.18l11.26-45.62m.1.09l-45.62 11.27m17.18 17.17l11.26-45.61"/><path fill="#fff" stroke="#7c3990" stroke-miterlimit="10" d="M450.24 466.59l37.69 37.68-3.38 3.38-37.69-37.69"/><path fill="#fce9f1" stroke="#7d3990" stroke-miterlimit="10" d="M552.544 499.116l-41.889 41.889-29.726-29.727 41.889-41.889z"/><path fill="#ee2a7b" stroke="#7d3990" stroke-miterlimit="10" d="M522.82 469.38l-41.89 41.89m18.26-52.61l-28.44 28.44m68.32 14.08l-7.07-7.07m4.43 9.71l-7.07-7.07m4.43 9.71l-7.07-7.07m4.43 9.7l-7.06-7.06m4.42 9.7l-7.06-7.06m4-17.24v2.15h-2.15"/><circle cx="522.58" cy="486.71" r="3.3" fill="#e9b7d5" stroke="#7d3990" stroke-miterlimit="10"/><path fill="#ee2a7b" stroke="#7d3990" stroke-miterlimit="10" d="M515.89 497.62l-1.51 1.54-1.53-1.52"/><circle cx="514.35" cy="495.1" r="3.3" fill="#e9b7d5" stroke="#7d3990" stroke-miterlimit="10"/><path fill="#fce9f1" d="M518.459 520.318l-4.448 4.448-4.448-4.448 4.448-4.447zm-13.29-4.665l-4.448 4.448-4.448-4.448 4.448-4.448z"/><path fill="#e9b7d5" d="M504.967 506.828l-4.448 4.448-4.448-4.448 4.448-4.447z"/><path fill="#ee2a7b" stroke="#7d3990" stroke-miterlimit="10" d="M504.99 524.9l9.03-9.02m-13.59 4.45l9.02-9.02m4.49 13.53l-18.03-18.04m-.05 8.97l9.02-9.03"/><path fill="none" stroke="#7d3990" stroke-miterlimit="10" d="M518.462 520.327l-9.023 9.023-18.144-18.144 9.023-9.023z"/><path fill="#fff" stroke="#7c3990" stroke-miterlimit="10" d="M238.17 471.14l-23.91 23.91-3.54-3.54 23.91-23.9"/><path fill="none" stroke="#7c3990" stroke-miterlimit="10" d="M210.72 491.52l-13.22-53.56m-20.17 20.16l53.56 13.23"/><path fill="#fff" stroke="#7c3990" stroke-miterlimit="10" d="M201.24 434.21l-23.91 23.91-3.96-3.96 23.91-23.91"/><path fill="#e9b7d5" stroke="#7d3990" stroke-miterlimit="10" d="M183.398 533.989l-49.179-49.18 34.903-34.902 49.18 49.179z"/><path fill="#ee2a7b" stroke="#7d3990" stroke-miterlimit="10" d="M218.3 499.09l-49.18-49.18m11.85 68.25l8.29-8.29m-11.39 5.2l8.29-8.3m-11.39 5.2l8.3-8.29m-11.4 5.19l8.3-8.29m-11.39 5.19l8.29-8.29m20.25 4.7h-2.53v-2.53"/><circle cx="197.96" cy="498.81" r="3.87" fill="#ee2c7b" stroke="#7c3990" stroke-miterlimit="10"/><path fill="#ee2a7b" stroke="#7d3990" stroke-miterlimit="10" d="M185.15 490.96l-1.81-1.78 1.78-1.8"/><circle cx="188.11" cy="489.14" r="3.87" fill="#ee2c7b" stroke="#7c3990" stroke-miterlimit="10"/><path fill="#fce9f1" d="M158.499 493.98l-5.218-5.218 5.218-5.218 5.219 5.218z"/><path fill="#ee2c7b" d="M163.973 478.367l-5.218-5.219 5.218-5.218 5.219 5.218z"/><path fill="#e9b7d5" d="M169.025 472.823l-5.218-5.218 5.218-5.219 5.218 5.219z"/><path fill="#f6ebf4" stroke="#7d3990" stroke-miterlimit="10" d="M675.7 301.16l17.63 17.59-7.96 8.12 7.95 8.13-17.62 17.62-26.54-25.75 26.54-25.71z"/><path fill="#da1c5c" d="M675.7 352.62l-26.54-25.75h6.53l20.01 19.36v6.39zm0 0L693.32 335l-6.39-.04-11.23 11.27v6.39zm9.67-25.75l7.9-8.1-6.4-.03-7.86 8.13h6.36z"/><path fill="#f11c5c" stroke="#7c3990" stroke-miterlimit="10" d="M686.93 334.96l-7.92-8.09 7.92-8.09-11.28-11.25-19.96 19.34 19.96 19.36 11.28-11.27z"/><path fill="#da1c5c" stroke="#7c3990" stroke-miterlimit="10" d="M686.93 334.96l6.39.04m-7.95-8.13h-6.36m14.32-8.13l-6.4.04m-31.24 8.09h-6.53m26.49 19.36l.05 6.39m0-51.46l-.05 6.37"/><path fill="none" stroke="#7c3990" stroke-miterlimit="10" d="M675.7 301.16l17.63 17.59-7.96 8.12 7.95 8.13-17.62 17.62-26.54-25.75 26.54-25.71z"/><path d="M644.12 358.43h30.55A31.47 31.47 0 0 0 706.14 327a31.47 31.47 0 0 0-31.47-31.46h-30.55z" fill="#d1ecf2" opacity=".4"/><path fill="#fff" opacity=".65" d="M702.82 341.05L659.4 295.5h13.82l32.92 34.47-3.32 11.08zm-4.01 6.1L649.9 295.5h3.71l46.84 49.5-1.64 2.15z"/><path d="M644.12 358.43h30.56A31.47 31.47 0 0 0 706.15 327a31.46 31.46 0 0 0-31.47-31.46h-30.37" fill="none" stroke="#7d3990" stroke-miterlimit="10"/><path fill="#fff" stroke="#7d3990" stroke-miterlimit="10" d="M512.09 292.12h76.2v6.09h-76.2"/><path fill="none" stroke="#7c3990" stroke-miterlimit="10" d="M588.29 298.21l-34.72 57.5m34.72 0l-34.72-57.5m.19 0l-34.73 57.5m34.73 0l-34.73-57.5"/><path fill="#fff" stroke="#7c3990" stroke-miterlimit="10" d="M512.09 355.71h76.2v6.83h-76.2"/><path fill="#e9b7d5" stroke="#7d3990" stroke-miterlimit="10" d="M648.4 285.17v84.69h-60.1v-84.69z"/><path fill="#ee2a7b" stroke="#7d3990" stroke-miterlimit="10" d="M588.29 285.17v84.69m-34.72-71.65v57.5m83.29-54.82h-14.28m14.28 5.33h-14.28m14.28 5.34h-14.28m14.28 5.33h-14.28m14.28 5.34h-14.28m-13.39-21.48l2.18 2.18-2.18 2.17"/><circle cx="605.57" cy="302.93" r="4.71" fill="#ee2a7b" stroke="#7d3990" stroke-miterlimit="10"/><path fill="#ee2a7b" stroke="#7d3990" stroke-miterlimit="10" d="M607.64 323.25l-2.25 2.12-2.11-2.25"/><circle cx="605.57" cy="319.57" r="4.71" fill="#ee2a7b" stroke="#7d3990" stroke-miterlimit="10"/><path fill="#ee2a7b" stroke="#7d3990" stroke-miterlimit="10" d="M153.12 478.16l10.59 10.59m-5.23-15.95l10.59 10.59m-15.88 5.28l21.17-21.17m-10.52-.06l10.59 10.59"/><path fill="#e9b7d5" d="M99.32 318.44v-6.02h6.02v6.02zm-12.02-5.85v-6.02h6.02v6.02z"/><path fill="#ee2c7b" d="M163.78 488.684l-5.218-5.219 5.219-5.218 5.218 5.218z"/><path fill="none" stroke="#7d3990" stroke-miterlimit="10" d="M158.489 493.975l-10.592-10.593 21.298-21.298 10.592 10.593z"/><path fill="#ee2c7b" d="M164.807 139.877l4.257-4.257 4.256 4.257-4.256 4.256zm12.732 4.465l4.257-4.257 4.257 4.257-4.257 4.257zm.197 8.458l4.256-4.257 4.257 4.257-4.257 4.256z"/><path fill="#ee2a7b" d="M626.51 349.99v8.99h-8.99v-8.99zM608.39 341v8.99h-8.99V341z"/><path fill="#fce9f1" d="M626.21 341.07v8.99h-8.99v-8.99z"/><path d="M521.39 148.39L520 147a11.45 11.45 0 1 0-16.2 16.19l1.39 1.39" fill="#f2cd7b" stroke="#7c3990" stroke-miterlimit="10"/><g clip-path="url(#clip-path-3)" fill="#f5ebf4" stroke="#7d3990" stroke-linejoin="bevel"><path d="M511.24 139.01l8.26 8.26m-9.49-7.03l8.26 8.26m-9.5-7.02l8.26 8.26m-9.49-7.03l8.26 8.26m-9.5-7.02l8.26 8.26m-9.49-7.03l8.26 8.26m-9.49-7.03l8.26 8.26m-9.5-7.02l8.26 8.26m-9.49-7.03l8.26 8.26m-9.5-7.02l8.26 8.26m-9.49-7.03l8.26 8.26m-9.49-7.03l8.26 8.26m-9.5-7.02l8.26 8.26m-8.87-7.64l8.26 8.25"/></g><path d="M521.39 148.39a11.45 11.45 0 1 0 0 16.19 11.46 11.46 0 0 0 0-16.19z" fill="#efb032" stroke="#7c3990" stroke-miterlimit="10"/><path d="M520 149.81a9.44 9.44 0 1 0 0 13.35 9.43 9.43 0 0 0 0-13.35zm-13.35 13.35A9.44 9.44 0 1 0 520 149.81" fill="#f2c43c" stroke="#7c3990" stroke-miterlimit="10"/><path d="M506.61 163.16A9.44 9.44 0 1 0 520 149.81l-.21-.2a9.44 9.44 0 0 1-13.37 13.3" fill="#f2cd7b" stroke="#7c3990" stroke-miterlimit="10"/><path d="M513.05 150.56l4 4a1.9 1.9 0 0 1-2.68 2.68l-3-3m2.69-2.67l-5.36 5.36m7.99-5.76l-1.51 1.51m2.93-.1l-1.52 1.52m-6.78 3.94l-1.51 1.52m2.93-.1l-1.52 1.52m4.69-3.71a1.9 1.9 0 0 1-2.68 2.68l-4-4" fill="none" stroke="#7d3990" stroke-miterlimit="10"/><path d="M513.65 178L525 166.71a16.45 16.45 0 0 0 0-23.29 16.47 16.47 0 0 0-23.29 0l-11.31 11.31z" fill="#d1ecf2" opacity=".4"/><path fill="#fff" opacity=".65" d="M528.95 149.86l-32.94-.79 5.12-5.11 24.95.57 2.87 5.33zm.77 3.74l-37.22-1.01 1.37-1.37 35.67.98.18 1.4z"/><path d="M513.65 178L525 166.71a16.47 16.47 0 0 0 0-23.29 16.46 16.46 0 0 0-23.3 0l-11.24 11.24" fill="none" stroke="#7d3990" stroke-miterlimit="10"/><path fill="#fff" stroke="#7c3990" stroke-miterlimit="10" d="M453.45 188.45l14.25-14.25 2.28 2.28-14.25 14.25"/><path fill="none" stroke="#7c3990" stroke-miterlimit="10" d="M469.98 176.48l8.52 34.5m12.99-12.99l-34.5-8.52"/><path fill="#fff" stroke="#7c3990" stroke-miterlimit="10" d="M477.24 212.24l14.25-14.25 2.56 2.55-14.26 14.26"/><path fill="#ee2a7b" stroke="#7d3990" stroke-miterlimit="10" d="M487.585 149.114l31.686 31.685-22.486 22.486-31.686-31.685zM465.1 171.6l31.68 31.68m-39.79-13.81l21.51 21.51m10.65-51.67l-5.34 5.34m7.34-3.34l-5.35 5.34m7.34-3.35l-5.34 5.34m7.34-3.34l-5.34 5.34m7.33-3.35l-5.34 5.35"/><path fill="#ee2a7b" stroke="#7d3990" stroke-miterlimit="10" d="M478.75 169.61h1.63v1.63"/><circle cx="478.21" cy="171.78" r="2.49" fill="#e9b7d5" stroke="#7d3990" stroke-miterlimit="10"/><path fill="#ee2a7b" stroke="#7d3990" stroke-miterlimit="10" d="M486.46 176.84l1.16 1.14-1.14 1.16"/><circle cx="484.55" cy="178" r="2.49" fill="#e9b7d5" stroke="#7d3990" stroke-miterlimit="10"/><path fill="#fce9f1" d="M503.631 174.893l3.36 3.359-3.36 3.359-3.358-3.359zm-3.532 10.05l3.359 3.36-3.36 3.358-3.358-3.359z"/><path fill="#e9b7d5" d="M493.426 185.093l3.36 3.359-3.36 3.359-3.358-3.359z"/><path fill="#ee2a7b" stroke="#7d3990" stroke-miterlimit="10" d="M507.09 185.08l-6.82-6.82m3.37 10.27l-6.83-6.82m10.24-3.4l-13.64 13.64m6.77.04l-6.82-6.83"/><path fill="none" stroke="#7d3990" stroke-miterlimit="10" d="M503.626 174.884l6.824 6.824-13.725 13.725-6.824-6.824z"/><path d="M340.28 147.07a180.45 180.45 0 1 0 180.44 180.45 180.45 180.45 0 0 0-180.44-180.45zm0 348.46a168 168 0 1 1 168-168 168 168 0 0 1-168 168z" fill="#e6cae2" stroke="#7c3990" stroke-miterlimit="10"/><path d="M340.28 153a174.48 174.48 0 1 0 174.47 174.52A174.47 174.47 0 0 0 340.28 153z" fill="none" stroke="#7c3990" stroke-miterlimit="10"/><path d="M548.88 400.53a19 19 0 0 0-13.51 5.61 6 6 0 0 1-9.24-.93 26.13 26.13 0 0 0-21.86-11.78c-21.4 0-31.95 26.22-24.43 26.22h80.74a6 6 0 0 0 5.44-8.5 19.14 19.14 0 0 0-17.14-10.62z" fill="#fff"/><path d="M471.16 607.86c-2.68 17.32-22.56 45.26-33.78 43.52s-15.9-27.2-13.22-44.52 11.46-24.36 22.76-25.43c14.41-1.37 26.92 9.12 24.24 26.43zM645.6 196.85c5.82-3.36 22.65 1.5 27.68 10.21s-3.66 18-9.49 21.33-31.38-2.22-36.41-10.93 12.39-17.25 18.22-20.61z" fill="#dff2f4"/><path fill="#da1c5c" d="M340.26 241.97l-55.03 54.74v61.61l55.03 54.75 55.04-54.75v-61.61l-55.04-54.74z"/><path fill="#f6ebf4" d="M340.26 241.97l-55.03 54.74v61.61l55.03 54.75"/><path fill="#e6cbe2" d="M340.27 287.49l-22.99 22.85v34.35l22.99 22.85 22.97-22.83v-34.39l-22.97-22.83z"/><path d="M624.07 110.67a55.66 55.66 0 0 0-51.36 34.21 5.81 5.81 0 0 1-9.17 2.3 25.38 25.38 0 0 0-40.89 11.41 5.9 5.9 0 0 0 5.6 7.71h145.21a5.9 5.9 0 0 0 5.85-6.58 55.64 55.64 0 0 0-55.24-49.05z" fill="#fff"/><path fill="#ee2a7b" stroke="#7d3990" stroke-miterlimit="10" d="M626.4 359.31v-18.24m-9.24 18.24v-18.24m18.22 9.13h-36.46m9.01 9.11v-18.24"/><path fill="none" stroke="#7d3990" stroke-miterlimit="10" d="M635.38 341.07v18.24H598.7v-18.24z"/><path fill="#ee2a7b" stroke="#7d3990" stroke-miterlimit="10" d="M177.42 135.56l-8.64 8.64m13.01-4.27l-8.64 8.65m-4.3-12.96l17.27 17.28m.05-8.59l-8.65 8.64"/><path fill="none" stroke="#7d3990" stroke-miterlimit="10" d="M164.514 139.94l8.641-8.64 17.381 17.38-8.64 8.64z"/><path d="M395.8 310.16v-13.65l-55.54-55.25-55.39 55.1-.14.15v13.6l-4.88 2.33v29.92l4.88 3.24v12.93l55.53 55.24 55.39-55.1.15-.14v-12.86l5-2.34v-29.92zm-1.38-13.61l-31.06 13.18-22.59-22.45v-44.11zm-54.66-53.38v44.11l-22.6 22.47-31.07-13.2zm-59 98.63v-28.71l4-1.89v33.23zm5 4.47v-48.8l31 13.2v33.69l-31 13.2zm54 65.59l-53.65-53.37 31.06-13.21 22.6 22.47zm-22-67.38v-33.93l22.49-22.36 22.47 22.34v34l-22.47 22.34zm23 67.38v-44.11l22.59-22.45 31.06 13.19zm54-102.34v48l-31.06-13.18v-33.68l31.06-13.19zm5.11 33.16l-4.11 1.9v-33.25l4.11 2.65z" fill="#7d3990"/><path fill="#ee2c7b" d="M455.58 48.08l-15.45 15.38v32.63l15.45 15.38 15.45-15.38V63.46l-15.45-15.38z"/><path fill="#f6ebf4" d="M455.58 48.08l-15.45 15.38v32.63l15.45 15.38"/><path fill="#e6cbe2" d="M455.58 60.87l-6.45 6.41v24.99l6.45 6.42 6.45-6.42V67.28l-6.45-6.41z"/><path d="M455.58 47.38l-15.95 15.87V96.3l15.95 15.87 15.95-15.87v-33zm6.57 19.31l-6.07-6v-11.4l14.07 14zM455.58 98l-5.95-5.92V67.49l5.95-5.92 5.95 5.92v24.58zm-.5-37.32l-6.07 6-8-3.4 14.08-14zm-6.45 7v24.26l-8 3.4V64.21zm.37 25.18l6.07 6v11.38L441 96.26zm7.07 6l6.07-6 8 3.39-14.07 14zm6.45-7V67.61l8-3.4v31.13z" fill="#7d3990"/></g></svg>