<svg xmlns="http://www.w3.org/2000/svg" xmlns:xlink="http://www.w3.org/1999/xlink" width="20.33" height="19.08" viewBox="0 0 20.33 19.08"><defs><clipPath id="clip-path"><path d="M10.78,1.25H9.34A8.38,8.38,0,1,0,9.34,18h1.44" style="fill:none"/></clipPath></defs><title>Artboard 40</title><g id="ILLO_5" data-name="ILLO 5"><path d="M10.78,1.25H9.34A8.38,8.38,0,1,0,9.34,18h1.44" style="fill:#f2cd7b;stroke:#7c3990;stroke-miterlimit:10"/><g style="clip-path:url(#clip-path)"><line x1="0.68" y1="1.65" x2="9.23" y2="1.65" style="fill:#f5ebf4;stroke:#7d3990;stroke-linejoin:bevel"/><line x1="0.68" y1="4.2" x2="9.23" y2="4.2" style="fill:#f5ebf4;stroke:#7d3990;stroke-linejoin:bevel"/><line x1="0.68" y1="6.75" x2="9.23" y2="6.75" style="fill:#f5ebf4;stroke:#7d3990;stroke-linejoin:bevel"/><line x1="0.68" y1="9.31" x2="9.23" y2="9.31" style="fill:#f5ebf4;stroke:#7d3990;stroke-linejoin:bevel"/><line x1="0.68" y1="11.86" x2="9.23" y2="11.86" style="fill:#f5ebf4;stroke:#7d3990;stroke-linejoin:bevel"/><line x1="0.68" y1="14.41" x2="9.23" y2="14.41" style="fill:#f5ebf4;stroke:#7d3990;stroke-linejoin:bevel"/><line x1="0.68" y1="16.97" x2="9.23" y2="16.97" style="fill:#f5ebf4;stroke:#7d3990;stroke-linejoin:bevel"/><line x1="0.68" y1="17.6" x2="9.23" y2="17.6" style="fill:#f5ebf4;stroke:#7d3990;stroke-linejoin:bevel"/></g><path d="M10.78,1.25a8.38,8.38,0,1,0,8.38,8.38A8.38,8.38,0,0,0,10.78,1.25Z" style="fill:#efb032;stroke:#7c3990;stroke-miterlimit:10"/><path d="M10.78,2.72a6.91,6.91,0,1,0,6.91,6.91A6.91,6.91,0,0,0,10.78,2.72Zm0,13.81a6.91,6.91,0,1,0,0-13.81" style="fill:#f2c43c;stroke:#7c3990;stroke-miterlimit:10"/><path d="M10.78,16.53a6.91,6.91,0,1,0,0-13.81h-.21a6.91,6.91,0,0,1,0,13.81" style="fill:#f2cd7b;stroke:#7c3990;stroke-miterlimit:10"/><line x1="10.53" y1="5.11" x2="10.53" y2="6.68" style="fill:none;stroke:#7d3990;stroke-miterlimit:10"/><line x1="10.53" y1="12.23" x2="10.53" y2="13.8" style="fill:none;stroke:#7d3990;stroke-miterlimit:10"/><path d="M7.27,12.23h4.88a1.39,1.39,0,0,0,0-2.77H9.36a1.39,1.39,0,1,1,0-2.78h4.88" style="fill:none;stroke:#7d3990;stroke-miterlimit:10"/></g></svg>