<svg xmlns="http://www.w3.org/2000/svg" width="20.33" height="19.08" viewBox="0 0 20.33 19.08"><defs><clipPath id="a"><path d="M10.78 1.25H9.34a8.38 8.38 0 1 0 0 16.75h1.44" fill="none"/></clipPath></defs><g data-name="ILLO 5"><path d="M10.78 1.25H9.34a8.38 8.38 0 1 0 0 16.75h1.44" fill="#f2cd7b" stroke="#7c3990" stroke-miterlimit="10"/><g clip-path="url(#a)" fill="#f5ebf4" stroke="#7d3990" stroke-linejoin="bevel"><path d="M.68 1.65h8.55M.68 4.2h8.55M.68 6.75h8.55M.68 9.31h8.55M.68 11.86h8.55M.68 14.41h8.55M.68 16.97h8.55m-8.55.63h8.55"/></g><path d="M10.78 1.25a8.38 8.38 0 1 0 8.38 8.38 8.38 8.38 0 0 0-8.38-8.38z" fill="#efb032" stroke="#7c3990" stroke-miterlimit="10"/><path d="M10.78 2.72a6.91 6.91 0 1 0 6.91 6.91 6.91 6.91 0 0 0-6.91-6.91zm0 13.81a6.91 6.91 0 1 0 0-13.81" fill="#f2c43c" stroke="#7c3990" stroke-miterlimit="10"/><path d="M10.78 16.53a6.91 6.91 0 1 0 0-13.81h-.21a6.91 6.91 0 0 1 0 13.81" fill="#f2cd7b" stroke="#7c3990" stroke-miterlimit="10"/><path fill="none" stroke="#7d3990" stroke-miterlimit="10" d="M10.53 5.11v1.57m0 5.55v1.57m-3.26-1.57h4.88a1.39 1.39 0 0 0 0-2.77H9.36a1.39 1.39 0 1 1 0-2.78h4.88"/></g></svg>