<svg xmlns="http://www.w3.org/2000/svg" width="163.64" height="93.56" viewBox="0 0 163.64 93.56"><g data-name="HEADER ILLO"><path d="M149.43 82.45l4.19-.08 2.9-3-.08-4.18-3-2.9-.92 2.33 1.63 1.57v2.26l-1.57 1.63h-2.26z" fill="#c093c3"/><path d="M149.16 82.34l.92-2.34.27-.19h2.13l1.4-1.45v-2l-1.54-1.48-.07-.32.92-2.34.48-.11 3 2.91.09.2.07 4.18-.08.21-2.9 3-.21.09-4.18.08zm7.06-3.1l-.07-3.93-2.61-2.51-.68 1.74 1.48 1.46.09.21v2.26l-.08.21-1.57 1.62-.2.09h-2.06l-.69 1.74 3.62-.06z" fill="#7c3990"/><path d="M14.5 50.94c.35 10.93 7.76 22 15.62 29.29 9.78 9 22.77 9.84 35.48 8.83a58.18 58.18 0 0 0 18.25-4.21c6.89-2.95 12.78-7.73 19.57-10.85 7.19-3.33 16.27-5.19 22.72.56 3.15 2.8 5.56 6.34 8.41 9.43 5.67 6.15 11 6.73 16-.54.45-.67-.63-1.29-1.08-.63-1.84 2.66-4.36 5.84-8 4.9-2.28-.58-4.17-2.61-5.73-4.26-3-3.17-5.47-6.85-8.74-9.79-9.44-8.48-22.58-2.13-31.75 3.45-7.25 4.39-14.34 8.25-22.81 9.81s-18.52 2-27.06.1C36.66 85.11 30 79.37 25 72.26c-4.75-6.58-9-12.94-9.25-21.32 0-.8-1.28-.8-1.25 0z" fill="#7d3990"/><path d="M149.64 80.11h-2.26l-1.57-1.63v-2.26l1.63-1.57-.92-2.33-3 2.9-.08 4.18 2.91 3 4.18.08z" fill="#c093c3"/><path d="M150.55 82.74l-4.18-.08-.21-.09-2.9-3-.08-.21.08-4.18.09-.2 3-2.91.48.11.92 2.34-.07.32-1.54 1.48v2l1.4 1.45h2.13l.27.19.92 2.34zm-4.05-.66l3.62.06-.68-1.74h-2.06l-.21-.09-1.57-1.62-.08-.21v-2.26l.09-.21 1.48-1.43-.68-1.74-2.61 2.51-.07 3.93z" fill="#7c3990"/><path fill="#e6cae2" d="M148.48 79.21h3.05l2.16 2.15v3.05l-2.16 2.16h-3.05l-2.16-2.16v-3.05l2.16-2.15z"/><path d="M146.14 84.49v-3.2L148.4 79h3.21l2.27 2.27v3.2l-2.27 2.27h-3.21zm7.36-.15v-2.9l-2.05-2h-2.89l-2.05 2v2.9l2.05 2h2.89z" fill="#7c3990"/><path fill="#b87bb5" d="M151.53 79.21h-3.05l-2.16 2.15v3.05l2.16 2.16h3.05l-.58-1.4v-4.56l.58-1.4z"/><path fill="#c093c3" d="M149.06 80.61h1.89l1.33 1.34v1.88l-1.33 1.34h-1.89l-1.33-1.34v-1.88l1.33-1.34z"/><path d="M147.54 83.91v-2l1.46-1.49h2l1.44 1.45v2L151 85.35h-2zm4.55-.16V82l-1.22-1.22h-1.73L147.92 82v1.73l1.22 1.27h1.73z" fill="#7c3990"/><path fill="#7c3990" d="M150.768 80.542l.582-1.404.35.145-.581 1.405zm-2.466-1.265l.351-.146.582 1.404-.35.146zm-2.048 2.259l.146-.351 1.404.582-.146.35zm0 2.7l1.405-.582.145.351-1.404.582zm2.055 2.259l.582-1.404.35.145-.581 1.404zm1.649-1.153l.35-.144.577 1.398-.35.145zm2.26-1.337l.145-.35 1.404.581-.145.351zm.002-2.232l1.404-.582.145.351-1.404.582z"/><path d="M146.14 84.49v-3.2L148.4 79h3.21l2.27 2.27v3.2l-2.27 2.27h-3.21zm7.36-.15v-2.9l-2.05-2h-2.89l-2.05 2v2.9l2.05 2h2.89z" fill="#7c3990"/><path fill="#fde9f1" d="M19.76 16.92v9.14h-1.92v-8.35l1.92-.79zm-4.35-2.12v-2.7l4.08 4.07-1.92.79-2.16-2.16z"/><path fill="#ee2a7b" d="M12.18 17.65v8.41h-1.92v-9.2l1.92.79zm.31-.74l-1.92-.79 4.04-4.02v2.7l-2.12 2.11z"/><path fill="#ebb8d5" d="M15.01 15.53l2.03 2.02v8.51h-4.06v-8.51l2.03-2.02z"/><path fill="#a02373" d="M19.76 16.92l.64-.26-.31-.74-.6.25-4.08-4.07v-.96h-.8v.96l-4.04 4.02-.5-.2-.3.74.49.2v9.2h-.8V16.1l5.55-5.52 5.55 5.52v9.96h-.8v-9.14z"/><path fill="#a02373" d="M15.01 14.41l-.4.39v-3.66h.8v3.66l-.4-.39zm-2.83 2.81v.43l-1.92-.79-.49-.2.3-.74.5.2 1.92.79-.31.31zm5.66 0l-.27-.26 1.92-.79.6-.25.31.74-.64.26-1.92.79v-.49z"/><path fill="#a02373" d="M12.18 17.22l.31-.31 2.12-2.11.4-.39.4.39 2.16 2.16.27.26v8.84h-.8v-8.51l-2.03-2.02-2.03 2.02v8.51h-.8v-8.84z"/><path fill="none" stroke="#7c3990" stroke-miterlimit="10" d="M9.48 8.22h11.06l7.82 7.82V31.5l-7.82 7.82H9.48L1.66 31.5V16.04l7.82-7.82z"/><path fill="#bd92c2" stroke="#7d3990" stroke-miterlimit="10" d="M28.36 23.22v12.76L15.01 49.26 1.66 35.98V23.22"/><path fill="#f5ebf4" stroke="#7d3990" stroke-linejoin="bevel" d="M28.36 23.22v12.76L15.01 49.26l-.02-13.28V23.22"/><path fill="#e6cbe2" stroke="#7d3990" stroke-miterlimit="10" d="M9.44 23.22v9.46l5.57 5.54 5.57-5.55v-9.45"/><path fill="none" stroke="#7d3990" stroke-miterlimit="10" d="M9.44 32.68l-7.78 3.3m13.35 2.24v11.04m5.57-16.59l7.77 3.31"/><path fill="none" stroke="#7d3990" stroke-linecap="square" stroke-linejoin="bevel" d="M28.35 23.22H1.66"/><path fill="#da1c5c" stroke="#7c3990" stroke-miterlimit="10" d="M17.44 50.71h-4.86v-3.89h4.86z"/><path fill="#e6cbe2" stroke="#7c3990" stroke-miterlimit="10" d="M17.44 50.71h-2.43v-3.89h2.43z"/><path fill="none" stroke="#7c3990" stroke-miterlimit="10" d="M15.2 1.91v4.94"/><path fill="#da1c5c" stroke="#7c3990" stroke-miterlimit="10" d="M16.45 8.19h-2.48V5.08h2.48zm0-5.04h-2.48V1.19h2.48z"/><path fill="#ebb8d5" d="M150.03 21.09l4.95 4.92v34.82l-4.95 4.92-4.91-4.89V25.98l4.91-4.89z"/><path fill="#ee2a7b" d="M150.03 12.16v8.93l-4.91 4.89v34.88l4.91 4.89v8.93l-11.2-11.14V23.3l11.2-11.14z"/><path fill="#fde9f1" d="M150.03 12.16l11.21 11.14v40.24l-11.21 11.14v-8.93l4.95-4.92V26.01l-4.95-4.92v-8.93z"/><path fill="none" stroke="#a02373" stroke-miterlimit="10" d="M161.24 23.3l-11.21-11.14-11.2 11.14v40.24l11.2 11.14 11.21-11.14V23.3z"/><path fill="none" stroke="#a02373" stroke-miterlimit="10" d="M154.98 26.01l-4.95-4.92-4.91 4.89v34.88l4.91 4.89 4.95-4.92V26.01zm0 0l6.26-2.71m-11.2-11.14v8.93m-4.92 4.89l-6.29-2.68m6.29 37.56l-6.29 2.68m11.21 2.21v8.93m11.2-11.14l-6.26-2.71"/></g></svg>