<svg xmlns="http://www.w3.org/2000/svg" xmlns:xlink="http://www.w3.org/1999/xlink" width="20.17" height="18.83" viewBox="0 0 20.17 18.83"><defs><clipPath id="clip-path"><path d="M10.72,1H9.28a8.38,8.38,0,0,0,0,16.75h1.44" style="fill:none"/></clipPath></defs><title>Artboard 41</title><g id="ILLO_5" data-name="ILLO 5"><path d="M10.72,1H9.28a8.38,8.38,0,0,0,0,16.75h1.44" style="fill:#cbccce;stroke:#7c3990;stroke-miterlimit:10"/><g style="clip-path:url(#clip-path)"><line x1="0.62" y1="1.4" x2="9.17" y2="1.4" style="fill:#f5ebf4;stroke:#7d3990;stroke-linejoin:bevel"/><line x1="0.62" y1="3.95" x2="9.17" y2="3.95" style="fill:#f5ebf4;stroke:#7d3990;stroke-linejoin:bevel"/><line x1="0.62" y1="6.5" x2="9.17" y2="6.5" style="fill:#f5ebf4;stroke:#7d3990;stroke-linejoin:bevel"/><line x1="0.62" y1="9.06" x2="9.17" y2="9.06" style="fill:#f5ebf4;stroke:#7d3990;stroke-linejoin:bevel"/><line x1="0.62" y1="11.61" x2="9.17" y2="11.61" style="fill:#f5ebf4;stroke:#7d3990;stroke-linejoin:bevel"/><line x1="0.62" y1="14.16" x2="9.17" y2="14.16" style="fill:#f5ebf4;stroke:#7d3990;stroke-linejoin:bevel"/><line x1="0.62" y1="16.72" x2="9.17" y2="16.72" style="fill:#f5ebf4;stroke:#7d3990;stroke-linejoin:bevel"/><line x1="0.62" y1="17.35" x2="9.17" y2="17.35" style="fill:#f5ebf4;stroke:#7d3990;stroke-linejoin:bevel"/></g><path d="M10.72,1A8.38,8.38,0,1,0,19.1,9.38,8.38,8.38,0,0,0,10.72,1Z" style="fill:#808285;stroke:#7c3990;stroke-miterlimit:10"/><path d="M10.72,2.47a6.91,6.91,0,1,0,6.91,6.91A6.9,6.9,0,0,0,10.72,2.47Zm0,13.81a6.91,6.91,0,1,0,0-13.81" style="fill:#b3b5b8;stroke:#7c3990;stroke-miterlimit:10"/><path d="M10.72,16.28a6.91,6.91,0,1,0,0-13.81h-.21a6.91,6.91,0,0,1,0,13.81" style="fill:#f2cd7b;stroke:#7c3990;stroke-miterlimit:10"/><line x1="10.72" y1="4.86" x2="10.72" y2="6.43" style="fill:none;stroke:#7d3990;stroke-miterlimit:10"/><line x1="10.72" y1="11.98" x2="10.72" y2="13.55" style="fill:none;stroke:#7d3990;stroke-miterlimit:10"/><path d="M13.55,12h-4a2.78,2.78,0,0,1,0-5.55h4" style="fill:none;stroke:#7d3990;stroke-miterlimit:10"/></g></svg>