<svg data-name="BOTTOM ILLOS" xmlns="http://www.w3.org/2000/svg" width="67.26" height="173.33" viewBox="0 0 67.26 173.33"><path fill="#fde9f1" d="M27.81 102.22v13.25h2.79v-12.1l-2.79-1.15zm6.31-3.06v-3.91l-5.92 5.88 2.78 1.15 3.14-3.12z"/><path fill="#ee2a7b" d="M38.79 103.28v12.19h2.78v-13.33l-2.78 1.14zm-.45-1.06l2.79-1.15-5.86-5.82v3.91l3.07 3.06z"/><path fill="#ebb8d5" d="M34.69 100.22l-2.94 2.92v12.33h5.88v-12.33l-2.94-2.92z"/><path fill="#a02373" d="M27.81 102.22l-.92-.38.44-1.06.87.35 5.92-5.88v-1.39h1.15v1.39l5.86 5.82.71-.29.44 1.06-.71.3v13.33h1.16v-14.43l-8.04-8-8.03 8v14.43h1.15v-13.25z"/><path fill="#a02373" d="M34.69 98.59l.58.57v-5.3h-1.15v5.3l.57-.57zm4.1 4.07v.62l2.78-1.14.71-.3-.44-1.06-.71.29-2.79 1.15.45.44zm-8.19 0l.38-.38-2.78-1.15-.87-.35-.44 1.06.92.38 2.79 1.15v-.71z"/><path fill="#a02373" d="M38.79 102.66l-.45-.44-3.07-3.06-.58-.57-.57.57-3.14 3.12-.38.38v12.81h1.15v-12.33l2.94-2.92 2.94 2.92v12.33h1.16v-12.81z"/><path fill="#da1c5c" stroke="#7c3990" stroke-miterlimit="10" d="M34.69 3.07L6.77 30.84v31.25l27.92 27.77L62.6 62.09V30.84L34.69 3.07z"/><path fill="#f6ebf4" stroke="#7d3990" stroke-miterlimit="10" d="M34.69 3.07L6.77 30.84v31.25l27.92 27.77"/><path fill="none" stroke="#7d3990" stroke-miterlimit="10" d="M46.34 55.18l16.26 6.91m-27.91 4.68v23.09M23.03 55.18L6.77 62.09m39.57-24.35l16.26-6.9m-27.91-4.68V3.07M23.03 37.75L6.77 30.84"/><path fill="#e6cbe2" stroke="#7d3990" stroke-miterlimit="10" d="M34.69 26.16L23.03 37.75v17.43l11.66 11.59 11.65-11.58V37.74L34.69 26.16z"/><path fill="#bd92c2" stroke="#7d3990" stroke-miterlimit="10" d="M23.03 108.86V120l11.66 11.6L46.34 120v-11.14"/><path fill="#f5ebf4" stroke="#7d3990" stroke-linejoin="bevel" d="M23.03 108.86V120l11.66 11.6.01-11.6v-11.14"/><path fill="#e6cbe2" stroke="#7d3990" stroke-miterlimit="10" d="M39.55 108.86v8.26l-4.86 4.84-4.87-4.84v-8.26"/><path fill="none" stroke="#7d3990" stroke-miterlimit="10" d="M39.55 117.12l6.79 2.89m-11.65 1.95v9.64m-4.87-14.48l-6.79 2.89"/><path fill="none" stroke="#7d3990" stroke-linecap="square" stroke-linejoin="bevel" d="M23.03 108.86h23.31"/><path fill="none" stroke="#7d3990" stroke-miterlimit="10" d="M27.32 108.86l-.15-26.43m14.88 26.43l.26-26.53m4.03 26.53l5.6-36.17m-28.91 36.17l-5.6-36.17"/><path fill="#da1c5c" stroke="#7c3990" stroke-miterlimit="10" d="M34.69 3.07L6.77 30.84v31.25l27.92 27.77L62.6 62.09V30.84L34.69 3.07z"/><path fill="#f6ebf4" stroke="#7d3990" stroke-miterlimit="10" d="M34.69 3.07L6.77 30.84v31.25l27.92 27.77"/><path fill="none" stroke="#7d3990" stroke-miterlimit="10" d="M46.34 55.18l16.26 6.91m-27.91 4.68v23.09M23.03 55.18L6.77 62.09m39.57-24.35l16.26-6.9m-27.91-4.68V3.07M23.03 37.75L6.77 30.84"/><path fill="#e6cbe2" stroke="#7d3990" stroke-miterlimit="10" d="M34.69 26.16L23.03 37.75v17.43l11.66 11.59 11.65-11.58V37.74L34.69 26.16z"/><path d="M40.14 126.78l-.87.48 21 38 .87-.48zm-31.87 38l.87.48 21-38-.87-.48z" fill="#7d3990" fill-rule="evenodd"/></svg>