<svg xmlns="http://www.w3.org/2000/svg" width="1396" height="854" viewBox="0 0 1396 854"><path d="M601.33 724.06a19 19 0 0 0-13.43 5.54 6 6 0 0 1-9.26-.93 26.16 26.16 0 0 0-44.64 1.77 5.81 5.81 0 0 1-7.87 2.12 11.95 11.95 0 0 0-15.87 4.55 4 4 0 0 0 3.5 6h101.57a4.4 4.4 0 0 0 4.2-5.7 19.06 19.06 0 0 0-18.2-13.35zm438.56-402.93a8.42 8.42 0 0 0-5.94 2.44 2.65 2.65 0 0 1-4.09-.41 11.56 11.56 0 0 0-19.74.78 2.56 2.56 0 0 1-3.48.94 5.3 5.3 0 0 0-7 2 1.78 1.78 0 0 0 1.55 2.65h44.91a1.94 1.94 0 0 0 1.85-2.51 8.42 8.42 0 0 0-8.06-5.89zM155.15 728a21.89 21.89 0 0 0-13.52 4.42c-2.68 2.13-7.14 1.78-9.23-.73-4.69-5.61-12.72-9.31-21.86-9.31-21.41 0-31.95 20.73-24.44 20.73h80.74c4.37 0 7.39-3.63 5.44-6.72-3.13-4.96-9.62-8.39-17.13-8.39zm-91.3-83.12A15.92 15.92 0 0 0 54 648.1a5.11 5.11 0 0 1-6.73-.53c-3.41-4.09-9.26-6.78-15.92-6.78-15.59 0-23.27 15.09-17.79 15.09h58.8c3.18 0 5.38-2.64 4-4.89-2.31-3.62-7.04-6.11-12.51-6.11zM261.19 307a15.93 15.93 0 0 0-9.85 3.22 5.09 5.09 0 0 1-6.72-.53c-3.41-4.08-9.27-6.78-15.92-6.78-15.59 0-23.27 15.09-17.8 15.09h58.8c3.19 0 5.38-2.64 4-4.89-2.31-3.63-7.05-6.11-12.51-6.11zm-47.92 299.3a10.38 10.38 0 0 0-9.7 6.66 2.75 2.75 0 0 0 2.58 3.73h14.24A2.75 2.75 0 0 0 223 613a10.38 10.38 0 0 0-9.73-6.7zM110.29 475.11a18.67 18.67 0 0 0-17.79 13 4.31 4.31 0 0 0 4.08 5.62H124a4.3 4.3 0 0 0 4.08-5.62 18.65 18.65 0 0 0-17.79-13zm237.16 40.35a18.67 18.67 0 0 0-17.79 13 4.31 4.31 0 0 0 4.08 5.62h27.42a4.3 4.3 0 0 0 4.08-5.62 18.65 18.65 0 0 0-17.79-13zm207.13-297.93a18.65 18.65 0 0 0-17.79 13 4.3 4.3 0 0 0 4.08 5.62h27.42a4.31 4.31 0 0 0 4.08-5.62 18.67 18.67 0 0 0-17.79-13zM395.15 577.35a10.38 10.38 0 0 0-9.7 6.66 2.76 2.76 0 0 0 2.58 3.74h14.24a2.76 2.76 0 0 0 2.58-3.74 10.38 10.38 0 0 0-9.7-6.66zm-84.66-52.56a10.39 10.39 0 0 0-9.71 6.66 2.76 2.76 0 0 0 2.59 3.73h14.24a2.75 2.75 0 0 0 2.58-3.73 10.39 10.39 0 0 0-9.7-6.66zm273.3-82.13A14.5 14.5 0 0 0 570 452.79a3.35 3.35 0 0 0 3.17 4.37h21.31a3.34 3.34 0 0 0 3.17-4.37 14.5 14.5 0 0 0-13.86-10.13zm-28.73 7.25a8.1 8.1 0 0 0-7.55 5.18 2.15 2.15 0 0 0 2 2.9h11.06a2.14 2.14 0 0 0 2-2.9 8.08 8.08 0 0 0-7.51-5.18zM251.8 822.17a10.55 10.55 0 0 0-10.06 7.37 2.43 2.43 0 0 0 2.31 3.18h15.5a2.43 2.43 0 0 0 2.31-3.18 10.55 10.55 0 0 0-10.06-7.37zm-20.9 5.27a5.89 5.89 0 0 0-5.49 3.77 1.56 1.56 0 0 0 1.46 2.11h8a1.55 1.55 0 0 0 1.46-2.11 5.87 5.87 0 0 0-5.43-3.77zm217.58-10.09a10.39 10.39 0 0 0-9.7 6.66 2.77 2.77 0 0 0 2.59 3.74h14.23a2.77 2.77 0 0 0 2.59-3.74 10.39 10.39 0 0 0-9.71-6.66zm427.73-702.66a10.41 10.41 0 0 0-9.71 6.66 2.77 2.77 0 0 0 2.59 3.74h14.24a2.76 2.76 0 0 0 2.58-3.74 10.39 10.39 0 0 0-9.7-6.66zm428.45 609.37a19 19 0 0 0-13.43 5.54 6 6 0 0 1-9.27-.93 26.15 26.15 0 0 0-44.65 1.77 5.81 5.81 0 0 1-7.87 2.12 12 12 0 0 0-15.88 4.55 4 4 0 0 0 3.51 6h101.58a4.4 4.4 0 0 0 4.2-5.7 19.06 19.06 0 0 0-18.19-13.35zm-146.55-70.82a8.4 8.4 0 0 0-5.94 2.44 2.65 2.65 0 0 1-4.09-.41 11.57 11.57 0 0 0-19.75.78 2.56 2.56 0 0 1-3.47.94 5.36 5.36 0 0 0-2.46-.6 5.27 5.27 0 0 0-4.56 2.62 1.77 1.77 0 0 0 1.55 2.65h44.9a1.94 1.94 0 0 0 1.86-2.51 8.42 8.42 0 0 0-8.04-5.91zM858.47 728a21.88 21.88 0 0 0-13.47 4.44c-2.69 2.13-7.14 1.78-9.24-.73-4.76-5.61-12.76-9.31-21.9-9.31-21.4 0-31.94 20.73-24.43 20.73h80.74c4.37 0 7.38-3.63 5.44-6.72-3.13-4.98-9.61-8.41-17.14-8.41zm-91.29-83.12a15.93 15.93 0 0 0-9.85 3.22 5.1 5.1 0 0 1-6.72-.53c-3.42-4.09-9.27-6.78-15.93-6.78-15.59 0-23.26 15.09-17.79 15.09h58.8c3.19 0 5.38-2.64 4-4.89-2.32-3.62-7.05-6.11-12.51-6.11zm607.92-116a15.92 15.92 0 0 0-9.84 3.22 5.11 5.11 0 0 1-6.73-.53c-3.41-4.09-9.26-6.78-15.92-6.78-15.59 0-23.27 15.09-17.8 15.09h58.81c3.18 0 5.38-2.64 4-4.89-2.32-3.62-7.05-6.11-12.52-6.11zM916.59 606.3a10.39 10.39 0 0 0-9.7 6.66 2.76 2.76 0 0 0 2.59 3.73h14.23a2.76 2.76 0 0 0 2.59-3.69 10.39 10.39 0 0 0-9.71-6.7zM813.62 475.11a18.66 18.66 0 0 0-17.79 13 4.3 4.3 0 0 0 4.08 5.62h27.42a4.31 4.31 0 0 0 4.08-5.62 18.67 18.67 0 0 0-17.79-13zm237.16 40.35a18.66 18.66 0 0 0-17.79 13 4.3 4.3 0 0 0 4.08 5.62h27.42a4.31 4.31 0 0 0 4.08-5.62 18.67 18.67 0 0 0-17.79-13zM1266 484.44a18.66 18.66 0 0 0-17.79 13 4.3 4.3 0 0 0 4.08 5.62h27.42a4.31 4.31 0 0 0 4.08-5.62 18.67 18.67 0 0 0-17.79-13zM544.69 329.55a10.41 10.41 0 0 0-9.71 6.66 2.77 2.77 0 0 0 2.59 3.74h14.24a2.76 2.76 0 0 0 2.58-3.74 10.41 10.41 0 0 0-9.7-6.66zm469.12 195.24a10.39 10.39 0 0 0-9.7 6.66 2.76 2.76 0 0 0 2.59 3.73h14.23a2.76 2.76 0 0 0 2.59-3.73 10.39 10.39 0 0 0-9.71-6.66zm9.89 248.32a10.55 10.55 0 0 0-10.06 7.37 2.44 2.44 0 0 0 2.31 3.18h15.51a2.43 2.43 0 0 0 2.3-3.18 10.55 10.55 0 0 0-10.06-7.37zm-89.48 54.33a5.9 5.9 0 0 0-5.49 3.77 1.56 1.56 0 0 0 1.46 2.11h8.06a1.56 1.56 0 0 0 1.46-2.11 5.9 5.9 0 0 0-5.49-3.77zm217.59-10.09a10.39 10.39 0 0 0-9.71 6.66 2.77 2.77 0 0 0 2.59 3.74h14.24a2.76 2.76 0 0 0 2.58-3.74 10.39 10.39 0 0 0-9.7-6.66zM132.06 142.32a10.54 10.54 0 0 0-10.06 7.37 2.43 2.43 0 0 0 2.31 3.17h15.5a2.43 2.43 0 0 0 2.31-3.17 10.54 10.54 0 0 0-10.06-7.37zM163 242.82a10.4 10.4 0 0 0-9.71 6.67 2.76 2.76 0 0 0 2.59 3.73h14.23a2.76 2.76 0 0 0 2.59-3.73 10.4 10.4 0 0 0-9.7-6.67zm-7.85 161.07a21.89 21.89 0 0 0-13.52 4.42c-2.68 2.13-7.14 1.78-9.23-.73-4.69-5.61-12.72-9.31-21.86-9.31-21.41 0-31.95 20.73-24.44 20.73h80.74c4.37 0 7.39-3.63 5.44-6.72-3.13-4.98-9.62-8.39-17.13-8.39zM83.27 206.31a21.89 21.89 0 0 0-13.52 4.42c-2.69 2.13-7.14 1.78-9.24-.73-4.68-5.61-12.71-9.31-21.86-9.31-21.4 0-31.94 20.73-24.43 20.73H95c4.37 0 7.38-3.63 5.44-6.72-3.17-4.97-9.67-8.39-17.17-8.39zm264.18-14.98a18.67 18.67 0 0 0-17.79 13 4.31 4.31 0 0 0 4.08 5.62h27.42a4.3 4.3 0 0 0 4.08-5.62 18.65 18.65 0 0 0-17.79-13zm47.7 61.89a10.38 10.38 0 0 0-9.7 6.66 2.76 2.76 0 0 0 2.58 3.74h14.24a2.76 2.76 0 0 0 2.58-3.74 10.38 10.38 0 0 0-9.7-6.66zm463.32 150.67a21.88 21.88 0 0 0-13.47 4.42c-2.69 2.13-7.14 1.78-9.24-.73-4.76-5.58-12.76-9.31-21.9-9.31-21.4 0-31.94 20.73-24.43 20.73h80.74c4.37 0 7.38-3.63 5.44-6.72-3.13-4.98-9.61-8.39-17.14-8.39zm476.02-134.63a21.89 21.89 0 0 0-13.52 4.43c-2.68 2.12-7.14 1.77-9.23-.73-4.69-5.61-12.72-9.31-21.86-9.31-21.41 0-32 20.72-24.44 20.72h80.74c4.37 0 7.39-3.62 5.44-6.71-3.13-4.98-9.62-8.4-17.13-8.4zM1294.9 33.4a21.89 21.89 0 0 0-13.52 4.43c-2.68 2.12-7.14 1.77-9.23-.73-4.69-5.61-12.72-9.31-21.86-9.31-21.41 0-32 20.72-24.43 20.72h80.73c4.38 0 7.39-3.62 5.44-6.71-3.13-4.98-9.62-8.4-17.13-8.4zM511 81.4a21.8 21.8 0 0 0-13.51 4.43c-2.69 2.12-7.14 1.77-9.24-.74-4.68-5.6-12.72-9.3-21.86-9.3-21.39 0-31.91 20.72-24.39 20.72h80.74c4.37 0 7.38-3.62 5.43-6.72-3.12-4.97-9.62-8.39-17.17-8.39zm539.78 109.93a18.66 18.66 0 0 0-17.79 13 4.3 4.3 0 0 0 4.08 5.62h27.42a4.31 4.31 0 0 0 4.08-5.62 18.67 18.67 0 0 0-17.79-13zM1266 160.31a18.66 18.66 0 0 0-17.79 13 4.3 4.3 0 0 0 4.08 5.62h27.42a4.31 4.31 0 0 0 4.08-5.62 18.67 18.67 0 0 0-17.79-13zm-252.19 40.35a10.39 10.39 0 0 0-9.7 6.66 2.76 2.76 0 0 0 2.59 3.73h14.23a2.76 2.76 0 0 0 2.59-3.73 10.39 10.39 0 0 0-9.71-6.66zm-79.59 302.65a5.9 5.9 0 0 0-5.49 3.77 1.56 1.56 0 0 0 1.46 2.11h8.06a1.56 1.56 0 0 0 1.46-2.11 5.9 5.9 0 0 0-5.49-3.77zM715.13 263.62a10.39 10.39 0 0 0-9.7 6.66A2.75 2.75 0 0 0 708 274h14.24a2.76 2.76 0 0 0 2.59-3.73 10.39 10.39 0 0 0-9.7-6.65z" data-name="Layer 2" fill="#e0f2f4"/></svg>