<svg data-name="Layer 1" xmlns="http://www.w3.org/2000/svg" width="1400" height="929" viewBox="0 0 1400 929"><path d="M606.64 706a19 19 0 0 0-13.43 5.53 6 6 0 0 1-9.26-.93 26.16 26.16 0 0 0-44.66 1.77 5.8 5.8 0 0 1-7.87 2.13 11.92 11.92 0 0 0-15.87 4.5 4 4 0 0 0 3.5 6h101.59a4.4 4.4 0 0 0 4.2-5.69 19.08 19.08 0 0 0-18.2-13.31zm438.56-402.95a8.41 8.41 0 0 0-5.94 2.45 2.66 2.66 0 0 1-4.09-.41 11.56 11.56 0 0 0-19.74.78 2.57 2.57 0 0 1-3.48.94 5.27 5.27 0 0 0-7 2 1.78 1.78 0 0 0 1.55 2.66h44.9a2 2 0 0 0 1.86-2.52 8.44 8.44 0 0 0-8.06-5.9zM160.46 709.94a21.83 21.83 0 0 0-13.52 4.43c-2.69 2.12-7.14 1.77-9.23-.74-4.69-5.6-12.72-9.3-21.87-9.3-21.4 0-31.94 20.72-24.43 20.72h80.74c4.37 0 7.38-3.62 5.44-6.72-3.13-4.97-9.59-8.39-17.13-8.39zm-91.3-83.14a15.94 15.94 0 0 0-9.85 3.2 5.1 5.1 0 0 1-6.72-.54c-3.41-4.08-9.27-6.78-15.92-6.78-15.59 0-23.27 15.1-17.8 15.1h58.81c3.18 0 5.37-2.64 4-4.89-2.32-3.6-7.05-6.09-12.52-6.09zM266.5 288.92a15.93 15.93 0 0 0-9.85 3.22 5.1 5.1 0 0 1-6.73-.54c-3.41-4.08-9.26-6.77-15.92-6.77-15.59 0-23.26 15.09-17.79 15.09H275c3.18 0 5.38-2.64 4-4.89-2.31-3.63-7-6.11-12.5-6.11zm-47.92 299.3a10.41 10.41 0 0 0-9.71 6.66 2.77 2.77 0 0 0 2.59 3.74h14.24a2.76 2.76 0 0 0 2.58-3.74 10.41 10.41 0 0 0-9.7-6.66zM115.6 457a18.66 18.66 0 0 0-17.79 13 4.3 4.3 0 0 0 4.08 5.62h27.42a4.3 4.3 0 0 0 4.08-5.62 18.66 18.66 0 0 0-17.79-13zm237.16 40.39a18.67 18.67 0 0 0-17.79 13 4.3 4.3 0 0 0 4.08 5.62h27.42a4.3 4.3 0 0 0 4.08-5.62 18.66 18.66 0 0 0-17.79-13zm207.12-297.93a18.64 18.64 0 0 0-17.78 13 4.3 4.3 0 0 0 4.08 5.62h27.41a4.3 4.3 0 0 0 4.08-5.62 18.64 18.64 0 0 0-17.79-13zM400.46 559.28a10.39 10.39 0 0 0-9.71 6.66 2.76 2.76 0 0 0 2.59 3.73h14.24a2.76 2.76 0 0 0 2.58-3.73 10.39 10.39 0 0 0-9.7-6.66zm-84.66-52.57a10.4 10.4 0 0 0-9.71 6.67 2.76 2.76 0 0 0 2.59 3.73h14.23a2.76 2.76 0 0 0 2.59-3.73 10.4 10.4 0 0 0-9.7-6.67zm273.29-82.12a14.5 14.5 0 0 0-13.82 10.13 3.33 3.33 0 0 0 3.17 4.36h21.31a3.34 3.34 0 0 0 3.17-4.36 14.5 14.5 0 0 0-13.83-10.13zm-28.73 7.25a8.1 8.1 0 0 0-7.54 5.17 2.15 2.15 0 0 0 2 2.91h11.08a2.15 2.15 0 0 0 2-2.91 8.1 8.1 0 0 0-7.54-5.17zM257.11 804.09a10.55 10.55 0 0 0-10.06 7.37 2.43 2.43 0 0 0 2.3 3.18h15.51a2.43 2.43 0 0 0 2.31-3.18 10.55 10.55 0 0 0-10.06-7.37zm-20.91 5.28a5.88 5.88 0 0 0-5.49 3.77 1.57 1.57 0 0 0 1.47 2.11h8a1.56 1.56 0 0 0 1.46-2.11 5.87 5.87 0 0 0-5.44-3.77zm217.59-10.09a10.39 10.39 0 0 0-9.7 6.66 2.75 2.75 0 0 0 2.58 3.73h14.24a2.76 2.76 0 0 0 2.59-3.73 10.39 10.39 0 0 0-9.71-6.66zM881.52 96.61a10.4 10.4 0 0 0-9.71 6.67 2.76 2.76 0 0 0 2.59 3.72h14.23a2.76 2.76 0 0 0 2.59-3.73 10.4 10.4 0 0 0-9.7-6.66zM90.05 914.32a19.28 19.28 0 0 1 13.62 5.61 6.09 6.09 0 0 0 9.39-.94 26.53 26.53 0 0 1 45.3 1.8 5.9 5.9 0 0 0 8 2.15 12.12 12.12 0 0 1 16.1 4.62 4.08 4.08 0 0 1-3.55 6.1h-103a4.46 4.46 0 0 1-4.26-5.78 19.33 19.33 0 0 1 18.4-13.56zm436.58 0a19.28 19.28 0 0 0-13.63 5.61 6.1 6.1 0 0 1-9.4-.94 26.53 26.53 0 0 0-45.3 1.8 5.89 5.89 0 0 1-8 2.15 12.12 12.12 0 0 0-16.1 4.62 4.08 4.08 0 0 0 3.55 6.1h103.08a4.46 4.46 0 0 0 4.26-5.78 19.33 19.33 0 0 0-18.46-13.56zm-140.1-9.5a7 7 0 0 0-4.95 2 2.21 2.21 0 0 1-3.41-.34 9.64 9.64 0 0 0-16.46.65 2.15 2.15 0 0 1-2.9.79 4.3 4.3 0 0 0-2.05-.51 4.4 4.4 0 0 0-3.8 2.18 1.49 1.49 0 0 0 1.29 2.22h37.44a1.62 1.62 0 0 0 1.55-2.1 7 7 0 0 0-6.71-4.89zM233 911.86a4.77 4.77 0 0 1 4.46 3.06 1.27 1.27 0 0 1-1.18 1.72h-6.55a1.27 1.27 0 0 1-1.19-1.72 4.78 4.78 0 0 1 4.46-3.06zm16-3.8a8.59 8.59 0 0 1 8.18 6 2 2 0 0 1-1.88 2.59h-12.66a2 2 0 0 1-1.87-2.59 8.57 8.57 0 0 1 8.23-6zm52.36 1.84a4.78 4.78 0 0 0-4.46 3.1 1.27 1.27 0 0 0 1.19 1.72h6.54a1.27 1.27 0 0 0 1.19-1.72 4.77 4.77 0 0 0-4.46-3.1zm308.25-8.48a16 16 0 0 0-15.25 11.18 3.68 3.68 0 0 0 3.5 4.81h23.5a3.68 3.68 0 0 0 3.5-4.81 16 16 0 0 0-15.25-11.18zM1310 706a19 19 0 0 0-13.42 5.53 6 6 0 0 1-9.27-.93 26.16 26.16 0 0 0-44.66 1.77 5.79 5.79 0 0 1-7.86 2.13 11.83 11.83 0 0 0-5.56-1.38 12 12 0 0 0-10.32 5.93 4 4 0 0 0 3.5 6H1324a4.39 4.39 0 0 0 4.2-5.69A19.06 19.06 0 0 0 1310 706zm-146.59-70.84a8.36 8.36 0 0 0-5.93 2.45 2.67 2.67 0 0 1-4.1-.41 11.56 11.56 0 0 0-19.74.78 2.56 2.56 0 0 1-3.48.94 5.17 5.17 0 0 0-2.45-.61 5.26 5.26 0 0 0-4.56 2.62 1.78 1.78 0 0 0 1.55 2.66h44.9a2 2 0 0 0 1.86-2.52 8.44 8.44 0 0 0-8.05-5.91zm-299.63 74.78a21.83 21.83 0 0 0-13.52 4.43c-2.68 2.12-7.14 1.77-9.23-.74-4.68-5.6-12.72-9.3-21.86-9.3-21.41 0-31.95 20.72-24.43 20.72h80.74c4.37 0 7.38-3.62 5.43-6.72-3.13-4.97-9.62-8.39-17.13-8.39zm-91.3-83.14a15.93 15.93 0 0 0-9.84 3.23 5.11 5.11 0 0 1-6.73-.54c-3.41-4.08-9.26-6.78-15.92-6.78-15.59 0-23.27 15.1-17.79 15.1H781c3.18 0 5.38-2.64 4-4.89-2.32-3.63-7-6.12-12.52-6.12zm607.93-116a15.94 15.94 0 0 0-9.85 3.23 5.1 5.1 0 0 1-6.72-.54c-3.41-4.08-9.27-6.78-15.92-6.78-15.59 0-23.27 15.1-17.8 15.1h58.8c3.19 0 5.38-2.64 4-4.89-2.31-3.63-7.04-6.12-12.51-6.12zM921.9 588.22a10.41 10.41 0 0 0-9.7 6.66 2.76 2.76 0 0 0 2.58 3.74H929a2.77 2.77 0 0 0 2.59-3.74 10.41 10.41 0 0 0-9.69-6.66zM818.92 457a18.65 18.65 0 0 0-17.78 13 4.3 4.3 0 0 0 4.08 5.62h27.41a4.3 4.3 0 0 0 4.08-5.62 18.65 18.65 0 0 0-17.79-13zm237.17 40.39a18.65 18.65 0 0 0-17.79 13 4.3 4.3 0 0 0 4.08 5.62h27.41a4.31 4.31 0 0 0 4.09-5.62 18.67 18.67 0 0 0-17.79-13zm215.23-31.03a18.65 18.65 0 0 0-17.79 13 4.3 4.3 0 0 0 4.08 5.62H1285a4.3 4.3 0 0 0 4.08-5.62 18.65 18.65 0 0 0-17.76-13zM550 311.48a10.39 10.39 0 0 0-9.71 6.66 2.76 2.76 0 0 0 2.59 3.73h14.23a2.76 2.76 0 0 0 2.59-3.73 10.39 10.39 0 0 0-9.7-6.66zm469.12 195.23a10.4 10.4 0 0 0-9.7 6.67 2.76 2.76 0 0 0 2.58 3.73h14.24a2.76 2.76 0 0 0 2.59-3.73 10.4 10.4 0 0 0-9.71-6.67zM1029 755a10.55 10.55 0 0 0-10 7.4 2.43 2.43 0 0 0 2.31 3.18h15.5a2.43 2.43 0 0 0 2.31-3.18A10.55 10.55 0 0 0 1029 755zm-89.47 54.37a5.87 5.87 0 0 0-5.49 3.77 1.56 1.56 0 0 0 1.46 2.11h8a1.57 1.57 0 0 0 1.47-2.11 5.88 5.88 0 0 0-5.44-3.77zm217.59-10.09a10.39 10.39 0 0 0-9.71 6.66 2.76 2.76 0 0 0 2.59 3.73h14.23a2.76 2.76 0 0 0 2.59-3.73 10.39 10.39 0 0 0-9.7-6.66zM137.37 124.24a10.55 10.55 0 0 0-10.06 7.37 2.43 2.43 0 0 0 2.3 3.18h15.51a2.44 2.44 0 0 0 2.31-3.18 10.56 10.56 0 0 0-10.06-7.37zm30.93 100.51a10.39 10.39 0 0 0-9.7 6.66 2.76 2.76 0 0 0 2.59 3.73h14.23a2.76 2.76 0 0 0 2.59-3.73 10.39 10.39 0 0 0-9.71-6.66zm-7.84 161.06a21.83 21.83 0 0 0-13.52 4.43c-2.69 2.12-7.14 1.77-9.23-.74-4.69-5.6-12.72-9.3-21.87-9.3-21.4 0-31.94 20.72-24.43 20.72h80.74c4.37 0 7.38-3.62 5.44-6.72-3.13-4.97-9.59-8.39-17.13-8.39zM88.57 188.23a21.8 21.8 0 0 0-13.51 4.43c-2.69 2.12-7.14 1.77-9.24-.74-4.68-5.6-12.72-9.3-21.86-9.3-21.4 0-31.95 20.72-24.43 20.72h80.74c4.37 0 7.38-3.62 5.44-6.72-3.13-4.97-9.63-8.39-17.14-8.39zm264.19-14.97a18.67 18.67 0 0 0-17.79 13 4.3 4.3 0 0 0 4.08 5.62h27.42a4.3 4.3 0 0 0 4.08-5.62 18.66 18.66 0 0 0-17.79-13zm47.7 61.88a10.4 10.4 0 0 0-9.71 6.67 2.76 2.76 0 0 0 2.59 3.73h14.24a2.76 2.76 0 0 0 2.58-3.73 10.4 10.4 0 0 0-9.7-6.67zm463.32 150.67a21.83 21.83 0 0 0-13.52 4.43c-2.68 2.12-7.14 1.77-9.23-.74-4.68-5.6-12.72-9.3-21.86-9.3-21.41 0-31.95 20.72-24.43 20.72h80.74c4.37 0 7.38-3.62 5.43-6.72-3.13-4.97-9.62-8.39-17.13-8.39zm476.02-134.62a21.89 21.89 0 0 0-13.52 4.42c-2.69 2.13-7.14 1.78-9.24-.73-4.68-5.61-12.71-9.31-21.86-9.31-21.4 0-31.94 20.73-24.43 20.73h80.74c4.37 0 7.38-3.63 5.44-6.72-3.13-4.97-9.63-8.39-17.13-8.39zm-39.59-235.86a21.83 21.83 0 0 0-13.52 4.43c-2.69 2.12-7.14 1.77-9.23-.74-4.69-5.61-12.72-9.31-21.87-9.31-21.4 0-31.94 20.73-24.43 20.73h80.74c4.37 0 7.39-3.63 5.44-6.72-3.13-4.97-9.63-8.39-17.13-8.39zm-783.86 48a21.89 21.89 0 0 0-13.52 4.42c-2.68 2.13-7.14 1.78-9.23-.73-4.69-5.61-12.72-9.31-21.86-9.31-21.41 0-31.95 20.73-24.43 20.73H528c4.38 0 7.39-3.63 5.44-6.72-3.09-4.97-9.58-8.39-17.09-8.39zm539.74 109.93a18.65 18.65 0 0 0-17.79 13 4.3 4.3 0 0 0 4.08 5.62h27.41a4.31 4.31 0 0 0 4.09-5.62 18.67 18.67 0 0 0-17.79-13zm215.23-31.03a18.65 18.65 0 0 0-17.79 13 4.3 4.3 0 0 0 4.08 5.62H1285a4.3 4.3 0 0 0 4.08-5.62 18.65 18.65 0 0 0-17.76-13zm-252.2 40.35a10.41 10.41 0 0 0-9.7 6.66A2.76 2.76 0 0 0 1012 193h14.24a2.77 2.77 0 0 0 2.59-3.74 10.41 10.41 0 0 0-9.71-6.68zm-79.59 302.66A5.88 5.88 0 0 0 934 489a1.57 1.57 0 0 0 1.46 2.12h8A1.57 1.57 0 0 0 945 489a5.89 5.89 0 0 0-5.47-3.76zm-219.09-239.7a10.39 10.39 0 0 0-9.71 6.66 2.77 2.77 0 0 0 2.59 3.74h14.24a2.76 2.76 0 0 0 2.58-3.74 10.39 10.39 0 0 0-9.7-6.66zm72.93 668.78a19.26 19.26 0 0 1 13.63 5.61 6.1 6.1 0 0 0 9.4-.94 26.53 26.53 0 0 1 45.3 1.8 5.89 5.89 0 0 0 8 2.15 12.12 12.12 0 0 1 16.1 4.62 4.08 4.08 0 0 1-3.55 6.1H779.17a4.46 4.46 0 0 1-4.26-5.78 19.34 19.34 0 0 1 18.46-13.56zm436.63 0a19.25 19.25 0 0 0-13.62 5.61 6.1 6.1 0 0 1-9.4-.94 26.53 26.53 0 0 0-45.3 1.8 5.89 5.89 0 0 1-8 2.15 12.12 12.12 0 0 0-16.1 4.62 4.08 4.08 0 0 0 3.55 6.1h103.05a4.46 4.46 0 0 0 4.26-5.78 19.35 19.35 0 0 0-18.44-13.56zm-140.14-9.5a7 7 0 0 0-4.95 2 2.21 2.21 0 0 1-3.41-.34 9.64 9.64 0 0 0-16.46.65 2.15 2.15 0 0 1-2.9.79 4.32 4.32 0 0 0-2.05-.51 4.4 4.4 0 0 0-3.8 2.18 1.48 1.48 0 0 0 1.29 2.22H1095a1.62 1.62 0 0 0 1.55-2.1 7 7 0 0 0-6.69-4.89zm-153.52 7.04a4.78 4.78 0 0 1 4.46 3.06 1.27 1.27 0 0 1-1.19 1.72h-6.55a1.27 1.27 0 0 1-1.18-1.72 4.77 4.77 0 0 1 4.46-3.06zm15.93-3.8a8.58 8.58 0 0 1 8.18 6 2 2 0 0 1-1.87 2.59H946a2 2 0 0 1-1.88-2.59 8.59 8.59 0 0 1 8.15-6zm52.42 1.84a4.79 4.79 0 0 0-4.47 3.06 1.28 1.28 0 0 0 1.19 1.72h6.59a1.27 1.27 0 0 0 1.19-1.72 4.78 4.78 0 0 0-4.5-3.06zm308.24-8.48a16 16 0 0 0-15.25 11.18 3.68 3.68 0 0 0 3.5 4.81h23.51a3.68 3.68 0 0 0 3.5-4.81 16 16 0 0 0-15.26-11.18z" fill="#fff"/></svg>