<?xml version="1.0" encoding="utf-8"?>
<!-- Generator: Adobe Illustrator 22.0.1, SVG Export Plug-In . SVG Version: 6.00 Build 0)  -->
<svg version="1.1" id="Layer_1" xmlns="http://www.w3.org/2000/svg" xmlns:xlink="http://www.w3.org/1999/xlink" x="0px" y="0px"
	 viewBox="0 0 282.7 143.8" style="enable-background:new 0 0 282.7 143.8;" xml:space="preserve">
<style type="text/css">
	.st0{fill:#231F20;}
	.st1{fill:#ED2D7B;}
</style>
<g>
	<title>logo_v2</title>
	<g>
		<path class="st0" d="M142.4,50.5c9,0,15,4.4,15,13.1c0,6.3-3.1,10.2-8,12l10,16.5h-9.9l-9-15.4h-6.8v15.4h-8.8V50.5H142.4z
			 M133.7,69.3h8.9c3.8,0,6.4-1.7,6.4-5.5c0-3.7-2.6-5.4-6.4-5.4h-8.9V69.3z"/>
		<path class="st0" d="M172.5,59.6V80c0,3.7,2.4,5.2,5.5,5.2c2.2,0,4.3-0.8,5.7-3.9V59.6h8.2v32.6h-7.6v-2.9
			c-2.3,2.5-5.4,3.7-9.1,3.7c-6.4,0-10.8-3.7-10.8-11.4V59.6H172.5z"/>
		<path class="st0" d="M208.5,59.6v3.1c2-2.3,4.9-3.9,8.7-3.9c8.7,0,12,8.7,12,17.1c0,8.3-3.3,17-12,17c-3.4,0-6.1-1.3-8.1-3.3v12.3
			l-8.1,2.8V59.6H208.5z M209,69.9v12c1.3,2.1,3.2,3.7,6.1,3.7c4.8,0,6.4-4.4,6.4-9.6c0-5.2-1.6-9.6-6.4-9.6
			C212.3,66.3,210.3,67.8,209,69.9z"/>
		<path class="st0" d="M245.5,51.1c0,2.6-1.9,4.5-4.5,4.5s-4.4-1.9-4.4-4.5c0-2.6,1.8-4.5,4.4-4.5S245.5,48.4,245.5,51.1z
			 M245.1,59.6v32.6H237V59.6H245.1z"/>
		<path class="st0" d="M260.5,78.4c0.8,5.2,3.9,7.3,7.2,7.3c2.5,0,4.3-1.3,5.6-3.1l5.4,4.7c-1.9,2.5-5.5,5.7-11.5,5.7
			c-7.9,0-14.4-5.9-14.4-17.1c0-11.1,5.8-17,14-17c8.2,0,14.1,6,14.1,16.9c0,1.4-0.1,1.9-0.2,2.7H260.5z M260.6,72.5h12.7
			c-0.8-4.2-3.2-6.3-6.4-6.3C263.6,66.1,261.4,68.4,260.6,72.5z"/>
	</g>
	<path class="st1" d="M32.7,143.1L1.8,112.4V31.5L32.7,0.7h0L53.1,21l19.3-0.1l0,0l30.8,30.9L72.4,82.8h-8.8v29.6L32.7,143.1
		L32.7,143.1z M32.7,118.5L46.3,105V65.4H65l13.5-13.6L64.9,38.2l-19.2,0l-13-12.8l0,0L19,38.9v65.9L32.7,118.5L32.7,118.5z"/>
</g>
</svg>
