<svg xmlns="http://www.w3.org/2000/svg" viewBox="0 0 282.7 143.8"><path d="M142.4 50.5c9 0 15 4.4 15 13.1 0 6.3-3.1 10.2-8 12l10 16.5h-9.9l-9-15.4h-6.8v15.4h-8.8V50.5h17.5zm-8.7 18.8h8.9c3.8 0 6.4-1.7 6.4-5.5 0-3.7-2.6-5.4-6.4-5.4h-8.9v10.9zm38.8-9.7V80c0 3.7 2.4 5.2 5.5 5.2 2.2 0 4.3-.8 5.7-3.9V59.6h8.2v32.6h-7.6v-2.9c-2.3 2.5-5.4 3.7-9.1 3.7-6.4 0-10.8-3.7-10.8-11.4v-22h8.1zm36 0v3.1c2-2.3 4.9-3.9 8.7-3.9 8.7 0 12 8.7 12 17.1 0 8.3-3.3 17-12 17-3.4 0-6.1-1.3-8.1-3.3v12.3l-8.1 2.8V59.6h7.5zm.5 10.3v12c1.3 2.1 3.2 3.7 6.1 3.7 4.8 0 6.4-4.4 6.4-9.6 0-5.2-1.6-9.6-6.4-9.6-2.8-.1-4.8 1.4-6.1 3.5zm36.5-18.8c0 2.6-1.9 4.5-4.5 4.5s-4.4-1.9-4.4-4.5 1.8-4.5 4.4-4.5 4.5 1.8 4.5 4.5zm-.4 8.5v32.6H237V59.6h8.1zm15.4 18.8c.8 5.2 3.9 7.3 7.2 7.3 2.5 0 4.3-1.3 5.6-3.1l5.4 4.7c-1.9 2.5-5.5 5.7-11.5 5.7-7.9 0-14.4-5.9-14.4-17.1 0-11.1 5.8-17 14-17s14.1 6 14.1 16.9c0 1.4-.1 1.9-.2 2.7h-20.2zm.1-5.9h12.7c-.8-4.2-3.2-6.3-6.4-6.3-3.3-.1-5.5 2.2-6.3 6.3z" fill="#231F20"/><path d="M32.7 143.1L1.8 112.4V31.5L32.7.7 53.1 21l19.3-.1 30.8 30.9-30.8 31h-8.8v29.6l-30.9 30.7zm0-24.6L46.3 105V65.4H65l13.5-13.6-13.6-13.6H45.7l-13-12.8L19 38.9v65.9l13.7 13.7z" fill="#ED2D7B"/></svg>