<svg id="spaceship-flag" xmlns="http://www.w3.org/2000/svg" width="251.4" height="69.56"><defs><clipPath id="clip-path"><path fill="none" d="M68 27.08h93.28v34.28H68z"/></clipPath></defs><g clip-path="url(#clip-path)" id="banner"><path id="banner-path" d="M159.66 30.35c-31.18-8.94-60.13 8.93-91.27 0V58.2c31.14 8.93 60.09-8.94 91.27 0s60.09-8.94 91.27 0V30.35c-31.18-8.94-60.13 8.93-91.27 0z" fill="#ee2a7b"/></g><path d="M78.43 45.51a2.7 2.7 0 0 0 2 .87c.9 0 1.38-.34 1.38-.89s-.3-.59-.67-.71c-.56-.18-1.35-.3-2.06-.59a1.68 1.68 0 0 1-1.29-1.62c0-1.17.92-2 2.59-2a3.29 3.29 0 0 1 2.66 1.1l-1 .89a2.3 2.3 0 0 0-1.71-.69c-.68 0-1.12.22-1.12.63s.29.48.56.58c.57.21 1.41.3 2.11.57a1.84 1.84 0 0 1 1.36 1.82c0 1.43-1.19 2.17-2.88 2.17a3.77 3.77 0 0 1-3-1.25zM85.42 45.28c.13.86.65 1.21 1.2 1.21a1.08 1.08 0 0 0 .93-.52l.9.78a2.34 2.34 0 0 1-1.91 1c-1.31 0-2.39-1-2.39-2.84s1-2.83 2.32-2.83 2.35 1 2.35 2.8a2.56 2.56 0 0 1 0 .45zm0-1h2.11c-.14-.69-.53-1-1.06-1s-.91.35-1.04 1.02zM91.19 45.28c.13.86.65 1.21 1.2 1.21a1.08 1.08 0 0 0 .93-.52l.9.78a2.34 2.34 0 0 1-1.91 1c-1.31 0-2.39-1-2.39-2.84s1-2.83 2.32-2.83 2.35 1 2.35 2.8a2.56 2.56 0 0 1 0 .45zm0-1h2.11c-.14-.69-.53-1-1.06-1s-.91.35-1.04 1.02zM98.69 42.16v-1.41l1.36-.46v1.87h1.21v1.1h-1.21v2.59c0 .3.15.46.52.46a1 1 0 0 0 .72-.28l-.22 1.19a1.53 1.53 0 0 1-1.08.4 1.28 1.28 0 0 1-1.3-1.45v-2.91h-.63v-1.1zM103.54 40.18v2.38A2 2 0 0 1 105 42c1.07 0 1.8.61 1.8 2.11v3.43h-1.4V44.3c0-.73-.35-1-.9-1a1 1 0 0 0-1 .66v3.61h-1.35v-6.93zM109.28 45.28c.13.86.65 1.21 1.2 1.21a1.08 1.08 0 0 0 .93-.52l.9.78a2.34 2.34 0 0 1-1.91 1c-1.31 0-2.39-1-2.39-2.84S109 42 110.33 42s2.35 1 2.35 2.8a2.56 2.56 0 0 1 0 .45zm0-1h2.11c-.14-.69-.53-1-1.06-1s-.91.35-1.04 1.02zM117.43 42.16l1.24 3.72 1.23-3.72h1.37l-1.94 5.41H118l-1.94-5.41zM123.53 40.75a.72.72 0 0 1-.74.75.75.75 0 0 1 0-1.5.72.72 0 0 1 .74.75zm-.06 1.41v5.41h-1.35v-5.41zM129.47 40.18v7.39h-1.27v-.51a1.88 1.88 0 0 1-1.44.64c-1.44 0-2-1.45-2-2.83s.56-2.84 2-2.84a1.89 1.89 0 0 1 1.35.55v-1.94zm-1.36 5.69v-2a1.19 1.19 0 0 0-1-.59c-.79 0-1.06.73-1.06 1.6s.27 1.6 1.06 1.6a1.18 1.18 0 0 0 1-.61zM132 45.28c.13.86.65 1.21 1.2 1.21a1.08 1.08 0 0 0 .93-.52l.9.78a2.34 2.34 0 0 1-1.91 1c-1.31 0-2.39-1-2.39-2.84s1-2.83 2.32-2.83 2.35 1 2.35 2.8a2.56 2.56 0 0 1 0 .45zm0-1h2.11c-.14-.69-.53-1-1.06-1s-.88.35-1.05 1.02zM141.2 44.87c0 1.85-1 2.83-2.34 2.83s-2.33-1-2.33-2.83 1-2.84 2.33-2.84 2.34.97 2.34 2.84zm-3.39 0c0 1 .42 1.58 1.05 1.58s1.06-.54 1.06-1.58-.43-1.6-1.06-1.6-1.05.55-1.05 1.61zM147.25 40.71h1.04v5.64h-1.04z" fill="#fff"/><path transform="rotate(45 148.9573 45.7801)" fill="#fff" d="M148.44 43.59h1.04v4.39h-1.04z"/><path transform="rotate(135 146.5862 45.7804)" fill="#fff" d="M146.07 43.59h1.04v4.39h-1.04z"/><path d="M36.42 69.23a11.13 11.13 0 0 0 10.89-9.29 26.45 26.45 0 0 0 .39-4.06c.11-2.39.21-4.65 1.4-6.53 2.41-3.8 8.36-4.71 13-3.65l.22-1c-4.81-1.1-11.27-.29-14.05 4.09-1.34 2.11-1.45 4.61-1.55 7a25.15 25.15 0 0 1-.38 3.91 10.11 10.11 0 0 1-11.24 8.4 9.06 9.06 0 0 1-6.1-3.33 12.42 12.42 0 0 1-2.14-7.36c-.05-1.55 0-3 0-4.53 0-1.11.06-2.27.06-3.55H26c0 1.27 0 2.42-.06 3.53 0 1.54-.08 3 0 4.58.1 3.4.87 6 2.35 7.93A10 10 0 0 0 35 69.13a12.07 12.07 0 0 0 1.42.1z" fill="#7c3990"/><path transform="rotate(-180 68 44.785)" fill="#c093c3" d="M64 43.38h7.99v2.82H64z"/><path d="M63.83 43.2h8.34v3.17h-8.34zm8 .35h-7.65V46h7.64z" fill="#7d3990"/><path fill="#fde9f1" d="M21.73 16.25v8.95h1.88v-8.17l-1.88-.78zM25.99 14.18v-2.64l-4 3.98 1.88.77 2.12-2.11z"/><path fill="#ee2a7b" d="M29.15 16.97v8.23h1.88v-9.01l-1.88.78zM28.85 16.25l1.88-.78-3.96-3.93v2.64l2.08 2.07z"/><path fill="#ebb8d5" d="M26.38 14.89l-1.99 1.98v8.33h3.98v-8.33l-1.99-1.98z"/><path fill="#a02373" d="M21.73 16.25l-.63-.26.3-.72.59.25 4-3.98v-.94h.78v.94l3.96 3.93.48-.2.3.72-.48.2v9.01h.78v-9.75l-5.43-5.4-5.43 5.4v9.75h.78v-8.95z"/><path fill="#a02373" d="M26.38 13.79l.39.39V10.6h-.78v3.58l.39-.39zM29.15 16.55v.42l1.88-.78.48-.2-.3-.72-.48.2-1.88.78.3.3zM23.61 16.55l.26-.26-1.88-.77-.59-.25-.3.72.63.26 1.88.78v-.48z"/><path fill="#a02373" d="M29.15 16.55l-.3-.3-2.08-2.07-.39-.39-.39.39-2.12 2.11-.26.26v8.65h.78v-8.33l1.99-1.98 1.99 1.98v8.33h.78v-8.65z"/><path fill="none" stroke="#7c3990" stroke-miterlimit="10" stroke-width=".8449" d="M31.79 7.74H20.97l-7.66 7.65v15.14l7.66 7.66h10.82l7.66-7.66V15.39l-7.66-7.65z"/><path fill="#bd92c2" stroke="#7d398f" stroke-miterlimit="10" stroke-width=".8449" d="M13.31 22.42v12.49l13.07 13 13.07-13V22.42"/><path fill="#f5ebf4" stroke="#7d398f" stroke-linejoin="bevel" stroke-width=".8449" d="M13.31 22.42v12.49l13.07 13 .02-13V22.42"/><path fill="#e6cbe2" stroke="#7d398f" stroke-miterlimit="10" stroke-width=".8449" d="M31.84 22.42v9.26l-5.46 5.42-5.46-5.42v-9.26"/><path fill="none" stroke="#7d398f" stroke-miterlimit="10" stroke-width=".8449" d="M31.84 31.68l7.61 3.23M26.38 37.1v10.81M20.92 31.68l-7.61 3.23"/><path fill="none" stroke="#7d398f" stroke-linecap="square" stroke-linejoin="bevel" stroke-width=".8449" d="M13.31 22.42h26.14"/><path fill="#da1c5c" stroke="#7c3990" stroke-miterlimit="10" stroke-width=".8449" d="M24 45.52h4.76v3.81H24z"/><path fill="#e6cbe2" stroke="#7c3990" stroke-miterlimit="10" stroke-width=".8449" d="M24 45.52h2.38v3.81H24z"/><path fill="#e6cae2" d="M58.98 46.28v-2.99l2.11-2.11h2.99l2.11 2.11v2.99l-2.11 2.11h-2.99l-2.11-2.11z"/><path d="M64.15 48.58H61l-2.22-2.23v-3.13L61 41h3.14l2.22 2.23v3.13zM64 41.37h-2.83l-2 2v2.83l2 2H64l2-2v-2.83z" fill="#7c3990"/><path fill="#b87bb5" d="M58.98 43.29v2.99l2.11 2.11h2.99l2.11-2.11v-2.99l-1.38.57h-4.46l-1.37-.57z"/><path fill="#c093c3" d="M60.35 45.71v-1.85l1.31-1.3h1.85l1.3 1.3v1.85l-1.3 1.3h-1.85l-1.31-1.3z"/><path d="M63.58 47.2h-2l-1.41-1.42v-2l1.41-1.42h2L65 43.79v2zm-.15-4.46h-1.69l-1.2 1.2v1.69l1.2 1.2h1.69l1.2-1.2v-1.69z" fill="#7c3990"/><path transform="rotate(-67.5 59.6608 43.5767)" fill="#7c3990" d="M59.48 42.83h.37v1.49h-.37z"/><path transform="rotate(-22.51 59.6499 45.9836)" fill="#7c3990" d="M58.92 45.81h1.49v.37h-1.49z"/><path transform="rotate(-67.49 61.376 47.7029)" fill="#7c3990" d="M60.63 47.52h1.49v.37h-1.49z"/><path transform="rotate(-22.5 63.7833 47.7032)" fill="#7c3990" d="M63.61 46.96h.37v1.49h-.37z"/><path transform="rotate(-67.5 65.5016 45.9965)" fill="#7c3990" d="M65.31 45.25h.37v1.49h-.37z"/><path transform="rotate(-22.51 65.4856 43.5664)" fill="#7c3990" d="M64.76 43.39h1.49v.37h-1.49z"/><path transform="rotate(-67.49 63.7906 41.8686)" fill="#7c3990" d="M63.05 41.68h1.49v.37h-1.49z"/><path transform="rotate(-22.5 61.3897 41.8702)" fill="#7c3990" d="M61.19 41.12h.37v1.49h-.37z"/><path d="M64.15 48.58H61l-2.22-2.23v-3.13L61 41h3.14l2.22 2.23v3.13zM64 41.37h-2.83l-2 2v2.83l2 2H64l2-2v-2.83z" fill="#7c3990"/><path fill="none" stroke="#7c3990" stroke-miterlimit="10" stroke-width=".6337" d="M26.19 1.56v4.83"/><path fill="#da1c5c" stroke="#7c3990" stroke-miterlimit="10" stroke-width=".8449" d="M24.97 4.67h2.43v3.04h-2.43zM24.97.85h2.43v1.92h-2.43z"/><path fill="#7d3990" d="M68.46 43.38h.35v2.82h-.35zM70.39 43.38h.35v2.82h-.35z"/></svg>
