<svg xmlns="http://www.w3.org/2000/svg" width="16.1" height="14.4" viewBox="0 0 16.1 14.4" fill="currentColor"><defs><symbol id="telegram-icon"><path class="icon" d="M14.8 1.3v.1L12.5 13s0 .1-.1.1c0 0-.1.1-.3 0l-3.6-2.8-2.2 2 .5-3 6-5.5c.2-.2.2-.3.2-.3 0-.3-.4-.1-.4-.1L5 8.1 1.4 6.9h.1L8 4.2l4.6-1.9 2.2-1m.1-1.2c-.2 0-.4.1-.6.1l-2.3 1L7.5 3C4.2 4.4 1 5.7 1 5.7c-.2.1-.3.2-.5.3l-.3.3c-.2.2-.2.5-.2.7.1.3.3.7.6.8.1.1.2.2.4.2l3 1c.1.4.9 3 1.1 3.6.1.3.2.5.4.7.1.1.1.2.2.2l.1.1h.1c.3.1.6.1.9-.1l1.8-1.6 3 2.3h.1c.7.4 1.6.1 2-.6 0 0 0-.1.1-.1v-.1L16 1.7c.1-.3.1-.6 0-.8-.1-.3-.2-.5-.5-.6-.2-.2-.4-.3-.6-.2z"/></symbol></defs></svg>