<svg xmlns="http://www.w3.org/2000/svg" width="80.25" height="36.52" viewBox="0 0 80.25 36.52"><title>Artboard 16</title><g data-name="Layer 1" clip-path="url(#clip-path)" style="isolation:isolate"><path fill="none" stroke="#7d398f" stroke-miterlimit="10" stroke-width=".845" d="M52.88 24.42H40.7m12.18-3.38H40.7"/><path fill="#fff" opacity=".4" d="M65.34 14.59V8.13L59.75 4.9l-5.59 3.23v6.46l5.59 3.23 5.59-3.23z"/><path fill="none" stroke="#7c3990" stroke-miterlimit="10" stroke-width=".634" d="M65.34 14.59V8.13L59.75 4.9l-5.59 3.23v6.46l5.59 3.23 5.59-3.23z"/><path fill="#da1c5c" d="M51.53 22.19v3.58h17.48l-1.52-3.58H51.53zm16.72-.32l1.53 3.59 6.39-6.43h-5.09l-2.83 2.84z"/><path fill="#7c3990" d="M77.75 18.62l-.29-.3-.29.3v.41h-1l-6.39 6.43.24.57-.77.32-.24-.58H51.53v.84h18.28l7.94-7.99z"/><path fill="#f6ebf4" d="M71.08 18.2h5.09l-6.4-6.42-1.52 3.58 2.83 2.84zm-2.07-6.74H51.53v3.58h15.95l1.53-3.58zm8.16 7.16z"/><path fill="#7d398f" d="M51.53 11.46h17.48l.24-.58.77.33-.25.57 6.4 6.42h1v.42l.29-.3-7.65-7.69H51.53v.83zm16.41 10.73h-.45l1.52 3.58.24.58.77-.32-.24-.57-1.53-3.59-.31.32z"/><path fill="#7d398f" d="M77.17 18.2h-6.09l.41.42-.41.41h6.09v-.83zm-9.24-3.16l.32.32 1.52-3.58.25-.57-.77-.33-.24.58-1.53 3.58h.45z"/><path fill="#e6cbe2" d="M70.32 18.62l-2.73-2.75H51.53v5.49h16.06l2.73-2.74z"/><path fill="#7d398f" d="M67.94 22.19l.31-.32 2.83-2.84.41-.41-.41-.42-2.83-2.84-.32-.32h-16.4v.83h16.06l2.73 2.75-2.73 2.74H51.53v.83h16.41z"/><path fill="#7d398f" d="M52.36 10.63h-.83V26.6h.83v-2.79"/><path fill="#bd92c2" stroke="#7d398f" stroke-miterlimit="10" stroke-width=".634" d="M12.9 19.1h28.41v7.26H12.9z"/><path fill="#e6cbe2" stroke="#7d398f" stroke-miterlimit="10" stroke-width=".634" d="M12.9 19.1h28.41v3.66H12.9z"/><path fill="#ebb8d5" d="M40.16 10.45l-3.49-3.51H11.93l-3.49 3.51 3.47 3.5h24.78l3.47-3.5z"/><path fill="#ee2a7b" d="M46.51 10.45h-6.35l-3.47 3.5H11.91l-3.47-3.5H2.09l7.92 7.96h28.58l7.92-7.96z"/><path fill="#fde9f1" d="M46.51 10.45l-7.92-7.96H10.01l-7.92 7.96h6.35l3.49-3.51h24.74l3.49 3.51h6.35z"/><path fill="none" stroke="#a02373" stroke-miterlimit="10" stroke-width=".845" d="M38.59 2.49l7.92 7.96-7.92 7.96H10.01l-7.92-7.96 7.92-7.96h28.58z"/><path fill="none" stroke="#a02373" stroke-miterlimit="10" stroke-width=".845" d="M36.67 6.94l3.49 3.51-3.47 3.5H11.91l-3.47-3.5 3.49-3.51h24.74zm0 0l1.92-4.45m7.92 7.96h-6.35m-3.47 3.49l1.9 4.47m-26.68-4.47l-1.9 4.47m-1.57-7.96H2.09m7.92-7.96l1.92 4.45"/><path d="M27.84 19zm-6.28.03l6.28-16.81 6.27 16.81" fill="none" stroke="#7c3990" stroke-linejoin="bevel" stroke-width=".845"/><path fill="none" stroke="#7c3990" stroke-linejoin="bevel" stroke-width=".845" d="M12.9 19.1L22.94 2.22l11.17 16.81"/><rect x="17.04" y="30.73" width="51.2" height="3.32" rx="1.41" ry="1.41" style="mix-blend-mode:multiply" fill="#c9c9c9" opacity=".45"/></g></svg>