<svg xmlns="http://www.w3.org/2000/svg" width="46" height="31.02" viewBox="0 0 46 31.02"><title>Artboard 15</title><g data-name="Layer 1" style="isolation:isolate"><path fill="#fff" opacity=".4" d="M30.73 16.34V8.3l-6.96-4.02-6.96 4.02v8.04l6.96 4.02 6.96-4.02z"/><path fill="none" stroke="#7c3990" stroke-miterlimit="10" stroke-width=".634" d="M30.73 16.34V8.3l-6.96-4.02-6.96 4.02v8.04l6.96 4.02 6.96-4.02z"/><path fill="#da1c5c" d="M7.82 18.69v2.41h29.99l-1.02-2.41H7.82zm29.49-.21l1.02 2.41 4.3-4.32h-3.42l-1.9 1.91z"/><path fill="#7c3990" d="M43.7 16.29l-.2-.2-.2.2v.28h-.67l-4.3 4.32.16.38-.51.22-.17-.39H7.82v.56h30.53l5.35-5.37z"/><path fill="#f6ebf4" d="M39.21 16.01h3.42l-4.3-4.33-1.02 2.42 1.9 1.91zm-1.4-4.54H7.82v2.41h28.97l1.02-2.41zm5.49 4.82z"/><path fill="#7d398f" d="M7.82 11.47h29.99l.17-.39.51.22-.16.38 4.3 4.33h.67v.28l.2-.2-5.15-5.18H7.82v.56zm29.27 7.22h-.3l1.02 2.41.17.39.51-.22-.16-.38-1.02-2.41-.22.21z"/><path fill="#7d398f" d="M43.3 16.01h-4.09l.27.28-.27.28h4.09v-.56zm-6.21-2.13l.22.22 1.02-2.42.16-.38-.51-.22-.17.39-1.02 2.41h.3z"/><path fill="#e6cbe2" d="M38.7 16.29l-1.84-1.85H7.82v3.69h29.04l1.84-1.84z"/><path fill="#7d398f" d="M37.09 18.69l.22-.21 1.9-1.91.27-.28-.27-.28-1.9-1.91-.22-.22H7.82v.56h29.04l1.84 1.85-1.84 1.84H7.82v.56h29.27z"/><path fill="#7d398f" d="M8.38 21.66V10.91h-.56v10.75h.56z"/><path fill="none" stroke="#7c3990" stroke-miterlimit="10" stroke-width=".634" d="M9.44 10.91v-5.3m2.55 5.47L9.44 5.61"/><path fill="#da1c5c" d="M3.73 3.46h8.19v4.31H3.73z"/><path d="M12.13 8H3.51V3.24h8.62zm-8.19-.45h7.76V3.67H3.94z" fill="#7c3990"/><path fill="#e5cbe2" d="M3.73 3.46h8.19v2.15H3.73z"/><path d="M12.13 5.82H3.51V3.24h8.62zM3.94 5.4h7.76V3.67H3.94z" fill="#7c3990"/><rect x="11.92" y="25.29" width="23.43" height="3.32" rx="1.66" ry="1.66" style="mix-blend-mode:multiply" fill="#c9c9c9" opacity=".45"/></g></svg>