<svg xmlns="http://www.w3.org/2000/svg" xmlns:xlink="http://www.w3.org/1999/xlink" width="846" height="526.78" viewBox="0 0 846 526.78"><defs><linearGradient id="a" x1="18.38" y1="455.46" x2="821.62" y2="455.46" gradientUnits="userSpaceOnUse"><stop offset="0" stop-color="#2484c6"/><stop offset="1" stop-color="#2484c6" stop-opacity="0"/></linearGradient><linearGradient id="b" x1="137.54" y1="385.01" x2="694.81" y2="385.01" xlink:href="#a"/><linearGradient id="c" x1="249.83" y1="537.95" x2="578.04" y2="262.55" gradientUnits="userSpaceOnUse"><stop offset="0" stop-color="#007a48"/><stop offset=".6" stop-color="#cbdb2a" stop-opacity="0"/></linearGradient></defs><title>Artboard 2</title><g data-name="Layer 1" style="isolation:isolate"><path d="M18.38 404.11S91 506.82 433.77 506.82c256.62 0 387.85-102.71 387.85-102.71z" fill="#dff2f4"/><path d="M18.38 404.11S91 506.82 433.77 506.82c256.62 0 387.85-102.71 387.85-102.71z" fill="url(#a)" style="mix-blend-mode:hard-light"/><path fill="#fff" d="M444.34 98.04h50.1v15h-50.1z"/><path fill="#d1ecf2" opacity=".4" d="M444.34 98.04h50.1v15h-50.1z"/><path fill="#e9b7d5" stroke="#a02373" stroke-miterlimit="10" stroke-width="1.267" d="M451.35 95.53v20.76l3.52-1.41V97.49l-3.52-1.96z"/><path fill="#f4dfe8" d="M664.35 365.4H169.4l9.53-11.27H654.6l9.75 11.27z"/><path fill="#fff" opacity=".8" d="M336.63 211.41h47.83v15h-47.83z"/><path fill="#9fdae3" opacity=".4" d="M336.63 211.41h47.83v15h-47.83z"/><path fill="#fff" d="M343.91 211.41h38.41v1.64h-38.41z"/><path fill="#fde9f1" stroke="#a02373" stroke-miterlimit="10" stroke-width=".845" d="M384.31 229.66V208.9l-3.52 1.41v17.39l3.52 1.96z"/><path fill="#e9b7d5" stroke="#a02373" stroke-miterlimit="10" stroke-width=".845" d="M343.64 208.9v20.76l3.52-1.41v-17.39l-3.52-1.96z"/><path fill="#ee2a7b" stroke="#a02373" stroke-miterlimit="10" stroke-width=".845" d="M316.09 354.13V191.49l13.78-13.7 13.77 13.7v162.64"/><path fill="#fce9f1" stroke="#a02373" stroke-linejoin="bevel" stroke-width=".845" d="M316.09 354.13V191.49l13.78-13.7.02 13.7v162.64"/><path fill="#e9b7d5" stroke="#a02373" stroke-miterlimit="10" stroke-width=".845" d="M324.12 354.13V194.9l5.75-5.71 5.75 5.71v159.23"/><path fill="none" stroke="#a02373" stroke-miterlimit="10" stroke-width=".845" d="M335.62 194.9l8.02-3.41m-19.52 3.41l-8.03-3.41"/><path d="M330.71 349.26H329v-4.42h1.69zm0-9.49H329v-5.07h1.69zm0-10.14H329v-5.07h1.69zm0-10.14H329v-5.07h1.69zm0-10.14H329v-5.07h1.69zm0-10.14H329v-5.07h1.69zm0-10.14H329V284h1.69zm0-10.13H329v-5.07h1.69zm0-10.14H329v-5.07h1.69zm0-10.14H329v-5.07h1.69zm0-10.14H329v-5.07h1.69zm0-10.14H329v-5.07h1.69zm0-10.14H329v-5.07h1.69zm0-10.14H329V213h1.69zm0-10.13H329v-5.07h1.69z" fill="#a02373"/><path fill="#a02373" opacity=".5" d="M315.85 298.8h28.08v3.74h-28.08z"/><path fill="#fff" opacity=".8" d="M292.34 283.8h87.98v15h-87.98z"/><path fill="#9fdae3" opacity=".4" d="M292.34 283.8h88.18v15h-88.18z"/><path fill="#fde9f1" stroke="#a02373" stroke-miterlimit="10" stroke-width=".845" d="M384.46 302.05V281.3l-3.52 1.4v17.4l3.52 1.95z"/><path fill="#e9b7d5" stroke="#a02373" stroke-miterlimit="10" stroke-width=".845" d="M299.35 281.3v20.75l3.53-1.41v-17.39l-3.53-1.95z"/><path fill="#fff" d="M303.3 283.8h77.22v1.64H303.3z"/><path fill="#ee2a7b" stroke="#a02373" stroke-miterlimit="10" stroke-width=".845" d="M462.51 353.84V171.61l13.78-13.7 13.77 13.7v182.23"/><path fill="#fce9f1" stroke="#a02373" stroke-linejoin="bevel" stroke-width=".845" d="M462.51 353.84V171.61l13.78-13.7.02 13.7v182.23"/><path fill="#e9b7d5" stroke="#a02373" stroke-miterlimit="10" stroke-width=".845" d="M470.54 353.84V175.02l5.75-5.72 5.75 5.71v178.83"/><path fill="none" stroke="#a02373" stroke-miterlimit="10" stroke-width=".845" d="M482.04 175.01l8.02-3.4m-13.77-2.31v-11.39m-5.75 17.11l-8.03-3.41"/><path d="M477.13 347.72h-1.69v-5.07h1.69zm0-10.14h-1.69v-5.07h1.69zm0-10.13h-1.69v-5.07h1.69zm0-10.14h-1.69v-5.07h1.69zm0-10.14h-1.69v-5.07h1.69zm0-10.14h-1.69V292h1.69zm0-10.14h-1.69v-5.07h1.69zm0-10.14h-1.69v-5.07h1.69zm0-10.14h-1.69v-5.07h1.69zm0-10.14h-1.69v-5.06h1.69zm0-10.13h-1.69v-5.07h1.69zm0-10.14h-1.69v-5.07h1.69zm0-10.14h-1.69V221h1.69zm0-10.14h-1.69v-5.07h1.69zm0-10.14h-1.69v-5.07h1.69zm0-10.14h-1.69v-5.07h1.69z" fill="#a02373"/><path fill="#a02373" opacity=".5" d="M462.25 258.47h28.08v3.34h-28.08zm0 56.55h28.08v3.78h-28.08z"/><path fill="#a02373" stroke="#a02373" stroke-miterlimit="10" stroke-width=".845" opacity=".4" d="M462.54 353.84V171.72l13.77-13.7 13.77 13.7v182.12"/><path fill="#fff" opacity=".8" d="M444.31 243.47h92.73v15h-92.73z"/><path fill="#9fdae3" opacity=".4" d="M455.27 243.47h81.76v15h-81.76z"/><path fill="#fff" d="M455.27 243.47h81.22v1.64h-81.22z"/><path fill="#fde9f1" stroke="#a02373" stroke-miterlimit="10" stroke-width=".845" d="M540.55 261.72v-20.75l-3.52 1.4v17.39l3.52 1.96z"/><path fill="#e9b7d5" stroke="#a02373" stroke-miterlimit="10" stroke-width=".845" d="M451.32 240.97v20.75l3.52-1.41v-17.38l-3.52-1.96z"/><path fill="#ee2a7b" stroke="#a02373" stroke-miterlimit="10" stroke-width=".845" d="M499.36 354.38V233.74l13.77-13.71 13.78 13.71v120.64"/><path fill="#fce9f1" stroke="#a02373" stroke-linejoin="bevel" stroke-width=".845" d="M499.36 354.38V233.74l13.77-13.71.02 13.71v120.64"/><path fill="#e9b7d5" stroke="#a02373" stroke-miterlimit="10" stroke-width=".845" d="M507.38 354.38V237.15l5.75-5.72 5.75 5.72v117.23"/><path fill="none" stroke="#a02373" stroke-miterlimit="10" stroke-width=".845" d="M518.89 237.14l8.02-3.4m-13.77-2.31l-.01-11.39m-5.75 17.11l-8.02-3.41"/><path d="M514 347.66h-1.69v-5.07H514zm0-10.14h-1.69v-5.07H514zm0-10.14h-1.69v-5.07H514zm0-10.13h-1.69v-5.07H514zm0-10.14h-1.69V302H514zm0-10.11h-1.69v-5.1H514zm0-10.14h-1.69v-5.07H514zm0-10.14h-1.69v-5.07H514zm0-10.14h-1.69v-5.07H514zm0-10.14h-1.69v-5.07H514z" fill="#a02373"/><path fill="#a02373" opacity=".5" d="M498.97 315.06h28.08v3.43h-28.08z"/><path fill="#fff" opacity=".8" d="M444.47 300.06h92.73v15h-92.73z"/><path fill="#9fdae3" opacity=".4" d="M455.4 300.06h81.79v15H455.4z"/><path fill="#fde9f1" stroke="#a02373" stroke-miterlimit="10" stroke-width=".845" d="M540.71 318.31v-20.76l-3.52 1.41v17.39l3.52 1.96z"/><path fill="#e9b7d5" stroke="#a02373" stroke-miterlimit="10" stroke-width=".845" d="M451.48 297.55v20.76l3.52-1.41v-17.39l-3.52-1.96z"/><path fill="#fff" d="M455.48 300.06h81.16v1.64h-81.16z"/><path fill="#ee2a7b" stroke="#a02373" stroke-miterlimit="10" stroke-width=".845" d="M384.31 353.29V77.09l33.61-33.43 33.61 33.43v276.99"/><path fill="none" stroke="#a02373" stroke-miterlimit="10" stroke-width=".845" d="M438.78 81.64l12.75-4.55"/><path fill="#fce9f1" stroke="#a02373" stroke-linejoin="bevel" stroke-width=".845" d="M384.31 354.08V77.09l33.61-33.43v310.42"/><path fill="none" stroke="#a02373" stroke-miterlimit="10" stroke-width=".845" d="M397.06 81.64l-12.75-4.55m33.61-33.43v17.27"/><path fill="#ebb8d4" stroke="#a02373" stroke-miterlimit="10" stroke-width=".845" d="M396.66 354.08V81.64l20.86-20.71 20.86 20.71v272.44"/><path fill="#ee2a7b" stroke="#a02373" stroke-miterlimit="10" stroke-width=".845" d="M261.45 353.56v-88.8l18.87-18.77 18.87 18.77v64.09l7.54 7.51v17.7"/><path fill="#fce9f1" stroke="#a02373" stroke-linejoin="bevel" stroke-width=".845" d="M261.45 354.06v-89.3l18.87-18.77.03 18.77v88.8"/><path fill="#e9b7d5" stroke="#a02373" stroke-miterlimit="10" stroke-width=".845" d="M272.44 354.06v-84.63l7.89-7.83 7.87 7.83v84.63"/><path fill="none" stroke="#a02373" stroke-miterlimit="10" stroke-width=".845" d="M288.2 269.43l11-4.67m-18.87-3.16l-.01-15.61m-7.88 23.44l-10.99-4.67"/><path d="M278.57 317.15h-1.69v-5.07h1.69zm0-10.14h-1.69v-5.07h1.69zm0-10.14h-1.69v-5.07h1.69zm0-10.14h-1.69v-5.07h1.69zm5.2 60.83h-1.69v-5.07h1.69zm0-10.13h-1.69v-5.07h1.69zm0-10.14h-1.69v-5.07h1.69zm0-10.14h-1.69v-5.07h1.69zm0-10.14h-1.69v-5.07h1.69zm0-10.14h-1.69v-5.07h1.69zm0-10.14h-1.69v-5.07h1.69z" fill="#a02373"/><path fill="#ee2a7b" stroke="#a02373" stroke-miterlimit="10" stroke-width=".845" d="M214.37 354.13V230.12l15.02-14.95 15.03 14.95v71.33l11.49 11.45v41.16"/><path fill="#fce9f1" stroke="#a02373" stroke-linejoin="bevel" stroke-width=".845" d="M214.37 354.13V230.12l15.02-14.95.03 14.95v124.01"/><path fill="#e9b7d5" stroke="#a02373" stroke-miterlimit="10" stroke-width=".845" d="M223.12 354.13V233.84l6.28-6.24 6.27 6.23v120.3"/><path fill="none" stroke="#a02373" stroke-miterlimit="10" stroke-width=".845" d="M235.67 233.83l8.75-3.71m-15.02-2.52l-.01-12.43m-6.27 18.67l-8.75-3.72"/><path d="M230.34 349.12h-1.69v-5.07h1.69zm0-10.14h-1.69v-5.07h1.69zm0-10.14h-1.69v-5.07h1.69zm0-10.14h-1.69v-5.07h1.69zm0-10.14h-1.69v-5.07h1.69zm0-10.14h-1.69v-5.07h1.69zm0-10.14h-1.69v-5.07h1.69zm0-10.14h-1.69v-5.06h1.69zm0-10.13h-1.69v-5.07h1.69zm0-10.14h-1.69v-5.07h1.69zm0-10.14h-1.69v-5.07h1.69z" fill="#a02373"/><path fill="#ee2a7b" stroke="#a02373" stroke-miterlimit="10" stroke-width=".845" d="M181.02 354.06v-15.62l13.77-13.71 13.78 13.71v15.62"/><path fill="#fce9f1" stroke="#a02373" stroke-linejoin="bevel" stroke-width=".845" d="M181.02 354.06v-15.62l13.77-13.71.02 13.71v15.62"/><path fill="#e9b7d5" stroke="#a02373" stroke-miterlimit="10" stroke-width=".845" d="M189.04 354.06v-12.21l5.75-5.72 5.75 5.71v12.22"/><path fill="none" stroke="#a02373" stroke-miterlimit="10" stroke-width=".845" d="M200.54 341.84l8.03-3.4m-13.78-2.31v-11.4m-5.75 17.12l-8.02-3.41"/><path fill="#a02373" d="M193.95 343.24h1.69v5.07h-1.69z"/><path fill="#ee2a7b" stroke="#a02373" stroke-miterlimit="10" stroke-width=".845" d="M542.56 353.75V217.18l17.83-17.74 17.84 17.74v136.57"/><path fill="#ee2a7b" stroke="#a02373" stroke-miterlimit="10" stroke-width=".845" d="M540.48 353.75v-137.2l18.88-18.77 18.87 18.77v137.2"/><path fill="#fce9f1" stroke="#a02373" stroke-linejoin="bevel" stroke-width=".845" d="M534.35 353.75v-15.86l6.13-6.19V216.55l18.88-18.77.02 18.77v137.2"/><path fill="#e9b7d5" stroke="#a02373" stroke-miterlimit="10" stroke-width=".845" d="M551.48 353.75V221.23l7.88-7.84 7.88 7.83v132.53"/><path fill="none" stroke="#a02373" stroke-miterlimit="10" stroke-width=".845" d="M567.24 221.22l10.99-4.67m-18.87-3.16v-15.61m-7.88 23.45l-11-4.68"/><path d="M562.8 348.38h-1.69v-5.07h1.69zm0-10.14h-1.69v-5.07h1.69zm0-10.14h-1.69V323h1.69zm0-10.14h-1.69v-5.07h1.69zm0-10.13h-1.69v-5.07h1.69zm0-10.14h-1.69v-5.07h1.69zm0-10.14h-1.69v-5.07h1.69zm0-10.14h-1.69v-5.07h1.69zm0-10.14h-1.69v-5.07h1.69zm0-10.14h-1.69v-5.07h1.69zm0-10.14h-1.69v-5.07h1.69zm0-10.13h-1.69v-5.07h1.69zm-5.2 111.52h-1.69v-5.07h1.69zm0-10.14h-1.69v-5.07h1.69zm0-10.14h-1.69V323h1.69zm0-10.14h-1.69v-5.07h1.69zm0-10.13h-1.69v-5.07h1.69zm0-10.14h-1.69v-5.07h1.69zm0-10.14h-1.69v-5.07h1.69zm0-10.14h-1.69v-5.07h1.69zm0-10.14h-1.69v-5.07h1.69zm0-10.14h-1.69v-5.07h1.69zm0-10.14h-1.69v-5.07h1.69zm0-10.13h-1.69v-5.07h1.69z" fill="#a02373"/><path fill="#ee2a7b" stroke="#a02373" stroke-miterlimit="10" stroke-width=".845" d="M591.71 353.6v-89.99l14.2-14.13 14.2 14.13v89.99"/><path fill="#ee2a7b" stroke="#a02373" stroke-miterlimit="10" stroke-width=".845" d="M590.06 353.6v-90.49l15.02-14.95 15.03 14.95v90.49"/><path fill="#fce9f1" stroke="#a02373" stroke-linejoin="bevel" stroke-width=".845" d="M605.11 353.6v-90.49l-.03-14.95-15.02 14.95v44.45l-6.7 6.7v39.49"/><path fill="#e9b7d5" stroke="#a02373" stroke-miterlimit="10" stroke-width=".845" d="M598.81 353.6v-86.77l6.28-6.24 6.27 6.23v86.78"/><path fill="none" stroke="#a02373" stroke-miterlimit="10" stroke-width=".845" d="M611.36 266.82l8.75-3.71m-15.02-2.52l-.01-12.43m-6.27 18.67l-8.75-3.72"/><path d="M606 348.41h-1.69v-4.47H606zm0-9.54h-1.69v-5.07H606zm0-10.14h-1.69v-5.07H606zm0-10.14h-1.69v-5.07H606zm0-10.14h-1.69v-5.07H606zm0-10.14h-1.69v-5.07H606zm0-10.14h-1.69v-5.07H606zm0-10.17h-1.69v-5H606zm-14.27 70.41H590v-4.47h1.69zm0-9.54H590v-5.07h1.69zm0-10.14H590v-5.07h1.69zm0-10.14H590v-5.07h1.69z" fill="#a02373"/><path fill="#a02373" opacity=".4" d="M583.58 353.6v-39.34l6.48-6.7v-44.45l15.02-14.95 15.03 14.95v90.49"/><path fill="#ee2a7b" stroke="#a02373" stroke-miterlimit="10" stroke-width=".845" d="M625.39 353.75v-29.03l13.77-13.71 13.78 13.71v29.03"/><path fill="#fce9f1" stroke="#a02373" stroke-linejoin="bevel" stroke-width=".845" d="M625.39 353.75v-29.03l13.77-13.71.02 13.71v29.03"/><path fill="#e9b7d5" stroke="#a02373" stroke-miterlimit="10" stroke-width=".845" d="M633.41 353.75v-25.62l5.75-5.72 5.75 5.71v25.63"/><path fill="none" stroke="#a02373" stroke-miterlimit="10" stroke-width=".845" d="M644.91 328.12l8.03-3.4m-13.77-2.31l-.01-11.4m-5.75 17.12l-8.02-3.41"/><path d="M640 348.77h-1.69v-5.07H640zm0-10.14h-1.69v-5.07H640zm-234.63 9.2h-1.69v-5.07h1.69zm0-10.14h-1.69v-5.07h1.69zm0-10.14h-1.69v-5.07h1.69zm0-10.14h-1.69v-5.07h1.69zm0-10.13h-1.69v-5.07h1.69zm0-10.14h-1.69v-5.07h1.69zm0-10.14h-1.69v-5.07h1.69zm0-10.14h-1.69v-5.07h1.69zm0-10.14h-1.69v-5.07h1.69zm0-10.14h-1.69v-5.07h1.69zm0-10.14h-1.69v-5.07h1.69zm0-10.14h-1.69v-5.06h1.69zm0-10.13h-1.69v-5.07h1.69zm0-10.14h-1.69V211h1.69zm0-10.14h-1.69v-5.07h1.69zm0-10.14h-1.69v-5.07h1.69zm0-10.14h-1.69v-5.07h1.69zm0-10.14h-1.69v-5.07h1.69zm0-10.14h-1.69v-5.06h1.69zm0-10.13h-1.69v-5.07h1.69zm5.2 192.63h-1.69v-5.07h1.69zm0-10.14h-1.69v-5.07h1.69zm0-10.14h-1.69v-5.07h1.69zm0-10.14h-1.69v-5.07h1.69zm0-10.13h-1.69v-5.07h1.69zm0-10.14h-1.69v-5.07h1.69zm0-10.14h-1.69v-5.07h1.69zm0-10.14h-1.69v-5.07h1.69zm0-10.14h-1.69v-5.07h1.69zm0-10.14h-1.69v-5.07h1.69zm0-10.14h-1.69v-5.07h1.69zm0-10.14h-1.69v-5.06h1.69zm0-10.13h-1.69v-5.07h1.69zm0-10.14h-1.69V211h1.69zm0-10.14h-1.69v-5.07h1.69zm0-10.14h-1.69v-5.07h1.69zm0-10.14h-1.69v-5.07h1.69zm0-10.14h-1.69v-5.07h1.69zm0-10.14h-1.69v-5.06h1.69zm0-10.13h-1.69v-5.07h1.69zm5.19 192.63h-1.68v-5.07h1.68zm0-10.14h-1.68v-5.07h1.68zm0-10.14h-1.68v-5.07h1.68zm0-10.14h-1.68v-5.07h1.68zm0-10.13h-1.68v-5.07h1.68zm0-10.14h-1.68v-5.07h1.68zm0-10.14h-1.68v-5.07h1.68zm0-10.14h-1.68v-5.07h1.68zm0-10.14h-1.68v-5.07h1.68zm0-10.14h-1.68v-5.07h1.68zm0-10.14h-1.68v-5.07h1.68zm0-10.14h-1.68v-5.06h1.68zm0-10.13h-1.68v-5.07h1.68zm0-10.14h-1.68V211h1.68zm0-10.14h-1.68v-5.07h1.68zm0-10.14h-1.68v-5.07h1.68zm0-10.14h-1.68v-5.07h1.68zm0-10.14h-1.68v-5.07h1.68zm0-10.14h-1.68v-5.06h1.68zm0-10.13h-1.68v-5.07h1.68zM421 347.83h-1.69v-5.07H421zm0-10.14h-1.69v-5.07H421zm0-10.14h-1.69v-5.07H421zm0-10.14h-1.69v-5.07H421zm0-10.13h-1.69v-5.07H421zm0-10.14h-1.69v-5.07H421zm0-10.14h-1.69v-5.07H421zm0-10.14h-1.69v-5.07H421zm0-10.14h-1.69v-5.07H421zm0-10.14h-1.69v-5.07H421zm0-10.14h-1.69v-5.07H421zm0-10.14h-1.69v-5.06H421zm0-10.13h-1.69v-5.07H421zm0-10.17h-1.69v-5H421zm0-10.14h-1.69v-5.07H421zm0-10.14h-1.69v-5.07H421zm0-10.14h-1.69v-5.07H421zm0-10.14h-1.69v-5.04H421zm0-10.14h-1.69v-5.06H421zm0-10.13h-1.69v-5.07H421zm5.16 192.66h-1.69v-5.07h1.69zm0-10.14h-1.69v-5.07h1.69zm0-10.14h-1.69v-5.07h1.69zm0-10.14h-1.69v-5.07h1.69zm0-10.13h-1.69v-5.07h1.69zm0-10.14h-1.69v-5.07h1.69zm0-10.14h-1.69v-5.07h1.69zm0-10.14h-1.69v-5.07h1.69zm0-10.14h-1.69v-5.07h1.69zm0-10.14h-1.69v-5.07h1.69zm0-10.14h-1.69v-5.07h1.69zm0-10.14h-1.69v-5.06h1.69zm0-10.13h-1.69v-5.07h1.69zm0-10.14h-1.69V211h1.69zm0-10.14h-1.69v-5.07h1.69zm0-10.14h-1.69v-5.07h1.69zm0-10.14h-1.69v-5.07h1.69zm0-10.14h-1.69v-5.07h1.69zm0-10.14h-1.69v-5.06h1.69zm0-10.13h-1.69v-5.07h1.69zm5.2 192.63h-1.69v-5.07h1.69zm0-10.14h-1.69v-5.07h1.69zm0-10.14h-1.69v-5.07h1.69zm0-10.14h-1.69v-5.07h1.69zm0-10.13h-1.69v-5.07h1.69zm0-10.14h-1.69v-5.07h1.69zm0-10.14h-1.69v-5.07h1.69zm0-10.14h-1.69v-5.07h1.69zm0-10.14h-1.69v-5.07h1.69zm0-10.14h-1.69v-5.07h1.69zm0-10.14h-1.69v-5.07h1.69zm0-10.14h-1.69v-5.06h1.69zm0-10.13h-1.69v-5.07h1.69zm0-10.14h-1.69V211h1.69zm0-10.14h-1.69v-5.07h1.69zm0-10.14h-1.69v-5.07h1.69zm0-10.14h-1.69v-5.07h1.69zm0-10.14h-1.69v-5.07h1.69zm0-10.14h-1.69v-5.06h1.69zm0-10.13h-1.69v-5.07h1.69z" fill="#a02373"/><path fill="none" stroke="#a02373" stroke-miterlimit="10" stroke-width=".845" d="M180.14 354.06h473.69"/><path fill="#ebb8d5" d="M417.52 87.38L413 91.87v31.88l4.52 4.5 4.5-4.48V91.85l-4.5-4.47z"/><path fill="#ee2a7b" d="M417.52 79.2v8.18l4.5 4.47v31.92l-4.5 4.48v8.17l10.25-10.2V89.4l-10.25-10.2z"/><path fill="#fde9f1" d="M417.52 79.2l-10.25 10.2v36.82l10.25 10.2v-8.17l-4.52-4.5V91.87l4.52-4.49V79.2z"/><path fill="none" stroke="#a02373" stroke-miterlimit="10" stroke-width=".845" d="M407.27 89.4l10.25-10.2 10.25 10.2v36.82l-10.25 10.2-10.25-10.2V89.4z"/><path fill="none" stroke="#a02373" stroke-miterlimit="10" stroke-width=".845" d="M413 91.87l4.52-4.49 4.5 4.47v31.92l-4.5 4.48-4.52-4.5V91.87zm0 0l-5.73-2.47m10.25-10.2v8.18m4.5 4.47l5.75-2.45m-5.75 34.37l5.75 2.45m-10.25 2.02v8.18m-10.25-10.2l5.73-2.47"/><path fill="#fff" d="M455.55 98.04h37.86v1.64h-37.86z"/><path fill="#68c180" d="M664.35 365.4H169.4l-31.86 38.72 557.27.49-30.46-39.21z"/><path style="mix-blend-mode:overlay" fill="url(#b)" d="M664.35 365.4H169.4l-31.86 38.72 557.27.49-30.46-39.21z"/><path style="mix-blend-mode:overlay" fill="url(#c)" d="M664.35 365.4H169.4l-31.86 38.72 557.27.49-30.46-39.21z"/><path style="mix-blend-mode:multiply" fill="#39b54a" d="M664.35 365.4H169.4l-31.86 38.72 557.27.49-30.46-39.21z"/><path style="mix-blend-mode:multiply" fill="#0fa04a" opacity=".25" d="M664.35 365.4H169.4l-31.86 38.72 557.27.49-30.46-39.21z"/><path d="M184.73 374.58a6.79 6.79 0 0 1-13.57 0m33.54 0a6.78 6.78 0 1 1-13.56 0m33.54 0a6.79 6.79 0 0 1-13.57 0m33.54 0a6.79 6.79 0 0 1-13.57 0m33.54 0a6.79 6.79 0 0 1-13.57 0m33.54 0a6.79 6.79 0 0 1-13.57 0m33.54 0a6.79 6.79 0 0 1-13.57 0m33.54 0a6.78 6.78 0 0 1-13.56 0m33.54 0a6.79 6.79 0 0 1-13.57 0m33.54 0a6.79 6.79 0 0 1-13.57 0m33.54 0a6.79 6.79 0 0 1-13.57 0m33.54 0a6.79 6.79 0 0 1-13.57 0m33.54 0a6.78 6.78 0 1 1-13.56 0m33.53 0a6.78 6.78 0 0 1-13.56 0m33.54 0a6.79 6.79 0 0 1-13.57 0m33.54 0a6.79 6.79 0 0 1-13.57 0m33.54 0a6.79 6.79 0 0 1-13.57 0m33.54 0a6.79 6.79 0 0 1-13.57 0m33.54 0a6.78 6.78 0 1 1-13.56 0m33.54 0a6.79 6.79 0 0 1-13.57 0m33.54 0a6.79 6.79 0 0 1-13.57 0m33.54 0a6.79 6.79 0 0 1-13.57 0m33.54 0a6.79 6.79 0 0 1-13.57 0m33.54 0a6.79 6.79 0 0 1-13.57 0m33.54 0a6.78 6.78 0 1 1-13.56 0m-475.93 13.86a6.79 6.79 0 1 1-13.57 0m33.54 0a6.79 6.79 0 1 1-13.57 0m33.54 0a6.79 6.79 0 1 1-13.57 0m33.54 0a6.78 6.78 0 1 1-13.56 0m33.53 0a6.78 6.78 0 1 1-13.56 0m33.54 0a6.79 6.79 0 1 1-13.57 0m33.54 0a6.79 6.79 0 1 1-13.57 0m33.54 0a6.79 6.79 0 1 1-13.57 0m33.54 0a6.79 6.79 0 1 1-13.57 0m33.54 0a6.78 6.78 0 1 1-13.56 0m33.54 0a6.79 6.79 0 1 1-13.57 0m33.54 0a6.79 6.79 0 1 1-13.57 0m33.54 0a6.79 6.79 0 1 1-13.57 0m33.54 0a6.79 6.79 0 1 1-13.57 0m33.54 0a6.79 6.79 0 1 1-13.57 0m33.54 0a6.78 6.78 0 1 1-13.56 0m33.54 0a6.79 6.79 0 1 1-13.57 0m33.54 0a6.79 6.79 0 1 1-13.57 0m33.54 0a6.79 6.79 0 1 1-13.57 0m33.52 0a6.79 6.79 0 1 1-13.57 0m33.57 0a6.78 6.78 0 1 1-13.56 0m33.56 0a6.79 6.79 0 1 1-13.57 0m33.51 0a6.79 6.79 0 1 1-13.57 0m33.54 0a6.79 6.79 0 1 1-13.57 0m33.54 0a6.79 6.79 0 1 1-13.57 0m33.92 0a6.79 6.79 0 1 1-13.57 0" style="mix-blend-mode:multiply" opacity=".55" fill="#0fa049"/><path fill="#a02373" d="M242.6 344.05h1.69v5.07h-1.69zm0-10.14h1.69v5.07h-1.69zm0-10.14h1.69v5.07h-1.69z"/><path fill="#a02373" d="M242.6 344.05h1.69v5.07h-1.69zm0-10.14h1.69v5.07h-1.69zm0-10.14h1.69v5.07h-1.69zm5.2 20.28h1.69v5.07h-1.69zm0-10.14h1.69v5.07h-1.69zm0-10.14h1.69v5.07h-1.69zm-5.2-10.02h1.69v5.07h-1.69zm5.2 0h1.69v5.07h-1.69z"/></g></svg>