<svg data-name="Layer 1" xmlns="http://www.w3.org/2000/svg" width="31.11" height="41.11" viewBox="0 0 31.11 41.11"><title>Artboard 8</title><path fill="#fde9f1" d="M5.62 2.65L2.17 10.3l7.61 19.97 7.67 3.41 3.45-7.65-7.61-19.97-7.67-3.41z"/><path fill="#ee2a7b" d="M5.62 2.65l11.83 31.03 3.45-7.65-7.61-19.97-7.67-3.41z"/><path fill="#ebb8d5" d="M7.08 6.48l-1.76 3.9 6.76 17.73 3.91 1.74 1.76-3.9-6.76-17.73-3.91-1.74z"/><path fill="#a02373" d="M8.11 23.49L3.09 10.32l2.96-6.55 6.57 2.93 5.02 13.16.8-.31-5.15-13.49-7.67-3.41-3.45 7.65 5.14 13.5.8-.31z"/><path fill="#a02373" d="M5.43 3.351l.804-.306L7.7 6.885l-.804.307zm4.69 5.104l2.491-2.343.59.626-2.492 2.343zm-7.58 2.349l.022-.86 3.419.091-.023.86z"/><path fill="#a02373" d="M10.84 22.45L6.25 10.41l1.26-2.8 2.81 1.25 4.59 12.04.8-.31-4.72-12.37-3.91-1.74-1.76 3.9 4.72 12.38.8-.31z"/><path fill="#a02373" d="M7.72 22.45l2.73 7.19 6.57 2.92L19.98 26l-2.74-7.18.8-.3 2.86 7.51-3.45 7.65-7.67-3.41-2.86-7.51.8-.31z"/><path fill="#a02373" d="M15.38 29.439l.803-.306 1.464 3.84-.803.306zm1.555-3.089l.023-.86 3.419.091-.023.86zm-7.21 3.296l2.491-2.343.59.626-2.492 2.344z"/><path fill="#a02373" d="M10.44 21.41l2.31 6.06 2.81 1.25 1.26-2.8-2.31-6.06.8-.3 2.44 6.39-1.76 3.9-3.91-1.74-2.44-6.39.8-.31z"/><path fill="#fde9f1" d="M25.65 2.76l-8.07 2.32L7.27 23.8l2.36 8.06 8.07-2.32 10.31-18.73-2.36-8.05z"/><path fill="#ee2a7b" d="M25.65 2.76L9.63 31.86l8.07-2.32 10.31-18.73-2.36-8.05z"/><path fill="#ebb8d5" d="M23.67 6.36l-4.11 1.18-9.15 16.62 1.2 4.1 4.11-1.18 9.15-16.62-1.2-4.1z"/><path fill="#a02373" d="M11.36 18.14l6.8-12.34 6.91-1.99 2.02 6.9-6.8 12.35.75.41 6.97-12.66-2.36-8.05-8.07 2.32-6.97 12.65.75.41z"/><path fill="#a02373" d="M23.005 6.674l1.982-3.601.754.415-1.982 3.6zm1.022 4.129l.097-.855 3.398.384-.096.854zm-6.581-5.121l.67-.539L20.26 7.81l-.67.539z"/><path fill="#a02373" d="M13.92 19.55l6.22-11.29 2.95-.85.86 2.95-6.21 11.29.75.41 6.38-11.6-1.2-4.1-4.11 1.18-6.39 11.6.75.41z"/><path fill="#a02373" d="M11.9 17.17L8.19 23.9l2.02 6.9 6.91-1.98 3.71-6.73.75.41-3.88 7.04-8.07 2.32-2.36-8.06 3.88-7.04.75.41z"/><path fill="#a02373" d="M9.546 31.12l1.981-3.6.754.415-1.982 3.6zm5.347-4.381l.67-.539 2.142 2.666-.67.539zm-7.373-2.54l.094-.851 3.386.376-.095.851z"/><path fill="#a02373" d="M14.46 18.58l-3.13 5.68.86 2.94 2.96-.84 3.12-5.68.75.41-3.3 5.99-4.11 1.18-1.2-4.1 3.3-6 .75.42z"/><path fill="none" stroke="#7c3990" stroke-linejoin="bevel" stroke-width=".845" d="M6.12 21.44L15.19 5.5l8.43 15.94H6.12z"/><path fill="#bd92c2" stroke="#7d398f" stroke-miterlimit="10" stroke-width=".845" d="M5.44 20.79v9.01l9.43 9.38 9.43-9.38v-9.01"/><path fill="#f5ebf4" stroke="#7d398f" stroke-linejoin="bevel" stroke-width=".845" d="M5.44 20.79v9.01l9.43 9.38.01-9.38v-9.01"/><path fill="#e6cbe2" stroke="#7d398f" stroke-miterlimit="10" stroke-width=".845" d="M18.8 20.79v6.68l-3.93 3.91-3.94-3.92v-6.67"/><path fill="none" stroke="#7d398f" stroke-miterlimit="10" stroke-width=".845" d="M18.81 27.47l5.49 2.33m-9.43 1.58v7.8m-3.94-11.72L5.44 29.8"/><path fill="none" stroke="#7d398f" stroke-linecap="square" stroke-linejoin="bevel" stroke-width=".845" d="M5.44 20.78H24.3"/></svg>