<svg data-name="Layer 1" xmlns="http://www.w3.org/2000/svg" width="21.6" height="32.75" viewBox="0 0 21.6 32.75"><title>Artboard 5</title><path fill="#fde9f1" d="M5.89 9.38v9.42h1.99v-8.61l-1.99-.81zm4.49-2.19V4.41L6.17 8.6l1.98.81 2.23-2.22z"/><path fill="#ee2a7b" d="M13.71 10.13v8.67h1.98V9.31l-1.98.82zm-.32-.76l1.98-.82-4.17-4.14v2.78l2.19 2.18z"/><path fill="#ebb8d5" d="M10.79 7.95L8.7 10.03v8.77h4.18v-8.77l-2.09-2.08z"/><path fill="#a02373" d="M5.89 9.38l-.65-.28.31-.76.62.26 4.21-4.19v-.99h.82v.99l4.17 4.14.51-.21.31.76-.5.21v9.49h.82V8.53l-5.72-5.69-5.72 5.69V18.8h.82V9.38z"/><path fill="#a02373" d="M10.79 6.79l.41.4V3.42h-.82v3.77l.41-.4zm2.92 2.89v.45l1.98-.82.5-.21-.31-.76-.51.21-1.98.82.32.31zm-5.83 0l.27-.27-1.98-.81-.62-.26-.31.76.65.28 1.99.81v-.51z"/><path fill="#a02373" d="M13.71 9.68l-.32-.31-2.19-2.18-.41-.4-.41.4-2.23 2.22-.27.27v9.12h.82v-8.77l2.09-2.08 2.09 2.08v8.77h.83V9.68z"/><path fill="#bd92c2" stroke="#7d398f" stroke-miterlimit="10" stroke-width=".845" d="M2.76 15.1v7.67l8.02 7.98 8.02-7.98V15.1"/><path fill="#f5ebf4" stroke="#7d398f" stroke-linejoin="bevel" stroke-width=".845" d="M2.76 15.1v7.67l8.02 7.98.01-7.98V15.1"/><path fill="#e6cbe2" stroke="#7d398f" stroke-miterlimit="10" stroke-width=".845" d="M14.13 15.1v5.69l-3.35 3.33-3.35-3.33V15.1"/><path fill="none" stroke="#7d398f" stroke-miterlimit="10" stroke-width=".845" d="M14.13 20.79l4.67 1.98m-8.02 1.35v6.63m-3.35-9.96l-4.67 1.98"/><path fill="none" stroke="#7d398f" stroke-linecap="square" stroke-linejoin="bevel" stroke-width=".845" d="M2.76 15.1H18.8"/></svg>