<svg data-name="Layer 1" xmlns="http://www.w3.org/2000/svg" width="168.25" height="170.5" viewBox="0 0 168.25 170.5"><title>Artboard 4</title><path d="M83.93 4.32a81.43 81.43 0 1 0 81.42 81.42A81.42 81.42 0 0 0 83.93 4.32zm0 157.24a75.82 75.82 0 1 1 75.81-75.82 75.83 75.83 0 0 1-75.81 75.82z" fill="#e6cae2" stroke="#7c3990" stroke-miterlimit="10" stroke-width=".845"/><path fill="none" stroke="#7c3990" stroke-miterlimit="10" stroke-width=".845" d="M83.93 71.67V10.08m0 151.27V99.76M69.88 85.71H8.29m151.27 0H97.98m-23.99-9.93L30.45 32.23m106.96 106.96L93.86 95.65m-19.87 0l-43.54 43.54M137.41 32.23L93.86 75.78"/><path fill="#e6cae2" stroke="#7c3990" stroke-miterlimit="10" stroke-width=".845" d="M98.11 90.35v-9.21l-5.42-7.46-8.76-2.85-8.77 2.85-5.41 7.46v9.21l5.41 7.46 8.77 2.85 8.76-2.85 5.42-7.46z"/><path d="M83.93 7a78.73 78.73 0 1 0 78.73 78.73A78.73 78.73 0 0 0 83.93 7z" fill="none" stroke="#7c3990" stroke-miterlimit="10" stroke-width=".845"/></svg>