<svg xmlns="http://www.w3.org/2000/svg" width="208.26" height="98.88" viewBox="0 0 208.26 98.88"><title>Artboard 52</title><g data-name="BOTTOM ILLOS" style="isolation:isolate"><path fill="none" stroke="#7d3990" stroke-miterlimit="10" d="M142.51 66.86H110.3m32.21-8.94H110.3"/><path fill="#fff" opacity=".4" d="M175.45 40.88V23.8l-14.79-8.54-14.78 8.54v17.08l14.78 8.54 14.79-8.54z"/><path fill="none" stroke="#7c3990" stroke-miterlimit="10" d="M175.45 40.88V23.8l-14.79-8.54-14.78 8.54v17.08l14.78 8.54 14.79-8.54z"/><path fill="#da1c5c" d="M138.95 60.98v9.46h46.2l-4.02-9.46h-42.18zm44.2-.85l4.02 9.48 16.91-16.99h-13.46l-7.47 7.51z"/><path fill="#7c3990" d="M208.26 51.52l-.76-.77-.78.77v1.1h-2.64l-16.91 16.99.64 1.5-2.02.86-.64-1.53h-46.2v2.2h48.31l21-21.12z"/><path fill="#f6ebf4" d="M190.62 50.42h13.46l-16.91-16.99-4.02 9.48 7.47 7.51zm-5.48-17.82h-46.19v9.46h42.17l4.02-9.46zm21.58 18.92z"/><path fill="#7d398f" d="M138.95 32.6h46.19l.65-1.53 2.02.86-.64 1.5 16.91 16.99h2.64v1.1l.78-.77-20.24-20.35h-48.31v2.2zm43.36 28.38h-1.18l4.02 9.46.64 1.53 2.02-.86-.64-1.5-4.02-9.48-.84.85z"/><path fill="#7d398f" d="M206.72 50.42h-16.1l1.09 1.1-1.09 1.1h16.1v-2.2zm-24.42-8.36l.85.85 4.02-9.48.64-1.5-2.02-.86-.65 1.53-4.02 9.46h1.18z"/><path fill="#e6cbe2" d="M188.61 51.52l-7.22-7.26h-42.44v14.52h42.45l7.21-7.26z"/><path fill="#7d398f" d="M182.31 60.98l.84-.85 7.47-7.51 1.09-1.1-1.09-1.1-7.47-7.51-.85-.85h-43.35v2.2h42.44l7.22 7.26-7.21 7.26h-42.45v2.2h43.36z"/><path fill="#7d398f" d="M141.14 30.4h-2.2l.01 34.85v7.38h2.19v-7.38"/><path fill="#bd92c2" stroke="#7d3990" stroke-miterlimit="10" d="M36.8 52.79h75.12v19.19H36.8z"/><path fill="#e6cbe2" stroke="#7d3990" stroke-miterlimit="10" d="M36.8 52.79h75.12v9.67H36.8z"/><path fill="#ebb8d5" d="M108.43 29.78L99.2 20.5H33.78l-9.23 9.28 9.18 9.24h65.51l9.19-9.24z"/><path fill="#ee2a7b" d="M125.21 29.78h-16.78l-9.19 9.24H33.73l-9.18-9.24H7.76L28.7 50.82h75.58l20.93-21.04z"/><path fill="#fde9f1" d="M125.21 29.78L104.28 8.73H28.7L7.76 29.78h16.79l9.23-9.28H99.2l9.23 9.28h16.78z"/><path fill="none" stroke="#a02373" stroke-miterlimit="10" d="M104.28 8.73l20.93 21.05-20.93 21.04H28.7L7.76 29.78 28.7 8.73h75.58z"/><path fill="none" stroke="#a02373" stroke-miterlimit="10" d="M99.2 20.5l9.23 9.28-9.19 9.24H33.73l-9.18-9.24 9.23-9.28H99.2zm0 0l5.08-11.77m20.93 21.05h-16.78m-9.19 9.23l5.04 11.81M33.73 39.01L28.7 50.82m-4.15-21.04H7.76M28.7 8.73l5.08 11.77"/><path d="M76.14 51.9zm-16.63.72L76.14 8.05l16.64 44.57" fill="none" stroke="#7c3990" stroke-linejoin="bevel"/><rect x="47.75" y="83.55" width="135.37" height="8.77" rx="3.73" ry="3.73" style="mix-blend-mode:multiply" fill="#c9c9c9" opacity=".45"/></g></svg>