<svg xmlns="http://www.w3.org/2000/svg" width="239.33" height="297.53" viewBox="0 0 239.33 297.53"><title>Artboard 32</title><g id="ILLO_4" data-name="ILLO 4"><rect x="9.8" y="70.15" width="220.09" height="228.81" transform="translate(-64.71 304.39) rotate(-90)" style="fill:#d1ecf2;opacity:0.4"/><line x1="28.19" y1="95.51" x2="5.44" y2="74.51" style="fill:none;stroke:#7d3990;stroke-miterlimit:10"/><line x1="211.49" y1="95.51" x2="234.24" y2="74.51" style="fill:none;stroke:#7d3990;stroke-miterlimit:10"/><polyline points="211.49 290.34 211.49 95.51 28.19 95.51 28.2 290.34" style="fill:none;stroke:#7d3990;stroke-miterlimit:10"/><rect x="175.32" y="45.28" width="46.92" height="8.9" transform="translate(59.2 199.74) rotate(-61.11)" style="fill:#e6cbe2;stroke:#7d3990;stroke-miterlimit:10"/><polyline points="210.84 31.65 214.01 31.34 191.34 72.41 188.17 72.73" style="fill:#e299c3;stroke:#7d3990;stroke-miterlimit:10"/><polygon points="220.75 9.92 205.28 14.35 203.33 17.87 200.61 22.8 199.68 24.49 204.18 39.94 219.65 35.52 220.59 33.83 223.31 28.89 225.25 25.37 220.75 9.92" style="fill:#da1c5c;stroke:#7c3990;stroke-miterlimit:10"/><polyline points="220.75 9.92 205.28 14.35 203.33 17.87 200.61 22.8 199.68 24.49 204.18 39.94" style="fill:#f6ebf4;stroke:#7d3990;stroke-miterlimit:10"/><line x1="215.2" y1="29.84" x2="219.65" y2="35.52" style="fill:none;stroke:#7d3990;stroke-miterlimit:10"/><line x1="208.74" y1="31.68" x2="204.18" y2="39.94" style="fill:none;stroke:#7d3990;stroke-miterlimit:10"/><line x1="206.86" y1="25.23" x2="199.68" y2="24.49" style="fill:none;stroke:#7d3990;stroke-miterlimit:10"/><line x1="218.07" y1="24.63" x2="225.26" y2="25.37" style="fill:none;stroke:#7d3990;stroke-miterlimit:10"/><line x1="216.19" y1="18.18" x2="220.75" y2="9.92" style="fill:none;stroke:#7d3990;stroke-miterlimit:10"/><line x1="209.73" y1="20.03" x2="205.28" y2="14.34" style="fill:none;stroke:#7d3990;stroke-miterlimit:10"/><polygon points="216.19 18.18 209.73 20.03 209.15 21.08 207.23 24.56 206.86 25.23 208.74 31.68 215.2 29.84 215.57 29.16 217.49 25.68 218.07 24.63 216.19 18.18" style="fill:#e6cbe2;stroke:#7d3990;stroke-miterlimit:10"/><polyline points="216.14 63.57 216.14 58.62 172.84 58.62 172.84 63.57" style="fill:#e6cbe2;stroke:#7d3990;stroke-miterlimit:10"/><rect x="5.44" y="269.82" width="25.44" height="24.75" style="fill:#bd92c2;stroke:#7d3990;stroke-miterlimit:10"/><polygon points="7.44 292.62 5.46 294.57 5.46 269.79 30.88 269.79 28.87 271.77 7.44 271.77 7.44 292.62" style="fill:#f6ebf4"/><rect x="7.44" y="271.77" width="21.43" height="20.85" style="fill:#e6cbe2;stroke:#7d3990;stroke-miterlimit:10"/><line x1="7.44" y1="271.77" x2="5.46" y2="269.79" style="fill:#da1c5c;stroke:#7c3990;stroke-miterlimit:10"/><line x1="28.87" y1="271.77" x2="30.85" y2="269.79" style="fill:#da1c5c;stroke:#7c3990;stroke-miterlimit:10"/><line x1="28.87" y1="292.62" x2="30.85" y2="294.6" style="fill:#da1c5c;stroke:#7c3990;stroke-miterlimit:10"/><line x1="7.44" y1="292.62" x2="5.46" y2="294.6" style="fill:#da1c5c;stroke:#7c3990;stroke-miterlimit:10"/><rect x="5.44" y="269.82" width="25.44" height="24.75" style="fill:none;stroke:#7c3990;stroke-miterlimit:10"/><circle cx="10.6" cy="290.03" r="0.82" style="fill:#bd92c2;stroke:#7d3990;stroke-miterlimit:10"/><circle cx="26.31" cy="274.32" r="0.82" style="fill:#bd92c2;stroke:#7d3990;stroke-miterlimit:10"/><circle cx="26.31" cy="290.03" r="0.82" style="fill:#bd92c2;stroke:#7d3990;stroke-miterlimit:10"/><circle cx="10.6" cy="274.32" r="0.82" style="fill:#bd92c2;stroke:#7d3990;stroke-miterlimit:10"/><rect x="5.44" y="244.99" width="25.44" height="24.75" style="fill:#be77b2;stroke:#7d3990;stroke-miterlimit:10"/><polygon points="7.44 267.79 5.46 269.74 5.46 244.97 30.88 244.97 28.87 246.94 7.44 246.94 7.44 267.79" style="fill:#f2bdd8"/><rect x="7.44" y="246.94" width="21.43" height="20.85" style="fill:#e181b5;stroke:#7d3990;stroke-miterlimit:10"/><line x1="7.44" y1="246.94" x2="5.46" y2="244.96" style="fill:#da1c5c;stroke:#7c3990;stroke-miterlimit:10"/><line x1="28.87" y1="246.94" x2="30.85" y2="244.96" style="fill:#da1c5c;stroke:#7c3990;stroke-miterlimit:10"/><line x1="28.87" y1="267.79" x2="30.85" y2="269.77" style="fill:#da1c5c;stroke:#7c3990;stroke-miterlimit:10"/><line x1="7.44" y1="267.79" x2="5.46" y2="269.77" style="fill:#da1c5c;stroke:#7c3990;stroke-miterlimit:10"/><rect x="5.44" y="244.99" width="25.44" height="24.75" style="fill:none;stroke:#7c3990;stroke-miterlimit:10"/><circle cx="10.6" cy="265.21" r="0.82" style="fill:#bd92c2;stroke:#7d3990;stroke-miterlimit:10"/><circle cx="26.31" cy="249.5" r="0.82" style="fill:#bd92c2;stroke:#7d3990;stroke-miterlimit:10"/><circle cx="26.31" cy="265.21" r="0.82" style="fill:#bd92c2;stroke:#7d3990;stroke-miterlimit:10"/><circle cx="10.6" cy="249.5" r="0.82" style="fill:#bd92c2;stroke:#7d3990;stroke-miterlimit:10"/><rect x="5.44" y="220.17" width="25.44" height="24.75" style="fill:#c3765e;stroke:#7d3990;stroke-miterlimit:10"/><polygon points="7.44 242.97 5.46 244.92 5.46 220.14 30.88 220.14 28.87 222.12 7.44 222.12 7.44 242.97" style="fill:#f3b9a6"/><rect x="7.44" y="222.12" width="21.43" height="20.85" style="fill:#e37f79;stroke:#7d3990;stroke-miterlimit:10"/><line x1="7.44" y1="222.12" x2="5.46" y2="220.14" style="fill:#da1c5c;stroke:#7c3990;stroke-miterlimit:10"/><line x1="28.87" y1="222.12" x2="30.85" y2="220.14" style="fill:#da1c5c;stroke:#7c3990;stroke-miterlimit:10"/><line x1="28.87" y1="242.97" x2="30.85" y2="244.95" style="fill:#da1c5c;stroke:#7c3990;stroke-miterlimit:10"/><line x1="7.44" y1="242.97" x2="5.46" y2="244.95" style="fill:#da1c5c;stroke:#7c3990;stroke-miterlimit:10"/><rect x="5.44" y="220.17" width="25.44" height="24.75" style="fill:none;stroke:#7c3990;stroke-miterlimit:10"/><circle cx="10.6" cy="240.38" r="0.82" style="fill:#bd92c2;stroke:#7d3990;stroke-miterlimit:10"/><circle cx="26.31" cy="224.67" r="0.82" style="fill:#bd92c2;stroke:#7d3990;stroke-miterlimit:10"/><circle cx="26.31" cy="240.38" r="0.82" style="fill:#bd92c2;stroke:#7d3990;stroke-miterlimit:10"/><circle cx="10.6" cy="224.67" r="0.82" style="fill:#bd92c2;stroke:#7d3990;stroke-miterlimit:10"/><rect x="5.44" y="195.34" width="25.44" height="24.75" style="fill:#0a90d0;stroke:#7d3990;stroke-miterlimit:10"/><polygon points="7.44 218.14 5.46 220.09 5.46 195.31 30.88 195.31 28.87 197.29 7.44 197.29 7.44 218.14" style="fill:#afe0ee"/><rect x="7.44" y="197.29" width="21.43" height="20.85" style="fill:#44b9dc;stroke:#7d3990;stroke-miterlimit:10"/><line x1="7.44" y1="197.29" x2="5.46" y2="195.31" style="fill:#da1c5c;stroke:#7c3990;stroke-miterlimit:10"/><line x1="28.87" y1="197.29" x2="30.85" y2="195.31" style="fill:#da1c5c;stroke:#7c3990;stroke-miterlimit:10"/><line x1="28.87" y1="218.14" x2="30.85" y2="220.12" style="fill:#da1c5c;stroke:#7c3990;stroke-miterlimit:10"/><line x1="7.44" y1="218.14" x2="5.46" y2="220.12" style="fill:#da1c5c;stroke:#7c3990;stroke-miterlimit:10"/><rect x="5.44" y="195.34" width="25.44" height="24.75" style="fill:none;stroke:#7c3990;stroke-miterlimit:10"/><circle cx="10.6" cy="215.56" r="0.82" style="fill:#bd92c2;stroke:#7d3990;stroke-miterlimit:10"/><circle cx="26.31" cy="199.85" r="0.82" style="fill:#bd92c2;stroke:#7d3990;stroke-miterlimit:10"/><circle cx="26.31" cy="215.56" r="0.82" style="fill:#bd92c2;stroke:#7d3990;stroke-miterlimit:10"/><circle cx="10.6" cy="199.85" r="0.82" style="fill:#bd92c2;stroke:#7d3990;stroke-miterlimit:10"/><rect x="30.86" y="269.82" width="25.44" height="24.75" style="fill:#c15342;stroke:#7d3990;stroke-miterlimit:10"/><polygon points="32.86 292.62 30.88 294.57 30.88 269.79 56.3 269.79 54.29 271.77 32.86 271.77 32.86 292.62" style="fill:#ef8461"/><rect x="32.86" y="271.77" width="21.43" height="20.85" style="fill:#e25e4f;stroke:#7d3990;stroke-miterlimit:10"/><line x1="32.86" y1="271.77" x2="30.88" y2="269.79" style="fill:#da1c5c;stroke:#7c3990;stroke-miterlimit:10"/><line x1="54.29" y1="271.77" x2="56.27" y2="269.79" style="fill:#da1c5c;stroke:#7c3990;stroke-miterlimit:10"/><line x1="54.29" y1="292.62" x2="56.27" y2="294.6" style="fill:#da1c5c;stroke:#7c3990;stroke-miterlimit:10"/><line x1="32.86" y1="292.62" x2="30.88" y2="294.6" style="fill:#da1c5c;stroke:#7c3990;stroke-miterlimit:10"/><rect x="30.86" y="269.82" width="25.44" height="24.75" style="fill:none;stroke:#7c3990;stroke-miterlimit:10"/><circle cx="36.02" cy="290.03" r="0.82" style="fill:#bd92c2;stroke:#7d3990;stroke-miterlimit:10"/><circle cx="51.73" cy="274.32" r="0.82" style="fill:#bd92c2;stroke:#7d3990;stroke-miterlimit:10"/><circle cx="51.73" cy="290.03" r="0.82" style="fill:#bd92c2;stroke:#7d3990;stroke-miterlimit:10"/><circle cx="36.02" cy="274.32" r="0.82" style="fill:#bd92c2;stroke:#7d3990;stroke-miterlimit:10"/><rect x="30.86" y="244.99" width="25.44" height="24.75" style="fill:#30a248;stroke:#7d3990;stroke-miterlimit:10"/><polygon points="32.86 267.79 30.88 269.74 30.88 244.97 56.3 244.97 54.29 246.94 32.86 246.94 32.86 267.79" style="fill:#9dcd64"/><rect x="32.86" y="246.94" width="21.43" height="20.85" style="fill:#7bc143;stroke:#7d3990;stroke-miterlimit:10"/><line x1="32.86" y1="246.94" x2="30.88" y2="244.96" style="fill:#da1c5c;stroke:#7c3990;stroke-miterlimit:10"/><line x1="54.29" y1="246.94" x2="56.27" y2="244.96" style="fill:#da1c5c;stroke:#7c3990;stroke-miterlimit:10"/><line x1="54.29" y1="267.79" x2="56.27" y2="269.77" style="fill:#da1c5c;stroke:#7c3990;stroke-miterlimit:10"/><line x1="32.86" y1="267.79" x2="30.88" y2="269.77" style="fill:#da1c5c;stroke:#7c3990;stroke-miterlimit:10"/><rect x="30.86" y="244.99" width="25.44" height="24.75" style="fill:none;stroke:#7c3990;stroke-miterlimit:10"/><circle cx="36.02" cy="265.21" r="0.82" style="fill:#bd92c2;stroke:#7d3990;stroke-miterlimit:10"/><circle cx="51.73" cy="249.5" r="0.82" style="fill:#bd92c2;stroke:#7d3990;stroke-miterlimit:10"/><circle cx="51.73" cy="265.21" r="0.82" style="fill:#bd92c2;stroke:#7d3990;stroke-miterlimit:10"/><circle cx="36.02" cy="249.5" r="0.82" style="fill:#bd92c2;stroke:#7d3990;stroke-miterlimit:10"/><rect x="30.86" y="220.17" width="25.44" height="24.75" style="fill:#be77b2;stroke:#7d3990;stroke-miterlimit:10"/><polygon points="32.86 242.97 30.88 244.92 30.88 220.14 56.3 220.14 54.29 222.12 32.86 222.12 32.86 242.97" style="fill:#f2bdd8"/><rect x="32.86" y="222.12" width="21.43" height="20.85" style="fill:#e181b5;stroke:#7d3990;stroke-miterlimit:10"/><line x1="32.86" y1="222.12" x2="30.88" y2="220.14" style="fill:#da1c5c;stroke:#7c3990;stroke-miterlimit:10"/><line x1="54.29" y1="222.12" x2="56.27" y2="220.14" style="fill:#da1c5c;stroke:#7c3990;stroke-miterlimit:10"/><line x1="54.29" y1="242.97" x2="56.27" y2="244.95" style="fill:#da1c5c;stroke:#7c3990;stroke-miterlimit:10"/><line x1="32.86" y1="242.97" x2="30.88" y2="244.95" style="fill:#da1c5c;stroke:#7c3990;stroke-miterlimit:10"/><rect x="30.86" y="220.17" width="25.44" height="24.75" style="fill:none;stroke:#7c3990;stroke-miterlimit:10"/><circle cx="36.02" cy="240.38" r="0.82" style="fill:#bd92c2;stroke:#7d3990;stroke-miterlimit:10"/><circle cx="51.73" cy="224.67" r="0.82" style="fill:#bd92c2;stroke:#7d3990;stroke-miterlimit:10"/><circle cx="51.73" cy="240.38" r="0.82" style="fill:#bd92c2;stroke:#7d3990;stroke-miterlimit:10"/><circle cx="36.02" cy="224.67" r="0.82" style="fill:#bd92c2;stroke:#7d3990;stroke-miterlimit:10"/><rect x="157.94" y="269.78" width="25.44" height="24.75" style="fill:#be77b2;stroke:#7d3990;stroke-miterlimit:10"/><polygon points="159.95 292.58 157.97 294.53 157.97 269.75 183.38 269.75 181.37 271.73 159.95 271.73 159.95 292.58" style="fill:#f2bdd8"/><rect x="159.95" y="271.73" width="21.43" height="20.85" style="fill:#e181b5;stroke:#7d3990;stroke-miterlimit:10"/><line x1="159.95" y1="271.73" x2="157.97" y2="269.75" style="fill:#da1c5c;stroke:#7c3990;stroke-miterlimit:10"/><line x1="181.37" y1="271.73" x2="183.35" y2="269.75" style="fill:#da1c5c;stroke:#7c3990;stroke-miterlimit:10"/><line x1="181.37" y1="292.58" x2="183.35" y2="294.56" style="fill:#da1c5c;stroke:#7c3990;stroke-miterlimit:10"/><line x1="159.95" y1="292.58" x2="157.97" y2="294.56" style="fill:#da1c5c;stroke:#7c3990;stroke-miterlimit:10"/><rect x="157.94" y="269.78" width="25.44" height="24.75" style="fill:none;stroke:#7c3990;stroke-miterlimit:10"/><circle cx="163.11" cy="290" r="0.82" style="fill:#bd92c2;stroke:#7d3990;stroke-miterlimit:10"/><circle cx="178.82" cy="274.29" r="0.82" style="fill:#bd92c2;stroke:#7d3990;stroke-miterlimit:10"/><circle cx="178.82" cy="290" r="0.82" style="fill:#bd92c2;stroke:#7d3990;stroke-miterlimit:10"/><circle cx="163.11" cy="274.29" r="0.82" style="fill:#bd92c2;stroke:#7d3990;stroke-miterlimit:10"/><rect x="183.36" y="269.78" width="25.44" height="24.75" style="fill:#a4478a;stroke:#7d3990;stroke-miterlimit:10"/><polygon points="185.37 292.58 183.39 294.53 183.39 269.75 208.8 269.75 206.79 271.73 185.37 271.73 185.37 292.58" style="fill:#f2bdd8"/><rect x="185.37" y="271.73" width="21.43" height="20.85" style="fill:#ef4885;stroke:#7d3990;stroke-miterlimit:10"/><line x1="185.37" y1="271.73" x2="183.39" y2="269.75" style="fill:#da1c5c;stroke:#7c3990;stroke-miterlimit:10"/><line x1="206.79" y1="271.73" x2="208.77" y2="269.75" style="fill:#da1c5c;stroke:#7c3990;stroke-miterlimit:10"/><line x1="206.79" y1="292.58" x2="208.77" y2="294.56" style="fill:#da1c5c;stroke:#7c3990;stroke-miterlimit:10"/><line x1="185.37" y1="292.58" x2="183.39" y2="294.56" style="fill:#da1c5c;stroke:#7c3990;stroke-miterlimit:10"/><rect x="183.36" y="269.78" width="25.44" height="24.75" style="fill:none;stroke:#7c3990;stroke-miterlimit:10"/><circle cx="188.53" cy="290" r="0.82" style="fill:#bd92c2;stroke:#7d3990;stroke-miterlimit:10"/><circle cx="204.24" cy="274.29" r="0.82" style="fill:#bd92c2;stroke:#7d3990;stroke-miterlimit:10"/><circle cx="204.24" cy="290" r="0.82" style="fill:#bd92c2;stroke:#7d3990;stroke-miterlimit:10"/><circle cx="188.53" cy="274.29" r="0.82" style="fill:#bd92c2;stroke:#7d3990;stroke-miterlimit:10"/><rect x="183.36" y="244.96" width="25.44" height="24.75" style="fill:#964f85;stroke:#7d3990;stroke-miterlimit:10"/><polygon points="185.37 267.75 183.39 269.71 183.39 244.93 208.8 244.93 206.79 246.91 185.37 246.91 185.37 267.75" style="fill:#f2bdd8"/><rect x="185.37" y="246.91" width="21.43" height="20.85" style="fill:#984e9e;stroke:#7d3990;stroke-miterlimit:10"/><line x1="185.37" y1="246.91" x2="183.39" y2="244.93" style="fill:#da1c5c;stroke:#7c3990;stroke-miterlimit:10"/><line x1="206.79" y1="246.91" x2="208.77" y2="244.93" style="fill:#da1c5c;stroke:#7c3990;stroke-miterlimit:10"/><line x1="206.79" y1="267.76" x2="208.77" y2="269.74" style="fill:#da1c5c;stroke:#7c3990;stroke-miterlimit:10"/><line x1="185.37" y1="267.76" x2="183.39" y2="269.74" style="fill:#da1c5c;stroke:#7c3990;stroke-miterlimit:10"/><rect x="183.36" y="244.96" width="25.44" height="24.75" style="fill:none;stroke:#7c3990;stroke-miterlimit:10"/><circle cx="188.53" cy="265.17" r="0.82" style="fill:#bd92c2;stroke:#7d3990;stroke-miterlimit:10"/><circle cx="204.24" cy="249.46" r="0.82" style="fill:#bd92c2;stroke:#7d3990;stroke-miterlimit:10"/><circle cx="204.24" cy="265.17" r="0.82" style="fill:#bd92c2;stroke:#7d3990;stroke-miterlimit:10"/><circle cx="188.53" cy="249.46" r="0.82" style="fill:#bd92c2;stroke:#7d3990;stroke-miterlimit:10"/><rect x="30.86" y="195.34" width="25.44" height="24.75" style="fill:#b16e2c;stroke:#7d3990;stroke-miterlimit:10"/><polygon points="32.86 218.14 30.88 220.09 30.88 195.31 56.3 195.31 54.29 197.29 32.86 197.29 32.86 218.14" style="fill:#e1d768"/><rect x="32.86" y="197.29" width="21.43" height="20.85" style="fill:#fff34d;stroke:#7d3990;stroke-miterlimit:10"/><line x1="32.86" y1="197.29" x2="30.88" y2="195.31" style="fill:#da1c5c;stroke:#7c3990;stroke-miterlimit:10"/><line x1="54.29" y1="197.29" x2="56.27" y2="195.31" style="fill:#da1c5c;stroke:#7c3990;stroke-miterlimit:10"/><line x1="54.29" y1="218.14" x2="56.27" y2="220.12" style="fill:#da1c5c;stroke:#7c3990;stroke-miterlimit:10"/><line x1="32.86" y1="218.14" x2="30.88" y2="220.12" style="fill:#da1c5c;stroke:#7c3990;stroke-miterlimit:10"/><rect x="30.86" y="195.34" width="25.44" height="24.75" style="fill:none;stroke:#7c3990;stroke-miterlimit:10"/><circle cx="36.02" cy="215.56" r="0.82" style="fill:#bd92c2;stroke:#7d3990;stroke-miterlimit:10"/><circle cx="51.73" cy="199.85" r="0.82" style="fill:#bd92c2;stroke:#7d3990;stroke-miterlimit:10"/><circle cx="51.73" cy="215.56" r="0.82" style="fill:#bd92c2;stroke:#7d3990;stroke-miterlimit:10"/><circle cx="36.02" cy="199.85" r="0.82" style="fill:#bd92c2;stroke:#7d3990;stroke-miterlimit:10"/><rect x="30.86" y="170.52" width="25.44" height="24.75" style="fill:#c36b52;stroke:#7d3990;stroke-miterlimit:10"/><polygon points="32.86 193.32 30.88 195.27 30.88 170.49 56.3 170.49 54.29 172.47 32.86 172.47 32.86 193.32" style="fill:#f5bca7"/><rect x="32.86" y="172.47" width="21.43" height="20.85" style="fill:#fecf8c;stroke:#7d3990;stroke-miterlimit:10"/><line x1="32.86" y1="172.47" x2="30.88" y2="170.49" style="fill:#da1c5c;stroke:#7c3990;stroke-miterlimit:10"/><line x1="54.29" y1="172.47" x2="56.27" y2="170.49" style="fill:#da1c5c;stroke:#7c3990;stroke-miterlimit:10"/><line x1="54.29" y1="193.32" x2="56.27" y2="195.3" style="fill:#da1c5c;stroke:#7c3990;stroke-miterlimit:10"/><line x1="32.86" y1="193.32" x2="30.88" y2="195.3" style="fill:#da1c5c;stroke:#7c3990;stroke-miterlimit:10"/><rect x="30.86" y="170.52" width="25.44" height="24.75" style="fill:none;stroke:#7c3990;stroke-miterlimit:10"/><circle cx="36.02" cy="190.73" r="0.82" style="fill:#bd92c2;stroke:#7d3990;stroke-miterlimit:10"/><circle cx="51.73" cy="175.03" r="0.82" style="fill:#bd92c2;stroke:#7d3990;stroke-miterlimit:10"/><circle cx="51.73" cy="190.73" r="0.82" style="fill:#bd92c2;stroke:#7d3990;stroke-miterlimit:10"/><circle cx="36.02" cy="175.03" r="0.82" style="fill:#bd92c2;stroke:#7d3990;stroke-miterlimit:10"/><rect x="56.28" y="269.82" width="25.44" height="24.75" style="fill:#a27747;stroke:#7d3990;stroke-miterlimit:10"/><polygon points="58.28 292.62 56.3 294.57 56.3 269.79 81.72 269.79 79.71 271.77 58.28 271.77 58.28 292.62" style="fill:#fbe38b"/><rect x="58.29" y="271.77" width="21.43" height="20.85" style="fill:#edc44f;stroke:#7d3990;stroke-miterlimit:10"/><line x1="58.29" y1="271.77" x2="56.3" y2="269.79" style="fill:#da1c5c;stroke:#7c3990;stroke-miterlimit:10"/><line x1="79.71" y1="271.77" x2="81.69" y2="269.79" style="fill:#da1c5c;stroke:#7c3990;stroke-miterlimit:10"/><line x1="79.71" y1="292.62" x2="81.69" y2="294.6" style="fill:#da1c5c;stroke:#7c3990;stroke-miterlimit:10"/><line x1="58.29" y1="292.62" x2="56.3" y2="294.6" style="fill:#da1c5c;stroke:#7c3990;stroke-miterlimit:10"/><rect x="56.28" y="269.82" width="25.44" height="24.75" style="fill:none;stroke:#7c3990;stroke-miterlimit:10"/><circle cx="61.45" cy="290.03" r="0.82" style="fill:#bd92c2;stroke:#7d3990;stroke-miterlimit:10"/><circle cx="77.15" cy="274.32" r="0.82" style="fill:#bd92c2;stroke:#7d3990;stroke-miterlimit:10"/><circle cx="77.15" cy="290.03" r="0.82" style="fill:#bd92c2;stroke:#7d3990;stroke-miterlimit:10"/><circle cx="61.45" cy="274.32" r="0.82" style="fill:#bd92c2;stroke:#7d3990;stroke-miterlimit:10"/><rect x="56.28" y="244.99" width="25.44" height="24.75" style="fill:#bd92c2;stroke:#7d3990;stroke-miterlimit:10"/><polygon points="58.28 267.79 56.3 269.74 56.3 244.97 81.72 244.97 79.71 246.94 58.28 246.94 58.28 267.79" style="fill:#f6ebf4"/><rect x="58.29" y="246.94" width="21.43" height="20.85" style="fill:#e6cbe2;stroke:#7d3990;stroke-miterlimit:10"/><line x1="58.29" y1="246.94" x2="56.3" y2="244.96" style="fill:#da1c5c;stroke:#7c3990;stroke-miterlimit:10"/><line x1="79.71" y1="246.94" x2="81.69" y2="244.96" style="fill:#da1c5c;stroke:#7c3990;stroke-miterlimit:10"/><line x1="79.71" y1="267.79" x2="81.69" y2="269.77" style="fill:#da1c5c;stroke:#7c3990;stroke-miterlimit:10"/><line x1="58.29" y1="267.79" x2="56.3" y2="269.77" style="fill:#da1c5c;stroke:#7c3990;stroke-miterlimit:10"/><rect x="56.28" y="244.99" width="25.44" height="24.75" style="fill:none;stroke:#7c3990;stroke-miterlimit:10"/><circle cx="61.45" cy="265.21" r="0.82" style="fill:#bd92c2;stroke:#7d3990;stroke-miterlimit:10"/><circle cx="77.15" cy="249.5" r="0.82" style="fill:#bd92c2;stroke:#7d3990;stroke-miterlimit:10"/><circle cx="77.15" cy="265.21" r="0.82" style="fill:#bd92c2;stroke:#7d3990;stroke-miterlimit:10"/><circle cx="61.45" cy="249.5" r="0.82" style="fill:#bd92c2;stroke:#7d3990;stroke-miterlimit:10"/><rect x="56.28" y="220.17" width="25.44" height="24.75" style="fill:#7e84c0;stroke:#7d3990;stroke-miterlimit:10"/><polygon points="58.28 242.97 56.3 244.92 56.3 220.14 81.72 220.14 79.71 222.12 58.28 222.12 58.28 242.97" style="fill:#9cccee"/><rect x="58.29" y="222.12" width="21.43" height="20.85" style="fill:#00bff3;stroke:#7d3990;stroke-miterlimit:10"/><line x1="58.29" y1="222.12" x2="56.3" y2="220.14" style="fill:#da1c5c;stroke:#7c3990;stroke-miterlimit:10"/><line x1="79.71" y1="222.12" x2="81.69" y2="220.14" style="fill:#da1c5c;stroke:#7c3990;stroke-miterlimit:10"/><line x1="79.71" y1="242.97" x2="81.69" y2="244.95" style="fill:#da1c5c;stroke:#7c3990;stroke-miterlimit:10"/><line x1="58.29" y1="242.97" x2="56.3" y2="244.95" style="fill:#da1c5c;stroke:#7c3990;stroke-miterlimit:10"/><rect x="56.28" y="220.17" width="25.44" height="24.75" style="fill:none;stroke:#7c3990;stroke-miterlimit:10"/><circle cx="61.45" cy="240.38" r="0.82" style="fill:#bd92c2;stroke:#7d3990;stroke-miterlimit:10"/><circle cx="77.15" cy="224.67" r="0.82" style="fill:#bd92c2;stroke:#7d3990;stroke-miterlimit:10"/><circle cx="77.15" cy="240.38" r="0.82" style="fill:#bd92c2;stroke:#7d3990;stroke-miterlimit:10"/><circle cx="61.45" cy="224.67" r="0.82" style="fill:#bd92c2;stroke:#7d3990;stroke-miterlimit:10"/><rect x="56.28" y="195.34" width="25.44" height="24.75" style="fill:#c36b52;stroke:#7d3990;stroke-miterlimit:10"/><polygon points="58.28 218.14 56.3 220.09 56.3 195.31 81.72 195.31 79.71 197.29 58.28 197.29 58.28 218.14" style="fill:#f5bca7"/><rect x="58.29" y="197.29" width="21.43" height="20.85" style="fill:#f15d45;stroke:#7d3990;stroke-miterlimit:10"/><line x1="58.29" y1="197.29" x2="56.3" y2="195.31" style="fill:#da1c5c;stroke:#7c3990;stroke-miterlimit:10"/><line x1="79.71" y1="197.29" x2="81.69" y2="195.31" style="fill:#da1c5c;stroke:#7c3990;stroke-miterlimit:10"/><line x1="79.71" y1="218.14" x2="81.69" y2="220.12" style="fill:#da1c5c;stroke:#7c3990;stroke-miterlimit:10"/><line x1="58.29" y1="218.14" x2="56.3" y2="220.12" style="fill:#da1c5c;stroke:#7c3990;stroke-miterlimit:10"/><rect x="56.28" y="195.34" width="25.44" height="24.75" style="fill:none;stroke:#7c3990;stroke-miterlimit:10"/><circle cx="61.45" cy="215.56" r="0.82" style="fill:#bd92c2;stroke:#7d3990;stroke-miterlimit:10"/><circle cx="77.15" cy="199.85" r="0.82" style="fill:#bd92c2;stroke:#7d3990;stroke-miterlimit:10"/><circle cx="77.15" cy="215.56" r="0.82" style="fill:#bd92c2;stroke:#7d3990;stroke-miterlimit:10"/><circle cx="61.45" cy="199.85" r="0.82" style="fill:#bd92c2;stroke:#7d3990;stroke-miterlimit:10"/><rect x="81.7" y="269.82" width="25.44" height="24.75" style="fill:#7e84c0;stroke:#7d3990;stroke-miterlimit:10"/><polygon points="83.71 292.62 81.73 294.57 81.73 269.79 107.14 269.79 105.13 271.77 83.71 271.77 83.71 292.62" style="fill:#9cccee"/><rect x="83.71" y="271.77" width="21.43" height="20.85" style="fill:#00bff3;stroke:#7d3990;stroke-miterlimit:10"/><line x1="83.71" y1="271.77" x2="81.73" y2="269.79" style="fill:#da1c5c;stroke:#7c3990;stroke-miterlimit:10"/><line x1="105.13" y1="271.77" x2="107.11" y2="269.79" style="fill:#da1c5c;stroke:#7c3990;stroke-miterlimit:10"/><line x1="105.13" y1="292.62" x2="107.11" y2="294.6" style="fill:#da1c5c;stroke:#7c3990;stroke-miterlimit:10"/><line x1="83.71" y1="292.62" x2="81.73" y2="294.6" style="fill:#da1c5c;stroke:#7c3990;stroke-miterlimit:10"/><rect x="81.7" y="269.82" width="25.44" height="24.75" style="fill:none;stroke:#7c3990;stroke-miterlimit:10"/><circle cx="86.87" cy="290.03" r="0.82" style="fill:#bd92c2;stroke:#7d3990;stroke-miterlimit:10"/><circle cx="102.58" cy="274.32" r="0.82" style="fill:#bd92c2;stroke:#7d3990;stroke-miterlimit:10"/><circle cx="102.58" cy="290.03" r="0.82" style="fill:#bd92c2;stroke:#7d3990;stroke-miterlimit:10"/><circle cx="86.87" cy="274.32" r="0.82" style="fill:#bd92c2;stroke:#7d3990;stroke-miterlimit:10"/><rect x="81.7" y="244.99" width="25.44" height="24.75" style="fill:#a36b7e;stroke:#7d3990;stroke-miterlimit:10"/><polygon points="83.71 267.79 81.73 269.74 81.73 244.97 107.14 244.97 105.13 246.94 83.71 246.94 83.71 267.79" style="fill:#a18b9c"/><rect x="83.71" y="246.94" width="21.43" height="20.85" style="fill:#dc91a8;stroke:#7d3990;stroke-miterlimit:10"/><line x1="83.71" y1="246.94" x2="81.73" y2="244.96" style="fill:#da1c5c;stroke:#7c3990;stroke-miterlimit:10"/><line x1="105.13" y1="246.94" x2="107.11" y2="244.96" style="fill:#da1c5c;stroke:#7c3990;stroke-miterlimit:10"/><line x1="105.13" y1="267.79" x2="107.11" y2="269.77" style="fill:#da1c5c;stroke:#7c3990;stroke-miterlimit:10"/><line x1="83.71" y1="267.79" x2="81.73" y2="269.77" style="fill:#da1c5c;stroke:#7c3990;stroke-miterlimit:10"/><rect x="81.7" y="244.99" width="25.44" height="24.75" style="fill:none;stroke:#7c3990;stroke-miterlimit:10"/><circle cx="86.87" cy="265.21" r="0.82" style="fill:#bd92c2;stroke:#7d3990;stroke-miterlimit:10"/><circle cx="102.58" cy="249.5" r="0.82" style="fill:#bd92c2;stroke:#7d3990;stroke-miterlimit:10"/><circle cx="102.58" cy="265.21" r="0.82" style="fill:#bd92c2;stroke:#7d3990;stroke-miterlimit:10"/><circle cx="86.87" cy="249.5" r="0.82" style="fill:#bd92c2;stroke:#7d3990;stroke-miterlimit:10"/><rect x="81.7" y="220.17" width="25.44" height="24.75" style="fill:#5a7c98;stroke:#7d3990;stroke-miterlimit:10"/><polygon points="83.71 242.97 81.73 244.92 81.73 220.14 107.14 220.14 105.13 222.12 83.71 222.12 83.71 242.97" style="fill:#a5c9b9"/><rect x="83.71" y="222.12" width="21.43" height="20.85" style="fill:#4cb99b;stroke:#7d3990;stroke-miterlimit:10"/><line x1="83.71" y1="222.12" x2="81.73" y2="220.14" style="fill:#da1c5c;stroke:#7c3990;stroke-miterlimit:10"/><line x1="105.13" y1="222.12" x2="107.11" y2="220.14" style="fill:#da1c5c;stroke:#7c3990;stroke-miterlimit:10"/><line x1="105.13" y1="242.97" x2="107.11" y2="244.95" style="fill:#da1c5c;stroke:#7c3990;stroke-miterlimit:10"/><line x1="83.71" y1="242.97" x2="81.73" y2="244.95" style="fill:#da1c5c;stroke:#7c3990;stroke-miterlimit:10"/><rect x="81.7" y="220.17" width="25.44" height="24.75" style="fill:none;stroke:#7c3990;stroke-miterlimit:10"/><circle cx="86.87" cy="240.38" r="0.82" style="fill:#bd92c2;stroke:#7d3990;stroke-miterlimit:10"/><circle cx="102.58" cy="224.67" r="0.82" style="fill:#bd92c2;stroke:#7d3990;stroke-miterlimit:10"/><circle cx="102.58" cy="240.38" r="0.82" style="fill:#bd92c2;stroke:#7d3990;stroke-miterlimit:10"/><circle cx="86.87" cy="224.67" r="0.82" style="fill:#bd92c2;stroke:#7d3990;stroke-miterlimit:10"/><rect x="208.8" y="269.82" width="25.44" height="24.75" style="fill:#6d6069;stroke:#7d3990;stroke-miterlimit:10"/><polygon points="210.81 292.62 208.83 294.57 208.83 269.79 234.24 269.79 232.24 271.77 210.81 271.77 210.81 292.62" style="fill:#fae5a3"/><rect x="210.81" y="271.77" width="21.43" height="20.85" style="fill:#e6e642;stroke:#7d3990;stroke-miterlimit:10"/><line x1="210.81" y1="271.77" x2="208.83" y2="269.79" style="fill:#da1c5c;stroke:#7c3990;stroke-miterlimit:10"/><line x1="232.24" y1="271.77" x2="234.22" y2="269.79" style="fill:#da1c5c;stroke:#7c3990;stroke-miterlimit:10"/><line x1="232.24" y1="292.62" x2="234.22" y2="294.6" style="fill:#da1c5c;stroke:#7c3990;stroke-miterlimit:10"/><line x1="210.81" y1="292.62" x2="208.83" y2="294.6" style="fill:#da1c5c;stroke:#7c3990;stroke-miterlimit:10"/><rect x="208.8" y="269.82" width="25.44" height="24.75" style="fill:none;stroke:#7c3990;stroke-miterlimit:10"/><circle cx="213.97" cy="290.03" r="0.82" style="fill:#bd92c2;stroke:#7d3990;stroke-miterlimit:10"/><circle cx="229.68" cy="274.32" r="0.82" style="fill:#bd92c2;stroke:#7d3990;stroke-miterlimit:10"/><circle cx="229.68" cy="290.03" r="0.82" style="fill:#bd92c2;stroke:#7d3990;stroke-miterlimit:10"/><circle cx="213.97" cy="274.32" r="0.82" style="fill:#bd92c2;stroke:#7d3990;stroke-miterlimit:10"/><rect x="208.8" y="244.99" width="25.44" height="24.75" style="fill:#665fa3;stroke:#7d3990;stroke-miterlimit:10"/><polygon points="210.81 267.79 208.83 269.74 208.83 244.97 234.24 244.97 232.24 246.94 210.81 246.94 210.81 267.79" style="fill:#9accee"/><rect x="210.81" y="246.94" width="21.43" height="20.85" style="fill:#3489c9;stroke:#7d3990;stroke-miterlimit:10"/><line x1="210.81" y1="246.94" x2="208.83" y2="244.96" style="fill:#da1c5c;stroke:#7c3990;stroke-miterlimit:10"/><line x1="232.24" y1="246.94" x2="234.22" y2="244.96" style="fill:#da1c5c;stroke:#7c3990;stroke-miterlimit:10"/><line x1="232.24" y1="267.79" x2="234.22" y2="269.77" style="fill:#da1c5c;stroke:#7c3990;stroke-miterlimit:10"/><line x1="210.81" y1="267.79" x2="208.83" y2="269.77" style="fill:#da1c5c;stroke:#7c3990;stroke-miterlimit:10"/><rect x="208.8" y="244.99" width="25.44" height="24.75" style="fill:none;stroke:#7c3990;stroke-miterlimit:10"/><circle cx="213.97" cy="265.21" r="0.82" style="fill:#bd92c2;stroke:#7d3990;stroke-miterlimit:10"/><circle cx="229.68" cy="249.5" r="0.82" style="fill:#bd92c2;stroke:#7d3990;stroke-miterlimit:10"/><circle cx="229.68" cy="265.21" r="0.82" style="fill:#bd92c2;stroke:#7d3990;stroke-miterlimit:10"/><circle cx="213.97" cy="249.5" r="0.82" style="fill:#bd92c2;stroke:#7d3990;stroke-miterlimit:10"/><rect x="208.8" y="220.17" width="25.44" height="24.75" style="fill:#6b6c64;stroke:#7d3990;stroke-miterlimit:10"/><polygon points="210.81 242.97 208.83 244.92 208.83 220.14 234.24 220.14 232.24 222.12 210.81 222.12 210.81 242.97" style="fill:#f9e6ba"/><rect x="210.81" y="222.12" width="21.43" height="20.85" style="fill:#c89e73;stroke:#7d3990;stroke-miterlimit:10"/><line x1="210.81" y1="222.12" x2="208.83" y2="220.14" style="fill:#da1c5c;stroke:#7c3990;stroke-miterlimit:10"/><line x1="232.24" y1="222.12" x2="234.22" y2="220.14" style="fill:#da1c5c;stroke:#7c3990;stroke-miterlimit:10"/><line x1="232.24" y1="242.97" x2="234.22" y2="244.95" style="fill:#da1c5c;stroke:#7c3990;stroke-miterlimit:10"/><line x1="210.81" y1="242.97" x2="208.83" y2="244.95" style="fill:#da1c5c;stroke:#7c3990;stroke-miterlimit:10"/><rect x="208.8" y="220.17" width="25.44" height="24.75" style="fill:none;stroke:#7c3990;stroke-miterlimit:10"/><circle cx="213.97" cy="240.38" r="0.82" style="fill:#bd92c2;stroke:#7d3990;stroke-miterlimit:10"/><circle cx="229.68" cy="224.67" r="0.82" style="fill:#bd92c2;stroke:#7d3990;stroke-miterlimit:10"/><circle cx="229.68" cy="240.38" r="0.82" style="fill:#bd92c2;stroke:#7d3990;stroke-miterlimit:10"/><circle cx="213.97" cy="224.67" r="0.82" style="fill:#bd92c2;stroke:#7d3990;stroke-miterlimit:10"/><rect x="208.8" y="195.34" width="25.44" height="24.75" style="fill:#665fa3;stroke:#7d3990;stroke-miterlimit:10"/><polygon points="210.81 218.14 208.83 220.09 208.83 195.31 234.24 195.31 232.24 197.29 210.81 197.29 210.81 218.14" style="fill:#a5cfef"/><rect x="210.81" y="197.29" width="21.43" height="20.85" style="fill:#3489c9;stroke:#7d3990;stroke-miterlimit:10"/><line x1="210.81" y1="197.29" x2="208.83" y2="195.31" style="fill:#da1c5c;stroke:#7c3990;stroke-miterlimit:10"/><line x1="232.24" y1="197.29" x2="234.22" y2="195.31" style="fill:#da1c5c;stroke:#7c3990;stroke-miterlimit:10"/><line x1="232.24" y1="218.14" x2="234.22" y2="220.12" style="fill:#da1c5c;stroke:#7c3990;stroke-miterlimit:10"/><line x1="210.81" y1="218.14" x2="208.83" y2="220.12" style="fill:#da1c5c;stroke:#7c3990;stroke-miterlimit:10"/><rect x="208.8" y="195.34" width="25.44" height="24.75" style="fill:none;stroke:#7c3990;stroke-miterlimit:10"/><circle cx="213.97" cy="215.56" r="0.82" style="fill:#bd92c2;stroke:#7d3990;stroke-miterlimit:10"/><circle cx="229.68" cy="199.85" r="0.82" style="fill:#bd92c2;stroke:#7d3990;stroke-miterlimit:10"/><circle cx="229.68" cy="215.56" r="0.82" style="fill:#bd92c2;stroke:#7d3990;stroke-miterlimit:10"/><circle cx="213.97" cy="199.85" r="0.82" style="fill:#bd92c2;stroke:#7d3990;stroke-miterlimit:10"/><rect x="163.45" y="63.37" width="62.08" height="11.14" style="fill:#da1c5c;stroke:#7c3990;stroke-miterlimit:10"/><rect x="65.06" y="23.69" width="8.9" height="46.92" transform="translate(-5.08 8.54) rotate(-6.78)" style="fill:#e6cbe2;stroke:#7d3990;stroke-miterlimit:10"/><polyline points="68.77 25.43 71.16 23.32 76.7 69.92 74.31 72.02" style="fill:#e299c3;stroke:#7d3990;stroke-miterlimit:10"/><polygon points="64.14 2 54.15 14.62 54.63 18.61 55.29 24.21 55.52 26.13 68.19 36.05 78.18 23.43 77.95 21.52 77.28 15.92 76.81 11.92 64.14 2" style="fill:#da1c5c;stroke:#7c3990;stroke-miterlimit:10"/><polyline points="64.14 2 54.15 14.62 54.63 18.61 55.29 24.21 55.52 26.13 68.19 36.05" style="fill:#f6ebf4;stroke:#7d3990;stroke-miterlimit:10"/><line x1="71.25" y1="21.42" x2="78.18" y2="23.43" style="fill:none;stroke:#7d3990;stroke-miterlimit:10"/><line x1="67.08" y1="26.68" x2="68.19" y2="36.05" style="fill:none;stroke:#7d3990;stroke-miterlimit:10"/><line x1="61.79" y1="22.54" x2="55.52" y2="26.13" style="fill:none;stroke:#7d3990;stroke-miterlimit:10"/><line x1="70.54" y1="15.51" x2="76.81" y2="11.92" style="fill:none;stroke:#7d3990;stroke-miterlimit:10"/><line x1="65.26" y1="11.37" x2="64.14" y2="2" style="fill:none;stroke:#7d3990;stroke-miterlimit:10"/><line x1="61.08" y1="16.64" x2="54.15" y2="14.62" style="fill:none;stroke:#7d3990;stroke-miterlimit:10"/><polygon points="65.26 11.37 61.08 16.64 61.23 17.83 61.69 21.77 61.78 22.54 67.08 26.68 71.25 21.42 71.16 20.65 70.69 16.7 70.55 15.51 65.26 11.37" style="fill:#e6cbe2;stroke:#7d3990;stroke-miterlimit:10"/><polyline points="93.49 63.57 93.49 58.62 50.19 58.62 50.19 63.57" style="fill:#e6cbe2;stroke:#7d3990;stroke-miterlimit:10"/><rect x="40.8" y="63.37" width="62.08" height="11.14" style="fill:#da1c5c;stroke:#7c3990;stroke-miterlimit:10"/><rect x="11.71" y="69.12" width="23.37" height="5.39" style="fill:#e6cbe2;stroke:#7d3990;stroke-miterlimit:10"/><rect x="14.16" y="62.04" width="18.47" height="7.08" style="fill:#da1c5c;stroke:#7c3990;stroke-miterlimit:10"/><rect x="134.46" y="69.12" width="23.37" height="5.39" style="fill:#e6cbe2;stroke:#7d3990;stroke-miterlimit:10"/><rect x="136.91" y="62.04" width="18.47" height="7.08" style="fill:#da1c5c;stroke:#7c3990;stroke-miterlimit:10"/><rect x="152.66" y="81.87" width="41.02" height="7.36" style="fill:#e6cbe2;stroke:#7d3990;stroke-miterlimit:10"/><polygon points="214.98 79.67 25.68 79.67 28.83 82.72 211.83 82.72 214.98 79.67" style="fill:#e6cbe2;stroke:#7d3990;stroke-miterlimit:10"/><line x1="204.07" y1="90.24" x2="217.71" y2="77.02" style="fill:#e6cbe2;stroke:#7d3990;stroke-miterlimit:10"/><line x1="36.6" y1="90.24" x2="22.96" y2="77.02" style="fill:#e6cbe2;stroke:#7d3990;stroke-miterlimit:10"/><path d="M156.45,89.23h33.43a0,0,0,0,1,0,0v0a14.16,14.16,0,0,1-14.16,14.16h-5.12a14.16,14.16,0,0,1-14.16-14.16v0A0,0,0,0,1,156.45,89.23Z" style="fill:#e6cbe2;stroke:#7d3990;stroke-miterlimit:10"/><rect x="80.51" y="87.38" width="41.02" height="7.36" style="fill:#e6cbe2;stroke:#7d3990;stroke-miterlimit:10"/><polygon points="208.83 85.18 31.5 85.18 34.65 88.23 205.68 88.23 208.83 85.18" style="fill:#e6cbe2;stroke:#7d3990;stroke-miterlimit:10"/><path d="M84.3,94.74h33.43a0,0,0,0,1,0,0v0a14.16,14.16,0,0,1-14.16,14.16H98.46A14.16,14.16,0,0,1,84.3,94.74v0A0,0,0,0,1,84.3,94.74Z" style="fill:#e6cbe2;stroke:#7d3990;stroke-miterlimit:10"/><polygon points="131.33 74.77 5.44 202.5 5.44 166.99 94 74.72 131.33 74.77" style="fill:#fff;opacity:0.65"/><polygon points="157.97 74.75 5.44 226.89 5.44 217.38 148.07 74.7 157.97 74.75" style="fill:#fff;opacity:0.65"/><rect x="5.44" y="74.51" width="228.8" height="220.09" style="fill:none;stroke:#7d3990;stroke-miterlimit:10"/></g></svg>