<svg xmlns="http://www.w3.org/2000/svg" width="45.74" height="45.45" viewBox="0 0 45.74 45.45"><title>Artboard 28</title><g id="ILLO_4" data-name="ILLO 4"><path d="M28.73,9.71l9.92,1.63L41,14.49l-.58,3.89-3.16,2.34L38.31,25l5.85-4.33,1.07-7.2L40.9,7.59,27.67,5.47Z" style="fill:#c093c3"/><path d="M27.75,5,41,7.08l.34.2,4.33,5.85.09.38-1.07,7.2-.2.33-5.85,4.33-.8-.28-1.06-4.25.19-.53,3-2.21.51-3.47-2.08-2.82-9.71-1.59-.42-.39L27.18,5.59ZM40.62,8.07l-12.26-2,.79,3.16,9.58,1.58.34.2,2.34,3.16.09.38-.58,3.89-.2.33-2.88,2.14.79,3.16,5-3.75,1-6.77Z" style="fill:#7c3990"/><path d="M20.57,5.47,7.34,7.59,3,13.43l1.07,7.2L9.93,25,11,20.72,7.83,18.38l-.58-3.89,2.34-3.15,9.92-1.63Z" style="fill:#c093c3"/><path d="M21.06,5.59,20,9.83l-.42.39L9.87,11.81,7.79,14.63,8.3,18.1l3,2.21.19.53-1.06,4.25-.8.28L3.77,21l-.2-.33L2.5,13.51l.1-.38L6.93,7.28l.33-.2L20.49,5Zm-17.51,8,1,6.77,5.05,3.75.79-3.16L7.52,18.79l-.2-.33-.58-3.89.1-.38L9.18,11l.33-.2,9.58-1.58.79-3.16-12.26,2Z" style="fill:#7c3990"/><polygon points="21.28 14.42 26.59 14.43 30.34 10.68 30.35 5.37 26.6 1.61 21.29 1.61 17.54 5.36 17.53 10.66 21.28 14.42" style="fill:#e6cae2"/><path d="M21.16,1.28h5.58l3.94,4v5.58l-4,3.95H21.14L17.2,10.8V5.22Zm5.3.66h-5L17.87,5.49v5l3.56,3.56h5L30,10.54v-5Z" style="fill:#7c3990"/><polygon points="26.59 14.43 21.28 14.42 17.53 10.66 17.54 5.36 21.29 1.61 26.6 1.61 25.59 4.06 25.58 11.98 26.59 14.43" style="fill:#b87bb5"/><polygon points="22.3 11.98 25.58 11.98 27.9 9.66 27.9 6.38 25.59 4.06 22.3 4.05 19.98 6.37 19.98 9.65 22.3 11.98" style="fill:#c093c3"/><path d="M22.17,3.73h3.55l2.51,2.51V9.8l-2.52,2.51H22.16L19.65,9.79V6.24Zm3.28.66h-3L20.31,6.51v3l2.12,2.13h3l2.13-2.13v-3Z" style="fill:#7c3990"/><rect x="25.75" y="11.88" width="0.66" height="2.65" transform="translate(-3.06 10.96) rotate(-22.45)" style="fill:#7c3990"/><rect x="20.47" y="12.87" width="2.65" height="0.66" transform="translate(1.24 28.26) rotate(-67.44)" style="fill:#7c3990"/><rect x="17.43" y="9.83" width="2.65" height="0.66" transform="translate(-2.46 7.93) rotate(-22.45)" style="fill:#7c3990"/><rect x="18.43" y="4.54" width="0.66" height="2.65" transform="translate(6.15 20.94) rotate(-67.45)" style="fill:#7c3990"/><rect x="21.47" y="1.51" width="0.66" height="2.65" transform="translate(0.57 8.54) rotate(-22.45)" style="fill:#7c3990"/><rect x="24.77" y="2.51" width="2.65" height="0.66" transform="translate(13.46 25.84) rotate(-67.44)" style="fill:#7c3990"/><rect x="27.8" y="5.55" width="2.65" height="0.66" transform="translate(-0.04 11.57) rotate(-22.45)" style="fill:#7c3990"/><rect x="28.79" y="8.85" width="0.66" height="2.65" transform="translate(8.56 33.16) rotate(-67.45)" style="fill:#7c3990"/><path d="M21.16,1.28h5.58l3.94,4v5.58l-4,3.95H21.14L17.2,10.8V5.22Zm5.3.66h-5L17.87,5.49v5l3.56,3.56h5L30,10.54v-5Z" style="fill:#7c3990"/><rect x="11.4" y="17.53" width="25.44" height="24.75" style="fill:#0376b9;stroke:#7d3990;stroke-miterlimit:10"/><polygon points="13.41 40.33 11.43 42.28 11.43 17.5 36.84 17.5 34.83 19.48 13.41 19.48 13.41 40.33" style="fill:#a0d9d5"/><rect x="13.41" y="19.48" width="21.43" height="20.85" style="fill:#4ca3da;stroke:#7d3990;stroke-miterlimit:10"/><line x1="13.41" y1="19.48" x2="11.43" y2="17.5" style="fill:#da1c5c;stroke:#7c3990;stroke-miterlimit:10"/><line x1="34.83" y1="19.48" x2="36.81" y2="17.5" style="fill:#da1c5c;stroke:#7c3990;stroke-miterlimit:10"/><line x1="34.83" y1="40.33" x2="36.81" y2="42.31" style="fill:#da1c5c;stroke:#7c3990;stroke-miterlimit:10"/><line x1="13.41" y1="40.33" x2="11.43" y2="42.31" style="fill:#da1c5c;stroke:#7c3990;stroke-miterlimit:10"/><rect x="11.4" y="17.53" width="25.44" height="24.75" style="fill:none;stroke:#7c3990;stroke-miterlimit:10"/><circle cx="16.57" cy="37.75" r="0.82" style="fill:#bd92c2;stroke:#7d3990;stroke-miterlimit:10"/><circle cx="32.28" cy="22.04" r="0.82" style="fill:#bd92c2;stroke:#7d3990;stroke-miterlimit:10"/><circle cx="32.28" cy="37.75" r="0.82" style="fill:#bd92c2;stroke:#7d3990;stroke-miterlimit:10"/><circle cx="16.57" cy="22.04" r="0.82" style="fill:#bd92c2;stroke:#7d3990;stroke-miterlimit:10"/></g></svg>