<svg xmlns="http://www.w3.org/2000/svg" width="239.33" height="297.53" viewBox="0 0 239.33 297.53"><g data-name="ILLO 4"><path fill="#d1ecf2" opacity=".4" d="M5.44 294.59V74.5h228.81v220.09z"/><path fill="none" stroke="#7d3990" stroke-miterlimit="10" d="M28.19 95.51l-22.75-21m206.05 21l22.75-21m-22.75 215.83V95.51H28.19l.01 194.83"/><path fill="#e6cbe2" stroke="#7d3990" stroke-miterlimit="10" d="M183.547 68.115l22.669-41.08 7.792 4.299-22.668 41.08z"/><path fill="#e299c3" stroke="#7d3990" stroke-miterlimit="10" d="M210.84 31.65l3.17-.31-22.67 41.07-3.17.32"/><path fill="#da1c5c" stroke="#7c3990" stroke-miterlimit="10" d="M220.75 9.92l-15.47 4.43-1.95 3.52-2.72 4.93-.93 1.69 4.5 15.45 15.47-4.42.94-1.69 2.72-4.94 1.94-3.52-4.5-15.45z"/><path fill="#f6ebf4" stroke="#7d3990" stroke-miterlimit="10" d="M220.75 9.92l-15.47 4.43-1.95 3.52-2.72 4.93-.93 1.69 4.5 15.45"/><path fill="none" stroke="#7d3990" stroke-miterlimit="10" d="M215.2 29.84l4.45 5.68m-10.91-3.84l-4.56 8.26m2.68-14.71l-7.18-.74m18.39.14l7.19.74m-9.07-7.19l4.56-8.26m-11.02 10.11l-4.45-5.69"/><path fill="#e6cbe2" stroke="#7d3990" stroke-miterlimit="10" d="M216.19 18.18l-6.46 1.85-.58 1.05-1.92 3.48-.37.67 1.88 6.45 6.46-1.84.37-.68 1.92-3.48.58-1.05-1.88-6.45zm-.05 45.39v-4.95h-43.3v4.95"/><path fill="#bd92c2" stroke="#7d3990" stroke-miterlimit="10" d="M5.44 269.82h25.44v24.75H5.44z"/><path fill="#f6ebf4" d="M7.44 292.62l-1.98 1.95v-24.78h25.42l-2.01 1.98H7.44v20.85z"/><path fill="#e6cbe2" stroke="#7d3990" stroke-miterlimit="10" d="M7.44 271.77h21.43v20.85H7.44z"/><path fill="#da1c5c" stroke="#7c3990" stroke-miterlimit="10" d="M7.44 271.77l-1.98-1.98m23.41 1.98l1.98-1.98m-1.98 22.83l1.98 1.98m-23.41-1.98l-1.98 1.98"/><path fill="none" stroke="#7c3990" stroke-miterlimit="10" d="M5.44 269.82h25.44v24.75H5.44z"/><circle cx="10.6" cy="290.03" r=".82" fill="#bd92c2" stroke="#7d3990" stroke-miterlimit="10"/><circle cx="26.31" cy="274.32" r=".82" fill="#bd92c2" stroke="#7d3990" stroke-miterlimit="10"/><circle cx="26.31" cy="290.03" r=".82" fill="#bd92c2" stroke="#7d3990" stroke-miterlimit="10"/><circle cx="10.6" cy="274.32" r=".82" fill="#bd92c2" stroke="#7d3990" stroke-miterlimit="10"/><path fill="#be77b2" stroke="#7d3990" stroke-miterlimit="10" d="M5.44 244.99h25.44v24.75H5.44z"/><path fill="#f2bdd8" d="M7.44 267.79l-1.98 1.95v-24.77h25.42l-2.01 1.97H7.44v20.85z"/><path fill="#e181b5" stroke="#7d3990" stroke-miterlimit="10" d="M7.44 246.94h21.43v20.85H7.44z"/><path fill="#da1c5c" stroke="#7c3990" stroke-miterlimit="10" d="M7.44 246.94l-1.98-1.98m23.41 1.98l1.98-1.98m-1.98 22.83l1.98 1.98m-23.41-1.98l-1.98 1.98"/><path fill="none" stroke="#7c3990" stroke-miterlimit="10" d="M5.44 244.99h25.44v24.75H5.44z"/><circle cx="10.6" cy="265.21" r=".82" fill="#bd92c2" stroke="#7d3990" stroke-miterlimit="10"/><circle cx="26.31" cy="249.5" r=".82" fill="#bd92c2" stroke="#7d3990" stroke-miterlimit="10"/><circle cx="26.31" cy="265.21" r=".82" fill="#bd92c2" stroke="#7d3990" stroke-miterlimit="10"/><circle cx="10.6" cy="249.5" r=".82" fill="#bd92c2" stroke="#7d3990" stroke-miterlimit="10"/><path fill="#c3765e" stroke="#7d3990" stroke-miterlimit="10" d="M5.44 220.17h25.44v24.75H5.44z"/><path fill="#f3b9a6" d="M7.44 242.97l-1.98 1.95v-24.78h25.42l-2.01 1.98H7.44v20.85z"/><path fill="#e37f79" stroke="#7d3990" stroke-miterlimit="10" d="M7.44 222.12h21.43v20.85H7.44z"/><path fill="#da1c5c" stroke="#7c3990" stroke-miterlimit="10" d="M7.44 222.12l-1.98-1.98m23.41 1.98l1.98-1.98m-1.98 22.83l1.98 1.98m-23.41-1.98l-1.98 1.98"/><path fill="none" stroke="#7c3990" stroke-miterlimit="10" d="M5.44 220.17h25.44v24.75H5.44z"/><circle cx="10.6" cy="240.38" r=".82" fill="#bd92c2" stroke="#7d3990" stroke-miterlimit="10"/><circle cx="26.31" cy="224.67" r=".82" fill="#bd92c2" stroke="#7d3990" stroke-miterlimit="10"/><circle cx="26.31" cy="240.38" r=".82" fill="#bd92c2" stroke="#7d3990" stroke-miterlimit="10"/><circle cx="10.6" cy="224.67" r=".82" fill="#bd92c2" stroke="#7d3990" stroke-miterlimit="10"/><path fill="#0a90d0" stroke="#7d3990" stroke-miterlimit="10" d="M5.44 195.34h25.44v24.75H5.44z"/><path fill="#afe0ee" d="M7.44 218.14l-1.98 1.95v-24.78h25.42l-2.01 1.98H7.44v20.85z"/><path fill="#44b9dc" stroke="#7d3990" stroke-miterlimit="10" d="M7.44 197.29h21.43v20.85H7.44z"/><path fill="#da1c5c" stroke="#7c3990" stroke-miterlimit="10" d="M7.44 197.29l-1.98-1.98m23.41 1.98l1.98-1.98m-1.98 22.83l1.98 1.98m-23.41-1.98l-1.98 1.98"/><path fill="none" stroke="#7c3990" stroke-miterlimit="10" d="M5.44 195.34h25.44v24.75H5.44z"/><circle cx="10.6" cy="215.56" r=".82" fill="#bd92c2" stroke="#7d3990" stroke-miterlimit="10"/><circle cx="26.31" cy="199.85" r=".82" fill="#bd92c2" stroke="#7d3990" stroke-miterlimit="10"/><circle cx="26.31" cy="215.56" r=".82" fill="#bd92c2" stroke="#7d3990" stroke-miterlimit="10"/><circle cx="10.6" cy="199.85" r=".82" fill="#bd92c2" stroke="#7d3990" stroke-miterlimit="10"/><path fill="#c15342" stroke="#7d3990" stroke-miterlimit="10" d="M30.86 269.82H56.3v24.75H30.86z"/><path fill="#ef8461" d="M32.86 292.62l-1.98 1.95v-24.78H56.3l-2.01 1.98H32.86v20.85z"/><path fill="#e25e4f" stroke="#7d3990" stroke-miterlimit="10" d="M32.86 271.77h21.43v20.85H32.86z"/><path fill="#da1c5c" stroke="#7c3990" stroke-miterlimit="10" d="M32.86 271.77l-1.98-1.98m23.41 1.98l1.98-1.98m-1.98 22.83l1.98 1.98m-23.41-1.98l-1.98 1.98"/><path fill="none" stroke="#7c3990" stroke-miterlimit="10" d="M30.86 269.82H56.3v24.75H30.86z"/><circle cx="36.02" cy="290.03" r=".82" fill="#bd92c2" stroke="#7d3990" stroke-miterlimit="10"/><circle cx="51.73" cy="274.32" r=".82" fill="#bd92c2" stroke="#7d3990" stroke-miterlimit="10"/><circle cx="51.73" cy="290.03" r=".82" fill="#bd92c2" stroke="#7d3990" stroke-miterlimit="10"/><circle cx="36.02" cy="274.32" r=".82" fill="#bd92c2" stroke="#7d3990" stroke-miterlimit="10"/><path fill="#30a248" stroke="#7d3990" stroke-miterlimit="10" d="M30.86 244.99H56.3v24.75H30.86z"/><path fill="#9dcd64" d="M32.86 267.79l-1.98 1.95v-24.77H56.3l-2.01 1.97H32.86v20.85z"/><path fill="#7bc143" stroke="#7d3990" stroke-miterlimit="10" d="M32.86 246.94h21.43v20.85H32.86z"/><path fill="#da1c5c" stroke="#7c3990" stroke-miterlimit="10" d="M32.86 246.94l-1.98-1.98m23.41 1.98l1.98-1.98m-1.98 22.83l1.98 1.98m-23.41-1.98l-1.98 1.98"/><path fill="none" stroke="#7c3990" stroke-miterlimit="10" d="M30.86 244.99H56.3v24.75H30.86z"/><circle cx="36.02" cy="265.21" r=".82" fill="#bd92c2" stroke="#7d3990" stroke-miterlimit="10"/><circle cx="51.73" cy="249.5" r=".82" fill="#bd92c2" stroke="#7d3990" stroke-miterlimit="10"/><circle cx="51.73" cy="265.21" r=".82" fill="#bd92c2" stroke="#7d3990" stroke-miterlimit="10"/><circle cx="36.02" cy="249.5" r=".82" fill="#bd92c2" stroke="#7d3990" stroke-miterlimit="10"/><path fill="#be77b2" stroke="#7d3990" stroke-miterlimit="10" d="M30.86 220.17H56.3v24.75H30.86z"/><path fill="#f2bdd8" d="M32.86 242.97l-1.98 1.95v-24.78H56.3l-2.01 1.98H32.86v20.85z"/><path fill="#e181b5" stroke="#7d3990" stroke-miterlimit="10" d="M32.86 222.12h21.43v20.85H32.86z"/><path fill="#da1c5c" stroke="#7c3990" stroke-miterlimit="10" d="M32.86 222.12l-1.98-1.98m23.41 1.98l1.98-1.98m-1.98 22.83l1.98 1.98m-23.41-1.98l-1.98 1.98"/><path fill="none" stroke="#7c3990" stroke-miterlimit="10" d="M30.86 220.17H56.3v24.75H30.86z"/><circle cx="36.02" cy="240.38" r=".82" fill="#bd92c2" stroke="#7d3990" stroke-miterlimit="10"/><circle cx="51.73" cy="224.67" r=".82" fill="#bd92c2" stroke="#7d3990" stroke-miterlimit="10"/><circle cx="51.73" cy="240.38" r=".82" fill="#bd92c2" stroke="#7d3990" stroke-miterlimit="10"/><circle cx="36.02" cy="224.67" r=".82" fill="#bd92c2" stroke="#7d3990" stroke-miterlimit="10"/><path fill="#be77b2" stroke="#7d3990" stroke-miterlimit="10" d="M157.94 269.78h25.44v24.75h-25.44z"/><path fill="#f2bdd8" d="M159.95 292.58l-1.98 1.95v-24.78h25.41l-2.01 1.98h-21.42v20.85z"/><path fill="#e181b5" stroke="#7d3990" stroke-miterlimit="10" d="M159.95 271.73h21.43v20.85h-21.43z"/><path fill="#da1c5c" stroke="#7c3990" stroke-miterlimit="10" d="M159.95 271.73l-1.98-1.98m23.4 1.98l1.98-1.98m-1.98 22.83l1.98 1.98m-23.4-1.98l-1.98 1.98"/><path fill="none" stroke="#7c3990" stroke-miterlimit="10" d="M157.94 269.78h25.44v24.75h-25.44z"/><circle cx="163.11" cy="290" r=".82" fill="#bd92c2" stroke="#7d3990" stroke-miterlimit="10"/><circle cx="178.82" cy="274.29" r=".82" fill="#bd92c2" stroke="#7d3990" stroke-miterlimit="10"/><circle cx="178.82" cy="290" r=".82" fill="#bd92c2" stroke="#7d3990" stroke-miterlimit="10"/><circle cx="163.11" cy="274.29" r=".82" fill="#bd92c2" stroke="#7d3990" stroke-miterlimit="10"/><path fill="#a4478a" stroke="#7d3990" stroke-miterlimit="10" d="M183.36 269.78h25.44v24.75h-25.44z"/><path fill="#f2bdd8" d="M185.37 292.58l-1.98 1.95v-24.78h25.41l-2.01 1.98h-21.42v20.85z"/><path fill="#ef4885" stroke="#7d3990" stroke-miterlimit="10" d="M185.37 271.73h21.43v20.85h-21.43z"/><path fill="#da1c5c" stroke="#7c3990" stroke-miterlimit="10" d="M185.37 271.73l-1.98-1.98m23.4 1.98l1.98-1.98m-1.98 22.83l1.98 1.98m-23.4-1.98l-1.98 1.98"/><path fill="none" stroke="#7c3990" stroke-miterlimit="10" d="M183.36 269.78h25.44v24.75h-25.44z"/><circle cx="188.53" cy="290" r=".82" fill="#bd92c2" stroke="#7d3990" stroke-miterlimit="10"/><circle cx="204.24" cy="274.29" r=".82" fill="#bd92c2" stroke="#7d3990" stroke-miterlimit="10"/><circle cx="204.24" cy="290" r=".82" fill="#bd92c2" stroke="#7d3990" stroke-miterlimit="10"/><circle cx="188.53" cy="274.29" r=".82" fill="#bd92c2" stroke="#7d3990" stroke-miterlimit="10"/><path fill="#964f85" stroke="#7d3990" stroke-miterlimit="10" d="M183.36 244.96h25.44v24.75h-25.44z"/><path fill="#f2bdd8" d="M185.37 267.75l-1.98 1.96v-24.78h25.41l-2.01 1.98h-21.42v20.84z"/><path fill="#984e9e" stroke="#7d3990" stroke-miterlimit="10" d="M185.37 246.91h21.43v20.85h-21.43z"/><path fill="#da1c5c" stroke="#7c3990" stroke-miterlimit="10" d="M185.37 246.91l-1.98-1.98m23.4 1.98l1.98-1.98m-1.98 22.83l1.98 1.98m-23.4-1.98l-1.98 1.98"/><path fill="none" stroke="#7c3990" stroke-miterlimit="10" d="M183.36 244.96h25.44v24.75h-25.44z"/><circle cx="188.53" cy="265.17" r=".82" fill="#bd92c2" stroke="#7d3990" stroke-miterlimit="10"/><circle cx="204.24" cy="249.46" r=".82" fill="#bd92c2" stroke="#7d3990" stroke-miterlimit="10"/><circle cx="204.24" cy="265.17" r=".82" fill="#bd92c2" stroke="#7d3990" stroke-miterlimit="10"/><circle cx="188.53" cy="249.46" r=".82" fill="#bd92c2" stroke="#7d3990" stroke-miterlimit="10"/><path fill="#b16e2c" stroke="#7d3990" stroke-miterlimit="10" d="M30.86 195.34H56.3v24.75H30.86z"/><path fill="#e1d768" d="M32.86 218.14l-1.98 1.95v-24.78H56.3l-2.01 1.98H32.86v20.85z"/><path fill="#fff34d" stroke="#7d3990" stroke-miterlimit="10" d="M32.86 197.29h21.43v20.85H32.86z"/><path fill="#da1c5c" stroke="#7c3990" stroke-miterlimit="10" d="M32.86 197.29l-1.98-1.98m23.41 1.98l1.98-1.98m-1.98 22.83l1.98 1.98m-23.41-1.98l-1.98 1.98"/><path fill="none" stroke="#7c3990" stroke-miterlimit="10" d="M30.86 195.34H56.3v24.75H30.86z"/><circle cx="36.02" cy="215.56" r=".82" fill="#bd92c2" stroke="#7d3990" stroke-miterlimit="10"/><circle cx="51.73" cy="199.85" r=".82" fill="#bd92c2" stroke="#7d3990" stroke-miterlimit="10"/><circle cx="51.73" cy="215.56" r=".82" fill="#bd92c2" stroke="#7d3990" stroke-miterlimit="10"/><circle cx="36.02" cy="199.85" r=".82" fill="#bd92c2" stroke="#7d3990" stroke-miterlimit="10"/><path fill="#c36b52" stroke="#7d3990" stroke-miterlimit="10" d="M30.86 170.52H56.3v24.75H30.86z"/><path fill="#f5bca7" d="M32.86 193.32l-1.98 1.95v-24.78H56.3l-2.01 1.98H32.86v20.85z"/><path fill="#fecf8c" stroke="#7d3990" stroke-miterlimit="10" d="M32.86 172.47h21.43v20.85H32.86z"/><path fill="#da1c5c" stroke="#7c3990" stroke-miterlimit="10" d="M32.86 172.47l-1.98-1.98m23.41 1.98l1.98-1.98m-1.98 22.83l1.98 1.98m-23.41-1.98l-1.98 1.98"/><path fill="none" stroke="#7c3990" stroke-miterlimit="10" d="M30.86 170.52H56.3v24.75H30.86z"/><circle cx="36.02" cy="190.73" r=".82" fill="#bd92c2" stroke="#7d3990" stroke-miterlimit="10"/><circle cx="51.73" cy="175.03" r=".82" fill="#bd92c2" stroke="#7d3990" stroke-miterlimit="10"/><circle cx="51.73" cy="190.73" r=".82" fill="#bd92c2" stroke="#7d3990" stroke-miterlimit="10"/><circle cx="36.02" cy="175.03" r=".82" fill="#bd92c2" stroke="#7d3990" stroke-miterlimit="10"/><path fill="#a27747" stroke="#7d3990" stroke-miterlimit="10" d="M56.28 269.82h25.44v24.75H56.28z"/><path fill="#fbe38b" d="M58.28 292.62l-1.98 1.95v-24.78h25.42l-2.01 1.98H58.28v20.85z"/><path fill="#edc44f" stroke="#7d3990" stroke-miterlimit="10" d="M58.29 271.77h21.43v20.85H58.29z"/><path fill="#da1c5c" stroke="#7c3990" stroke-miterlimit="10" d="M58.29 271.77l-1.99-1.98m23.41 1.98l1.98-1.98m-1.98 22.83l1.98 1.98m-23.4-1.98l-1.99 1.98"/><path fill="none" stroke="#7c3990" stroke-miterlimit="10" d="M56.28 269.82h25.44v24.75H56.28z"/><circle cx="61.45" cy="290.03" r=".82" fill="#bd92c2" stroke="#7d3990" stroke-miterlimit="10"/><circle cx="77.15" cy="274.32" r=".82" fill="#bd92c2" stroke="#7d3990" stroke-miterlimit="10"/><circle cx="77.15" cy="290.03" r=".82" fill="#bd92c2" stroke="#7d3990" stroke-miterlimit="10"/><circle cx="61.45" cy="274.32" r=".82" fill="#bd92c2" stroke="#7d3990" stroke-miterlimit="10"/><path fill="#bd92c2" stroke="#7d3990" stroke-miterlimit="10" d="M56.28 244.99h25.44v24.75H56.28z"/><path fill="#f6ebf4" d="M58.28 267.79l-1.98 1.95v-24.77h25.42l-2.01 1.97H58.28v20.85z"/><path fill="#e6cbe2" stroke="#7d3990" stroke-miterlimit="10" d="M58.29 246.94h21.43v20.85H58.29z"/><path fill="#da1c5c" stroke="#7c3990" stroke-miterlimit="10" d="M58.29 246.94l-1.99-1.98m23.41 1.98l1.98-1.98m-1.98 22.83l1.98 1.98m-23.4-1.98l-1.99 1.98"/><path fill="none" stroke="#7c3990" stroke-miterlimit="10" d="M56.28 244.99h25.44v24.75H56.28z"/><circle cx="61.45" cy="265.21" r=".82" fill="#bd92c2" stroke="#7d3990" stroke-miterlimit="10"/><circle cx="77.15" cy="249.5" r=".82" fill="#bd92c2" stroke="#7d3990" stroke-miterlimit="10"/><circle cx="77.15" cy="265.21" r=".82" fill="#bd92c2" stroke="#7d3990" stroke-miterlimit="10"/><circle cx="61.45" cy="249.5" r=".82" fill="#bd92c2" stroke="#7d3990" stroke-miterlimit="10"/><path fill="#7e84c0" stroke="#7d3990" stroke-miterlimit="10" d="M56.28 220.17h25.44v24.75H56.28z"/><path fill="#9cccee" d="M58.28 242.97l-1.98 1.95v-24.78h25.42l-2.01 1.98H58.28v20.85z"/><path fill="#00bff3" stroke="#7d3990" stroke-miterlimit="10" d="M58.29 222.12h21.43v20.85H58.29z"/><path fill="#da1c5c" stroke="#7c3990" stroke-miterlimit="10" d="M58.29 222.12l-1.99-1.98m23.41 1.98l1.98-1.98m-1.98 22.83l1.98 1.98m-23.4-1.98l-1.99 1.98"/><path fill="none" stroke="#7c3990" stroke-miterlimit="10" d="M56.28 220.17h25.44v24.75H56.28z"/><circle cx="61.45" cy="240.38" r=".82" fill="#bd92c2" stroke="#7d3990" stroke-miterlimit="10"/><circle cx="77.15" cy="224.67" r=".82" fill="#bd92c2" stroke="#7d3990" stroke-miterlimit="10"/><circle cx="77.15" cy="240.38" r=".82" fill="#bd92c2" stroke="#7d3990" stroke-miterlimit="10"/><circle cx="61.45" cy="224.67" r=".82" fill="#bd92c2" stroke="#7d3990" stroke-miterlimit="10"/><path fill="#c36b52" stroke="#7d3990" stroke-miterlimit="10" d="M56.28 195.34h25.44v24.75H56.28z"/><path fill="#f5bca7" d="M58.28 218.14l-1.98 1.95v-24.78h25.42l-2.01 1.98H58.28v20.85z"/><path fill="#f15d45" stroke="#7d3990" stroke-miterlimit="10" d="M58.29 197.29h21.43v20.85H58.29z"/><path fill="#da1c5c" stroke="#7c3990" stroke-miterlimit="10" d="M58.29 197.29l-1.99-1.98m23.41 1.98l1.98-1.98m-1.98 22.83l1.98 1.98m-23.4-1.98l-1.99 1.98"/><path fill="none" stroke="#7c3990" stroke-miterlimit="10" d="M56.28 195.34h25.44v24.75H56.28z"/><circle cx="61.45" cy="215.56" r=".82" fill="#bd92c2" stroke="#7d3990" stroke-miterlimit="10"/><circle cx="77.15" cy="199.85" r=".82" fill="#bd92c2" stroke="#7d3990" stroke-miterlimit="10"/><circle cx="77.15" cy="215.56" r=".82" fill="#bd92c2" stroke="#7d3990" stroke-miterlimit="10"/><circle cx="61.45" cy="199.85" r=".82" fill="#bd92c2" stroke="#7d3990" stroke-miterlimit="10"/><path fill="#7e84c0" stroke="#7d3990" stroke-miterlimit="10" d="M81.7 269.82h25.44v24.75H81.7z"/><path fill="#9cccee" d="M83.71 292.62l-1.98 1.95v-24.78h25.41l-2.01 1.98H83.71v20.85z"/><path fill="#00bff3" stroke="#7d3990" stroke-miterlimit="10" d="M83.71 271.77h21.43v20.85H83.71z"/><path fill="#da1c5c" stroke="#7c3990" stroke-miterlimit="10" d="M83.71 271.77l-1.98-1.98m23.4 1.98l1.98-1.98m-1.98 22.83l1.98 1.98m-23.4-1.98l-1.98 1.98"/><path fill="none" stroke="#7c3990" stroke-miterlimit="10" d="M81.7 269.82h25.44v24.75H81.7z"/><circle cx="86.87" cy="290.03" r=".82" fill="#bd92c2" stroke="#7d3990" stroke-miterlimit="10"/><circle cx="102.58" cy="274.32" r=".82" fill="#bd92c2" stroke="#7d3990" stroke-miterlimit="10"/><circle cx="102.58" cy="290.03" r=".82" fill="#bd92c2" stroke="#7d3990" stroke-miterlimit="10"/><circle cx="86.87" cy="274.32" r=".82" fill="#bd92c2" stroke="#7d3990" stroke-miterlimit="10"/><path fill="#a36b7e" stroke="#7d3990" stroke-miterlimit="10" d="M81.7 244.99h25.44v24.75H81.7z"/><path fill="#a18b9c" d="M83.71 267.79l-1.98 1.95v-24.77h25.41l-2.01 1.97H83.71v20.85z"/><path fill="#dc91a8" stroke="#7d3990" stroke-miterlimit="10" d="M83.71 246.94h21.43v20.85H83.71z"/><path fill="#da1c5c" stroke="#7c3990" stroke-miterlimit="10" d="M83.71 246.94l-1.98-1.98m23.4 1.98l1.98-1.98m-1.98 22.83l1.98 1.98m-23.4-1.98l-1.98 1.98"/><path fill="none" stroke="#7c3990" stroke-miterlimit="10" d="M81.7 244.99h25.44v24.75H81.7z"/><circle cx="86.87" cy="265.21" r=".82" fill="#bd92c2" stroke="#7d3990" stroke-miterlimit="10"/><circle cx="102.58" cy="249.5" r=".82" fill="#bd92c2" stroke="#7d3990" stroke-miterlimit="10"/><circle cx="102.58" cy="265.21" r=".82" fill="#bd92c2" stroke="#7d3990" stroke-miterlimit="10"/><circle cx="86.87" cy="249.5" r=".82" fill="#bd92c2" stroke="#7d3990" stroke-miterlimit="10"/><path fill="#5a7c98" stroke="#7d3990" stroke-miterlimit="10" d="M81.7 220.17h25.44v24.75H81.7z"/><path fill="#a5c9b9" d="M83.71 242.97l-1.98 1.95v-24.78h25.41l-2.01 1.98H83.71v20.85z"/><path fill="#4cb99b" stroke="#7d3990" stroke-miterlimit="10" d="M83.71 222.12h21.43v20.85H83.71z"/><path fill="#da1c5c" stroke="#7c3990" stroke-miterlimit="10" d="M83.71 222.12l-1.98-1.98m23.4 1.98l1.98-1.98m-1.98 22.83l1.98 1.98m-23.4-1.98l-1.98 1.98"/><path fill="none" stroke="#7c3990" stroke-miterlimit="10" d="M81.7 220.17h25.44v24.75H81.7z"/><circle cx="86.87" cy="240.38" r=".82" fill="#bd92c2" stroke="#7d3990" stroke-miterlimit="10"/><circle cx="102.58" cy="224.67" r=".82" fill="#bd92c2" stroke="#7d3990" stroke-miterlimit="10"/><circle cx="102.58" cy="240.38" r=".82" fill="#bd92c2" stroke="#7d3990" stroke-miterlimit="10"/><circle cx="86.87" cy="224.67" r=".82" fill="#bd92c2" stroke="#7d3990" stroke-miterlimit="10"/><path fill="#6d6069" stroke="#7d3990" stroke-miterlimit="10" d="M208.8 269.82h25.44v24.75H208.8z"/><path fill="#fae5a3" d="M210.81 292.62l-1.98 1.95v-24.78h25.41l-2 1.98h-21.43v20.85z"/><path fill="#e6e642" stroke="#7d3990" stroke-miterlimit="10" d="M210.81 271.77h21.43v20.85h-21.43z"/><path fill="#da1c5c" stroke="#7c3990" stroke-miterlimit="10" d="M210.81 271.77l-1.98-1.98m23.41 1.98l1.98-1.98m-1.98 22.83l1.98 1.98m-23.41-1.98l-1.98 1.98"/><path fill="none" stroke="#7c3990" stroke-miterlimit="10" d="M208.8 269.82h25.44v24.75H208.8z"/><circle cx="213.97" cy="290.03" r=".82" fill="#bd92c2" stroke="#7d3990" stroke-miterlimit="10"/><circle cx="229.68" cy="274.32" r=".82" fill="#bd92c2" stroke="#7d3990" stroke-miterlimit="10"/><circle cx="229.68" cy="290.03" r=".82" fill="#bd92c2" stroke="#7d3990" stroke-miterlimit="10"/><circle cx="213.97" cy="274.32" r=".82" fill="#bd92c2" stroke="#7d3990" stroke-miterlimit="10"/><path fill="#665fa3" stroke="#7d3990" stroke-miterlimit="10" d="M208.8 244.99h25.44v24.75H208.8z"/><path fill="#9accee" d="M210.81 267.79l-1.98 1.95v-24.77h25.41l-2 1.97h-21.43v20.85z"/><path fill="#3489c9" stroke="#7d3990" stroke-miterlimit="10" d="M210.81 246.94h21.43v20.85h-21.43z"/><path fill="#da1c5c" stroke="#7c3990" stroke-miterlimit="10" d="M210.81 246.94l-1.98-1.98m23.41 1.98l1.98-1.98m-1.98 22.83l1.98 1.98m-23.41-1.98l-1.98 1.98"/><path fill="none" stroke="#7c3990" stroke-miterlimit="10" d="M208.8 244.99h25.44v24.75H208.8z"/><circle cx="213.97" cy="265.21" r=".82" fill="#bd92c2" stroke="#7d3990" stroke-miterlimit="10"/><circle cx="229.68" cy="249.5" r=".82" fill="#bd92c2" stroke="#7d3990" stroke-miterlimit="10"/><circle cx="229.68" cy="265.21" r=".82" fill="#bd92c2" stroke="#7d3990" stroke-miterlimit="10"/><circle cx="213.97" cy="249.5" r=".82" fill="#bd92c2" stroke="#7d3990" stroke-miterlimit="10"/><path fill="#6b6c64" stroke="#7d3990" stroke-miterlimit="10" d="M208.8 220.17h25.44v24.75H208.8z"/><path fill="#f9e6ba" d="M210.81 242.97l-1.98 1.95v-24.78h25.41l-2 1.98h-21.43v20.85z"/><path fill="#c89e73" stroke="#7d3990" stroke-miterlimit="10" d="M210.81 222.12h21.43v20.85h-21.43z"/><path fill="#da1c5c" stroke="#7c3990" stroke-miterlimit="10" d="M210.81 222.12l-1.98-1.98m23.41 1.98l1.98-1.98m-1.98 22.83l1.98 1.98m-23.41-1.98l-1.98 1.98"/><path fill="none" stroke="#7c3990" stroke-miterlimit="10" d="M208.8 220.17h25.44v24.75H208.8z"/><circle cx="213.97" cy="240.38" r=".82" fill="#bd92c2" stroke="#7d3990" stroke-miterlimit="10"/><circle cx="229.68" cy="224.67" r=".82" fill="#bd92c2" stroke="#7d3990" stroke-miterlimit="10"/><circle cx="229.68" cy="240.38" r=".82" fill="#bd92c2" stroke="#7d3990" stroke-miterlimit="10"/><circle cx="213.97" cy="224.67" r=".82" fill="#bd92c2" stroke="#7d3990" stroke-miterlimit="10"/><path fill="#665fa3" stroke="#7d3990" stroke-miterlimit="10" d="M208.8 195.34h25.44v24.75H208.8z"/><path fill="#a5cfef" d="M210.81 218.14l-1.98 1.95v-24.78h25.41l-2 1.98h-21.43v20.85z"/><path fill="#3489c9" stroke="#7d3990" stroke-miterlimit="10" d="M210.81 197.29h21.43v20.85h-21.43z"/><path fill="#da1c5c" stroke="#7c3990" stroke-miterlimit="10" d="M210.81 197.29l-1.98-1.98m23.41 1.98l1.98-1.98m-1.98 22.83l1.98 1.98m-23.41-1.98l-1.98 1.98"/><path fill="none" stroke="#7c3990" stroke-miterlimit="10" d="M208.8 195.34h25.44v24.75H208.8z"/><circle cx="213.97" cy="215.56" r=".82" fill="#bd92c2" stroke="#7d3990" stroke-miterlimit="10"/><circle cx="229.68" cy="199.85" r=".82" fill="#bd92c2" stroke="#7d3990" stroke-miterlimit="10"/><circle cx="229.68" cy="215.56" r=".82" fill="#bd92c2" stroke="#7d3990" stroke-miterlimit="10"/><circle cx="213.97" cy="199.85" r=".82" fill="#bd92c2" stroke="#7d3990" stroke-miterlimit="10"/><path fill="#da1c5c" stroke="#7c3990" stroke-miterlimit="10" d="M163.45 63.37h62.08v11.14h-62.08z"/><path fill="#e6cbe2" stroke="#7d3990" stroke-miterlimit="10" d="M62.322 24.384l8.838-1.051 5.539 46.592-8.838 1.05z"/><path fill="#e299c3" stroke="#7d3990" stroke-miterlimit="10" d="M68.77 25.43l2.39-2.11 5.54 46.6-2.39 2.1"/><path fill="#da1c5c" stroke="#7c3990" stroke-miterlimit="10" d="M64.14 2l-9.99 12.62.48 3.99.66 5.6.23 1.92 12.67 9.92 9.99-12.62-.23-1.91-.67-5.6-.47-4L64.14 2z"/><path fill="#f6ebf4" stroke="#7d3990" stroke-miterlimit="10" d="M64.14 2l-9.99 12.62.48 3.99.66 5.6.23 1.92 12.67 9.92"/><path fill="none" stroke="#7d3990" stroke-miterlimit="10" d="M71.25 21.42l6.93 2.01m-11.1 3.25l1.11 9.37m-6.4-13.51l-6.27 3.59m15.02-10.62l6.27-3.59m-11.55-.55L64.14 2m-3.06 14.64l-6.93-2.02"/><path fill="#e6cbe2" stroke="#7d3990" stroke-miterlimit="10" d="M65.26 11.37l-4.18 5.27.15 1.19.46 3.94.09.77 5.3 4.14 4.17-5.26-.09-.77-.47-3.95-.14-1.19-5.29-4.14zm28.23 52.2v-4.95h-43.3v4.95"/><path fill="#da1c5c" stroke="#7c3990" stroke-miterlimit="10" d="M40.8 63.37h62.08v11.14H40.8z"/><path fill="#e6cbe2" stroke="#7d3990" stroke-miterlimit="10" d="M11.71 69.12h23.37v5.39H11.71z"/><path fill="#da1c5c" stroke="#7c3990" stroke-miterlimit="10" d="M14.16 62.04h18.47v7.08H14.16z"/><path fill="#e6cbe2" stroke="#7d3990" stroke-miterlimit="10" d="M134.46 69.12h23.37v5.39h-23.37z"/><path fill="#da1c5c" stroke="#7c3990" stroke-miterlimit="10" d="M136.91 62.04h18.47v7.08h-18.47z"/><path fill="#e6cbe2" stroke="#7d3990" stroke-miterlimit="10" d="M152.66 81.87h41.02v7.36h-41.02z"/><path fill="#e6cbe2" stroke="#7d3990" stroke-miterlimit="10" d="M214.98 79.67H25.68l3.15 3.05h183l3.15-3.05zm-10.91 10.57l13.64-13.22M36.6 90.24L22.96 77.02m133.49 12.21h33.43a14.16 14.16 0 0 1-14.16 14.16h-5.12a14.16 14.16 0 0 1-14.16-14.16h.01zm-75.94-1.85h41.02v7.36H80.51z"/><path fill="#e6cbe2" stroke="#7d3990" stroke-miterlimit="10" d="M208.83 85.18H31.5l3.15 3.05h171.03l3.15-3.05zM84.3 94.74h33.43a14.16 14.16 0 0 1-14.16 14.16h-5.11A14.16 14.16 0 0 1 84.3 94.74z"/><path fill="#fff" opacity=".65" d="M131.33 74.77L5.44 202.5v-35.51L94 74.72l37.33.05zm26.64-.02L5.44 226.89v-9.51L148.07 74.7l9.9.05z"/><path fill="none" stroke="#7d3990" stroke-miterlimit="10" d="M5.44 74.51h228.8V294.6H5.44z"/></g></svg>