<svg xmlns="http://www.w3.org/2000/svg" width="43.63" height="45.41" viewBox="0 0 43.63 45.41"><g data-name="ILLO 4"><path d="M26.4 9.67l9.92 1.63 2.34 3.16-.58 3.88-3.16 2.34L36 24.92l5.84-4.33 1.06-7.19-4.33-5.85-13.23-2.12z" fill="#c093c3"/><path d="M25.41 4.92L38.64 7l.34.2 4.33 5.85.09.38-1.07 7.2-.2.33-5.85 4.34-.8-.29-1.06-4.24.19-.54 3-2.21.52-3.47L36 11.77l-9.71-1.59-.42-.39-1.03-4.24zM38.28 8L26 6.05l.79 3.16 9.58 1.58.34.2 2.34 3.16.09.38-.58 3.89-.2.34-2.86 2.13.79 3.16 5.06-3.74 1-6.78z" fill="#7c3990"/><path d="M18.23 5.43L5 7.55.67 13.4l1.07 7.19 5.85 4.33 1.06-4.24-3.16-2.34-.58-3.88 2.34-3.16 9.92-1.63z" fill="#c093c3"/><path d="M18.73 5.55l-1.06 4.24-.42.39-9.71 1.59-2.09 2.82.55 3.47 3 2.21.2.54-1.11 4.24-.81.29L1.44 21l-.2-.33-1.08-7.2.1-.38 4.33-5.85.34-.24 13.22-2.08zm-17.52 8l1 6.78 5.06 3.74.79-3.16-2.87-2.15-.19-.34-.6-3.89.1-.38L6.84 11l.34-.2 9.58-1.58.79-3.16L5.29 8z" fill="#7c3990"/><path fill="#e6cae2" d="M18.95 14.38l5.3.01 3.76-3.75V5.33l-3.75-3.76h-5.3L15.2 5.32v5.31l3.75 3.75z"/><path d="M18.82 1.24h5.58l3.94 4v5.58l-3.95 4h-5.58l-3.94-4V5.18zm5.31.66h-5l-3.6 3.55v5l3.56 3.56h5l3.56-3.56v-5z" fill="#7c3990"/><path fill="#b87bb5" d="M24.25 14.39l-5.3-.01-3.75-3.75V5.32l3.76-3.75h5.3l-1.01 2.45-.01 7.92 1.01 2.45z"/><path fill="#c093c3" d="M19.96 11.94h3.28l2.32-2.32.01-3.28-2.32-2.32h-3.28l-2.33 2.31v3.29l2.32 2.32z"/><path d="M19.83 3.69h3.56l2.51 2.52v3.55l-2.51 2.51h-3.57l-2.51-2.52V6.2zm3.28.66h-3L18 6.47v3l2.13 2.13h3l2.12-2.12v-3z" fill="#7c3990"/><path fill="#7c3990" d="M22.936 12.06l.61-.253 1.012 2.45-.61.251zm-4.292 2.19l1.016-2.448.61.254-1.017 2.447zm-3.579-3.924l2.45-1.012.251.61-2.449 1.012zm.001-4.7l.253-.61 2.448 1.017-.253.61zm3.586-3.933l.61-.252 1.012 2.45-.61.251zm4.294 2.201l1.017-2.447.61.253-1.017 2.447zm2.498 2.142l2.449-1.012.252.61-2.45 1.012zm0 3.886l.253-.61 2.447 1.016-.253.61z"/><path d="M18.82 1.24h5.58l3.94 4v5.58l-3.95 4h-5.58l-3.94-4V5.18zm5.31.66h-5l-3.6 3.55v5l3.56 3.56h5l3.56-3.56v-5z" fill="#7c3990"/><path fill="#b16e2c" stroke="#7d3990" stroke-miterlimit="10" d="M9.06 17.49H34.5v24.75H9.06z"/><path fill="#e1d768" d="M11.07 40.29l-1.98 1.96V17.47H34.5l-2 1.98H11.07v20.84z"/><path fill="#fff34d" stroke="#7d3990" stroke-miterlimit="10" d="M11.07 19.45H32.5V40.3H11.07z"/><path fill="#da1c5c" stroke="#7c3990" stroke-miterlimit="10" d="M11.07 19.45l-1.98-1.98m23.41 1.98l1.98-1.98M32.5 40.29l1.98 1.98m-23.41-1.98l-1.98 1.98"/><path fill="none" stroke="#7c3990" stroke-miterlimit="10" d="M9.06 17.49H34.5v24.75H9.06z"/><circle cx="14.23" cy="37.71" r=".82" fill="#bd92c2" stroke="#7d3990" stroke-miterlimit="10"/><circle cx="29.94" cy="22" r=".82" fill="#bd92c2" stroke="#7d3990" stroke-miterlimit="10"/><circle cx="29.94" cy="37.71" r=".82" fill="#bd92c2" stroke="#7d3990" stroke-miterlimit="10"/><circle cx="14.23" cy="22" r=".82" fill="#bd92c2" stroke="#7d3990" stroke-miterlimit="10"/></g></svg>