<svg xmlns="http://www.w3.org/2000/svg" width="342.27" height="293.87" viewBox="0 0 342.27 293.87"><g data-name="ILLO 4"><path fill="#da1c5c" stroke="#7c3990" stroke-miterlimit="10" d="M169.49 72.48l-30.76 30.6v91.67l30.76 30.6 30.76-30.6v-91.67l-30.76-30.6z"/><path fill="#f6ebf4" stroke="#7d3990" stroke-miterlimit="10" d="M169.49 72.48l-30.76 30.6v91.67l30.76 30.6"/><path fill="none" stroke="#7d3990" stroke-miterlimit="10" d="M182.33 187.14l17.92 7.61m-30.76 5.16v25.44m-12.85-38.22l-17.91 7.62m43.6-84.06l17.92-7.61m-30.76-5.15V72.49m-12.85 38.21l-17.91-7.62"/><path fill="#e6cbe2" stroke="#7d3990" stroke-miterlimit="10" d="M169.49 97.93l-12.85 12.77v76.43l12.85 12.78 12.84-12.77v-76.45l-12.84-12.76zM21.96 243.32h186.11v45.58H21.96z"/><path fill="#fff" d="M27.76 283.25l-5.72 5.65v-45.66h186.03l-5.8 5.72H27.76v34.29z"/><path fill="#f6ebf4" stroke="#7d3990" stroke-miterlimit="10" d="M27.76 248.96h174.51v34.29H27.76z"/><path fill="#da1c5c" stroke="#7c3990" stroke-miterlimit="10" d="M27.76 248.96l-5.72-5.72m180.23 5.72l5.72-5.72m-5.72 40.01l5.72 5.72m-180.23-5.72l-5.72 5.72"/><path fill="none" stroke="#7c3990" stroke-miterlimit="10" d="M21.96 243.32h186.11v45.58H21.96z"/><path fill="#bd8bbe" stroke="#7d3990" stroke-miterlimit="10" d="M227.2 172.85h93.64v85.24H227.2z"/><path fill="#fff" d="M233 252.44l-5.72 5.65v-85.32h93.56l-5.8 5.72H233v73.95z"/><path fill="#c9a8cf" stroke="#7d3990" stroke-miterlimit="10" d="M233 178.49h82.04v73.95H233z"/><path fill="#da1c5c" stroke="#7c3990" stroke-miterlimit="10" d="M233 178.49l-5.72-5.72m87.76 5.72l5.72-5.72m-5.72 79.67l5.72 5.72M233 252.44l-5.72 5.72"/><path fill="none" stroke="#7c3990" stroke-miterlimit="10" d="M227.2 172.85h93.64v85.24H227.2z"/><path fill="#e29dc5" stroke="#7d3990" stroke-miterlimit="10" d="M38.08 66.56h76.41v154.55H38.08z"/><path fill="#fff" d="M43.88 215.47l-5.72 5.64V66.48h76.33l-5.8 5.73H43.88v143.26z"/><path fill="#f3cbe0" stroke="#7d3990" stroke-miterlimit="10" d="M43.88 72.21h64.81v143.26H43.88z"/><path fill="#da1c5c" stroke="#7c3990" stroke-miterlimit="10" d="M43.88 72.21l-5.72-5.73m70.53 5.73l5.72-5.73m-5.72 148.99l5.72 5.72m-70.53-5.72l-5.72 5.72"/><path fill="none" stroke="#7c3990" stroke-miterlimit="10" d="M38.08 66.56h76.41v154.55H38.08z"/><path fill="#e6cbe2" stroke="#7d3990" stroke-miterlimit="10" d="M218.96 42.79h99.2v109.23h-99.2z"/><path fill="#fff" d="M225.1 146.04l-6.06 5.98V42.71h99.12l-6.15 6.06H225.1v97.27z"/><path fill="#f6ebf4" stroke="#7d3990" stroke-miterlimit="10" d="M225.1 48.77h86.91v97.27H225.1z"/><path fill="#da1c5c" stroke="#7c3990" stroke-miterlimit="10" d="M225.1 48.77l-6.06-6.06m92.97 6.06l6.06-6.06m-6.06 103.33l6.06 6.06m-92.97-6.06l-6.06 6.06"/><path fill="none" stroke="#7c3990" stroke-miterlimit="10" d="M218.96 42.79h99.2v109.23h-99.2z"/><path fill="#da1c5c" stroke="#7c3990" stroke-miterlimit="10" d="M49.57 252.88l3.2 8.53 9.11.41-7.13 5.68 2.43 8.79-7.61-5.02-7.6 5.02 2.42-8.79-7.13-5.68 9.11-.41 3.2-8.53zm32.72 0l3.21 8.53 9.1.41-7.12 5.68 2.42 8.79-7.61-5.02-7.6 5.02 2.42-8.79-7.13-5.68 9.11-.41 3.2-8.53zm32.72 0l3.21 8.53 9.1.41-7.12 5.68 2.42 8.79-7.61-5.02-7.6 5.02 2.42-8.79-7.12-5.68 9.1-.41 3.2-8.53z"/><path fill="#bd8bbe" stroke="#7d3990" stroke-miterlimit="10" d="M147.73 252.88l3.21 8.53 9.1.41-7.12 5.68 2.42 8.79-7.61-5.02-7.6 5.02 2.42-8.79-7.12-5.68 9.1-.41 3.2-8.53zm32.73 0l3.2 8.53 9.1.41-7.12 5.68 2.42 8.79-7.6-5.02-7.61 5.02 2.42-8.79-7.12-5.68 9.1-.41 3.21-8.53z"/><path fill="#fff" stroke="#7d3990" stroke-miterlimit="10" d="M50.98 80.6h14.64v14.64H50.98z"/><path fill="#f6ebf4" stroke="#7d3990" stroke-miterlimit="10" d="M71.51 83.43h29.57m-29.57 4.49h29.57m-29.57 4.5h21.43"/><path fill="#fff" stroke="#7d3990" stroke-miterlimit="10" d="M50.98 102.94h14.64v14.64H50.98z"/><path fill="#f6ebf4" stroke="#7d3990" stroke-miterlimit="10" d="M71.51 105.77h29.57m-29.57 4.49h29.57m-29.57 4.49h21.43"/><path fill="#fff" stroke="#7d3990" stroke-miterlimit="10" d="M50.98 125.28h14.64v14.64H50.98z"/><path fill="#f6ebf4" stroke="#7d3990" stroke-miterlimit="10" d="M71.51 128.1h29.57m-29.57 4.5h19.92"/><path fill="#fff" stroke="#7d3990" stroke-miterlimit="10" d="M50.98 147.61h14.64v14.64H50.98zm20.53 2.83h29.57m-29.57 4.49h29.57m-29.57 4.49h25.95"/><rect x="233.37" y="105.47" width="1.62" height="1.62" rx=".81" ry=".81" fill="#7d3990" stroke="#7d3990" stroke-miterlimit="10"/><path fill="#fff" stroke="#7d3990" stroke-miterlimit="10" d="M237.94 106.28h65.9m-65.9 4.76h36.08"/><rect x="233.37" y="117.81" width="1.62" height="1.62" rx=".81" ry=".81" fill="#7d3990" stroke="#7d3990" stroke-miterlimit="10"/><path fill="#fff" stroke="#7d3990" stroke-miterlimit="10" d="M237.94 118.62h65.9m-65.9 4.76h54.34"/><rect x="233.37" y="130.15" width="1.62" height="1.62" rx=".81" ry=".81" fill="#7d3990" stroke="#7d3990" stroke-miterlimit="10"/><path fill="#fff" stroke="#7d3990" stroke-miterlimit="10" d="M237.94 130.96h65.9m-65.9 4.76h48.04m-235 34.23h14.64v14.64H50.98z"/><path fill="#f6ebf4" stroke="#7d3990" stroke-miterlimit="10" d="M71.51 172.77h29.57m-29.57 4.5h29.57m-29.57 4.49h14.78"/><path fill="#fff" stroke="#7d3990" stroke-miterlimit="10" d="M50.98 192.28h14.64v14.64H50.98z"/><path fill="#f6ebf4" stroke="#7d3990" stroke-miterlimit="10" d="M71.51 195.11h29.57m-29.57 4.49h25.95"/><path fill="#fff" stroke="#7d3990" stroke-miterlimit="10" d="M240.258 80.272l3.73-1.102 3.945 13.35-3.73 1.101z"/><path fill="#70cee9" stroke="#7c3990" stroke-miterlimit="10" d="M298.72 87.14l-51.68 2.5-2.23-7.53 44.16-27.97 9.75 33z"/><path fill="#fff" stroke="#7d3990" stroke-miterlimit="10" d="M272.28 88.42l-4 .19-5.32-18 3.42-2.16 5.9 19.97zm16.96-.9l-5.6.27-7.45-25.21 4.78-3.03 8.27 27.97z"/><path fill="none" stroke="#7d3990" stroke-miterlimit="10" d="M260.31 88.99v4.39l7.31 3.11 6.96-3.11V88.3"/><path fill="none" stroke="#7c3990" stroke-miterlimit="10" d="M169.48 4.66v59.02m-24-43.49l8.82 38.61m-25.53-19.31l12.22 22.57m52.49-41.87l-8.82 38.61m25.53-19.31l-12.22 22.57"/><path fill="#ee2c7b" stroke="#7c3990" stroke-miterlimit="10" d="M227.47 268.61l-5.67 5.64v11.35l5.67 5.64 5.68-5.64v-11.35l-5.68-5.64z"/><path fill="#f6ebf4" stroke="#7d3990" stroke-miterlimit="10" d="M227.47 268.61l-5.67 5.64v11.35l5.67 5.64"/><path fill="none" stroke="#7d3990" stroke-miterlimit="10" d="M229.84 284.2l3.31 1.4m-5.68.95v4.69m-2.37-7.05l-3.3 1.41m8.04-9.94l3.31-1.4m-5.68-.96v-4.69m-2.37 7.05l-3.3-1.4"/><path fill="#e6cbe2" stroke="#7d3990" stroke-miterlimit="10" d="M227.47 273.3l-2.37 2.36v8.53l2.37 2.36 2.37-2.35v-8.54l-2.37-2.36z"/><path fill="#ee2c7b" stroke="#7c3990" stroke-miterlimit="10" d="M134.88 217.86l-3.75 3.73v7.52l3.75 3.73 3.76-3.73v-7.52l-3.76-3.73z"/><path fill="#f6ebf4" stroke="#7d3990" stroke-miterlimit="10" d="M134.88 217.86l-3.75 3.73v7.52l3.75 3.73"/><path fill="none" stroke="#7d3990" stroke-miterlimit="10" d="M136.45 228.18l2.19.93m-3.76.63v3.1m-1.57-4.66l-2.18.93m5.32-6.59l2.19-.93m-3.76-.63v-3.1m-1.57 4.66l-2.18-.93"/><path fill="#e6cbe2" stroke="#7d3990" stroke-miterlimit="10" d="M134.88 220.97l-1.57 1.56v5.65l1.57 1.56 1.57-1.56v-5.66l-1.57-1.55z"/><path fill="#ee2c7b" stroke="#7c3990" stroke-miterlimit="10" d="M244.81 4.66l-5.88 5.85v11.76l5.88 5.85 5.88-5.85V10.51l-5.88-5.85z"/><path fill="#f6ebf4" stroke="#7d3990" stroke-miterlimit="10" d="M244.81 4.66l-5.88 5.85v11.76l5.88 5.85"/><path fill="none" stroke="#7d3990" stroke-miterlimit="10" d="M247.27 20.81l3.42 1.46m-5.88.98v4.87m-2.45-7.31l-3.43 1.46m8.34-10.3l3.42-1.46m-5.88-.98V4.66m-2.45 7.31l-3.43-1.46"/><path fill="#e6cbe2" stroke="#7d3990" stroke-miterlimit="10" d="M244.81 9.53l-2.45 2.44v8.84l2.45 2.44 2.46-2.44v-8.84l-2.46-2.44z"/><path fill="#ee2c7b" stroke="#7c3990" stroke-miterlimit="10" d="M9.76 141.28l-7.13 7.1v21.14l7.13 7.1 7.14-7.1v-21.14l-7.14-7.1z"/><path fill="#f6ebf4" stroke="#7d3990" stroke-miterlimit="10" d="M9.76 141.28l-7.13 7.1v21.14l7.13 7.1"/><path fill="none" stroke="#7d3990" stroke-miterlimit="10" d="M12.74 167.76l4.16 1.76m-7.14 1.2v5.9m-2.98-8.86l-4.15 1.76m10.11-19.37l4.16-1.77m-7.14-1.2v-5.9m-2.98 8.87l-4.15-1.77"/><path fill="#e6cbe2" stroke="#7d3990" stroke-miterlimit="10" d="M9.76 147.18l-2.98 2.97v17.61l2.98 2.96 2.98-2.96v-17.61l-2.98-2.97z"/><path fill="#ee2c7b" stroke="#7c3990" stroke-miterlimit="10" d="M102.71 28.07l-7.14 7.1v8.3l7.14 7.1 7.13-7.1v-8.3l-7.13-7.1z"/><path fill="#f6ebf4" stroke="#7d3990" stroke-miterlimit="10" d="M102.71 28.07l-7.14 7.1v8.3l7.14 7.1"/><path fill="none" stroke="#7d3990" stroke-miterlimit="10" d="M105.69 41.71l4.15 1.76m-7.13 1.2v5.9m-2.98-8.87l-4.16 1.77m10.12-6.54l4.15-1.76m-7.13-1.2v-5.9m-2.98 8.86l-4.16-1.76"/><path fill="#e6cbe2" stroke="#7d3990" stroke-miterlimit="10" d="M102.71 33.97l-2.98 2.96v4.77l2.98 2.97 2.98-2.96v-4.78l-2.98-2.96z"/><path fill="#ee2c7b" stroke="#7c3990" stroke-miterlimit="10" d="M331.84 144.47l-7.13 7.1v8.3l7.13 7.1 7.14-7.1v-8.3l-7.14-7.1z"/><path fill="#f6ebf4" stroke="#7d3990" stroke-miterlimit="10" d="M331.84 144.47l-7.13 7.1v8.3l7.13 7.1"/><path fill="none" stroke="#7d3990" stroke-miterlimit="10" d="M334.82 158.11l4.16 1.76m-7.14 1.2v5.9m-2.98-8.87l-4.15 1.77m10.11-6.54l4.16-1.76m-7.14-1.2v-5.9m-2.98 8.86l-4.15-1.76"/><path fill="#e6cbe2" stroke="#7d3990" stroke-miterlimit="10" d="M331.84 150.37l-2.98 2.96v4.77l2.98 2.97 2.98-2.96v-4.78l-2.98-2.96z"/><path fill="#f2c43c" stroke="#7c3990" stroke-miterlimit="10" d="M284.86 190.45h-20.69l-14.64 14.63v20.7l14.64 14.63h20.69l14.64-14.63v-20.7l-14.64-14.63z"/><path fill="#f2c43c" stroke="#7c3990" stroke-miterlimit="10" d="M261.17 219.18l7.82 7.82h11.05l7.82-7.82"/></g></svg>