<svg xmlns="http://www.w3.org/2000/svg" xmlns:xlink="http://www.w3.org/1999/xlink" width="46.75" height="43.97" viewBox="0 0 46.75 43.97"><defs><clipPath id="clip-path"><path d="M25.34,1.7H21.93a19.88,19.88,0,0,0,0,39.75h3.41" style="fill:none"/></clipPath></defs><title>Artboard 35</title><g id="ILLO_4" data-name="ILLO 4"><path d="M25.34,1.7H21.93a19.88,19.88,0,0,0,0,39.75h3.41" style="fill:#e2e2e2;stroke:#7c3990;stroke-miterlimit:10"/><g style="clip-path:url(#clip-path)"><line x1="1.38" y1="2.65" x2="21.66" y2="2.65" style="fill:#f5ebf4;stroke:#7d3990;stroke-linejoin:bevel"/><line x1="1.38" y1="8.71" x2="21.66" y2="8.71" style="fill:#f5ebf4;stroke:#7d3990;stroke-linejoin:bevel"/><line x1="1.38" y1="14.76" x2="21.66" y2="14.76" style="fill:#f5ebf4;stroke:#7d3990;stroke-linejoin:bevel"/><line x1="1.38" y1="20.82" x2="21.66" y2="20.82" style="fill:#f5ebf4;stroke:#7d3990;stroke-linejoin:bevel"/><line x1="1.38" y1="26.88" x2="21.66" y2="26.88" style="fill:#f5ebf4;stroke:#7d3990;stroke-linejoin:bevel"/><line x1="1.38" y1="32.94" x2="21.66" y2="32.94" style="fill:#f5ebf4;stroke:#7d3990;stroke-linejoin:bevel"/><line x1="1.38" y1="38.99" x2="21.66" y2="38.99" style="fill:#f5ebf4;stroke:#7d3990;stroke-linejoin:bevel"/><line x1="1.38" y1="40.51" x2="21.66" y2="40.51" style="fill:#f5ebf4;stroke:#7d3990;stroke-linejoin:bevel"/></g><path d="M25.34,1.7A19.88,19.88,0,1,0,45.22,21.58,19.88,19.88,0,0,0,25.34,1.7Z" style="fill:#a7a7a8;stroke:#7c3990;stroke-miterlimit:10"/><path d="M25.34,5.19A16.39,16.39,0,1,0,41.73,21.58,16.39,16.39,0,0,0,25.34,5.19Zm0,32.77a16.39,16.39,0,1,0,0-32.77" style="fill:#cecece;stroke:#7c3990;stroke-miterlimit:10"/><path d="M25.34,38a16.39,16.39,0,1,0,0-32.77l-.5,0A16.38,16.38,0,0,1,24.75,38" style="fill:#e2e2e2;stroke:#7c3990;stroke-miterlimit:10"/><line x1="26.99" y1="10.88" x2="26.99" y2="14.6" style="fill:none;stroke:#7d3990;stroke-miterlimit:10"/><line x1="26.99" y1="27.76" x2="26.99" y2="31.48" style="fill:none;stroke:#7d3990;stroke-miterlimit:10"/><line x1="23.7" y1="10.88" x2="23.7" y2="14.6" style="fill:none;stroke:#7d3990;stroke-miterlimit:10"/><line x1="23.7" y1="27.76" x2="23.7" y2="31.48" style="fill:none;stroke:#7d3990;stroke-miterlimit:10"/><path d="M32.91,17a5.87,5.87,0,0,0-4.72-2.38H23A6.77,6.77,0,0,0,16.11,21a6.58,6.58,0,0,0,6.57,6.78h5.19a6.18,6.18,0,0,0,5.37-3.12" style="fill:none;stroke:#7d3990;stroke-miterlimit:10"/></g></svg>