<svg xmlns="http://www.w3.org/2000/svg" width="352.32" height="262.14" viewBox="0 0 352.32 262.14"><g data-name="ILLO 4"><path fill="#e6cbe2" stroke="#7d3990" stroke-miterlimit="10" d="M302.64 149.93l1.81 4.54v50.94l-1.81 3.61"/><path fill="#bd92c2" stroke="#7d3990" stroke-miterlimit="10" d="M228.67 106.37h52.22v49.91h-52.22z"/><path fill="#f6ebf4" d="M232.79 152.27l-4.07 4.01v-49.96h52.17l-4.12 4.06h-43.98v41.89z"/><path fill="#e6cbe2" stroke="#7d3990" stroke-miterlimit="10" d="M232.79 110.38h43.98v41.89h-43.98z"/><path fill="#da1c5c" stroke="#7c3990" stroke-miterlimit="10" d="M232.79 110.38l-4.07-4.06m48.05 4.06l4.06-4.06m-4.06 45.95l4.06 4.07m-48.04-4.07l-4.07 4.07"/><path fill="none" stroke="#7c3990" stroke-miterlimit="10" d="M228.67 106.37h52.22v49.91h-52.22z"/><circle cx="239.27" cy="146.97" r="1.69" fill="#bd92c2" stroke="#7d3990" stroke-miterlimit="10"/><circle cx="271.52" cy="115.63" r="1.69" fill="#bd92c2" stroke="#7d3990" stroke-miterlimit="10"/><circle cx="271.52" cy="146.97" r="1.69" fill="#bd92c2" stroke="#7d3990" stroke-miterlimit="10"/><circle cx="239.27" cy="115.63" r="1.69" fill="#bd92c2" stroke="#7d3990" stroke-miterlimit="10"/><path fill="#bd92c2" stroke="#7d3990" stroke-miterlimit="10" d="M228.67 156.39h52.22v49.91h-52.22z"/><path fill="none" stroke="#7c3990" stroke-miterlimit="10" d="M228.72 156.34l6.81 6.8v43.16m45.3-49.96l-6.8 6.8v43.16"/><path fill="none" stroke="#7c3990" stroke-miterlimit="10" d="M228.67 156.39h52.22v49.91h-52.22z"/><path fill="#e6cbe2" stroke="#7d3990" stroke-miterlimit="10" d="M54.82 36.33h6.94v219.86h-6.94z"/><path fill="#da1c5c" stroke="#7c3990" stroke-miterlimit="10" d="M54.64 90.15L.67 65.89l53.97-24.26v48.52z"/><path fill="#da1c5c" stroke="#7c3990" stroke-miterlimit="10" d="M40.33 51.36l-8.94 8.9v10.01l8.94 8.9 8.95-8.9V60.26l-8.95-8.9z"/><path fill="#f6ebf4" stroke="#7d3990" stroke-miterlimit="10" d="M40.33 51.36l-8.94 8.9v10.01l8.94 8.9"/><path fill="none" stroke="#7d3990" stroke-miterlimit="10" d="M44.07 68.06l5.21 2.21m-8.94 1.5l-.01 7.4M36.6 68.05l-5.21 2.22m12.68-7.8l5.21-2.21m-8.94-1.5l-.01-7.4M36.6 62.47l-5.21-2.21"/><path fill="#e6cbe2" stroke="#7d3990" stroke-miterlimit="10" d="M40.34 58.76l-3.74 3.71v5.58l3.74 3.72 3.73-3.71v-5.59l-3.73-3.71z"/><path fill="#da1c5c" stroke="#7c3990" stroke-miterlimit="10" d="M58.3 22.9l-5.35 5.31v5.98l5.35 5.32 5.34-5.32v-5.98L58.3 22.9z"/><path fill="#f6ebf4" stroke="#7d3990" stroke-miterlimit="10" d="M58.3 22.9l-5.35 5.31v5.98l5.35 5.32"/><path fill="none" stroke="#7d3990" stroke-miterlimit="10" d="M60.53 32.87l3.11 1.32m-5.34.9v4.42m-2.24-6.64l-3.11 1.32m7.58-4.66l3.11-1.32m-5.34-.89V22.9m-2.24 6.63l-3.11-1.32"/><path fill="#e6cbe2" stroke="#7d3990" stroke-miterlimit="10" d="M58.3 27.32l-2.24 2.22v3.33l2.24 2.22 2.23-2.22v-3.34l-2.23-2.21zm232.92 9.01h6.94v219.86h-6.94z"/><path fill="#da1c5c" stroke="#7c3990" stroke-miterlimit="10" d="M298.35 90.15l53.97-24.26-53.97-24.26v48.52z"/><path fill="#da1c5c" stroke="#7c3990" stroke-miterlimit="10" d="M312.65 51.36l8.94 8.9v10.01l-8.94 8.9-8.95-8.9V60.26l8.95-8.9z"/><path fill="#f6ebf4" stroke="#7d3990" stroke-miterlimit="10" d="M312.65 51.36l8.94 8.9v10.01l-8.94 8.9"/><path fill="none" stroke="#7d3990" stroke-miterlimit="10" d="M308.91 68.06l-5.21 2.21m8.95 1.5v7.4m3.73-11.12l5.21 2.22m-12.68-7.8l-5.21-2.21m8.95-1.5v-7.4m3.73 11.11l5.21-2.21"/><path fill="#e6cbe2" stroke="#7d3990" stroke-miterlimit="10" d="M312.65 58.76l3.73 3.71v5.58l-3.73 3.72-3.74-3.71v-5.59l3.74-3.71z"/><path fill="#da1c5c" stroke="#7c3990" stroke-miterlimit="10" d="M294.69 22.9l5.34 5.31v5.98l-5.34 5.32-5.34-5.32v-5.98l5.34-5.31z"/><path fill="#f6ebf4" stroke="#7d3990" stroke-miterlimit="10" d="M294.69 22.9l5.34 5.31v5.98l-5.34 5.32"/><path fill="none" stroke="#7d3990" stroke-miterlimit="10" d="M292.46 32.87l-3.12 1.32m5.35.9v4.42m2.23-6.64l3.11 1.32m-7.57-4.66l-3.12-1.32m5.35-.89V22.9m2.23 6.63l3.11-1.32"/><path fill="#e6cbe2" stroke="#7d3990" stroke-miterlimit="10" d="M294.69 27.32l2.23 2.22v3.33l-2.23 2.22-2.23-2.22v-3.34l2.23-2.21z"/><path fill="#da1c5c" stroke="#7c3990" stroke-miterlimit="10" d="M15.57 256.3h315.95"/><path fill="none" stroke="#7c3990" stroke-miterlimit="10" d="M235.53 163.14h38.5"/><path fill="#7c3990" opacity=".2" d="M228.78 156.39h52.11l-6.86 6.75v43.16h-45.25v-49.91z"/><path fill="#7c3990" opacity=".36" d="M235.84 163.37h38.19v42.93h-38.19z"/><path fill="#e6cbe2" stroke="#7d3990" stroke-miterlimit="10" d="M295.45 209.02l-14.51-2.72v-50.02l14.31-6.37"/><path fill="#bd92c2" stroke="#7d3990" stroke-miterlimit="10" d="M295.56 149.93h7.08v59.09h-7.08z"/><path fill="#e6cbe2" stroke="#7d3990" stroke-miterlimit="10" d="M51.04 99.9l-1.81 4.54v50.94l1.81 3.61m7.19 0l14.51-2.72v-50.02l-14.3-6.36"/><path fill="#7d3990" stroke="#7d3990" stroke-miterlimit="10" opacity=".65" d="M58.23 158.99l14.51-2.72v-50.02l-14.3-6.36"/><path fill="#bd92c2" stroke="#7d3990" stroke-miterlimit="10" d="M58.12 158.99h-7.08V99.9h7.08z"/><circle cx="254.78" cy="125.6" r="4.39" fill="#7d3990" stroke="#7d3990" stroke-miterlimit="10"/><path fill="#7d3990" stroke="#7d3990" stroke-miterlimit="10" d="M258.05 138.78h-6.55l1.61-11.72h3.33l1.61 11.72z"/><path fill="#bd92c2" stroke="#7d3990" stroke-miterlimit="10" d="M124.89 56.39h52.22v49.91h-52.22z"/><path fill="#f6ebf4" d="M129.01 102.28l-4.06 4.01V56.33h52.16l-4.12 4.07h-43.98v41.88z"/><path fill="#e6cbe2" stroke="#7d3990" stroke-miterlimit="10" d="M129.01 60.39h43.98v41.89h-43.98z"/><path fill="#da1c5c" stroke="#7c3990" stroke-miterlimit="10" d="M129.01 60.39l-4.06-4.06m48.04 4.06l4.07-4.06m-4.07 45.95l4.07 4.07m-48.05-4.07l-4.06 4.07"/><path fill="none" stroke="#7c3990" stroke-miterlimit="10" d="M124.89 56.39h52.22v49.91h-52.22z"/><circle cx="135.5" cy="96.98" r="1.69" fill="#bd92c2" stroke="#7d3990" stroke-miterlimit="10"/><circle cx="167.75" cy="65.64" r="1.69" fill="#bd92c2" stroke="#7d3990" stroke-miterlimit="10"/><circle cx="167.75" cy="96.98" r="1.69" fill="#bd92c2" stroke="#7d3990" stroke-miterlimit="10"/><circle cx="135.5" cy="65.64" r="1.69" fill="#bd92c2" stroke="#7d3990" stroke-miterlimit="10"/><circle cx="151" cy="75.61" r="4.39" fill="#7d3990" stroke="#7d3990" stroke-miterlimit="10"/><path fill="#7d3990" stroke="#7d3990" stroke-miterlimit="10" d="M154.28 88.79h-6.55l1.61-11.72h3.33l1.61 11.72z"/><path fill="#bd92c2" stroke="#7d3990" stroke-miterlimit="10" d="M124.68 106.37h52.22v49.91h-52.22z"/><path fill="#f6ebf4" d="M128.8 152.27l-4.06 4.01v-49.96h52.16l-4.12 4.06H128.8v41.89z"/><path fill="#e6cbe2" stroke="#7d3990" stroke-miterlimit="10" d="M128.8 110.38h43.98v41.89H128.8z"/><path fill="#da1c5c" stroke="#7c3990" stroke-miterlimit="10" d="M128.8 110.38l-4.06-4.06m48.04 4.06l4.07-4.06m-4.07 45.95l4.07 4.07m-48.05-4.07l-4.06 4.07"/><path fill="none" stroke="#7c3990" stroke-miterlimit="10" d="M124.68 106.37h52.22v49.91h-52.22z"/><circle cx="135.29" cy="146.97" r="1.69" fill="#bd92c2" stroke="#7d3990" stroke-miterlimit="10"/><circle cx="167.54" cy="115.63" r="1.69" fill="#bd92c2" stroke="#7d3990" stroke-miterlimit="10"/><circle cx="167.54" cy="146.97" r="1.69" fill="#bd92c2" stroke="#7d3990" stroke-miterlimit="10"/><circle cx="135.29" cy="115.63" r="1.69" fill="#bd92c2" stroke="#7d3990" stroke-miterlimit="10"/><circle cx="150.79" cy="125.6" r="4.39" fill="#7d3990" stroke="#7d3990" stroke-miterlimit="10"/><path fill="#7d3990" stroke="#7d3990" stroke-miterlimit="10" d="M154.07 138.78h-6.55l1.61-11.72h3.33l1.61 11.72z"/><path fill="#bd92c2" stroke="#7d3990" stroke-miterlimit="10" d="M72.69 106.37h52.22v49.91H72.69z"/><path fill="none" stroke="#7c3990" stroke-miterlimit="10" d="M72.69 106.37h52.22v49.91H72.69z"/><path fill="#bd92c2" stroke="#7d3990" stroke-miterlimit="10" d="M228.67 56.41h52.22v49.91h-52.22z"/><path fill="#f6ebf4" d="M232.79 102.31l-4.07 4.01V56.36h52.17l-4.12 4.06h-43.98v41.89z"/><path fill="#e6cbe2" stroke="#7d3990" stroke-miterlimit="10" d="M232.79 60.42h43.98v41.89h-43.98z"/><path fill="#da1c5c" stroke="#7c3990" stroke-miterlimit="10" d="M232.79 60.42l-4.07-4.06m48.05 4.06l4.06-4.06m-4.06 45.95l4.06 4.06m-48.04-4.06l-4.07 4.06"/><path fill="none" stroke="#7c3990" stroke-miterlimit="10" d="M228.67 56.41h52.22v49.91h-52.22z"/><circle cx="239.27" cy="97.01" r="1.69" fill="#bd92c2" stroke="#7d3990" stroke-miterlimit="10"/><circle cx="271.52" cy="65.67" r="1.69" fill="#bd92c2" stroke="#7d3990" stroke-miterlimit="10"/><circle cx="271.52" cy="97.01" r="1.69" fill="#bd92c2" stroke="#7d3990" stroke-miterlimit="10"/><circle cx="239.27" cy="65.67" r="1.69" fill="#bd92c2" stroke="#7d3990" stroke-miterlimit="10"/><circle cx="254.78" cy="75.64" r="4.39" fill="#7d3990" stroke="#7d3990" stroke-miterlimit="10"/><path fill="#7d3990" stroke="#7d3990" stroke-miterlimit="10" d="M258.05 88.82h-6.55l1.61-11.72h3.33l1.61 11.72z"/><path fill="#bd92c2" stroke="#7d3990" stroke-miterlimit="10" d="M72.69 56.41h52.22v49.91H72.69z"/><path fill="#f6ebf4" d="M76.81 102.31l-4.07 4.01V56.36h52.17l-4.12 4.06H76.81v41.89z"/><path fill="#e6cbe2" stroke="#7d3990" stroke-miterlimit="10" d="M76.81 60.42h43.98v41.89H76.81z"/><path fill="#da1c5c" stroke="#7c3990" stroke-miterlimit="10" d="M76.81 60.42l-4.07-4.06m48.05 4.06l4.06-4.06m-4.06 45.95l4.06 4.06m-48.04-4.06l-4.07 4.06"/><path fill="none" stroke="#7c3990" stroke-miterlimit="10" d="M72.69 56.41h52.22v49.91H72.69z"/><circle cx="83.29" cy="97.01" r="1.69" fill="#bd92c2" stroke="#7d3990" stroke-miterlimit="10"/><circle cx="115.54" cy="65.67" r="1.69" fill="#bd92c2" stroke="#7d3990" stroke-miterlimit="10"/><circle cx="115.54" cy="97.01" r="1.69" fill="#bd92c2" stroke="#7d3990" stroke-miterlimit="10"/><circle cx="83.29" cy="65.67" r="1.69" fill="#bd92c2" stroke="#7d3990" stroke-miterlimit="10"/><circle cx="98.8" cy="75.64" r="4.39" fill="#7d3990" stroke="#7d3990" stroke-miterlimit="10"/><path fill="#7d3990" stroke="#7d3990" stroke-miterlimit="10" d="M102.07 88.82h-6.54l1.6-11.72h3.33l1.61 11.72z"/><path fill="#bd92c2" stroke="#7d3990" stroke-miterlimit="10" d="M176.67 156.32h52.22v49.91h-52.22z"/><path fill="#f6ebf4" d="M180.79 202.22l-4.06 4.01v-49.96h52.17l-4.12 4.06h-43.99v41.89z"/><path fill="#e6cbe2" stroke="#7d3990" stroke-miterlimit="10" d="M180.79 160.33h43.98v41.89h-43.98z"/><path fill="#da1c5c" stroke="#7c3990" stroke-miterlimit="10" d="M180.79 160.33l-4.06-4.06m48.05 4.06l4.06-4.06m-4.06 45.95l4.06 4.06m-48.05-4.06l-4.06 4.06"/><path fill="none" stroke="#7c3990" stroke-miterlimit="10" d="M176.67 156.32h52.22v49.91h-52.22z"/><circle cx="187.28" cy="196.92" r="1.69" fill="#bd92c2" stroke="#7d3990" stroke-miterlimit="10"/><circle cx="219.53" cy="165.58" r="1.69" fill="#bd92c2" stroke="#7d3990" stroke-miterlimit="10"/><circle cx="219.53" cy="196.92" r="1.69" fill="#bd92c2" stroke="#7d3990" stroke-miterlimit="10"/><circle cx="187.28" cy="165.58" r="1.69" fill="#bd92c2" stroke="#7d3990" stroke-miterlimit="10"/><circle cx="202.79" cy="175.55" r="4.39" fill="#7d3990" stroke="#7d3990" stroke-miterlimit="10"/><path fill="#7d3990" stroke="#7d3990" stroke-miterlimit="10" d="M206.06 188.73h-6.55l1.61-11.72h3.33l1.61 11.72z"/><path fill="#bd92c2" stroke="#7d3990" stroke-miterlimit="10" d="M124.68 156.32h52.22v49.91h-52.22z"/><path fill="#f6ebf4" d="M128.8 202.22l-4.06 4.01v-49.96h52.16l-4.12 4.06H128.8v41.89z"/><path fill="#e6cbe2" stroke="#7d3990" stroke-miterlimit="10" d="M128.8 160.33h43.98v41.89H128.8z"/><path fill="#da1c5c" stroke="#7c3990" stroke-miterlimit="10" d="M128.8 160.33l-4.06-4.06m48.04 4.06l4.07-4.06m-4.07 45.95l4.07 4.06m-48.05-4.06l-4.06 4.06"/><path fill="none" stroke="#7c3990" stroke-miterlimit="10" d="M124.68 156.32h52.22v49.91h-52.22z"/><circle cx="135.29" cy="196.92" r="1.69" fill="#bd92c2" stroke="#7d3990" stroke-miterlimit="10"/><circle cx="167.54" cy="165.58" r="1.69" fill="#bd92c2" stroke="#7d3990" stroke-miterlimit="10"/><circle cx="167.54" cy="196.92" r="1.69" fill="#bd92c2" stroke="#7d3990" stroke-miterlimit="10"/><circle cx="135.29" cy="165.58" r="1.69" fill="#bd92c2" stroke="#7d3990" stroke-miterlimit="10"/><circle cx="150.79" cy="175.55" r="4.39" fill="#7d3990" stroke="#7d3990" stroke-miterlimit="10"/><path fill="#7d3990" stroke="#7d3990" stroke-miterlimit="10" d="M154.07 188.73h-6.55l1.61-11.72h3.33l1.61 11.72z"/><path fill="#bd92c2" stroke="#7d3990" stroke-miterlimit="10" d="M72.69 156.32h52.22v49.91H72.69z"/><path fill="#f6ebf4" d="M76.81 202.22l-4.07 4.01v-49.96h52.17l-4.12 4.06H76.81v41.89z"/><path fill="#e6cbe2" stroke="#7d3990" stroke-miterlimit="10" d="M76.81 160.33h43.98v41.89H76.81z"/><path fill="#da1c5c" stroke="#7c3990" stroke-miterlimit="10" d="M76.81 160.33l-4.07-4.06m48.05 4.06l4.06-4.06m-4.06 45.95l4.06 4.06m-48.04-4.06l-4.07 4.06"/><path fill="none" stroke="#7c3990" stroke-miterlimit="10" d="M72.69 156.32h52.22v49.91H72.69z"/><circle cx="83.29" cy="196.92" r="1.69" fill="#bd92c2" stroke="#7d3990" stroke-miterlimit="10"/><circle cx="115.54" cy="165.58" r="1.69" fill="#bd92c2" stroke="#7d3990" stroke-miterlimit="10"/><circle cx="115.54" cy="196.92" r="1.69" fill="#bd92c2" stroke="#7d3990" stroke-miterlimit="10"/><circle cx="83.29" cy="165.58" r="1.69" fill="#bd92c2" stroke="#7d3990" stroke-miterlimit="10"/><circle cx="98.8" cy="175.55" r="4.39" fill="#7d3990" stroke="#7d3990" stroke-miterlimit="10"/><path fill="#7d3990" stroke="#7d3990" stroke-miterlimit="10" d="M102.07 188.73h-6.54l1.6-11.72h3.33l1.61 11.72z"/><path fill="#bd92c2" stroke="#7d3990" stroke-miterlimit="10" d="M228.67 206.35h52.22v49.91h-52.22z"/><path fill="#f6ebf4" d="M232.79 252.25l-4.07 4.01V206.3h52.17l-4.12 4.06h-43.98v41.89z"/><path fill="#e6cbe2" stroke="#7d3990" stroke-miterlimit="10" d="M232.79 210.36h43.98v41.89h-43.98z"/><path fill="#da1c5c" stroke="#7c3990" stroke-miterlimit="10" d="M232.79 210.36l-4.07-4.06m48.05 4.06l4.06-4.06m-4.06 45.95l4.06 4.06m-48.04-4.06l-4.07 4.06"/><path fill="none" stroke="#7c3990" stroke-miterlimit="10" d="M228.67 206.35h52.22v49.91h-52.22z"/><circle cx="239.27" cy="246.95" r="1.69" fill="#bd92c2" stroke="#7d3990" stroke-miterlimit="10"/><circle cx="271.52" cy="215.61" r="1.69" fill="#bd92c2" stroke="#7d3990" stroke-miterlimit="10"/><circle cx="271.52" cy="246.95" r="1.69" fill="#bd92c2" stroke="#7d3990" stroke-miterlimit="10"/><circle cx="239.27" cy="215.61" r="1.69" fill="#bd92c2" stroke="#7d3990" stroke-miterlimit="10"/><circle cx="254.78" cy="228.24" r="4.39" fill="#7d3990" stroke="#7d3990" stroke-miterlimit="10"/><path fill="#7d3990" stroke="#7d3990" stroke-miterlimit="10" d="M258.05 241.42h-6.55l1.61-11.72h3.33l1.61 11.72z"/><path fill="#bd92c2" stroke="#7d3990" stroke-miterlimit="10" d="M176.67 206.27h52.22v49.91h-52.22z"/><path fill="#f6ebf4" d="M180.79 252.17l-4.06 4.01v-49.96h52.17l-4.12 4.06h-43.99v41.89z"/><path fill="#e6cbe2" stroke="#7d3990" stroke-miterlimit="10" d="M180.79 210.28h43.98v41.89h-43.98z"/><path fill="#da1c5c" stroke="#7c3990" stroke-miterlimit="10" d="M180.79 210.28l-4.06-4.06m48.05 4.06l4.06-4.06m-4.06 45.95l4.06 4.06m-48.05-4.06l-4.06 4.06"/><path fill="none" stroke="#7c3990" stroke-miterlimit="10" d="M176.67 206.27h52.22v49.91h-52.22z"/><circle cx="187.28" cy="246.87" r="1.69" fill="#bd92c2" stroke="#7d3990" stroke-miterlimit="10"/><circle cx="219.53" cy="215.53" r="1.69" fill="#bd92c2" stroke="#7d3990" stroke-miterlimit="10"/><circle cx="219.53" cy="246.87" r="1.69" fill="#bd92c2" stroke="#7d3990" stroke-miterlimit="10"/><circle cx="187.28" cy="215.53" r="1.69" fill="#bd92c2" stroke="#7d3990" stroke-miterlimit="10"/><circle cx="202.79" cy="225.5" r="4.39" fill="#7d3990" stroke="#7d3990" stroke-miterlimit="10"/><path fill="#7d3990" stroke="#7d3990" stroke-miterlimit="10" d="M206.06 238.68h-6.55l1.61-11.72h3.33l1.61 11.72z"/><path fill="#bd92c2" stroke="#7d3990" stroke-miterlimit="10" d="M72.69 206.27h52.22v49.91H72.69z"/><path fill="#f6ebf4" d="M76.81 252.17l-4.07 4.01v-49.96h52.17l-4.12 4.06H76.81v41.89z"/><path fill="#e6cbe2" stroke="#7d3990" stroke-miterlimit="10" d="M76.81 210.28h43.98v41.89H76.81z"/><path fill="#da1c5c" stroke="#7c3990" stroke-miterlimit="10" d="M76.81 210.28l-4.07-4.06m48.05 4.06l4.06-4.06m-4.06 45.95l4.06 4.06m-48.04-4.06l-4.07 4.06"/><path fill="none" stroke="#7c3990" stroke-miterlimit="10" d="M72.69 206.27h52.22v49.91H72.69z"/><circle cx="83.29" cy="246.87" r="1.69" fill="#bd92c2" stroke="#7d3990" stroke-miterlimit="10"/><circle cx="115.54" cy="215.53" r="1.69" fill="#bd92c2" stroke="#7d3990" stroke-miterlimit="10"/><circle cx="115.54" cy="246.87" r="1.69" fill="#bd92c2" stroke="#7d3990" stroke-miterlimit="10"/><circle cx="83.29" cy="215.53" r="1.69" fill="#bd92c2" stroke="#7d3990" stroke-miterlimit="10"/><circle cx="98.8" cy="225.5" r="4.39" fill="#7d3990" stroke="#7d3990" stroke-miterlimit="10"/><path fill="#7d3990" stroke="#7d3990" stroke-miterlimit="10" d="M102.07 238.68h-6.54l1.6-11.72h3.33l1.61 11.72z"/><path fill="#bd92c2" stroke="#7d3990" stroke-miterlimit="10" d="M176.67 6.47h52.22v49.91h-52.22z"/><path fill="#f6ebf4" d="M180.79 52.37l-4.06 4.01V6.42h52.17l-4.12 4.06h-43.99v41.89z"/><path fill="#e6cbe2" stroke="#7d3990" stroke-miterlimit="10" d="M180.79 10.48h43.98v41.89h-43.98z"/><path fill="#da1c5c" stroke="#7c3990" stroke-miterlimit="10" d="M180.79 10.48l-4.06-4.06m48.05 4.06l4.06-4.06m-4.06 45.95l4.06 4.06m-48.05-4.06l-4.06 4.06"/><path fill="none" stroke="#7c3990" stroke-miterlimit="10" d="M176.67 6.47h52.22v49.91h-52.22z"/><circle cx="187.28" cy="47.07" r="1.69" fill="#bd92c2" stroke="#7d3990" stroke-miterlimit="10"/><circle cx="219.53" cy="15.73" r="1.69" fill="#bd92c2" stroke="#7d3990" stroke-miterlimit="10"/><circle cx="219.53" cy="47.07" r="1.69" fill="#bd92c2" stroke="#7d3990" stroke-miterlimit="10"/><circle cx="187.28" cy="15.73" r="1.69" fill="#bd92c2" stroke="#7d3990" stroke-miterlimit="10"/><circle cx="202.79" cy="25.7" r="4.39" fill="#7d3990" stroke="#7d3990" stroke-miterlimit="10"/><path fill="#7d3990" stroke="#7d3990" stroke-miterlimit="10" d="M206.06 38.88h-6.55l1.61-11.72h3.33l1.61 11.72z"/><path fill="#bd92c2" stroke="#7d3990" stroke-miterlimit="10" d="M72.71 106.4h52.22v49.91H72.71z"/><path fill="none" stroke="#7c3990" stroke-miterlimit="10" d="M72.77 106.35l6.81 6.81v43.15m45.3-49.96l-6.81 6.81v43.15"/><path fill="none" stroke="#7c3990" stroke-miterlimit="10" d="M72.71 106.4h52.22v49.91H72.71zm6.87 6.76h38.49"/><path fill="#7c3990" opacity=".2" d="M72.83 106.4h52.11l-6.87 6.76v43.15H72.83V106.4z"/><path fill="#7c3990" opacity=".36" d="M79.88 113.38h38.19v42.93H79.88z"/><path fill="#e6cbe2" stroke="#7d3990" stroke-miterlimit="10" d="M155.27 99.9l-1.81 4.54v50.94l1.81 3.61m7.2 0l14.51-2.72v-50.02l-14.31-6.37"/><path fill="#7d3990" stroke="#7d3990" stroke-miterlimit="10" opacity=".65" d="M162.47 158.99l14.51-2.72v-50.02l-14.31-6.37"/><path fill="#bd92c2" stroke="#7d3990" stroke-miterlimit="10" d="M162.36 158.99h-7.08V99.9h7.08zm14.56-52.62h52.22v49.91h-52.22z"/><path fill="none" stroke="#7c3990" stroke-miterlimit="10" d="M176.92 106.37h52.22v49.91h-52.22z"/><path fill="#bd92c2" stroke="#7d3990" stroke-miterlimit="10" d="M176.95 106.4h52.22v49.91h-52.22z"/><path fill="none" stroke="#7c3990" stroke-miterlimit="10" d="M177.01 106.35l6.81 6.8v43.16m45.3-49.96l-6.81 6.8v43.16"/><path fill="none" stroke="#7c3990" stroke-miterlimit="10" d="M176.95 106.4h52.22v49.91h-52.22zm6.87 6.75h38.49"/><path fill="#7c3990" opacity=".2" d="M177.06 106.4h52.12l-6.87 6.75v43.16h-45.25V106.4z"/><path fill="#7c3990" opacity=".36" d="M184.12 113.38h38.19v42.93h-38.19z"/><path fill="#e6cbe2" stroke="#7d3990" stroke-miterlimit="10" d="M102.83.02l-1.81 4.53v50.94l1.81 3.61m7.19 0l14.51-2.72V6.37L110.23 0"/><path fill="#7d3990" stroke="#7d3990" stroke-miterlimit="10" opacity=".65" d="M110.02 59.1l14.51-2.72V6.37L110.23 0"/><path fill="#bd92c2" stroke="#7d3990" stroke-miterlimit="10" d="M109.91 59.1h-7.08V.01h7.08zm14.57-52.61h52.22V56.4h-52.22z"/><path fill="none" stroke="#7c3990" stroke-miterlimit="10" d="M124.48 6.49h52.22V56.4h-52.22z"/><path fill="#bd92c2" stroke="#7d3990" stroke-miterlimit="10" d="M124.51 6.52h52.22v49.91h-52.22z"/><path fill="none" stroke="#7c3990" stroke-miterlimit="10" d="M124.56 6.46l6.81 6.81v43.15m45.3-49.96l-6.8 6.81v43.15"/><path fill="none" stroke="#7c3990" stroke-miterlimit="10" d="M124.51 6.52h52.22v49.91h-52.22zm6.86 6.75h38.49"/><path fill="#7c3990" opacity=".2" d="M124.62 6.52h52.11l-6.86 6.75v43.15h-45.25V6.52z"/><path fill="#7c3990" opacity=".36" d="M131.67 13.49h38.19v42.93h-38.19z"/><path fill="#e6cbe2" stroke="#7d3990" stroke-miterlimit="10" d="M102.77 199.85l-1.81 6.34v49.13l1.81 3.61m7.2 0l14.51-2.72v-50.02l-14.31-6.36"/><path fill="#7d3990" stroke="#7d3990" stroke-miterlimit="10" opacity=".65" d="M109.97 258.93l14.51-2.72v-50.02l-14.31-6.36"/><path fill="#bd92c2" stroke="#7d3990" stroke-miterlimit="10" d="M109.86 258.93h-7.08v-59.09h7.08zm14.56-52.61h52.22v49.91h-52.22z"/><path fill="none" stroke="#7c3990" stroke-miterlimit="10" d="M124.42 206.32h52.22v49.91h-52.22z"/><path fill="#bd92c2" stroke="#7d3990" stroke-miterlimit="10" d="M124.45 206.34h52.22v49.91h-52.22z"/><path fill="none" stroke="#7c3990" stroke-miterlimit="10" d="M124.51 206.29l6.8 6.81v43.15m45.31-49.96l-6.81 6.81v43.15"/><path fill="none" stroke="#7c3990" stroke-miterlimit="10" d="M124.45 206.34h52.22v49.91h-52.22zm6.86 6.76h38.5"/><path fill="#7c3990" opacity=".2" d="M124.56 206.34h52.11l-6.86 6.76v43.15h-45.25v-49.91z"/><path fill="#7c3990" opacity=".36" d="M131.62 213.32h38.19v42.93h-38.19z"/><path fill="#e6cbe2" stroke="#7d3990" stroke-miterlimit="10" d="M250.88 49.95l1.81 6.35v49.13l-1.81 3.61"/><path fill="#bd92c2" stroke="#7d3990" stroke-miterlimit="10" d="M176.9 56.41h52.22v49.91H176.9z"/><path fill="none" stroke="#7c3990" stroke-miterlimit="10" d="M176.96 56.36l6.81 6.81v43.15m45.3-49.96l-6.81 6.81v43.15"/><path fill="none" stroke="#7c3990" stroke-miterlimit="10" d="M176.9 56.41h52.22v49.91H176.9zm6.87 6.76h38.49"/><path fill="#7c3990" opacity=".2" d="M177.01 56.41h52.12l-6.87 6.76v43.15h-45.25V56.41z"/><path fill="#7c3990" opacity=".36" d="M184.07 63.39h38.19v42.93h-38.19z"/><path fill="#e6cbe2" stroke="#7d3990" stroke-miterlimit="10" d="M243.69 109.04l-14.51-2.72V56.3l14.3-6.36"/><path fill="#bd92c2" stroke="#7d3990" stroke-miterlimit="10" d="M243.8 49.95h7.08v59.09h-7.08z"/><path fill="#da1c5c" stroke="#7c3990" stroke-miterlimit="10" d="M150.53 210.36l-15.32 15.25v15.53l15.32 15.24 15.33-15.24v-15.53l-15.33-15.25z"/><path fill="#f6ebf4" stroke="#7d3990" stroke-miterlimit="10" d="M150.53 210.36l-15.32 15.25v15.53l15.32 15.24"/><path fill="none" stroke="#7d3990" stroke-miterlimit="10" d="M156.93 237.35l8.93 3.79m-15.32 2.57l-.01 12.67m-6.4-19.04l-8.92 3.8m21.72-11.74l8.93-3.79m-15.32-2.57l-.01-12.68m-6.4 19.04l-8.92-3.79"/><path fill="#e6cbe2" stroke="#7d3990" stroke-miterlimit="10" d="M150.54 223.04l-6.41 6.36v7.94l6.41 6.37 6.39-6.36v-7.95l-6.39-6.36z"/><path fill="#fff6d3" stroke="#7d3990" stroke-miterlimit="10" d="M200.31 71.28l-7.96-10.15 5.6 1.77 5.23-1.77 5.86 1.77 4.97-1.77-8.3 10.5"/><path fill="#fff6d3" stroke="#7d3990" stroke-miterlimit="10" d="M220.15 100.2l-4.64 6.21h-24.88l-4.64-6.21 2.1-15.35 12.22-13.57h5.52l12.64 13.57 1.68 15.35z"/><path fill="#d4bd98" stroke="#7d3990" stroke-miterlimit="10" d="M199.11 70.01l7.69.48m0 1.83l-7.57.16"/><path fill="none" stroke="#7d3990" stroke-miterlimit="10" d="M193.72 69.45l6.13 1.83-5.02 1.67m7.77 8.26v3.64m0 12.88v3.64m2.18-20.16v3.64m0 12.88v3.64m5.06-13.14a3.38 3.38 0 0 0-3.38-3.38h-5.82a3.35 3.35 0 0 0-3.4 3.05 3.22 3.22 0 0 0 3.22 3.39h6.28a3.36 3.36 0 0 1 3.4 3 3.23 3.23 0 0 1-3.22 3.39h-6.76a3.39 3.39 0 0 1-3.38-3.38"/><path d="M52.65 167.93l-3.25 5.58a6.12 6.12 0 0 1-6.16 10.58L40 189.67 54.29 198 67 176.26z" fill="#f2c43c" stroke="#7c3990" stroke-miterlimit="10"/><path fill="#f2c43c" stroke="#7c3990" stroke-miterlimit="10" d="M72.04 174.53l-6.07-3.54-33.54 57.55 1.02 5.23 5.06-1.69 33.53-57.55z"/><path d="M50.69 244.07a10.48 10.48 0 0 0-15.22-13.76 10.48 10.48 0 1 0-16 7.68 10.48 10.48 0 1 0 17.21 10 10.48 10.48 0 0 0 14.01-3.92zm-30.37-17.7a5.48 5.48 0 1 1 2 7.5 5.48 5.48 0 0 1-2-7.5zm3.35 24.19a5.49 5.49 0 1 1 7.5-2 5.49 5.49 0 0 1-7.5 2zm15.2-7a5.48 5.48 0 1 1 7.5-2 5.5 5.5 0 0 1-7.5 1.97z" fill="#f2c43c" stroke="#7c3990" stroke-miterlimit="10"/><path fill="#7c3990" opacity=".36" d="M61.81 201.2l-7.23 7.09v-3.89l7.19-12.24.04 9.04zm-.04-39.09l-3.47 1.35h-3.72v-4.47h7.19v3.12zm229.32 50.13l3.47 1.36h3.72v-4.47l-7.19-1v4.11zm-75.58-105.95h-24.88l-1.99-2.19 20.38-.96 4.99-3.26 2.58-4.31 1.88-10.72 1.68 15.35-4.64 6.09z"/></g></svg>