<svg xmlns="http://www.w3.org/2000/svg" width="47.74" height="44.28" viewBox="0 0 47.74 44.28"><defs><clipPath id="a"><path d="M25.63 2H22.1a20.56 20.56 0 1 0 0 41.11h3.53" fill="none"/></clipPath></defs><g data-name="ILLO 4"><path d="M25.63 2H22.1a20.56 20.56 0 1 0 0 41.11h3.53" fill="#f2cd7b" stroke="#7c3990" stroke-miterlimit="10"/><g clip-path="url(#a)" fill="#f5ebf4" stroke="#7d3990" stroke-linejoin="bevel"><path d="M.85 2.97h20.96M.85 6.11h20.96M.85 9.24h20.96M.85 12.37h20.96M.85 15.5h20.96M.85 18.64h20.96M.85 21.77h20.96M.85 24.9h20.96M.85 28.03h20.96M.85 31.17h20.96M.85 34.3h20.96M.85 37.43h20.96M.85 40.56h20.96M.85 42.13h20.96"/></g><path d="M25.63 2a20.56 20.56 0 1 0 20.55 20.55A20.56 20.56 0 0 0 25.63 2z" fill="#efb032" stroke="#7c3990" stroke-miterlimit="10"/><path d="M25.63 5.61a16.95 16.95 0 1 0 16.94 16.94A16.94 16.94 0 0 0 25.63 5.61zm0 33.89a16.95 16.95 0 0 0 0-33.89" fill="#f2c43c" stroke="#7c3990" stroke-miterlimit="10"/><path d="M25.63 39.5a16.95 16.95 0 0 0 0-33.89h-.53a16.94 16.94 0 0 1-.1 33.87" fill="#f2cd7b" stroke="#7c3990" stroke-miterlimit="10"/><path fill="none" stroke="#7d3990" stroke-miterlimit="10" d="M24.96 12.69v3.64m0 12.87v3.65m2.18-20.16v3.64m0 12.87v3.65m5.06-13.14a3.38 3.38 0 0 0-3.38-3.38H23a3.34 3.34 0 0 0-3.4 3.05 3.22 3.22 0 0 0 3.21 3.39h6.29a3.33 3.33 0 0 1 3.39 3 3.21 3.21 0 0 1-3.21 3.39h-6.76a3.37 3.37 0 0 1-3.38-3.37"/></g></svg>