<svg xmlns="http://www.w3.org/2000/svg" width="46.75" height="43.97" viewBox="0 0 46.75 43.97"><defs><clipPath id="a"><path d="M25.34 1.7h-3.41a19.88 19.88 0 0 0 0 39.75h3.41" fill="none"/></clipPath></defs><g data-name="ILLO 4"><path d="M25.34 1.7h-3.41a19.88 19.88 0 0 0 0 39.75h3.41" fill="#e2e2e2" stroke="#7c3990" stroke-miterlimit="10"/><g clip-path="url(#a)" fill="#f5ebf4" stroke="#7d3990" stroke-linejoin="bevel"><path d="M1.38 2.65h20.28M1.38 8.71h20.28M1.38 14.76h20.28M1.38 20.82h20.28M1.38 26.88h20.28M1.38 32.94h20.28M1.38 38.99h20.28M1.38 40.51h20.28"/></g><path d="M25.34 1.7a19.88 19.88 0 1 0 19.88 19.88A19.88 19.88 0 0 0 25.34 1.7z" fill="#a7a7a8" stroke="#7c3990" stroke-miterlimit="10"/><path d="M25.34 5.19a16.39 16.39 0 1 0 16.39 16.39A16.39 16.39 0 0 0 25.34 5.19zm0 32.77a16.39 16.39 0 1 0 0-32.77" fill="#cecece" stroke="#7c3990" stroke-miterlimit="10"/><path d="M25.34 38a16.39 16.39 0 1 0 0-32.77h-.5A16.38 16.38 0 0 1 24.75 38" fill="#e2e2e2" stroke="#7c3990" stroke-miterlimit="10"/><path fill="none" stroke="#7d3990" stroke-miterlimit="10" d="M26.99 10.88v3.72m0 13.16v3.72m-3.29-20.6v3.72m0 13.16v3.72M32.91 17a5.87 5.87 0 0 0-4.72-2.38H23A6.77 6.77 0 0 0 16.11 21a6.58 6.58 0 0 0 6.57 6.78h5.19a6.18 6.18 0 0 0 5.37-3.12"/></g></svg>