<svg xmlns="http://www.w3.org/2000/svg" width="49.58" height="45.34" viewBox="0 0 49.58 45.34"><defs><clipPath id="a"><path d="M26.06 1.88h-3.53a20.56 20.56 0 0 0 0 41.11h3.53" fill="none"/></clipPath></defs><g data-name="ILLO 4"><path d="M26.06 1.88h-3.53a20.56 20.56 0 0 0 0 41.11h3.53" fill="#f2cd7b" stroke="#7c3990" stroke-miterlimit="10"/><g clip-path="url(#a)" fill="#f5ebf4" stroke="#7d3990" stroke-linejoin="bevel"><path d="M1.28 2.85h20.97M1.28 5.99h20.97M1.28 9.12h20.97M1.28 12.25h20.97M1.28 15.38h20.97M1.28 18.52h20.97M1.28 21.65h20.97M1.28 24.78h20.97M1.28 27.91h20.97M1.28 31.05h20.97M1.28 34.18h20.97M1.28 37.31h20.97M1.28 40.44h20.97M1.28 42.01h20.97"/></g><path d="M26.06 1.88a20.56 20.56 0 1 0 20.56 20.55A20.55 20.55 0 0 0 26.06 1.88z" fill="#efb032" stroke="#7c3990" stroke-miterlimit="10"/><path d="M26.06 5.49A16.95 16.95 0 1 0 43 22.43 16.93 16.93 0 0 0 26.06 5.49zm0 33.89a16.95 16.95 0 1 0 0-33.89" fill="#f2c43c" stroke="#7c3990" stroke-miterlimit="10"/><path d="M26.06 39.38a16.95 16.95 0 1 0 0-33.89h-.52a16.94 16.94 0 0 1-.09 33.86" fill="#f2cd7b" stroke="#7c3990" stroke-miterlimit="10"/><path d="M18.47 15.21h10.24a3.41 3.41 0 0 1 0 6.81H21m.04-6.81v13.61m2.82-17.46v3.85m3.6-3.85v3.85m-3.6 13.61v3.85m3.6-3.85v3.85" fill="none" stroke="#7d3990" stroke-miterlimit="10"/><path d="M28.71 22a3.4 3.4 0 0 1 0 6.8H18.47" fill="none" stroke="#7d3990" stroke-miterlimit="10"/></g></svg>