<svg xmlns="http://www.w3.org/2000/svg" width="352.32" height="262.14" viewBox="0 0 352.32 262.14"><title>Artboard 31</title><g id="ILLO_4" data-name="ILLO 4"><polyline points="302.64 149.93 304.45 154.47 304.45 205.41 302.64 209.02" style="fill:#e6cbe2;stroke:#7d3990;stroke-miterlimit:10"/><rect x="228.67" y="106.37" width="52.22" height="49.91" style="fill:#bd92c2;stroke:#7d3990;stroke-miterlimit:10"/><polygon points="232.79 152.27 228.72 156.28 228.72 106.32 280.89 106.32 276.77 110.38 232.79 110.38 232.79 152.27" style="fill:#f6ebf4"/><rect x="232.79" y="110.38" width="43.98" height="41.89" style="fill:#e6cbe2;stroke:#7d3990;stroke-miterlimit:10"/><line x1="232.79" y1="110.38" x2="228.72" y2="106.32" style="fill:#da1c5c;stroke:#7c3990;stroke-miterlimit:10"/><line x1="276.77" y1="110.38" x2="280.83" y2="106.32" style="fill:#da1c5c;stroke:#7c3990;stroke-miterlimit:10"/><line x1="276.77" y1="152.27" x2="280.83" y2="156.34" style="fill:#da1c5c;stroke:#7c3990;stroke-miterlimit:10"/><line x1="232.79" y1="152.27" x2="228.72" y2="156.34" style="fill:#da1c5c;stroke:#7c3990;stroke-miterlimit:10"/><rect x="228.67" y="106.37" width="52.22" height="49.91" style="fill:none;stroke:#7c3990;stroke-miterlimit:10"/><circle cx="239.27" cy="146.97" r="1.69" style="fill:#bd92c2;stroke:#7d3990;stroke-miterlimit:10"/><circle cx="271.52" cy="115.63" r="1.69" style="fill:#bd92c2;stroke:#7d3990;stroke-miterlimit:10"/><circle cx="271.52" cy="146.97" r="1.69" style="fill:#bd92c2;stroke:#7d3990;stroke-miterlimit:10"/><circle cx="239.27" cy="115.63" r="1.69" style="fill:#bd92c2;stroke:#7d3990;stroke-miterlimit:10"/><rect x="228.67" y="156.39" width="52.22" height="49.91" style="fill:#bd92c2;stroke:#7d3990;stroke-miterlimit:10"/><polyline points="228.72 156.34 235.53 163.14 235.53 206.3" style="fill:none;stroke:#7c3990;stroke-miterlimit:10"/><polyline points="280.83 156.34 274.03 163.14 274.03 206.3" style="fill:none;stroke:#7c3990;stroke-miterlimit:10"/><rect x="228.67" y="156.39" width="52.22" height="49.91" style="fill:none;stroke:#7c3990;stroke-miterlimit:10"/><rect x="54.82" y="36.33" width="6.94" height="219.86" style="fill:#e6cbe2;stroke:#7d3990;stroke-miterlimit:10"/><polygon points="54.64 90.15 0.67 65.89 54.64 41.63 54.64 90.15" style="fill:#da1c5c;stroke:#7c3990;stroke-miterlimit:10"/><polygon points="40.33 51.36 31.39 60.26 31.39 63.41 31.39 68.75 31.39 70.27 40.33 79.17 49.28 70.27 49.28 68.75 49.28 63.41 49.28 60.26 40.33 51.36" style="fill:#da1c5c;stroke:#7c3990;stroke-miterlimit:10"/><polyline points="40.33 51.36 31.39 60.26 31.39 63.41 31.39 68.75 31.39 70.27 40.33 79.17" style="fill:#f6ebf4;stroke:#7d3990;stroke-miterlimit:10"/><line x1="44.07" y1="68.06" x2="49.28" y2="70.27" style="fill:none;stroke:#7d3990;stroke-miterlimit:10"/><line x1="40.34" y1="71.77" x2="40.33" y2="79.17" style="fill:none;stroke:#7d3990;stroke-miterlimit:10"/><line x1="36.6" y1="68.05" x2="31.39" y2="70.27" style="fill:none;stroke:#7d3990;stroke-miterlimit:10"/><line x1="44.07" y1="62.47" x2="49.28" y2="60.26" style="fill:none;stroke:#7d3990;stroke-miterlimit:10"/><line x1="40.34" y1="58.76" x2="40.33" y2="51.36" style="fill:none;stroke:#7d3990;stroke-miterlimit:10"/><line x1="36.6" y1="62.47" x2="31.39" y2="60.26" style="fill:none;stroke:#7d3990;stroke-miterlimit:10"/><polygon points="40.34 58.76 36.6 62.47 36.6 63.41 36.6 67.45 36.6 68.05 40.34 71.77 44.07 68.06 44.07 67.45 44.07 63.41 44.07 62.47 40.34 58.76" style="fill:#e6cbe2;stroke:#7d3990;stroke-miterlimit:10"/><polygon points="58.3 22.9 52.95 28.21 52.95 30.1 52.95 33.29 52.95 34.19 58.3 39.51 63.64 34.19 63.64 33.29 63.64 30.1 63.64 28.21 58.3 22.9" style="fill:#da1c5c;stroke:#7c3990;stroke-miterlimit:10"/><polyline points="58.3 22.9 52.95 28.21 52.95 30.1 52.95 33.29 52.95 34.19 58.3 39.51" style="fill:#f6ebf4;stroke:#7d3990;stroke-miterlimit:10"/><line x1="60.53" y1="32.87" x2="63.64" y2="34.19" style="fill:none;stroke:#7d3990;stroke-miterlimit:10"/><line x1="58.3" y1="35.09" x2="58.3" y2="39.51" style="fill:none;stroke:#7d3990;stroke-miterlimit:10"/><line x1="56.06" y1="32.87" x2="52.95" y2="34.19" style="fill:none;stroke:#7d3990;stroke-miterlimit:10"/><line x1="60.53" y1="29.53" x2="63.64" y2="28.21" style="fill:none;stroke:#7d3990;stroke-miterlimit:10"/><line x1="58.3" y1="27.32" x2="58.3" y2="22.9" style="fill:none;stroke:#7d3990;stroke-miterlimit:10"/><line x1="56.06" y1="29.53" x2="52.95" y2="28.21" style="fill:none;stroke:#7d3990;stroke-miterlimit:10"/><polygon points="58.3 27.32 56.06 29.54 56.06 30.1 56.06 32.51 56.06 32.87 58.3 35.09 60.53 32.87 60.53 32.51 60.53 30.1 60.53 29.53 58.3 27.32" style="fill:#e6cbe2;stroke:#7d3990;stroke-miterlimit:10"/><rect x="291.22" y="36.33" width="6.94" height="219.86" style="fill:#e6cbe2;stroke:#7d3990;stroke-miterlimit:10"/><polygon points="298.35 90.15 352.32 65.89 298.35 41.63 298.35 90.15" style="fill:#da1c5c;stroke:#7c3990;stroke-miterlimit:10"/><polygon points="312.65 51.36 321.59 60.26 321.59 63.41 321.59 68.75 321.59 70.27 312.65 79.17 303.7 70.27 303.7 68.75 303.7 63.41 303.7 60.26 312.65 51.36" style="fill:#da1c5c;stroke:#7c3990;stroke-miterlimit:10"/><polyline points="312.65 51.36 321.59 60.26 321.59 63.41 321.59 68.75 321.59 70.27 312.65 79.17" style="fill:#f6ebf4;stroke:#7d3990;stroke-miterlimit:10"/><line x1="308.91" y1="68.06" x2="303.7" y2="70.27" style="fill:none;stroke:#7d3990;stroke-miterlimit:10"/><line x1="312.65" y1="71.77" x2="312.65" y2="79.17" style="fill:none;stroke:#7d3990;stroke-miterlimit:10"/><line x1="316.38" y1="68.05" x2="321.59" y2="70.27" style="fill:none;stroke:#7d3990;stroke-miterlimit:10"/><line x1="308.91" y1="62.47" x2="303.7" y2="60.26" style="fill:none;stroke:#7d3990;stroke-miterlimit:10"/><line x1="312.65" y1="58.76" x2="312.65" y2="51.36" style="fill:none;stroke:#7d3990;stroke-miterlimit:10"/><line x1="316.38" y1="62.47" x2="321.59" y2="60.26" style="fill:none;stroke:#7d3990;stroke-miterlimit:10"/><polygon points="312.65 58.76 316.38 62.47 316.38 63.41 316.38 67.45 316.38 68.05 312.65 71.77 308.91 68.06 308.91 67.45 308.91 63.41 308.91 62.47 312.65 58.76" style="fill:#e6cbe2;stroke:#7d3990;stroke-miterlimit:10"/><polygon points="294.69 22.9 300.03 28.21 300.03 30.1 300.03 33.29 300.03 34.19 294.69 39.51 289.35 34.19 289.35 33.29 289.35 30.1 289.35 28.21 294.69 22.9" style="fill:#da1c5c;stroke:#7c3990;stroke-miterlimit:10"/><polyline points="294.69 22.9 300.03 28.21 300.03 30.1 300.03 33.29 300.03 34.19 294.69 39.51" style="fill:#f6ebf4;stroke:#7d3990;stroke-miterlimit:10"/><line x1="292.46" y1="32.87" x2="289.34" y2="34.19" style="fill:none;stroke:#7d3990;stroke-miterlimit:10"/><line x1="294.69" y1="35.09" x2="294.69" y2="39.51" style="fill:none;stroke:#7d3990;stroke-miterlimit:10"/><line x1="296.92" y1="32.87" x2="300.03" y2="34.19" style="fill:none;stroke:#7d3990;stroke-miterlimit:10"/><line x1="292.46" y1="29.53" x2="289.34" y2="28.21" style="fill:none;stroke:#7d3990;stroke-miterlimit:10"/><line x1="294.69" y1="27.32" x2="294.69" y2="22.9" style="fill:none;stroke:#7d3990;stroke-miterlimit:10"/><line x1="296.92" y1="29.53" x2="300.03" y2="28.21" style="fill:none;stroke:#7d3990;stroke-miterlimit:10"/><polygon points="294.69 27.32 296.92 29.54 296.92 30.1 296.92 32.51 296.92 32.87 294.69 35.09 292.46 32.87 292.46 32.51 292.46 30.1 292.46 29.53 294.69 27.32" style="fill:#e6cbe2;stroke:#7d3990;stroke-miterlimit:10"/><line x1="15.57" y1="256.3" x2="331.52" y2="256.3" style="fill:#da1c5c;stroke:#7c3990;stroke-miterlimit:10"/><line x1="235.53" y1="163.14" x2="274.03" y2="163.14" style="fill:none;stroke:#7c3990;stroke-miterlimit:10"/><polygon points="228.78 156.39 280.89 156.39 274.03 163.14 274.03 206.3 228.78 206.3 228.78 156.39" style="fill:#7c3990;opacity:0.2"/><rect x="235.84" y="163.37" width="38.19" height="42.93" style="fill:#7c3990;opacity:0.36"/><polyline points="295.45 209.02 280.94 206.3 280.94 156.28 295.25 149.91" style="fill:#e6cbe2;stroke:#7d3990;stroke-miterlimit:10"/><rect x="295.56" y="149.93" width="7.08" height="59.09" style="fill:#bd92c2;stroke:#7d3990;stroke-miterlimit:10"/><polyline points="51.04 99.9 49.23 104.44 49.23 155.38 51.04 158.99" style="fill:#e6cbe2;stroke:#7d3990;stroke-miterlimit:10"/><polyline points="58.23 158.99 72.74 156.27 72.74 106.25 58.44 99.89" style="fill:#e6cbe2;stroke:#7d3990;stroke-miterlimit:10"/><polyline points="58.23 158.99 72.74 156.27 72.74 106.25 58.44 99.89" style="fill:#7d3990;stroke:#7d3990;stroke-miterlimit:10;opacity:0.65"/><rect x="51.04" y="99.9" width="7.08" height="59.09" transform="translate(109.16 258.89) rotate(-180)" style="fill:#bd92c2;stroke:#7d3990;stroke-miterlimit:10"/><circle cx="254.78" cy="125.6" r="4.39" style="fill:#7d3990;stroke:#7d3990;stroke-miterlimit:10"/><polygon points="258.05 138.78 251.5 138.78 253.11 127.06 256.44 127.06 258.05 138.78" style="fill:#7d3990;stroke:#7d3990;stroke-miterlimit:10"/><rect x="124.89" y="56.39" width="52.22" height="49.91" style="fill:#bd92c2;stroke:#7d3990;stroke-miterlimit:10"/><polygon points="129.01 102.28 124.95 106.29 124.95 56.33 177.11 56.33 172.99 60.4 129.01 60.4 129.01 102.28" style="fill:#f6ebf4"/><rect x="129.01" y="60.39" width="43.98" height="41.89" style="fill:#e6cbe2;stroke:#7d3990;stroke-miterlimit:10"/><line x1="129.01" y1="60.39" x2="124.95" y2="56.33" style="fill:#da1c5c;stroke:#7c3990;stroke-miterlimit:10"/><line x1="172.99" y1="60.39" x2="177.06" y2="56.33" style="fill:#da1c5c;stroke:#7c3990;stroke-miterlimit:10"/><line x1="172.99" y1="102.28" x2="177.06" y2="106.35" style="fill:#da1c5c;stroke:#7c3990;stroke-miterlimit:10"/><line x1="129.01" y1="102.28" x2="124.95" y2="106.35" style="fill:#da1c5c;stroke:#7c3990;stroke-miterlimit:10"/><rect x="124.89" y="56.39" width="52.22" height="49.91" style="fill:none;stroke:#7c3990;stroke-miterlimit:10"/><circle cx="135.5" cy="96.98" r="1.69" style="fill:#bd92c2;stroke:#7d3990;stroke-miterlimit:10"/><circle cx="167.75" cy="65.64" r="1.69" style="fill:#bd92c2;stroke:#7d3990;stroke-miterlimit:10"/><circle cx="167.75" cy="96.98" r="1.69" style="fill:#bd92c2;stroke:#7d3990;stroke-miterlimit:10"/><circle cx="135.5" cy="65.64" r="1.69" style="fill:#bd92c2;stroke:#7d3990;stroke-miterlimit:10"/><circle cx="151" cy="75.61" r="4.39" style="fill:#7d3990;stroke:#7d3990;stroke-miterlimit:10"/><polygon points="154.28 88.79 147.73 88.79 149.34 77.07 152.67 77.07 154.28 88.79" style="fill:#7d3990;stroke:#7d3990;stroke-miterlimit:10"/><rect x="124.68" y="106.37" width="52.22" height="49.91" style="fill:#bd92c2;stroke:#7d3990;stroke-miterlimit:10"/><polygon points="128.8 152.27 124.74 156.28 124.74 106.32 176.9 106.32 172.78 110.38 128.8 110.38 128.8 152.27" style="fill:#f6ebf4"/><rect x="128.8" y="110.38" width="43.98" height="41.89" style="fill:#e6cbe2;stroke:#7d3990;stroke-miterlimit:10"/><line x1="128.8" y1="110.38" x2="124.74" y2="106.32" style="fill:#da1c5c;stroke:#7c3990;stroke-miterlimit:10"/><line x1="172.78" y1="110.38" x2="176.85" y2="106.32" style="fill:#da1c5c;stroke:#7c3990;stroke-miterlimit:10"/><line x1="172.78" y1="152.27" x2="176.85" y2="156.34" style="fill:#da1c5c;stroke:#7c3990;stroke-miterlimit:10"/><line x1="128.8" y1="152.27" x2="124.74" y2="156.34" style="fill:#da1c5c;stroke:#7c3990;stroke-miterlimit:10"/><rect x="124.68" y="106.37" width="52.22" height="49.91" style="fill:none;stroke:#7c3990;stroke-miterlimit:10"/><circle cx="135.29" cy="146.97" r="1.69" style="fill:#bd92c2;stroke:#7d3990;stroke-miterlimit:10"/><circle cx="167.54" cy="115.63" r="1.69" style="fill:#bd92c2;stroke:#7d3990;stroke-miterlimit:10"/><circle cx="167.54" cy="146.97" r="1.69" style="fill:#bd92c2;stroke:#7d3990;stroke-miterlimit:10"/><circle cx="135.29" cy="115.63" r="1.69" style="fill:#bd92c2;stroke:#7d3990;stroke-miterlimit:10"/><circle cx="150.79" cy="125.6" r="4.39" style="fill:#7d3990;stroke:#7d3990;stroke-miterlimit:10"/><polygon points="154.07 138.78 147.52 138.78 149.13 127.06 152.46 127.06 154.07 138.78" style="fill:#7d3990;stroke:#7d3990;stroke-miterlimit:10"/><rect x="72.69" y="106.37" width="52.22" height="49.91" style="fill:#bd92c2;stroke:#7d3990;stroke-miterlimit:10"/><rect x="72.69" y="106.37" width="52.22" height="49.91" style="fill:none;stroke:#7c3990;stroke-miterlimit:10"/><rect x="228.67" y="56.41" width="52.22" height="49.91" style="fill:#bd92c2;stroke:#7d3990;stroke-miterlimit:10"/><polygon points="232.79 102.31 228.72 106.32 228.72 56.36 280.89 56.36 276.77 60.42 232.79 60.42 232.79 102.31" style="fill:#f6ebf4"/><rect x="232.79" y="60.42" width="43.98" height="41.89" style="fill:#e6cbe2;stroke:#7d3990;stroke-miterlimit:10"/><line x1="232.79" y1="60.42" x2="228.72" y2="56.36" style="fill:#da1c5c;stroke:#7c3990;stroke-miterlimit:10"/><line x1="276.77" y1="60.42" x2="280.83" y2="56.36" style="fill:#da1c5c;stroke:#7c3990;stroke-miterlimit:10"/><line x1="276.77" y1="102.31" x2="280.83" y2="106.37" style="fill:#da1c5c;stroke:#7c3990;stroke-miterlimit:10"/><line x1="232.79" y1="102.31" x2="228.72" y2="106.37" style="fill:#da1c5c;stroke:#7c3990;stroke-miterlimit:10"/><rect x="228.67" y="56.41" width="52.22" height="49.91" style="fill:none;stroke:#7c3990;stroke-miterlimit:10"/><circle cx="239.27" cy="97.01" r="1.69" style="fill:#bd92c2;stroke:#7d3990;stroke-miterlimit:10"/><circle cx="271.52" cy="65.67" r="1.69" style="fill:#bd92c2;stroke:#7d3990;stroke-miterlimit:10"/><circle cx="271.52" cy="97.01" r="1.69" style="fill:#bd92c2;stroke:#7d3990;stroke-miterlimit:10"/><circle cx="239.27" cy="65.67" r="1.69" style="fill:#bd92c2;stroke:#7d3990;stroke-miterlimit:10"/><circle cx="254.78" cy="75.64" r="4.39" style="fill:#7d3990;stroke:#7d3990;stroke-miterlimit:10"/><polygon points="258.05 88.82 251.5 88.82 253.11 77.1 256.44 77.1 258.05 88.82" style="fill:#7d3990;stroke:#7d3990;stroke-miterlimit:10"/><rect x="72.69" y="56.41" width="52.22" height="49.91" style="fill:#bd92c2;stroke:#7d3990;stroke-miterlimit:10"/><polygon points="76.81 102.31 72.74 106.32 72.74 56.36 124.91 56.36 120.79 60.42 76.81 60.42 76.81 102.31" style="fill:#f6ebf4"/><rect x="76.81" y="60.42" width="43.98" height="41.89" style="fill:#e6cbe2;stroke:#7d3990;stroke-miterlimit:10"/><line x1="76.81" y1="60.42" x2="72.74" y2="56.36" style="fill:#da1c5c;stroke:#7c3990;stroke-miterlimit:10"/><line x1="120.79" y1="60.42" x2="124.85" y2="56.36" style="fill:#da1c5c;stroke:#7c3990;stroke-miterlimit:10"/><line x1="120.79" y1="102.31" x2="124.85" y2="106.37" style="fill:#da1c5c;stroke:#7c3990;stroke-miterlimit:10"/><line x1="76.81" y1="102.31" x2="72.74" y2="106.37" style="fill:#da1c5c;stroke:#7c3990;stroke-miterlimit:10"/><rect x="72.69" y="56.41" width="52.22" height="49.91" style="fill:none;stroke:#7c3990;stroke-miterlimit:10"/><circle cx="83.29" cy="97.01" r="1.69" style="fill:#bd92c2;stroke:#7d3990;stroke-miterlimit:10"/><circle cx="115.54" cy="65.67" r="1.69" style="fill:#bd92c2;stroke:#7d3990;stroke-miterlimit:10"/><circle cx="115.54" cy="97.01" r="1.69" style="fill:#bd92c2;stroke:#7d3990;stroke-miterlimit:10"/><circle cx="83.29" cy="65.67" r="1.69" style="fill:#bd92c2;stroke:#7d3990;stroke-miterlimit:10"/><circle cx="98.8" cy="75.64" r="4.39" style="fill:#7d3990;stroke:#7d3990;stroke-miterlimit:10"/><polygon points="102.07 88.82 95.53 88.82 97.13 77.1 100.46 77.1 102.07 88.82" style="fill:#7d3990;stroke:#7d3990;stroke-miterlimit:10"/><rect x="176.67" y="156.32" width="52.22" height="49.91" style="fill:#bd92c2;stroke:#7d3990;stroke-miterlimit:10"/><polygon points="180.79 202.22 176.73 206.23 176.73 156.27 228.9 156.27 224.78 160.33 180.79 160.33 180.79 202.22" style="fill:#f6ebf4"/><rect x="180.79" y="160.33" width="43.98" height="41.89" style="fill:#e6cbe2;stroke:#7d3990;stroke-miterlimit:10"/><line x1="180.79" y1="160.33" x2="176.73" y2="156.27" style="fill:#da1c5c;stroke:#7c3990;stroke-miterlimit:10"/><line x1="224.78" y1="160.33" x2="228.84" y2="156.27" style="fill:#da1c5c;stroke:#7c3990;stroke-miterlimit:10"/><line x1="224.78" y1="202.22" x2="228.84" y2="206.28" style="fill:#da1c5c;stroke:#7c3990;stroke-miterlimit:10"/><line x1="180.79" y1="202.22" x2="176.73" y2="206.28" style="fill:#da1c5c;stroke:#7c3990;stroke-miterlimit:10"/><rect x="176.67" y="156.32" width="52.22" height="49.91" style="fill:none;stroke:#7c3990;stroke-miterlimit:10"/><circle cx="187.28" cy="196.92" r="1.69" style="fill:#bd92c2;stroke:#7d3990;stroke-miterlimit:10"/><circle cx="219.53" cy="165.58" r="1.69" style="fill:#bd92c2;stroke:#7d3990;stroke-miterlimit:10"/><circle cx="219.53" cy="196.92" r="1.69" style="fill:#bd92c2;stroke:#7d3990;stroke-miterlimit:10"/><circle cx="187.28" cy="165.58" r="1.69" style="fill:#bd92c2;stroke:#7d3990;stroke-miterlimit:10"/><circle cx="202.79" cy="175.55" r="4.39" style="fill:#7d3990;stroke:#7d3990;stroke-miterlimit:10"/><polygon points="206.06 188.73 199.51 188.73 201.12 177.01 204.45 177.01 206.06 188.73" style="fill:#7d3990;stroke:#7d3990;stroke-miterlimit:10"/><rect x="124.68" y="156.32" width="52.22" height="49.91" style="fill:#bd92c2;stroke:#7d3990;stroke-miterlimit:10"/><polygon points="128.8 202.22 124.74 206.23 124.74 156.27 176.9 156.27 172.78 160.33 128.8 160.33 128.8 202.22" style="fill:#f6ebf4"/><rect x="128.8" y="160.33" width="43.98" height="41.89" style="fill:#e6cbe2;stroke:#7d3990;stroke-miterlimit:10"/><line x1="128.8" y1="160.33" x2="124.74" y2="156.27" style="fill:#da1c5c;stroke:#7c3990;stroke-miterlimit:10"/><line x1="172.78" y1="160.33" x2="176.85" y2="156.27" style="fill:#da1c5c;stroke:#7c3990;stroke-miterlimit:10"/><line x1="172.78" y1="202.22" x2="176.85" y2="206.28" style="fill:#da1c5c;stroke:#7c3990;stroke-miterlimit:10"/><line x1="128.8" y1="202.22" x2="124.74" y2="206.28" style="fill:#da1c5c;stroke:#7c3990;stroke-miterlimit:10"/><rect x="124.68" y="156.32" width="52.22" height="49.91" style="fill:none;stroke:#7c3990;stroke-miterlimit:10"/><circle cx="135.29" cy="196.92" r="1.69" style="fill:#bd92c2;stroke:#7d3990;stroke-miterlimit:10"/><circle cx="167.54" cy="165.58" r="1.69" style="fill:#bd92c2;stroke:#7d3990;stroke-miterlimit:10"/><circle cx="167.54" cy="196.92" r="1.69" style="fill:#bd92c2;stroke:#7d3990;stroke-miterlimit:10"/><circle cx="135.29" cy="165.58" r="1.69" style="fill:#bd92c2;stroke:#7d3990;stroke-miterlimit:10"/><circle cx="150.79" cy="175.55" r="4.39" style="fill:#7d3990;stroke:#7d3990;stroke-miterlimit:10"/><polygon points="154.07 188.73 147.52 188.73 149.13 177.01 152.46 177.01 154.07 188.73" style="fill:#7d3990;stroke:#7d3990;stroke-miterlimit:10"/><rect x="72.69" y="156.32" width="52.22" height="49.91" style="fill:#bd92c2;stroke:#7d3990;stroke-miterlimit:10"/><polygon points="76.81 202.22 72.74 206.23 72.74 156.27 124.91 156.27 120.79 160.33 76.81 160.33 76.81 202.22" style="fill:#f6ebf4"/><rect x="76.81" y="160.33" width="43.98" height="41.89" style="fill:#e6cbe2;stroke:#7d3990;stroke-miterlimit:10"/><line x1="76.81" y1="160.33" x2="72.74" y2="156.27" style="fill:#da1c5c;stroke:#7c3990;stroke-miterlimit:10"/><line x1="120.79" y1="160.33" x2="124.85" y2="156.27" style="fill:#da1c5c;stroke:#7c3990;stroke-miterlimit:10"/><line x1="120.79" y1="202.22" x2="124.85" y2="206.28" style="fill:#da1c5c;stroke:#7c3990;stroke-miterlimit:10"/><line x1="76.81" y1="202.22" x2="72.74" y2="206.28" style="fill:#da1c5c;stroke:#7c3990;stroke-miterlimit:10"/><rect x="72.69" y="156.32" width="52.22" height="49.91" style="fill:none;stroke:#7c3990;stroke-miterlimit:10"/><circle cx="83.29" cy="196.92" r="1.69" style="fill:#bd92c2;stroke:#7d3990;stroke-miterlimit:10"/><circle cx="115.54" cy="165.58" r="1.69" style="fill:#bd92c2;stroke:#7d3990;stroke-miterlimit:10"/><circle cx="115.54" cy="196.92" r="1.69" style="fill:#bd92c2;stroke:#7d3990;stroke-miterlimit:10"/><circle cx="83.29" cy="165.58" r="1.69" style="fill:#bd92c2;stroke:#7d3990;stroke-miterlimit:10"/><circle cx="98.8" cy="175.55" r="4.39" style="fill:#7d3990;stroke:#7d3990;stroke-miterlimit:10"/><polygon points="102.07 188.73 95.53 188.73 97.13 177.01 100.46 177.01 102.07 188.73" style="fill:#7d3990;stroke:#7d3990;stroke-miterlimit:10"/><rect x="228.67" y="206.35" width="52.22" height="49.91" style="fill:#bd92c2;stroke:#7d3990;stroke-miterlimit:10"/><polygon points="232.79 252.25 228.72 256.26 228.72 206.3 280.89 206.3 276.77 210.36 232.79 210.36 232.79 252.25" style="fill:#f6ebf4"/><rect x="232.79" y="210.36" width="43.98" height="41.89" style="fill:#e6cbe2;stroke:#7d3990;stroke-miterlimit:10"/><line x1="232.79" y1="210.36" x2="228.72" y2="206.3" style="fill:#da1c5c;stroke:#7c3990;stroke-miterlimit:10"/><line x1="276.77" y1="210.36" x2="280.83" y2="206.3" style="fill:#da1c5c;stroke:#7c3990;stroke-miterlimit:10"/><line x1="276.77" y1="252.25" x2="280.83" y2="256.31" style="fill:#da1c5c;stroke:#7c3990;stroke-miterlimit:10"/><line x1="232.79" y1="252.25" x2="228.72" y2="256.31" style="fill:#da1c5c;stroke:#7c3990;stroke-miterlimit:10"/><rect x="228.67" y="206.35" width="52.22" height="49.91" style="fill:none;stroke:#7c3990;stroke-miterlimit:10"/><circle cx="239.27" cy="246.95" r="1.69" style="fill:#bd92c2;stroke:#7d3990;stroke-miterlimit:10"/><circle cx="271.52" cy="215.61" r="1.69" style="fill:#bd92c2;stroke:#7d3990;stroke-miterlimit:10"/><circle cx="271.52" cy="246.95" r="1.69" style="fill:#bd92c2;stroke:#7d3990;stroke-miterlimit:10"/><circle cx="239.27" cy="215.61" r="1.69" style="fill:#bd92c2;stroke:#7d3990;stroke-miterlimit:10"/><circle cx="254.78" cy="228.24" r="4.39" style="fill:#7d3990;stroke:#7d3990;stroke-miterlimit:10"/><polygon points="258.05 241.42 251.5 241.42 253.11 229.7 256.44 229.7 258.05 241.42" style="fill:#7d3990;stroke:#7d3990;stroke-miterlimit:10"/><rect x="176.67" y="206.27" width="52.22" height="49.91" style="fill:#bd92c2;stroke:#7d3990;stroke-miterlimit:10"/><polygon points="180.79 252.17 176.73 256.18 176.73 206.22 228.9 206.22 224.78 210.28 180.79 210.28 180.79 252.17" style="fill:#f6ebf4"/><rect x="180.79" y="210.28" width="43.98" height="41.89" style="fill:#e6cbe2;stroke:#7d3990;stroke-miterlimit:10"/><line x1="180.79" y1="210.28" x2="176.73" y2="206.22" style="fill:#da1c5c;stroke:#7c3990;stroke-miterlimit:10"/><line x1="224.78" y1="210.28" x2="228.84" y2="206.22" style="fill:#da1c5c;stroke:#7c3990;stroke-miterlimit:10"/><line x1="224.78" y1="252.17" x2="228.84" y2="256.23" style="fill:#da1c5c;stroke:#7c3990;stroke-miterlimit:10"/><line x1="180.79" y1="252.17" x2="176.73" y2="256.23" style="fill:#da1c5c;stroke:#7c3990;stroke-miterlimit:10"/><rect x="176.67" y="206.27" width="52.22" height="49.91" style="fill:none;stroke:#7c3990;stroke-miterlimit:10"/><circle cx="187.28" cy="246.87" r="1.69" style="fill:#bd92c2;stroke:#7d3990;stroke-miterlimit:10"/><circle cx="219.53" cy="215.53" r="1.69" style="fill:#bd92c2;stroke:#7d3990;stroke-miterlimit:10"/><circle cx="219.53" cy="246.87" r="1.69" style="fill:#bd92c2;stroke:#7d3990;stroke-miterlimit:10"/><circle cx="187.28" cy="215.53" r="1.69" style="fill:#bd92c2;stroke:#7d3990;stroke-miterlimit:10"/><circle cx="202.79" cy="225.5" r="4.39" style="fill:#7d3990;stroke:#7d3990;stroke-miterlimit:10"/><polygon points="206.06 238.68 199.51 238.68 201.12 226.96 204.45 226.96 206.06 238.68" style="fill:#7d3990;stroke:#7d3990;stroke-miterlimit:10"/><rect x="72.69" y="206.27" width="52.22" height="49.91" style="fill:#bd92c2;stroke:#7d3990;stroke-miterlimit:10"/><polygon points="76.81 252.17 72.74 256.18 72.74 206.22 124.91 206.22 120.79 210.28 76.81 210.28 76.81 252.17" style="fill:#f6ebf4"/><rect x="76.81" y="210.28" width="43.98" height="41.89" style="fill:#e6cbe2;stroke:#7d3990;stroke-miterlimit:10"/><line x1="76.81" y1="210.28" x2="72.74" y2="206.22" style="fill:#da1c5c;stroke:#7c3990;stroke-miterlimit:10"/><line x1="120.79" y1="210.28" x2="124.85" y2="206.22" style="fill:#da1c5c;stroke:#7c3990;stroke-miterlimit:10"/><line x1="120.79" y1="252.17" x2="124.85" y2="256.23" style="fill:#da1c5c;stroke:#7c3990;stroke-miterlimit:10"/><line x1="76.81" y1="252.17" x2="72.74" y2="256.23" style="fill:#da1c5c;stroke:#7c3990;stroke-miterlimit:10"/><rect x="72.69" y="206.27" width="52.22" height="49.91" style="fill:none;stroke:#7c3990;stroke-miterlimit:10"/><circle cx="83.29" cy="246.87" r="1.69" style="fill:#bd92c2;stroke:#7d3990;stroke-miterlimit:10"/><circle cx="115.54" cy="215.53" r="1.69" style="fill:#bd92c2;stroke:#7d3990;stroke-miterlimit:10"/><circle cx="115.54" cy="246.87" r="1.69" style="fill:#bd92c2;stroke:#7d3990;stroke-miterlimit:10"/><circle cx="83.29" cy="215.53" r="1.69" style="fill:#bd92c2;stroke:#7d3990;stroke-miterlimit:10"/><circle cx="98.8" cy="225.5" r="4.39" style="fill:#7d3990;stroke:#7d3990;stroke-miterlimit:10"/><polygon points="102.07 238.68 95.53 238.68 97.13 226.96 100.46 226.96 102.07 238.68" style="fill:#7d3990;stroke:#7d3990;stroke-miterlimit:10"/><rect x="176.67" y="6.47" width="52.22" height="49.91" style="fill:#bd92c2;stroke:#7d3990;stroke-miterlimit:10"/><polygon points="180.79 52.37 176.73 56.38 176.73 6.42 228.9 6.42 224.78 10.48 180.79 10.48 180.79 52.37" style="fill:#f6ebf4"/><rect x="180.79" y="10.48" width="43.98" height="41.89" style="fill:#e6cbe2;stroke:#7d3990;stroke-miterlimit:10"/><line x1="180.79" y1="10.48" x2="176.73" y2="6.42" style="fill:#da1c5c;stroke:#7c3990;stroke-miterlimit:10"/><line x1="224.78" y1="10.48" x2="228.84" y2="6.42" style="fill:#da1c5c;stroke:#7c3990;stroke-miterlimit:10"/><line x1="224.78" y1="52.37" x2="228.84" y2="56.43" style="fill:#da1c5c;stroke:#7c3990;stroke-miterlimit:10"/><line x1="180.79" y1="52.37" x2="176.73" y2="56.43" style="fill:#da1c5c;stroke:#7c3990;stroke-miterlimit:10"/><rect x="176.67" y="6.47" width="52.22" height="49.91" style="fill:none;stroke:#7c3990;stroke-miterlimit:10"/><circle cx="187.28" cy="47.07" r="1.69" style="fill:#bd92c2;stroke:#7d3990;stroke-miterlimit:10"/><circle cx="219.53" cy="15.73" r="1.69" style="fill:#bd92c2;stroke:#7d3990;stroke-miterlimit:10"/><circle cx="219.53" cy="47.07" r="1.69" style="fill:#bd92c2;stroke:#7d3990;stroke-miterlimit:10"/><circle cx="187.28" cy="15.73" r="1.69" style="fill:#bd92c2;stroke:#7d3990;stroke-miterlimit:10"/><circle cx="202.79" cy="25.7" r="4.39" style="fill:#7d3990;stroke:#7d3990;stroke-miterlimit:10"/><polygon points="206.06 38.88 199.51 38.88 201.12 27.16 204.45 27.16 206.06 38.88" style="fill:#7d3990;stroke:#7d3990;stroke-miterlimit:10"/><rect x="72.71" y="106.4" width="52.22" height="49.91" style="fill:#bd92c2;stroke:#7d3990;stroke-miterlimit:10"/><polyline points="72.77 106.35 79.58 113.16 79.58 156.31" style="fill:none;stroke:#7c3990;stroke-miterlimit:10"/><polyline points="124.88 106.35 118.07 113.16 118.07 156.31" style="fill:none;stroke:#7c3990;stroke-miterlimit:10"/><rect x="72.71" y="106.4" width="52.22" height="49.91" style="fill:none;stroke:#7c3990;stroke-miterlimit:10"/><line x1="79.58" y1="113.16" x2="118.07" y2="113.16" style="fill:none;stroke:#7c3990;stroke-miterlimit:10"/><polygon points="72.83 106.4 124.94 106.4 118.07 113.16 118.07 156.31 72.83 156.31 72.83 106.4" style="fill:#7c3990;opacity:0.2"/><rect x="79.88" y="113.38" width="38.19" height="42.93" style="fill:#7c3990;opacity:0.36"/><polyline points="155.27 99.9 153.46 104.44 153.46 155.38 155.27 158.99" style="fill:#e6cbe2;stroke:#7d3990;stroke-miterlimit:10"/><polyline points="162.47 158.99 176.98 156.27 176.98 106.25 162.67 99.88" style="fill:#e6cbe2;stroke:#7d3990;stroke-miterlimit:10"/><polyline points="162.47 158.99 176.98 156.27 176.98 106.25 162.67 99.88" style="fill:#7d3990;stroke:#7d3990;stroke-miterlimit:10;opacity:0.65"/><rect x="155.27" y="99.9" width="7.08" height="59.09" transform="translate(317.63 258.89) rotate(-180)" style="fill:#bd92c2;stroke:#7d3990;stroke-miterlimit:10"/><rect x="176.92" y="106.37" width="52.22" height="49.91" style="fill:#bd92c2;stroke:#7d3990;stroke-miterlimit:10"/><rect x="176.92" y="106.37" width="52.22" height="49.91" style="fill:none;stroke:#7c3990;stroke-miterlimit:10"/><rect x="176.95" y="106.4" width="52.22" height="49.91" style="fill:#bd92c2;stroke:#7d3990;stroke-miterlimit:10"/><polyline points="177.01 106.35 183.82 113.15 183.82 156.31" style="fill:none;stroke:#7c3990;stroke-miterlimit:10"/><polyline points="229.12 106.35 222.31 113.15 222.31 156.31" style="fill:none;stroke:#7c3990;stroke-miterlimit:10"/><rect x="176.95" y="106.4" width="52.22" height="49.91" style="fill:none;stroke:#7c3990;stroke-miterlimit:10"/><line x1="183.82" y1="113.15" x2="222.31" y2="113.15" style="fill:none;stroke:#7c3990;stroke-miterlimit:10"/><polygon points="177.06 106.4 229.18 106.4 222.31 113.15 222.31 156.31 177.06 156.31 177.06 106.4" style="fill:#7c3990;opacity:0.2"/><rect x="184.12" y="113.38" width="38.19" height="42.93" style="fill:#7c3990;opacity:0.36"/><polyline points="102.83 0.02 101.02 4.55 101.02 55.49 102.83 59.1" style="fill:#e6cbe2;stroke:#7d3990;stroke-miterlimit:10"/><polyline points="110.02 59.1 124.53 56.38 124.53 6.37 110.23 0" style="fill:#e6cbe2;stroke:#7d3990;stroke-miterlimit:10"/><polyline points="110.02 59.1 124.53 56.38 124.53 6.37 110.23 0" style="fill:#7d3990;stroke:#7d3990;stroke-miterlimit:10;opacity:0.65"/><rect x="102.83" y="0.02" width="7.08" height="59.09" transform="translate(212.74 59.12) rotate(-180)" style="fill:#bd92c2;stroke:#7d3990;stroke-miterlimit:10"/><rect x="124.48" y="6.49" width="52.22" height="49.91" style="fill:#bd92c2;stroke:#7d3990;stroke-miterlimit:10"/><rect x="124.48" y="6.49" width="52.22" height="49.91" style="fill:none;stroke:#7c3990;stroke-miterlimit:10"/><rect x="124.51" y="6.52" width="52.22" height="49.91" style="fill:#bd92c2;stroke:#7d3990;stroke-miterlimit:10"/><polyline points="124.56 6.46 131.37 13.27 131.37 56.42" style="fill:none;stroke:#7c3990;stroke-miterlimit:10"/><polyline points="176.67 6.46 169.87 13.27 169.87 56.42" style="fill:none;stroke:#7c3990;stroke-miterlimit:10"/><rect x="124.51" y="6.52" width="52.22" height="49.91" style="fill:none;stroke:#7c3990;stroke-miterlimit:10"/><line x1="131.37" y1="13.27" x2="169.86" y2="13.27" style="fill:none;stroke:#7c3990;stroke-miterlimit:10"/><polygon points="124.62 6.52 176.73 6.52 169.87 13.27 169.87 56.42 124.62 56.42 124.62 6.52" style="fill:#7c3990;opacity:0.2"/><rect x="131.67" y="13.49" width="38.19" height="42.93" style="fill:#7c3990;opacity:0.36"/><polyline points="102.77 199.85 100.96 206.19 100.96 255.32 102.77 258.93" style="fill:#e6cbe2;stroke:#7d3990;stroke-miterlimit:10"/><polyline points="109.97 258.93 124.48 256.21 124.48 206.19 110.17 199.83" style="fill:#e6cbe2;stroke:#7d3990;stroke-miterlimit:10"/><polyline points="109.97 258.93 124.48 256.21 124.48 206.19 110.17 199.83" style="fill:#7d3990;stroke:#7d3990;stroke-miterlimit:10;opacity:0.65"/><rect x="102.77" y="199.85" width="7.08" height="59.09" transform="translate(212.63 458.78) rotate(-180)" style="fill:#bd92c2;stroke:#7d3990;stroke-miterlimit:10"/><rect x="124.42" y="206.32" width="52.22" height="49.91" style="fill:#bd92c2;stroke:#7d3990;stroke-miterlimit:10"/><rect x="124.42" y="206.32" width="52.22" height="49.91" style="fill:none;stroke:#7c3990;stroke-miterlimit:10"/><rect x="124.45" y="206.34" width="52.22" height="49.91" style="fill:#bd92c2;stroke:#7d3990;stroke-miterlimit:10"/><polyline points="124.51 206.29 131.31 213.1 131.31 256.25" style="fill:none;stroke:#7c3990;stroke-miterlimit:10"/><polyline points="176.62 206.29 169.81 213.1 169.81 256.25" style="fill:none;stroke:#7c3990;stroke-miterlimit:10"/><rect x="124.45" y="206.34" width="52.22" height="49.91" style="fill:none;stroke:#7c3990;stroke-miterlimit:10"/><line x1="131.31" y1="213.1" x2="169.81" y2="213.1" style="fill:none;stroke:#7c3990;stroke-miterlimit:10"/><polygon points="124.56 206.34 176.67 206.34 169.81 213.1 169.81 256.25 124.56 256.25 124.56 206.34" style="fill:#7c3990;opacity:0.2"/><rect x="131.62" y="213.32" width="38.19" height="42.93" style="fill:#7c3990;opacity:0.36"/><polyline points="250.88 49.95 252.69 56.3 252.69 105.43 250.88 109.04" style="fill:#e6cbe2;stroke:#7d3990;stroke-miterlimit:10"/><rect x="176.9" y="56.41" width="52.22" height="49.91" style="fill:#bd92c2;stroke:#7d3990;stroke-miterlimit:10"/><polyline points="176.96 56.36 183.77 63.17 183.77 106.32" style="fill:none;stroke:#7c3990;stroke-miterlimit:10"/><polyline points="229.07 56.36 222.26 63.17 222.26 106.32" style="fill:none;stroke:#7c3990;stroke-miterlimit:10"/><rect x="176.9" y="56.41" width="52.22" height="49.91" style="fill:none;stroke:#7c3990;stroke-miterlimit:10"/><line x1="183.77" y1="63.17" x2="222.26" y2="63.17" style="fill:none;stroke:#7c3990;stroke-miterlimit:10"/><polygon points="177.01 56.41 229.13 56.41 222.26 63.17 222.26 106.32 177.01 106.32 177.01 56.41" style="fill:#7c3990;opacity:0.2"/><rect x="184.07" y="63.39" width="38.19" height="42.93" style="fill:#7c3990;opacity:0.36"/><polyline points="243.69 109.04 229.18 106.32 229.18 56.3 243.48 49.94" style="fill:#e6cbe2;stroke:#7d3990;stroke-miterlimit:10"/><rect x="243.8" y="49.95" width="7.08" height="59.09" style="fill:#bd92c2;stroke:#7d3990;stroke-miterlimit:10"/><polygon points="150.53 210.36 135.21 225.61 135.21 231.01 135.21 238.55 135.21 241.14 150.53 256.38 165.86 241.14 165.86 238.55 165.86 231.01 165.86 225.61 150.53 210.36" style="fill:#da1c5c;stroke:#7c3990;stroke-miterlimit:10"/><polyline points="150.53 210.36 135.21 225.61 135.21 231.01 135.21 238.55 135.21 241.14 150.53 256.38" style="fill:#f6ebf4;stroke:#7d3990;stroke-miterlimit:10"/><line x1="156.93" y1="237.35" x2="165.86" y2="241.14" style="fill:none;stroke:#7d3990;stroke-miterlimit:10"/><line x1="150.54" y1="243.71" x2="150.53" y2="256.38" style="fill:none;stroke:#7d3990;stroke-miterlimit:10"/><line x1="144.13" y1="237.34" x2="135.21" y2="241.14" style="fill:none;stroke:#7d3990;stroke-miterlimit:10"/><line x1="156.93" y1="229.4" x2="165.86" y2="225.61" style="fill:none;stroke:#7d3990;stroke-miterlimit:10"/><line x1="150.54" y1="223.04" x2="150.53" y2="210.36" style="fill:none;stroke:#7d3990;stroke-miterlimit:10"/><line x1="144.13" y1="229.4" x2="135.21" y2="225.61" style="fill:none;stroke:#7d3990;stroke-miterlimit:10"/><polygon points="150.54 223.04 144.13 229.4 144.13 231.01 144.13 236.31 144.13 237.34 150.54 243.71 156.93 237.35 156.93 236.31 156.93 231.01 156.93 229.4 150.54 223.04" style="fill:#e6cbe2;stroke:#7d3990;stroke-miterlimit:10"/><polyline points="200.31 71.28 192.35 61.13 197.95 62.9 203.18 61.13 209.04 62.9 214.01 61.13 205.71 71.63" style="fill:#fff6d3;stroke:#7d3990;stroke-miterlimit:10"/><polygon points="220.15 100.2 215.51 106.41 190.63 106.41 185.99 100.2 188.09 84.85 200.31 71.28 205.83 71.28 218.47 84.85 220.15 100.2" style="fill:#fff6d3;stroke:#7d3990;stroke-miterlimit:10"/><line x1="199.11" y1="70.01" x2="206.8" y2="70.49" style="fill:#d4bd98;stroke:#7d3990;stroke-miterlimit:10"/><line x1="206.8" y1="72.32" x2="199.23" y2="72.48" style="fill:#d4bd98;stroke:#7d3990;stroke-miterlimit:10"/><polyline points="193.72 69.45 199.85 71.28 194.83 72.95" style="fill:none;stroke:#7d3990;stroke-miterlimit:10"/><line x1="202.6" y1="81.21" x2="202.6" y2="84.85" style="fill:none;stroke:#7d3990;stroke-miterlimit:10"/><line x1="202.6" y1="97.73" x2="202.6" y2="101.37" style="fill:none;stroke:#7d3990;stroke-miterlimit:10"/><line x1="204.78" y1="81.21" x2="204.78" y2="84.85" style="fill:none;stroke:#7d3990;stroke-miterlimit:10"/><line x1="204.78" y1="97.73" x2="204.78" y2="101.37" style="fill:none;stroke:#7d3990;stroke-miterlimit:10"/><path d="M209.84,88.23h0a3.38,3.38,0,0,0-3.38-3.38h-5.82a3.35,3.35,0,0,0-3.4,3.05,3.22,3.22,0,0,0,3.22,3.39h6.28a3.36,3.36,0,0,1,3.4,3,3.23,3.23,0,0,1-3.22,3.39h-6.76a3.39,3.39,0,0,1-3.38-3.38v0" style="fill:none;stroke:#7d3990;stroke-miterlimit:10"/><path d="M52.65,167.93l-3.25,5.58a6.12,6.12,0,0,1-6.16,10.58L40,189.67,54.29,198,67,176.26Z" style="fill:#f2c43c;stroke:#7c3990;stroke-miterlimit:10"/><polygon points="72.04 174.53 65.97 170.99 32.43 228.54 33.45 233.77 38.51 232.08 72.04 174.53" style="fill:#f2c43c;stroke:#7c3990;stroke-miterlimit:10"/><path d="M50.69,244.07a10.48,10.48,0,0,0-15.22-13.76,10.48,10.48,0,1,0-16,7.68,10.48,10.48,0,1,0,17.21,10A10.48,10.48,0,0,0,50.69,244.07Zm-30.37-17.7a5.48,5.48,0,1,1,2,7.5A5.48,5.48,0,0,1,20.32,226.37Zm3.35,24.19a5.49,5.49,0,1,1,7.5-2A5.49,5.49,0,0,1,23.67,250.56Zm15.2-7a5.48,5.48,0,1,1,7.5-2A5.5,5.5,0,0,1,38.87,243.53Z" style="fill:#f2c43c;stroke:#7c3990;stroke-miterlimit:10"/><polygon points="61.81 201.2 54.58 208.29 54.58 204.4 61.77 192.16 61.81 201.2" style="fill:#7c3990;opacity:0.36"/><polygon points="61.77 162.11 58.3 163.46 54.58 163.46 54.58 158.99 61.77 158.99 61.77 162.11" style="fill:#7c3990;opacity:0.36"/><polygon points="291.09 212.24 294.56 213.6 298.28 213.6 298.28 209.13 291.09 208.13 291.09 212.24" style="fill:#7c3990;opacity:0.36"/><polygon points="215.51 106.29 190.63 106.29 188.64 104.1 209.02 103.14 214.01 99.88 216.59 95.57 218.47 84.85 220.15 100.2 215.51 106.29" style="fill:#7c3990;opacity:0.36"/></g></svg>