<svg xmlns="http://www.w3.org/2000/svg" xmlns:xlink="http://www.w3.org/1999/xlink" width="49.58" height="45.34" viewBox="0 0 49.58 45.34"><defs><clipPath id="clip-path"><path d="M26.06,1.88H22.53a20.56,20.56,0,0,0,0,41.11h3.53" style="fill:none"/></clipPath></defs><title>Artboard 33</title><g id="ILLO_4" data-name="ILLO 4"><path d="M26.06,1.88H22.53a20.56,20.56,0,0,0,0,41.11h3.53" style="fill:#f2cd7b;stroke:#7c3990;stroke-miterlimit:10"/><g style="clip-path:url(#clip-path)"><line x1="1.28" y1="2.85" x2="22.25" y2="2.85" style="fill:#f5ebf4;stroke:#7d3990;stroke-linejoin:bevel"/><line x1="1.28" y1="5.99" x2="22.25" y2="5.99" style="fill:#f5ebf4;stroke:#7d3990;stroke-linejoin:bevel"/><line x1="1.28" y1="9.12" x2="22.25" y2="9.12" style="fill:#f5ebf4;stroke:#7d3990;stroke-linejoin:bevel"/><line x1="1.28" y1="12.25" x2="22.25" y2="12.25" style="fill:#f5ebf4;stroke:#7d3990;stroke-linejoin:bevel"/><line x1="1.28" y1="15.38" x2="22.25" y2="15.38" style="fill:#f5ebf4;stroke:#7d3990;stroke-linejoin:bevel"/><line x1="1.28" y1="18.52" x2="22.25" y2="18.52" style="fill:#f5ebf4;stroke:#7d3990;stroke-linejoin:bevel"/><line x1="1.28" y1="21.65" x2="22.25" y2="21.65" style="fill:#f5ebf4;stroke:#7d3990;stroke-linejoin:bevel"/><line x1="1.28" y1="24.78" x2="22.25" y2="24.78" style="fill:#f5ebf4;stroke:#7d3990;stroke-linejoin:bevel"/><line x1="1.28" y1="27.91" x2="22.25" y2="27.91" style="fill:#f5ebf4;stroke:#7d3990;stroke-linejoin:bevel"/><line x1="1.28" y1="31.05" x2="22.25" y2="31.05" style="fill:#f5ebf4;stroke:#7d3990;stroke-linejoin:bevel"/><line x1="1.28" y1="34.18" x2="22.25" y2="34.18" style="fill:#f5ebf4;stroke:#7d3990;stroke-linejoin:bevel"/><line x1="1.28" y1="37.31" x2="22.25" y2="37.31" style="fill:#f5ebf4;stroke:#7d3990;stroke-linejoin:bevel"/><line x1="1.28" y1="40.44" x2="22.25" y2="40.44" style="fill:#f5ebf4;stroke:#7d3990;stroke-linejoin:bevel"/><line x1="1.28" y1="42.01" x2="22.25" y2="42.01" style="fill:#f5ebf4;stroke:#7d3990;stroke-linejoin:bevel"/></g><path d="M26.06,1.88A20.56,20.56,0,1,0,46.62,22.43,20.55,20.55,0,0,0,26.06,1.88Z" style="fill:#efb032;stroke:#7c3990;stroke-miterlimit:10"/><path d="M26.06,5.49A16.95,16.95,0,1,0,43,22.43,16.93,16.93,0,0,0,26.06,5.49Zm0,33.89a16.95,16.95,0,1,0,0-33.89" style="fill:#f2c43c;stroke:#7c3990;stroke-miterlimit:10"/><path d="M26.06,39.38a16.95,16.95,0,1,0,0-33.89h-.52a16.94,16.94,0,0,1-.09,33.86" style="fill:#f2cd7b;stroke:#7c3990;stroke-miterlimit:10"/><path d="M18.47,15.21H28.71a3.41,3.41,0,0,1,0,6.81H21" style="fill:none;stroke:#7d3990;stroke-miterlimit:10"/><line x1="21.04" y1="15.21" x2="21.04" y2="28.82" style="fill:none;stroke:#7d3990;stroke-miterlimit:10"/><line x1="23.86" y1="11.36" x2="23.86" y2="15.21" style="fill:none;stroke:#7d3990;stroke-miterlimit:10"/><line x1="27.46" y1="11.36" x2="27.46" y2="15.21" style="fill:none;stroke:#7d3990;stroke-miterlimit:10"/><line x1="23.86" y1="28.82" x2="23.86" y2="32.67" style="fill:none;stroke:#7d3990;stroke-miterlimit:10"/><line x1="27.46" y1="28.82" x2="27.46" y2="32.67" style="fill:none;stroke:#7d3990;stroke-miterlimit:10"/><path d="M28.71,22a3.4,3.4,0,0,1,0,6.8H18.47" style="fill:none;stroke:#7d3990;stroke-miterlimit:10"/></g></svg>