<svg xmlns="http://www.w3.org/2000/svg" width="84" height="107.77" viewBox="0 0 84 107.77"><g data-name="ILLO 2"><path fill="#da1c5c" stroke="#7c3990" stroke-miterlimit="10" d="M4.89 32.4h73.96v71.96H4.89z"/><path fill="#f6ebf4" d="M10.73 98.69l-5.76 5.68V32.32h73.89l-5.84 5.76H10.73v60.61z"/><path fill="#da1c5c" stroke="#7c3990" stroke-miterlimit="10" d="M10.73 38.08h62.29v60.61H10.73zm0 0l-5.76-5.76m68.05 5.76l5.76-5.76m-5.76 66.37l5.76 5.76m-68.05-5.76l-5.76 5.76"/><path fill="none" stroke="#7c3990" stroke-miterlimit="10" d="M4.89 32.4h73.96v71.96H4.89z"/><circle cx="19.68" cy="90.97" r="2.39" fill="#c51164" stroke="#7c3990" stroke-miterlimit="10"/><circle cx="65.35" cy="45.3" r="2.39" fill="#c51164" stroke="#7c3990" stroke-miterlimit="10"/><circle cx="65.35" cy="90.97" r="2.39" fill="#c51164" stroke="#7c3990" stroke-miterlimit="10"/><circle cx="19.68" cy="45.3" r="2.39" fill="#c51164" stroke="#7c3990" stroke-miterlimit="10"/><path fill="none" stroke="#7c3990" stroke-miterlimit="10" d="M19.68 32.32L40.13 4.21l20.26 27.93"/></g></svg>