<svg xmlns="http://www.w3.org/2000/svg" width="225.26" height="269.3" viewBox="0 0 225.26 269.3"><g data-name="ILLO 2"><path fill="#da1c5c" stroke="#7c3990" stroke-miterlimit="10" d="M33.5 147.47l-11.65 11.59v27.53l11.65 11.59 11.66-11.59v-27.53L33.5 147.47z"/><path fill="#f6ebf4" stroke="#7d3990" stroke-miterlimit="10" d="M33.5 147.47l-11.65 11.59v27.53l11.65 11.59"/><path fill="none" stroke="#7d3990" stroke-miterlimit="10" d="M38.37 183.71l6.78 2.88m-11.65 1.95v9.64m-4.86-14.48l-6.79 2.89m16.52-24.65l6.78-2.88m-11.65-1.95v-9.64m-4.86 14.48l-6.79-2.89"/><path fill="#e6cbe2" stroke="#7d3990" stroke-miterlimit="10" d="M33.5 157.11l-4.86 4.84v21.75l4.86 4.84 4.87-4.83v-21.77l-4.87-4.83z"/><path fill="#da1c5c" stroke="#7c3990" stroke-miterlimit="10" d="M64.03 33.12L51.15 45.93v14.41l12.88 12.81 12.88-12.81V45.93L64.03 33.12z"/><path fill="#f6ebf4" stroke="#7d3990" stroke-miterlimit="10" d="M64.03 33.12L51.15 45.93v14.41l12.88 12.81"/><path fill="none" stroke="#7d3990" stroke-miterlimit="10" d="M69.41 57.16l7.49 3.18M64.03 62.5v10.65m-5.38-16l-7.5 3.19m18.26-11.23l7.49-3.18m-12.87-2.16V33.12m-5.38 16l-7.5-3.19"/><path fill="#e6cbe2" stroke="#7d3990" stroke-miterlimit="10" d="M64.03 43.77l-5.38 5.35v8.03l5.38 5.35 5.38-5.34v-8.05l-5.38-5.34z"/><path fill="#c51164" stroke="#7c3990" stroke-miterlimit="10" d="M142.21 131.95h73.96v71.96h-73.96z"/><path fill="#f6ebf4" d="M148.04 198.23l-5.75 5.68v-72.04h73.88l-5.83 5.76h-62.3v60.6z"/><path fill="#da1c5c" stroke="#7c3990" stroke-miterlimit="10" d="M148.05 137.63h62.29v60.61h-62.29zm0 0l-5.76-5.76m68.05 5.76l5.75-5.76m-5.75 66.36l5.75 5.76m-68.04-5.76l-5.76 5.76"/><path fill="none" stroke="#7c3990" stroke-miterlimit="10" d="M142.21 131.95h73.96v71.96h-73.96zM75.8 24.57H53.05L36.97 40.66v31.82l16.08 16.08H75.8l16.09-16.08V40.66L75.8 24.57z"/><path fill="#bd92c2" stroke="#7d3990" stroke-miterlimit="10" d="M36.97 55.43v26.26L64.43 109l27.46-27.31V55.43"/><path fill="#f5ebf4" stroke="#7d3990" stroke-linejoin="bevel" d="M36.97 55.43v26.26L64.43 109l.04-27.31V55.43"/><path fill="#e6cbe2" stroke="#7d3990" stroke-miterlimit="10" d="M75.89 55.43V74.9L64.43 86.29l-11.47-11.4V55.43"/><path fill="none" stroke="#7d3990" stroke-miterlimit="10" d="M75.9 74.9l15.99 6.79m-27.46 4.6V109M52.96 74.89l-15.99 6.8"/><path fill="none" stroke="#7d3990" stroke-linecap="square" stroke-linejoin="bevel" d="M36.97 55.43h54.92"/><path fill="#da1c5c" stroke="#7c3990" stroke-miterlimit="10" d="M59.43 103.97h9.99v8.01h-9.99z"/><path fill="#e6cbe2" stroke="#7c3990" stroke-miterlimit="10" d="M59.43 103.97h5v8.01h-5z"/><path fill="none" stroke="#7c3990" stroke-miterlimit="10" d="M44.84 136.35H22.09L6 152.44v46.26l16.09 16.09h22.75l16.08-16.09v-46.26l-16.08-16.09z"/><path fill="#bd92c2" stroke="#7d3990" stroke-miterlimit="10" d="M6 181.65v26.26l27.46 27.32 27.46-27.32v-26.26"/><path fill="#f5ebf4" stroke="#7d3990" stroke-linejoin="bevel" d="M6 181.65v26.26l27.46 27.32.04-27.32v-26.26"/><path fill="#e6cbe2" stroke="#7d3990" stroke-miterlimit="10" d="M44.93 181.65v19.47l-11.46 11.39-11.48-11.4v-19.46"/><path fill="none" stroke="#7d3990" stroke-miterlimit="10" d="M44.93 201.12l15.99 6.79m-27.46 4.6v22.72m-11.47-34.12L6 207.91"/><path fill="none" stroke="#7d3990" stroke-linecap="square" stroke-linejoin="bevel" d="M6 181.65h54.92"/><path fill="#da1c5c" stroke="#7c3990" stroke-miterlimit="10" d="M28.46 230.2h9.99v8.01h-9.99z"/><path fill="#e6cbe2" stroke="#7c3990" stroke-miterlimit="10" d="M28.46 230.2h5v8.01h-5z"/><path d="M140.82 121.55l4-2.44 4.53 1.06 2.45 4-1.07 4.53 4.2 3 2-8.38-4.61-7.32-8.38-2-7.31 4.53z" fill="#c093c3"/><path d="M136.31 118l7.31-4.53.46-.07 8.38 2 .37.28 4.53 7.31.08.46-2 8.37-.95.36-4.19-3-.24-.63 1-4.28-2.18-3.53-4-.94-3.74 2.31h-.67l-4.2-3zm7.74-3.36l-6.33 3.91 3.13 2.26 3.61-2.24.45-.07 4.53 1.06.38.27 2.44 4 .08.46-1 4.13 3.12 2.25 1.71-7.24-4.27-6.89z" fill="#7c3990"/><path d="M131 123.18l-5.53 6.58.74 8.57 6.58 5.54 8.57-.74-2.36-4.59-4.63.4-3.56-3-.4-4.63 3-3.56z" fill="#c093c3"/><path d="M131.57 122.9l2.38 4.59-.07.67-2.83 3.36.36 4.13 3.17 2.67 4.38-.38.59.32 2.38 4.59-.48.88-8.57.74-.45-.14-6.58-5.53-.22-.41-.74-8.57.14-.45 5.54-6.58zm-4.75 15.1l6.2 5.21 7.42-.64-1.78-3.42-4.23.37-.44-.14-3.56-3-.21-.42-.4-4.63.14-.44 2.73-3.25-1.78-3.42-4.79 5.7z" fill="#7c3990"/><path fill="#e6cae2" d="M138.76 130.6l4.8-4.05.53-6.25-4.05-4.8-6.26-.53-4.79 4.05-.53 6.26 4.05 4.79 6.25.53z"/><path d="M128.61 118.83l5-4.26 6.58.56 4.26 5-.56 6.57-5 4.26-6.57-.55-4.26-5zm5.3-3.45l-4.55 3.84-.5 5.93 3.84 4.55 5.94.5 4.55-3.84.5-5.94-3.85-4.54z" fill="#7c3990"/><path fill="#b87bb5" d="M143.56 126.55l-4.8 4.05-6.25-.53-4.05-4.79.53-6.26 4.79-4.05.95 2.99 6.05 7.15 2.78 1.44z"/><path fill="#c093c3" d="M137.81 127.62l2.97-2.51.32-3.86-2.5-2.97-3.87-.32-2.96 2.5-.33 3.87 2.51 2.96 3.86.33z"/><path d="M131.4 120.27l3.21-2.71 4.18.35 2.71 3.21-.35 4.19-3.21 2.69-4.19-.35-2.75-3.19zm3.46-1.91l-2.72 2.29-.3 3.55 2.3 2.72 3.55.3 2.71-2.3.3-3.55-2.29-2.71z" fill="#7c3990"/><path fill="#7c3990" d="M140.598 125.449l.358-.693 2.78 1.436-.357.693zm-3.158 2.277l.744-.237.95 2.982-.743.237zm-5.273 2.179l1.436-2.78.693.357-1.436 2.781zm-3.827-4.983l2.981-.95.237.742-2.982.95zm.467-5.562l.358-.692 2.781 1.436-.358.693zm4.605-4.273l.743-.237.95 2.982-.742.237zm4.843 3.028l1.436-2.781.693.357-1.436 2.782zm2.723 2.778l2.982-.95.237.743-2.982.95z"/><path d="M128.61 118.83l5-4.26 6.58.56 4.26 5-.56 6.57-5 4.26-6.57-.55-4.26-5zm5.3-3.45l-4.55 3.84-.5 5.93 3.84 4.55 5.94.5 4.55-3.84.5-5.94-3.85-4.54z" fill="#7c3990"/><path d="M131.69 204.64l-2.45-3.95 1.06-4.53 3.95-2.44 4.53 1.06 3-4.2-8.38-2-7.31 4.53-2 8.38 4.53 7.31z" fill="#c093c3"/><path d="M128.15 209.15l-4.53-7.31-.07-.46 2-8.38.27-.37 7.31-4.53.46-.08 8.38 2 .35.95-3 4.19-.63.24-4.28-1-3.52 2.19-1 4 2.31 3.74v.67l-3 4.2zm-3.36-7.74l3.91 6.33 2.26-3.13-2.24-3.61-.07-.45 1.06-4.53.27-.37 4-2.45.46-.08 4.13 1 2.25-3.13-7.24-1.71-6.89 4.27z" fill="#7c3990"/><path d="M133.31 214.43l6.58 5.54 8.58-.75 5.53-6.58-.74-8.57-4.59 2.38.4 4.63-3 3.56-4.63.4-3.55-3z" fill="#c093c3"/><path d="M133 213.89l4.59-2.38.67.07 3.36 2.83 4.13-.36 2.67-3.17-.38-4.38.32-.59 4.59-2.38.88.48.75 8.57-.14.45-5.54 6.58-.41.22-8.57.74-.45-.14-6.58-5.54zm15.13 4.75l5.21-6.2-.64-7.42-3.42 1.78.37 4.23-.14.44-3 3.56-.41.21-4.63.4-.45-.14-3.24-2.73-3.43 1.78 5.7 4.79z" fill="#7c3990"/><path fill="#e6cae2" d="M140.73 206.69l-4.05-4.79-6.25-.53-4.8 4.05-.52 6.26 4.05 4.79 6.25.53 4.79-4.05.53-6.26z"/><path d="M129 216.85l-4.26-5 .56-6.58 5-4.26 6.57.56 4.26 5-.55 6.57-5 4.26zm-3.45-5.3l3.84 4.55 5.93.5 4.55-3.84.5-5.94-3.84-4.55-5.94-.49-4.59 3.84z" fill="#7c3990"/><path fill="#b87bb5" d="M136.68 201.9l4.05 4.79-.53 6.26-4.79 4.05-6.25-.53-4.05-4.79 2.98-.95 7.15-6.05 1.44-2.78z"/><path fill="#c093c3" d="M137.75 207.65l-2.51-2.97-3.86-.32-2.97 2.5-.32 3.87 2.5 2.96 3.87.33 2.96-2.51.33-3.86z"/><path d="M130.4 214.06l-2.71-3.21.35-4.18 3.21-2.71 4.19.35 2.71 3.21-.35 4.19-3.21 2.71zm-1.91-3.46l2.29 2.72 3.55.3 2.72-2.3.3-3.55-2.3-2.71-3.54-.3-2.72 2.29z" fill="#7c3990"/><path fill="#7c3990" d="M134.898 204.492l1.436-2.781.693.358-1.436 2.78zm2.729 2.781l2.982-.95.237.742-2.982.951zm-.381 4.612l.358-.693 2.78 1.436-.357.693zm-3.177 2.27l.743-.237.95 2.983-.742.236zm-5.259 2.128l1.435-2.782.693.358-1.436 2.781zm-3.822-4.982l2.982-.95.237.743-2.982.95zm.467-5.514l.358-.693 2.781 1.436-.358.693zm4.585-4.281l.744-.237.95 2.982-.743.237z"/><path d="M129 216.85l-4.26-5 .56-6.58 5-4.26 6.57.56 4.26 5-.55 6.57-5 4.26zm-3.45-5.3l3.84 4.55 5.93.5 4.55-3.84.5-5.94-3.84-4.55-5.94-.49-4.59 3.84z" fill="#7c3990"/><path fill="none" stroke="#7c3990" stroke-miterlimit="10" d="M64.03 11.59v10.16"/><path fill="#da1c5c" stroke="#7c3990" stroke-miterlimit="10" d="M61.48 18.13h5.1v6.39h-5.1zm0-8.03h5.1v4.04h-5.1z"/><circle cx="156.43" cy="191.11" r="2.39" fill="#c51164" stroke="#7c3990" stroke-miterlimit="10"/><circle cx="202.11" cy="145.44" r="2.39" fill="#c51164" stroke="#7c3990" stroke-miterlimit="10"/><circle cx="202.11" cy="191.11" r="2.39" fill="#c51164" stroke="#7c3990" stroke-miterlimit="10"/><circle cx="156.43" cy="145.44" r="2.39" fill="#c51164" stroke="#7c3990" stroke-miterlimit="10"/><path d="M33.46 238.21s-1.25 26.88 22.77 26.88 45.91-13.57 52.39-28.81A51 51 0 0 1 127 213.9M64.43 112s-.3 24.44 14.44 24.44c19.69 0 11.24-32.46 22.29-39.58 16-10.33 30.35 20 30.35 20" fill="none" stroke="#7d3990" stroke-miterlimit="10"/></g></svg>