<svg xmlns="http://www.w3.org/2000/svg" xmlns:xlink="http://www.w3.org/1999/xlink" width="781.7" height="726.66" viewBox="0 0 781.7 726.66"><defs><linearGradient id="a" x1="-2271.85" y1="670.18" x2="-1552.77" y2="670.18" gradientTransform="matrix(-1 0 0 1 -1498.08 0)" gradientUnits="userSpaceOnUse"><stop offset="0" stop-color="#2484c6"/><stop offset="1" stop-color="#2484c6" stop-opacity="0"/></linearGradient><linearGradient id="b" x1="229.63" y1="596.14" x2="652.43" y2="596.14" xlink:href="#a"/><linearGradient id="c" x1="311.52" y1="715.15" x2="566.73" y2="501" gradientUnits="userSpaceOnUse"><stop offset="0" stop-color="#007a48"/><stop offset=".6" stop-color="#cbdb2a" stop-opacity="0"/></linearGradient></defs><g data-name="ILLO 2"><path d="M290.2 626.9c88.65-4.15 177.86-6.81 266.4.93 46.38 4 92.43 10.86 138.52 17.3a290.3 290.3 0 0 0 25.8-122.23C719.7 362 588.25 232.48 427.31 233.7s-290.42 132.67-289.2 293.61a290.62 290.62 0 0 0 20.79 106.12c43.78-2 87.53-4.43 131.3-6.53z" fill="#fde9f1"/><path d="M290.2 626.9c88.65-4.15 177.86-6.81 266.4.93 46.38 4 92.43 10.86 138.52 17.3a290.3 290.3 0 0 0 25.8-122.23C719.7 362 588.25 232.48 427.31 233.7s-290.42 132.67-289.2 293.61a290.62 290.62 0 0 0 20.79 106.12c43.78-2 87.53-4.43 131.3-6.53z" fill="#fde9f1" opacity=".26"/><path fill="#fff" stroke="#7c3990" stroke-miterlimit="10" d="M572.65 244.77v48.14m5.77-48.14v48.14"/><path fill="#b87bb5" stroke="#7c3990" stroke-miterlimit="10" d="M575.54 303.27l5.52-5.5v-5.7h-11.05v5.7l5.53 5.5z"/><path fill="#e6cae2" stroke="#7c3990" stroke-miterlimit="10" d="M575.54 292.07h-5.53v5.7l5.53 5.5"/><path fill="#bd92c2" stroke="#7d3990" stroke-miterlimit="10" d="M582.86 229.73H457.35l-7.48 7.52 7.48 7.51h125.51l7.47-7.51-7.47-7.52z"/><path fill="#975f99" stroke="#7e3a8f" stroke-linejoin="bevel" d="M582.93 229.73l7.48 7.52-7.48 7.51-1.86-4.37 3.12-3.14-3.12-3.14 1.86-4.38z"/><path fill="#f5ebf4" stroke="#7e3a8f" stroke-linejoin="bevel" d="M457.35 229.73l-7.48 7.52 7.48 7.51 1.85-4.37-3.12-3.14 3.13-3.14-1.86-4.38z"/><path fill="none" stroke="#7d3990" stroke-miterlimit="10" d="M459.2 240.39l-1.85 4.38m-7.48-7.52h6.22m3.12-3.14l-1.86-4.38M581 240.39l1.86 4.38m1.26-7.52h6.21m-9.33-3.14l1.86-4.38"/><path fill="#e6cbe2" stroke="#7d3990" stroke-miterlimit="10" d="M581 234.11H459.21l-3.13 3.14 3.12 3.14H581l3.12-3.14-3.12-3.14z"/><path fill="#da1c5c" stroke="#7c3990" stroke-miterlimit="10" d="M439.04 76.95l-25.34 25.21v48.09l25.34 25.21 25.35-25.21v-48.09l-25.35-25.21z"/><path fill="#f6ebf4" stroke="#7d3990" stroke-miterlimit="10" d="M439.04 76.95l-25.34 25.21v48.09l25.34 25.21"/><path fill="none" stroke="#7d3990" stroke-miterlimit="10" d="M449.62 143.98l14.77 6.27m-25.35 4.25v20.96m-10.58-31.48l-14.76 6.27m35.92-41.82l14.77-6.27m-25.35-4.24V76.95m-10.58 31.49l-14.76-6.28"/><path fill="#e6cbe2" stroke="#7d3990" stroke-miterlimit="10" d="M439.05 97.92l-10.59 10.52v35.54l10.59 10.52 10.57-10.52v-35.55l-10.57-10.51z"/><path fill="#d1ecf2" opacity=".4" d="M389.19 186.67V61.24h99.7v125.43z"/><path fill="#fff" opacity=".65" d="M466.83 66.68l-77.64 74.02v-21.89l54.62-52.16 23.02.03zm16.43-.01l-94.07 89.08v-5.87l87.97-83.24 6.1.03z"/><path fill="none" stroke="#7d3990" stroke-miterlimit="10" d="M389.19 186.37V66.64m99.71 120.03l-.01-120.03"/><path fill="#fff" stroke="#7c3990" stroke-miterlimit="10" d="M444.23 416.15h2.1v75.47h-2.1z"/><path fill="none" stroke="#7c3990" stroke-miterlimit="10" d="M446.33 453.31l19.81 11.96m0-11.96l-19.81 11.96"/><path fill="#fff" stroke="#7c3990" stroke-miterlimit="10" d="M466.14 416.15h2.35v75.47h-2.35z"/><path fill="none" stroke="#7d3990" stroke-miterlimit="10" d="M446.33 453.37h19.81"/><path fill="none" stroke="#7c3990" stroke-miterlimit="10" d="M446.33 465.14l19.81 11.96m0-11.96l-19.81 11.96"/><path fill="none" stroke="#7d3990" stroke-miterlimit="10" d="M446.33 465.21h19.81"/><path fill="none" stroke="#7c3990" stroke-miterlimit="10" d="M446.33 429.52l19.81 11.96m0-11.96l-19.81 11.96"/><path fill="none" stroke="#7d3990" stroke-miterlimit="10" d="M446.33 429.58h19.81"/><path fill="none" stroke="#7c3990" stroke-miterlimit="10" d="M446.33 417.55l19.81 11.97m0-11.97l-19.81 11.97"/><path fill="none" stroke="#7d3990" stroke-miterlimit="10" d="M446.33 417.62h19.81"/><path fill="none" stroke="#7c3990" stroke-miterlimit="10" d="M446.33 441.35l19.81 11.96m0-11.96l-19.81 11.96"/><path fill="none" stroke="#7d3990" stroke-miterlimit="10" d="M446.33 441.41h19.81"/><path fill="none" stroke="#7c3990" stroke-miterlimit="10" d="M446.33 476.97l19.81 11.97m0-11.97l-19.81 11.97"/><path fill="none" stroke="#7d3990" stroke-miterlimit="10" d="M446.33 477.04h19.81"/><path fill="#fff" stroke="#7c3990" stroke-miterlimit="10" d="M480.28 416.15h2.1v75.47h-2.1z"/><path fill="none" stroke="#7c3990" stroke-miterlimit="10" d="M482.38 453.31l19.81 11.96m0-11.96l-19.81 11.96"/><path fill="#fff" stroke="#7c3990" stroke-miterlimit="10" d="M502.19 416.15h2.35v75.47h-2.35z"/><path fill="none" stroke="#7d3990" stroke-miterlimit="10" d="M482.38 453.37h19.81"/><path fill="none" stroke="#7c3990" stroke-miterlimit="10" d="M482.38 465.14l19.81 11.96m0-11.96l-19.81 11.96"/><path fill="none" stroke="#7d3990" stroke-miterlimit="10" d="M482.38 465.21h19.81"/><path fill="none" stroke="#7c3990" stroke-miterlimit="10" d="M482.38 429.52l19.81 11.96m0-11.96l-19.81 11.96"/><path fill="none" stroke="#7d3990" stroke-miterlimit="10" d="M482.38 429.58h19.81"/><path fill="none" stroke="#7c3990" stroke-miterlimit="10" d="M482.38 417.55l19.81 11.97m0-11.97l-19.81 11.97"/><path fill="none" stroke="#7d3990" stroke-miterlimit="10" d="M482.38 417.62h19.81"/><path fill="none" stroke="#7c3990" stroke-miterlimit="10" d="M482.38 441.35l19.81 11.96m0-11.96l-19.81 11.96"/><path fill="none" stroke="#7d3990" stroke-miterlimit="10" d="M482.38 441.41h19.81"/><path fill="none" stroke="#7c3990" stroke-miterlimit="10" d="M482.38 476.97l19.81 11.97m0-11.97l-19.81 11.97"/><path fill="none" stroke="#7d3990" stroke-miterlimit="10" d="M482.38 477.04h19.81"/><path fill="#fff" stroke="#7c3990" stroke-miterlimit="10" d="M468.1 243.56h2.49v89.49h-2.49z"/><path fill="none" stroke="#7c3990" stroke-miterlimit="10" d="M470.58 287.63l23.5 14.18m0-14.18l-23.5 14.18"/><path fill="#fff" stroke="#7c3990" stroke-miterlimit="10" d="M494.08 243.56h2.79v89.49h-2.79z"/><path fill="none" stroke="#7d3990" stroke-miterlimit="10" d="M470.58 287.7h23.5"/><path fill="none" stroke="#7c3990" stroke-miterlimit="10" d="M470.58 301.66l23.5 14.18m0-14.18l-23.5 14.18"/><path fill="none" stroke="#7d3990" stroke-miterlimit="10" d="M470.58 301.73h23.5"/><path fill="none" stroke="#7c3990" stroke-miterlimit="10" d="M470.58 259.41l23.5 14.19m0-14.19l-23.5 14.19"/><path fill="none" stroke="#7d3990" stroke-miterlimit="10" d="M470.58 259.49h23.5"/><path fill="none" stroke="#7c3990" stroke-miterlimit="10" d="M470.58 245.22l23.5 14.19m0-14.19l-23.5 14.19"/><path fill="none" stroke="#7d3990" stroke-miterlimit="10" d="M470.58 245.3h23.5"/><path fill="none" stroke="#7c3990" stroke-miterlimit="10" d="M470.58 273.44l23.5 14.19m0-14.19l-23.5 14.19"/><path fill="none" stroke="#7d3990" stroke-miterlimit="10" d="M470.58 273.52h23.5"/><path fill="none" stroke="#7c3990" stroke-miterlimit="10" d="M470.58 315.69l23.5 14.18m0-14.18l-23.5 14.18"/><path fill="none" stroke="#7d3990" stroke-miterlimit="10" d="M470.58 315.76h23.5"/><path fill="#da1c5c" stroke="#7c3990" stroke-miterlimit="10" d="M486.47 57.29L439.04 6.96l-47.43 50.33"/><path fill="#f6ebf4" d="M439.04 57.29V6.96l-47.43 50.33"/><path fill="#f6ebf4" stroke="#7d3990" stroke-miterlimit="10" d="M439.04 6.96l-47.43 50.33"/><path fill="none" stroke="#7d3990" stroke-miterlimit="10" d="M439.05 56.08l-.01-49.12"/><path fill="#ee2a7b" stroke="#7d3990" stroke-miterlimit="10" d="M384.97 186.97h108.14v14.75H384.97z"/><path fill="#7d3990" stroke="#7d3990" stroke-miterlimit="10" d="M383.61 194.337l1.302-1.301 1.3 1.3-1.3 1.302zm10.821.009l1.301-1.301 1.302 1.3-1.302 1.302zm10.829-.008l1.3-1.301 1.302 1.3-1.302 1.302zm10.827.002l1.301-1.301 1.302 1.3-1.302 1.302zm10.828-.008l1.301-1.301 1.301 1.3-1.3 1.302zm10.821.009l1.301-1.301 1.301 1.301-1.3 1.301zm10.828.002l1.301-1.301 1.301 1.301-1.3 1.301zm10.828-.008l1.301-1.301 1.301 1.301-1.3 1.301zm10.821.009l1.301-1.3 1.301 1.3-1.3 1.301zm10.838-.008l1.301-1.3 1.301 1.3-1.3 1.301zm10.828.002l1.301-1.3 1.301 1.3-1.3 1.301z"/><path fill="#ee2a7b" stroke="#7d3990" stroke-miterlimit="10" d="M384.97 51.89h108.14v14.75H384.97z"/><path fill="#7d3990" stroke="#7d3990" stroke-miterlimit="10" d="M383.612 59.268l1.3-1.301 1.302 1.3-1.301 1.302zm10.821-.001l1.3-1.301 1.302 1.3-1.301 1.302zm10.827.002l1.302-1.301 1.3 1.3-1.3 1.302zm10.828.001l1.302-1.3 1.3 1.3-1.3 1.302zm10.828-.007l1.301-1.301 1.302 1.301-1.302 1.301zm10.831.009l1.301-1.301 1.301 1.301-1.3 1.301zm10.828-.008l1.301-1.301 1.301 1.301-1.3 1.301zm10.828.002l1.301-1.301 1.301 1.301-1.3 1.301zm10.821-.001l1.301-1.3 1.301 1.3-1.3 1.301zm10.828.002l1.301-1.3 1.301 1.3-1.3 1.301zm10.828.003l1.301-1.302 1.301 1.301-1.3 1.301z"/><path fill="#c51164" stroke="#7c3990" stroke-miterlimit="10" d="M363.51 345.51h73.96v71.96h-73.96z"/><path fill="#f6ebf4" d="M369.34 411.8l-5.75 5.68v-72.05h73.88l-5.84 5.76h-62.29v60.61z"/><path fill="#da1c5c" stroke="#7c3990" stroke-miterlimit="10" d="M369.34 351.19h62.29v60.61h-62.29zm0 0l-5.75-5.76m68.04 5.76l5.76-5.76m-5.76 66.37l5.76 5.76m-68.05-5.76l-5.75 5.76"/><path fill="none" stroke="#7c3990" stroke-miterlimit="10" d="M363.51 345.51h73.96v71.96h-73.96z"/><path fill="#c51164" stroke="#7c3990" stroke-miterlimit="10" d="M437.47 345.51h73.96v71.96h-73.96z"/><path fill="#f6ebf4" d="M443.31 411.8l-5.76 5.68v-72.05h73.88l-5.83 5.76h-62.29v60.61z"/><path fill="#da1c5c" stroke="#7c3990" stroke-miterlimit="10" d="M443.31 351.19h62.29v60.61h-62.29zm0 0l-5.76-5.76m68.05 5.76l5.75-5.76m-5.75 66.37l5.75 5.76m-68.04-5.76l-5.76 5.76"/><path fill="none" stroke="#7c3990" stroke-miterlimit="10" d="M437.47 345.51h73.96v71.96h-73.96z"/><path fill="#da1c5c" stroke="#7c3990" stroke-miterlimit="10" d="M437.47 273.76h73.96v71.96h-73.96z"/><path fill="#f6ebf4" d="M443.31 340.05l-5.76 5.67v-72.04h73.88l-5.83 5.76h-62.29v60.61z"/><path fill="#da1c5c" stroke="#7c3990" stroke-miterlimit="10" d="M443.31 279.44h62.29v60.61h-62.29zm0 0l-5.76-5.76m68.05 5.76l5.75-5.76m-5.75 66.36l5.75 5.76m-68.04-5.76l-5.76 5.76"/><path fill="none" stroke="#7c3990" stroke-miterlimit="10" d="M437.47 273.76h73.96v71.96h-73.96z"/><path fill="#bd92c2" stroke="#7d3990" stroke-miterlimit="10" d="M363.51 273.76h73.96v71.96h-73.96z"/><path fill="#f6ebf4" d="M369.34 340.05l-5.75 5.67v-72.04h73.88l-5.84 5.76h-62.29v60.61z"/><path fill="#e6cbe2" stroke="#7d3990" stroke-miterlimit="10" d="M369.34 279.44h62.29v60.61h-62.29z"/><path fill="#da1c5c" stroke="#7c3990" stroke-miterlimit="10" d="M369.34 279.44l-5.75-5.76m68.04 5.76l5.76-5.76m-5.76 66.36l5.76 5.76m-68.05-5.76l-5.75 5.76"/><path fill="none" stroke="#7c3990" stroke-miterlimit="10" d="M363.51 273.76h73.96v71.96h-73.96z"/><path fill="#bd92c2" stroke="#7d3990" stroke-miterlimit="10" d="M363.51 201.72h73.96v71.96h-73.96z"/><path fill="#f6ebf4" d="M369.34 268l-5.75 5.68v-72.04h73.88l-5.84 5.75h-62.29V268z"/><path fill="#e6cbe2" stroke="#7d3990" stroke-miterlimit="10" d="M369.34 207.39h62.29V268h-62.29z"/><path fill="#da1c5c" stroke="#7c3990" stroke-miterlimit="10" d="M369.34 207.39l-5.75-5.75m68.04 5.75l5.76-5.75M431.63 268l5.76 5.76M369.34 268l-5.75 5.76"/><path fill="none" stroke="#7c3990" stroke-miterlimit="10" d="M363.51 201.72h73.96v71.96h-73.96z"/><path fill="#bd92c2" stroke="#7d3990" stroke-miterlimit="10" d="M437.51 489.6h73.96v71.96h-73.96z"/><path fill="#f6ebf4" d="M443.35 555.88l-5.76 5.68v-72.04h73.88l-5.83 5.76h-62.29v60.6z"/><path fill="#e6cbe2" stroke="#7d3990" stroke-miterlimit="10" d="M443.35 495.28h62.29v60.61h-62.29z"/><path fill="#da1c5c" stroke="#7c3990" stroke-miterlimit="10" d="M443.35 495.28l-5.76-5.76m68.05 5.76l5.75-5.76m-5.75 66.37l5.75 5.75m-68.04-5.75l-5.76 5.75"/><path fill="none" stroke="#7c3990" stroke-miterlimit="10" d="M437.51 489.6h73.96v71.96h-73.96z"/><path fill="#bd92c2" stroke="#7d3990" stroke-miterlimit="10" d="M363.51 489.6h73.96v71.96h-73.96z"/><path fill="#f6ebf4" d="M369.34 555.88l-5.75 5.68v-72.04h73.88l-5.84 5.76h-62.29v60.6z"/><path fill="#e6cbe2" stroke="#7d3990" stroke-miterlimit="10" d="M369.34 495.28h62.29v60.61h-62.29z"/><path fill="#da1c5c" stroke="#7c3990" stroke-miterlimit="10" d="M369.34 495.28l-5.75-5.76m68.04 5.76l5.76-5.76m-5.76 66.37l5.76 5.75m-68.05-5.75l-5.75 5.75"/><path fill="none" stroke="#7c3990" stroke-miterlimit="10" d="M363.51 489.6h73.96v71.96h-73.96z"/><path fill="#da1c5c" stroke="#7c3990" stroke-miterlimit="10" d="M485.68 216.45H468.1v28.77h28.77v-13.54l-11.19-15.23z"/><path fill="#d1ecf2" stroke="#7c3990" stroke-miterlimit="10" d="M491.59 231.33h-19.61v-11.3h11.65l7.96 11.3z"/><path fill="none" stroke="#7c3990" stroke-miterlimit="10" d="M319.81 126.8h58.23m-42.91 23.68l38.1-8.7m-36.11 34.43l39.32-21.3m-41.31-51.78l38.1 8.69M337.12 77.4l39.32 21.3m181.83 28.1h-58.23m42.91-23.67l-38.09 8.69m36.1-34.42l-39.32 21.3m41.31 51.78l-38.09-8.7m36.1 34.43l-39.32-21.3"/><circle cx="377.57" cy="404.24" r="2.39" fill="#c51164" stroke="#7c3990" stroke-miterlimit="10"/><circle cx="423.24" cy="358.57" r="2.39" fill="#c51164" stroke="#7c3990" stroke-miterlimit="10"/><circle cx="423.24" cy="404.24" r="2.39" fill="#c51164" stroke="#7c3990" stroke-miterlimit="10"/><circle cx="377.57" cy="358.57" r="2.39" fill="#c51164" stroke="#7c3990" stroke-miterlimit="10"/><circle cx="451.65" cy="404.24" r="2.39" fill="#c51164" stroke="#7c3990" stroke-miterlimit="10"/><circle cx="497.32" cy="358.57" r="2.39" fill="#c51164" stroke="#7c3990" stroke-miterlimit="10"/><circle cx="497.32" cy="404.24" r="2.39" fill="#c51164" stroke="#7c3990" stroke-miterlimit="10"/><circle cx="451.65" cy="358.57" r="2.39" fill="#c51164" stroke="#7c3990" stroke-miterlimit="10"/><circle cx="451.65" cy="332.08" r="2.39" fill="#c51164" stroke="#7c3990" stroke-miterlimit="10"/><circle cx="497.32" cy="286.4" r="2.39" fill="#c51164" stroke="#7c3990" stroke-miterlimit="10"/><circle cx="497.32" cy="332.08" r="2.39" fill="#c51164" stroke="#7c3990" stroke-miterlimit="10"/><circle cx="451.65" cy="286.4" r="2.39" fill="#c51164" stroke="#7c3990" stroke-miterlimit="10"/><circle cx="378.53" cy="332.08" r="2.39" fill="#bd92c2" stroke="#7d3990" stroke-miterlimit="10"/><circle cx="424.2" cy="286.4" r="2.39" fill="#bd92c2" stroke="#7d3990" stroke-miterlimit="10"/><circle cx="424.2" cy="332.08" r="2.39" fill="#bd92c2" stroke="#7d3990" stroke-miterlimit="10"/><circle cx="378.53" cy="286.4" r="2.39" fill="#bd92c2" stroke="#7d3990" stroke-miterlimit="10"/><circle cx="378.53" cy="260.49" r="2.39" fill="#bd92c2" stroke="#7d3990" stroke-miterlimit="10"/><circle cx="424.2" cy="214.82" r="2.39" fill="#bd92c2" stroke="#7d3990" stroke-miterlimit="10"/><circle cx="424.2" cy="260.49" r="2.39" fill="#bd92c2" stroke="#7d3990" stroke-miterlimit="10"/><circle cx="378.53" cy="214.82" r="2.39" fill="#bd92c2" stroke="#7d3990" stroke-miterlimit="10"/><circle cx="377.56" cy="548.19" r="2.39" fill="#bd92c2" stroke="#7d3990" stroke-miterlimit="10"/><circle cx="423.24" cy="502.52" r="2.39" fill="#bd92c2" stroke="#7d3990" stroke-miterlimit="10"/><circle cx="423.24" cy="548.19" r="2.39" fill="#bd92c2" stroke="#7d3990" stroke-miterlimit="10"/><circle cx="377.56" cy="502.52" r="2.39" fill="#bd92c2" stroke="#7d3990" stroke-miterlimit="10"/><circle cx="451.88" cy="548.19" r="2.39" fill="#bd92c2" stroke="#7d3990" stroke-miterlimit="10"/><circle cx="497.55" cy="502.52" r="2.39" fill="#bd92c2" stroke="#7d3990" stroke-miterlimit="10"/><circle cx="497.55" cy="548.19" r="2.39" fill="#bd92c2" stroke="#7d3990" stroke-miterlimit="10"/><circle cx="451.88" cy="502.52" r="2.39" fill="#bd92c2" stroke="#7d3990" stroke-miterlimit="10"/><path fill="#da1c5c" stroke="#7c3990" stroke-miterlimit="10" d="M437.47 228.92l23.23-27.2m-23.23 33.43l28.54-33.43m-19.37 16.45v-16.45"/><path fill="#e6cbe2" stroke="#7d3990" stroke-miterlimit="10" d="M472.82 235.15h5.1"/><path d="M773.78 617.55s-60 166.91-329.84 80.38C191.66 617 224 795 54.69 617.55z" fill="#dff2f4"/><path d="M773.78 617.55s-60 166.91-329.84 80.38C191.66 617 222.68 796.21 54.69 617.55z" fill="url(#a)"/><path fill="#fff" d="M628.13 574.18H254.26l6.78-12.11h360.89l6.2 12.11z"/><path fill="#68c180" d="M628.13 574.18H254.26l-24.63 43.38 422.8.55-24.3-43.93z"/><path style="mix-blend-mode:overlay" fill="url(#b)" d="M628.13 574.18H254.26l-24.63 43.38 422.8.55-24.3-43.93z"/><path style="mix-blend-mode:overlay" fill="url(#c)" d="M628.13 574.18H254.26l-24.63 43.38 422.8.55-24.3-43.93z"/><path style="mix-blend-mode:multiply" fill="#39b54a" d="M628.13 574.18H254.26l-24.63 43.38 422.8.55-24.3-43.93z"/><path style="mix-blend-mode:multiply" fill="#0fa04a" opacity=".25" d="M628.13 574.18H254.26l-24.63 43.38 422.8.55-24.3-43.93z"/><path d="M617.5 149.24a53.94 53.94 0 0 1 49.78 33.17 5.65 5.65 0 0 0 8.9 2.23 24.59 24.59 0 0 1 39.64 11.06 5.71 5.71 0 0 1-5.43 7.47H569.61a5.71 5.71 0 0 1-5.67-6.37 54 54 0 0 1 53.56-47.56zM115.4 383.43a12.31 12.31 0 0 0-11.49 7.89 3.27 3.27 0 0 0 3.07 4.42h16.85a3.27 3.27 0 0 0 3.07-4.42 12.32 12.32 0 0 0-11.5-7.89zm642.41 83.37a12.3 12.3 0 0 0-11.49 7.89 3.27 3.27 0 0 0 3.06 4.42h16.86a3.27 3.27 0 0 0 3.06-4.42 12.31 12.31 0 0 0-11.49-7.89zM142.53 221.64a12.31 12.31 0 0 0-11.53 7.89 3.27 3.27 0 0 0 3.1 4.47H151a3.27 3.27 0 0 0 3.06-4.42 12.3 12.3 0 0 0-11.53-7.94z" fill="#dff2f4"/><path d="M640 514.68a12.32 12.32 0 0 0-11.49 7.89 3.27 3.27 0 0 0 3.06 4.42h16.86a3.27 3.27 0 0 0 3.06-4.42 12.31 12.31 0 0 0-11.49-7.89zm-41-9.77a22.08 22.08 0 0 0-21.06 15.43 5.09 5.09 0 0 0 4.83 6.65h32.46a5.09 5.09 0 0 0 4.84-6.65A22.1 22.1 0 0 0 599 504.91z" fill="#fff"/><path d="M251.27 210.38a23.49 23.49 0 0 0-16.66 6.9 7.37 7.37 0 0 1-11.39-1.14 32.22 32.22 0 0 0-26.95-14.52c-29.7 0-42 32.33-30.12 32.33h99.54a7.35 7.35 0 0 0 6.7-10.48 23.58 23.58 0 0 0-21.12-13.09z" fill="#dff2f4"/><path d="M225.35 567.34c0-.27-.08-.54-.13-.81-.08-.48-.14-.95-.24-1.42s-.25-1-.39-1.51-.23-.92-.37-1.36-.35-1-.53-1.45-.32-.88-.5-1.31-.44-.92-.67-1.37-.39-.84-.62-1.25-.52-.87-.79-1.3-.47-.79-.72-1.16-.61-.82-.92-1.23-.54-.73-.83-1.08-.68-.76-1-1.13-.6-.68-.92-1-.76-.69-1.14-1-.65-.61-1-.9-.83-.62-1.25-.93-.7-.54-1.07-.79-.9-.55-1.35-.82-.75-.47-1.14-.68-1-.47-1.44-.7-.78-.39-1.19-.56-1-.39-1.56-.57-.79-.31-1.2-.44c-.56-.17-1.14-.3-1.71-.44-.4-.09-.78-.21-1.18-.3-.64-.13-1.3-.2-2-.29-.34 0-.68-.12-1-.16-1-.1-2-.15-3.07-.15-.83 0-1.64 0-2.45.1l-.73.08c-.58.06-1.15.13-1.71.22l-.77.14c-.61.11-1.21.25-1.8.4l-.53.13c-.76.2-1.5.44-2.23.7l-.52.2c-.56.22-1.11.44-1.66.69l-.69.32c-.5.24-1 .5-1.47.76l-.61.34c-.67.39-1.32.79-1.95 1.22-.62.43-1.21.88-1.79 1.35-.19.15-.36.3-.54.46q-.63.52-1.23 1.08l-.54.52c-.42.42-.83.86-1.23 1.3-.12.13-.24.25-.35.38-.5.58-1 1.17-1.43 1.78l-.32.46c-.35.47-.68 1-1 1.46l-.4.64c-.11.2-.24.39-.35.59a3.16 3.16 0 0 1-5.68-.4c-.14-.34-.3-.66-.44-1s-.34-.78-.52-1.17c-.32-.69-.66-1.36-1-2-.18-.34-.35-.68-.53-1-.48-.84-1-1.67-1.53-2.47-.09-.13-.16-.27-.25-.39-.63-.93-1.31-1.83-2-2.7-.21-.26-.44-.5-.65-.75-.51-.61-1-1.2-1.58-1.77-.28-.3-.57-.59-.87-.88-.51-.5-1-1-1.56-1.47l-1-.85c-.56-.46-1.12-.91-1.7-1.34-.33-.25-.64-.5-1-.73-.67-.48-1.36-.93-2.07-1.37-.25-.16-.49-.33-.75-.48-1-.57-2-1.11-3-1.61l-.68-.3c-.8-.37-1.61-.73-2.44-1.05-.38-.15-.76-.28-1.13-.41-.71-.25-1.42-.49-2.14-.7l-.55-.16c-1.15-.32-2.31-.59-3.48-.82l-.68-.13c-.78-.13-1.58-.23-2.38-.32l-1.13-.14a42.3 42.3 0 0 0-3.58-.16 41.49 41.49 0 0 0-36.64 22A8 8 0 0 1 77 555.27a18.89 18.89 0 0 0-18.64-.58 7.94 7.94 0 0 1-9.4-1.43 26.3 26.3 0 0 0-42.76 6.87 8 8 0 0 0 7.25 11.32H219.6c4.2 0 5.75-2.25 5.75-4.11z" fill="#fff"/><path d="M273.66 583.92a8 8 0 0 1-16.07 0m39.72 0a8 8 0 0 1-16.07 0m39.76 0a8 8 0 0 1-16.07 0m39.68 0a8 8 0 0 1-16.07 0m39.72 0a8 8 0 0 1-16.07 0m39.72 0a8 8 0 0 1-16.07 0m39.72 0a8 8 0 0 1-16.07 0m39.72 0a8 8 0 0 1-16.07 0m39.71 0a8 8 0 0 1-16.06 0m39.71 0a8 8 0 0 1-16.06 0m39.71 0a8 8 0 0 1-16.06 0m39.71 0a8 8 0 0 1-16.06 0m39.71 0a8 8 0 0 1-16.06 0m39.71 0a8 8 0 0 1-16.07 0m39.72 0a8 8 0 0 1-16.07 0m39.72 0a8 8 0 0 1-16.07 0m-350.72 16.41a8 8 0 1 1-16.06 0m39.71 0a8 8 0 1 1-16.06 0m39.71 0a8 8 0 1 1-16.06 0m39.71 0a8 8 0 1 1-16.06 0m39.71 0a8 8 0 1 1-16.07 0m39.72 0a8 8 0 1 1-16.07 0m39.72 0a8 8 0 1 1-16.07 0m39.72 0a8 8 0 1 1-16.07 0m39.72 0a8 8 0 1 1-16.07 0m39.72 0a8 8 0 1 1-16.07 0m39.72 0a8 8 0 1 1-16.07 0m39.71 0a8 8 0 1 1-16.06 0m39.71 0a8 8 0 1 1-16.06 0m39.71 0a8 8 0 1 1-16.06 0m39.71 0a8 8 0 1 1-16.06 0m39.71 0a8 8 0 1 1-16.06 0m39.71 0a8 8 0 1 1-16.07 0" style="mix-blend-mode:multiply" opacity=".55" fill="#0fa049"/></g></svg>