<svg xmlns="http://www.w3.org/2000/svg" xmlns:xlink="http://www.w3.org/1999/xlink" width="781.7" height="726.66" viewBox="0 0 781.7 726.66"><defs><linearGradient id="Fading_Sky" x1="-2271.85" y1="670.18" x2="-1552.77" y2="670.18" gradientTransform="matrix(-1, 0, 0, 1, -1498.08, 0)" gradientUnits="userSpaceOnUse"><stop offset="0" stop-color="#2484c6"/><stop offset="1" stop-color="#2484c6" stop-opacity="0"/></linearGradient><linearGradient id="Fading_Sky-2" x1="229.63" y1="596.14" x2="652.43" y2="596.14" gradientTransform="matrix(1, 0, 0, 1, 0, 0)" xlink:href="#Fading_Sky"/><linearGradient id="linear-gradient" x1="311.52" y1="715.15" x2="566.73" y2="501" gradientUnits="userSpaceOnUse"><stop offset="0" stop-color="#007a48"/><stop offset="0.6" stop-color="#cbdb2a" stop-opacity="0"/></linearGradient></defs><title>Artboard 9</title><g style="isolation:isolate"><g id="ILLO_2" data-name="ILLO 2"><path d="M290.2,626.9c88.65-4.15,177.86-6.81,266.4.93,46.38,4,92.43,10.86,138.52,17.3a290.3,290.3,0,0,0,25.8-122.23C719.7,362,588.25,232.48,427.31,233.7S136.89,366.37,138.11,527.31A290.62,290.62,0,0,0,158.9,633.43C202.68,631.43,246.43,629,290.2,626.9Z" style="fill:#fde9f1"/><g style="opacity:0.26;mix-blend-mode:multiply"><path d="M290.2,626.9c88.65-4.15,177.86-6.81,266.4.93,46.38,4,92.43,10.86,138.52,17.3a290.3,290.3,0,0,0,25.8-122.23C719.7,362,588.25,232.48,427.31,233.7S136.89,366.37,138.11,527.31A290.62,290.62,0,0,0,158.9,633.43C202.68,631.43,246.43,629,290.2,626.9Z" style="fill:#fde9f1"/></g><line x1="572.65" y1="244.77" x2="572.65" y2="292.91" style="fill:#fff;stroke:#7c3990;stroke-miterlimit:10"/><line x1="578.42" y1="244.77" x2="578.42" y2="292.91" style="fill:#fff;stroke:#7c3990;stroke-miterlimit:10"/><polygon points="575.54 303.27 581.06 297.77 581.06 292.07 570.01 292.07 570.01 297.77 575.54 303.27" style="fill:#b87bb5;stroke:#7c3990;stroke-miterlimit:10"/><polyline points="575.54 292.07 570.01 292.07 570.01 297.77 575.54 303.27" style="fill:#e6cae2;stroke:#7c3990;stroke-miterlimit:10"/><polygon points="582.86 229.73 457.35 229.73 449.87 237.25 457.35 244.76 582.86 244.76 590.33 237.25 582.86 229.73" style="fill:#bd92c2;stroke:#7d3990;stroke-miterlimit:10"/><polygon points="582.93 229.73 590.41 237.25 582.93 244.76 581.07 240.39 584.19 237.25 581.07 234.11 582.93 229.73" style="fill:#975f99;stroke:#7e3a8f;stroke-linejoin:bevel"/><polygon points="457.35 229.73 449.87 237.25 457.35 244.76 459.2 240.39 456.08 237.25 459.21 234.11 457.35 229.73" style="fill:#f5ebf4;stroke:#7e3a8f;stroke-linejoin:bevel"/><line x1="459.2" y1="240.39" x2="457.35" y2="244.77" style="fill:none;stroke:#7d3990;stroke-miterlimit:10"/><line x1="449.87" y1="237.25" x2="456.09" y2="237.25" style="fill:none;stroke:#7d3990;stroke-miterlimit:10"/><line x1="459.21" y1="234.11" x2="457.35" y2="229.73" style="fill:none;stroke:#7d3990;stroke-miterlimit:10"/><line x1="581" y1="240.39" x2="582.86" y2="244.77" style="fill:none;stroke:#7d3990;stroke-miterlimit:10"/><line x1="584.12" y1="237.25" x2="590.33" y2="237.25" style="fill:none;stroke:#7d3990;stroke-miterlimit:10"/><line x1="581" y1="234.11" x2="582.86" y2="229.73" style="fill:none;stroke:#7d3990;stroke-miterlimit:10"/><polygon points="581 234.11 526.35 234.11 524.83 234.11 459.21 234.11 456.08 237.25 459.2 240.39 524.83 240.39 526.35 240.39 581 240.39 584.12 237.25 581 234.11" style="fill:#e6cbe2;stroke:#7d3990;stroke-miterlimit:10"/><polygon points="439.04 76.95 413.7 102.16 413.7 111.1 413.7 145.96 413.7 150.25 439.04 175.46 464.39 150.25 464.39 145.96 464.39 111.1 464.39 102.16 439.04 76.95" style="fill:#da1c5c;stroke:#7c3990;stroke-miterlimit:10"/><polyline points="439.04 76.95 413.7 102.16 413.7 111.1 413.7 145.96 413.7 150.25 439.04 175.46" style="fill:#f6ebf4;stroke:#7d3990;stroke-miterlimit:10"/><line x1="449.62" y1="143.98" x2="464.39" y2="150.25" style="fill:none;stroke:#7d3990;stroke-miterlimit:10"/><line x1="439.04" y1="154.5" x2="439.04" y2="175.46" style="fill:none;stroke:#7d3990;stroke-miterlimit:10"/><line x1="428.46" y1="143.98" x2="413.7" y2="150.25" style="fill:none;stroke:#7d3990;stroke-miterlimit:10"/><line x1="449.62" y1="108.43" x2="464.39" y2="102.16" style="fill:none;stroke:#7d3990;stroke-miterlimit:10"/><line x1="439.04" y1="97.92" x2="439.04" y2="76.95" style="fill:none;stroke:#7d3990;stroke-miterlimit:10"/><line x1="428.46" y1="108.44" x2="413.7" y2="102.16" style="fill:none;stroke:#7d3990;stroke-miterlimit:10"/><polygon points="439.05 97.92 428.46 108.44 428.46 111.1 428.46 142.26 428.46 143.98 439.05 154.5 449.62 143.98 449.62 142.26 449.62 111.1 449.62 108.43 439.05 97.92" style="fill:#e6cbe2;stroke:#7d3990;stroke-miterlimit:10"/><rect x="376.33" y="74.1" width="125.43" height="99.7" transform="translate(315.09 563) rotate(-90)" style="fill:#d1ecf2;opacity:0.4"/><polygon points="466.83 66.68 389.19 140.7 389.19 118.81 443.81 66.65 466.83 66.68" style="fill:#fff;opacity:0.65"/><polygon points="483.26 66.67 389.19 155.75 389.19 149.88 477.16 66.64 483.26 66.67" style="fill:#fff;opacity:0.65"/><line x1="389.19" y1="186.37" x2="389.19" y2="66.64" style="fill:none;stroke:#7d3990;stroke-miterlimit:10"/><line x1="488.9" y1="186.67" x2="488.89" y2="66.64" style="fill:none;stroke:#7d3990;stroke-miterlimit:10"/><rect x="444.23" y="416.15" width="2.1" height="75.47" style="fill:#fff;stroke:#7c3990;stroke-miterlimit:10"/><line x1="446.33" y1="453.31" x2="466.14" y2="465.27" style="fill:none;stroke:#7c3990;stroke-miterlimit:10"/><line x1="466.14" y1="453.31" x2="446.33" y2="465.27" style="fill:none;stroke:#7c3990;stroke-miterlimit:10"/><rect x="466.14" y="416.15" width="2.35" height="75.47" style="fill:#fff;stroke:#7c3990;stroke-miterlimit:10"/><line x1="446.33" y1="453.37" x2="466.14" y2="453.37" style="fill:none;stroke:#7d3990;stroke-miterlimit:10"/><line x1="446.33" y1="465.14" x2="466.14" y2="477.1" style="fill:none;stroke:#7c3990;stroke-miterlimit:10"/><line x1="466.14" y1="465.14" x2="446.33" y2="477.1" style="fill:none;stroke:#7c3990;stroke-miterlimit:10"/><line x1="446.33" y1="465.21" x2="466.14" y2="465.21" style="fill:none;stroke:#7d3990;stroke-miterlimit:10"/><line x1="446.33" y1="429.52" x2="466.14" y2="441.48" style="fill:none;stroke:#7c3990;stroke-miterlimit:10"/><line x1="466.14" y1="429.52" x2="446.33" y2="441.48" style="fill:none;stroke:#7c3990;stroke-miterlimit:10"/><line x1="446.33" y1="429.58" x2="466.14" y2="429.58" style="fill:none;stroke:#7d3990;stroke-miterlimit:10"/><line x1="446.33" y1="417.55" x2="466.14" y2="429.52" style="fill:none;stroke:#7c3990;stroke-miterlimit:10"/><line x1="466.14" y1="417.55" x2="446.33" y2="429.52" style="fill:none;stroke:#7c3990;stroke-miterlimit:10"/><line x1="446.33" y1="417.62" x2="466.14" y2="417.62" style="fill:none;stroke:#7d3990;stroke-miterlimit:10"/><line x1="446.33" y1="441.35" x2="466.14" y2="453.31" style="fill:none;stroke:#7c3990;stroke-miterlimit:10"/><line x1="466.14" y1="441.35" x2="446.33" y2="453.31" style="fill:none;stroke:#7c3990;stroke-miterlimit:10"/><line x1="446.33" y1="441.41" x2="466.14" y2="441.41" style="fill:none;stroke:#7d3990;stroke-miterlimit:10"/><line x1="446.33" y1="476.97" x2="466.14" y2="488.94" style="fill:none;stroke:#7c3990;stroke-miterlimit:10"/><line x1="466.14" y1="476.97" x2="446.33" y2="488.94" style="fill:none;stroke:#7c3990;stroke-miterlimit:10"/><line x1="446.33" y1="477.04" x2="466.14" y2="477.04" style="fill:none;stroke:#7d3990;stroke-miterlimit:10"/><rect x="480.28" y="416.15" width="2.1" height="75.47" style="fill:#fff;stroke:#7c3990;stroke-miterlimit:10"/><line x1="482.38" y1="453.31" x2="502.19" y2="465.27" style="fill:none;stroke:#7c3990;stroke-miterlimit:10"/><line x1="502.19" y1="453.31" x2="482.38" y2="465.27" style="fill:none;stroke:#7c3990;stroke-miterlimit:10"/><rect x="502.19" y="416.15" width="2.35" height="75.47" style="fill:#fff;stroke:#7c3990;stroke-miterlimit:10"/><line x1="482.38" y1="453.37" x2="502.19" y2="453.37" style="fill:none;stroke:#7d3990;stroke-miterlimit:10"/><line x1="482.38" y1="465.14" x2="502.19" y2="477.1" style="fill:none;stroke:#7c3990;stroke-miterlimit:10"/><line x1="502.19" y1="465.14" x2="482.38" y2="477.1" style="fill:none;stroke:#7c3990;stroke-miterlimit:10"/><line x1="482.38" y1="465.21" x2="502.19" y2="465.21" style="fill:none;stroke:#7d3990;stroke-miterlimit:10"/><line x1="482.38" y1="429.52" x2="502.19" y2="441.48" style="fill:none;stroke:#7c3990;stroke-miterlimit:10"/><line x1="502.19" y1="429.52" x2="482.38" y2="441.48" style="fill:none;stroke:#7c3990;stroke-miterlimit:10"/><line x1="482.38" y1="429.58" x2="502.19" y2="429.58" style="fill:none;stroke:#7d3990;stroke-miterlimit:10"/><line x1="482.38" y1="417.55" x2="502.19" y2="429.52" style="fill:none;stroke:#7c3990;stroke-miterlimit:10"/><line x1="502.19" y1="417.55" x2="482.38" y2="429.52" style="fill:none;stroke:#7c3990;stroke-miterlimit:10"/><line x1="482.38" y1="417.62" x2="502.19" y2="417.62" style="fill:none;stroke:#7d3990;stroke-miterlimit:10"/><line x1="482.38" y1="441.35" x2="502.19" y2="453.31" style="fill:none;stroke:#7c3990;stroke-miterlimit:10"/><line x1="502.19" y1="441.35" x2="482.38" y2="453.31" style="fill:none;stroke:#7c3990;stroke-miterlimit:10"/><line x1="482.38" y1="441.41" x2="502.19" y2="441.41" style="fill:none;stroke:#7d3990;stroke-miterlimit:10"/><line x1="482.38" y1="476.97" x2="502.19" y2="488.94" style="fill:none;stroke:#7c3990;stroke-miterlimit:10"/><line x1="502.19" y1="476.97" x2="482.38" y2="488.94" style="fill:none;stroke:#7c3990;stroke-miterlimit:10"/><line x1="482.38" y1="477.04" x2="502.19" y2="477.04" style="fill:none;stroke:#7d3990;stroke-miterlimit:10"/><rect x="468.1" y="243.56" width="2.49" height="89.49" style="fill:#fff;stroke:#7c3990;stroke-miterlimit:10"/><line x1="470.58" y1="287.63" x2="494.08" y2="301.81" style="fill:none;stroke:#7c3990;stroke-miterlimit:10"/><line x1="494.08" y1="287.63" x2="470.58" y2="301.81" style="fill:none;stroke:#7c3990;stroke-miterlimit:10"/><rect x="494.08" y="243.56" width="2.79" height="89.49" style="fill:#fff;stroke:#7c3990;stroke-miterlimit:10"/><line x1="470.58" y1="287.7" x2="494.08" y2="287.7" style="fill:none;stroke:#7d3990;stroke-miterlimit:10"/><line x1="470.58" y1="301.66" x2="494.08" y2="315.84" style="fill:none;stroke:#7c3990;stroke-miterlimit:10"/><line x1="494.08" y1="301.66" x2="470.58" y2="315.84" style="fill:none;stroke:#7c3990;stroke-miterlimit:10"/><line x1="470.58" y1="301.73" x2="494.08" y2="301.73" style="fill:none;stroke:#7d3990;stroke-miterlimit:10"/><line x1="470.58" y1="259.41" x2="494.08" y2="273.6" style="fill:none;stroke:#7c3990;stroke-miterlimit:10"/><line x1="494.08" y1="259.41" x2="470.58" y2="273.6" style="fill:none;stroke:#7c3990;stroke-miterlimit:10"/><line x1="470.58" y1="259.49" x2="494.08" y2="259.49" style="fill:none;stroke:#7d3990;stroke-miterlimit:10"/><line x1="470.58" y1="245.22" x2="494.08" y2="259.41" style="fill:none;stroke:#7c3990;stroke-miterlimit:10"/><line x1="494.08" y1="245.22" x2="470.58" y2="259.41" style="fill:none;stroke:#7c3990;stroke-miterlimit:10"/><line x1="470.58" y1="245.3" x2="494.08" y2="245.3" style="fill:none;stroke:#7d3990;stroke-miterlimit:10"/><line x1="470.58" y1="273.44" x2="494.08" y2="287.63" style="fill:none;stroke:#7c3990;stroke-miterlimit:10"/><line x1="494.08" y1="273.44" x2="470.58" y2="287.63" style="fill:none;stroke:#7c3990;stroke-miterlimit:10"/><line x1="470.58" y1="273.52" x2="494.08" y2="273.52" style="fill:none;stroke:#7d3990;stroke-miterlimit:10"/><line x1="470.58" y1="315.69" x2="494.08" y2="329.87" style="fill:none;stroke:#7c3990;stroke-miterlimit:10"/><line x1="494.08" y1="315.69" x2="470.58" y2="329.87" style="fill:none;stroke:#7c3990;stroke-miterlimit:10"/><line x1="470.58" y1="315.76" x2="494.08" y2="315.76" style="fill:none;stroke:#7d3990;stroke-miterlimit:10"/><polyline points="486.47 57.29 439.04 6.96 391.61 57.29" style="fill:#da1c5c;stroke:#7c3990;stroke-miterlimit:10"/><polyline points="439.04 57.29 439.04 6.96 391.61 57.29" style="fill:#f6ebf4"/><line x1="439.04" y1="6.96" x2="391.61" y2="57.29" style="fill:#f6ebf4;stroke:#7d3990;stroke-miterlimit:10"/><line x1="439.05" y1="56.08" x2="439.04" y2="6.96" style="fill:none;stroke:#7d3990;stroke-miterlimit:10"/><rect x="384.97" y="186.97" width="108.14" height="14.75" style="fill:#ee2a7b;stroke:#7d3990;stroke-miterlimit:10"/><rect x="383.99" y="193.42" width="1.84" height="1.84" transform="translate(-24.68 329.09) rotate(-45)" style="fill:#7d3990;stroke:#7d3990;stroke-miterlimit:10"/><rect x="394.81" y="193.42" width="1.84" height="1.84" transform="translate(-21.51 336.75) rotate(-45)" style="fill:#7d3990;stroke:#7d3990;stroke-miterlimit:10"/><rect x="405.64" y="193.42" width="1.84" height="1.84" transform="translate(-18.34 344.4) rotate(-45)" style="fill:#7d3990;stroke:#7d3990;stroke-miterlimit:10"/><rect x="416.47" y="193.42" width="1.84" height="1.84" transform="translate(-15.17 352.06) rotate(-45)" style="fill:#7d3990;stroke:#7d3990;stroke-miterlimit:10"/><rect x="427.3" y="193.42" width="1.84" height="1.84" transform="translate(-12 359.71) rotate(-45)" style="fill:#7d3990;stroke:#7d3990;stroke-miterlimit:10"/><rect x="438.12" y="193.42" width="1.84" height="1.84" transform="translate(-8.83 367.37) rotate(-45)" style="fill:#7d3990;stroke:#7d3990;stroke-miterlimit:10"/><rect x="448.95" y="193.42" width="1.84" height="1.84" transform="translate(-5.66 375.03) rotate(-45)" style="fill:#7d3990;stroke:#7d3990;stroke-miterlimit:10"/><rect x="459.78" y="193.42" width="1.84" height="1.84" transform="translate(-2.49 382.68) rotate(-45)" style="fill:#7d3990;stroke:#7d3990;stroke-miterlimit:10"/><rect x="470.6" y="193.42" width="1.84" height="1.84" transform="translate(0.68 390.34) rotate(-45)" style="fill:#7d3990;stroke:#7d3990;stroke-miterlimit:10"/><rect x="481.43" y="193.42" width="1.84" height="1.84" transform="translate(3.86 397.99) rotate(-45)" style="fill:#7d3990;stroke:#7d3990;stroke-miterlimit:10"/><rect x="492.26" y="193.42" width="1.84" height="1.84" transform="translate(7.03 405.65) rotate(-45)" style="fill:#7d3990;stroke:#7d3990;stroke-miterlimit:10"/><rect x="384.97" y="51.89" width="108.14" height="14.75" style="fill:#ee2a7b;stroke:#7d3990;stroke-miterlimit:10"/><rect x="383.99" y="58.35" width="1.84" height="1.84" transform="translate(70.83 289.53) rotate(-45)" style="fill:#7d3990;stroke:#7d3990;stroke-miterlimit:10"/><rect x="394.81" y="58.35" width="1.84" height="1.84" transform="translate(74 297.18) rotate(-45)" style="fill:#7d3990;stroke:#7d3990;stroke-miterlimit:10"/><rect x="405.64" y="58.35" width="1.84" height="1.84" transform="translate(77.17 304.84) rotate(-45)" style="fill:#7d3990;stroke:#7d3990;stroke-miterlimit:10"/><rect x="416.47" y="58.35" width="1.84" height="1.84" transform="translate(80.34 312.5) rotate(-45)" style="fill:#7d3990;stroke:#7d3990;stroke-miterlimit:10"/><rect x="427.3" y="58.35" width="1.84" height="1.84" transform="translate(83.51 320.15) rotate(-45)" style="fill:#7d3990;stroke:#7d3990;stroke-miterlimit:10"/><rect x="438.12" y="58.35" width="1.84" height="1.84" transform="translate(86.69 327.81) rotate(-45)" style="fill:#7d3990;stroke:#7d3990;stroke-miterlimit:10"/><rect x="448.95" y="58.35" width="1.84" height="1.84" transform="translate(89.86 335.46) rotate(-45)" style="fill:#7d3990;stroke:#7d3990;stroke-miterlimit:10"/><rect x="459.78" y="58.35" width="1.84" height="1.84" transform="translate(93.03 343.12) rotate(-45)" style="fill:#7d3990;stroke:#7d3990;stroke-miterlimit:10"/><rect x="470.6" y="58.35" width="1.84" height="1.84" transform="translate(96.2 350.77) rotate(-45)" style="fill:#7d3990;stroke:#7d3990;stroke-miterlimit:10"/><rect x="481.43" y="58.35" width="1.84" height="1.84" transform="translate(99.37 358.43) rotate(-45)" style="fill:#7d3990;stroke:#7d3990;stroke-miterlimit:10"/><rect x="492.26" y="58.35" width="1.84" height="1.84" transform="translate(102.54 366.09) rotate(-45)" style="fill:#7d3990;stroke:#7d3990;stroke-miterlimit:10"/><rect x="363.51" y="345.51" width="73.96" height="71.96" style="fill:#c51164;stroke:#7c3990;stroke-miterlimit:10"/><polygon points="369.34 411.8 363.59 417.48 363.59 345.43 437.47 345.43 431.63 351.19 369.34 351.19 369.34 411.8" style="fill:#f6ebf4"/><rect x="369.34" y="351.19" width="62.29" height="60.61" style="fill:#da1c5c;stroke:#7c3990;stroke-miterlimit:10"/><line x1="369.34" y1="351.19" x2="363.59" y2="345.43" style="fill:#da1c5c;stroke:#7c3990;stroke-miterlimit:10"/><line x1="431.63" y1="351.19" x2="437.39" y2="345.43" style="fill:#da1c5c;stroke:#7c3990;stroke-miterlimit:10"/><line x1="431.63" y1="411.8" x2="437.39" y2="417.56" style="fill:#da1c5c;stroke:#7c3990;stroke-miterlimit:10"/><line x1="369.34" y1="411.8" x2="363.59" y2="417.56" style="fill:#da1c5c;stroke:#7c3990;stroke-miterlimit:10"/><rect x="363.51" y="345.51" width="73.96" height="71.96" style="fill:none;stroke:#7c3990;stroke-miterlimit:10"/><rect x="437.47" y="345.51" width="73.96" height="71.96" style="fill:#c51164;stroke:#7c3990;stroke-miterlimit:10"/><polygon points="443.31 411.8 437.55 417.48 437.55 345.43 511.43 345.43 505.6 351.19 443.31 351.19 443.31 411.8" style="fill:#f6ebf4"/><rect x="443.31" y="351.19" width="62.29" height="60.61" style="fill:#da1c5c;stroke:#7c3990;stroke-miterlimit:10"/><line x1="443.31" y1="351.19" x2="437.55" y2="345.43" style="fill:#da1c5c;stroke:#7c3990;stroke-miterlimit:10"/><line x1="505.6" y1="351.19" x2="511.35" y2="345.43" style="fill:#da1c5c;stroke:#7c3990;stroke-miterlimit:10"/><line x1="505.6" y1="411.8" x2="511.35" y2="417.56" style="fill:#da1c5c;stroke:#7c3990;stroke-miterlimit:10"/><line x1="443.31" y1="411.8" x2="437.55" y2="417.56" style="fill:#da1c5c;stroke:#7c3990;stroke-miterlimit:10"/><rect x="437.47" y="345.51" width="73.96" height="71.96" style="fill:none;stroke:#7c3990;stroke-miterlimit:10"/><rect x="437.47" y="273.76" width="73.96" height="71.96" style="fill:#da1c5c;stroke:#7c3990;stroke-miterlimit:10"/><polygon points="443.31 340.05 437.55 345.72 437.55 273.68 511.43 273.68 505.6 279.44 443.31 279.44 443.31 340.05" style="fill:#f6ebf4"/><rect x="443.31" y="279.44" width="62.29" height="60.61" style="fill:#da1c5c;stroke:#7c3990;stroke-miterlimit:10"/><line x1="443.31" y1="279.44" x2="437.55" y2="273.68" style="fill:#da1c5c;stroke:#7c3990;stroke-miterlimit:10"/><line x1="505.6" y1="279.44" x2="511.35" y2="273.68" style="fill:#da1c5c;stroke:#7c3990;stroke-miterlimit:10"/><line x1="505.6" y1="340.04" x2="511.35" y2="345.8" style="fill:#da1c5c;stroke:#7c3990;stroke-miterlimit:10"/><line x1="443.31" y1="340.04" x2="437.55" y2="345.8" style="fill:#da1c5c;stroke:#7c3990;stroke-miterlimit:10"/><rect x="437.47" y="273.76" width="73.96" height="71.96" style="fill:none;stroke:#7c3990;stroke-miterlimit:10"/><rect x="363.51" y="273.76" width="73.96" height="71.96" style="fill:#bd92c2;stroke:#7d3990;stroke-miterlimit:10"/><polygon points="369.34 340.05 363.59 345.72 363.59 273.68 437.47 273.68 431.63 279.44 369.34 279.44 369.34 340.05" style="fill:#f6ebf4"/><rect x="369.34" y="279.44" width="62.29" height="60.61" style="fill:#e6cbe2;stroke:#7d3990;stroke-miterlimit:10"/><line x1="369.34" y1="279.44" x2="363.59" y2="273.68" style="fill:#da1c5c;stroke:#7c3990;stroke-miterlimit:10"/><line x1="431.63" y1="279.44" x2="437.39" y2="273.68" style="fill:#da1c5c;stroke:#7c3990;stroke-miterlimit:10"/><line x1="431.63" y1="340.04" x2="437.39" y2="345.8" style="fill:#da1c5c;stroke:#7c3990;stroke-miterlimit:10"/><line x1="369.34" y1="340.04" x2="363.59" y2="345.8" style="fill:#da1c5c;stroke:#7c3990;stroke-miterlimit:10"/><rect x="363.51" y="273.76" width="73.96" height="71.96" style="fill:none;stroke:#7c3990;stroke-miterlimit:10"/><rect x="363.51" y="201.72" width="73.96" height="71.96" style="fill:#bd92c2;stroke:#7d3990;stroke-miterlimit:10"/><polygon points="369.34 268 363.59 273.68 363.59 201.64 437.47 201.64 431.63 207.39 369.34 207.39 369.34 268" style="fill:#f6ebf4"/><rect x="369.34" y="207.39" width="62.29" height="60.61" style="fill:#e6cbe2;stroke:#7d3990;stroke-miterlimit:10"/><line x1="369.34" y1="207.39" x2="363.59" y2="201.64" style="fill:#da1c5c;stroke:#7c3990;stroke-miterlimit:10"/><line x1="431.63" y1="207.39" x2="437.39" y2="201.64" style="fill:#da1c5c;stroke:#7c3990;stroke-miterlimit:10"/><line x1="431.63" y1="268" x2="437.39" y2="273.76" style="fill:#da1c5c;stroke:#7c3990;stroke-miterlimit:10"/><line x1="369.34" y1="268" x2="363.59" y2="273.76" style="fill:#da1c5c;stroke:#7c3990;stroke-miterlimit:10"/><rect x="363.51" y="201.72" width="73.96" height="71.96" style="fill:none;stroke:#7c3990;stroke-miterlimit:10"/><rect x="437.51" y="489.6" width="73.96" height="71.96" style="fill:#bd92c2;stroke:#7d3990;stroke-miterlimit:10"/><polygon points="443.35 555.88 437.59 561.56 437.59 489.52 511.47 489.52 505.64 495.28 443.35 495.28 443.35 555.88" style="fill:#f6ebf4"/><rect x="443.35" y="495.28" width="62.29" height="60.61" style="fill:#e6cbe2;stroke:#7d3990;stroke-miterlimit:10"/><line x1="443.35" y1="495.28" x2="437.59" y2="489.52" style="fill:#da1c5c;stroke:#7c3990;stroke-miterlimit:10"/><line x1="505.64" y1="495.28" x2="511.39" y2="489.52" style="fill:#da1c5c;stroke:#7c3990;stroke-miterlimit:10"/><line x1="505.64" y1="555.89" x2="511.39" y2="561.64" style="fill:#da1c5c;stroke:#7c3990;stroke-miterlimit:10"/><line x1="443.35" y1="555.89" x2="437.59" y2="561.64" style="fill:#da1c5c;stroke:#7c3990;stroke-miterlimit:10"/><rect x="437.51" y="489.6" width="73.96" height="71.96" style="fill:none;stroke:#7c3990;stroke-miterlimit:10"/><rect x="363.51" y="489.6" width="73.96" height="71.96" style="fill:#bd92c2;stroke:#7d3990;stroke-miterlimit:10"/><polygon points="369.34 555.88 363.59 561.56 363.59 489.52 437.47 489.52 431.63 495.28 369.34 495.28 369.34 555.88" style="fill:#f6ebf4"/><rect x="369.34" y="495.28" width="62.29" height="60.61" style="fill:#e6cbe2;stroke:#7d3990;stroke-miterlimit:10"/><line x1="369.34" y1="495.28" x2="363.59" y2="489.52" style="fill:#da1c5c;stroke:#7c3990;stroke-miterlimit:10"/><line x1="431.63" y1="495.28" x2="437.39" y2="489.52" style="fill:#da1c5c;stroke:#7c3990;stroke-miterlimit:10"/><line x1="431.63" y1="555.89" x2="437.39" y2="561.64" style="fill:#da1c5c;stroke:#7c3990;stroke-miterlimit:10"/><line x1="369.34" y1="555.89" x2="363.59" y2="561.64" style="fill:#da1c5c;stroke:#7c3990;stroke-miterlimit:10"/><rect x="363.51" y="489.6" width="73.96" height="71.96" style="fill:none;stroke:#7c3990;stroke-miterlimit:10"/><polygon points="485.68 216.45 468.1 216.45 468.1 245.22 496.87 245.22 496.87 231.68 485.68 216.45" style="fill:#da1c5c;stroke:#7c3990;stroke-miterlimit:10"/><polygon points="491.59 231.33 471.98 231.33 471.98 220.03 483.63 220.03 491.59 231.33" style="fill:#d1ecf2;stroke:#7c3990;stroke-miterlimit:10"/><line x1="319.81" y1="126.8" x2="378.04" y2="126.8" style="fill:none;stroke:#7c3990;stroke-miterlimit:10"/><line x1="335.13" y1="150.48" x2="373.23" y2="141.78" style="fill:none;stroke:#7c3990;stroke-miterlimit:10"/><line x1="337.12" y1="176.21" x2="376.44" y2="154.91" style="fill:none;stroke:#7c3990;stroke-miterlimit:10"/><line x1="335.13" y1="103.13" x2="373.23" y2="111.82" style="fill:none;stroke:#7c3990;stroke-miterlimit:10"/><line x1="337.12" y1="77.4" x2="376.44" y2="98.7" style="fill:none;stroke:#7c3990;stroke-miterlimit:10"/><line x1="558.27" y1="126.8" x2="500.04" y2="126.8" style="fill:none;stroke:#7c3990;stroke-miterlimit:10"/><line x1="542.95" y1="103.13" x2="504.86" y2="111.82" style="fill:none;stroke:#7c3990;stroke-miterlimit:10"/><line x1="540.96" y1="77.4" x2="501.64" y2="98.7" style="fill:none;stroke:#7c3990;stroke-miterlimit:10"/><line x1="542.95" y1="150.48" x2="504.86" y2="141.78" style="fill:none;stroke:#7c3990;stroke-miterlimit:10"/><line x1="540.96" y1="176.21" x2="501.64" y2="154.91" style="fill:none;stroke:#7c3990;stroke-miterlimit:10"/><circle cx="377.57" cy="404.24" r="2.39" style="fill:#c51164;stroke:#7c3990;stroke-miterlimit:10"/><circle cx="423.24" cy="358.57" r="2.39" style="fill:#c51164;stroke:#7c3990;stroke-miterlimit:10"/><circle cx="423.24" cy="404.24" r="2.39" style="fill:#c51164;stroke:#7c3990;stroke-miterlimit:10"/><circle cx="377.57" cy="358.57" r="2.39" style="fill:#c51164;stroke:#7c3990;stroke-miterlimit:10"/><circle cx="451.65" cy="404.24" r="2.39" style="fill:#c51164;stroke:#7c3990;stroke-miterlimit:10"/><circle cx="497.32" cy="358.57" r="2.39" style="fill:#c51164;stroke:#7c3990;stroke-miterlimit:10"/><circle cx="497.32" cy="404.24" r="2.39" style="fill:#c51164;stroke:#7c3990;stroke-miterlimit:10"/><circle cx="451.65" cy="358.57" r="2.39" style="fill:#c51164;stroke:#7c3990;stroke-miterlimit:10"/><circle cx="451.65" cy="332.08" r="2.39" style="fill:#c51164;stroke:#7c3990;stroke-miterlimit:10"/><circle cx="497.32" cy="286.4" r="2.39" style="fill:#c51164;stroke:#7c3990;stroke-miterlimit:10"/><circle cx="497.32" cy="332.08" r="2.39" style="fill:#c51164;stroke:#7c3990;stroke-miterlimit:10"/><circle cx="451.65" cy="286.4" r="2.39" style="fill:#c51164;stroke:#7c3990;stroke-miterlimit:10"/><circle cx="378.53" cy="332.08" r="2.39" style="fill:#bd92c2;stroke:#7d3990;stroke-miterlimit:10"/><circle cx="424.2" cy="286.4" r="2.39" style="fill:#bd92c2;stroke:#7d3990;stroke-miterlimit:10"/><circle cx="424.2" cy="332.08" r="2.39" style="fill:#bd92c2;stroke:#7d3990;stroke-miterlimit:10"/><circle cx="378.53" cy="286.4" r="2.39" style="fill:#bd92c2;stroke:#7d3990;stroke-miterlimit:10"/><circle cx="378.53" cy="260.49" r="2.39" style="fill:#bd92c2;stroke:#7d3990;stroke-miterlimit:10"/><circle cx="424.2" cy="214.82" r="2.39" style="fill:#bd92c2;stroke:#7d3990;stroke-miterlimit:10"/><circle cx="424.2" cy="260.49" r="2.39" style="fill:#bd92c2;stroke:#7d3990;stroke-miterlimit:10"/><circle cx="378.53" cy="214.82" r="2.39" style="fill:#bd92c2;stroke:#7d3990;stroke-miterlimit:10"/><circle cx="377.56" cy="548.19" r="2.39" style="fill:#bd92c2;stroke:#7d3990;stroke-miterlimit:10"/><circle cx="423.24" cy="502.52" r="2.39" style="fill:#bd92c2;stroke:#7d3990;stroke-miterlimit:10"/><circle cx="423.24" cy="548.19" r="2.39" style="fill:#bd92c2;stroke:#7d3990;stroke-miterlimit:10"/><circle cx="377.56" cy="502.52" r="2.39" style="fill:#bd92c2;stroke:#7d3990;stroke-miterlimit:10"/><circle cx="451.88" cy="548.19" r="2.39" style="fill:#bd92c2;stroke:#7d3990;stroke-miterlimit:10"/><circle cx="497.55" cy="502.52" r="2.39" style="fill:#bd92c2;stroke:#7d3990;stroke-miterlimit:10"/><circle cx="497.55" cy="548.19" r="2.39" style="fill:#bd92c2;stroke:#7d3990;stroke-miterlimit:10"/><circle cx="451.88" cy="502.52" r="2.39" style="fill:#bd92c2;stroke:#7d3990;stroke-miterlimit:10"/><line x1="437.47" y1="228.92" x2="460.7" y2="201.72" style="fill:#da1c5c;stroke:#7c3990;stroke-miterlimit:10"/><line x1="437.47" y1="235.15" x2="466.01" y2="201.72" style="fill:#da1c5c;stroke:#7c3990;stroke-miterlimit:10"/><line x1="446.64" y1="218.17" x2="446.64" y2="201.72" style="fill:#da1c5c;stroke:#7c3990;stroke-miterlimit:10"/><line x1="472.82" y1="235.15" x2="477.92" y2="235.15" style="fill:#e6cbe2;stroke:#7d3990;stroke-miterlimit:10"/><path d="M773.78,617.55s-60,166.91-329.84,80.38C191.66,617,224,795,54.69,617.55Z" style="fill:#dff2f4"/><g style="mix-blend-mode:hard-light"><path d="M773.78,617.55s-60,166.91-329.84,80.38C191.66,617,222.68,796.21,54.69,617.55Z" style="fill:url(#Fading_Sky)"/></g><polygon points="628.13 574.18 254.26 574.18 261.04 562.07 621.93 562.07 628.13 574.18" style="fill:#fff"/><polygon points="628.13 574.18 254.26 574.18 229.63 617.56 652.43 618.11 628.13 574.18" style="fill:#68c180"/><polygon points="628.13 574.18 254.26 574.18 229.63 617.56 652.43 618.11 628.13 574.18" style="mix-blend-mode:overlay;fill:url(#Fading_Sky-2)"/><polygon points="628.13 574.18 254.26 574.18 229.63 617.56 652.43 618.11 628.13 574.18" style="mix-blend-mode:overlay;fill:url(#linear-gradient)"/><polygon points="628.13 574.18 254.26 574.18 229.63 617.56 652.43 618.11 628.13 574.18" style="fill:#39b54a;mix-blend-mode:multiply"/><polygon points="628.13 574.18 254.26 574.18 229.63 617.56 652.43 618.11 628.13 574.18" style="fill:#0fa04a;opacity:0.25;mix-blend-mode:multiply"/><path d="M617.5,149.24a53.94,53.94,0,0,1,49.78,33.17,5.65,5.65,0,0,0,8.9,2.23,24.59,24.59,0,0,1,39.64,11.06,5.71,5.71,0,0,1-5.43,7.47H569.61a5.71,5.71,0,0,1-5.67-6.37A54,54,0,0,1,617.5,149.24Z" style="fill:#dff2f4"/><path d="M115.4,383.43a12.31,12.31,0,0,0-11.49,7.89,3.27,3.27,0,0,0,3.07,4.42h16.85a3.27,3.27,0,0,0,3.07-4.42A12.32,12.32,0,0,0,115.4,383.43Z" style="fill:#dff2f4"/><path d="M757.81,466.8a12.3,12.3,0,0,0-11.49,7.89,3.27,3.27,0,0,0,3.06,4.42h16.86a3.27,3.27,0,0,0,3.06-4.42A12.31,12.31,0,0,0,757.81,466.8Z" style="fill:#dff2f4"/><path d="M142.53,221.64A12.31,12.31,0,0,0,131,229.53,3.27,3.27,0,0,0,134.1,234H151a3.27,3.27,0,0,0,3.06-4.42A12.3,12.3,0,0,0,142.53,221.64Z" style="fill:#dff2f4"/><path d="M640,514.68a12.32,12.32,0,0,0-11.49,7.89,3.27,3.27,0,0,0,3.06,4.42h16.86a3.27,3.27,0,0,0,3.06-4.42A12.31,12.31,0,0,0,640,514.68Z" style="fill:#fff"/><path d="M599,504.91a22.08,22.08,0,0,0-21.06,15.43,5.09,5.09,0,0,0,4.83,6.65h32.46a5.09,5.09,0,0,0,4.84-6.65A22.1,22.1,0,0,0,599,504.91Z" style="fill:#fff"/><path d="M251.27,210.38a23.49,23.49,0,0,0-16.66,6.9,7.37,7.37,0,0,1-11.39-1.14,32.22,32.22,0,0,0-26.95-14.52c-29.7,0-42,32.33-30.12,32.33h99.54a7.35,7.35,0,0,0,6.7-10.48A23.58,23.58,0,0,0,251.27,210.38Z" style="fill:#dff2f4"/><path d="M225.35,567.34c0-.27-.08-.54-.13-.81-.08-.48-.14-.95-.24-1.42s-.25-1-.39-1.51-.23-.92-.37-1.36-.35-1-.53-1.45-.32-.88-.5-1.31-.44-.92-.67-1.37-.39-.84-.62-1.25-.52-.87-.79-1.3-.47-.79-.72-1.16-.61-.82-.92-1.23-.54-.73-.83-1.08-.68-.76-1-1.13-.6-.68-.92-1-.76-.69-1.14-1-.65-.61-1-.9-.83-.62-1.25-.93-.7-.54-1.07-.79-.9-.55-1.35-.82-.75-.47-1.14-.68-1-.47-1.44-.7-.78-.39-1.19-.56-1-.39-1.56-.57-.79-.31-1.2-.44c-.56-.17-1.14-.3-1.71-.44-.4-.09-.78-.21-1.18-.3-.64-.13-1.3-.2-2-.29-.34,0-.68-.12-1-.16-1-.1-2-.15-3.07-.15-.83,0-1.64,0-2.45.1l-.73.08c-.58.06-1.15.13-1.71.22l-.77.14c-.61.11-1.21.25-1.8.4l-.53.13c-.76.2-1.5.44-2.23.7l-.52.2c-.56.22-1.11.44-1.66.69l-.69.32c-.5.24-1,.5-1.47.76l-.61.34c-.67.39-1.32.79-1.95,1.22l0,0c-.62.43-1.21.88-1.79,1.35-.19.15-.36.3-.54.46q-.63.52-1.23,1.08l-.54.52c-.42.42-.83.86-1.23,1.3-.12.13-.24.25-.35.38-.5.58-1,1.17-1.43,1.78l-.32.46c-.35.47-.68,1-1,1.46l-.4.64c-.11.2-.24.39-.35.59a3.16,3.16,0,0,1-5.68-.4c-.14-.34-.3-.66-.44-1s-.34-.78-.52-1.17c-.32-.69-.66-1.36-1-2-.18-.34-.35-.68-.53-1-.48-.84-1-1.67-1.53-2.47-.09-.13-.16-.27-.25-.39-.63-.93-1.31-1.83-2-2.7-.21-.26-.44-.5-.65-.75-.51-.61-1-1.2-1.58-1.77-.28-.3-.57-.59-.87-.88-.51-.5-1-1-1.56-1.47l-1-.85c-.56-.46-1.12-.91-1.7-1.34-.33-.25-.64-.5-1-.73-.67-.48-1.36-.93-2.07-1.37-.25-.16-.49-.33-.75-.48-1-.57-2-1.11-3-1.61l-.68-.3c-.8-.37-1.61-.73-2.44-1.05-.38-.15-.76-.28-1.13-.41-.71-.25-1.42-.49-2.14-.7l-.55-.16c-1.15-.32-2.31-.59-3.48-.82l-.68-.13c-.78-.13-1.58-.23-2.38-.32l-1.13-.14c-1.18-.1-2.37-.16-3.58-.16a41.49,41.49,0,0,0-36.64,22A8,8,0,0,1,77,555.27a18.89,18.89,0,0,0-18.64-.58,7.94,7.94,0,0,1-9.4-1.43,26.3,26.3,0,0,0-42.76,6.87,8,8,0,0,0,7.25,11.32H219.6C223.8,571.45,225.35,569.2,225.35,567.34Z" style="fill:#fff"/><g style="opacity:0.55"><path d="M273.66,583.92a8,8,0,0,1-16.07,0" style="fill:#0fa049;mix-blend-mode:multiply"/><path d="M297.31,583.92a8,8,0,0,1-16.07,0" style="fill:#0fa049;mix-blend-mode:multiply"/><path d="M321,583.92a8,8,0,0,1-16.07,0" style="fill:#0fa049;mix-blend-mode:multiply"/><path d="M344.61,583.92a8,8,0,0,1-16.07,0" style="fill:#0fa049;mix-blend-mode:multiply"/><path d="M368.26,583.92a8,8,0,0,1-16.07,0" style="fill:#0fa049;mix-blend-mode:multiply"/><path d="M391.91,583.92a8,8,0,0,1-16.07,0" style="fill:#0fa049;mix-blend-mode:multiply"/><path d="M415.56,583.92a8,8,0,0,1-16.07,0" style="fill:#0fa049;mix-blend-mode:multiply"/><path d="M439.21,583.92a8,8,0,0,1-16.07,0" style="fill:#0fa049;mix-blend-mode:multiply"/><path d="M462.85,583.92a8,8,0,0,1-16.06,0" style="fill:#0fa049;mix-blend-mode:multiply"/><path d="M486.5,583.92a8,8,0,0,1-16.06,0" style="fill:#0fa049;mix-blend-mode:multiply"/><path d="M510.15,583.92a8,8,0,0,1-16.06,0" style="fill:#0fa049;mix-blend-mode:multiply"/><path d="M533.8,583.92a8,8,0,0,1-16.06,0" style="fill:#0fa049;mix-blend-mode:multiply"/><path d="M557.45,583.92a8,8,0,0,1-16.06,0" style="fill:#0fa049;mix-blend-mode:multiply"/><path d="M581.1,583.92a8,8,0,0,1-16.07,0" style="fill:#0fa049;mix-blend-mode:multiply"/><path d="M604.75,583.92a8,8,0,0,1-16.07,0" style="fill:#0fa049;mix-blend-mode:multiply"/><path d="M628.4,583.92a8,8,0,0,1-16.07,0" style="fill:#0fa049;mix-blend-mode:multiply"/><path d="M261.61,600.33a8,8,0,1,1-16.06,0" style="fill:#0fa049;mix-blend-mode:multiply"/><path d="M285.26,600.33a8,8,0,1,1-16.06,0" style="fill:#0fa049;mix-blend-mode:multiply"/><path d="M308.91,600.33a8,8,0,1,1-16.06,0" style="fill:#0fa049;mix-blend-mode:multiply"/><path d="M332.56,600.33a8,8,0,1,1-16.06,0" style="fill:#0fa049;mix-blend-mode:multiply"/><path d="M356.21,600.33a8,8,0,1,1-16.07,0" style="fill:#0fa049;mix-blend-mode:multiply"/><path d="M379.86,600.33a8,8,0,1,1-16.07,0" style="fill:#0fa049;mix-blend-mode:multiply"/><path d="M403.51,600.33a8,8,0,1,1-16.07,0" style="fill:#0fa049;mix-blend-mode:multiply"/><path d="M427.16,600.33a8,8,0,1,1-16.07,0" style="fill:#0fa049;mix-blend-mode:multiply"/><path d="M450.81,600.33a8,8,0,1,1-16.07,0" style="fill:#0fa049;mix-blend-mode:multiply"/><path d="M474.46,600.33a8,8,0,1,1-16.07,0" style="fill:#0fa049;mix-blend-mode:multiply"/><path d="M498.11,600.33a8,8,0,1,1-16.07,0" style="fill:#0fa049;mix-blend-mode:multiply"/><path d="M521.75,600.33a8,8,0,1,1-16.06,0" style="fill:#0fa049;mix-blend-mode:multiply"/><path d="M545.4,600.33a8,8,0,1,1-16.06,0" style="fill:#0fa049;mix-blend-mode:multiply"/><path d="M569.05,600.33a8,8,0,1,1-16.06,0" style="fill:#0fa049;mix-blend-mode:multiply"/><path d="M592.7,600.33a8,8,0,1,1-16.06,0" style="fill:#0fa049;mix-blend-mode:multiply"/><path d="M616.35,600.33a8,8,0,1,1-16.06,0" style="fill:#0fa049;mix-blend-mode:multiply"/><path d="M640,600.33a8,8,0,1,1-16.07,0" style="fill:#0fa049;mix-blend-mode:multiply"/></g></g></g></svg>