<svg xmlns="http://www.w3.org/2000/svg" width="67.25" height="55.43" viewBox="0 0 67.25 55.43"><title>Artboard 17</title><g style="isolation:isolate"><g id="Layer_1" data-name="Layer 1"><text style="opacity:0.45;mix-blend-mode:multiply"></text><polygon points="23.88 11.5 22.46 10.03 18.8 18.39 20.54 19.15 23.88 11.5" style="fill:#fde9f1"/><polygon points="27.23 9.83 28.3 7.39 23 9.45 24.42 10.93 27.23 9.83" style="fill:#fde9f1"/><polygon points="25.65 21.38 27.39 22.14 31.07 13.73 29.02 13.68 25.65 21.38" style="fill:#ee2a7b"/><polygon points="29.03 12.9 31.08 12.94 29.02 7.71 27.95 10.15 29.03 12.9" style="fill:#ee2a7b"/><polygon points="27.3 10.65 24.67 11.67 21.26 19.46 24.93 21.07 28.34 13.28 27.3 10.65" style="fill:#ebb8d5"/><polygon points="29.26 6.17 22.06 8.97 18.08 18.07 18.8 18.39 22.46 10.03 21.98 9.54 22.55 8.99 23 9.45 28.3 7.39 28.67 6.52 29.4 6.84 29.02 7.71 31.08 12.94 31.61 12.95 31.59 13.74 31.07 13.73 27.39 22.14 28.11 22.46 32.09 13.36 29.26 6.17" style="fill:#a02373"/><polygon points="27.75 9.63 27.95 10.15 29.02 7.71 29.4 6.84 28.67 6.52 28.3 7.39 27.23 9.83 27.75 9.63" style="fill:#a02373"/><polygon points="29.19 13.29 29.02 13.68 31.07 13.73 31.59 13.74 31.61 12.95 31.08 12.94 29.03 12.9 29.19 13.29" style="fill:#a02373"/><polygon points="24.08 11.06 24.42 10.93 23 9.45 22.55 8.99 21.98 9.54 22.46 10.03 23.88 11.5 24.08 11.06" style="fill:#a02373"/><polygon points="29.19 13.29 29.03 12.9 27.95 10.15 27.75 9.63 27.23 9.83 24.42 10.93 24.08 11.06 23.88 11.5 20.54 19.15 21.26 19.46 24.67 11.67 27.3 10.65 28.34 13.28 24.93 21.07 25.65 21.38 29.02 13.68 29.19 13.29" style="fill:#a02373"/><text style="opacity:0.45;mix-blend-mode:multiply"></text><polygon points="7.64 13.08 5.59 12.88 8.26 21.61 10.08 21.06 7.64 13.08" style="fill:#fde9f1"/><polygon points="9.09 9.63 8.31 7.08 5.63 12.1 7.67 12.29 9.09 9.63" style="fill:#fde9f1"/><polygon points="15.41 19.42 17.23 18.87 14.54 10.09 12.96 11.39 15.41 19.42" style="fill:#ee2a7b"/><polygon points="12.45 10.78 14.04 9.48 9.06 6.85 9.84 9.4 12.45 10.78" style="fill:#ee2a7b"/><polygon points="9.68 10.21 8.34 12.7 10.83 20.83 14.66 19.65 12.17 11.53 9.68 10.21" style="fill:#ebb8d5"/><polygon points="8.25 5.53 4.61 12.34 7.51 21.84 8.26 21.61 5.59 12.88 4.92 12.82 4.99 12.04 5.63 12.1 8.31 7.08 8.03 6.18 8.79 5.95 9.06 6.85 14.04 9.48 14.45 9.15 14.95 9.76 14.54 10.09 17.23 18.87 17.98 18.64 15.07 9.14 8.25 5.53" style="fill:#a02373"/><polygon points="9.35 9.14 9.84 9.4 9.06 6.85 8.79 5.95 8.03 6.18 8.31 7.08 9.09 9.63 9.35 9.14" style="fill:#a02373"/><polygon points="12.83 10.98 12.96 11.39 14.54 10.09 14.95 9.76 14.45 9.15 14.04 9.48 12.45 10.78 12.83 10.98" style="fill:#a02373"/><polygon points="7.5 12.61 7.67 12.29 5.63 12.1 4.99 12.04 4.92 12.82 5.59 12.88 7.64 13.08 7.5 12.61" style="fill:#a02373"/><polygon points="12.83 10.98 12.45 10.78 9.84 9.4 9.35 9.14 9.09 9.63 7.67 12.29 7.5 12.61 7.64 13.08 10.08 21.06 10.83 20.83 8.34 12.7 9.68 10.21 12.17 11.53 14.66 19.65 15.41 19.42 12.96 11.39 12.83 10.98" style="fill:#a02373"/><text style="opacity:0.45;mix-blend-mode:multiply"></text><polygon points="15.98 10 14.07 9.23 14.16 18.36 16.06 18.34 15.98 10" style="fill:#fde9f1"/><polygon points="18.35 7.11 18.32 4.44 14.33 8.49 16.23 9.25 18.35 7.11" style="fill:#fde9f1"/><polygon points="21.64 18.29 23.54 18.27 23.45 9.08 21.56 9.88 21.64 18.29" style="fill:#ee2a7b"/><polygon points="21.25 9.16 23.14 8.36 19.11 4.43 19.14 7.1 21.25 9.16" style="fill:#ee2a7b"/><polygon points="18.75 7.82 16.77 9.83 16.85 18.33 20.86 18.29 20.77 9.79 18.75 7.82" style="fill:#ebb8d5"/><polygon points="18.7 2.93 13.28 8.43 13.38 18.37 14.16 18.36 14.07 9.23 13.44 8.98 13.74 8.25 14.33 8.49 18.32 4.44 18.31 3.49 19.1 3.48 19.11 4.43 23.14 8.36 23.62 8.15 23.93 8.88 23.45 9.08 23.54 18.27 24.33 18.26 24.23 8.32 18.7 2.93" style="fill:#a02373"/><polygon points="18.74 6.71 19.14 7.1 19.11 4.43 19.1 3.48 18.31 3.49 18.32 4.44 18.35 7.11 18.74 6.71" style="fill:#a02373"/><polygon points="21.55 9.46 21.56 9.88 23.45 9.08 23.93 8.88 23.62 8.15 23.14 8.36 21.25 9.16 21.55 9.46" style="fill:#a02373"/><polygon points="15.97 9.51 16.23 9.25 14.33 8.49 13.74 8.25 13.44 8.98 14.07 9.23 15.98 10 15.97 9.51" style="fill:#a02373"/><polygon points="21.55 9.46 21.25 9.16 19.14 7.1 18.74 6.71 18.35 7.11 16.23 9.25 15.97 9.51 15.98 10 16.06 18.34 16.85 18.33 16.77 9.83 18.75 7.82 20.77 9.79 20.86 18.29 21.64 18.29 21.56 9.88 21.55 9.46" style="fill:#a02373"/><line x1="39.04" y1="40.32" x2="31.5" y2="26.99" style="fill:none;stroke:#7d398f;stroke-linejoin:bevel;stroke-width:0.844885123684936px"/><line x1="39.04" y1="34.41" x2="31.5" y2="21.07" style="fill:none;stroke:#7d398f;stroke-linejoin:bevel;stroke-width:0.844885123684936px"/><polygon points="52.02 32.26 52.02 25.8 46.42 22.57 40.83 25.8 40.83 32.26 46.42 35.48 52.02 32.26" style="fill:#fff;opacity:0.4"/><polygon points="52.02 32.26 52.02 25.8 46.42 22.57 40.83 25.8 40.83 32.26 46.42 35.48 52.02 32.26" style="fill:none;stroke:#7c3990;stroke-miterlimit:10;stroke-width:0.633663842763702px"/><polygon points="38.21 39.86 38.21 43.44 55.68 43.44 54.16 39.86 38.21 39.86" style="fill:#da1c5c"/><polygon points="54.93 39.54 56.45 43.12 62.84 36.7 57.75 36.7 54.93 39.54" style="fill:#da1c5c"/><polygon points="64.43 36.28 64.14 35.99 63.84 36.28 63.84 36.28 63.84 36.28 63.84 36.28 63.84 36.7 62.84 36.7 56.45 43.12 56.69 43.69 55.93 44.02 55.68 43.44 38.21 43.44 38.21 44.27 56.48 44.27 64.43 36.28" style="fill:#7c3990"/><polygon points="57.75 35.87 62.84 35.87 56.45 29.44 54.92 33.02 57.75 35.87" style="fill:#f6ebf4"/><polygon points="55.68 29.12 38.21 29.12 38.21 32.7 54.16 32.7 55.68 29.12" style="fill:#f6ebf4"/><polygon points="63.84 36.28 63.84 36.28 63.84 36.28 63.84 36.28" style="fill:#f6ebf4"/><polygon points="38.21 29.12 55.68 29.12 55.93 28.55 56.69 28.87 56.45 29.44 62.84 35.87 63.84 35.87 63.84 36.28 63.84 36.28 63.84 36.28 64.14 35.99 64.14 35.99 56.48 28.29 38.21 28.29 38.21 29.12" style="fill:#7d398f"/><polygon points="54.61 39.86 54.16 39.86 55.68 43.44 55.93 44.02 56.69 43.69 56.45 43.12 54.93 39.54 54.61 39.86" style="fill:#7d398f"/><polygon points="63.84 35.87 62.84 35.87 57.75 35.87 58.16 36.28 57.75 36.7 62.84 36.7 63.84 36.7 63.84 36.28 63.84 35.87" style="fill:#7d398f"/><polygon points="54.61 32.7 54.92 33.02 56.45 29.44 56.69 28.87 55.93 28.55 55.68 29.12 54.16 32.7 54.61 32.7" style="fill:#7d398f"/><polygon points="56.99 36.28 54.26 33.53 38.21 33.53 38.21 39.03 54.26 39.03 56.99 36.28" style="fill:#e6cbe2"/><polygon points="54.61 39.86 54.93 39.54 57.75 36.7 58.16 36.28 57.75 35.87 54.92 33.02 54.61 32.7 54.16 32.7 38.21 32.7 38.21 33.53 54.26 33.53 56.99 36.28 54.26 39.03 38.21 39.03 38.21 39.86 54.16 39.86 54.61 39.86" style="fill:#7d398f"/><polyline points="39.04 28.29 38.21 28.29 38.21 41.48 38.21 44.27 38.62 44.27 39.04 44.27 39.04 41.48" style="fill:#7d398f"/><polyline points="5.37 18.17 5.37 30.66 18.43 43.66 31.5 30.66 31.5 18.17" style="fill:#bd92c2;stroke:#7d398f;stroke-miterlimit:10;stroke-width:0.844885123684936px"/><polyline points="5.37 18.17 5.37 30.66 18.43 43.66 18.45 30.66 18.45 18.17" style="fill:#f5ebf4;stroke:#7d398f;stroke-linejoin:bevel;stroke-width:0.844885123684936px"/><polyline points="23.89 18.17 23.89 27.43 18.44 32.85 12.98 27.43 12.98 18.17" style="fill:#e6cbe2;stroke:#7d398f;stroke-miterlimit:10;stroke-width:0.844885123684936px"/><line x1="23.89" y1="27.43" x2="31.5" y2="30.66" style="fill:none;stroke:#7d398f;stroke-miterlimit:10;stroke-width:0.844885123684936px"/><line x1="18.44" y1="32.85" x2="18.44" y2="43.66" style="fill:none;stroke:#7d398f;stroke-miterlimit:10;stroke-width:0.844885123684936px"/><line x1="12.98" y1="27.43" x2="5.37" y2="30.66" style="fill:none;stroke:#7d398f;stroke-miterlimit:10;stroke-width:0.844885123684936px"/><line x1="31.5" y1="18.17" x2="5.37" y2="18.17" style="fill:none;stroke:#7d398f;stroke-linecap:square;stroke-miterlimit:10;stroke-width:0.844885123684936px"/><line x1="34.9" y1="27.22" x2="34.9" y2="33.12" style="fill:none;stroke:#7d398f;stroke-linejoin:bevel;stroke-width:0.844885123684936px"/><line x1="31.83" y1="26.86" x2="34.9" y2="26.86" style="fill:none;stroke:#7d398f;stroke-linejoin:bevel;stroke-width:0.844885123684936px"/><line x1="35.27" y1="33.12" x2="38.34" y2="33.12" style="fill:none;stroke:#7d398f;stroke-linejoin:bevel;stroke-width:0.844885123684936px"/><line x1="38.21" y1="39.54" x2="22.58" y2="39.54" style="fill:none;stroke:#7d398f;stroke-linejoin:bevel;stroke-width:0.844885123684936px"/><rect x="40.67" y="47.65" width="14.67" height="3.32" rx="1.41" ry="1.41" style="fill:#c9c9c9;opacity:0.45;mix-blend-mode:multiply"/><rect x="8.34" y="47.65" width="20.68" height="3.32" rx="1.41" ry="1.41" style="fill:#c9c9c9;opacity:0.45;mix-blend-mode:multiply"/></g></g></svg>