<svg id="Layer_1" data-name="Layer 1" xmlns="http://www.w3.org/2000/svg" width="156.14" height="170.76" viewBox="0 0 156.14 170.76"><title>Artboard 3</title><path d="M77,19.8c-23.88,51.12-44.58,95.91-68.46,147H2.16L73.8,13.46h6.37Q116,90.14,151.82,166.83h-6.37C121.57,115.71,100.87,70.92,77,19.8" style="fill:#e6cae2;stroke:#7c3990;stroke-miterlimit:10;stroke-width:0.844885123684936px"/><polyline points="74.14 19.12 76.99 19.8 8.53 166.83 5.21 166.83 74.14 19.12" style="fill:#b87bb5;stroke:#7c3990;stroke-miterlimit:10;stroke-width:0.844885123684936px"/><polyline points="79.67 19.12 81.99 17.35 151.82 166.83 148.6 166.83 79.67 19.12" style="fill:#b87bb5;stroke:#7d3a90;stroke-miterlimit:10;stroke-width:0.844885123684936px"/><polygon points="80.2 4.83 73.38 4.83 68.56 9.65 68.56 16.47 73.38 21.29 80.2 21.29 85.02 16.47 85.02 9.65 80.2 4.83" style="fill:#e6cae2;stroke:#7c3990;stroke-miterlimit:10;stroke-width:0.844885123684936px"/><polygon points="73.38 4.83 80.2 4.83 85.02 9.65 85.02 16.47 80.2 21.29 73.38 21.29 74.69 18.15 74.69 7.98 73.38 4.83" style="fill:#b87bb5"/><polygon points="78.9 7.98 74.69 7.98 71.7 10.96 71.7 15.17 74.69 18.15 78.9 18.15 81.88 15.17 81.88 10.96 78.9 7.98" style="fill:#c093c3;stroke:#7c3990;stroke-miterlimit:10;stroke-width:0.844885123684936px"/><line x1="74.68" y1="7.98" x2="73.38" y2="4.84" style="fill:none;stroke:#7c3990;stroke-miterlimit:10;stroke-width:0.844885123684936px"/><line x1="78.9" y1="7.98" x2="80.2" y2="4.84" style="fill:none;stroke:#7c3990;stroke-miterlimit:10;stroke-width:0.844885123684936px"/><line x1="81.88" y1="10.96" x2="85.02" y2="9.65" style="fill:none;stroke:#7c3990;stroke-miterlimit:10;stroke-width:0.844885123684936px"/><line x1="81.88" y1="15.17" x2="85.02" y2="16.47" style="fill:none;stroke:#7c3990;stroke-miterlimit:10;stroke-width:0.844885123684936px"/><line x1="78.9" y1="18.15" x2="80.2" y2="21.29" style="fill:none;stroke:#7c3990;stroke-miterlimit:10;stroke-width:0.844885123684936px"/><line x1="74.68" y1="18.15" x2="73.38" y2="21.29" style="fill:none;stroke:#7c3990;stroke-miterlimit:10;stroke-width:0.844885123684936px"/><line x1="71.71" y1="15.17" x2="68.56" y2="16.47" style="fill:none;stroke:#7c3990;stroke-miterlimit:10;stroke-width:0.844885123684936px"/><line x1="71.71" y1="10.96" x2="68.56" y2="9.65" style="fill:none;stroke:#7c3990;stroke-miterlimit:10;stroke-width:0.844885123684936px"/><polygon points="80.2 4.83 73.38 4.83 68.56 9.65 68.56 16.47 73.38 21.29 80.2 21.29 85.02 16.47 85.02 9.65 80.2 4.83" style="fill:none;stroke:#7c3990;stroke-miterlimit:10;stroke-width:0.844885123684936px"/></svg>