<svg id="Layer_1" data-name="Layer 1" xmlns="http://www.w3.org/2000/svg" width="30.74" height="20.96" viewBox="0 0 30.74 20.96"><title>Artboard 35</title><polygon points="20.27 7.82 16.97 7.82 19.44 10.03 20.27 13.53 21.91 10.68 20.27 7.82" style="fill:#fff;stroke:#491246;stroke-miterlimit:10"/><polygon points="14.2 7.82 13.14 8.36 13.37 10.03 15.33 9.79 14.2 7.82" style="fill:#fff;stroke:#491246;stroke-miterlimit:10"/><polygon points="17.83 11.83 14.82 13.24 15.05 14.91 17.59 16.08 17.83 11.83" style="fill:#fff;stroke:#491246;stroke-miterlimit:10"/><line x1="4.7" y1="12.82" x2="6.57" y2="12.41" style="fill:#ebb8d5;stroke:#fff;stroke-miterlimit:10;stroke-width:0.844885123684936px"/><line x1="6.08" y1="15.12" x2="7.31" y2="14.84" style="fill:#ebb8d5;stroke:#fff;stroke-miterlimit:10;stroke-width:0.844885123684936px"/><line x1="4.98" y1="10.17" x2="6.22" y2="9.89" style="fill:#ebb8d5;stroke:#fff;stroke-miterlimit:10;stroke-width:0.844885123684936px"/><line x1="7.82" y1="11.27" x2="9.06" y2="10.99" style="fill:#ebb8d5;stroke:#fff;stroke-miterlimit:10;stroke-width:0.844885123684936px"/><line x1="8.61" y1="13.69" x2="11.25" y2="13.1" style="fill:#ebb8d5;stroke:#fff;stroke-miterlimit:10;stroke-width:0.844885123684936px"/><line x1="14.33" y1="5.37" x2="13.55" y2="2.84" style="fill:#ebb8d5;stroke:#fff;stroke-miterlimit:10;stroke-width:0.844885123684936px;opacity:0.25"/><line x1="18.62" y1="5.08" x2="19.04" y2="0.72" style="fill:#ebb8d5;stroke:#fff;stroke-miterlimit:10;stroke-width:0.844885123684936px;opacity:0.25"/><line x1="22.07" y1="6.78" x2="25.93" y2="2.9" style="fill:#ebb8d5;stroke:#fff;stroke-miterlimit:10;stroke-width:0.844885123684936px;opacity:0.25"/><line x1="19.91" y1="16.33" x2="21.16" y2="19.73" style="fill:#ebb8d5;stroke:#fff;stroke-miterlimit:10;stroke-width:0.844885123684936px;opacity:0.25"/><line x1="15.92" y1="17.18" x2="15.33" y2="19.75" style="fill:#ebb8d5;stroke:#fff;stroke-miterlimit:10;stroke-width:0.844885123684936px;opacity:0.25"/><line x1="13.55" y1="16.45" x2="12.06" y2="18.74" style="fill:#ebb8d5;stroke:#fff;stroke-miterlimit:10;stroke-width:0.844885123684936px;opacity:0.25"/><line x1="24" y1="10.39" x2="28.46" y2="10.67" style="fill:#ebb8d5;stroke:#fff;stroke-miterlimit:10;stroke-width:0.844885123684936px;opacity:0.25"/><line x1="26.87" y1="15.67" x2="27.93" y2="16.08" style="fill:#ebb8d5;stroke:#fff;stroke-miterlimit:10;stroke-width:0.844885123684936px;opacity:0.25"/><line x1="22.44" y1="13.96" x2="25.18" y2="15.02" style="fill:#ebb8d5;stroke:#fff;stroke-miterlimit:10;stroke-width:0.844885123684936px;opacity:0.25"/><line x1="11.86" y1="7.82" x2="9.53" y2="6.53" style="fill:#ebb8d5;stroke:#fff;stroke-miterlimit:10;stroke-width:0.844885123684936px;opacity:0.25"/><line x1="12.31" y1="11.97" x2="13.55" y2="11.7" style="fill:#ebb8d5;stroke:#fff;stroke-miterlimit:10;stroke-width:0.844885123684936px"/><line x1="8.92" y1="16.22" x2="10.15" y2="15.94" style="fill:#ebb8d5;stroke:#fff;stroke-miterlimit:10;stroke-width:0.844885123684936px"/><line x1="3.97" y1="17.31" x2="5.2" y2="17.04" style="fill:#ebb8d5;stroke:#fff;stroke-miterlimit:10;stroke-width:0.844885123684936px"/><line x1="1.69" y1="15.65" x2="2.92" y2="15.38" style="fill:#ebb8d5;stroke:#fff;stroke-miterlimit:10;stroke-width:0.844885123684936px"/><line x1="2.05" y1="12.55" x2="3.28" y2="12.27" style="fill:#ebb8d5;stroke:#fff;stroke-miterlimit:10;stroke-width:0.844885123684936px"/><line x1="6.99" y1="19.24" x2="8.22" y2="18.97" style="fill:#ebb8d5;stroke:#fff;stroke-miterlimit:10;stroke-width:0.844885123684936px"/></svg>