<svg id="Layer_1" data-name="Layer 1" xmlns="http://www.w3.org/2000/svg" width="9.5" height="9.52" viewBox="0 0 9.5 9.52"><title>Artboard 26</title><polygon points="6.3 1.22 3.31 1.22 1.2 3.34 1.2 6.32 3.31 8.43 6.3 8.43 8.41 6.32 8.41 3.34 6.3 1.22" style="fill:#e6cae2"/><path d="M6.38,8.62H3.24L1,6.4V3.26L3.24,1H6.38L8.6,3.26V6.4Zm-3-.37H6.22l2-2V3.41l-2-2H3.39l-2,2V6.25Z" style="fill:#7c3990"/><polygon points="3.31 1.22 6.3 1.22 8.41 3.34 8.41 6.32 6.3 8.43 3.31 8.43 3.88 7.06 3.88 2.6 3.31 1.22" style="fill:#b87bb5"/><polygon points="5.73 2.6 3.88 2.6 2.58 3.91 2.58 5.75 3.88 7.06 5.73 7.06 7.04 5.75 7.04 3.91 5.73 2.6" style="fill:#c093c3"/><path d="M5.81,7.24h-2L2.39,5.83v-2L3.81,2.42h2L7.22,3.83v2ZM4,6.87H5.65l1.2-1.19V4L5.65,2.79H4L2.76,4v1.7Z" style="fill:#7c3990"/><rect x="3.41" y="1.17" width="0.37" height="1.49" transform="translate(-0.46 1.52) rotate(-22.5)" style="fill:#7c3990"/><rect x="5.27" y="1.73" width="1.49" height="0.37" transform="translate(1.95 6.74) rotate(-67.49)" style="fill:#7c3990"/><rect x="6.98" y="3.44" width="1.49" height="0.37" transform="translate(-0.8 3.23) rotate(-22.51)" style="fill:#7c3990"/><rect x="7.54" y="5.29" width="0.37" height="1.49" transform="translate(-0.81 10.86) rotate(-67.5)" style="fill:#7c3990"/><rect x="5.83" y="7" width="0.37" height="1.49" transform="translate(-2.51 2.89) rotate(-22.5)" style="fill:#7c3990"/><rect x="2.85" y="7.56" width="1.49" height="0.37" transform="translate(-4.93 8.11) rotate(-67.49)" style="fill:#7c3990"/><rect x="1.15" y="5.85" width="1.49" height="0.37" transform="translate(-2.17 1.18) rotate(-22.51)" style="fill:#7c3990"/><rect x="1.71" y="2.88" width="0.37" height="1.49" transform="translate(-2.18 3.98) rotate(-67.5)" style="fill:#7c3990"/><path d="M6.38,8.62H3.24L1,6.4V3.26L3.24,1H6.38L8.6,3.26V6.4Zm-3-.37H6.22l2-2V3.41l-2-2H3.39l-2,2V6.25Z" style="fill:#7c3990"/></svg>