<svg id="Layer_1" data-name="Layer 1" xmlns="http://www.w3.org/2000/svg" width="55.5" height="55.17" viewBox="0 0 55.5 55.17"><title>Artboard 24</title><polygon points="23.68 19.44 23.68 28.39 25.57 28.39 25.57 20.22 23.68 19.44" style="fill:#fde9f1"/><polygon points="27.95 17.37 27.95 14.72 23.95 18.7 25.83 19.48 27.95 17.37" style="fill:#fde9f1"/><polygon points="31.1 20.16 31.1 28.39 32.99 28.39 32.99 19.38 31.1 20.16" style="fill:#ee2a7b"/><polygon points="30.8 19.44 32.68 18.66 28.73 14.72 28.73 17.37 30.8 19.44" style="fill:#ee2a7b"/><polygon points="28.34 18.08 26.35 20.06 26.35 28.39 30.32 28.39 30.32 20.06 28.34 18.08" style="fill:#ebb8d5"/><polygon points="23.68 19.44 23.06 19.18 23.36 18.46 23.95 18.7 27.95 14.72 27.95 13.79 28.73 13.79 28.73 14.72 32.68 18.66 33.17 18.46 33.47 19.18 32.99 19.38 32.99 28.39 33.77 28.39 33.77 18.64 28.34 13.23 22.9 18.64 22.9 28.39 23.68 28.39 23.68 19.44" style="fill:#a02373"/><polygon points="28.34 16.98 28.73 17.37 28.73 14.72 28.73 13.79 27.95 13.79 27.95 14.72 27.95 17.37 28.34 16.98" style="fill:#a02373"/><polygon points="31.1 19.74 31.1 20.16 32.99 19.38 33.47 19.18 33.17 18.46 32.68 18.66 30.8 19.44 31.1 19.74" style="fill:#a02373"/><polygon points="25.57 19.74 25.83 19.48 23.95 18.7 23.36 18.46 23.06 19.18 23.68 19.44 25.57 20.22 25.57 19.74" style="fill:#a02373"/><polygon points="31.1 19.74 30.8 19.44 28.73 17.37 28.34 16.98 27.95 17.37 25.83 19.48 25.57 19.74 25.57 20.22 25.57 28.39 26.35 28.39 26.35 20.06 28.34 18.08 30.32 20.06 30.32 28.39 31.1 28.39 31.1 20.16 31.1 19.74" style="fill:#a02373"/><polygon points="33.75 10.93 22.92 10.93 15.27 18.58 15.27 33.72 22.92 41.38 33.75 41.38 41.4 33.72 41.4 18.58 33.75 10.93" style="fill:none;stroke:#7c3990;stroke-miterlimit:10;stroke-width:0.844885123684936px"/><polyline points="15.27 25.61 15.27 38.1 28.34 51.1 41.4 38.1 41.4 25.61" style="fill:#bd92c2;stroke:#7d398f;stroke-miterlimit:10;stroke-width:0.844885123684936px"/><polyline points="15.27 25.61 15.27 38.1 28.34 51.1 28.36 38.1 28.36 25.61" style="fill:#f5ebf4;stroke:#7d398f;stroke-linejoin:bevel;stroke-width:0.844885123684936px"/><polyline points="33.79 25.61 33.79 34.87 28.34 40.29 22.88 34.87 22.88 25.61" style="fill:#e6cbe2;stroke:#7d398f;stroke-miterlimit:10;stroke-width:0.844885123684936px"/><line x1="33.79" y1="34.87" x2="41.4" y2="38.1" style="fill:none;stroke:#7d398f;stroke-miterlimit:10;stroke-width:0.844885123684936px"/><line x1="28.34" y1="40.29" x2="28.34" y2="51.1" style="fill:none;stroke:#7d398f;stroke-miterlimit:10;stroke-width:0.844885123684936px"/><line x1="22.88" y1="34.87" x2="15.27" y2="38.1" style="fill:none;stroke:#7d398f;stroke-miterlimit:10;stroke-width:0.844885123684936px"/><line x1="15.27" y1="25.61" x2="41.4" y2="25.61" style="fill:none;stroke:#7d398f;stroke-linecap:square;stroke-linejoin:bevel;stroke-width:0.844885123684936px"/><rect x="25.96" y="48.71" width="4.76" height="3.81" style="fill:#da1c5c;stroke:#7c3990;stroke-miterlimit:10;stroke-width:0.844885123684936px"/><rect x="25.96" y="48.71" width="2.38" height="3.81" style="fill:#e6cbe2;stroke:#7c3990;stroke-miterlimit:10;stroke-width:0.844885123684936px"/><line x1="28.15" y1="4.74" x2="28.15" y2="9.58" style="fill:none;stroke:#7c3990;stroke-miterlimit:10;stroke-width:0.633663842763702px"/><rect x="26.93" y="7.86" width="2.43" height="3.04" style="fill:#da1c5c;stroke:#7c3990;stroke-miterlimit:10;stroke-width:0.844885123684936px"/><rect x="26.93" y="4.04" width="2.43" height="1.92" style="fill:#da1c5c;stroke:#7c3990;stroke-miterlimit:10;stroke-width:0.844885123684936px"/></svg>