<svg id="Layer_1" data-name="Layer 1" xmlns="http://www.w3.org/2000/svg" width="21.5" height="43.25" viewBox="0 0 21.5 43.25"><title>Artboard 13</title><polygon points="11.25 4.85 4.9 11.17 4.9 33.98 11.25 40.3 17.6 33.98 17.6 11.17 11.25 4.85" style="fill:#fde9f1"/><polygon points="11.25 4.85 11.25 4.85 11.25 40.3 11.25 40.3 17.6 33.98 17.6 11.17 11.25 4.85" style="fill:#ee2a7b"/><polygon points="11.25 9.23 8.01 12.45 8.01 32.7 11.25 35.91 14.49 32.7 14.49 12.45 11.25 9.23" style="fill:#ebb8d5"/><polygon points="5.81 26.58 5.81 11.55 11.25 6.14 16.69 11.55 16.69 26.58 17.6 26.58 17.6 11.17 11.25 4.85 4.9 11.17 4.9 26.58 5.81 26.58" style="fill:#a02373"/><rect x="10.79" y="5.5" width="0.91" height="4.38" style="fill:#a02373"/><rect x="13.57" y="11.63" width="3.65" height="0.91" transform="translate(-3.44 6.77) rotate(-22.38)" style="fill:#a02373"/><rect x="6.49" y="10.26" width="0.91" height="3.65" transform="translate(-6.87 13.9) rotate(-67.61)" style="fill:#a02373"/><polygon points="8.93 26.58 8.93 12.83 11.25 10.52 13.57 12.83 13.57 26.58 14.49 26.58 14.49 12.45 11.25 9.23 8.01 12.45 8.01 26.58 8.93 26.58" style="fill:#a02373"/><polygon points="5.81 25.4 5.81 33.6 11.25 39.01 16.69 33.6 16.69 25.4 17.6 25.4 17.6 33.98 11.25 40.3 4.9 33.98 4.9 25.4 5.81 25.4" style="fill:#a02373"/><rect x="10.79" y="35.27" width="0.91" height="4.38" style="fill:#a02373"/><rect x="14.93" y="31.24" width="0.91" height="3.65" transform="translate(-21.05 34.7) rotate(-67.61)" style="fill:#a02373"/><rect x="5.12" y="32.61" width="3.65" height="0.91" transform="translate(-12.07 5.14) rotate(-22.38)" style="fill:#a02373"/><polygon points="8.93 25.4 8.93 32.32 11.25 34.63 13.57 32.32 13.57 25.4 14.49 25.4 14.49 32.7 11.25 35.91 8.01 32.7 8.01 25.4 8.93 25.4" style="fill:#a02373"/><line x1="17.6" y1="15.53" x2="5.08" y2="22.11" style="fill:none;stroke:#7d398f;stroke-linecap:round;stroke-linejoin:round;stroke-width:0.844885123684936px"/><line x1="5.08" y1="15.92" x2="17.6" y2="27.43" style="fill:none;stroke:#7d398f;stroke-linecap:round;stroke-linejoin:round;stroke-width:0.844885123684936px"/><line x1="17.75" y1="21.94" x2="4.9" y2="28.98" style="fill:none;stroke:#7d398f;stroke-linecap:round;stroke-linejoin:round;stroke-width:0.844885123684936px"/></svg>