<svg id="Layer_1" data-name="Layer 1" xmlns="http://www.w3.org/2000/svg" width="101.75" height="57.75" viewBox="0 0 101.75 57.75"><title>Artboard 12</title><line x1="64.29" y1="8.79" x2="64.29" y2="13.62" style="fill:none;stroke:#7c3990;stroke-miterlimit:10;stroke-width:0.633663842763702px"/><rect x="61.86" y="14.94" width="4.85" height="5.28" style="fill:#e6cbe2;stroke:#7c3990;stroke-miterlimit:10;stroke-width:0.844885123684936px"/><rect x="63.08" y="11.9" width="2.43" height="3.04" style="fill:#da1c5c;stroke:#7c3990;stroke-miterlimit:10;stroke-width:0.844885123684936px"/><polygon points="83.02 25.69 75.36 17.98 72.64 17.98 68.04 17.98 66.73 17.98 59.07 25.69 66.73 33.4 68.04 33.4 72.64 33.4 75.36 33.4 83.02 25.69" style="fill:#da1c5c;stroke:#7c3990;stroke-miterlimit:10;stroke-width:0.844885123684936px"/><polyline points="83.02 25.69 75.36 17.98 72.64 17.98 68.04 17.98 66.73 17.98 59.07 25.69" style="fill:#f6ebf4;stroke:#7d398f;stroke-miterlimit:10;stroke-width:0.844885123684936px"/><line x1="68.64" y1="28.91" x2="66.73" y2="33.39" style="fill:none;stroke:#7d398f;stroke-miterlimit:10;stroke-width:0.844885123684936px"/><line x1="65.44" y1="25.69" x2="59.07" y2="25.69" style="fill:none;stroke:#7d398f;stroke-miterlimit:10;stroke-width:0.844885123684936px"/><line x1="68.64" y1="22.47" x2="66.73" y2="17.98" style="fill:none;stroke:#7d398f;stroke-miterlimit:10;stroke-width:0.844885123684936px"/><line x1="73.45" y1="28.91" x2="75.36" y2="33.39" style="fill:none;stroke:#7d398f;stroke-miterlimit:10;stroke-width:0.844885123684936px"/><line x1="76.65" y1="25.69" x2="83.02" y2="25.69" style="fill:none;stroke:#7d398f;stroke-miterlimit:10;stroke-width:0.844885123684936px"/><line x1="73.45" y1="22.47" x2="75.36" y2="17.98" style="fill:none;stroke:#7d398f;stroke-miterlimit:10;stroke-width:0.844885123684936px"/><polygon points="76.65 25.69 73.45 22.47 72.64 22.47 69.16 22.47 68.64 22.47 65.44 25.69 68.64 28.91 69.16 28.91 72.64 28.91 73.45 28.91 76.65 25.69" style="fill:#e6cbe2;stroke:#7d398f;stroke-miterlimit:10;stroke-width:0.844885123684936px"/><line x1="64.47" y1="20.23" x2="12.7" y2="20.23" style="fill:none;stroke:#7c3990;stroke-miterlimit:10;stroke-width:0.844885123684936px"/><line x1="12.7" y1="20.23" x2="64.47" y2="31.12" style="fill:none;stroke:#7c3990;stroke-miterlimit:10;stroke-width:0.844885123684936px"/><line x1="23.66" y1="20.23" x2="26.63" y2="23.2" style="fill:none;stroke:#7c3990;stroke-miterlimit:10;stroke-width:0.844885123684936px"/><line x1="30.33" y1="20.23" x2="35.02" y2="24.92" style="fill:none;stroke:#7c3990;stroke-miterlimit:10;stroke-width:0.844885123684936px"/><line x1="37.96" y1="20.23" x2="44.76" y2="27.03" style="fill:none;stroke:#7c3990;stroke-miterlimit:10;stroke-width:0.844885123684936px"/><line x1="45.99" y1="20.23" x2="54.86" y2="29.1" style="fill:none;stroke:#7c3990;stroke-miterlimit:10;stroke-width:0.844885123684936px"/><line x1="47.42" y1="27.53" x2="54.68" y2="20.27" style="fill:none;stroke:#7c3990;stroke-miterlimit:10;stroke-width:0.844885123684936px"/><line x1="38.67" y1="25.69" x2="44.39" y2="19.97" style="fill:none;stroke:#7c3990;stroke-miterlimit:10;stroke-width:0.844885123684936px"/><line x1="30.94" y1="23.9" x2="34.53" y2="20.31" style="fill:none;stroke:#7c3990;stroke-miterlimit:10;stroke-width:0.844885123684936px"/><line x1="57.4" y1="20.23" x2="60.96" y2="23.79" style="fill:none;stroke:#7c3990;stroke-miterlimit:10;stroke-width:0.844885123684936px"/><line x1="60.92" y1="27.55" x2="58.45" y2="30.03" style="fill:none;stroke:#7c3990;stroke-miterlimit:10;stroke-width:0.844885123684936px"/><line x1="21.83" y1="22.22" x2="23.74" y2="20.31" style="fill:none;stroke:#7c3990;stroke-miterlimit:10;stroke-width:0.844885123684936px"/><polygon points="15.23 16.31 12.25 16.31 10.14 18.43 10.14 21.41 12.25 23.52 15.23 23.52 17.35 21.41 17.35 18.43 15.23 16.31" style="fill:#e6cae2"/><path d="M15.31,23.71H12.17L10,21.49V18.35l2.22-2.22h3.14l2.22,2.22v3.14Zm-3-.37h2.83l2-2V18.5l-2-2H12.33l-2,2v2.83Z" style="fill:#7c3990"/><polygon points="12.25 16.31 15.23 16.31 17.35 18.43 17.35 21.41 15.23 23.52 12.25 23.52 12.82 22.15 12.82 17.69 12.25 16.31" style="fill:#b87bb5"/><polygon points="14.66 17.69 12.82 17.69 11.51 19 11.51 20.84 12.82 22.15 14.66 22.15 15.97 20.84 15.97 19 14.66 17.69" style="fill:#c093c3"/><path d="M14.74,22.33h-2l-1.41-1.41v-2l1.41-1.42h2l1.42,1.42v2ZM12.9,22h1.69l1.2-1.2V19.07l-1.2-1.2H12.9l-1.2,1.2v1.69Z" style="fill:#7c3990"/><rect x="12.35" y="16.26" width="0.37" height="1.49" transform="translate(-5.55 6.09) rotate(-22.5)" style="fill:#7c3990"/><rect x="14.21" y="16.82" width="1.49" height="0.37" transform="translate(-6.48 24.3) rotate(-67.49)" style="fill:#7c3990"/><rect x="15.91" y="18.52" width="1.49" height="0.37" transform="translate(-5.89 7.8) rotate(-22.51)" style="fill:#7c3990"/><rect x="16.47" y="20.38" width="0.37" height="1.49" transform="translate(-9.23 28.43) rotate(-67.5)" style="fill:#7c3990"/><rect x="14.76" y="22.09" width="0.37" height="1.49" transform="translate(-7.6 7.46) rotate(-22.5)" style="fill:#7c3990"/><rect x="11.79" y="22.65" width="1.49" height="0.37" transform="translate(-13.36 25.67) rotate(-67.49)" style="fill:#7c3990"/><rect x="10.08" y="20.94" width="1.49" height="0.37" transform="translate(-7.26 5.75) rotate(-22.51)" style="fill:#7c3990"/><rect x="10.64" y="17.96" width="0.37" height="1.49" transform="translate(-10.6 21.55) rotate(-67.5)" style="fill:#7c3990"/><path d="M15.31,23.71H12.17L10,21.49V18.35l2.22-2.22h3.14l2.22,2.22v3.14Zm-3-.37h2.83l2-2V18.5l-2-2H12.33l-2,2v2.83Z" style="fill:#7c3990"/><polygon points="8.04 9.13 13.8 20.09 11.25 10.49 8.04 9.13" style="fill:#e6cbe2"/><path d="M13.89,20.07l-.18.07L8,9.17,8.08,9l3.21,1.37.06.06ZM8.26,9.33l5.21,9.93-2.3-8.7Z" style="fill:#7c3990"/><polygon points="19.44 30.71 13.69 19.75 16.23 29.35 19.44 30.71" style="fill:#e6cbe2"/><path d="M13.59,19.77l.19-.07,5.75,11-.13.14-3.21-1.36-.05-.07Zm5.63,10.74L14,20.58l2.31,8.7Z" style="fill:#7c3990"/><polygon points="2.95 25.62 13.91 19.86 4.31 22.41 2.95 25.62" style="fill:#e6cbe2"/><path d="M13.89,19.77,14,20,3,25.71l-.14-.13,1.36-3.21.07-.06ZM3.15,25.4l9.93-5.21-8.7,2.3Z" style="fill:#7c3990"/><polygon points="24.54 14.22 13.57 19.97 23.17 17.43 24.54 14.22" style="fill:#e6cbe2"/><path d="M13.59,20.07l-.07-.19,11-5.75.14.13-1.37,3.2-.06.06Zm10.74-5.63L14.4,19.65l8.7-2.31Z" style="fill:#7c3990"/><rect x="63.08" y="8.08" width="2.43" height="1.92" style="fill:#da1c5c;stroke:#7c3990;stroke-miterlimit:10;stroke-width:0.844885123684936px"/><line x1="68.42" y1="33.39" x2="68.42" y2="38.28" style="fill:none;stroke:#7c3990;stroke-miterlimit:10;stroke-width:0.844885123684936px"/><line x1="73.49" y1="33.39" x2="73.49" y2="38.28" style="fill:none;stroke:#7c3990;stroke-miterlimit:10;stroke-width:0.844885123684936px"/><polyline points="81.28 36.34 79.37 38.26 62.55 38.26 60.63 36.34" style="fill:none;stroke:#7c3990;stroke-miterlimit:10;stroke-width:0.844885123684936px"/><polyline points="76.76 38.28 71.07 56.85 70.85 56.85 65.16 38.28" style="fill:none;stroke:#7d398f;stroke-miterlimit:10;stroke-width:0.844885123684936px"/></svg>