<svg id="rupie-tokens" xmlns="http://www.w3.org/2000/svg" width="1421.93" height="330.27" viewBox="0 0 1421.93 330.27"><title>Rupie Tokens</title><g style="opacity:0.8"><rect x="1031.82" y="230.43" width="342.92" height="30.64" transform="translate(2406.56 491.5) rotate(-180)" style="fill:#fff"/></g><g id="rupie-right-tube"><g id="rupie" data-name="rupie"><polygon points="1016.03 245.51 1023.49 238.01 1050.4 238.01 1057.86 245.51 1050.4 253 1023.49 253 1016.03 245.51" style="fill:#fde9f2"/><polygon points="1016.03 245.51 1016.03 245.51 1057.86 245.51 1057.86 245.51 1050.4 253 1023.49 253 1016.03 245.51" style="fill:#ee2e7b"/><polygon points="1021.2 245.51 1025 241.69 1048.89 241.69 1052.69 245.51 1048.89 249.33 1025 249.33 1021.2 245.51" style="fill:#eab7d5"/><path d="M1050.4,238h-26.91l-7.46,7.5,7.46,7.49h26.91l7.46-7.49Zm-1.1,10.9,2.85-2.87h3.65l-5.43,5.47Zm-25.78,2.6-5.43-5.47h3.65l2.85,2.87Zm1.13-9.47-2.91,2.93h-3.65l5.49-5.52Zm.8,6.21-2.73-2.74,2.73-2.75h23l2.73,2.75-2.73,2.74h-23Zm26.7-3.28-2.91-2.93,1.07-2.59,5.49,5.52Zm-10.47-5.88h7.62l-1.07,2.6h-22.56l-1.07-2.6h17.08Zm-1.4,12.83h-15.76l1.07-2.59h22.72l1.07,2.59h-9.1Z" style="fill:#a12573"/></g><g id="rupie-2" data-name="rupie"><polygon points="1062.31 245.51 1069.76 238.01 1096.68 238.01 1104.13 245.51 1096.68 253 1069.76 253 1062.31 245.51" style="fill:#fde9f2"/><polygon points="1062.31 245.51 1062.31 245.51 1104.13 245.51 1104.13 245.51 1096.68 253 1069.76 253 1062.31 245.51" style="fill:#ee2e7b"/><polygon points="1067.47 245.51 1071.28 241.69 1095.16 241.69 1098.96 245.51 1095.16 249.33 1071.28 249.33 1067.47 245.51" style="fill:#eab7d5"/><path d="M1096.68,238h-26.92l-7.45,7.5,7.45,7.49h26.92l7.45-7.49Zm-1.11,10.9,2.86-2.87h3.65l-5.44,5.47Zm-25.78,2.6-5.43-5.47H1068l2.85,2.87Zm1.13-9.47L1068,245h-3.65l5.49-5.52Zm.8,6.21-2.72-2.74,2.72-2.75h23l2.73,2.75-2.73,2.74h-23Zm26.71-3.28-2.91-2.93,1.07-2.59,5.49,5.52ZM1088,239.09h7.62l-1.07,2.6h-22.56l-1.07-2.6H1088Zm-1.4,12.83h-15.76l1.07-2.59h22.72l1.07,2.59h-9.1Z" style="fill:#a12573"/></g><g id="rupie-3" data-name="rupie"><polygon points="1114.49 245.51 1121.94 238.01 1148.86 238.01 1156.31 245.51 1148.86 253 1121.94 253 1114.49 245.51" style="fill:#fde9f2"/><polygon points="1114.49 245.51 1114.49 245.51 1156.31 245.51 1156.31 245.51 1148.86 253 1121.94 253 1114.49 245.51" style="fill:#ee2e7b"/><polygon points="1119.66 245.51 1123.46 241.69 1147.34 241.69 1151.14 245.51 1147.34 249.33 1123.46 249.33 1119.66 245.51" style="fill:#eab7d5"/><path d="M1148.86,238h-26.92l-7.45,7.5,7.45,7.49h26.92l7.45-7.49Zm-1.1,10.9,2.85-2.87h3.65l-5.43,5.47Zm-25.78,2.6-5.44-5.47h3.65l2.85,2.87Zm1.12-9.47-2.91,2.93h-3.65l5.49-5.52Zm.8,6.21-2.72-2.74,2.72-2.75h23l2.72,2.75-2.72,2.74h-23Zm26.71-3.28L1147.7,242l1.07-2.59,5.49,5.52Zm-10.48-5.88h7.62l-1.07,2.6h-22.56l-1.07-2.6h17.08Zm-1.4,12.83H1123l1.07-2.59h22.72l1.07,2.59h-9.1Z" style="fill:#a12573"/></g><g id="rupie-4" data-name="rupie"><polygon points="1166.26 245.51 1173.72 238.01 1200.63 238.01 1208.09 245.51 1200.63 253 1173.72 253 1166.26 245.51" style="fill:#fde9f2"/><polygon points="1166.26 245.51 1166.26 245.51 1208.09 245.51 1208.09 245.51 1200.63 253 1173.72 253 1166.26 245.51" style="fill:#ee2e7b"/><polygon points="1171.43 245.51 1175.23 241.69 1199.12 241.69 1202.92 245.51 1199.12 249.33 1175.23 249.33 1171.43 245.51" style="fill:#eab7d5"/><path d="M1200.63,238h-26.91l-7.46,7.5,7.46,7.49h26.91l7.46-7.49Zm-1.1,10.9,2.85-2.87H1206l-5.43,5.47Zm-25.78,2.6-5.43-5.47H1172l2.85,2.87Zm1.13-9.47L1172,245h-3.65l5.49-5.52Zm.8,6.21-2.73-2.74,2.73-2.75h23l2.73,2.75-2.73,2.74h-23Zm26.7-3.28-2.91-2.93,1.07-2.59L1206,245Zm-10.47-5.88h7.62l-1.07,2.6H1175.9l-1.07-2.6h17.08Zm-1.4,12.83h-15.77l1.07-2.59h22.73l1.07,2.59h-9.1Z" style="fill:#a12573"/></g><g id="rupie-5" data-name="rupie"><polygon points="1217.5 245.51 1224.96 238.01 1251.87 238.01 1259.33 245.51 1251.87 253 1224.96 253 1217.5 245.51" style="fill:#fde9f2"/><polygon points="1217.5 245.51 1217.5 245.51 1259.33 245.51 1259.33 245.51 1251.87 253 1224.96 253 1217.5 245.51" style="fill:#ee2e7b"/><polygon points="1222.67 245.51 1226.47 241.69 1250.36 241.69 1254.16 245.51 1250.36 249.33 1226.47 249.33 1222.67 245.51" style="fill:#eab7d5"/><path d="M1251.87,238H1225l-7.46,7.5L1225,253h26.91l7.46-7.49Zm-1.1,10.9,2.85-2.87h3.65l-5.43,5.47Zm-25.78,2.6-5.43-5.47h3.65l2.85,2.87Zm1.13-9.47-2.91,2.93h-3.65l5.49-5.52Zm.8,6.21-2.73-2.74,2.73-2.75h23l2.73,2.75-2.73,2.74h-23Zm26.7-3.28-2.91-2.93,1.07-2.59,5.49,5.52Zm-10.47-5.88h7.61l-1.07,2.6h-22.55l-1.07-2.6h17.08Zm-1.4,12.83H1226l1.07-2.59h22.73l1.07,2.59h-9.1Z" style="fill:#a12573"/></g><g id="rupie-6" data-name="rupie"><polygon points="1269.62 245.51 1277.07 238.01 1303.99 238.01 1311.44 245.51 1303.99 253 1277.07 253 1269.62 245.51" style="fill:#fde9f2"/><polygon points="1269.62 245.51 1269.62 245.51 1311.44 245.51 1311.44 245.51 1303.99 253 1277.07 253 1269.62 245.51" style="fill:#ee2e7b"/><polygon points="1274.79 245.51 1278.59 241.69 1302.47 241.69 1306.27 245.51 1302.47 249.33 1278.59 249.33 1274.79 245.51" style="fill:#eab7d5"/><path d="M1304,238h-26.92l-7.45,7.5,7.45,7.49H1304l7.45-7.49Zm-1.11,10.9,2.86-2.87h3.65l-5.44,5.47Zm-25.78,2.6-5.43-5.47h3.65l2.85,2.87Zm1.13-9.47-2.91,2.93h-3.65l5.49-5.52Zm.8,6.21-2.72-2.74,2.72-2.75h23l2.73,2.75-2.73,2.74h-23Zm26.71-3.28-2.91-2.93,1.07-2.59,5.49,5.52Zm-10.48-5.88h7.62l-1.07,2.6h-22.56l-1.07-2.6h17.08Zm-1.4,12.83H1278.1l1.07-2.59h22.72l1.07,2.59h-9.1Z" style="fill:#a12573"/></g><g id="rupie-7" data-name="rupie"><polygon points="1321.8 245.51 1329.25 238.01 1356.17 238.01 1363.62 245.51 1356.17 253 1329.25 253 1321.8 245.51" style="fill:#fde9f2"/><polygon points="1321.8 245.51 1321.8 245.51 1363.62 245.51 1363.62 245.51 1356.17 253 1329.25 253 1321.8 245.51" style="fill:#ee2e7b"/><polygon points="1326.97 245.51 1330.77 241.69 1354.65 241.69 1358.45 245.51 1354.65 249.33 1330.77 249.33 1326.97 245.51" style="fill:#eab7d5"/><path d="M1356.17,238h-26.92l-7.45,7.5,7.45,7.49h26.92l7.45-7.49Zm-1.1,10.9,2.85-2.87h3.65l-5.43,5.47Zm-25.78,2.6-5.44-5.47h3.65l2.85,2.87Zm1.12-9.47L1327.5,245h-3.65l5.49-5.52Zm.8,6.21-2.72-2.74,2.72-2.75h23l2.72,2.75-2.72,2.74h-23Zm26.71-3.28L1355,242l1.07-2.59,5.49,5.52Zm-10.48-5.88h7.62l-1.07,2.6h-22.56l-1.07-2.6h17.08Zm-1.4,12.83h-15.76l1.07-2.59h22.72l1.07,2.59H1346Z" style="fill:#a12573"/></g><g id="rupie-8" data-name="rupie"><polygon points="1373.57 245.51 1381.03 238.01 1407.94 238.01 1415.4 245.51 1407.94 253 1381.03 253 1373.57 245.51" style="fill:#fde9f2"/><polygon points="1373.57 245.51 1373.57 245.51 1415.4 245.51 1415.4 245.51 1407.94 253 1381.03 253 1373.57 245.51" style="fill:#ee2e7b"/><polygon points="1378.74 245.51 1382.54 241.69 1406.43 241.69 1410.23 245.51 1406.43 249.33 1382.54 249.33 1378.74 245.51" style="fill:#eab7d5"/><path d="M1407.94,238H1381l-7.46,7.5L1381,253h26.91l7.46-7.49Zm-1.1,10.9,2.85-2.87h3.65l-5.43,5.47Zm-25.78,2.6-5.43-5.47h3.65l2.85,2.87Zm1.13-9.47-2.91,2.93h-3.65l5.49-5.52Zm.8,6.21-2.73-2.74,2.73-2.75h23l2.73,2.75-2.73,2.74h-23Zm26.7-3.28-2.91-2.93,1.07-2.59,5.49,5.52Zm-10.47-5.88h7.62l-1.07,2.6h-22.56l-1.07-2.6h17.08Zm-1.4,12.83h-15.77l1.07-2.59h22.73l1.07,2.59h-9.1Z" style="fill:#a12573"/></g></g><polygon points="1024.86 267.71 1024.86 225.31 1032.06 228.19 1032.06 263.71 1024.86 267.71" style="fill:#fde9f2"/><path d="M1024.36,224.57l8.2,3.28V264l-8.2,4.56Zm7.2,4-6.2-2.47v40.81l6.2-3.45Z" style="fill:#a12573"/><g id="tube-right"><g style="opacity:0.4"><rect x="1032.55" y="230.43" width="382.09" height="30.64" transform="translate(2447.19 491.5) rotate(-180)" style="fill:#a0dbe3"/></g><rect x="1032.57" y="232.31" width="382.07" height="2.94" transform="translate(2447.21 467.56) rotate(-180)" style="fill:#fff"/></g><g style="opacity:0.8"><rect x="41.65" y="77.12" width="342.92" height="30.64" style="fill:#fff"/></g><g id="rupie-left-tube"><g id="rupie-9" data-name="rupie"><polygon points="406.2 92.19 398.74 84.7 371.83 84.7 364.37 92.19 371.83 99.69 398.74 99.69 406.2 92.19" style="fill:#fde9f2"/><polygon points="406.2 92.19 406.2 92.19 364.37 92.19 364.37 92.19 371.83 99.69 398.74 99.69 406.2 92.19" style="fill:#ee2e7b"/><polygon points="401.03 92.19 397.23 88.37 373.34 88.37 369.54 92.19 373.34 96.01 397.23 96.01 401.03 92.19" style="fill:#eab7d5"/><path d="M398.74,84.7H371.83l-7.46,7.49,7.46,7.5h26.91l7.46-7.5Zm-1.1,10.9,2.85-2.87h3.65l-5.43,5.46Zm-25.78,2.59-5.43-5.46h3.65l2.85,2.87ZM373,88.73l-2.91,2.92h-3.65l5.49-5.52Zm.8,6.2-2.73-2.74,2.73-2.74h23l2.73,2.74-2.73,2.74h-23Zm26.7-3.28-2.91-2.92,1.07-2.6,5.49,5.52ZM382,85.78h15.68l-1.07,2.59H374l-1.07-2.59h9Zm-1.4,12.83h-7.7l1.07-2.6h22.73l1.07,2.6H380.55Z" style="fill:#a12573"/></g><g id="rupie-10" data-name="rupie"><polygon points="354.08 92.19 346.63 84.7 319.71 84.7 312.26 92.19 319.71 99.69 346.63 99.69 354.08 92.19" style="fill:#fde9f2"/><polygon points="354.08 92.19 354.08 92.19 312.26 92.19 312.26 92.19 319.71 99.69 346.63 99.69 354.08 92.19" style="fill:#ee2e7b"/><polygon points="348.91 92.19 345.11 88.37 321.23 88.37 317.43 92.19 321.23 96.01 345.11 96.01 348.91 92.19" style="fill:#eab7d5"/><path d="M346.63,84.7H319.71l-7.45,7.49,7.45,7.5h26.92l7.45-7.5Zm-1.1,10.9,2.85-2.87H352l-5.43,5.46Zm-25.78,2.59-5.44-5.46H318l2.85,2.87Zm1.12-9.46L318,91.65h-3.65l5.49-5.52Zm.81,6.2L319,92.19l2.73-2.74h23l2.72,2.74-2.72,2.74h-23Zm26.7-3.28-2.91-2.92,1.07-2.6L352,91.65Zm-18.54-5.87h15.68l-1.07,2.59H321.89l-1.07-2.59h9Zm-1.4,12.83h-7.7l1.07-2.6h22.72l1.07,2.6H328.44Z" style="fill:#a12573"/></g><g id="rupie-11" data-name="rupie"><polygon points="301.9 92.19 294.45 84.7 267.53 84.7 260.08 92.19 267.53 99.69 294.45 99.69 301.9 92.19" style="fill:#fde9f2"/><polygon points="301.9 92.19 301.9 92.19 260.08 92.19 260.08 92.19 267.53 99.69 294.45 99.69 301.9 92.19" style="fill:#ee2e7b"/><polygon points="296.73 92.19 292.93 88.37 269.05 88.37 265.25 92.19 269.05 96.01 292.93 96.01 296.73 92.19" style="fill:#eab7d5"/><path d="M294.45,84.7H267.53l-7.45,7.49,7.45,7.5h26.92l7.45-7.5Zm-1.1,10.9,2.85-2.87h3.65l-5.44,5.46Zm-25.79,2.59-5.43-5.46h3.65l2.85,2.87Zm1.13-9.46-2.91,2.92h-3.65l5.49-5.52Zm.8,6.2-2.72-2.74,2.72-2.74h23l2.73,2.74-2.73,2.74h-23Zm26.71-3.28-2.91-2.92,1.07-2.6,5.49,5.52Zm-18.54-5.87h15.68l-1.07,2.59H269.71l-1.07-2.59h9Zm-1.4,12.83h-7.7l1.07-2.6h22.72l1.07,2.6H276.26Z" style="fill:#a12573"/></g><g id="rupie-12" data-name="rupie"><polygon points="250.13 92.19 242.67 84.7 215.76 84.7 208.3 92.19 215.76 99.69 242.67 99.69 250.13 92.19" style="fill:#fde9f2"/><polygon points="250.13 92.19 250.13 92.19 208.3 92.19 208.3 92.19 215.76 99.69 242.67 99.69 250.13 92.19" style="fill:#ee2e7b"/><polygon points="244.96 92.19 241.16 88.37 217.27 88.37 213.47 92.19 217.27 96.01 241.16 96.01 244.96 92.19" style="fill:#eab7d5"/><path d="M242.67,84.7H215.76l-7.46,7.49,7.46,7.5h26.91l7.46-7.5Zm-1.1,10.9,2.85-2.87h3.65l-5.43,5.46Zm-25.78,2.59-5.43-5.46H214l2.85,2.87Zm1.13-9.46L214,91.65h-3.65l5.49-5.52Zm.8,6.2L215,92.19l2.73-2.74h23l2.73,2.74-2.73,2.74h-23Zm26.7-3.28-2.91-2.92,1.07-2.6,5.49,5.52Zm-18.54-5.87h15.68l-1.07,2.59H217.93l-1.07-2.59h9Zm-1.4,12.83h-7.7l1.07-2.6h22.72l1.08,2.6H224.48Z" style="fill:#a12573"/></g><g id="rupie-13" data-name="rupie"><polygon points="198.89 92.19 191.43 84.7 164.52 84.7 157.06 92.19 164.52 99.69 191.43 99.69 198.89 92.19" style="fill:#fde9f2"/><polygon points="198.89 92.19 198.89 92.19 157.06 92.19 157.06 92.19 164.52 99.69 191.43 99.69 198.89 92.19" style="fill:#ee2e7b"/><polygon points="193.72 92.19 189.92 88.37 166.03 88.37 162.23 92.19 166.03 96.01 189.92 96.01 193.72 92.19" style="fill:#eab7d5"/><path d="M191.43,84.7H164.52l-7.46,7.49,7.46,7.5h26.91l7.46-7.5Zm5.4,7h-3.65l-2.91-2.92,1.07-2.6Zm-4.63.54-2.73,2.74h-23l-2.73-2.74,2.73-2.74h23Zm-19-6.41h17.08l-1.07,2.59H166.69l-1.07-2.59Zm-8.63.35,1.07,2.6-2.91,2.92h-3.65Zm-5.49,6.6h3.65l2.85,2.87-1.07,2.59Zm15.52,5.88h-9.1l1.07-2.6h22.73l1.07,2.6Zm16.76-.42-1.07-2.59,2.85-2.87h3.65Z" style="fill:#a12573"/></g><g id="rupie-14" data-name="rupie"><polygon points="146.78 92.19 139.32 84.7 112.4 84.7 104.95 92.19 112.4 99.69 139.32 99.69 146.78 92.19" style="fill:#fde9f2"/><polygon points="146.78 92.19 146.78 92.19 104.95 92.19 104.95 92.19 112.4 99.69 139.32 99.69 146.78 92.19" style="fill:#ee2e7b"/><polygon points="141.6 92.19 137.81 88.37 113.92 88.37 110.12 92.19 113.92 96.01 137.81 96.01 141.6 92.19" style="fill:#eab7d5"/><path d="M139.32,84.7H112.4L105,92.19l7.45,7.5h26.92l7.45-7.5Zm-1.1,10.9,2.85-2.87h3.65l-5.43,5.46Zm-25.78,2.59L107,92.73h3.65l2.86,2.87Zm1.12-9.46-2.91,2.92H107l5.49-5.52Zm.81,6.2-2.73-2.74,2.73-2.74h23l2.72,2.74-2.72,2.74h-23Zm26.7-3.28-2.91-2.92,1.07-2.6,5.49,5.52Zm-18.54-5.87h15.68l-1.07,2.59H114.58l-1.07-2.59h9Zm-1.4,12.83h-7.7L114.5,96h22.72l1.07,2.6H121.13Z" style="fill:#a12573"/></g><g id="rupie-15" data-name="rupie"><polygon points="94.59 92.19 87.14 84.7 60.22 84.7 52.77 92.19 60.22 99.69 87.14 99.69 94.59 92.19" style="fill:#fde9f2"/><polygon points="94.59 92.19 94.59 92.19 52.77 92.19 52.77 92.19 60.22 99.69 87.14 99.69 94.59 92.19" style="fill:#ee2e7b"/><polygon points="89.42 92.19 85.62 88.37 61.74 88.37 57.94 92.19 61.74 96.01 85.62 96.01 89.42 92.19" style="fill:#eab7d5"/><path d="M87.14,84.7H60.22l-7.45,7.49,7.45,7.5H87.14l7.45-7.5ZM86,95.6l2.85-2.87h3.65L87.1,98.19ZM60.25,98.19l-5.43-5.46h3.65l2.85,2.87Zm1.13-9.46-2.91,2.92H54.82l5.49-5.52Zm.8,6.2-2.72-2.74,2.72-2.74h23l2.72,2.74-2.72,2.74h-23Zm26.71-3.28L86,88.73l1.07-2.6,5.49,5.52ZM70.35,85.78H86L85,88.37H62.4l-1.07-2.59h9ZM69,98.61h-7.7L62.32,96H85l1.07,2.6H69Z" style="fill:#a12573"/></g><g id="rupie-16" data-name="rupie"><polygon points="42.82 92.19 35.36 84.7 8.45 84.7 0.99 92.19 8.45 99.69 35.36 99.69 42.82 92.19" style="fill:#fde9f2"/><polygon points="42.82 92.19 42.82 92.19 0.99 92.19 0.99 92.19 8.45 99.69 35.36 99.69 42.82 92.19" style="fill:#ee2e7b"/><polygon points="37.65 92.19 33.85 88.37 9.96 88.37 6.16 92.19 9.96 96.01 33.85 96.01 37.65 92.19" style="fill:#eab7d5"/><path d="M35.36,84.7H8.45L1,92.19l7.46,7.5H35.36l7.46-7.5Zm-1.1,10.9,2.85-2.87h3.65l-5.43,5.46ZM8.48,98.19,3.05,92.73H6.7L9.55,95.6Zm1.13-9.46L6.7,91.65H3.05l5.49-5.52Zm.8,6.2L7.68,92.19l2.73-2.74h23l2.73,2.74L33.4,94.93h-23Zm26.7-3.28L34.2,88.73l1.07-2.6,5.49,5.52ZM18.57,85.78H34.25l-1.07,2.59H10.62L9.55,85.78h9Zm-1.4,12.83H9.47L10.54,96H33.27l1.07,2.6H17.17Z" style="fill:#a12573"/></g></g><polygon points="391.53 114.39 391.53 72 384.33 74.87 384.33 110.4 391.53 114.39" style="fill:#fde9f2"/><path d="M392,115.25l-8.2-4.56V74.53l8.2-3.27Zm-7.2-5.15,6.2,3.45V72.74l-6.2,2.47Z" style="fill:#a12573"/><g id="tube-left"><g style="opacity:0.4"><rect x="1.75" y="77.12" width="382.09" height="30.64" style="fill:#a0dbe3"/></g><rect x="1.75" y="78.99" width="382.07" height="2.94" style="fill:#fff"/></g><polyline points="920.97 273.4 978.75 273.4 978.75 268.79 920.97 268.79" style="fill:#fff"/><polygon points="979.33 273.98 920.97 273.98 920.97 272.83 978.18 272.83 978.18 269.36 920.97 269.36 920.97 268.21 979.33 268.21 979.33 273.98" style="fill:#7d3a90"/><rect x="965.01" y="221.52" width="1.15" height="50.94" transform="translate(11.34 534.7) rotate(-31.13)" style="fill:#7d3a90"/><rect x="940.12" y="246.41" width="50.94" height="1.15" transform="translate(254.43 945.28) rotate(-58.83)" style="fill:#7d3a90"/><rect x="938.82" y="221.52" width="1.15" height="50.94" transform="translate(7.57 521.16) rotate(-31.13)" style="fill:#7d3a90"/><rect x="913.93" y="246.41" width="50.94" height="1.15" transform="translate(241.8 922.87) rotate(-58.83)" style="fill:#7d3a90"/><polyline points="920.97 225.18 978.75 225.18 978.75 220.01 920.97 220.01" style="fill:#fff"/><polygon points="979.33 225.76 920.97 225.76 920.97 224.61 978.18 224.61 978.18 220.58 920.97 220.58 920.97 219.43 979.33 219.43 979.33 225.76" style="fill:#7d3a90"/><rect x="969.69" y="223.78" width="64.22" height="45.57" transform="translate(755.24 1248.37) rotate(-90)" style="fill:#ee2e7b"/><path d="M1025.17,279.25H978.44V213.88h46.73Zm-45.58-1.15H1024V215H979.59Z" style="fill:#7e3a90"/><rect x="1024.01" y="214.46" width="1.15" height="64.22" style="fill:#7e3a90"/><line x1="952.42" y1="268.79" x2="952.42" y2="225.18" style="fill:#ee2e7b"/><rect x="951.85" y="225.18" width="1.15" height="43.6" style="fill:#7e3a90"/><rect x="987.77" y="266.18" width="10.83" height="1.15" style="fill:#7e3a90"/><rect x="987.77" y="262.14" width="10.83" height="1.15" style="fill:#7e3a90"/><rect x="987.77" y="258.09" width="10.83" height="1.15" style="fill:#7e3a90"/><rect x="987.77" y="254.04" width="10.83" height="1.15" style="fill:#7e3a90"/><rect x="987.77" y="250" width="10.83" height="1.15" style="fill:#7e3a90"/><polyline points="1011.65 268.27 1009.47 269.11 1008.62 266.93" style="fill:#ee2e7b"/><polygon points="1009.14 269.86 1008.09 267.14 1009.16 266.73 1009.8 268.37 1011.44 267.73 1011.85 268.8 1009.14 269.86" style="fill:#7e3a90"/><circle cx="1011.24" cy="265.09" r="3.57" style="fill:#e8b7d5"/><path d="M1011.24,269.24a4.16,4.16,0,0,1-3.79-5.83h0a4.15,4.15,0,1,1,3.79,5.83Zm-2.74-5.36a3,3,0,1,0,1.66-1.59,3,3,0,0,0-1.66,1.59Z" style="fill:#7e3a90"/><polyline points="1013.73 250.75 1015.22 252.54 1013.43 254.04" style="fill:#ee2e7b"/><polygon points="1013.79 254.48 1013.06 253.6 1014.41 252.47 1013.28 251.12 1014.17 250.38 1016.03 252.62 1013.79 254.48" style="fill:#7e3a90"/><circle cx="1010.84" cy="252.14" r="3.57" style="fill:#e8b7d5"/><path d="M1010.85,256.29h-.39a4.15,4.15,0,0,1-3.75-4.51,4.06,4.06,0,0,1,1.48-2.81,4.14,4.14,0,0,1,6.78,3.56,4.15,4.15,0,0,1-4.12,3.77Zm-.28-1.16a3,3,0,0,0,3.26-2.71,3,3,0,1,0-6-.55,3,3,0,0,0,2.71,3.26Z" style="fill:#7e3a90"/><rect x="988.89" y="229.48" width="6.81" height="6.81" transform="translate(759.41 1225.18) rotate(-90)" style="fill:#fde9f2"/><rect x="1002.65" y="222.86" width="6.81" height="6.81" transform="translate(779.79 1232.33) rotate(-90)" style="fill:#fde9f2"/><rect x="1002.65" y="228.91" width="6.81" height="6.81" transform="translate(773.74 1238.37) rotate(-90)" style="fill:#fde9f2"/><rect x="1009.57" y="229.48" width="6.81" height="6.81" transform="translate(780.09 1245.86) rotate(-90)" style="fill:#e8b7d5"/><rect x="995.96" y="222.86" width="6.81" height="6.81" transform="translate(773.1 1225.64) rotate(-90)" style="fill:#e8b7d5"/><rect x="995.12" y="222.46" width="1.15" height="13.83" style="fill:#7e3a90"/><rect x="1002.12" y="222.46" width="1.15" height="13.83" style="fill:#7e3a90"/><rect x="988.89" y="228.79" width="27.65" height="1.15" style="fill:#7e3a90"/><rect x="1009.12" y="222.46" width="1.15" height="13.83" style="fill:#7e3a90"/><path d="M1017.28,236.87h-29v-15h29Zm-27.82-1.16h26.66V223H989.46Z" style="fill:#7e3a90"/><polyline points="494.39 120.09 436.62 120.09 436.62 115.47 494.39 115.47" style="fill:#fff"/><polygon points="494.39 120.67 436.04 120.67 436.04 114.9 494.39 114.9 494.39 116.05 437.19 116.05 437.19 119.51 494.39 119.51 494.39 120.67" style="fill:#7d3a90"/><rect x="424.31" y="93.09" width="50.93" height="1.15" transform="translate(137.26 430.43) rotate(-58.9)" style="fill:#7d3a90"/><rect x="449.2" y="68.2" width="1.15" height="50.93" transform="translate(16.33 245.99) rotate(-31.13)" style="fill:#7d3a90"/><rect x="450.5" y="93.09" width="50.93" height="1.15" transform="translate(149.92 452.85) rotate(-58.9)" style="fill:#7d3a90"/><rect x="475.39" y="68.2" width="1.15" height="50.93" transform="translate(20.1 259.53) rotate(-31.13)" style="fill:#7d3a90"/><polyline points="494.39 71.87 436.62 71.87 436.62 66.69 494.39 66.69" style="fill:#fff"/><polygon points="494.39 72.45 436.04 72.45 436.04 66.12 494.39 66.12 494.39 67.27 437.19 67.27 437.19 71.3 494.39 71.3 494.39 72.45" style="fill:#7d3a90"/><rect x="381.72" y="70.46" width="64.22" height="45.57" transform="translate(320.58 507.08) rotate(-90)" style="fill:#ee2e7b"/><path d="M437.19,125.94H390.46V60.57h46.73Zm-45.57-1.15H436V61.72H391.62Z" style="fill:#7e3a90"/><rect x="436.04" y="61.14" width="1.15" height="64.22" style="fill:#7e3a90"/><rect x="462.37" y="71.87" width="1.15" height="43.6" style="fill:#7e3a90"/><rect x="399.79" y="112.87" width="10.83" height="1.15" style="fill:#7e3a90"/><rect x="399.79" y="108.82" width="10.83" height="1.15" style="fill:#7e3a90"/><rect x="399.79" y="104.78" width="10.83" height="1.15" style="fill:#7e3a90"/><rect x="399.79" y="100.73" width="10.83" height="1.15" style="fill:#7e3a90"/><rect x="399.79" y="96.68" width="10.83" height="1.15" style="fill:#7e3a90"/><polyline points="423.67 114.95 421.49 115.8 420.65 113.62" style="fill:#ee2e7b"/><polygon points="421.16 116.54 420.11 113.83 421.19 113.41 421.82 115.05 423.46 114.42 423.88 115.49 421.16 116.54" style="fill:#7e3a90"/><circle cx="423.27" cy="111.77" r="3.57" style="fill:#e8b7d5"/><path d="M423.27,115.92a4.16,4.16,0,1,1,1.5-.28A4.12,4.12,0,0,1,423.27,115.92Zm0-7.14a3,3,0,1,0,2.79,1.91,2.93,2.93,0,0,0-1.58-1.66A3,3,0,0,0,423.27,108.78Z" style="fill:#7e3a90"/><polyline points="425.75 97.44 427.25 99.23 425.45 100.73" style="fill:#ee2e7b"/><polygon points="425.82 101.17 425.08 100.28 426.44 99.16 425.31 97.8 426.19 97.07 428.06 99.31 425.82 101.17" style="fill:#7e3a90"/><circle cx="422.87" cy="98.83" r="3.57" style="fill:#e8b7d5"/><path d="M422.87,103l-.38,0h0a4.17,4.17,0,0,1-3.76-4.51,4.15,4.15,0,1,1,4.14,4.53Zm0-7.15a3,3,0,0,0-3,2.73,3,3,0,0,0,.68,2.19,3,3,0,0,0,2,1.06h0a3,3,0,1,0,.55-6Z" style="fill:#7e3a90"/><rect x="400.91" y="76.16" width="6.81" height="6.81" transform="translate(324.75 483.89) rotate(-90)" style="fill:#fde9f2"/><rect x="414.67" y="69.55" width="6.81" height="6.81" transform="translate(345.13 491.04) rotate(-90)" style="fill:#fde9f2"/><rect x="414.67" y="75.6" width="6.81" height="6.81" transform="translate(339.08 497.08) rotate(-90)" style="fill:#fde9f2"/><rect x="421.59" y="76.16" width="6.81" height="6.81" transform="translate(345.43 504.57) rotate(-90)" style="fill:#e8b7d5"/><rect x="407.99" y="69.55" width="6.81" height="6.81" transform="translate(338.44 484.35) rotate(-90)" style="fill:#e8b7d5"/><rect x="407.15" y="69.14" width="1.15" height="13.83" style="fill:#7e3a90"/><rect x="414.15" y="69.14" width="1.15" height="13.83" style="fill:#7e3a90"/><rect x="400.91" y="75.47" width="27.65" height="1.15" style="fill:#7e3a90"/><rect x="421.15" y="69.14" width="1.15" height="13.83" style="fill:#7e3a90"/><path d="M429.3,83.55h-29v-15h29ZM401.49,82.4h26.66V69.72H401.49Z" style="fill:#7e3a90"/><rect x="853.2" y="328.37" width="49.98" height="1.6" style="fill:#a12573"/><polyline points="797.97 329.17 920.85 329.17 920.85 9.98 494.04 9.98 494.04 329.17 542.12 329.17" style="fill:#544da0"/><polygon points="921.53 329.97 797.97 329.97 797.97 328.37 920.17 328.37 920.17 10.78 494.71 10.78 494.71 328.37 542.12 328.37 542.12 329.97 493.36 329.97 493.36 9.18 921.53 9.18 921.53 329.97" style="fill:#a12573"/><polygon points="798.2 329.17 921.13 329.17 921.13 9.98 494.16 9.98 494.16 329.17 542.26 329.17 798.2 329.17" style="fill:#cf82aa"/><polygon points="505.36 318.15 494.16 329.17 494.16 9.98 919.96 9.98 909.63 21 505.36 21 505.36 318.15" style="fill:#eab7d5"/><rect x="505.23" y="21" width="404.71" height="297.15" style="fill:#544da0"/><path d="M910.61,319h-406V20.2H910.61Zm-404.71-1.6H909.27V21.8H505.9Z" style="fill:#673996"/><rect x="853.2" y="328.37" width="49.98" height="1.6" style="fill:#a12573"/><line x1="505.36" y1="21" x2="494.25" y2="9.89" style="fill:#544da0"/><rect x="499" y="7.59" width="1.6" height="15.71" transform="translate(135.44 357.91) rotate(-45)" style="fill:#673996"/><line x1="909.64" y1="21" x2="920.83" y2="9.98" style="fill:#544da0"/><rect x="907.38" y="14.69" width="15.71" height="1.6" transform="translate(251.86 646.23) rotate(-44.53)" style="fill:#673996"/><line x1="909.64" y1="318.15" x2="920.83" y2="329.17" style="fill:#544da0"/><rect x="914.44" y="315.8" width="1.6" height="15.71" transform="translate(42.56 748.92) rotate(-45.46)" style="fill:#673996"/><line x1="505.36" y1="318.15" x2="494.16" y2="329.17" style="fill:#544da0"/><rect x="491.9" y="322.86" width="15.71" height="1.6" transform="translate(-83.5 443.35) rotate(-44.53)" style="fill:#673996"/><path d="M921.49,330H493.36V9.18H921.49Zm-426.78-1.6H920.14V10.78H494.71Z" style="fill:#673996"/><g id="rupie-coin"><path d="M768.46,162.66h9.27a54,54,0,0,0,0-107.91h-9.27" style="fill:#f0cae0"/><path d="M714.5,108.7a54,54,0,1,0,54-53.95A54,54,0,0,0,714.5,108.7Z" style="fill:#f7fcfe"/><path d="M719.56,108.7a48.9,48.9,0,1,0,48.9-48.89,48.9,48.9,0,0,0-48.9,48.89Zm48.9-48.89a48.9,48.9,0,1,0,0,97.79h0" style="fill:#f6ebf4"/><path d="M719.3,108.7a49.16,49.16,0,1,1,49.16,49.16h0A49.21,49.21,0,0,1,719.3,108.7Zm.5,0a48.66,48.66,0,1,0,48.66-48.65h0A48.73,48.73,0,0,0,719.8,108.7Z" style="fill:#7f3b90"/><polygon points="768.46 71.4 792.46 95.28 792.46 103.73 792.46 118.08 792.46 122.13 768.46 146.01 744.46 122.13 744.46 118.08 744.46 103.73 744.46 95.28 768.46 71.4" style="fill:#da1a5e"/><path d="M744.22,122.23v-27l24.24-24.12,24.26,24.12v27.05l-24.26,24.18Zm48-26.85L768.46,71.76,744.64,95.38V122l23.82,23.62L792.2,122Z" style="fill:#7e3b90"/><polyline points="768.46 71.4 792.46 95.28 792.46 103.73 792.46 118.08 792.46 122.13 768.46 146.01" style="fill:#f0bfd9"/><polygon points="768.64 146.19 792.72 122.23 792.72 95.18 768.64 71.22 768.28 71.58 792.22 95.38 792.22 122.03 768.28 145.83 768.64 146.19" style="fill:#7f3b90"/><rect x="743.85" y="118.89" width="15.19" height="0.5" transform="translate(13.21 303.21) rotate(-23.01)" style="fill:#7f3b90"/><rect x="768.22" y="126.15" width="0.5" height="19.84" style="fill:#7f3b90"/><rect x="785.22" y="111.57" width="0.5" height="15.19" transform="translate(368.76 795.56) rotate(-66.99)" style="fill:#7f3b90"/><rect x="751.22" y="90.66" width="0.5" height="15.19" transform="translate(367.51 751.66) rotate(-67.01)" style="fill:#7f3b90"/><rect x="768.22" y="71.4" width="0.5" height="19.84" style="fill:#7f3b90"/><rect x="777.87" y="98" width="15.19" height="0.5" transform="translate(24.16 315.12) rotate(-23.03)" style="fill:#7f3b90"/><polygon points="768.46 91.26 778.49 101.21 778.49 103.73 778.49 114.58 778.49 116.2 768.46 126.15 758.45 116.2 758.45 114.58 758.45 103.73 758.45 101.21 768.46 91.26" style="fill:#de6279"/><path d="M758.19,116.3V101.11L768.46,90.9l10.27,10.21V116.3l-10.27,10.13Zm20-15L768.4,91.6l-9.77,9.71V116.1l9.77,9.71,9.77-9.71Z" style="fill:#7e3b90"/><path d="M768.46,157.6a48.9,48.9,0,1,1,0-97.79H770a48.89,48.89,0,0,0,.28,97.71" style="fill:#f0cae0"/><path d="M719.3,108.7a49.21,49.21,0,0,1,49.16-49.15H770v.54a48.65,48.65,0,0,0,.26,97.23v.5l-1.76-.1v.14A49.21,49.21,0,0,1,719.3,108.7Zm.5,0a48.72,48.72,0,0,0,43.42,48.38,49.17,49.17,0,0,1-.12-96.73A48.71,48.71,0,0,0,719.8,108.7Z" style="fill:#7f3b90"/><path d="M777.73,54.49h-9.27a54.22,54.22,0,1,0,0,108.43h9.27a54.22,54.22,0,0,0,0-108.43Zm53.71,54.22c0,.6,0,1.2-.05,1.79h-8.76c0-.6,0-1.19,0-1.8s0-1.21,0-1.81h8.76C831.41,107.49,831.44,108.1,831.44,108.71ZM812.86,139.8h8.65q-1.32,1.86-2.79,3.59h-8.61C811.08,142.24,812,141,812.86,139.8Zm.35-.5c.81-1.17,1.56-2.38,2.27-3.62h8.69c-.72,1.24-1.49,2.45-2.3,3.62Zm2.55-4.12c.66-1.18,1.28-2.38,1.86-3.62h8.72c-.59,1.24-1.22,2.44-1.89,3.62Zm2.08-4.11c.54-1.19,1-2.39,1.5-3.62h8.73c-.46,1.23-1,2.43-1.51,3.62Zm1.68-4.12c.42-1.18.79-2.38,1.13-3.6h8.75q-.51,1.83-1.14,3.6Zm1.28-4.1c.32-1.19.6-2.39.84-3.61h8.76c-.24,1.22-.53,2.42-.86,3.61Zm.93-4.11c.22-1.2.41-2.4.55-3.62H831c-.14,1.22-.32,2.42-.55,3.62Zm-8.52-40.63h8.66c.81,1.17,1.58,2.38,2.3,3.62h-8.69C814.77,80.49,814,79.28,813.21,78.11ZM810.1,74h8.6c1,1.17,1.92,2.37,2.81,3.62h-8.65C812,76.37,811.07,75.16,810.1,74Zm14.35,8.24c.67,1.18,1.3,2.38,1.89,3.61h-8.72c-.58-1.23-1.2-2.43-1.86-3.61Zm2.11,4.11c.54,1.18,1.05,2.38,1.5,3.6h-8.73c-.45-1.22-1-2.42-1.49-3.6Zm1.69,4.1c.43,1.18.8,2.39,1.15,3.62h-8.75c-.34-1.23-.72-2.43-1.14-3.62Zm1.29,4.12c.33,1.19.62,2.39.86,3.61h-8.76c-.24-1.22-.52-2.42-.84-3.61Zm1,4.11c.23,1.19.41,2.4.55,3.62h-8.76c-.14-1.22-.33-2.42-.55-3.62Zm-8.14,16c.12-1.2.21-2.4.26-3.62h8.77c0,1.22-.14,2.42-.27,3.62Zm.26-8.23c-.05-1.21-.14-2.41-.26-3.6h8.76q.2,1.78.27,3.6Zm-4.34-32.9h-8.61c-1.06-1.25-2.19-2.45-3.36-3.59h8.54Q816.64,71.61,818.27,73.49ZM795.4,61.66h8.26a53.93,53.93,0,0,1,5.67,3.62h-8.41A54.61,54.61,0,0,0,795.4,61.66Zm7.33-.5h-8.2a54.21,54.21,0,0,0-8.12-3.61h7.71A54,54,0,0,1,802.73,61.16ZM810,65.78a54.88,54.88,0,0,1,4.3,3.62h-8.55a51.81,51.81,0,0,0-4.21-3.62ZM777.73,55a53.67,53.67,0,0,1,14.71,2.06H785A54.22,54.22,0,0,0,775.73,55ZM714.66,108.7h0a53.78,53.78,0,0,1,86.05-42.95l0,0a54.15,54.15,0,0,1,11.73,12.16l.12.17q1.32,1.9,2.48,3.93v.19h.11A53.74,53.74,0,1,1,714.66,108.7Zm79.87,47.54h8.2a52.39,52.39,0,0,1-8.55,3.6h-7.71A53.49,53.49,0,0,0,794.53,156.24Zm.87-.5a56.29,56.29,0,0,0,5.52-3.61h8.41a52.28,52.28,0,0,1-5.67,3.61Zm6.16-4.11a53.86,53.86,0,0,0,4.21-3.62h8.55a54.88,54.88,0,0,1-4.3,3.62Zm-25.83,10.79a54,54,0,0,0,9.27-2.08h7.51a53.8,53.8,0,0,1-14.78,2.08Zm39.11-14.91H806.3q1.77-1.72,3.38-3.62h8.61Q816.64,145.78,814.84,147.51Z" style="fill:#7f3b90"/><polygon points="801.03 104.31 801.03 105.67 801.03 111.44 801.03 112.1 804.93 115.98 804.93 100.41 801.03 104.31" style="fill:#bd1e52"/><polygon points="804.93 100.41 808.82 104.31 808.82 105.67 808.82 111.44 808.82 112.1 804.93 115.98 804.93 100.41" style="fill:#f2d5e6"/><polygon points="804.93 103.65 806.57 105.27 806.57 105.67 806.57 110.86 806.57 111.14 804.93 112.76 803.31 111.14 803.31 110.86 803.31 105.67 803.31 105.27 804.93 103.65" style="fill:#c97ea8"/><path d="M804.93,100.07l-4.16,4.14v8l4.16,4.24,4.15-4.24v-8Zm1.61,4.91-1.37-1.37v-2.56l3.17,3.16Zm-1.61,7.42L803.55,111v-5.65l1.38-1.36,1.38,1.36V111Zm-.26-8.77L803.3,105l-1.81-.77,3.18-3.16Zm-1.62,1.8v5.51l-1.78.76v-7Zm.17,6,1.45,1.45v2.56l-3.26-3.24Zm1.95,1.47,1.44-1.44,1.78.75-3.22,3.25Zm1.64-1.9V105.4l1.77-.75v7.08Z" style="fill:#7e3b90"/><polygon points="729.19 104.31 729.19 105.67 729.19 111.44 729.19 112.1 733.09 115.98 733.09 100.41 729.19 104.31" style="fill:#bd1e52"/><polygon points="733.09 100.41 736.99 104.31 736.99 105.67 736.99 111.44 736.99 112.1 733.09 115.98 733.09 100.41" style="fill:#f2d5e6"/><polygon points="733.09 103.65 734.73 105.27 734.73 105.67 734.73 110.86 734.73 111.14 733.09 112.76 731.47 111.14 731.47 110.86 731.47 105.67 731.47 105.27 733.09 103.65" style="fill:#c97ea8"/><path d="M733.09,100.07l-4.16,4.14v8l4.16,4.24,4.15-4.24v-8ZM734.7,105l-1.37-1.37v-2.56l3.17,3.16Zm-1.61,7.42L731.71,111v-5.65l1.38-1.36,1.38,1.36V111Zm-.26-8.77L731.46,105l-1.81-.77,3.18-3.16Zm-1.62,1.8v5.51l-1.78.76v-7Zm.17,6,1.45,1.45v2.56l-3.26-3.24Zm2,1.47,1.44-1.44,1.78.75-3.22,3.25ZM735,111V105.4l1.78-.75v7.08Z" style="fill:#7e3b90"/></g><g id="rupie-coin-2" data-name="rupie-coin"><path d="M634.23,162.66h9.27a54,54,0,0,0,0-107.91h-9.27" style="fill:#f0cae0"/><path d="M580.27,108.7a54,54,0,1,0,54-53.95A54,54,0,0,0,580.27,108.7Z" style="fill:#f7fcfe"/><path d="M585.33,108.7a48.9,48.9,0,1,0,48.9-48.89,48.9,48.9,0,0,0-48.9,48.89Zm48.9-48.89a48.9,48.9,0,1,0,0,97.79h0" style="fill:#f6ebf4"/><path d="M585.07,108.7a49.16,49.16,0,1,1,49.16,49.16h0A49.21,49.21,0,0,1,585.07,108.7Zm.5,0a48.66,48.66,0,1,0,48.66-48.65h0A48.73,48.73,0,0,0,585.57,108.7Z" style="fill:#7f3b90"/><polygon points="634.23 71.4 658.23 95.28 658.23 103.73 658.23 118.08 658.23 122.13 634.23 146.01 610.23 122.13 610.23 118.08 610.23 103.73 610.23 95.28 634.23 71.4" style="fill:#da1a5e"/><path d="M610,122.23v-27l24.24-24.12,24.26,24.12v27.05l-24.26,24.18Zm48-26.85L634.23,71.76,610.41,95.38V122l23.82,23.62L658,122Z" style="fill:#7e3b90"/><polyline points="634.23 71.4 658.23 95.28 658.23 103.73 658.23 118.08 658.23 122.13 634.23 146.01" style="fill:#f0bfd9"/><polygon points="634.41 146.19 658.49 122.23 658.49 95.18 634.41 71.22 634.05 71.58 657.99 95.38 657.99 122.03 634.05 145.83 634.41 146.19" style="fill:#7f3b90"/><rect x="609.62" y="118.89" width="15.19" height="0.5" transform="translate(2.53 250.74) rotate(-23.01)" style="fill:#7f3b90"/><rect x="633.99" y="126.15" width="0.5" height="19.84" style="fill:#7f3b90"/><rect x="650.99" y="111.57" width="0.5" height="15.19" transform="translate(286.99 672.01) rotate(-66.99)" style="fill:#7f3b90"/><rect x="616.99" y="90.66" width="0.5" height="15.19" transform="translate(285.71 628.09) rotate(-67.01)" style="fill:#7f3b90"/><rect x="633.99" y="71.4" width="0.5" height="19.84" style="fill:#7f3b90"/><rect x="643.64" y="98" width="15.19" height="0.5" transform="translate(13.47 262.6) rotate(-23.03)" style="fill:#7f3b90"/><polygon points="634.23 91.26 644.26 101.21 644.26 103.73 644.26 114.58 644.26 116.2 634.23 126.15 624.22 116.2 624.22 114.58 624.22 103.73 624.22 101.21 634.23 91.26" style="fill:#de6279"/><path d="M624,116.3V101.11L634.23,90.9l10.27,10.21V116.3l-10.27,10.13Zm20-15-9.77-9.73-9.77,9.71V116.1l9.77,9.71,9.77-9.71Z" style="fill:#7e3b90"/><path d="M634.23,157.6a48.9,48.9,0,1,1,0-97.79h1.52a48.89,48.89,0,0,0,.28,97.71" style="fill:#f0cae0"/><path d="M585.07,108.7a49.21,49.21,0,0,1,49.16-49.15h1.52v.54a48.65,48.65,0,0,0,.26,97.23v.5l-1.76-.1v.14A49.21,49.21,0,0,1,585.07,108.7Zm.5,0A48.72,48.72,0,0,0,629,157.08a49.17,49.17,0,0,1-.12-96.73A48.71,48.71,0,0,0,585.57,108.7Z" style="fill:#7f3b90"/><path d="M643.5,54.49h-9.27a54.22,54.22,0,1,0,0,108.43h9.27a54.22,54.22,0,0,0,0-108.43Zm53.71,54.22c0,.6,0,1.2-.05,1.79H688.4c0-.6,0-1.19,0-1.8s0-1.21,0-1.81h8.76C697.18,107.49,697.21,108.1,697.21,108.71ZM678.63,139.8h8.65q-1.32,1.86-2.79,3.59h-8.61C676.85,142.24,677.76,141,678.63,139.8Zm.35-.5c.81-1.17,1.56-2.38,2.27-3.62h8.69c-.72,1.24-1.49,2.45-2.3,3.62Zm2.55-4.12c.66-1.18,1.28-2.38,1.86-3.62h8.72c-.59,1.24-1.22,2.44-1.89,3.62Zm2.08-4.11c.54-1.19,1-2.39,1.5-3.62h8.73c-.46,1.23-1,2.43-1.51,3.62Zm1.68-4.12c.42-1.18.79-2.38,1.13-3.6h8.75q-.51,1.83-1.14,3.6Zm1.28-4.1c.32-1.19.6-2.39.84-3.61h8.76c-.24,1.22-.53,2.42-.86,3.61Zm.93-4.11c.22-1.2.41-2.4.55-3.62h8.76c-.14,1.22-.32,2.42-.55,3.62ZM679,78.11h8.66c.81,1.17,1.58,2.38,2.3,3.62h-8.69C680.54,80.49,679.79,79.28,679,78.11ZM675.87,74h8.6c1,1.17,1.92,2.37,2.81,3.62h-8.65C677.75,76.37,676.84,75.16,675.87,74Zm14.35,8.24c.67,1.18,1.3,2.38,1.89,3.61h-8.72c-.58-1.23-1.2-2.43-1.86-3.61Zm2.11,4.11c.54,1.18,1,2.38,1.5,3.6H685.1c-.45-1.22-1-2.42-1.49-3.6Zm1.69,4.1c.43,1.18.8,2.39,1.15,3.62h-8.75c-.34-1.23-.72-2.43-1.14-3.62Zm1.29,4.12c.33,1.19.62,2.39.86,3.61h-8.76c-.24-1.22-.52-2.42-.84-3.61Zm1,4.11c.23,1.19.41,2.4.55,3.62h-8.76c-.14-1.22-.33-2.42-.55-3.62Zm-8.14,16c.12-1.2.21-2.4.26-3.62h8.77c0,1.22-.14,2.42-.27,3.62Zm.26-8.23c0-1.21-.14-2.41-.26-3.6h8.76q.2,1.78.27,3.6ZM684,73.49h-8.61c-1.06-1.25-2.19-2.45-3.36-3.59h8.54Q682.41,71.61,684,73.49ZM661.17,61.66h8.26a53.93,53.93,0,0,1,5.67,3.62h-8.41A54.61,54.61,0,0,0,661.17,61.66Zm7.33-.5h-8.2a54.21,54.21,0,0,0-8.12-3.61h7.71A54,54,0,0,1,668.5,61.16Zm7.29,4.62a54.88,54.88,0,0,1,4.3,3.62h-8.55a51.81,51.81,0,0,0-4.21-3.62ZM643.5,55a53.67,53.67,0,0,1,14.71,2.06h-7.48A54.22,54.22,0,0,0,641.5,55ZM580.43,108.7h0a53.78,53.78,0,0,1,86.05-42.95l0,0a54.15,54.15,0,0,1,11.73,12.16l.12.17q1.32,1.9,2.48,3.93v.19H681A53.74,53.74,0,1,1,580.43,108.7Zm79.87,47.54h8.2a52.39,52.39,0,0,1-8.55,3.6h-7.71A53.49,53.49,0,0,0,660.3,156.24Zm.87-.5a56.29,56.29,0,0,0,5.52-3.61h8.41a52.28,52.28,0,0,1-5.67,3.61Zm6.16-4.11a53.86,53.86,0,0,0,4.21-3.62h8.55a54.88,54.88,0,0,1-4.3,3.62ZM641.5,162.42a54,54,0,0,0,9.27-2.08h7.51a53.8,53.8,0,0,1-14.78,2.08Zm39.11-14.91h-8.54q1.77-1.72,3.38-3.62h8.61Q682.41,145.78,680.61,147.51Z" style="fill:#7f3b90"/><polygon points="666.8 104.31 666.8 105.67 666.8 111.44 666.8 112.1 670.7 115.98 670.7 100.41 666.8 104.31" style="fill:#bd1e52"/><polygon points="670.7 100.41 674.59 104.31 674.59 105.67 674.59 111.44 674.59 112.1 670.7 115.98 670.7 100.41" style="fill:#f2d5e6"/><polygon points="670.7 103.65 672.34 105.27 672.34 105.67 672.34 110.86 672.34 111.14 670.7 112.76 669.08 111.14 669.08 110.86 669.08 105.67 669.08 105.27 670.7 103.65" style="fill:#c97ea8"/><path d="M670.7,100.07l-4.16,4.14v8l4.16,4.24,4.15-4.24v-8Zm1.61,4.91-1.37-1.37v-2.56l3.17,3.16Zm-1.61,7.42L669.32,111v-5.65L670.7,104l1.38,1.36V111Zm-.26-8.77L669.07,105l-1.81-.77,3.18-3.16Zm-1.62,1.8v5.51l-1.78.76v-7Zm.17,6,1.45,1.45v2.56l-3.26-3.24Zm2,1.47,1.44-1.44,1.78.75-3.22,3.25Zm1.64-1.9V105.4l1.77-.75v7.08Z" style="fill:#7e3b90"/><polygon points="594.96 104.31 594.96 105.67 594.96 111.44 594.96 112.1 598.86 115.98 598.86 100.41 594.96 104.31" style="fill:#bd1e52"/><polygon points="598.86 100.41 602.75 104.31 602.75 105.67 602.75 111.44 602.75 112.1 598.86 115.98 598.86 100.41" style="fill:#f2d5e6"/><polygon points="598.86 103.65 600.5 105.27 600.5 105.67 600.5 110.86 600.5 111.14 598.86 112.76 597.24 111.14 597.24 110.86 597.24 105.67 597.24 105.27 598.86 103.65" style="fill:#c97ea8"/><path d="M598.86,100.07l-4.16,4.14v8l4.16,4.24L603,112.2v-8Zm1.61,4.91-1.37-1.37v-2.56l3.17,3.16Zm-1.61,7.42L597.48,111v-5.65l1.38-1.36,1.38,1.36V111Zm-.26-8.77L597.23,105l-1.81-.77,3.18-3.16Zm-1.62,1.8v5.51l-1.78.76v-7Zm.17,6,1.45,1.45v2.56l-3.26-3.24Zm2,1.47,1.44-1.44,1.78.75-3.22,3.25Zm1.64-1.9V105.4l1.78-.75v7.08Z" style="fill:#7e3b90"/></g><g id="rupie-coin-3" data-name="rupie-coin"><path d="M634.23,282.74h9.27a54,54,0,0,0,0-107.91h-9.27" style="fill:#f0cae0"/><path d="M580.27,228.79a54,54,0,1,0,54-54A54,54,0,0,0,580.27,228.79Z" style="fill:#f7fcfe"/><path d="M585.33,228.79a48.9,48.9,0,1,0,48.9-48.9,48.9,48.9,0,0,0-48.9,48.9Zm48.9-48.9a48.9,48.9,0,1,0,0,97.8h0" style="fill:#f6ebf4"/><path d="M585.07,228.79A49.16,49.16,0,1,1,634.23,278h0A49.22,49.22,0,0,1,585.07,228.79Zm.5,0a48.66,48.66,0,1,0,48.66-48.66h0A48.73,48.73,0,0,0,585.57,228.79Z" style="fill:#7f3b90"/><polygon points="634.23 191.48 658.23 215.36 658.23 223.81 658.23 238.16 658.23 242.22 634.23 266.1 610.23 242.22 610.23 238.16 610.23 223.81 610.23 215.36 634.23 191.48" style="fill:#da1a5e"/><path d="M610,242.32V215.26l24.24-24.12,24.26,24.12v27.06L634.23,266.5Zm48-26.86-23.72-23.62-23.82,23.62v26.66l23.82,23.62L658,242.12Z" style="fill:#7e3b90"/><polyline points="634.23 191.48 658.23 215.36 658.23 223.81 658.23 238.16 658.23 242.22 634.23 266.1" style="fill:#f0bfd9"/><polygon points="634.41 266.28 658.49 242.32 658.49 215.26 634.41 191.3 634.05 191.66 657.99 215.46 657.99 242.12 634.05 265.92 634.41 266.28" style="fill:#7f3b90"/><rect x="609.62" y="238.98" width="15.19" height="0.5" transform="translate(-44.41 260.3) rotate(-23.01)" style="fill:#7f3b90"/><rect x="633.99" y="246.23" width="0.5" height="19.84" style="fill:#7f3b90"/><rect x="650.99" y="231.66" width="0.5" height="15.19" transform="translate(176.46 745.16) rotate(-66.99)" style="fill:#7f3b90"/><rect x="616.99" y="210.75" width="0.5" height="15.19" transform="translate(175.16 701.28) rotate(-67.01)" style="fill:#7f3b90"/><rect x="633.99" y="191.48" width="0.5" height="19.84" style="fill:#7f3b90"/><rect x="643.64" y="218.09" width="15.19" height="0.5" transform="translate(-33.51 272.17) rotate(-23.03)" style="fill:#7f3b90"/><polygon points="634.23 211.34 644.26 221.29 644.26 223.81 644.26 234.66 644.26 236.28 634.23 246.23 624.22 236.28 624.22 234.66 624.22 223.81 624.22 221.29 634.23 211.34" style="fill:#de6279"/><path d="M624,236.38V221.2L634.23,211,644.5,221.2v15.18l-10.27,10.13Zm20-15-9.77-9.74-9.77,9.72v14.78l9.77,9.71,9.77-9.71Z" style="fill:#7e3b90"/><path d="M634.23,277.69a48.9,48.9,0,0,1,0-97.8h1.52a48.9,48.9,0,0,0,.28,97.72" style="fill:#f0cae0"/><path d="M585.07,228.79a49.21,49.21,0,0,1,49.16-49.16h1.52v.54a48.66,48.66,0,0,0,.26,97.24v.5l-1.76-.1V278A49.22,49.22,0,0,1,585.07,228.79Zm.5,0A48.72,48.72,0,0,0,629,277.17a49.18,49.18,0,0,1-.12-96.74A48.72,48.72,0,0,0,585.57,228.79Z" style="fill:#7f3b90"/><path d="M643.5,174.57h-9.27a54.22,54.22,0,1,0,0,108.43h9.27a54.22,54.22,0,0,0,0-108.43Zm53.71,54.22c0,.61,0,1.2-.05,1.8H688.4c0-.6,0-1.2,0-1.8s0-1.21,0-1.82h8.76C697.18,227.58,697.21,228.18,697.21,228.79Zm-18.58,31.09h8.65q-1.32,1.86-2.79,3.6h-8.61C676.85,262.32,677.76,261.12,678.63,259.88Zm.35-.5c.81-1.17,1.56-2.38,2.27-3.61h8.69c-.72,1.23-1.49,2.44-2.3,3.61Zm2.55-4.11c.66-1.18,1.28-2.39,1.86-3.62h8.72c-.59,1.23-1.22,2.44-1.89,3.62Zm2.08-4.12c.54-1.19,1-2.39,1.5-3.62h8.73c-.46,1.23-1,2.44-1.51,3.62Zm1.68-4.12c.42-1.18.79-2.38,1.13-3.59h8.75c-.34,1.21-.72,2.41-1.14,3.59Zm1.28-4.09c.32-1.19.6-2.4.84-3.62h8.76c-.24,1.22-.53,2.43-.86,3.62Zm.93-4.12c.22-1.19.41-2.4.55-3.62h8.76c-.14,1.22-.32,2.43-.55,3.62ZM679,198.19h8.66c.81,1.18,1.58,2.38,2.3,3.62h-8.69C680.54,200.58,679.79,199.37,679,198.19Zm-3.11-4.11h8.6c1,1.16,1.92,2.37,2.81,3.62h-8.65C677.75,196.45,676.84,195.24,675.87,194.08Zm14.35,8.23c.67,1.18,1.3,2.39,1.89,3.62h-8.72c-.58-1.23-1.2-2.44-1.86-3.62Zm2.11,4.12c.54,1.18,1,2.37,1.5,3.59H685.1c-.45-1.22-1-2.41-1.49-3.59Zm1.69,4.09c.43,1.19.8,2.4,1.15,3.62h-8.75c-.34-1.22-.72-2.43-1.14-3.62Zm1.29,4.12c.33,1.19.62,2.4.86,3.62h-8.76c-.24-1.22-.52-2.43-.84-3.62Zm1,4.12c.23,1.19.41,2.4.55,3.61h-8.76c-.14-1.21-.33-2.42-.55-3.61Zm-8.14,15.94c.12-1.19.21-2.4.26-3.61h8.77c0,1.21-.14,2.42-.27,3.61Zm.26-8.23c0-1.21-.14-2.41-.26-3.6h8.76q.2,1.78.27,3.6ZM684,193.58h-8.61c-1.06-1.25-2.19-2.45-3.36-3.6h8.54Q682.41,191.71,684,193.58Zm-22.87-11.83h8.26a53.93,53.93,0,0,1,5.67,3.62h-8.41A54.61,54.61,0,0,0,661.17,181.75Zm7.33-.5h-8.2a54.26,54.26,0,0,0-8.12-3.62h7.71A54,54,0,0,1,668.5,181.25Zm7.29,4.62a54.75,54.75,0,0,1,4.3,3.61h-8.55a53.74,53.74,0,0,0-4.21-3.61Zm-32.29-10.8a53.67,53.67,0,0,1,14.71,2.06h-7.48a54.22,54.22,0,0,0-9.23-2.07Zm-63.07,53.72h0a53.77,53.77,0,0,1,86.05-42.95l0,0A53.73,53.73,0,0,1,678.25,198l.12.16c.88,1.27,1.71,2.59,2.48,3.93v.19H681a53.74,53.74,0,1,1-100.53,26.48Zm79.87,47.54h8.2a54.21,54.21,0,0,1-8.55,3.6h-7.71A54.51,54.51,0,0,0,660.3,276.33Zm.87-.5a54.61,54.61,0,0,0,5.52-3.62h8.41a53.93,53.93,0,0,1-5.67,3.62Zm6.16-4.12a53.74,53.74,0,0,0,4.21-3.61h8.55c-1.37,1.27-2.81,2.48-4.3,3.61ZM641.5,282.5a53.93,53.93,0,0,0,9.27-2.07h7.51a53.79,53.79,0,0,1-14.78,2.07Zm39.11-14.9h-8.54c1.18-1.16,2.31-2.36,3.38-3.62h8.61C683,265.24,681.81,266.44,680.61,267.6Z" style="fill:#7f3b90"/><polygon points="666.8 224.39 666.8 225.75 666.8 231.53 666.8 232.19 670.7 236.06 670.7 220.5 666.8 224.39" style="fill:#bd1e52"/><polygon points="670.7 220.5 674.59 224.39 674.59 225.75 674.59 231.53 674.59 232.19 670.7 236.06 670.7 220.5" style="fill:#f2d5e6"/><polygon points="670.7 223.73 672.34 225.35 672.34 225.75 672.34 230.95 672.34 231.23 670.7 232.84 669.08 231.23 669.08 230.95 669.08 225.75 669.08 225.35 670.7 223.73" style="fill:#c97ea8"/><path d="M670.7,220.16l-4.16,4.13v8l4.16,4.23,4.15-4.23v-8Zm1.61,4.9-1.37-1.37v-2.56l3.17,3.16Zm-1.61,7.43-1.38-1.38v-5.66l1.38-1.36,1.38,1.36v5.66Zm-.26-8.78-1.37,1.37-1.81-.77,3.18-3.16Zm-1.62,1.81V231l-1.78.75v-7Zm.17,6,1.45,1.45v2.55l-3.26-3.23Zm2,1.47,1.44-1.45,1.78.76-3.22,3.24Zm1.64-1.91v-5.57l1.77-.76v7.09Z" style="fill:#7e3b90"/><polygon points="594.96 224.39 594.96 225.75 594.96 231.53 594.96 232.19 598.86 236.06 598.86 220.5 594.96 224.39" style="fill:#bd1e52"/><polygon points="598.86 220.5 602.75 224.39 602.75 225.75 602.75 231.53 602.75 232.19 598.86 236.06 598.86 220.5" style="fill:#f2d5e6"/><polygon points="598.86 223.73 600.5 225.35 600.5 225.75 600.5 230.95 600.5 231.23 598.86 232.84 597.24 231.23 597.24 230.95 597.24 225.75 597.24 225.35 598.86 223.73" style="fill:#c97ea8"/><path d="M598.86,220.16l-4.16,4.13v8l4.16,4.23,4.15-4.23v-8Zm1.61,4.9-1.37-1.37v-2.56l3.17,3.16Zm-1.61,7.43-1.38-1.38v-5.66l1.38-1.36,1.38,1.36v5.66Zm-.26-8.78-1.37,1.37-1.81-.77,3.18-3.16ZM597,225.52V231l-1.78.75v-7Zm.17,6L598.6,233v2.55l-3.26-3.23Zm2,1.47,1.44-1.45,1.78.76-3.22,3.24Zm1.64-1.91v-5.57l1.78-.76v7.09Z" style="fill:#7e3b90"/></g><g id="rupie-coin-4" data-name="rupie-coin"><path d="M768.46,282.74h9.27a54,54,0,0,0,0-107.91h-9.27" style="fill:#f0cae0"/><path d="M714.5,228.79a54,54,0,1,0,54-54A54,54,0,0,0,714.5,228.79Z" style="fill:#f7fcfe"/><path d="M719.56,228.79a48.9,48.9,0,1,0,48.9-48.9,48.9,48.9,0,0,0-48.9,48.9Zm48.9-48.9a48.9,48.9,0,1,0,0,97.8h0" style="fill:#f6ebf4"/><path d="M719.3,228.79A49.16,49.16,0,1,1,768.46,278h0A49.22,49.22,0,0,1,719.3,228.79Zm.5,0a48.66,48.66,0,1,0,48.66-48.66h0A48.73,48.73,0,0,0,719.8,228.79Z" style="fill:#7f3b90"/><polygon points="768.46 191.48 792.46 215.36 792.46 223.81 792.46 238.16 792.46 242.22 768.46 266.1 744.46 242.22 744.46 238.16 744.46 223.81 744.46 215.36 768.46 191.48" style="fill:#da1a5e"/><path d="M744.22,242.32V215.26l24.24-24.12,24.26,24.12v27.06L768.46,266.5Zm48-26.86-23.72-23.62-23.82,23.62v26.66l23.82,23.62,23.74-23.62Z" style="fill:#7e3b90"/><polyline points="768.46 191.48 792.46 215.36 792.46 223.81 792.46 238.16 792.46 242.22 768.46 266.1" style="fill:#f0bfd9"/><polygon points="768.64 266.28 792.72 242.32 792.72 215.26 768.64 191.3 768.28 191.66 792.22 215.46 792.22 242.12 768.28 265.92 768.64 266.28" style="fill:#7f3b90"/><rect x="743.85" y="238.98" width="15.19" height="0.5" transform="translate(-33.73 312.77) rotate(-23.01)" style="fill:#7f3b90"/><rect x="768.22" y="246.23" width="0.5" height="19.84" style="fill:#7f3b90"/><rect x="785.22" y="231.66" width="0.5" height="15.19" transform="translate(258.23 868.71) rotate(-66.99)" style="fill:#7f3b90"/><rect x="751.22" y="210.75" width="0.5" height="15.19" transform="translate(256.97 824.84) rotate(-67.01)" style="fill:#7f3b90"/><rect x="768.22" y="191.48" width="0.5" height="19.84" style="fill:#7f3b90"/><rect x="777.87" y="218.09" width="15.19" height="0.5" transform="translate(-22.81 324.69) rotate(-23.03)" style="fill:#7f3b90"/><polygon points="768.46 211.34 778.49 221.29 778.49 223.81 778.49 234.66 778.49 236.28 768.46 246.23 758.45 236.28 758.45 234.66 758.45 223.81 758.45 221.29 768.46 211.34" style="fill:#de6279"/><path d="M758.19,236.38V221.2L768.46,211l10.27,10.22v15.18l-10.27,10.13Zm20-15-9.77-9.74-9.77,9.72v14.78l9.77,9.71,9.77-9.71Z" style="fill:#7e3b90"/><path d="M768.46,277.69a48.9,48.9,0,1,1,0-97.8H770a48.9,48.9,0,0,0,.28,97.72" style="fill:#f0cae0"/><path d="M719.3,228.79a49.21,49.21,0,0,1,49.16-49.16H770v.54a48.66,48.66,0,0,0,.26,97.24v.5l-1.76-.1V278A49.22,49.22,0,0,1,719.3,228.79Zm.5,0a48.72,48.72,0,0,0,43.42,48.38,49.18,49.18,0,0,1-.12-96.74A48.72,48.72,0,0,0,719.8,228.79Z" style="fill:#7f3b90"/><path d="M777.73,174.57h-9.27a54.22,54.22,0,1,0,0,108.43h9.27a54.22,54.22,0,0,0,0-108.43Zm53.71,54.22c0,.61,0,1.2-.05,1.8h-8.76c0-.6,0-1.2,0-1.8s0-1.21,0-1.82h8.76C831.41,227.58,831.44,228.18,831.44,228.79Zm-18.58,31.09h8.65q-1.32,1.86-2.79,3.6h-8.61C811.08,262.32,812,261.12,812.86,259.88Zm.35-.5c.81-1.17,1.56-2.38,2.27-3.61h8.69c-.72,1.23-1.49,2.44-2.3,3.61Zm2.55-4.11c.66-1.18,1.28-2.39,1.86-3.62h8.72c-.59,1.23-1.22,2.44-1.89,3.62Zm2.08-4.12c.54-1.19,1-2.39,1.5-3.62h8.73c-.46,1.23-1,2.44-1.51,3.62Zm1.68-4.12c.42-1.18.79-2.38,1.13-3.59h8.75c-.34,1.21-.72,2.41-1.14,3.59Zm1.28-4.09c.32-1.19.6-2.4.84-3.62h8.76c-.24,1.22-.53,2.43-.86,3.62Zm.93-4.12c.22-1.19.41-2.4.55-3.62H831c-.14,1.22-.32,2.43-.55,3.62Zm-8.52-40.63h8.66c.81,1.18,1.58,2.38,2.3,3.62h-8.69C814.77,200.58,814,199.37,813.21,198.19Zm-3.11-4.11h8.6c1,1.16,1.92,2.37,2.81,3.62h-8.65C812,196.45,811.07,195.24,810.1,194.08Zm14.35,8.23c.67,1.18,1.3,2.39,1.89,3.62h-8.72c-.58-1.23-1.2-2.44-1.86-3.62Zm2.11,4.12c.54,1.18,1.05,2.37,1.5,3.59h-8.73c-.45-1.22-1-2.41-1.49-3.59Zm1.69,4.09c.43,1.19.8,2.4,1.15,3.62h-8.75c-.34-1.22-.72-2.43-1.14-3.62Zm1.29,4.12c.33,1.19.62,2.4.86,3.62h-8.76c-.24-1.22-.52-2.43-.84-3.62Zm1,4.12c.23,1.19.41,2.4.55,3.61h-8.76c-.14-1.21-.33-2.42-.55-3.61Zm-8.14,15.94c.12-1.19.21-2.4.26-3.61h8.77c0,1.21-.14,2.42-.27,3.61Zm.26-8.23c-.05-1.21-.14-2.41-.26-3.6h8.76q.2,1.78.27,3.6Zm-4.34-32.89h-8.61c-1.06-1.25-2.19-2.45-3.36-3.6h8.54Q816.64,191.71,818.27,193.58ZM795.4,181.75h8.26a53.93,53.93,0,0,1,5.67,3.62h-8.41A54.61,54.61,0,0,0,795.4,181.75Zm7.33-.5h-8.2a54.26,54.26,0,0,0-8.12-3.62h7.71A54,54,0,0,1,802.73,181.25Zm7.29,4.62a54.75,54.75,0,0,1,4.3,3.61h-8.55a53.74,53.74,0,0,0-4.21-3.61Zm-32.29-10.8a53.67,53.67,0,0,1,14.71,2.06H785a54.22,54.22,0,0,0-9.23-2.07Zm-63.07,53.72h0a53.77,53.77,0,0,1,86.05-42.95l0,0A53.73,53.73,0,0,1,812.48,198l.12.16c.88,1.27,1.71,2.59,2.48,3.93v.19h.11a53.74,53.74,0,1,1-100.53,26.48Zm79.87,47.54h8.2a54.21,54.21,0,0,1-8.55,3.6h-7.71A54.51,54.51,0,0,0,794.53,276.33Zm.87-.5a54.61,54.61,0,0,0,5.52-3.62h8.41a53.93,53.93,0,0,1-5.67,3.62Zm6.16-4.12a53.74,53.74,0,0,0,4.21-3.61h8.55c-1.37,1.27-2.81,2.48-4.3,3.61ZM775.73,282.5a53.93,53.93,0,0,0,9.27-2.07h7.51a53.79,53.79,0,0,1-14.78,2.07Zm39.11-14.9H806.3c1.18-1.16,2.31-2.36,3.38-3.62h8.61C817.19,265.24,816,266.44,814.84,267.6Z" style="fill:#7f3b90"/><polygon points="801.03 224.39 801.03 225.75 801.03 231.53 801.03 232.19 804.93 236.06 804.93 220.5 801.03 224.39" style="fill:#bd1e52"/><polygon points="804.93 220.5 808.82 224.39 808.82 225.75 808.82 231.53 808.82 232.19 804.93 236.06 804.93 220.5" style="fill:#f2d5e6"/><polygon points="804.93 223.73 806.57 225.35 806.57 225.75 806.57 230.95 806.57 231.23 804.93 232.84 803.31 231.23 803.31 230.95 803.31 225.75 803.31 225.35 804.93 223.73" style="fill:#c97ea8"/><path d="M804.93,220.16l-4.16,4.13v8l4.16,4.23,4.15-4.23v-8Zm1.61,4.9-1.37-1.37v-2.56l3.17,3.16Zm-1.61,7.43-1.38-1.38v-5.66l1.38-1.36,1.38,1.36v5.66Zm-.26-8.78-1.37,1.37-1.81-.77,3.18-3.16Zm-1.62,1.81V231l-1.78.75v-7Zm.17,6,1.45,1.45v2.55l-3.26-3.23Zm1.95,1.47,1.44-1.45,1.78.76-3.22,3.24Zm1.64-1.91v-5.57l1.77-.76v7.09Z" style="fill:#7e3b90"/><polygon points="729.19 224.39 729.19 225.75 729.19 231.53 729.19 232.19 733.09 236.06 733.09 220.5 729.19 224.39" style="fill:#bd1e52"/><polygon points="733.09 220.5 736.99 224.39 736.99 225.75 736.99 231.53 736.99 232.19 733.09 236.06 733.09 220.5" style="fill:#f2d5e6"/><polygon points="733.09 223.73 734.73 225.35 734.73 225.75 734.73 230.95 734.73 231.23 733.09 232.84 731.47 231.23 731.47 230.95 731.47 225.75 731.47 225.35 733.09 223.73" style="fill:#c97ea8"/><path d="M733.09,220.16l-4.16,4.13v8l4.16,4.23,4.15-4.23v-8Zm1.61,4.9-1.37-1.37v-2.56l3.17,3.16Zm-1.61,7.43-1.38-1.38v-5.66l1.38-1.36,1.38,1.36v5.66Zm-.26-8.78-1.37,1.37-1.81-.77,3.18-3.16Zm-1.62,1.81V231l-1.78.75v-7Zm.17,6,1.45,1.45v2.55l-3.26-3.23Zm2,1.47,1.44-1.45,1.78.76-3.22,3.24Zm1.64-1.91v-5.57l1.78-.76v7.09Z" style="fill:#7e3b90"/></g></svg>
