<svg id="rupie-tokens" xmlns="http://www.w3.org/2000/svg" width="1421.93" height="330.27"><path transform="rotate(-180 1203.28 245.75)" fill="#fff" d="M1031.82 230.43h342.92v30.64h-342.92z" opacity=".8"/><g id="rupie-right-tube"><g id="rupie" data-name="rupie"><path fill="#fde9f2" d="M1016.03 245.51l7.46-7.5h26.91l7.46 7.5-7.46 7.49h-26.91l-7.46-7.49z"/><path fill="#ee2e7b" d="M1016.03 245.51h41.83l-7.46 7.49h-26.91l-7.46-7.49z"/><path fill="#eab7d5" d="M1021.2 245.51l3.8-3.82h23.89l3.8 3.82-3.8 3.82H1025l-3.8-3.82z"/><path d="M1050.4 238h-26.91l-7.46 7.5 7.46 7.49h26.91l7.46-7.49zm-1.1 10.9l2.85-2.87h3.65l-5.43 5.47zm-25.78 2.6l-5.43-5.47h3.65l2.85 2.87zm1.13-9.47l-2.91 2.93h-3.65l5.49-5.52zm.8 6.21l-2.73-2.74 2.73-2.75h23l2.73 2.75-2.73 2.74h-23zm26.7-3.28l-2.91-2.93 1.07-2.59 5.49 5.52zm-10.47-5.88h7.62l-1.07 2.6h-22.56l-1.07-2.6h17.08zm-1.4 12.83h-15.76l1.07-2.59h22.72l1.07 2.59h-9.1z" fill="#a12573"/></g><g id="rupie-2" data-name="rupie"><path fill="#fde9f2" d="M1062.31 245.51l7.45-7.5h26.92l7.45 7.5-7.45 7.49h-26.92l-7.45-7.49z"/><path fill="#ee2e7b" d="M1062.31 245.51h41.82l-7.45 7.49h-26.92l-7.45-7.49z"/><path fill="#eab7d5" d="M1067.47 245.51l3.81-3.82h23.88l3.8 3.82-3.8 3.82h-23.88l-3.81-3.82z"/><path d="M1096.68 238h-26.92l-7.45 7.5 7.45 7.49h26.92l7.45-7.49zm-1.11 10.9l2.86-2.87h3.65l-5.44 5.47zm-25.78 2.6l-5.43-5.47h3.64l2.85 2.87zm1.13-9.47L1068 245h-3.65l5.49-5.52zm.8 6.21l-2.72-2.74 2.72-2.75h23l2.73 2.75-2.73 2.74h-23zm26.71-3.28l-2.91-2.93 1.07-2.59 5.49 5.52zm-10.43-5.87h7.62l-1.07 2.6h-22.56l-1.07-2.6H1088zm-1.4 12.83h-15.76l1.07-2.59h22.72l1.07 2.59h-9.1z" fill="#a12573"/></g><g id="rupie-3" data-name="rupie"><path fill="#fde9f2" d="M1114.49 245.51l7.45-7.5h26.92l7.45 7.5-7.45 7.49h-26.92l-7.45-7.49z"/><path fill="#ee2e7b" d="M1114.49 245.51h41.82l-7.45 7.49h-26.92l-7.45-7.49z"/><path fill="#eab7d5" d="M1119.66 245.51l3.8-3.82h23.88l3.8 3.82-3.8 3.82h-23.88l-3.8-3.82z"/><path d="M1148.86 238h-26.92l-7.45 7.5 7.45 7.49h26.92l7.45-7.49zm-1.1 10.9l2.85-2.87h3.65l-5.43 5.47zm-25.78 2.6l-5.44-5.47h3.65l2.85 2.87zm1.12-9.47l-2.91 2.93h-3.65l5.49-5.52zm.8 6.21l-2.72-2.74 2.72-2.75h23l2.72 2.75-2.72 2.74h-23zm26.71-3.28l-2.91-2.96 1.07-2.59 5.49 5.52zm-10.48-5.88h7.62l-1.07 2.6h-22.56l-1.07-2.6h17.08zm-1.4 12.83H1123l1.07-2.59h22.72l1.07 2.59h-9.1z" fill="#a12573"/></g><g id="rupie-4" data-name="rupie"><path fill="#fde9f2" d="M1166.26 245.51l7.46-7.5h26.91l7.46 7.5-7.46 7.49h-26.91l-7.46-7.49z"/><path fill="#ee2e7b" d="M1166.26 245.51h41.83l-7.46 7.49h-26.91l-7.46-7.49z"/><path fill="#eab7d5" d="M1171.43 245.51l3.8-3.82h23.89l3.8 3.82-3.8 3.82h-23.89l-3.8-3.82z"/><path d="M1200.63 238h-26.91l-7.46 7.5 7.46 7.49h26.91l7.46-7.49zm-1.1 10.9l2.85-2.87h3.62l-5.43 5.47zm-25.78 2.6l-5.43-5.47h3.68l2.85 2.87zm1.13-9.47L1172 245h-3.65l5.49-5.52zm.8 6.21l-2.73-2.74 2.73-2.75h23l2.73 2.75-2.73 2.74h-23zm26.7-3.28l-2.91-2.93 1.07-2.59L1206 245zm-10.47-5.88h7.62l-1.07 2.6h-22.56l-1.07-2.6h17.08zm-1.4 12.83h-15.77l1.07-2.59h22.73l1.07 2.59h-9.1z" fill="#a12573"/></g><g id="rupie-5" data-name="rupie"><path fill="#fde9f2" d="M1217.5 245.51l7.46-7.5h26.91l7.46 7.5-7.46 7.49h-26.91l-7.46-7.49z"/><path fill="#ee2e7b" d="M1217.5 245.51h41.83l-7.46 7.49h-26.91l-7.46-7.49z"/><path fill="#eab7d5" d="M1222.67 245.51l3.8-3.82h23.89l3.8 3.82-3.8 3.82h-23.89l-3.8-3.82z"/><path d="M1251.87 238H1225l-7.46 7.5 7.46 7.5h26.91l7.46-7.49zm-1.1 10.9l2.85-2.87h3.65l-5.43 5.47zm-25.78 2.6l-5.43-5.47h3.65l2.85 2.87zm1.13-9.47l-2.91 2.93h-3.65l5.49-5.52zm.8 6.21l-2.73-2.74 2.73-2.75h23l2.73 2.75-2.73 2.74h-23zm26.7-3.28l-2.91-2.93 1.07-2.59 5.49 5.52zm-10.47-5.88h7.61l-1.07 2.6h-22.55l-1.07-2.6h17.08zm-1.4 12.83H1226l1.07-2.59h22.73l1.07 2.59h-9.1z" fill="#a12573"/></g><g id="rupie-6" data-name="rupie"><path fill="#fde9f2" d="M1269.62 245.51l7.45-7.5h26.92l7.45 7.5-7.45 7.49h-26.92l-7.45-7.49z"/><path fill="#ee2e7b" d="M1269.62 245.51h41.82l-7.45 7.49h-26.92l-7.45-7.49z"/><path fill="#eab7d5" d="M1274.79 245.51l3.8-3.82h23.88l3.8 3.82-3.8 3.82h-23.88l-3.8-3.82z"/><path d="M1304 238h-26.92l-7.45 7.5 7.45 7.49H1304l7.45-7.49zm-1.11 10.9l2.86-2.87h3.65l-5.44 5.47zm-25.78 2.6l-5.43-5.47h3.65l2.85 2.87zm1.13-9.47l-2.91 2.93h-3.65l5.49-5.52zm.8 6.21l-2.72-2.74 2.72-2.75h23l2.73 2.75-2.73 2.74h-23zm26.71-3.28l-2.91-2.93 1.07-2.59 5.49 5.52zm-10.48-5.88h7.62l-1.07 2.6h-22.56l-1.07-2.6h17.08zm-1.4 12.83h-15.77l1.07-2.59h22.72l1.07 2.59h-9.1z" fill="#a12573"/></g><g id="rupie-7" data-name="rupie"><path fill="#fde9f2" d="M1321.8 245.51l7.45-7.5h26.92l7.45 7.5-7.45 7.49h-26.92l-7.45-7.49z"/><path fill="#ee2e7b" d="M1321.8 245.51h41.82l-7.45 7.49h-26.92l-7.45-7.49z"/><path fill="#eab7d5" d="M1326.97 245.51l3.8-3.82h23.88l3.8 3.82-3.8 3.82h-23.88l-3.8-3.82z"/><path d="M1356.17 238h-26.92l-7.45 7.5 7.45 7.49h26.92l7.45-7.49zm-1.1 10.9l2.85-2.87h3.65l-5.43 5.47zm-25.78 2.6l-5.44-5.47h3.65l2.85 2.87zm1.12-9.47l-2.91 2.97h-3.65l5.49-5.52zm.8 6.21l-2.72-2.74 2.72-2.75h23l2.72 2.75-2.72 2.74h-23zm26.71-3.28L1355 242l1.07-2.59 5.49 5.52zm-10.48-5.88h7.62l-1.07 2.6h-22.56l-1.07-2.6h17.08zm-1.4 12.83h-15.76l1.07-2.59h22.72l1.07 2.59H1346z" fill="#a12573"/></g><g id="rupie-8" data-name="rupie"><path fill="#fde9f2" d="M1373.57 245.51l7.46-7.5h26.91l7.46 7.5-7.46 7.49h-26.91l-7.46-7.49z"/><path fill="#ee2e7b" d="M1373.57 245.51h41.83l-7.46 7.49h-26.91l-7.46-7.49z"/><path fill="#eab7d5" d="M1378.74 245.51l3.8-3.82h23.89l3.8 3.82-3.8 3.82h-23.89l-3.8-3.82z"/><path d="M1407.94 238H1381l-7.46 7.5 7.46 7.5h26.91l7.46-7.49zm-1.1 10.9l2.85-2.87h3.65l-5.43 5.47zm-25.78 2.6l-5.43-5.47h3.65l2.85 2.87zm1.13-9.47l-2.91 2.93h-3.65l5.49-5.52zm.8 6.21l-2.73-2.74 2.73-2.75h23l2.73 2.75-2.73 2.74h-23zm26.7-3.28l-2.91-2.93 1.07-2.59 5.49 5.52zm-10.47-5.88h7.62l-1.07 2.6h-22.56l-1.07-2.6h17.08zm-1.4 12.83h-15.77l1.07-2.59h22.73l1.07 2.59h-9.1z" fill="#a12573"/></g></g><path fill="#fde9f2" d="M1024.86 267.71v-42.4l7.2 2.88v35.52l-7.2 4z"/><path d="M1024.36 224.57l8.2 3.28V264l-8.2 4.56zm7.2 4l-6.2-2.47v40.81l6.2-3.45z" fill="#a12573"/><g id="tube-right"><path transform="rotate(-180 1223.595 245.75)" fill="#a0dbe3" d="M1032.55 230.43h382.09v30.64h-382.09z" opacity=".4"/><path transform="rotate(-180 1223.605 233.78)" fill="#fff" d="M1032.57 232.31h382.07v2.94h-382.07z"/></g><path fill="#fff" d="M41.65 77.12h342.92v30.64H41.65z" opacity=".8"/><g id="rupie-left-tube"><g id="rupie-9" data-name="rupie"><path fill="#fde9f2" d="M406.2 92.19l-7.46-7.49h-26.91l-7.46 7.49 7.46 7.5h26.91l7.46-7.5z"/><path fill="#ee2e7b" d="M406.2 92.19h-41.83l7.46 7.5h26.91l7.46-7.5z"/><path fill="#eab7d5" d="M401.03 92.19l-3.8-3.82h-23.89l-3.8 3.82 3.8 3.82h23.89l3.8-3.82z"/><path d="M398.74 84.7h-26.91l-7.46 7.49 7.46 7.5h26.91l7.46-7.5zm-1.1 10.9l2.85-2.87h3.65l-5.43 5.46zm-25.78 2.59l-5.43-5.46h3.65l2.85 2.87zm1.14-9.46l-2.91 2.92h-3.65l5.49-5.52zm.8 6.2l-2.73-2.74 2.73-2.74h23l2.73 2.74-2.73 2.74h-23zm26.7-3.28l-2.91-2.92 1.07-2.6 5.49 5.52zM382 85.78h15.68l-1.07 2.59H374l-1.07-2.59h9zm-1.4 12.83h-7.7l1.07-2.6h22.73l1.07 2.6h-17.22z" fill="#a12573"/></g><g id="rupie-10" data-name="rupie"><path fill="#fde9f2" d="M354.08 92.19l-7.45-7.49h-26.92l-7.45 7.49 7.45 7.5h26.92l7.45-7.5z"/><path fill="#ee2e7b" d="M354.08 92.19h-41.82l7.45 7.5h26.92l7.45-7.5z"/><path fill="#eab7d5" d="M348.91 92.19l-3.8-3.82h-23.88l-3.8 3.82 3.8 3.82h23.88l3.8-3.82z"/><path d="M346.63 84.7h-26.92l-7.45 7.49 7.45 7.5h26.92l7.45-7.5zm-1.1 10.9l2.85-2.87H352l-5.43 5.46zm-25.78 2.59l-5.44-5.46H318l2.85 2.87zm1.12-9.46L318 91.65h-3.65l5.49-5.52zm.81 6.2L319 92.19l2.73-2.74h23l2.72 2.74-2.72 2.74h-23zm26.7-3.28l-2.91-2.92 1.07-2.6 5.46 5.52zm-18.54-5.87h15.68l-1.07 2.59h-22.56l-1.07-2.59h9zm-1.4 12.83h-7.7l1.07-2.6h22.72l1.07 2.6h-17.16z" fill="#a12573"/></g><g id="rupie-11" data-name="rupie"><path fill="#fde9f2" d="M301.9 92.19l-7.45-7.49h-26.92l-7.45 7.49 7.45 7.5h26.92l7.45-7.5z"/><path fill="#ee2e7b" d="M301.9 92.19h-41.82l7.45 7.5h26.92l7.45-7.5z"/><path fill="#eab7d5" d="M296.73 92.19l-3.8-3.82h-23.88l-3.8 3.82 3.8 3.82h23.88l3.8-3.82z"/><path d="M294.45 84.7h-26.92l-7.45 7.49 7.45 7.5h26.92l7.45-7.5zm-1.1 10.9l2.85-2.87h3.65l-5.44 5.46zm-25.79 2.59l-5.43-5.46h3.65l2.85 2.87zm1.13-9.46l-2.91 2.92h-3.65l5.49-5.52zm.8 6.2l-2.72-2.74 2.72-2.74h23l2.73 2.74-2.73 2.74h-23zm26.71-3.28l-2.91-2.92 1.07-2.6 5.49 5.52zm-18.54-5.87h15.68l-1.07 2.59h-22.56l-1.07-2.59h9zm-1.4 12.83h-7.7l1.07-2.6h22.72l1.07 2.6h-17.16z" fill="#a12573"/></g><g id="rupie-12" data-name="rupie"><path fill="#fde9f2" d="M250.13 92.19l-7.46-7.49h-26.91l-7.46 7.49 7.46 7.5h26.91l7.46-7.5z"/><path fill="#ee2e7b" d="M250.13 92.19H208.3l7.46 7.5h26.91l7.46-7.5z"/><path fill="#eab7d5" d="M244.96 92.19l-3.8-3.82h-23.89l-3.8 3.82 3.8 3.82h23.89l3.8-3.82z"/><path d="M242.67 84.7h-26.91l-7.46 7.49 7.46 7.5h26.91l7.46-7.5zm-1.1 10.9l2.85-2.87h3.65l-5.43 5.46zm-25.78 2.59l-5.43-5.46H214l2.85 2.87zm1.13-9.46L214 91.65h-3.65l5.49-5.52zm.8 6.2L215 92.19l2.73-2.74h23l2.73 2.74-2.73 2.74h-23zm26.7-3.28l-2.91-2.92 1.07-2.6 5.49 5.52zm-18.54-5.87h15.68l-1.07 2.59h-22.56l-1.07-2.59h9zm-1.4 12.83h-7.7l1.07-2.6h22.72l1.08 2.6h-17.17z" fill="#a12573"/></g><g id="rupie-13" data-name="rupie"><path fill="#fde9f2" d="M198.89 92.19l-7.46-7.49h-26.91l-7.46 7.49 7.46 7.5h26.91l7.46-7.5z"/><path fill="#ee2e7b" d="M198.89 92.19h-41.83l7.46 7.5h26.91l7.46-7.5z"/><path fill="#eab7d5" d="M193.72 92.19l-3.8-3.82h-23.89l-3.8 3.82 3.8 3.82h23.89l3.8-3.82z"/><path d="M191.43 84.7h-26.91l-7.46 7.49 7.46 7.5h26.91l7.46-7.5zm5.4 7h-3.65l-2.91-2.92 1.07-2.6zm-4.63.54l-2.73 2.74h-23l-2.73-2.74 2.73-2.74h23zm-19-6.41h17.08l-1.07 2.59h-22.52l-1.07-2.59zm-8.63.35l1.07 2.6-2.91 2.92h-3.65zm-5.49 6.6h3.65l2.85 2.87-1.07 2.59zm15.52 5.88h-9.1l1.07-2.6h22.73l1.07 2.6zm16.76-.42l-1.07-2.59 2.85-2.87h3.65z" fill="#a12573"/></g><g id="rupie-14" data-name="rupie"><path fill="#fde9f2" d="M146.78 92.19l-7.46-7.49H112.4l-7.45 7.49 7.45 7.5h26.92l7.46-7.5z"/><path fill="#ee2e7b" d="M146.78 92.19h-41.83l7.45 7.5h26.92l7.46-7.5z"/><path fill="#eab7d5" d="M141.6 92.19l-3.79-3.82h-23.89l-3.8 3.82 3.8 3.82h23.89l3.79-3.82z"/><path d="M139.32 84.7H112.4l-7.4 7.49 7.45 7.5h26.92l7.45-7.5zm-1.1 10.9l2.85-2.87h3.65l-5.43 5.46zm-25.78 2.59L107 92.73h3.65l2.86 2.87zm1.12-9.46l-2.91 2.92H107l5.49-5.52zm.81 6.2l-2.73-2.74 2.73-2.74h23l2.72 2.74-2.72 2.74h-23zm26.7-3.28l-2.91-2.92 1.07-2.6 5.49 5.52zm-18.54-5.87h15.68l-1.07 2.59h-22.56l-1.07-2.59h9zm-1.4 12.83h-7.7L114.5 96h22.72l1.07 2.6h-17.16z" fill="#a12573"/></g><g id="rupie-15" data-name="rupie"><path fill="#fde9f2" d="M94.59 92.19l-7.45-7.49H60.22l-7.45 7.49 7.45 7.5h26.92l7.45-7.5z"/><path fill="#ee2e7b" d="M94.59 92.19H52.77l7.45 7.5h26.92l7.45-7.5z"/><path fill="#eab7d5" d="M89.42 92.19l-3.8-3.82H61.74l-3.8 3.82 3.8 3.82h23.88l3.8-3.82z"/><path d="M87.14 84.7H60.22l-7.45 7.49 7.45 7.5h26.92l7.45-7.5zM86 95.6l2.85-2.87h3.65l-5.4 5.46zm-25.75 2.59l-5.43-5.46h3.65l2.85 2.87zm1.13-9.46l-2.91 2.92h-3.65l5.49-5.52zm.8 6.2l-2.72-2.74 2.72-2.74h23l2.72 2.74-2.72 2.74h-23zm26.71-3.28L86 88.73l1.07-2.6 5.49 5.52zm-18.54-5.87H86l-1 2.59H62.4l-1.07-2.59h9zM69 98.61h-7.7L62.32 96H85l1.07 2.6H69z" fill="#a12573"/></g><g id="rupie-16" data-name="rupie"><path fill="#fde9f2" d="M42.82 92.19l-7.46-7.49H8.45L.99 92.19l7.46 7.5h26.91l7.46-7.5z"/><path fill="#ee2e7b" d="M42.82 92.19H.99l7.46 7.5h26.91l7.46-7.5z"/><path fill="#eab7d5" d="M37.65 92.19l-3.8-3.82H9.96l-3.8 3.82 3.8 3.82h23.89l3.8-3.82z"/><path d="M35.36 84.7H8.45L1 92.19l7.46 7.5h26.9l7.46-7.5zm-1.1 10.9l2.85-2.87h3.65l-5.43 5.46zM8.48 98.19l-5.43-5.46H6.7l2.85 2.87zm1.13-9.46L6.7 91.65H3.05l5.49-5.52zm.8 6.2l-2.73-2.74 2.73-2.74h23l2.73 2.74-2.74 2.74h-23zm26.7-3.28l-2.91-2.92 1.07-2.6 5.49 5.52zm-18.54-5.87h15.68l-1.07 2.59H10.62l-1.07-2.59h9zm-1.4 12.83h-7.7L10.54 96h22.73l1.07 2.6H17.17z" fill="#a12573"/></g></g><path fill="#fde9f2" d="M391.53 114.39V72l-7.2 2.87v35.53l7.2 3.99z"/><path d="M392 115.25l-8.2-4.56V74.53l8.2-3.27zm-7.2-5.15l6.2 3.45V72.74l-6.2 2.47z" fill="#a12573"/><g id="tube-left"><path fill="#a0dbe3" d="M1.75 77.12h382.09v30.64H1.75z" opacity=".4"/><path fill="#fff" d="M1.75 78.99h382.07v2.94H1.75z"/></g><path fill="#fff" d="M920.97 273.4h57.78v-4.61h-57.78"/><path fill="#7d3a90" d="M979.33 273.98h-58.36v-1.15h57.21v-3.47h-57.21v-1.15h58.36v5.77z"/><path transform="rotate(-31.13 965.4733 246.9943)" fill="#7d3a90" d="M965.01 221.52h1.15v50.94h-1.15z"/><path transform="rotate(-58.83 965.5026 247.0079)" fill="#7d3a90" d="M940.12 246.41h50.94v1.15h-50.94z"/><path transform="rotate(-31.13 939.2836 246.9916)" fill="#7d3a90" d="M938.82 221.52h1.15v50.94h-1.15z"/><path transform="rotate(-58.83 939.3141 247.0033)" fill="#7d3a90" d="M913.93 246.41h50.94v1.15h-50.94z"/><path fill="#fff" d="M920.97 225.18h57.78v-5.17h-57.78"/><path fill="#7d3a90" d="M979.33 225.76h-58.36v-1.15h57.21v-4.03h-57.21v-1.15h58.36v6.33z"/><path transform="rotate(-90 1001.805 246.565)" fill="#ee2e7b" d="M969.69 223.78h64.22v45.57h-64.22z"/><path d="M1025.17 279.25h-46.73v-65.37h46.73zm-45.58-1.15H1024V215h-44.41z" fill="#7e3a90"/><path fill="#7e3a90" d="M1024.01 214.46h1.15v64.22h-1.15z"/><path fill="#ee2e7b" d="M952.42 268.79v-43.61"/><path fill="#7e3a90" d="M951.85 225.18H953v43.6h-1.15zM987.77 266.18h10.83v1.15h-10.83zM987.77 262.14h10.83v1.15h-10.83zM987.77 258.09h10.83v1.15h-10.83zM987.77 254.04h10.83v1.15h-10.83zM987.77 250h10.83v1.15h-10.83z"/><path fill="#ee2e7b" d="M1011.65 268.27l-2.18.84-.85-2.18"/><path fill="#7e3a90" d="M1009.14 269.86l-1.05-2.72 1.07-.41.64 1.64 1.64-.64.41 1.07-2.71 1.06z"/><circle cx="1011.24" cy="265.09" r="3.57" fill="#e8b7d5"/><path d="M1011.24 269.24a4.16 4.16 0 0 1-3.79-5.83 4.15 4.15 0 1 1 3.79 5.83zm-2.74-5.36a3 3 0 1 0 1.66-1.59 3 3 0 0 0-1.66 1.59z" fill="#7e3a90"/><path fill="#ee2e7b" d="M1013.73 250.75l1.49 1.79-1.79 1.5"/><path fill="#7e3a90" d="M1013.79 254.48l-.73-.88 1.35-1.13-1.13-1.35.89-.74 1.86 2.24-2.24 1.86z"/><circle cx="1010.84" cy="252.14" r="3.57" fill="#e8b7d5"/><path d="M1010.85 256.29h-.39a4.15 4.15 0 0 1-3.75-4.51 4.06 4.06 0 0 1 1.48-2.81 4.14 4.14 0 0 1 6.78 3.56 4.15 4.15 0 0 1-4.12 3.77zm-.28-1.16a3 3 0 0 0 3.26-2.71 3 3 0 1 0-6-.55 3 3 0 0 0 2.71 3.26z" fill="#7e3a90"/><path transform="rotate(-90 992.295 232.885)" fill="#fde9f2" d="M988.89 229.48h6.81v6.81h-6.81z"/><path transform="rotate(-90 1006.06 226.27)" fill="#fde9f2" d="M1002.65 222.86h6.81v6.81h-6.81z"/><path transform="rotate(-90 1006.055 232.315)" fill="#fde9f2" d="M1002.65 228.91h6.81v6.81h-6.81z"/><path transform="rotate(-90 1012.975 232.885)" fill="#e8b7d5" d="M1009.57 229.48h6.81v6.81h-6.81z"/><path transform="rotate(-90 999.37 226.27)" fill="#e8b7d5" d="M995.96 222.86h6.81v6.81h-6.81z"/><path fill="#7e3a90" d="M995.12 222.46h1.15v13.83h-1.15zM1002.12 222.46h1.15v13.83h-1.15z"/><path fill="#7e3a90" d="M988.89 228.79h27.65v1.15h-27.65z"/><path fill="#7e3a90" d="M1009.12 222.46h1.15v13.83h-1.15z"/><path d="M1017.28 236.87h-29v-15h29zm-27.82-1.16h26.66V223h-26.66z" fill="#7e3a90"/><path fill="#fff" d="M494.39 120.09h-57.77v-4.62h57.77"/><path fill="#7d3a90" d="M494.39 120.67h-58.35v-5.77h58.35v1.15h-57.2v3.46h57.2v1.16z"/><path transform="rotate(-58.9 449.797 93.6645)" fill="#7d3a90" d="M424.31 93.09h50.93v1.15h-50.93z"/><path transform="rotate(-31.13 449.7248 93.6821)" fill="#7d3a90" d="M449.2 68.2h1.15v50.93h-1.15z"/><path transform="rotate(-58.9 475.981 93.6635)" fill="#7d3a90" d="M450.5 93.09h50.93v1.15H450.5z"/><path transform="rotate(-31.13 475.9145 93.6849)" fill="#7d3a90" d="M475.39 68.2h1.15v50.93h-1.15z"/><path fill="#fff" d="M494.39 71.87h-57.77v-5.18h57.77"/><path fill="#7d3a90" d="M494.39 72.45h-58.35v-6.33h58.35v1.15h-57.2v4.03h57.2v1.15z"/><path transform="rotate(-90 413.83 93.25)" fill="#ee2e7b" d="M381.72 70.46h64.22v45.57h-64.22z"/><path d="M437.19 125.94h-46.73V60.57h46.73zm-45.57-1.15H436V61.72h-44.38z" fill="#7e3a90"/><path fill="#7e3a90" d="M436.04 61.14h1.15v64.22h-1.15zM462.37 71.87h1.15v43.6h-1.15zM399.79 112.87h10.83v1.15h-10.83zM399.79 108.82h10.83v1.15h-10.83zM399.79 104.78h10.83v1.15h-10.83zM399.79 100.73h10.83v1.15h-10.83zM399.79 96.68h10.83v1.15h-10.83z"/><path fill="#ee2e7b" d="M423.67 114.95l-2.18.85-.84-2.18"/><path fill="#7e3a90" d="M421.16 116.54l-1.05-2.71 1.08-.42.63 1.64 1.64-.63.42 1.07-2.72 1.05z"/><circle cx="423.27" cy="111.77" r="3.57" fill="#e8b7d5"/><path d="M423.27 115.92a4.16 4.16 0 1 1 1.5-.28 4.12 4.12 0 0 1-1.5.28zm0-7.14a3 3 0 1 0 2.79 1.91 2.93 2.93 0 0 0-1.58-1.66 3 3 0 0 0-1.21-.25z" fill="#7e3a90"/><path fill="#ee2e7b" d="M425.75 97.44l1.5 1.79-1.8 1.5"/><path fill="#7e3a90" d="M425.82 101.17l-.74-.89 1.36-1.12-1.13-1.36.88-.73 1.87 2.24-2.24 1.86z"/><circle cx="422.87" cy="98.83" r="3.57" fill="#e8b7d5"/><path d="M422.87 103h-.38a4.17 4.17 0 0 1-3.76-4.51 4.15 4.15 0 1 1 4.14 4.53zm0-7.15a3 3 0 0 0-3 2.73 3 3 0 0 0 .68 2.19 3 3 0 0 0 2 1.06 3 3 0 1 0 .55-6z" fill="#7e3a90"/><path transform="rotate(-90 404.32 79.57)" fill="#fde9f2" d="M400.91 76.16h6.81v6.81h-6.81z"/><path transform="rotate(-90 418.085 72.955)" fill="#fde9f2" d="M414.67 69.55h6.81v6.81h-6.81z"/><path transform="rotate(-90 418.08 79)" fill="#fde9f2" d="M414.67 75.6h6.81v6.81h-6.81z"/><path transform="rotate(-90 425 79.57)" fill="#e8b7d5" d="M421.59 76.16h6.81v6.81h-6.81z"/><path transform="rotate(-90 411.395 72.955)" fill="#e8b7d5" d="M407.99 69.55h6.81v6.81h-6.81z"/><path fill="#7e3a90" d="M407.15 69.14h1.15v13.83h-1.15zM414.15 69.14h1.15v13.83h-1.15z"/><path fill="#7e3a90" d="M400.91 75.47h27.65v1.15h-27.65z"/><path fill="#7e3a90" d="M421.15 69.14h1.15v13.83h-1.15z"/><path d="M429.3 83.55h-29v-15h29zm-27.81-1.15h26.66V69.72h-26.66z" fill="#7e3a90"/><path fill="#a12573" d="M853.2 328.37h49.98v1.6H853.2z"/><path fill="#544da0" d="M797.97 329.17h122.88V9.98H494.04v319.19h48.08"/><path fill="#a12573" d="M921.53 329.97H797.97v-1.6h122.2V10.78H494.71v317.59h47.41v1.6h-48.76V9.18h428.17v320.79z"/><path fill="#cf82aa" d="M798.2 329.17h122.93V9.98H494.16v319.19H798.2z"/><path fill="#eab7d5" d="M505.36 318.15l-11.2 11.02V9.98h425.8L909.63 21H505.36v297.15z"/><path fill="#544da0" d="M505.23 21h404.71v297.15H505.23z"/><path d="M910.61 319h-406V20.2h406zm-404.71-1.6h403.37V21.8H505.9z" fill="#673996"/><path fill="#a12573" d="M853.2 328.37h49.98v1.6H853.2z"/><path fill="#544da0" d="M505.36 21L494.25 9.89"/><path transform="rotate(-45 499.7556 15.4645)" fill="#673996" d="M499 7.59h1.6V23.3H499z"/><path fill="#544da0" d="M909.64 21l11.19-11.02"/><path transform="rotate(-44.53 915.1386 15.5309)" fill="#673996" d="M907.38 14.69h15.71v1.6h-15.71z"/><path fill="#544da0" d="M909.64 318.15l11.19 11.02"/><path transform="rotate(-45.46 915.1405 323.6632)" fill="#673996" d="M914.44 315.8h1.6v15.71h-1.6z"/><path fill="#544da0" d="M505.36 318.15l-11.2 11.02"/><path transform="rotate(-44.53 499.6914 323.6494)" fill="#673996" d="M491.9 322.86h15.71v1.6H491.9z"/><path d="M921.49 330H493.36V9.18h428.13zm-426.78-1.6h425.43V10.78H494.71z" fill="#673996"/><g id="rupie-coin"><path d="M768.46 162.66h9.27a54 54 0 0 0 0-107.91h-9.27" fill="#f0cae0"/><path d="M714.5 108.7a54 54 0 1 0 54-53.95 54 54 0 0 0-54 53.95z" fill="#f7fcfe"/><path d="M719.56 108.7a48.9 48.9 0 1 0 48.9-48.89 48.9 48.9 0 0 0-48.9 48.89zm48.9-48.89a48.9 48.9 0 1 0 0 97.79" fill="#f6ebf4"/><path d="M719.3 108.7a49.16 49.16 0 1 1 49.16 49.16 49.21 49.21 0 0 1-49.16-49.16zm.5 0a48.66 48.66 0 1 0 48.66-48.65 48.73 48.73 0 0 0-48.66 48.65z" fill="#7f3b90"/><path fill="#da1a5e" d="M768.46 71.4l24 23.88V122.13l-24 23.88-24-23.88V95.28l24-23.88z"/><path d="M744.22 122.23v-27l24.24-24.12 24.26 24.12v27.05l-24.26 24.18zm48-26.85l-23.76-23.62-23.82 23.62V122l23.82 23.62L792.2 122z" fill="#7e3b90"/><path fill="#f0bfd9" d="M768.46 71.4l24 23.88V122.13l-24 23.88"/><path fill="#7f3b90" d="M768.64 146.19l24.08-23.96V95.18l-24.08-23.96-.36.36 23.94 23.8v26.65l-23.94 23.8.36.36z"/><path transform="rotate(-23.01 751.4347 119.1549)" fill="#7f3b90" d="M743.85 118.89h15.19v.5h-15.19z"/><path fill="#7f3b90" d="M768.22 126.15h.5v19.84h-.5z"/><path transform="rotate(-66.99 785.474 119.1594)" fill="#7f3b90" d="M785.22 111.57h.5v15.19h-.5z"/><path transform="rotate(-67.01 751.4645 98.2591)" fill="#7f3b90" d="M751.22 90.66h.5v15.19h-.5z"/><path fill="#7f3b90" d="M768.22 71.4h.5v19.84h-.5z"/><path transform="rotate(-23.03 785.4757 98.2644)" fill="#7f3b90" d="M777.87 98h15.19v.5h-15.19z"/><path fill="#de6279" d="M768.46 91.26l10.03 9.95V116.2l-10.03 9.95-10.01-9.95V101.21l10.01-9.95z"/><path d="M758.19 116.3v-15.19l10.27-10.21 10.27 10.21v15.19l-10.27 10.13zm20-15l-9.79-9.7-9.77 9.71v14.79l9.77 9.71 9.77-9.71z" fill="#7e3b90"/><path d="M768.46 157.6a48.9 48.9 0 1 1 0-97.79H770a48.89 48.89 0 0 0 .28 97.71" fill="#f0cae0"/><path d="M719.3 108.7a49.21 49.21 0 0 1 49.16-49.15H770v.54a48.65 48.65 0 0 0 .26 97.23v.5l-1.76-.1v.14a49.21 49.21 0 0 1-49.2-49.16zm.5 0a48.72 48.72 0 0 0 43.42 48.38 49.17 49.17 0 0 1-.12-96.73 48.71 48.71 0 0 0-43.3 48.35z" fill="#7f3b90"/><path d="M777.73 54.49h-9.27a54.22 54.22 0 1 0 0 108.43h9.27a54.22 54.22 0 0 0 0-108.43zm53.71 54.22c0 .6 0 1.2-.05 1.79h-8.76v-1.8-1.81h8.76c.02.6.05 1.21.05 1.82zm-18.58 31.09h8.65q-1.32 1.86-2.79 3.59h-8.61c.97-1.15 1.89-2.39 2.75-3.59zm.35-.5c.81-1.17 1.56-2.38 2.27-3.62h8.69c-.72 1.24-1.49 2.45-2.3 3.62zm2.55-4.12c.66-1.18 1.28-2.38 1.86-3.62h8.72c-.59 1.24-1.22 2.44-1.89 3.62zm2.08-4.11c.54-1.19 1-2.39 1.5-3.62h8.73c-.46 1.23-1 2.43-1.51 3.62zm1.68-4.12c.42-1.18.79-2.38 1.13-3.6h8.75q-.51 1.83-1.14 3.6zm1.28-4.1c.32-1.19.6-2.39.84-3.61h8.76c-.24 1.22-.53 2.42-.86 3.61zm.93-4.11c.22-1.2.41-2.4.55-3.62H831c-.14 1.22-.32 2.42-.55 3.62zm-8.52-40.63h8.66c.81 1.17 1.58 2.38 2.3 3.62h-8.69c-.71-1.24-1.48-2.45-2.27-3.62zM810.1 74h8.6c1 1.17 1.92 2.37 2.81 3.62h-8.65c-.86-1.25-1.79-2.46-2.76-3.62zm14.35 8.24c.67 1.18 1.3 2.38 1.89 3.61h-8.72c-.58-1.23-1.2-2.43-1.86-3.61zm2.11 4.11c.54 1.18 1.05 2.38 1.5 3.6h-8.73c-.45-1.22-1-2.42-1.49-3.6zm1.69 4.1c.43 1.18.8 2.39 1.15 3.62h-8.75c-.34-1.23-.72-2.43-1.14-3.62zm1.29 4.12c.33 1.19.62 2.39.86 3.61h-8.76c-.24-1.22-.52-2.42-.84-3.61zm1 4.11c.23 1.19.41 2.4.55 3.62h-8.76c-.14-1.22-.33-2.42-.55-3.62zm-8.14 16c.12-1.2.21-2.4.26-3.62h8.77c0 1.22-.14 2.42-.27 3.62zm.26-8.23c-.05-1.21-.14-2.41-.26-3.6h8.76q.2 1.78.27 3.6zm-4.34-32.9h-8.61c-1.06-1.25-2.19-2.45-3.36-3.59h8.54q1.75 1.65 3.38 3.53zM795.4 61.66h8.26a53.93 53.93 0 0 1 5.67 3.62h-8.41a54.61 54.61 0 0 0-5.52-3.62zm7.33-.5h-8.2a54.21 54.21 0 0 0-8.12-3.61h7.71a54 54 0 0 1 8.61 3.61zm7.27 4.62a54.88 54.88 0 0 1 4.3 3.62h-8.55a51.81 51.81 0 0 0-4.21-3.62zM777.73 55a53.67 53.67 0 0 1 14.71 2.06H785a54.22 54.22 0 0 0-9.27-2.06zm-63.07 53.7a53.78 53.78 0 0 1 86.05-42.95 54.15 54.15 0 0 1 11.73 12.16l.12.17q1.32 1.9 2.48 3.93v.19h.11a53.74 53.74 0 1 1-100.49 26.5zm79.87 47.54h8.2a52.39 52.39 0 0 1-8.55 3.6h-7.71a53.49 53.49 0 0 0 8.06-3.6zm.87-.5a56.29 56.29 0 0 0 5.52-3.61h8.41a52.28 52.28 0 0 1-5.67 3.61zm6.16-4.11a53.86 53.86 0 0 0 4.21-3.62h8.55a54.88 54.88 0 0 1-4.3 3.62zm-25.83 10.79a54 54 0 0 0 9.27-2.08h7.51a53.8 53.8 0 0 1-14.78 2.08zm39.11-14.91h-8.54q1.77-1.72 3.38-3.62h8.61q-1.65 1.89-3.45 3.62z" fill="#7f3b90"/><path fill="#bd1e52" d="M801.03 104.31v7.79l3.9 3.88v-15.57l-3.9 3.9z"/><path fill="#f2d5e6" d="M804.93 100.41l3.89 3.9v7.79l-3.89 3.88v-15.57z"/><path fill="#c97ea8" d="M804.93 103.65l1.64 1.62V111.14l-1.64 1.62-1.62-1.62V105.27l1.62-1.62z"/><path d="M804.93 100.07l-4.16 4.14v8l4.16 4.24 4.15-4.24v-8zm1.61 4.91l-1.37-1.37v-2.56l3.17 3.16zm-1.61 7.42l-1.38-1.4v-5.65l1.38-1.36 1.38 1.36V111zm-.26-8.77L803.3 105l-1.81-.77 3.18-3.16zm-1.62 1.8v5.51l-1.78.76v-7zm.17 6l1.45 1.45v2.56l-3.26-3.24zm1.95 1.47l1.44-1.44 1.78.75-3.22 3.25zm1.64-1.9v-5.6l1.77-.75v7.08z" fill="#7e3b90"/><path fill="#bd1e52" d="M729.19 104.31v7.79l3.9 3.88v-15.57l-3.9 3.9z"/><path fill="#f2d5e6" d="M733.09 100.41l3.9 3.9v7.79l-3.9 3.88v-15.57z"/><path fill="#c97ea8" d="M733.09 103.65l1.64 1.62V111.14l-1.64 1.62-1.62-1.62V105.27l1.62-1.62z"/><path d="M733.09 100.07l-4.16 4.14v8l4.16 4.24 4.15-4.24v-8zm1.61 4.93l-1.37-1.37v-2.56l3.17 3.16zm-1.61 7.42l-1.38-1.42v-5.65l1.38-1.36 1.38 1.36V111zm-.26-8.77l-1.37 1.35-1.81-.77 3.18-3.16zm-1.62 1.8v5.51l-1.78.76v-7zm.17 6l1.45 1.45v2.56l-3.26-3.24zm2 1.47l1.44-1.44 1.78.75-3.22 3.25zM735 111v-5.6l1.78-.75v7.08z" fill="#7e3b90"/></g><g id="rupie-coin-2" data-name="rupie-coin"><path d="M634.23 162.66h9.27a54 54 0 0 0 0-107.91h-9.27" fill="#f0cae0"/><path d="M580.27 108.7a54 54 0 1 0 54-53.95 54 54 0 0 0-54 53.95z" fill="#f7fcfe"/><path d="M585.33 108.7a48.9 48.9 0 1 0 48.9-48.89 48.9 48.9 0 0 0-48.9 48.89zm48.9-48.89a48.9 48.9 0 1 0 0 97.79" fill="#f6ebf4"/><path d="M585.07 108.7a49.16 49.16 0 1 1 49.16 49.16 49.21 49.21 0 0 1-49.16-49.16zm.5 0a48.66 48.66 0 1 0 48.66-48.65 48.73 48.73 0 0 0-48.66 48.65z" fill="#7f3b90"/><path fill="#da1a5e" d="M634.23 71.4l24 23.88V122.13l-24 23.88-24-23.88V95.28l24-23.88z"/><path d="M610 122.23v-27l24.24-24.12 24.26 24.12v27.05l-24.26 24.18zm48-26.85l-23.77-23.62-23.82 23.62V122l23.82 23.62L658 122z" fill="#7e3b90"/><path fill="#f0bfd9" d="M634.23 71.4l24 23.88V122.13l-24 23.88"/><path fill="#7f3b90" d="M634.41 146.19l24.08-23.96V95.18l-24.08-23.96-.36.36 23.94 23.8v26.65l-23.94 23.8.36.36z"/><path transform="rotate(-23.01 617.2031 119.1551)" fill="#7f3b90" d="M609.62 118.89h15.19v.5h-15.19z"/><path fill="#7f3b90" d="M633.99 126.15h.5v19.84h-.5z"/><path transform="rotate(-66.99 651.2394 119.1666)" fill="#7f3b90" d="M650.99 111.57h.5v15.19h-.5z"/><path transform="rotate(-67.01 617.2353 98.2556)" fill="#7f3b90" d="M616.99 90.66h.5v15.19h-.5z"/><path fill="#7f3b90" d="M633.99 71.4h.5v19.84h-.5z"/><path transform="rotate(-23.03 651.2314 98.2407)" fill="#7f3b90" d="M643.64 98h15.19v.5h-15.19z"/><path fill="#de6279" d="M634.23 91.26l10.03 9.95V116.2l-10.03 9.95-10.01-9.95V101.21l10.01-9.95z"/><path d="M624 116.3v-15.19l10.23-10.21 10.27 10.21v15.19l-10.27 10.13zm20-15l-9.77-9.73-9.77 9.71v14.82l9.77 9.71 9.77-9.71z" fill="#7e3b90"/><path d="M634.23 157.6a48.9 48.9 0 1 1 0-97.79h1.52a48.89 48.89 0 0 0 .28 97.71" fill="#f0cae0"/><path d="M585.07 108.7a49.21 49.21 0 0 1 49.16-49.15h1.52v.54a48.65 48.65 0 0 0 .26 97.23v.5l-1.76-.1v.14a49.21 49.21 0 0 1-49.18-49.16zm.5 0A48.72 48.72 0 0 0 629 157.08a49.17 49.17 0 0 1-.12-96.73 48.71 48.71 0 0 0-43.31 48.35z" fill="#7f3b90"/><path d="M643.5 54.49h-9.27a54.22 54.22 0 1 0 0 108.43h9.27a54.22 54.22 0 0 0 0-108.43zm53.71 54.22c0 .6 0 1.2-.05 1.79h-8.76v-1.8-1.81h8.76c.02.6.05 1.21.05 1.82zm-18.58 31.09h8.65q-1.32 1.86-2.79 3.59h-8.61c.97-1.15 1.88-2.39 2.75-3.59zm.35-.5c.81-1.17 1.56-2.38 2.27-3.62h8.69c-.72 1.24-1.49 2.45-2.3 3.62zm2.55-4.12c.66-1.18 1.28-2.38 1.86-3.62h8.72c-.59 1.24-1.22 2.44-1.89 3.62zm2.08-4.11c.54-1.19 1-2.39 1.5-3.62h8.73c-.46 1.23-1 2.43-1.51 3.62zm1.68-4.12c.42-1.18.79-2.38 1.13-3.6h8.75q-.51 1.83-1.14 3.6zm1.28-4.1c.32-1.19.6-2.39.84-3.61h8.76c-.24 1.22-.53 2.42-.86 3.61zm.93-4.11c.22-1.2.41-2.4.55-3.62h8.76c-.14 1.22-.32 2.42-.55 3.62zM679 78.11h8.66c.81 1.17 1.58 2.38 2.3 3.62h-8.69c-.73-1.24-1.48-2.45-2.27-3.62zM675.87 74h8.6c1 1.17 1.92 2.37 2.81 3.62h-8.65c-.88-1.25-1.79-2.46-2.76-3.62zm14.35 8.24c.67 1.18 1.3 2.38 1.89 3.61h-8.72c-.58-1.23-1.2-2.43-1.86-3.61zm2.11 4.11c.54 1.18 1 2.38 1.5 3.6h-8.73c-.45-1.22-1-2.42-1.49-3.6zm1.69 4.1c.43 1.18.8 2.39 1.15 3.62h-8.75c-.34-1.23-.72-2.43-1.14-3.62zm1.29 4.12c.33 1.19.62 2.39.86 3.61h-8.76c-.24-1.22-.52-2.42-.84-3.61zm1 4.11c.23 1.19.41 2.4.55 3.62h-8.76c-.14-1.22-.33-2.42-.55-3.62zm-8.14 16c.12-1.2.21-2.4.26-3.62h8.77c0 1.22-.14 2.42-.27 3.62zm.26-8.23c0-1.21-.14-2.41-.26-3.6h8.76q.2 1.78.27 3.6zM684 73.49h-8.61c-1.06-1.25-2.19-2.45-3.36-3.59h8.54q1.84 1.71 3.43 3.59zm-22.83-11.83h8.26a53.93 53.93 0 0 1 5.67 3.62h-8.41a54.61 54.61 0 0 0-5.52-3.62zm7.33-.5h-8.2a54.21 54.21 0 0 0-8.12-3.61h7.71a54 54 0 0 1 8.61 3.61zm7.29 4.62a54.88 54.88 0 0 1 4.3 3.62h-8.55a51.81 51.81 0 0 0-4.21-3.62zM643.5 55a53.67 53.67 0 0 1 14.71 2.06h-7.48A54.22 54.22 0 0 0 641.5 55zm-63.07 53.7a53.78 53.78 0 0 1 86.05-42.95 54.15 54.15 0 0 1 11.73 12.16l.12.17q1.32 1.9 2.48 3.93v.19h.19a53.74 53.74 0 1 1-100.57 26.5zm79.87 47.54h8.2a52.39 52.39 0 0 1-8.55 3.6h-7.71a53.49 53.49 0 0 0 8.06-3.6zm.87-.5a56.29 56.29 0 0 0 5.52-3.61h8.41a52.28 52.28 0 0 1-5.67 3.61zm6.16-4.11a53.86 53.86 0 0 0 4.21-3.62h8.55a54.88 54.88 0 0 1-4.3 3.62zm-25.83 10.79a54 54 0 0 0 9.27-2.08h7.51a53.8 53.8 0 0 1-14.78 2.08zm39.11-14.91h-8.54q1.77-1.72 3.38-3.62h8.61q-1.65 1.89-3.45 3.62z" fill="#7f3b90"/><path fill="#bd1e52" d="M666.8 104.31v7.79l3.9 3.88v-15.57l-3.9 3.9z"/><path fill="#f2d5e6" d="M670.7 100.41l3.89 3.9v7.79l-3.89 3.88v-15.57z"/><path fill="#c97ea8" d="M670.7 103.65l1.64 1.62V111.14l-1.64 1.62-1.62-1.62V105.27l1.62-1.62z"/><path d="M670.7 100.07l-4.16 4.14v8l4.16 4.24 4.15-4.24v-8zm1.61 4.91l-1.37-1.37v-2.56l3.17 3.16zm-1.61 7.42l-1.38-1.4v-5.65l1.38-1.35 1.38 1.36V111zm-.26-8.77l-1.37 1.37-1.81-.77 3.18-3.16zm-1.62 1.8v5.51l-1.78.76v-7zm.17 6l1.45 1.45v2.56l-3.26-3.24zm2 1.47l1.44-1.44 1.78.75-3.22 3.25zm1.64-1.9v-5.6l1.77-.75v7.08z" fill="#7e3b90"/><path fill="#bd1e52" d="M594.96 104.31v7.79l3.9 3.88v-15.57l-3.9 3.9z"/><path fill="#f2d5e6" d="M598.86 100.41l3.89 3.9v7.79l-3.89 3.88v-15.57z"/><path fill="#c97ea8" d="M598.86 103.65l1.64 1.62V111.14l-1.64 1.62-1.62-1.62V105.27l1.62-1.62z"/><path d="M598.86 100.07l-4.16 4.14v8l4.16 4.24 4.14-4.25v-8zm1.61 4.91l-1.37-1.37v-2.56l3.17 3.16zm-1.61 7.42l-1.38-1.4v-5.65l1.38-1.36 1.38 1.36V111zm-.26-8.77l-1.37 1.37-1.81-.77 3.18-3.16zm-1.62 1.8v5.51l-1.78.76v-7zm.17 6l1.45 1.45v2.56l-3.26-3.24zm2 1.47l1.44-1.44 1.78.75-3.22 3.25zm1.64-1.9v-5.6l1.78-.75v7.08z" fill="#7e3b90"/></g><g id="rupie-coin-3" data-name="rupie-coin"><path d="M634.23 282.74h9.27a54 54 0 0 0 0-107.91h-9.27" fill="#f0cae0"/><path d="M580.27 228.79a54 54 0 1 0 54-54 54 54 0 0 0-54 54z" fill="#f7fcfe"/><path d="M585.33 228.79a48.9 48.9 0 1 0 48.9-48.9 48.9 48.9 0 0 0-48.9 48.9zm48.9-48.9a48.9 48.9 0 1 0 0 97.8" fill="#f6ebf4"/><path d="M585.07 228.79A49.16 49.16 0 1 1 634.23 278a49.22 49.22 0 0 1-49.16-49.21zm.5 0a48.66 48.66 0 1 0 48.66-48.66 48.73 48.73 0 0 0-48.66 48.66z" fill="#7f3b90"/><path fill="#da1a5e" d="M634.23 191.48l24 23.88V242.22l-24 23.88-24-23.88v-26.86l24-23.88z"/><path d="M610 242.32v-27.06l24.24-24.12 24.26 24.12v27.06l-24.27 24.18zm48-26.86l-23.72-23.62-23.82 23.62v26.66l23.82 23.62L658 242.12z" fill="#7e3b90"/><path fill="#f0bfd9" d="M634.23 191.48l24 23.88V242.22l-24 23.88"/><path fill="#7f3b90" d="M634.41 266.28l24.08-23.96v-27.06l-24.08-23.96-.36.36 23.94 23.8v26.66l-23.94 23.8.36.36z"/><path transform="rotate(-23.01 617.217 239.2423)" fill="#7f3b90" d="M609.62 238.98h15.19v.5h-15.19z"/><path fill="#7f3b90" d="M633.99 246.23h.5v19.84h-.5z"/><path transform="rotate(-66.99 651.2437 239.2537)" fill="#7f3b90" d="M650.99 231.66h.5v15.19h-.5z"/><path transform="rotate(-67.01 617.2388 218.3461)" fill="#7f3b90" d="M616.99 210.75h.5v15.19h-.5z"/><path fill="#7f3b90" d="M633.99 191.48h.5v19.84h-.5z"/><path transform="rotate(-23.03 651.229 218.3282)" fill="#7f3b90" d="M643.64 218.09h15.19v.5h-15.19z"/><path fill="#de6279" d="M634.23 211.34l10.03 9.95V236.28l-10.03 9.95-10.01-9.95V221.29l10.01-9.95z"/><path d="M624 236.38V221.2l10.23-10.2 10.27 10.2v15.18l-10.27 10.13zm20-15l-9.77-9.74-9.77 9.72v14.78l9.77 9.71 9.77-9.71z" fill="#7e3b90"/><path d="M634.23 277.69a48.9 48.9 0 0 1 0-97.8h1.52a48.9 48.9 0 0 0 .28 97.72" fill="#f0cae0"/><path d="M585.07 228.79a49.21 49.21 0 0 1 49.16-49.16h1.52v.54a48.66 48.66 0 0 0 .26 97.24v.5l-1.76-.1v.19a49.22 49.22 0 0 1-49.18-49.21zm.5 0A48.72 48.72 0 0 0 629 277.17a49.18 49.18 0 0 1-.12-96.74 48.72 48.72 0 0 0-43.31 48.36z" fill="#7f3b90"/><path d="M643.5 174.57h-9.27a54.22 54.22 0 1 0 0 108.43h9.27a54.22 54.22 0 0 0 0-108.43zm53.71 54.22c0 .61 0 1.2-.05 1.8h-8.76v-1.8-1.82h8.76c.02.61.05 1.21.05 1.82zm-18.58 31.09h8.65q-1.32 1.86-2.79 3.6h-8.61c.97-1.16 1.88-2.36 2.75-3.6zm.35-.5c.81-1.17 1.56-2.38 2.27-3.61h8.69c-.72 1.23-1.49 2.44-2.3 3.61zm2.55-4.11c.66-1.18 1.28-2.39 1.86-3.62h8.72c-.59 1.23-1.22 2.44-1.89 3.62zm2.08-4.12c.54-1.19 1-2.39 1.5-3.62h8.73c-.46 1.23-1 2.44-1.51 3.62zm1.68-4.12c.42-1.18.79-2.38 1.13-3.59h8.75c-.34 1.21-.72 2.41-1.14 3.59zm1.28-4.09c.32-1.19.6-2.4.84-3.62h8.76c-.24 1.22-.53 2.43-.86 3.62zm.93-4.12c.22-1.19.41-2.4.55-3.62h8.76c-.14 1.22-.32 2.43-.55 3.62zm-8.5-40.63h8.66c.81 1.18 1.58 2.38 2.3 3.62h-8.69c-.73-1.23-1.48-2.44-2.27-3.62zm-3.11-4.11h8.6c1 1.16 1.92 2.37 2.81 3.62h-8.65c-.9-1.25-1.81-2.46-2.78-3.62zm14.35 8.23c.67 1.18 1.3 2.39 1.89 3.62h-8.72c-.58-1.23-1.2-2.44-1.86-3.62zm2.11 4.12c.54 1.18 1 2.37 1.5 3.59h-8.75c-.45-1.22-1-2.41-1.49-3.59zm1.69 4.09c.43 1.19.8 2.4 1.15 3.62h-8.75c-.34-1.22-.72-2.43-1.14-3.62zm1.29 4.12c.33 1.19.62 2.4.86 3.62h-8.76c-.24-1.22-.52-2.43-.84-3.62zm1 4.12c.23 1.19.41 2.4.55 3.61h-8.76c-.14-1.21-.33-2.42-.55-3.61zm-8.14 15.94c.12-1.19.21-2.4.26-3.61h8.77c0 1.21-.14 2.42-.27 3.61zm.26-8.23c0-1.21-.14-2.41-.26-3.6h8.76q.2 1.78.27 3.6zM684 193.58h-8.61c-1.06-1.25-2.19-2.45-3.36-3.6h8.54q1.84 1.73 3.43 3.6zm-22.87-11.83h8.26a53.93 53.93 0 0 1 5.67 3.62h-8.41a54.61 54.61 0 0 0-5.48-3.62zm7.33-.5h-8.2a54.26 54.26 0 0 0-8.12-3.62h7.71a54 54 0 0 1 8.65 3.62zm7.29 4.62a54.75 54.75 0 0 1 4.3 3.61h-8.55a53.74 53.74 0 0 0-4.21-3.61zm-32.29-10.8a53.67 53.67 0 0 1 14.71 2.06h-7.48a54.22 54.22 0 0 0-9.23-2.07zm-63.07 53.72a53.77 53.77 0 0 1 86.05-42.95A53.73 53.73 0 0 1 678.25 198l.12.16c.88 1.27 1.71 2.59 2.48 3.93v.19h.15a53.74 53.74 0 1 1-100.53 26.48zm79.87 47.54h8.2a54.21 54.21 0 0 1-8.55 3.6h-7.71a54.51 54.51 0 0 0 8.1-3.6zm.87-.5a54.61 54.61 0 0 0 5.52-3.62h8.41a53.93 53.93 0 0 1-5.67 3.62zm6.16-4.12a53.74 53.74 0 0 0 4.21-3.61h8.55c-1.37 1.27-2.81 2.48-4.3 3.61zM641.5 282.5a53.93 53.93 0 0 0 9.27-2.07h7.51a53.79 53.79 0 0 1-14.78 2.07zm39.11-14.9h-8.54c1.18-1.16 2.31-2.36 3.38-3.62h8.61c-1.06 1.26-2.25 2.46-3.45 3.62z" fill="#7f3b90"/><path fill="#bd1e52" d="M666.8 224.39V232.19l3.9 3.87V220.5l-3.9 3.89z"/><path fill="#f2d5e6" d="M670.7 220.5l3.89 3.89V232.19l-3.89 3.87V220.5z"/><path fill="#c97ea8" d="M670.7 223.73l1.64 1.62V231.23l-1.64 1.61-1.62-1.61V225.35l1.62-1.62z"/><path d="M670.7 220.16l-4.16 4.13v8l4.16 4.23 4.15-4.23v-8zm1.61 4.9l-1.37-1.37v-2.56l3.17 3.16zm-1.61 7.43l-1.38-1.38v-5.66l1.38-1.36 1.38 1.36v5.66zm-.26-8.78l-1.37 1.37-1.81-.77 3.18-3.16zm-1.62 1.81V231l-1.78.75v-7zm.17 6l1.45 1.45v2.55l-3.26-3.23zm2 1.47l1.44-1.45 1.78.76-3.22 3.24zm1.64-1.91v-5.57l1.77-.76v7.09z" fill="#7e3b90"/><path fill="#bd1e52" d="M594.96 224.39V232.19l3.9 3.87V220.5l-3.9 3.89z"/><path fill="#f2d5e6" d="M598.86 220.5l3.89 3.89V232.19l-3.89 3.87V220.5z"/><path fill="#c97ea8" d="M598.86 223.73l1.64 1.62V231.23l-1.64 1.61-1.62-1.61V225.35l1.62-1.62z"/><path d="M598.86 220.16l-4.16 4.13v8l4.16 4.23 4.15-4.23v-8zm1.61 4.9l-1.37-1.37v-2.56l3.17 3.16zm-1.61 7.43l-1.38-1.38v-5.66l1.38-1.36 1.38 1.36v5.66zm-.26-8.78l-1.37 1.37-1.81-.77 3.18-3.16zm-1.6 1.81V231l-1.78.75v-7zm.17 6l1.43 1.48v2.55l-3.26-3.23zm2 1.47l1.44-1.45 1.78.76-3.22 3.24zm1.64-1.91v-5.57l1.78-.76v7.09z" fill="#7e3b90"/></g><g id="rupie-coin-4" data-name="rupie-coin"><path d="M768.46 282.74h9.27a54 54 0 0 0 0-107.91h-9.27" fill="#f0cae0"/><path d="M714.5 228.79a54 54 0 1 0 54-54 54 54 0 0 0-54 54z" fill="#f7fcfe"/><path d="M719.56 228.79a48.9 48.9 0 1 0 48.9-48.9 48.9 48.9 0 0 0-48.9 48.9zm48.9-48.9a48.9 48.9 0 1 0 0 97.8" fill="#f6ebf4"/><path d="M719.3 228.79A49.16 49.16 0 1 1 768.46 278a49.22 49.22 0 0 1-49.16-49.21zm.5 0a48.66 48.66 0 1 0 48.66-48.66 48.73 48.73 0 0 0-48.66 48.66z" fill="#7f3b90"/><path fill="#da1a5e" d="M768.46 191.48l24 23.88V242.22l-24 23.88-24-23.88v-26.86l24-23.88z"/><path d="M744.22 242.32v-27.06l24.24-24.12 24.26 24.12v27.06l-24.26 24.18zm48-26.86l-23.72-23.62-23.82 23.62v26.66l23.82 23.62 23.74-23.62z" fill="#7e3b90"/><path fill="#f0bfd9" d="M768.46 191.48l24 23.88V242.22l-24 23.88"/><path fill="#7f3b90" d="M768.64 266.28l24.08-23.96v-27.06l-24.08-23.96-.36.36 23.94 23.8v26.66l-23.94 23.8.36.36z"/><path transform="rotate(-23.01 751.4486 239.2421)" fill="#7f3b90" d="M743.85 238.98h15.19v.5h-15.19z"/><path fill="#7f3b90" d="M768.22 246.23h.5v19.84h-.5z"/><path transform="rotate(-66.99 785.4783 239.2465)" fill="#7f3b90" d="M785.22 231.66h.5v15.19h-.5z"/><path transform="rotate(-67.01 751.4655 218.3371)" fill="#7f3b90" d="M751.22 210.75h.5v15.19h-.5z"/><path fill="#7f3b90" d="M768.22 191.48h.5v19.84h-.5z"/><path transform="rotate(-23.03 785.4782 218.3273)" fill="#7f3b90" d="M777.87 218.09h15.19v.5h-15.19z"/><path fill="#de6279" d="M768.46 211.34l10.03 9.95V236.28l-10.03 9.95-10.01-9.95V221.29l10.01-9.95z"/><path d="M758.19 236.38V221.2l10.27-10.2 10.27 10.22v15.18l-10.27 10.13zm20-15l-9.77-9.74-9.77 9.72v14.78l9.77 9.71 9.77-9.71z" fill="#7e3b90"/><path d="M768.46 277.69a48.9 48.9 0 1 1 0-97.8H770a48.9 48.9 0 0 0 .28 97.72" fill="#f0cae0"/><path d="M719.3 228.79a49.21 49.21 0 0 1 49.16-49.16H770v.54a48.66 48.66 0 0 0 .26 97.24v.5l-1.76-.1v.19a49.22 49.22 0 0 1-49.2-49.21zm.5 0a48.72 48.72 0 0 0 43.42 48.38 49.18 49.18 0 0 1-.12-96.74 48.72 48.72 0 0 0-43.3 48.36z" fill="#7f3b90"/><path d="M777.73 174.57h-9.27a54.22 54.22 0 1 0 0 108.43h9.27a54.22 54.22 0 0 0 0-108.43zm53.71 54.22c0 .61 0 1.2-.05 1.8h-8.76v-1.8-1.82h8.76c.02.61.05 1.21.05 1.82zm-18.58 31.09h8.65q-1.32 1.86-2.79 3.6h-8.61c.97-1.16 1.89-2.36 2.75-3.6zm.35-.5c.81-1.17 1.56-2.38 2.27-3.61h8.69c-.72 1.23-1.49 2.44-2.3 3.61zm2.55-4.11c.66-1.18 1.28-2.39 1.86-3.62h8.72c-.59 1.23-1.22 2.44-1.89 3.62zm2.08-4.12c.54-1.19 1-2.39 1.5-3.62h8.73c-.46 1.23-1 2.44-1.51 3.62zm1.68-4.12c.42-1.18.79-2.38 1.13-3.59h8.75c-.34 1.21-.72 2.41-1.14 3.59zm1.28-4.09c.32-1.19.6-2.4.84-3.62h8.76c-.24 1.22-.53 2.43-.86 3.62zm.93-4.12c.22-1.19.41-2.4.55-3.62H831c-.14 1.22-.32 2.43-.55 3.62zm-8.52-40.63h8.66c.81 1.18 1.58 2.38 2.3 3.62h-8.69c-.71-1.23-1.48-2.44-2.27-3.62zm-3.11-4.11h8.6c1 1.16 1.92 2.37 2.81 3.62h-8.65c-.86-1.25-1.79-2.46-2.76-3.62zm14.35 8.23c.67 1.18 1.3 2.39 1.89 3.62h-8.72c-.58-1.23-1.2-2.44-1.86-3.62zm2.11 4.12c.54 1.18 1.05 2.37 1.5 3.59h-8.73c-.45-1.22-1-2.41-1.49-3.59zm1.69 4.09c.43 1.19.8 2.4 1.15 3.62h-8.75c-.34-1.22-.72-2.43-1.14-3.62zm1.29 4.12c.33 1.19.62 2.4.86 3.62h-8.76c-.24-1.22-.52-2.43-.84-3.62zm1 4.12c.23 1.19.41 2.4.55 3.61h-8.76c-.14-1.21-.33-2.42-.55-3.61zm-8.14 15.94c.12-1.19.21-2.4.26-3.61h8.77c0 1.21-.14 2.42-.27 3.61zm.26-8.23c-.05-1.21-.14-2.41-.26-3.6h8.76q.2 1.78.27 3.6zm-4.34-32.89h-8.61c-1.06-1.25-2.19-2.45-3.36-3.6h8.54q1.75 1.73 3.38 3.6zm-22.92-11.83h8.26a53.93 53.93 0 0 1 5.67 3.62h-8.41a54.61 54.61 0 0 0-5.52-3.62zm7.33-.5h-8.2a54.26 54.26 0 0 0-8.12-3.62h7.71a54 54 0 0 1 8.61 3.62zm7.29 4.62a54.75 54.75 0 0 1 4.3 3.61h-8.55a53.74 53.74 0 0 0-4.21-3.61zm-32.29-10.8a53.67 53.67 0 0 1 14.71 2.06H785a54.22 54.22 0 0 0-9.23-2.07zm-63.07 53.72a53.77 53.77 0 0 1 86.05-42.95A53.73 53.73 0 0 1 812.48 198l.12.16c.88 1.27 1.71 2.59 2.48 3.93v.19h.11a53.74 53.74 0 1 1-100.53 26.48zm79.87 47.54h8.2a54.21 54.21 0 0 1-8.55 3.6h-7.71a54.51 54.51 0 0 0 8.06-3.6zm.87-.5a54.61 54.61 0 0 0 5.52-3.62h8.41a53.93 53.93 0 0 1-5.67 3.62zm6.16-4.12a53.74 53.74 0 0 0 4.21-3.61h8.55c-1.37 1.27-2.81 2.48-4.3 3.61zm-25.83 10.79a53.93 53.93 0 0 0 9.27-2.07h7.51a53.79 53.79 0 0 1-14.78 2.07zm39.11-14.9h-8.54c1.18-1.16 2.31-2.36 3.38-3.62h8.61c-1.1 1.26-2.29 2.46-3.45 3.62z" fill="#7f3b90"/><path fill="#bd1e52" d="M801.03 224.39V232.19l3.9 3.87V220.5l-3.9 3.89z"/><path fill="#f2d5e6" d="M804.93 220.5l3.89 3.89V232.19l-3.89 3.87V220.5z"/><path fill="#c97ea8" d="M804.93 223.73l1.64 1.62V231.23l-1.64 1.61-1.62-1.61V225.35l1.62-1.62z"/><path d="M804.93 220.16l-4.16 4.13v8l4.16 4.23 4.15-4.23v-8zm1.61 4.9l-1.37-1.37v-2.56l3.17 3.16zm-1.61 7.43l-1.38-1.38v-5.66l1.38-1.36 1.38 1.36v5.66zm-.26-8.78l-1.37 1.37-1.81-.77 3.18-3.16zm-1.62 1.81V231l-1.78.75v-7zm.17 6l1.45 1.45v2.55l-3.26-3.23zm1.95 1.47l1.44-1.45 1.78.76-3.22 3.24zm1.64-1.91v-5.57l1.77-.76v7.09z" fill="#7e3b90"/><path fill="#bd1e52" d="M729.19 224.39V232.19l3.9 3.87V220.5l-3.9 3.89z"/><path fill="#f2d5e6" d="M733.09 220.5l3.9 3.89V232.19l-3.9 3.87V220.5z"/><path fill="#c97ea8" d="M733.09 223.73l1.64 1.62V231.23l-1.64 1.61-1.62-1.61V225.35l1.62-1.62z"/><path d="M733.09 220.16l-4.16 4.13v8l4.16 4.23 4.15-4.23v-8zm1.61 4.9l-1.37-1.37v-2.56l3.17 3.16zm-1.61 7.43l-1.38-1.38v-5.66l1.38-1.36 1.38 1.36v5.66zm-.26-8.78l-1.37 1.37-1.81-.77 3.18-3.16zm-1.62 1.81V231l-1.78.75v-7zm.17 6l1.45 1.45v2.55l-3.26-3.23zm2 1.47l1.44-1.45 1.78.76-3.22 3.24zm1.64-1.91v-5.57l1.78-.76v7.09z" fill="#7e3b90"/></g></svg>