<svg xmlns="http://www.w3.org/2000/svg" width="163.64" height="93.56" viewBox="0 0 163.64 93.56"><title>Artboard 44</title><g id="HEADER_ILLO" data-name="HEADER ILLO"><path d="M149.43,82.45l4.19-.08,2.9-3-.08-4.18-3-2.9-.92,2.33,1.63,1.57,0,2.26-1.57,1.63-2.26,0Z" style="fill:#c093c3"/><path d="M149.16,82.34l.92-2.34.27-.19,2.13,0,1.4-1.45,0-2-1.54-1.48-.07-.32.92-2.34.48-.11,3,2.91.09.2.07,4.18-.08.21-2.9,3-.21.09-4.18.08Zm7.06-3.1-.07-3.93-2.61-2.51-.68,1.74L154.34,76l.09.21,0,2.26-.08.21-1.57,1.62-.2.09-2.06,0-.69,1.74,3.62-.06Z" style="fill:#7c3990"/><path d="M14.5,50.94c.35,10.93,7.76,22,15.62,29.29,9.78,9,22.77,9.84,35.48,8.83a58.18,58.18,0,0,0,18.25-4.21C90.74,81.9,96.63,77.12,103.42,74c7.19-3.33,16.27-5.19,22.72.56,3.15,2.8,5.56,6.34,8.41,9.43,5.67,6.15,11,6.73,16-.54.45-.67-.63-1.29-1.08-.63-1.84,2.66-4.36,5.84-8,4.9-2.28-.58-4.17-2.61-5.73-4.26-3-3.17-5.47-6.85-8.74-9.79-9.44-8.48-22.58-2.13-31.75,3.45C88,81.51,80.91,85.37,72.44,86.93s-18.52,2-27.06.1C36.66,85.11,30,79.37,25,72.26,20.25,65.68,16,59.32,15.75,50.94c0-.8-1.28-.8-1.25,0Z" style="fill:#7d3990"/><path d="M149.64,80.11l-2.26,0-1.57-1.63,0-2.26,1.63-1.57-.92-2.33-3,2.9-.08,4.18,2.91,3,4.18.08Z" style="fill:#c093c3"/><path d="M150.55,82.74l-4.18-.08-.21-.09-2.9-3-.08-.21.08-4.18.09-.2,3-2.91.48.11.92,2.34-.07.32-1.54,1.48,0,2,1.4,1.45,2.13,0,.27.19.92,2.34Zm-4.05-.66,3.62.06-.68-1.74-2.06,0-.21-.09-1.57-1.62-.08-.21,0-2.26.09-.21,1.48-1.43-.68-1.74-2.61,2.51-.07,3.93Z" style="fill:#7c3990"/><polygon points="148.48 79.21 151.53 79.21 153.69 81.36 153.69 84.41 151.53 86.57 148.48 86.57 146.32 84.41 146.32 81.36 148.48 79.21" style="fill:#e6cae2"/><path d="M146.14,84.49v-3.2L148.4,79h3.21l2.27,2.27v3.2l-2.27,2.27H148.4Zm7.36-.15v-2.9l-2.05-2h-2.89l-2.05,2v2.9l2.05,2h2.89Z" style="fill:#7c3990"/><polygon points="151.53 79.21 148.48 79.21 146.32 81.36 146.32 84.41 148.48 86.57 151.53 86.57 150.95 85.17 150.95 80.61 151.53 79.21" style="fill:#b87bb5"/><polygon points="149.06 80.61 150.95 80.61 152.28 81.95 152.28 83.83 150.95 85.17 149.06 85.17 147.73 83.83 147.73 81.95 149.06 80.61" style="fill:#c093c3"/><path d="M147.54,83.91v-2L149,80.42h2l1.44,1.45v2L151,85.35h-2Zm4.55-.16V82l-1.22-1.22h-1.73L147.92,82v1.73L149.14,85h1.73Z" style="fill:#7c3990"/><rect x="150.48" y="79.72" width="1.52" height="0.38" transform="translate(19.53 189.06) rotate(-67.5)" style="fill:#7c3990"/><rect x="148.58" y="79.15" width="0.38" height="1.52" transform="translate(-19.26 63.04) rotate(-22.51)" style="fill:#7c3990"/><rect x="146.84" y="80.89" width="0.38" height="1.52" transform="translate(15.31 186.22) rotate(-67.49)" style="fill:#7c3990"/><rect x="146.27" y="83.93" width="1.52" height="0.38" transform="translate(-21 62.67) rotate(-22.5)" style="fill:#7c3990"/><rect x="148.01" y="85.68" width="1.52" height="0.38" transform="translate(12.51 190.45) rotate(-67.5)" style="fill:#7c3990"/><rect x="151.05" y="85.11" width="0.38" height="1.52" transform="matrix(0.92, -0.38, 0.38, 0.92, -21.35, 64.44)" style="fill:#7c3990"/><rect x="152.8" y="83.36" width="0.38" height="1.52" transform="translate(16.71 193.25) rotate(-67.49)" style="fill:#7c3990"/><rect x="152.23" y="81.47" width="1.52" height="0.38" transform="translate(-19.6 64.76) rotate(-22.5)" style="fill:#7c3990"/><path d="M146.14,84.49v-3.2L148.4,79h3.21l2.27,2.27v3.2l-2.27,2.27H148.4Zm7.36-.15v-2.9l-2.05-2h-2.89l-2.05,2v2.9l2.05,2h2.89Z" style="fill:#7c3990"/><polygon points="19.76 16.92 19.76 26.06 17.84 26.06 17.84 17.71 19.76 16.92" style="fill:#fde9f1"/><polygon points="15.41 14.8 15.41 12.1 19.49 16.17 17.57 16.96 15.41 14.8" style="fill:#fde9f1"/><polygon points="12.18 17.65 12.18 26.06 10.26 26.06 10.26 16.86 12.18 17.65" style="fill:#ee2a7b"/><polygon points="12.49 16.91 10.57 16.12 14.61 12.1 14.61 14.8 12.49 16.91" style="fill:#ee2a7b"/><polygon points="15.01 15.53 17.04 17.55 17.04 26.06 12.98 26.06 12.98 17.55 15.01 15.53" style="fill:#ebb8d5"/><polygon points="19.76 16.92 20.4 16.66 20.09 15.92 19.49 16.17 15.41 12.1 15.41 11.14 14.61 11.14 14.61 12.1 10.57 16.12 10.07 15.92 9.77 16.66 10.26 16.86 10.26 26.06 9.46 26.06 9.46 16.1 15.01 10.58 20.56 16.1 20.56 26.06 19.76 26.06 19.76 16.92" style="fill:#a02373"/><polygon points="15.01 14.41 14.61 14.8 14.61 12.1 14.61 11.14 15.41 11.14 15.41 12.1 15.41 14.8 15.01 14.41" style="fill:#a02373"/><polygon points="12.18 17.22 12.18 17.65 10.26 16.86 9.77 16.66 10.07 15.92 10.57 16.12 12.49 16.91 12.18 17.22" style="fill:#a02373"/><polygon points="17.84 17.22 17.57 16.96 19.49 16.17 20.09 15.92 20.4 16.66 19.76 16.92 17.84 17.71 17.84 17.22" style="fill:#a02373"/><polygon points="12.18 17.22 12.49 16.91 14.61 14.8 15.01 14.41 15.41 14.8 17.57 16.96 17.84 17.22 17.84 17.71 17.84 26.06 17.04 26.06 17.04 17.55 15.01 15.53 12.98 17.55 12.98 26.06 12.18 26.06 12.18 17.65 12.18 17.22" style="fill:#a02373"/><polygon points="9.48 8.22 20.54 8.22 28.36 16.04 28.36 31.5 20.54 39.32 9.48 39.32 1.66 31.5 1.66 16.04 9.48 8.22" style="fill:none;stroke:#7c3990;stroke-miterlimit:10"/><polyline points="28.36 23.22 28.36 35.98 15.01 49.26 1.66 35.98 1.66 23.22" style="fill:#bd92c2;stroke:#7d3990;stroke-miterlimit:10"/><polyline points="28.36 23.22 28.36 35.98 15.01 49.26 14.99 35.98 14.99 23.22" style="fill:#f5ebf4;stroke:#7d3990;stroke-linejoin:bevel"/><polyline points="9.44 23.22 9.44 32.68 15.01 38.22 20.58 32.67 20.58 23.22" style="fill:#e6cbe2;stroke:#7d3990;stroke-miterlimit:10"/><line x1="9.44" y1="32.68" x2="1.66" y2="35.98" style="fill:none;stroke:#7d3990;stroke-miterlimit:10"/><line x1="15.01" y1="38.22" x2="15.01" y2="49.26" style="fill:none;stroke:#7d3990;stroke-miterlimit:10"/><line x1="20.58" y1="32.67" x2="28.35" y2="35.98" style="fill:none;stroke:#7d3990;stroke-miterlimit:10"/><line x1="28.35" y1="23.22" x2="1.66" y2="23.22" style="fill:none;stroke:#7d3990;stroke-linecap:square;stroke-linejoin:bevel"/><rect x="12.58" y="46.81" width="4.86" height="3.89" transform="translate(30.02 97.52) rotate(-180)" style="fill:#da1c5c;stroke:#7c3990;stroke-miterlimit:10"/><rect x="15.01" y="46.81" width="2.43" height="3.89" transform="translate(32.45 97.52) rotate(-180)" style="fill:#e6cbe2;stroke:#7c3990;stroke-miterlimit:10"/><line x1="15.2" y1="1.91" x2="15.2" y2="6.85" style="fill:none;stroke:#7c3990;stroke-miterlimit:10"/><rect x="13.96" y="5.09" width="2.48" height="3.11" transform="translate(30.41 13.28) rotate(-180)" style="fill:#da1c5c;stroke:#7c3990;stroke-miterlimit:10"/><rect x="13.96" y="1.19" width="2.48" height="1.96" transform="translate(30.41 4.34) rotate(-180)" style="fill:#da1c5c;stroke:#7c3990;stroke-miterlimit:10"/><polygon points="150.03 21.09 154.98 26.01 154.98 60.83 150.03 65.75 145.12 60.86 145.12 25.98 150.03 21.09" style="fill:#ebb8d5"/><polygon points="150.03 12.16 150.03 21.09 145.12 25.98 145.12 60.86 150.03 65.75 150.03 74.68 138.83 63.54 138.83 23.3 150.03 12.16" style="fill:#ee2a7b"/><polygon points="150.03 12.16 161.24 23.3 161.24 63.54 150.03 74.68 150.03 65.75 154.98 60.83 154.98 26.01 150.03 21.09 150.03 12.16" style="fill:#fde9f1"/><polygon points="161.24 23.3 150.03 12.16 138.83 23.3 138.83 63.54 150.03 74.68 161.24 63.54 161.24 23.3" style="fill:none;stroke:#a02373;stroke-miterlimit:10"/><polygon points="154.98 26.01 150.03 21.09 145.12 25.98 145.12 60.86 150.03 65.75 154.98 60.83 154.98 26.01" style="fill:none;stroke:#a02373;stroke-miterlimit:10"/><line x1="154.98" y1="26.01" x2="161.24" y2="23.3" style="fill:none;stroke:#a02373;stroke-miterlimit:10"/><line x1="150.04" y1="12.16" x2="150.04" y2="21.09" style="fill:none;stroke:#a02373;stroke-miterlimit:10"/><line x1="145.12" y1="25.98" x2="138.83" y2="23.3" style="fill:none;stroke:#a02373;stroke-miterlimit:10"/><line x1="145.12" y1="60.86" x2="138.83" y2="63.54" style="fill:none;stroke:#a02373;stroke-miterlimit:10"/><line x1="150.04" y1="65.75" x2="150.04" y2="74.68" style="fill:none;stroke:#a02373;stroke-miterlimit:10"/><line x1="161.24" y1="63.54" x2="154.98" y2="60.83" style="fill:none;stroke:#a02373;stroke-miterlimit:10"/></g></svg>