<svg xmlns="http://www.w3.org/2000/svg" width="1396" height="854" viewBox="0 0 1396 854"><title>Artboard 4</title><g id="Layer_2" data-name="Layer 2"><path d="M601.33,724.06a19,19,0,0,0-13.43,5.54,6,6,0,0,1-9.26-.93A26.16,26.16,0,0,0,534,730.44a5.81,5.81,0,0,1-7.87,2.12,11.95,11.95,0,0,0-15.87,4.55,4,4,0,0,0,3.5,6H615.33a4.4,4.4,0,0,0,4.2-5.7A19.06,19.06,0,0,0,601.33,724.06Z" style="fill:#e0f2f4"/><path d="M1039.89,321.13a8.42,8.42,0,0,0-5.94,2.44,2.65,2.65,0,0,1-4.09-.41,11.56,11.56,0,0,0-19.74.78,2.56,2.56,0,0,1-3.48.94,5.3,5.3,0,0,0-7,2,1.78,1.78,0,0,0,1.55,2.65h44.91a1.94,1.94,0,0,0,1.85-2.51A8.42,8.42,0,0,0,1039.89,321.13Z" style="fill:#e0f2f4"/><path d="M155.15,728a21.89,21.89,0,0,0-13.52,4.42c-2.68,2.13-7.14,1.78-9.23-.73-4.69-5.61-12.72-9.31-21.86-9.31-21.41,0-31.95,20.73-24.44,20.73h80.74c4.37,0,7.39-3.63,5.44-6.72C169.15,731.43,162.66,728,155.15,728Z" style="fill:#e0f2f4"/><path d="M63.85,644.88A15.92,15.92,0,0,0,54,648.1a5.11,5.11,0,0,1-6.73-.53c-3.41-4.09-9.26-6.78-15.92-6.78-15.59,0-23.27,15.09-17.79,15.09h58.8c3.18,0,5.38-2.64,4-4.89C74.05,647.37,69.32,644.88,63.85,644.88Z" style="fill:#e0f2f4"/><path d="M261.19,307a15.93,15.93,0,0,0-9.85,3.22,5.09,5.09,0,0,1-6.72-.53c-3.41-4.08-9.27-6.78-15.92-6.78-15.59,0-23.27,15.09-17.8,15.09h58.8c3.19,0,5.38-2.64,4-4.89C271.39,309.48,266.65,307,261.19,307Z" style="fill:#e0f2f4"/><path d="M213.27,606.3a10.38,10.38,0,0,0-9.7,6.66,2.75,2.75,0,0,0,2.58,3.73h14.24A2.75,2.75,0,0,0,223,613,10.38,10.38,0,0,0,213.27,606.3Z" style="fill:#e0f2f4"/><path d="M110.29,475.11a18.67,18.67,0,0,0-17.79,13,4.31,4.31,0,0,0,4.08,5.62H124a4.3,4.3,0,0,0,4.08-5.62A18.65,18.65,0,0,0,110.29,475.11Z" style="fill:#e0f2f4"/><path d="M347.45,515.46a18.67,18.67,0,0,0-17.79,13,4.31,4.31,0,0,0,4.08,5.62h27.42a4.3,4.3,0,0,0,4.08-5.62A18.65,18.65,0,0,0,347.45,515.46Z" style="fill:#e0f2f4"/><path d="M554.58,217.53a18.65,18.65,0,0,0-17.79,13,4.3,4.3,0,0,0,4.08,5.62h27.42a4.31,4.31,0,0,0,4.08-5.62A18.67,18.67,0,0,0,554.58,217.53Z" style="fill:#e0f2f4"/><path d="M395.15,577.35a10.38,10.38,0,0,0-9.7,6.66,2.76,2.76,0,0,0,2.58,3.74h14.24a2.76,2.76,0,0,0,2.58-3.74A10.38,10.38,0,0,0,395.15,577.35Z" style="fill:#e0f2f4"/><path d="M310.49,524.79a10.39,10.39,0,0,0-9.71,6.66,2.76,2.76,0,0,0,2.59,3.73h14.24a2.75,2.75,0,0,0,2.58-3.73A10.39,10.39,0,0,0,310.49,524.79Z" style="fill:#e0f2f4"/><path d="M583.79,442.66A14.5,14.5,0,0,0,570,452.79a3.35,3.35,0,0,0,3.17,4.37h21.31a3.34,3.34,0,0,0,3.17-4.37A14.5,14.5,0,0,0,583.79,442.66Z" style="fill:#e0f2f4"/><path d="M555.06,449.91a8.1,8.1,0,0,0-7.55,5.18,2.15,2.15,0,0,0,2,2.9h11.06a2.14,2.14,0,0,0,2-2.9A8.08,8.08,0,0,0,555.06,449.91Z" style="fill:#e0f2f4"/><path d="M251.8,822.17a10.55,10.55,0,0,0-10.06,7.37,2.43,2.43,0,0,0,2.31,3.18h15.5a2.43,2.43,0,0,0,2.31-3.18A10.55,10.55,0,0,0,251.8,822.17Z" style="fill:#e0f2f4"/><path d="M230.9,827.44a5.89,5.89,0,0,0-5.49,3.77,1.56,1.56,0,0,0,1.46,2.11h8a1.55,1.55,0,0,0,1.46-2.11A5.87,5.87,0,0,0,230.9,827.44Z" style="fill:#e0f2f4"/><path d="M448.48,817.35a10.39,10.39,0,0,0-9.7,6.66,2.77,2.77,0,0,0,2.59,3.74H455.6a2.77,2.77,0,0,0,2.59-3.74A10.39,10.39,0,0,0,448.48,817.35Z" style="fill:#e0f2f4"/><path d="M876.21,114.69a10.41,10.41,0,0,0-9.71,6.66,2.77,2.77,0,0,0,2.59,3.74h14.24a2.76,2.76,0,0,0,2.58-3.74A10.39,10.39,0,0,0,876.21,114.69Z" style="fill:#e0f2f4"/><path d="M1304.66,724.06a19,19,0,0,0-13.43,5.54,6,6,0,0,1-9.27-.93,26.15,26.15,0,0,0-44.65,1.77,5.81,5.81,0,0,1-7.87,2.12,12,12,0,0,0-15.88,4.55,4,4,0,0,0,3.51,6h101.58a4.4,4.4,0,0,0,4.2-5.7A19.06,19.06,0,0,0,1304.66,724.06Z" style="fill:#e0f2f4"/><path d="M1158.11,653.24a8.4,8.4,0,0,0-5.94,2.44,2.65,2.65,0,0,1-4.09-.41,11.57,11.57,0,0,0-19.75.78,2.56,2.56,0,0,1-3.47.94,5.36,5.36,0,0,0-2.46-.6,5.27,5.27,0,0,0-4.56,2.62,1.77,1.77,0,0,0,1.55,2.65h44.9a1.94,1.94,0,0,0,1.86-2.51A8.42,8.42,0,0,0,1158.11,653.24Z" style="fill:#e0f2f4"/><path d="M858.47,728A21.88,21.88,0,0,0,845,732.44c-2.69,2.13-7.14,1.78-9.24-.73C831,726.1,823,722.4,813.86,722.4c-21.4,0-31.94,20.73-24.43,20.73h80.74c4.37,0,7.38-3.63,5.44-6.72C872.48,731.43,866,728,858.47,728Z" style="fill:#e0f2f4"/><path d="M767.18,644.88a15.93,15.93,0,0,0-9.85,3.22,5.1,5.1,0,0,1-6.72-.53c-3.42-4.09-9.27-6.78-15.93-6.78-15.59,0-23.26,15.09-17.79,15.09h58.8c3.19,0,5.38-2.64,4-4.89C777.37,647.37,772.64,644.88,767.18,644.88Z" style="fill:#e0f2f4"/><path d="M1375.1,528.88a15.92,15.92,0,0,0-9.84,3.22,5.11,5.11,0,0,1-6.73-.53c-3.41-4.09-9.26-6.78-15.92-6.78-15.59,0-23.27,15.09-17.8,15.09h58.81c3.18,0,5.38-2.64,4-4.89C1385.3,531.37,1380.57,528.88,1375.1,528.88Z" style="fill:#e0f2f4"/><path d="M916.59,606.3a10.39,10.39,0,0,0-9.7,6.66,2.76,2.76,0,0,0,2.59,3.73h14.23A2.76,2.76,0,0,0,926.3,613,10.39,10.39,0,0,0,916.59,606.3Z" style="fill:#e0f2f4"/><path d="M813.62,475.11a18.66,18.66,0,0,0-17.79,13,4.3,4.3,0,0,0,4.08,5.62h27.42a4.31,4.31,0,0,0,4.08-5.62A18.67,18.67,0,0,0,813.62,475.11Z" style="fill:#e0f2f4"/><path d="M1050.78,515.46a18.66,18.66,0,0,0-17.79,13,4.3,4.3,0,0,0,4.08,5.62h27.42a4.31,4.31,0,0,0,4.08-5.62A18.67,18.67,0,0,0,1050.78,515.46Z" style="fill:#e0f2f4"/><path d="M1266,484.44a18.66,18.66,0,0,0-17.79,13,4.3,4.3,0,0,0,4.08,5.62h27.42a4.31,4.31,0,0,0,4.08-5.62A18.67,18.67,0,0,0,1266,484.44Z" style="fill:#e0f2f4"/><path d="M544.69,329.55a10.41,10.41,0,0,0-9.71,6.66,2.77,2.77,0,0,0,2.59,3.74h14.24a2.76,2.76,0,0,0,2.58-3.74A10.41,10.41,0,0,0,544.69,329.55Z" style="fill:#e0f2f4"/><path d="M1013.81,524.79a10.39,10.39,0,0,0-9.7,6.66,2.76,2.76,0,0,0,2.59,3.73h14.23a2.76,2.76,0,0,0,2.59-3.73A10.39,10.39,0,0,0,1013.81,524.79Z" style="fill:#e0f2f4"/><path d="M1023.7,773.11a10.55,10.55,0,0,0-10.06,7.37,2.44,2.44,0,0,0,2.31,3.18h15.51a2.43,2.43,0,0,0,2.3-3.18A10.55,10.55,0,0,0,1023.7,773.11Z" style="fill:#e0f2f4"/><path d="M934.22,827.44a5.9,5.9,0,0,0-5.49,3.77,1.56,1.56,0,0,0,1.46,2.11h8.06a1.56,1.56,0,0,0,1.46-2.11A5.9,5.9,0,0,0,934.22,827.44Z" style="fill:#e0f2f4"/><path d="M1151.81,817.35a10.39,10.39,0,0,0-9.71,6.66,2.77,2.77,0,0,0,2.59,3.74h14.24a2.76,2.76,0,0,0,2.58-3.74A10.39,10.39,0,0,0,1151.81,817.35Z" style="fill:#e0f2f4"/><path d="M132.06,142.32A10.54,10.54,0,0,0,122,149.69a2.43,2.43,0,0,0,2.31,3.17h15.5a2.43,2.43,0,0,0,2.31-3.17A10.54,10.54,0,0,0,132.06,142.32Z" style="fill:#e0f2f4"/><path d="M163,242.82a10.4,10.4,0,0,0-9.71,6.67,2.76,2.76,0,0,0,2.59,3.73h14.23a2.76,2.76,0,0,0,2.59-3.73A10.4,10.4,0,0,0,163,242.82Z" style="fill:#e0f2f4"/><path d="M155.15,403.89a21.89,21.89,0,0,0-13.52,4.42c-2.68,2.13-7.14,1.78-9.23-.73-4.69-5.61-12.72-9.31-21.86-9.31C89.13,398.27,78.59,419,86.1,419h80.74c4.37,0,7.39-3.63,5.44-6.72C169.15,407.3,162.66,403.89,155.15,403.89Z" style="fill:#e0f2f4"/><path d="M83.27,206.31a21.89,21.89,0,0,0-13.52,4.42c-2.69,2.13-7.14,1.78-9.24-.73-4.68-5.61-12.71-9.31-21.86-9.31-21.4,0-31.94,20.73-24.43,20.73H95c4.37,0,7.38-3.63,5.44-6.72C97.27,209.73,90.77,206.31,83.27,206.31Z" style="fill:#e0f2f4"/><path d="M347.45,191.33a18.67,18.67,0,0,0-17.79,13,4.31,4.31,0,0,0,4.08,5.62h27.42a4.3,4.3,0,0,0,4.08-5.62A18.65,18.65,0,0,0,347.45,191.33Z" style="fill:#e0f2f4"/><path d="M395.15,253.22a10.38,10.38,0,0,0-9.7,6.66,2.76,2.76,0,0,0,2.58,3.74h14.24a2.76,2.76,0,0,0,2.58-3.74A10.38,10.38,0,0,0,395.15,253.22Z" style="fill:#e0f2f4"/><path d="M858.47,403.89A21.88,21.88,0,0,0,845,408.31c-2.69,2.13-7.14,1.78-9.24-.73C831,402,823,398.27,813.86,398.27c-21.4,0-31.94,20.73-24.43,20.73h80.74c4.37,0,7.38-3.63,5.44-6.72C872.48,407.3,866,403.89,858.47,403.89Z" style="fill:#e0f2f4"/><path d="M1334.49,269.26a21.89,21.89,0,0,0-13.52,4.43c-2.68,2.12-7.14,1.77-9.23-.73-4.69-5.61-12.72-9.31-21.86-9.31-21.41,0-32,20.72-24.44,20.72h80.74c4.37,0,7.39-3.62,5.44-6.71C1348.49,272.68,1342,269.26,1334.49,269.26Z" style="fill:#e0f2f4"/><path d="M1294.9,33.4a21.89,21.89,0,0,0-13.52,4.43c-2.68,2.12-7.14,1.77-9.23-.73-4.69-5.61-12.72-9.31-21.86-9.31-21.41,0-32,20.72-24.43,20.72h80.73c4.38,0,7.39-3.62,5.44-6.71C1308.9,36.82,1302.41,33.4,1294.9,33.4Z" style="fill:#e0f2f4"/><path d="M511,81.4a21.8,21.8,0,0,0-13.51,4.43c-2.69,2.12-7.14,1.77-9.24-.74-4.68-5.6-12.72-9.3-21.86-9.3C445,75.79,434.48,96.51,442,96.51h80.74c4.37,0,7.38-3.62,5.43-6.72C525.05,84.82,518.55,81.4,511,81.4Z" style="fill:#e0f2f4"/><path d="M1050.78,191.33a18.66,18.66,0,0,0-17.79,13,4.3,4.3,0,0,0,4.08,5.62h27.42a4.31,4.31,0,0,0,4.08-5.62A18.67,18.67,0,0,0,1050.78,191.33Z" style="fill:#e0f2f4"/><path d="M1266,160.31a18.66,18.66,0,0,0-17.79,13,4.3,4.3,0,0,0,4.08,5.62h27.42a4.31,4.31,0,0,0,4.08-5.62A18.67,18.67,0,0,0,1266,160.31Z" style="fill:#e0f2f4"/><path d="M1013.81,200.66a10.39,10.39,0,0,0-9.7,6.66,2.76,2.76,0,0,0,2.59,3.73h14.23a2.76,2.76,0,0,0,2.59-3.73A10.39,10.39,0,0,0,1013.81,200.66Z" style="fill:#e0f2f4"/><path d="M934.22,503.31a5.9,5.9,0,0,0-5.49,3.77,1.56,1.56,0,0,0,1.46,2.11h8.06a1.56,1.56,0,0,0,1.46-2.11A5.9,5.9,0,0,0,934.22,503.31Z" style="fill:#e0f2f4"/><path d="M715.13,263.62a10.39,10.39,0,0,0-9.7,6.66A2.75,2.75,0,0,0,708,274h14.24a2.76,2.76,0,0,0,2.59-3.73A10.39,10.39,0,0,0,715.13,263.62Z" style="fill:#e0f2f4"/></g></svg>