<svg id="Layer_1" data-name="Layer 1" xmlns="http://www.w3.org/2000/svg" width="1400" height="929" viewBox="0 0 1400 929"><title>Artboard 1</title><path d="M606.64,706a19,19,0,0,0-13.43,5.53,6,6,0,0,1-9.26-.93,26.16,26.16,0,0,0-44.66,1.77,5.8,5.8,0,0,1-7.87,2.13A11.92,11.92,0,0,0,515.55,719a4,4,0,0,0,3.5,6H620.64a4.4,4.4,0,0,0,4.2-5.69A19.08,19.08,0,0,0,606.64,706Z" style="fill:#fff"/><path d="M1045.2,303.05a8.41,8.41,0,0,0-5.94,2.45,2.66,2.66,0,0,1-4.09-.41,11.56,11.56,0,0,0-19.74.78,2.57,2.57,0,0,1-3.48.94,5.27,5.27,0,0,0-7,2,1.78,1.78,0,0,0,1.55,2.66h44.9a2,2,0,0,0,1.86-2.52A8.44,8.44,0,0,0,1045.2,303.05Z" style="fill:#fff"/><path d="M160.46,709.94a21.83,21.83,0,0,0-13.52,4.43c-2.69,2.12-7.14,1.77-9.23-.74-4.69-5.6-12.72-9.3-21.87-9.3-21.4,0-31.94,20.72-24.43,20.72h80.74c4.37,0,7.38-3.62,5.44-6.72C174.46,713.36,168,709.94,160.46,709.94Z" style="fill:#fff"/><path d="M69.16,626.8A15.94,15.94,0,0,0,59.31,630a5.1,5.1,0,0,1-6.72-.54c-3.41-4.08-9.27-6.78-15.92-6.78-15.59,0-23.27,15.1-17.8,15.1H77.68c3.18,0,5.37-2.64,4-4.89C79.36,629.29,74.63,626.8,69.16,626.8Z" style="fill:#fff"/><path d="M266.5,288.92a15.93,15.93,0,0,0-9.85,3.22,5.1,5.1,0,0,1-6.73-.54c-3.41-4.08-9.26-6.77-15.92-6.77-15.59,0-23.26,15.09-17.79,15.09H275c3.18,0,5.38-2.64,4-4.89C276.69,291.4,272,288.92,266.5,288.92Z" style="fill:#fff"/><path d="M218.58,588.22a10.41,10.41,0,0,0-9.71,6.66,2.77,2.77,0,0,0,2.59,3.74H225.7a2.76,2.76,0,0,0,2.58-3.74A10.41,10.41,0,0,0,218.58,588.22Z" style="fill:#fff"/><path d="M115.6,457a18.66,18.66,0,0,0-17.79,13,4.3,4.3,0,0,0,4.08,5.62h27.42a4.3,4.3,0,0,0,4.08-5.62A18.66,18.66,0,0,0,115.6,457Z" style="fill:#fff"/><path d="M352.76,497.39a18.67,18.67,0,0,0-17.79,13,4.3,4.3,0,0,0,4.08,5.62h27.42a4.3,4.3,0,0,0,4.08-5.62A18.66,18.66,0,0,0,352.76,497.39Z" style="fill:#fff"/><path d="M559.88,199.46a18.64,18.64,0,0,0-17.78,13,4.3,4.3,0,0,0,4.08,5.62h27.41a4.3,4.3,0,0,0,4.08-5.62A18.64,18.64,0,0,0,559.88,199.46Z" style="fill:#fff"/><path d="M400.46,559.28a10.39,10.39,0,0,0-9.71,6.66,2.76,2.76,0,0,0,2.59,3.73h14.24a2.76,2.76,0,0,0,2.58-3.73A10.39,10.39,0,0,0,400.46,559.28Z" style="fill:#fff"/><path d="M315.8,506.71a10.4,10.4,0,0,0-9.71,6.67,2.76,2.76,0,0,0,2.59,3.73h14.23a2.76,2.76,0,0,0,2.59-3.73A10.4,10.4,0,0,0,315.8,506.71Z" style="fill:#fff"/><path d="M589.09,424.59a14.5,14.5,0,0,0-13.82,10.13,3.33,3.33,0,0,0,3.17,4.36h21.31a3.34,3.34,0,0,0,3.17-4.36A14.5,14.5,0,0,0,589.09,424.59Z" style="fill:#fff"/><path d="M560.36,431.84a8.1,8.1,0,0,0-7.54,5.17,2.15,2.15,0,0,0,2,2.91H565.9a2.15,2.15,0,0,0,2-2.91A8.1,8.1,0,0,0,560.36,431.84Z" style="fill:#fff"/><path d="M257.11,804.09a10.55,10.55,0,0,0-10.06,7.37,2.43,2.43,0,0,0,2.3,3.18h15.51a2.43,2.43,0,0,0,2.31-3.18A10.55,10.55,0,0,0,257.11,804.09Z" style="fill:#fff"/><path d="M236.2,809.37a5.88,5.88,0,0,0-5.49,3.77,1.57,1.57,0,0,0,1.47,2.11h8a1.56,1.56,0,0,0,1.46-2.11A5.87,5.87,0,0,0,236.2,809.37Z" style="fill:#fff"/><path d="M453.79,799.28a10.39,10.39,0,0,0-9.7,6.66,2.75,2.75,0,0,0,2.58,3.73h14.24a2.76,2.76,0,0,0,2.59-3.73A10.39,10.39,0,0,0,453.79,799.28Z" style="fill:#fff"/><path d="M881.52,96.61a10.4,10.4,0,0,0-9.71,6.67A2.76,2.76,0,0,0,874.4,107h14.23a2.76,2.76,0,0,0,2.59-3.73A10.4,10.4,0,0,0,881.52,96.61Z" style="fill:#fff"/><path d="M90.05,914.32a19.28,19.28,0,0,1,13.62,5.61,6.09,6.09,0,0,0,9.39-.94,26.53,26.53,0,0,1,45.3,1.8,5.9,5.9,0,0,0,8,2.15,12.12,12.12,0,0,1,16.1,4.62,4.08,4.08,0,0,1-3.55,6.1h-103a4.46,4.46,0,0,1-4.26-5.78A19.33,19.33,0,0,1,90.05,914.32Z" style="fill:#fff"/><path d="M526.63,914.32A19.28,19.28,0,0,0,513,919.93a6.1,6.1,0,0,1-9.4-.94,26.53,26.53,0,0,0-45.3,1.8,5.89,5.89,0,0,1-8,2.15,12.12,12.12,0,0,0-16.1,4.62,4.08,4.08,0,0,0,3.55,6.1H540.83a4.46,4.46,0,0,0,4.26-5.78A19.33,19.33,0,0,0,526.63,914.32Z" style="fill:#fff"/><path d="M386.53,904.82a7,7,0,0,0-4.95,2,2.21,2.21,0,0,1-3.41-.34,9.64,9.64,0,0,0-16.46.65,2.15,2.15,0,0,1-2.9.79,4.3,4.3,0,0,0-2.05-.51,4.4,4.4,0,0,0-3.8,2.18,1.49,1.49,0,0,0,1.29,2.22h37.44a1.62,1.62,0,0,0,1.55-2.1A7,7,0,0,0,386.53,904.82Z" style="fill:#fff"/><path d="M233,911.86a4.77,4.77,0,0,1,4.46,3.06,1.27,1.27,0,0,1-1.18,1.72h-6.55a1.27,1.27,0,0,1-1.19-1.72A4.78,4.78,0,0,1,233,911.86Z" style="fill:#fff"/><path d="M249,908.06a8.59,8.59,0,0,1,8.18,6,2,2,0,0,1-1.88,2.59H242.64a2,2,0,0,1-1.87-2.59A8.57,8.57,0,0,1,249,908.06Z" style="fill:#fff"/><path d="M301.36,909.9A4.78,4.78,0,0,0,296.9,913a1.27,1.27,0,0,0,1.19,1.72h6.54a1.27,1.27,0,0,0,1.19-1.72A4.77,4.77,0,0,0,301.36,909.9Z" style="fill:#fff"/><path d="M609.61,901.42a16,16,0,0,0-15.25,11.18,3.68,3.68,0,0,0,3.5,4.81h23.5a3.68,3.68,0,0,0,3.5-4.81A16,16,0,0,0,609.61,901.42Z" style="fill:#fff"/><path d="M1310,706a19,19,0,0,0-13.42,5.53,6,6,0,0,1-9.27-.93,26.16,26.16,0,0,0-44.66,1.77,5.79,5.79,0,0,1-7.86,2.13,11.83,11.83,0,0,0-5.56-1.38,12,12,0,0,0-10.32,5.93,4,4,0,0,0,3.5,6H1324a4.39,4.39,0,0,0,4.2-5.69A19.06,19.06,0,0,0,1310,706Z" style="fill:#fff"/><path d="M1163.41,635.16a8.36,8.36,0,0,0-5.93,2.45,2.67,2.67,0,0,1-4.1-.41,11.56,11.56,0,0,0-19.74.78,2.56,2.56,0,0,1-3.48.94,5.17,5.17,0,0,0-2.45-.61,5.26,5.26,0,0,0-4.56,2.62,1.78,1.78,0,0,0,1.55,2.66h44.9a2,2,0,0,0,1.86-2.52A8.44,8.44,0,0,0,1163.41,635.16Z" style="fill:#fff"/><path d="M863.78,709.94a21.83,21.83,0,0,0-13.52,4.43c-2.68,2.12-7.14,1.77-9.23-.74-4.68-5.6-12.72-9.3-21.86-9.3-21.41,0-31.95,20.72-24.43,20.72h80.74c4.37,0,7.38-3.62,5.43-6.72C877.78,713.36,871.29,709.94,863.78,709.94Z" style="fill:#fff"/><path d="M772.48,626.8a15.93,15.93,0,0,0-9.84,3.23,5.11,5.11,0,0,1-6.73-.54c-3.41-4.08-9.26-6.78-15.92-6.78-15.59,0-23.27,15.1-17.79,15.1H781c3.18,0,5.38-2.64,4-4.89C782.68,629.29,778,626.8,772.48,626.8Z" style="fill:#fff"/><path d="M1380.41,510.8a15.94,15.94,0,0,0-9.85,3.23,5.1,5.1,0,0,1-6.72-.54c-3.41-4.08-9.27-6.78-15.92-6.78-15.59,0-23.27,15.1-17.8,15.1h58.8c3.19,0,5.38-2.64,4-4.89C1390.61,513.29,1385.88,510.8,1380.41,510.8Z" style="fill:#fff"/><path d="M921.9,588.22a10.41,10.41,0,0,0-9.7,6.66,2.76,2.76,0,0,0,2.58,3.74H929a2.77,2.77,0,0,0,2.59-3.74A10.41,10.41,0,0,0,921.9,588.22Z" style="fill:#fff"/><path d="M818.92,457a18.65,18.65,0,0,0-17.78,13,4.3,4.3,0,0,0,4.08,5.62h27.41a4.3,4.3,0,0,0,4.08-5.62A18.65,18.65,0,0,0,818.92,457Z" style="fill:#fff"/><path d="M1056.09,497.39a18.65,18.65,0,0,0-17.79,13,4.3,4.3,0,0,0,4.08,5.62h27.41a4.31,4.31,0,0,0,4.09-5.62A18.67,18.67,0,0,0,1056.09,497.39Z" style="fill:#fff"/><path d="M1271.32,466.36a18.65,18.65,0,0,0-17.79,13,4.3,4.3,0,0,0,4.08,5.62H1285a4.3,4.3,0,0,0,4.08-5.62A18.65,18.65,0,0,0,1271.32,466.36Z" style="fill:#fff"/><path d="M550,311.48a10.39,10.39,0,0,0-9.71,6.66,2.76,2.76,0,0,0,2.59,3.73h14.23a2.76,2.76,0,0,0,2.59-3.73A10.39,10.39,0,0,0,550,311.48Z" style="fill:#fff"/><path d="M1019.12,506.71a10.4,10.4,0,0,0-9.7,6.67,2.76,2.76,0,0,0,2.58,3.73h14.24a2.76,2.76,0,0,0,2.59-3.73A10.4,10.4,0,0,0,1019.12,506.71Z" style="fill:#fff"/><path d="M1029,755A10.55,10.55,0,0,0,1019,762.4a2.43,2.43,0,0,0,2.31,3.18h15.5a2.43,2.43,0,0,0,2.31-3.18A10.55,10.55,0,0,0,1029,755Z" style="fill:#fff"/><path d="M939.53,809.37a5.87,5.87,0,0,0-5.49,3.77,1.56,1.56,0,0,0,1.46,2.11h8a1.57,1.57,0,0,0,1.47-2.11A5.88,5.88,0,0,0,939.53,809.37Z" style="fill:#fff"/><path d="M1157.12,799.28a10.39,10.39,0,0,0-9.71,6.66,2.76,2.76,0,0,0,2.59,3.73h14.23a2.76,2.76,0,0,0,2.59-3.73A10.39,10.39,0,0,0,1157.12,799.28Z" style="fill:#fff"/><path d="M137.37,124.24a10.55,10.55,0,0,0-10.06,7.37,2.43,2.43,0,0,0,2.3,3.18h15.51a2.44,2.44,0,0,0,2.31-3.18A10.56,10.56,0,0,0,137.37,124.24Z" style="fill:#fff"/><path d="M168.3,224.75a10.39,10.39,0,0,0-9.7,6.66,2.76,2.76,0,0,0,2.59,3.73h14.23a2.76,2.76,0,0,0,2.59-3.73A10.39,10.39,0,0,0,168.3,224.75Z" style="fill:#fff"/><path d="M160.46,385.81a21.83,21.83,0,0,0-13.52,4.43c-2.69,2.12-7.14,1.77-9.23-.74-4.69-5.6-12.72-9.3-21.87-9.3-21.4,0-31.94,20.72-24.43,20.72h80.74c4.37,0,7.38-3.62,5.44-6.72C174.46,389.23,168,385.81,160.46,385.81Z" style="fill:#fff"/><path d="M88.57,188.23a21.8,21.8,0,0,0-13.51,4.43c-2.69,2.12-7.14,1.77-9.24-.74-4.68-5.6-12.72-9.3-21.86-9.3-21.4,0-31.95,20.72-24.43,20.72h80.74c4.37,0,7.38-3.62,5.44-6.72C102.58,191.65,96.08,188.23,88.57,188.23Z" style="fill:#fff"/><path d="M352.76,173.26a18.67,18.67,0,0,0-17.79,13,4.3,4.3,0,0,0,4.08,5.62h27.42a4.3,4.3,0,0,0,4.08-5.62A18.66,18.66,0,0,0,352.76,173.26Z" style="fill:#fff"/><path d="M400.46,235.14a10.4,10.4,0,0,0-9.71,6.67,2.76,2.76,0,0,0,2.59,3.73h14.24a2.76,2.76,0,0,0,2.58-3.73A10.4,10.4,0,0,0,400.46,235.14Z" style="fill:#fff"/><path d="M863.78,385.81a21.83,21.83,0,0,0-13.52,4.43c-2.68,2.12-7.14,1.77-9.23-.74-4.68-5.6-12.72-9.3-21.86-9.3-21.41,0-31.95,20.72-24.43,20.72h80.74c4.37,0,7.38-3.62,5.43-6.72C877.78,389.23,871.29,385.81,863.78,385.81Z" style="fill:#fff"/><path d="M1339.8,251.19a21.89,21.89,0,0,0-13.52,4.42c-2.69,2.13-7.14,1.78-9.24-.73-4.68-5.61-12.71-9.31-21.86-9.31-21.4,0-31.94,20.73-24.43,20.73h80.74c4.37,0,7.38-3.63,5.44-6.72C1353.8,254.61,1347.3,251.19,1339.8,251.19Z" style="fill:#fff"/><path d="M1300.21,15.33a21.83,21.83,0,0,0-13.52,4.43c-2.69,2.12-7.14,1.77-9.23-.74-4.69-5.61-12.72-9.31-21.87-9.31-21.4,0-31.94,20.73-24.43,20.73h80.74c4.37,0,7.39-3.63,5.44-6.72C1314.21,18.75,1307.71,15.33,1300.21,15.33Z" style="fill:#fff"/><path d="M516.35,63.33a21.89,21.89,0,0,0-13.52,4.42c-2.68,2.13-7.14,1.78-9.23-.73-4.69-5.61-12.72-9.31-21.86-9.31-21.41,0-31.95,20.73-24.43,20.73H528c4.38,0,7.39-3.63,5.44-6.72C530.35,66.75,523.86,63.33,516.35,63.33Z" style="fill:#fff"/><path d="M1056.09,173.26a18.65,18.65,0,0,0-17.79,13,4.3,4.3,0,0,0,4.08,5.62h27.41a4.31,4.31,0,0,0,4.09-5.62A18.67,18.67,0,0,0,1056.09,173.26Z" style="fill:#fff"/><path d="M1271.32,142.23a18.65,18.65,0,0,0-17.79,13,4.3,4.3,0,0,0,4.08,5.62H1285a4.3,4.3,0,0,0,4.08-5.62A18.65,18.65,0,0,0,1271.32,142.23Z" style="fill:#fff"/><path d="M1019.12,182.58a10.41,10.41,0,0,0-9.7,6.66A2.76,2.76,0,0,0,1012,193h14.24a2.77,2.77,0,0,0,2.59-3.74A10.41,10.41,0,0,0,1019.12,182.58Z" style="fill:#fff"/><path d="M939.53,485.24A5.88,5.88,0,0,0,934,489a1.57,1.57,0,0,0,1.46,2.12h8A1.57,1.57,0,0,0,945,489,5.89,5.89,0,0,0,939.53,485.24Z" style="fill:#fff"/><path d="M720.44,245.54a10.39,10.39,0,0,0-9.71,6.66,2.77,2.77,0,0,0,2.59,3.74h14.24a2.76,2.76,0,0,0,2.58-3.74A10.39,10.39,0,0,0,720.44,245.54Z" style="fill:#fff"/><path d="M793.37,914.32A19.26,19.26,0,0,1,807,919.93a6.1,6.1,0,0,0,9.4-.94,26.53,26.53,0,0,1,45.3,1.8,5.89,5.89,0,0,0,8,2.15,12.12,12.12,0,0,1,16.1,4.62,4.08,4.08,0,0,1-3.55,6.1H779.17a4.46,4.46,0,0,1-4.26-5.78A19.34,19.34,0,0,1,793.37,914.32Z" style="fill:#fff"/><path d="M1230,914.32a19.25,19.25,0,0,0-13.62,5.61,6.1,6.1,0,0,1-9.4-.94,26.53,26.53,0,0,0-45.3,1.8,5.89,5.89,0,0,1-8,2.15,12.12,12.12,0,0,0-16.1,4.62,4.08,4.08,0,0,0,3.55,6.1h103.05a4.46,4.46,0,0,0,4.26-5.78A19.35,19.35,0,0,0,1230,914.32Z" style="fill:#fff"/><path d="M1089.86,904.82a7,7,0,0,0-4.95,2,2.21,2.21,0,0,1-3.41-.34,9.64,9.64,0,0,0-16.46.65,2.15,2.15,0,0,1-2.9.79,4.32,4.32,0,0,0-2.05-.51,4.4,4.4,0,0,0-3.8,2.18,1.48,1.48,0,0,0,1.29,2.22H1095a1.62,1.62,0,0,0,1.55-2.1A7,7,0,0,0,1089.86,904.82Z" style="fill:#fff"/><path d="M936.34,911.86a4.78,4.78,0,0,1,4.46,3.06,1.27,1.27,0,0,1-1.19,1.72h-6.55a1.27,1.27,0,0,1-1.18-1.72A4.77,4.77,0,0,1,936.34,911.86Z" style="fill:#fff"/><path d="M952.27,908.06a8.58,8.58,0,0,1,8.18,6,2,2,0,0,1-1.87,2.59H946a2,2,0,0,1-1.88-2.59A8.59,8.59,0,0,1,952.27,908.06Z" style="fill:#fff"/><path d="M1004.69,909.9a4.79,4.79,0,0,0-4.47,3.06,1.28,1.28,0,0,0,1.19,1.72H1008a1.27,1.27,0,0,0,1.19-1.72A4.78,4.78,0,0,0,1004.69,909.9Z" style="fill:#fff"/><path d="M1312.93,901.42a16,16,0,0,0-15.25,11.18,3.68,3.68,0,0,0,3.5,4.81h23.51a3.68,3.68,0,0,0,3.5-4.81A16,16,0,0,0,1312.93,901.42Z" style="fill:#fff"/></svg>