<svg xmlns="http://www.w3.org/2000/svg" width="84" height="107.77" viewBox="0 0 84 107.77"><title>Artboard 10</title><g id="ILLO_2" data-name="ILLO 2"><rect x="4.89" y="32.4" width="73.96" height="71.96" style="fill:#da1c5c;stroke:#7c3990;stroke-miterlimit:10"/><polygon points="10.73 98.69 4.97 104.37 4.97 32.32 78.86 32.32 73.02 38.08 10.73 38.08 10.73 98.69" style="fill:#f6ebf4"/><rect x="10.73" y="38.08" width="62.29" height="60.61" style="fill:#da1c5c;stroke:#7c3990;stroke-miterlimit:10"/><line x1="10.73" y1="38.08" x2="4.97" y2="32.32" style="fill:#da1c5c;stroke:#7c3990;stroke-miterlimit:10"/><line x1="73.02" y1="38.08" x2="78.78" y2="32.32" style="fill:#da1c5c;stroke:#7c3990;stroke-miterlimit:10"/><line x1="73.02" y1="98.69" x2="78.78" y2="104.45" style="fill:#da1c5c;stroke:#7c3990;stroke-miterlimit:10"/><line x1="10.73" y1="98.69" x2="4.97" y2="104.45" style="fill:#da1c5c;stroke:#7c3990;stroke-miterlimit:10"/><rect x="4.89" y="32.4" width="73.96" height="71.96" style="fill:none;stroke:#7c3990;stroke-miterlimit:10"/><circle cx="19.68" cy="90.97" r="2.39" style="fill:#c51164;stroke:#7c3990;stroke-miterlimit:10"/><circle cx="65.35" cy="45.3" r="2.39" style="fill:#c51164;stroke:#7c3990;stroke-miterlimit:10"/><circle cx="65.35" cy="90.97" r="2.39" style="fill:#c51164;stroke:#7c3990;stroke-miterlimit:10"/><circle cx="19.68" cy="45.3" r="2.39" style="fill:#c51164;stroke:#7c3990;stroke-miterlimit:10"/><polyline points="19.68 32.32 40.13 4.21 60.39 32.14" style="fill:none;stroke:#7c3990;stroke-miterlimit:10"/></g></svg>