<?xml version="1.0" encoding="UTF-8"?>
<svg width="164px" height="80px" viewBox="0 0 164 80" version="1.1" xmlns="http://www.w3.org/2000/svg" xmlns:xlink="http://www.w3.org/1999/xlink">
    <!-- Generator: Sketch 47.1 (45422) - http://www.bohemiancoding.com/sketch -->
    <title>logo-rupie</title>
    <desc>Created with Sketch.</desc>
    <defs></defs>
    <g id="Page-1" stroke="none" stroke-width="1" fill="none" fill-rule="evenodd">
        <g id="logo-rupie" fill-rule="nonzero" fill="#A12273">
            <path d="M34.1,61.1 C28.4,60.6 22.5,49.8 14.7,35.4 L14.7,35 C15.8,34.7 17.2,34.1 18.9,33.1 C20.7,32.1 22.1,31.1 23.3,30 C24.3,29 25.2,27.8 26,26.4 C26.8,25 27.2,23.1 27.2,20.7 C27.2,18.5 26.6,16.6 25.5,15 C24.4,13.4 22.8,12.2 20.8,11.5 C19.2,10.9 17.5,10.5 15.7,10.4 C13.9,10.3 12.3,10.2 10.8,10.2 C9.8,10.2 9,10.2 8.5,10.2 C8,10.2 7.6,10.2 7.3,10.2 C7.2,15.6 7.2,20.4 7.2,24.6 C7.2,28.7 7.2,31.7 7.2,33.4 C7.2,37.3 7.2,40.6 7.3,47.3 C7.3,54 7.4,58.2 7.4,59.9 L0.5,59.9 C0.5,58.2 0.6,54.9 0.6,49.9 C0.7,45 0.7,40.8 0.7,33.5 C0.7,32.1 0.7,29.4 0.7,25.6 C0.7,21.7 0.6,14.7 0.5,4.5 C0.8,4.5 2.2,4.5 4.7,4.4 C7.2,4.3 9.5,4.3 11.6,4.3 C14,4.3 16.4,4.4 18.7,4.7 C21,5 23.2,5.6 25.4,6.5 C28.2,7.7 30.4,9.5 32,11.8 C33.6,14.1 34.4,16.9 34.4,20 C34.4,24.1 33.2,27.4 30.7,30.1 C28.3,32.8 26,34.8 23.8,36.1 L23.8,36.3 C27.2,43.3 29.9,51.3 35.7,53.5 C35.9,53.6 36.4,53.7 36.4,53.7 L34.1,61.1 Z" id="Shape"></path>
            <path d="M51.1,62 C46.3,61.7 43.2,59.8 41.1,57.5 C38.9,55.2 37.8,52.9 37.8,48.7 C37.8,46.4 37.8,43.7 37.9,40.5 C37.9,37.3 38,35.1 38,33.6 C38,31 38,27.8 37.9,24 C37.8,20.2 37.8,18 37.8,17.6 L44.4,17.6 C44.4,18 44.4,20 44.3,23.8 C44.2,27.5 44.2,30.5 44.2,32.8 C44.2,34.8 44.2,37.2 44.2,40.2 C44.2,43.1 44.2,45.2 44.2,46.5 C44.3,49.9 44.8,51.3 45.9,52.9 C47,54.5 48.3,55.5 50.7,55.8 C54.4,56.2 55.6,56.1 59,55.1 C60.4,54.7 63.1,53 64,52.1 C65.5,50.7 66,48.7 66,45.9 C66,43.1 66,39.6 66,35.4 C66,32.4 66,28.8 65.9,24.6 C65.8,20.4 65.8,18.1 65.8,17.8 L72.4,17.8 C72.4,18.3 72.4,19.9 72.3,22.6 C72.2,25.3 72.2,30 72.2,36.5 C72.2,40.2 72.2,43.4 72.2,46.2 C72.2,46.2 72.1,51.2 70.9,53.5 C69.6,57 66,59.3 63.7,60.3 C61,61.5 55.9,62.3 51.1,62 Z" id="Shape"></path>
            <path d="M111.8,34.8 C111.8,39.2 111.3,42.1 109.4,45.2 C107.5,48.3 104.9,50.6 101.7,52.4 C98.9,53.9 95.7,55.2 92.3,55.8 C88.9,56.4 85.7,56.7 82.6,56.7 L82.8,79.4 L76,79.4 C76,78.9 76.1,75 76.1,67.6 C76.1,60.2 76.2,49.8 76.2,42.3 C76.2,38.6 76.2,38.2 76.2,33.3 C76.2,28.3 76.1,23 76.1,17.3 C77,17.3 77.9,17.3 78.8,17.3 C79.7,17.3 80.4,17.3 80.8,17.3 C86.7,17.3 91.2,17.6 94.5,18.2 C97.8,18.8 100.7,19.9 103.3,21.5 C106.1,23.2 108.4,25.4 110,28.2 C111,30.4 111.8,32.5 111.8,34.8 Z M104.6,35 C104.6,35 104.5,33.4 103.7,30.8 C103,28.4 100.7,27 98.7,25.8 C96.8,24.7 94.7,23.9 92.3,23.4 C89.9,22.9 87.3,22.7 84.5,22.7 C84.2,22.7 83.9,22.7 83.6,22.7 C83.3,22.7 83,22.7 82.6,22.7 C82.6,23.2 82.6,24.9 82.5,27.8 C82.5,30.7 82.4,31.7 82.4,38.8 C82.4,40.3 82.4,42.4 82.4,45 C82.4,47.7 82.4,49.8 82.4,51.4 C85,51.4 87.6,51.2 90.3,50.7 C93,50.2 95.1,49.5 96.8,48.7 C99.6,47.3 101.8,45.4 103.3,43 C104.8,40.6 104.6,38.4 104.6,35 Z" id="Shape"></path>
            <path d="M122.9,59.9 L116.3,59.9 C116.3,59.4 116.4,56.6 116.4,51.5 C116.4,46.4 116.5,42.1 116.5,38.7 C116.5,35.8 116.5,32.5 116.5,29 C116.5,25.5 116.4,21.3 116.4,16.6 L123,16.6 C122.9,20.7 122.9,24.6 122.9,28.1 C122.9,31.7 122.8,34.9 122.8,37.7 C122.8,44.4 122.8,49.7 122.9,53.7 C122.8,57.7 122.9,59.8 122.9,59.9 Z M119.5,0.1 L116.2,4.6 L116.2,10.3 L119.4,14.3 L122.8,10.1 L122.8,4.3 L119.5,0.1 Z" id="Shape"></path>
            <path d="M163.5,37.7 L133.2,37.7 C133.2,40.7 133.9,42.5 135.1,45 C136.3,47.5 138.2,49.6 140.8,51.3 C142.4,52.4 144.3,53.1 146.3,53.7 C148.4,54.2 150.9,54.5 153.8,54.5 C155.4,54.5 156.9,54.5 158.2,54.4 C159.5,54.3 160.3,54.3 160.7,54.2 L159.9,59.9 C159.7,59.9 158.9,60 157.7,60.1 C156.4,60.2 155,60.2 153.3,60.2 C148.8,60.2 144.9,59.6 141.6,58.4 C138.3,57.2 135.6,55.6 133.5,53.5 C131.7,51.8 130.1,49.5 128.9,46.8 C127.6,44.1 127,42.1 127,38.8 C127,35.5 127.5,32.6 128.4,30 C129.3,27.4 130.8,24.9 132.7,22.7 C134.3,20.8 136.4,19.3 138.8,18.2 C141.2,17.1 143.8,16.6 146.4,16.6 C149,16.6 151.3,17 153.3,17.8 C155.3,18.6 157.1,19.8 158.5,21.4 C160.1,23.2 161.4,25.5 162.3,28.1 C163,30.7 163.4,33.9 163.5,37.7 Z M157,32.9 C156.6,29.4 155.4,26.6 153.5,24.6 C151.6,22.6 149.1,21.6 145.9,21.6 C142.8,21.6 140.2,22.6 138.1,24.7 C136,26.7 134.6,29.5 133.7,33 L157,33 L157,32.9 Z" id="Shape"></path>
        </g>
    </g>
</svg>