<svg xmlns="http://www.w3.org/2000/svg" width="225.26" height="269.3" viewBox="0 0 225.26 269.3"><title>Artboard 12</title><g id="ILLO_2" data-name="ILLO 2"><polygon points="33.5 147.47 21.85 159.06 21.85 163.17 21.85 184.62 21.85 186.59 33.5 198.18 45.16 186.59 45.16 184.62 45.16 163.17 45.16 159.06 33.5 147.47" style="fill:#da1c5c;stroke:#7c3990;stroke-miterlimit:10"/><polyline points="33.5 147.47 21.85 159.06 21.85 163.17 21.85 184.62 21.85 186.59 33.5 198.18" style="fill:#f6ebf4;stroke:#7d3990;stroke-miterlimit:10"/><line x1="38.37" y1="183.71" x2="45.15" y2="186.59" style="fill:none;stroke:#7d3990;stroke-miterlimit:10"/><line x1="33.5" y1="188.54" x2="33.5" y2="198.18" style="fill:none;stroke:#7d3990;stroke-miterlimit:10"/><line x1="28.64" y1="183.7" x2="21.85" y2="186.59" style="fill:none;stroke:#7d3990;stroke-miterlimit:10"/><line x1="38.37" y1="161.94" x2="45.15" y2="159.06" style="fill:none;stroke:#7d3990;stroke-miterlimit:10"/><line x1="33.5" y1="157.11" x2="33.5" y2="147.47" style="fill:none;stroke:#7d3990;stroke-miterlimit:10"/><line x1="28.64" y1="161.95" x2="21.85" y2="159.06" style="fill:none;stroke:#7d3990;stroke-miterlimit:10"/><polygon points="33.5 157.11 28.64 161.95 28.64 163.17 28.64 182.92 28.64 183.7 33.5 188.54 38.37 183.71 38.37 182.92 38.37 163.17 38.37 161.94 33.5 157.11" style="fill:#e6cbe2;stroke:#7d3990;stroke-miterlimit:10"/><polygon points="64.03 33.12 51.15 45.93 51.15 50.47 51.15 58.16 51.15 60.34 64.03 73.15 76.91 60.34 76.91 58.16 76.91 50.47 76.91 45.93 64.03 33.12" style="fill:#da1c5c;stroke:#7c3990;stroke-miterlimit:10"/><polyline points="64.03 33.12 51.15 45.93 51.15 50.47 51.15 58.16 51.15 60.34 64.03 73.15" style="fill:#f6ebf4;stroke:#7d3990;stroke-miterlimit:10"/><line x1="69.41" y1="57.16" x2="76.9" y2="60.34" style="fill:none;stroke:#7d3990;stroke-miterlimit:10"/><line x1="64.03" y1="62.5" x2="64.03" y2="73.15" style="fill:none;stroke:#7d3990;stroke-miterlimit:10"/><line x1="58.65" y1="57.15" x2="51.15" y2="60.34" style="fill:none;stroke:#7d3990;stroke-miterlimit:10"/><line x1="69.41" y1="49.11" x2="76.9" y2="45.93" style="fill:none;stroke:#7d3990;stroke-miterlimit:10"/><line x1="64.03" y1="43.77" x2="64.03" y2="33.12" style="fill:none;stroke:#7d3990;stroke-miterlimit:10"/><line x1="58.65" y1="49.12" x2="51.15" y2="45.93" style="fill:none;stroke:#7d3990;stroke-miterlimit:10"/><polygon points="64.03 43.77 58.65 49.12 58.65 50.47 58.65 56.28 58.65 57.15 64.03 62.5 69.41 57.16 69.41 56.28 69.41 50.47 69.41 49.11 64.03 43.77" style="fill:#e6cbe2;stroke:#7d3990;stroke-miterlimit:10"/><rect x="142.21" y="131.95" width="73.96" height="71.96" style="fill:#c51164;stroke:#7c3990;stroke-miterlimit:10"/><polygon points="148.04 198.23 142.29 203.91 142.29 131.87 216.17 131.87 210.34 137.63 148.04 137.63 148.04 198.23" style="fill:#f6ebf4"/><rect x="148.05" y="137.63" width="62.29" height="60.61" style="fill:#da1c5c;stroke:#7c3990;stroke-miterlimit:10"/><line x1="148.05" y1="137.63" x2="142.29" y2="131.87" style="fill:#da1c5c;stroke:#7c3990;stroke-miterlimit:10"/><line x1="210.34" y1="137.63" x2="216.09" y2="131.87" style="fill:#da1c5c;stroke:#7c3990;stroke-miterlimit:10"/><line x1="210.34" y1="198.23" x2="216.09" y2="203.99" style="fill:#da1c5c;stroke:#7c3990;stroke-miterlimit:10"/><line x1="148.05" y1="198.23" x2="142.29" y2="203.99" style="fill:#da1c5c;stroke:#7c3990;stroke-miterlimit:10"/><rect x="142.21" y="131.95" width="73.96" height="71.96" style="fill:none;stroke:#7c3990;stroke-miterlimit:10"/><polygon points="75.8 24.57 53.05 24.57 36.97 40.66 36.97 72.48 53.05 88.56 75.8 88.56 91.89 72.48 91.89 40.66 75.8 24.57" style="fill:none;stroke:#7c3990;stroke-miterlimit:10"/><polyline points="36.97 55.43 36.97 81.69 64.43 109 91.89 81.69 91.89 55.43" style="fill:#bd92c2;stroke:#7d3990;stroke-miterlimit:10"/><polyline points="36.97 55.43 36.97 81.69 64.43 109 64.47 81.69 64.47 55.43" style="fill:#f5ebf4;stroke:#7d3990;stroke-linejoin:bevel"/><polyline points="75.89 55.43 75.89 74.9 64.43 86.29 52.96 74.89 52.96 55.43" style="fill:#e6cbe2;stroke:#7d3990;stroke-miterlimit:10"/><line x1="75.9" y1="74.9" x2="91.89" y2="81.69" style="fill:none;stroke:#7d3990;stroke-miterlimit:10"/><line x1="64.43" y1="86.29" x2="64.43" y2="109" style="fill:none;stroke:#7d3990;stroke-miterlimit:10"/><line x1="52.96" y1="74.89" x2="36.97" y2="81.69" style="fill:none;stroke:#7d3990;stroke-miterlimit:10"/><line x1="36.97" y1="55.43" x2="91.89" y2="55.43" style="fill:none;stroke:#7d3990;stroke-linecap:square;stroke-linejoin:bevel"/><rect x="59.43" y="103.97" width="9.99" height="8.01" style="fill:#da1c5c;stroke:#7c3990;stroke-miterlimit:10"/><rect x="59.43" y="103.97" width="5" height="8.01" style="fill:#e6cbe2;stroke:#7c3990;stroke-miterlimit:10"/><polygon points="44.84 136.35 22.09 136.35 6 152.44 6 198.7 22.09 214.79 44.84 214.79 60.92 198.7 60.92 152.44 44.84 136.35" style="fill:none;stroke:#7c3990;stroke-miterlimit:10"/><polyline points="6 181.65 6 207.91 33.46 235.23 60.92 207.91 60.92 181.65" style="fill:#bd92c2;stroke:#7d3990;stroke-miterlimit:10"/><polyline points="6 181.65 6 207.91 33.46 235.23 33.5 207.91 33.5 181.65" style="fill:#f5ebf4;stroke:#7d3990;stroke-linejoin:bevel"/><polyline points="44.93 181.65 44.93 201.12 33.47 212.51 21.99 201.11 21.99 181.65" style="fill:#e6cbe2;stroke:#7d3990;stroke-miterlimit:10"/><line x1="44.93" y1="201.12" x2="60.92" y2="207.91" style="fill:none;stroke:#7d3990;stroke-miterlimit:10"/><line x1="33.46" y1="212.51" x2="33.46" y2="235.23" style="fill:none;stroke:#7d3990;stroke-miterlimit:10"/><line x1="21.99" y1="201.11" x2="6" y2="207.91" style="fill:none;stroke:#7d3990;stroke-miterlimit:10"/><line x1="6" y1="181.65" x2="60.92" y2="181.65" style="fill:none;stroke:#7d3990;stroke-linecap:square;stroke-linejoin:bevel"/><rect x="28.46" y="230.2" width="9.99" height="8.01" style="fill:#da1c5c;stroke:#7c3990;stroke-miterlimit:10"/><rect x="28.46" y="230.2" width="5" height="8.01" style="fill:#e6cbe2;stroke:#7c3990;stroke-miterlimit:10"/><path d="M140.82,121.55l4-2.44,4.53,1.06,2.45,4-1.07,4.53,4.2,3,2-8.38L152.32,116l-8.38-2-7.31,4.53Z" style="fill:#c093c3"/><path d="M136.31,118l7.31-4.53.46-.07,8.38,2,.37.28,4.53,7.31.08.46-2,8.37-.95.36-4.19-3-.24-.63,1-4.28-2.18-3.53-4-.94-3.74,2.31-.67,0-4.2-3Zm7.74-3.36-6.33,3.91,3.13,2.26,3.61-2.24.45-.07,4.53,1.06.38.27,2.44,4,.08.46-1,4.13,3.12,2.25,1.71-7.24-4.27-6.89Z" style="fill:#7c3990"/><path d="M131,123.18l-5.53,6.58.74,8.57,6.58,5.54,8.57-.74L139,138.54l-4.63.4-3.56-3-.4-4.63,3-3.56Z" style="fill:#c093c3"/><path d="M131.57,122.9l2.38,4.59-.07.67-2.83,3.36.36,4.13,3.17,2.67,4.38-.38.59.32,2.38,4.59-.48.88-8.57.74-.45-.14-6.58-5.53-.22-.41-.74-8.57.14-.45,5.54-6.58ZM126.82,138l6.2,5.21,7.42-.64-1.78-3.42-4.23.37-.44-.14-3.56-3-.21-.42-.4-4.63.14-.44,2.73-3.25-1.78-3.42-4.79,5.7Z" style="fill:#7c3990"/><polygon points="138.76 130.6 143.56 126.55 144.09 120.3 140.04 115.5 133.78 114.97 128.99 119.02 128.46 125.28 132.51 130.07 138.76 130.6" style="fill:#e6cae2"/><path d="M128.61,118.83l5-4.26,6.58.56,4.26,5-.56,6.57-5,4.26-6.57-.55-4.26-5Zm5.3-3.45-4.55,3.84-.5,5.93,3.84,4.55,5.94.5,4.55-3.84.5-5.94-3.85-4.54Z" style="fill:#7c3990"/><polygon points="143.56 126.55 138.76 130.6 132.51 130.07 128.46 125.28 128.99 119.02 133.78 114.97 134.73 117.96 140.78 125.11 143.56 126.55" style="fill:#b87bb5"/><polygon points="137.81 127.62 140.78 125.11 141.1 121.25 138.6 118.28 134.73 117.96 131.77 120.46 131.44 124.33 133.95 127.29 137.81 127.62" style="fill:#c093c3"/><path d="M131.4,120.27l3.21-2.71,4.18.35,2.71,3.21-.35,4.19L137.94,128l-4.19-.35L131,124.46Zm3.46-1.91-2.72,2.29-.3,3.55,2.3,2.72,3.55.3,2.71-2.3.3-3.55-2.29-2.71Z" style="fill:#7c3990"/><rect x="141.78" y="124.27" width="0.78" height="3.13" transform="translate(-34.87 194.41) rotate(-62.69)" style="fill:#7c3990"/><rect x="137.9" y="127.54" width="0.78" height="3.13" transform="translate(-32.68 48.09) rotate(-17.68)" style="fill:#7c3990"/><rect x="131.66" y="128.29" width="3.13" height="0.78" transform="translate(-42.23 188.03) rotate(-62.69)" style="fill:#7c3990"/><rect x="128.39" y="124.41" width="3.13" height="0.78" transform="translate(-31.77 45.38) rotate(-17.68)" style="fill:#7c3990"/><rect x="129.99" y="118.18" width="0.78" height="3.13" transform="translate(-35.84 180.64) rotate(-62.69)" style="fill:#7c3990"/><rect x="133.87" y="114.9" width="0.78" height="3.13" transform="translate(-29.03 46.27) rotate(-17.68)" style="fill:#7c3990"/><rect x="137.75" y="116.5" width="3.13" height="0.78" transform="translate(-28.46 187.06) rotate(-62.69)" style="fill:#7c3990"/><rect x="141.03" y="120.38" width="3.13" height="0.78" transform="translate(-29.95 49.03) rotate(-17.68)" style="fill:#7c3990"/><path d="M128.61,118.83l5-4.26,6.58.56,4.26,5-.56,6.57-5,4.26-6.57-.55-4.26-5Zm5.3-3.45-4.55,3.84-.5,5.93,3.84,4.55,5.94.5,4.55-3.84.5-5.94-3.85-4.54Z" style="fill:#7c3990"/><path d="M131.69,204.64l-2.45-3.95,1.06-4.53,3.95-2.44,4.53,1.06,3-4.2-8.38-2-7.31,4.53-2,8.38,4.53,7.31Z" style="fill:#c093c3"/><path d="M128.15,209.15l-4.53-7.31-.07-.46,2-8.38.27-.37,7.31-4.53.46-.08,8.38,2,.35.95-3,4.19-.63.24-4.28-1-3.52,2.19-1,4,2.31,3.74,0,.67-3,4.2Zm-3.36-7.74,3.91,6.33,2.26-3.13L128.72,201l-.07-.45,1.06-4.53.27-.37,4-2.45.46-.08,4.13,1,2.25-3.13-7.24-1.71-6.89,4.27Z" style="fill:#7c3990"/><path d="M133.31,214.43l6.58,5.54,8.58-.75,5.53-6.58-.74-8.57-4.59,2.38.4,4.63-3,3.56-4.63.4-3.55-3Z" style="fill:#c093c3"/><path d="M133,213.89l4.59-2.38.67.07,3.36,2.83,4.13-.36,2.67-3.17-.38-4.38.32-.59,4.59-2.38.88.48.75,8.57-.14.45-5.54,6.58-.41.22-8.57.74-.45-.14-6.58-5.54Zm15.13,4.75,5.21-6.2-.64-7.42-3.42,1.78.37,4.23-.14.44-3,3.56-.41.21-4.63.4-.45-.14-3.24-2.73-3.43,1.78,5.7,4.79Z" style="fill:#7c3990"/><polygon points="140.73 206.69 136.68 201.9 130.43 201.37 125.63 205.42 125.11 211.68 129.16 216.47 135.41 217 140.2 212.95 140.73 206.69" style="fill:#e6cae2"/><path d="M129,216.85l-4.26-5,.56-6.58,5-4.26,6.57.56,4.26,5-.55,6.57-5,4.26Zm-3.45-5.3,3.84,4.55,5.93.5,4.55-3.84.5-5.94-3.84-4.55-5.94-.49L126,205.62Z" style="fill:#7c3990"/><polygon points="136.68 201.9 140.73 206.69 140.2 212.95 135.41 217 129.16 216.47 125.11 211.68 128.09 210.73 135.24 204.68 136.68 201.9" style="fill:#b87bb5"/><polygon points="137.75 207.65 135.24 204.68 131.38 204.36 128.41 206.86 128.09 210.73 130.59 213.69 134.46 214.02 137.42 211.51 137.75 207.65" style="fill:#c093c3"/><path d="M130.4,214.06l-2.71-3.21.35-4.18,3.21-2.71,4.19.35,2.71,3.21-.35,4.19-3.21,2.71Zm-1.91-3.46,2.29,2.72,3.55.3,2.72-2.3.3-3.55-2.3-2.71-3.54-.3-2.72,2.29Z" style="fill:#7c3990"/><rect x="134.4" y="202.9" width="3.13" height="0.78" transform="translate(-107.05 230.82) rotate(-62.69)" style="fill:#7c3990"/><rect x="137.67" y="206.78" width="3.13" height="0.78" transform="translate(-56.34 52.07) rotate(-17.68)" style="fill:#7c3990"/><rect x="138.42" y="210.67" width="0.78" height="3.13" transform="translate(-113.45 238.22) rotate(-62.69)" style="fill:#7c3990"/><rect x="134.54" y="213.94" width="0.78" height="3.13" transform="translate(-59.09 51.18) rotate(-17.68)" style="fill:#7c3990"/><rect x="128.31" y="214.69" width="3.13" height="0.78" transform="translate(-120.82 231.79) rotate(-62.69)" style="fill:#7c3990"/><rect x="125.03" y="210.81" width="3.13" height="0.78" transform="translate(-58.16 48.42) rotate(-17.68)" style="fill:#7c3990"/><rect x="126.63" y="204.58" width="0.78" height="3.13" transform="translate(-114.42 224.44) rotate(-62.69)" style="fill:#7c3990"/><rect x="130.51" y="201.3" width="0.78" height="3.13" transform="translate(-55.44 49.35) rotate(-17.68)" style="fill:#7c3990"/><path d="M129,216.85l-4.26-5,.56-6.58,5-4.26,6.57.56,4.26,5-.55,6.57-5,4.26Zm-3.45-5.3,3.84,4.55,5.93.5,4.55-3.84.5-5.94-3.84-4.55-5.94-.49L126,205.62Z" style="fill:#7c3990"/><line x1="64.03" y1="11.59" x2="64.03" y2="21.75" style="fill:none;stroke:#7c3990;stroke-miterlimit:10"/><rect x="61.48" y="18.13" width="5.1" height="6.39" style="fill:#da1c5c;stroke:#7c3990;stroke-miterlimit:10"/><rect x="61.48" y="10.1" width="5.1" height="4.04" style="fill:#da1c5c;stroke:#7c3990;stroke-miterlimit:10"/><circle cx="156.43" cy="191.11" r="2.39" style="fill:#c51164;stroke:#7c3990;stroke-miterlimit:10"/><circle cx="202.11" cy="145.44" r="2.39" style="fill:#c51164;stroke:#7c3990;stroke-miterlimit:10"/><circle cx="202.11" cy="191.11" r="2.39" style="fill:#c51164;stroke:#7c3990;stroke-miterlimit:10"/><circle cx="156.43" cy="145.44" r="2.39" style="fill:#c51164;stroke:#7c3990;stroke-miterlimit:10"/><path d="M33.46,238.21s-1.25,26.88,22.77,26.88,45.91-13.57,52.39-28.81A51,51,0,0,1,127,213.9" style="fill:none;stroke:#7d3990;stroke-miterlimit:10"/><path d="M64.43,112s-.3,24.44,14.44,24.44c19.69,0,11.24-32.46,22.29-39.58,16-10.33,30.35,20,30.35,20" style="fill:none;stroke:#7d3990;stroke-miterlimit:10"/></g></svg>