<svg version="1" xmlns="http://www.w3.org/2000/svg" width="768" height="768" viewBox="0 0 576 576"><path d="M144.7 62.8L82 125.5v325l62.9 62.9c34.6 34.6 63.4 62.7 63.9 62.5.6-.2 29.2-28.2 63.6-62.2l62.6-61.9.2-58.6.3-58.7 17.2-.3 17.2-.2 61.8-62.6c34-34.4 61.9-62.9 62.1-63.4.2-.5-27.7-29.3-62-63.9l-62.3-62.9-39-.1-39-.1-41.2-40.5C227.7 18.2 208.8 0 208.3 0c-.4 0-29 28.3-63.6 62.8zm90.1 68.2l25.7 25h78l25.2 25.2c13.9 13.9 25.3 25.7 25.3 26.3 0 .6-11.4 12.4-25.2 26.2L338.5 259l-38.5.2-38.5.3-.3 80.2-.2 80.1-26.2 25.6-26.2 25.6-25.8-25.7-25.8-25.8v-262l25.7-25.7c14.2-14.2 25.9-25.8 26.1-25.8.2 0 11.9 11.2 26 25z"/></svg>