<?xml version="1.0" standalone="no"?>
<!DOCTYPE svg PUBLIC "-//W3C//DTD SVG 20010904//EN"
 "http://www.w3.org/TR/2001/REC-SVG-20010904/DTD/svg10.dtd">
<svg version="1.0" xmlns="http://www.w3.org/2000/svg"
 width="576.000000pt" height="576.000000pt" viewBox="0 0 576.000000 576.000000"
 preserveAspectRatio="xMidYMid meet">
<metadata>
Created by potrace 1.11, written by Peter Selinger 2001-2013
</metadata>
<g transform="translate(0.000000,576.000000) scale(0.100000,-0.100000)"
fill="#000000" stroke="none">
<path d="M1447 5132 l-627 -627 0 -1625 0 -1625 629 -629 c346 -346 634 -627
639 -625 6 2 292 282 636 622 l626 619 2 586 3 587 172 3 172 2 618 626 c340
344 619 629 621 634 2 5 -277 293 -620 639 l-623 629 -390 1 -390 1 -412 405
c-226 223 -415 405 -420 405 -4 0 -290 -283 -636 -628z m901 -682 l257 -250
390 0 390 0 252 -252 c139 -139 253 -257 253 -263 0 -6 -114 -124 -252 -262
l-253 -253 -385 -2 -385 -3 -3 -802 -2 -801 -262 -256 -262 -256 -258 257
-258 258 0 1310 0 1310 257 257 c142 142 259 258 261 258 2 0 119 -112 260
-250z"/>
</g>
</svg>
