<svg data-name="Layer 1" xmlns="http://www.w3.org/2000/svg" width="178.89" height="100.16" viewBox="0 0 178.89 100.16"><path d="M32.42 58c.27 8.21 4.42 14.47 9 20.94 4.8 6.72 11 12.25 19.21 14.32s18.19 1.64 26.55.23 15.37-5 22.51-9.35c8.81-5.36 21.62-12.19 31.08-4.36 3.37 2.8 5.86 6.53 8.81 9.74 4.9 5.33 9.44 6.27 14-.28.36-.53 1.23 0 .86.5-2 2.89-4.69 6.16-8.61 5.44-4.07-.76-7.12-5.11-9.58-8-4.91-5.83-9.19-10.52-17.64-9.75-10.3.94-18.22 8.29-27.15 12.66-7.35 3.59-15.45 5-23.58 5.36-7.88.3-16.37.18-23.56-3.44C47.67 88.59 43.1 83.06 39 77s-7.33-11.61-7.58-19c0-.64 1-.64 1 0z" fill="#7c3990"/><path d="M165.94 91.29l3.82-1.48 1.65-3.75-1.48-3.81-3.75-1.65-.05 2.46 2 .89L169 86l-.89 2-2.06.8z" fill="#c093c3"/><path d="M165.65 91.29l.06-2.46.18-.27 2-.75.8-1.81-.72-1.84-1.97-.84-.17-.27v-2.46l.41-.26L170 82l.16.16 1.52 3.84v.22L170 89.93l-.16.15-3.81 1.48zm5.45-5.23l-1.4-3.6-3.24-1.46v1.83l1.85.81.15.16.8 2.06v.23l-.89 2-.16.15-1.88.73v1.84l3.3-1.29z" fill="#7c3990"/><path d="M162 88.83l-2.06-.8L159 86l.8-2.06 2-.89v-2.46l-3.75 1.65-1.48 3.81 1.65 3.75 3.78 1.49z" fill="#c093c3"/><path d="M161.93 91.56l-3.81-1.48-.16-.15-1.65-3.75V86l1.48-3.82.16-.16 3.74-1.65.41.26v2.46l-.17.27-1.91.84-.68 1.8.8 1.81 2 .75.18.27.06 2.46zm-3.49-2l3.3 1.29v-1.84l-1.88-.73-.16-.15-.89-2v-.23l.8-2.06.15-.16 1.85-.81v-1.83l-3.24 1.42-1.4 3.6z" fill="#7c3990"/><path fill="#e6cae2" d="M162.5 85.65h2.98l2.11 2.11v2.99l-2.11 2.11h-2.98l-2.12-2.11v-2.99l2.12-2.11z"/><path d="M160.2 90.82v-3.14l2.22-2.22h3.14l2.22 2.22v3.14L165.56 93h-3.14zm7.21-.15v-2.83l-2-2h-2.84l-2 2v2.83l2 2h2.84z" fill="#7c3990"/><path fill="#b87bb5" d="M165.48 85.65h-2.98l-2.12 2.11v2.99l2.12 2.11h2.98l-.57-1.38v-4.46l.57-1.37z"/><path fill="#c093c3" d="M163.07 87.02h1.84l1.31 1.31v1.84l-1.31 1.31h-1.84l-1.31-1.31v-1.84l1.31-1.31z"/><path d="M161.58 90.25v-2l1.42-1.41h2l1.41 1.41v2L165 91.67h-2zm4.42-.15v-1.69l-1.19-1.2h-1.7l-1.11 1.2v1.69l1.19 1.2h1.7z" fill="#7c3990"/><path fill="#7c3990" d="M164.735 86.956l.57-1.376.342.141-.57 1.377zm-2.405-1.247l.341-.142.57 1.376-.34.142zm-2.005 2.221l.141-.342 1.377.57-.142.343zm-.011 2.652l1.377-.57.141.342-1.376.57zm2.004 2.202l.57-1.377.342.142-.57 1.376zm2.42-1.242l.342-.142.57 1.377-.342.141zm1.414-1.192l.142-.341 1.376.57-.141.342zm-.008-2.185l1.377-.57.142.342-1.377.57z"/><path d="M160.2 90.82v-3.14l2.22-2.22h3.14l2.22 2.22v3.14L165.56 93h-3.14zm7.21-.15v-2.83l-2-2h-2.84l-2 2v2.83l2 2h2.84z" fill="#7c3990"/><path fill="#fde9f1" d="M36.46 24.66v8.95h-1.88v-8.17l1.88-.78zm-4.26-2.07v-2.64l4 3.97-1.88.78-2.12-2.11z"/><path fill="#ee2a7b" d="M29.05 25.38v8.23h-1.89V24.6l1.89.78zm.29-.72l-1.88-.78 3.96-3.93v2.64l-2.08 2.07z"/><path fill="#ebb8d5" d="M31.81 23.3l1.99 1.98v8.33h-3.97v-8.33l1.98-1.98z"/><path fill="#a02373" d="M36.46 24.66l.63-.25-.3-.73-.59.24-4-3.97v-.94h-.78v.94l-3.96 3.93-.48-.2-.3.73.48.19v9.01h-.78v-9.75l5.43-5.4 5.43 5.4v9.75h-.78v-8.95z"/><path fill="#a02373" d="M31.81 22.2l-.39.39v-3.58h.78v3.58l-.39-.39zm-2.76 2.76v.42l-1.89-.78-.48-.19.3-.73.48.2 1.88.78-.29.3zm5.53 0l-.26-.26 1.88-.78.59-.24.3.73-.63.25-1.88.78v-.48z"/><path fill="#a02373" d="M29.05 24.96l.29-.3 2.08-2.07.39-.39.39.39 2.12 2.11.26.26v8.65h-.78v-8.33l-1.99-1.98-1.98 1.98v8.33h-.78v-8.65z"/><path d="M18.25 39.15V23.59l7.94-7.94h11.24l8 7.94v15.56l-8 8H26.19zm26.13-.42V24L37 16.65H26.61L19.25 24v14.73l7.36 7.37H37z" fill="#7c3990"/><path fill="#bd92c2" d="M44.88 30.83v12.49l-13.07 13-13.06-13V30.83"/><path fill="#7d3990" d="M31.81 57.03l13.57-13.5v-12.7h-1v12.29l-12.57 12.5-12.56-12.5V30.83h-1v12.7l13.56 13.5z"/><path fill="#f5ebf4" d="M44.88 30.83v12.49l-13.07 13-.02-13V30.83"/><path fill="#7d3990" d="M32.17 56.68l13.06-13 .15-.36V30.83h-1v12.29l-12.07 12-.02-24.29h-1l.02 25.49.86.36z"/><path fill="#e6cbe2" d="M26.36 30.83v9.26l5.45 5.42 5.46-5.42v-9.26"/><path fill="#7d3990" d="M31.81 46.22l5.96-5.92v-9.47h-1v9.05l-4.96 4.93-4.95-4.93v-9.05h-1v9.47l5.95 5.92zm-13.262-3.353l7.612-3.232.391.92-7.613 3.232z"/><path fill="#7d3990" d="M31.31 45.51h1v10.81h-1zm5.77-4.964l.39-.92 7.613 3.23-.391.921zM18.25 30.33h27.13v1H18.25z"/><path fill="#da1c5c" d="M34.19 57.74h-4.76v-3.81h4.76z"/><path d="M28.94 53.43h5.75v4.81h-5.75zm4.75 1h-3.75v2.81h3.75z" fill="#7c3990"/><path fill="#e6cbe2" d="M34.19 57.74h-2.38v-3.81h2.38z"/><path d="M31.31 53.43h3.38v4.81h-3.38zm2.38 1h-1.38v2.81h1.38zM31.5 9.97h1v4.83h-1z" fill="#7c3990"/><path fill="#da1c5c" d="M33.22 16.11h-2.43v-3.04h2.43z"/><path d="M30.29 12.58h3.43v4h-3.43zm2.43 1h-1.43v2h1.43z" fill="#7c3990"/><path fill="#e6cbe2" d="M31.82 11.16H6.99v-1.9l24.83 1.9z"/><path d="M6.49 8.72l25.37 1.94v1H6.49zm1 1.08v.86h11.28z" fill="#7c3990"/><path fill="#da1c5c" d="M33.22 11.18h-2.43V9.26h2.43z"/><path d="M30.29 8.76h3.43v2.92h-3.43zm2.43 1h-1.43v.92h1.43z" fill="#7c3990"/><path fill="#e6cbe2" d="M32.34 11.16h24.83v-1.9l-24.83 1.9z"/><path d="M32.3 10.66l25.37-1.94v2.94H32.34zm24.37-.86l-11.27.86h11.27z" fill="#7c3990"/><path fill="#ebb8d5" d="M163.99 30.06l4.84 4.81v34.1l-4.84 4.81-4.81-4.79V34.85l4.81-4.79z"/><path fill="#ee2a7b" d="M163.99 21.31v8.75l-4.81 4.79v34.14l4.81 4.79v8.75l-10.97-10.92V32.22l10.97-10.91z"/><path fill="#fde9f1" d="M163.99 21.31l10.97 10.91v39.39l-10.97 10.92v-8.75l4.84-4.81v-34.1l-4.84-4.81v-8.75z"/><path fill="none" stroke="#a02373" stroke-miterlimit="10" d="M174.96 32.22l-10.97-10.91-10.97 10.91v39.39l10.97 10.92 10.97-10.92V32.22z"/><path fill="none" stroke="#a02373" stroke-miterlimit="10" d="M168.83 34.87l-4.84-4.81-4.81 4.79v34.14l4.81 4.79 4.84-4.81v-34.1zm0 0l6.13-2.65m-10.97-10.91v8.75m-4.81 4.79l-6.16-2.63m6.16 36.77l-6.16 2.62m10.97 2.17v8.75m10.97-10.92l-6.13-2.64"/></svg>