<svg id="Layer_1" data-name="Layer 1" xmlns="http://www.w3.org/2000/svg" width="178.89" height="100.16" viewBox="0 0 178.89 100.16"><title>Artboard 1</title><path d="M32.42,58c.27,8.21,4.42,14.47,9,20.94,4.8,6.72,11,12.25,19.21,14.32s18.19,1.64,26.55.23,15.37-5,22.51-9.35c8.81-5.36,21.62-12.19,31.08-4.36,3.37,2.8,5.86,6.53,8.81,9.74,4.9,5.33,9.44,6.27,14-.28.36-.53,1.23,0,.86.5-2,2.89-4.69,6.16-8.61,5.44-4.07-.76-7.12-5.11-9.58-8-4.91-5.83-9.19-10.52-17.64-9.75-10.3.94-18.22,8.29-27.15,12.66-7.35,3.59-15.45,5-23.58,5.36-7.88.3-16.37.18-23.56-3.44C47.67,88.59,43.1,83.06,39,77S31.67,65.39,31.42,58c0-.64,1-.64,1,0Z" style="fill:#7c3990"/><path d="M165.94,91.29l3.82-1.48,1.65-3.75-1.48-3.81-3.75-1.65-.05,2.46,2,.89L169,86l-.89,2-2.06.8Z" style="fill:#c093c3"/><path d="M165.65,91.29l.06-2.46.18-.27,2-.75.8-1.81-.72-1.84L166,83.32l-.17-.27,0-2.46.41-.26L170,82l.16.16L171.68,86v.22L170,89.93l-.16.15-3.81,1.48Zm5.45-5.23-1.4-3.6L166.46,81l0,1.83,1.85.81.15.16.8,2.06v.23l-.89,2-.16.15-1.88.73,0,1.84,3.3-1.29Z" style="fill:#7c3990"/><path d="M162,88.83l-2.06-.8L159,86l.8-2.06,2-.89,0-2.46-3.75,1.65-1.48,3.81,1.65,3.75L162,91.29Z" style="fill:#c093c3"/><path d="M161.93,91.56l-3.81-1.48-.16-.15-1.65-3.75V86l1.48-3.82.16-.16,3.74-1.65.41.26,0,2.46-.17.27-1.91.84L159.34,86l.8,1.81,2,.75.18.27.06,2.46Zm-3.49-2,3.3,1.29,0-1.84-1.88-.73-.16-.15-.89-2V85.9l.8-2.06.15-.16,1.85-.81,0-1.83-3.24,1.42-1.4,3.6Z" style="fill:#7c3990"/><polygon points="162.5 85.65 165.48 85.65 167.59 87.76 167.59 90.75 165.48 92.86 162.5 92.86 160.38 90.75 160.38 87.76 162.5 85.65" style="fill:#e6cae2"/><path d="M160.2,90.82V87.68l2.22-2.22h3.14l2.22,2.22v3.14L165.56,93h-3.14Zm7.21-.15V87.84l-2-2h-2.84l-2,2v2.83l2,2h2.84Z" style="fill:#7c3990"/><polygon points="165.48 85.65 162.5 85.65 160.38 87.76 160.38 90.75 162.5 92.86 165.48 92.86 164.91 91.48 164.91 87.02 165.48 85.65" style="fill:#b87bb5"/><polygon points="163.07 87.02 164.91 87.02 166.22 88.33 166.22 90.17 164.91 91.48 163.07 91.48 161.76 90.17 161.76 88.33 163.07 87.02" style="fill:#c093c3"/><path d="M161.58,90.25v-2L163,86.84h2l1.41,1.41v2L165,91.67h-2ZM166,90.1V88.41l-1.19-1.2h-1.7L162,88.41V90.1l1.19,1.2h1.7Z" style="fill:#7c3990"/><rect x="164.45" y="86.15" width="1.49" height="0.37" transform="translate(22.21 205.92) rotate(-67.5)" style="fill:#7c3990"/><rect x="162.6" y="85.59" width="0.37" height="1.49" transform="translate(-20.65 68.89) rotate(-22.51)" style="fill:#7c3990"/><rect x="160.89" y="87.3" width="0.37" height="1.49" transform="translate(18.08 203.14) rotate(-67.49)" style="fill:#7c3990"/><rect x="160.33" y="90.28" width="1.49" height="0.37" transform="translate(-22.36 68.53) rotate(-22.5)" style="fill:#7c3990"/><rect x="162.04" y="91.98" width="1.49" height="0.37" transform="translate(15.33 207.29) rotate(-67.5)" style="fill:#7c3990"/><rect x="165.01" y="91.42" width="0.37" height="1.49" transform="translate(-22.7 70.26) rotate(-22.51)" style="fill:#7c3990"/><rect x="166.72" y="89.72" width="0.37" height="1.49" transform="translate(19.44 210.02) rotate(-67.49)" style="fill:#7c3990"/><rect x="166.16" y="87.86" width="1.49" height="0.37" transform="translate(-20.99 70.58) rotate(-22.5)" style="fill:#7c3990"/><path d="M160.2,90.82V87.68l2.22-2.22h3.14l2.22,2.22v3.14L165.56,93h-3.14Zm7.21-.15V87.84l-2-2h-2.84l-2,2v2.83l2,2h2.84Z" style="fill:#7c3990"/><polygon points="36.46 24.66 36.46 33.61 34.58 33.61 34.58 25.44 36.46 24.66" style="fill:#fde9f1"/><polygon points="32.2 22.59 32.2 19.95 36.2 23.92 34.32 24.7 32.2 22.59" style="fill:#fde9f1"/><polygon points="29.05 25.38 29.05 33.61 27.16 33.61 27.16 24.6 29.05 25.38" style="fill:#ee2a7b"/><polygon points="29.34 24.66 27.46 23.88 31.42 19.95 31.42 22.59 29.34 24.66" style="fill:#ee2a7b"/><polygon points="31.81 23.3 33.8 25.28 33.8 33.61 29.83 33.61 29.83 25.28 31.81 23.3" style="fill:#ebb8d5"/><polygon points="36.46 24.66 37.09 24.41 36.79 23.68 36.2 23.92 32.2 19.95 32.2 19.01 31.42 19.01 31.42 19.95 27.46 23.88 26.98 23.68 26.68 24.41 27.16 24.6 27.16 33.61 26.38 33.61 26.38 23.86 31.81 18.46 37.24 23.86 37.24 33.61 36.46 33.61 36.46 24.66" style="fill:#a02373"/><polygon points="31.81 22.2 31.42 22.59 31.42 19.95 31.42 19.01 32.2 19.01 32.2 19.95 32.2 22.59 31.81 22.2" style="fill:#a02373"/><polygon points="29.05 24.96 29.05 25.38 27.16 24.6 26.68 24.41 26.98 23.68 27.46 23.88 29.34 24.66 29.05 24.96" style="fill:#a02373"/><polygon points="34.58 24.96 34.32 24.7 36.2 23.92 36.79 23.68 37.09 24.41 36.46 24.66 34.58 25.44 34.58 24.96" style="fill:#a02373"/><polygon points="29.05 24.96 29.34 24.66 31.42 22.59 31.81 22.2 32.2 22.59 34.32 24.7 34.58 24.96 34.58 25.44 34.58 33.61 33.8 33.61 33.8 25.28 31.81 23.3 29.83 25.28 29.83 33.61 29.05 33.61 29.05 25.38 29.05 24.96" style="fill:#a02373"/><path d="M18.25,39.15V23.59l7.94-7.94H37.43l8,7.94V39.15l-8,8H26.19Zm26.13-.42V24L37,16.65H26.61L19.25,24V38.73l7.36,7.37H37Z" style="fill:#7c3990"/><polyline points="44.88 30.83 44.88 43.32 31.81 56.32 18.75 43.32 18.75 30.83" style="fill:#bd92c2"/><polygon points="31.81 57.03 45.38 43.53 45.38 30.83 44.38 30.83 44.38 43.12 31.81 55.62 19.25 43.12 19.25 30.83 18.25 30.83 18.25 43.53 31.81 57.03" style="fill:#7d3990"/><polyline points="44.88 30.83 44.88 43.32 31.81 56.32 31.79 43.32 31.79 30.83" style="fill:#f5ebf4"/><polygon points="32.17 56.68 45.23 43.68 45.38 43.32 45.38 30.83 44.38 30.83 44.38 43.12 32.31 55.12 32.29 30.83 31.29 30.83 31.31 56.32 32.17 56.68" style="fill:#7d3990"/><polyline points="26.36 30.83 26.36 40.09 31.81 45.51 37.27 40.09 37.27 30.83" style="fill:#e6cbe2"/><polygon points="31.81 46.22 37.77 40.3 37.77 30.83 36.77 30.83 36.77 39.88 31.81 44.81 26.86 39.88 26.86 30.83 25.86 30.83 25.86 40.3 31.81 46.22" style="fill:#7d3990"/><rect x="18.42" y="41.21" width="8.27" height="1" transform="translate(-14.51 12.13) rotate(-23)" style="fill:#7d3990"/><rect x="31.31" y="45.51" width="1" height="10.81" style="fill:#7d3990"/><rect x="40.58" y="37.57" width="1" height="8.27" transform="translate(-13.36 63.22) rotate(-67)" style="fill:#7d3990"/><rect x="18.25" y="30.33" width="27.13" height="1" style="fill:#7d3990"/><rect x="29.44" y="53.93" width="4.76" height="3.81" transform="translate(63.63 111.67) rotate(-180)" style="fill:#da1c5c"/><path d="M28.94,53.43h5.75v4.81H28.94Zm4.75,1H29.94v2.81h3.75Z" style="fill:#7c3990"/><rect x="31.81" y="53.93" width="2.38" height="3.81" transform="translate(66 111.67) rotate(-180)" style="fill:#e6cbe2"/><path d="M31.31,53.43h3.38v4.81H31.31Zm2.38,1H32.31v2.81h1.38Z" style="fill:#7c3990"/><rect x="31.5" y="9.97" width="1" height="4.83" style="fill:#7c3990"/><rect x="30.79" y="13.08" width="2.43" height="3.04" transform="translate(64.01 29.19) rotate(-180)" style="fill:#da1c5c"/><path d="M30.29,12.58h3.43v4H30.29Zm2.43,1H31.29v2h1.43Z" style="fill:#7c3990"/><polygon points="31.82 11.16 6.99 11.16 6.99 9.26 31.82 11.16" style="fill:#e6cbe2"/><path d="M6.49,8.72l25.37,1.94,0,1H6.49Zm1,1.08v.86H18.77Z" style="fill:#7c3990"/><rect x="30.79" y="9.26" width="2.43" height="1.92" transform="translate(64.01 20.44) rotate(-180)" style="fill:#da1c5c"/><path d="M30.29,8.76h3.43v2.92H30.29Zm2.43,1H31.29v.92h1.43Z" style="fill:#7c3990"/><polygon points="32.34 11.16 57.17 11.16 57.17 9.26 32.34 11.16" style="fill:#e6cbe2"/><path d="M32.3,10.66,57.67,8.72v2.94H32.34ZM56.67,9.8l-11.27.86H56.67Z" style="fill:#7c3990"/><polygon points="163.99 30.06 168.83 34.87 168.83 68.97 163.99 73.78 159.18 68.99 159.18 34.85 163.99 30.06" style="fill:#ebb8d5"/><polygon points="163.99 21.31 163.99 30.06 159.18 34.85 159.18 68.99 163.99 73.78 163.99 82.53 153.02 71.61 153.02 32.22 163.99 21.31" style="fill:#ee2a7b"/><polygon points="163.99 21.31 174.96 32.22 174.96 71.61 163.99 82.53 163.99 73.78 168.83 68.97 168.83 34.87 163.99 30.06 163.99 21.31" style="fill:#fde9f1"/><polygon points="174.96 32.22 163.99 21.31 153.02 32.22 153.02 71.61 163.99 82.53 174.96 71.61 174.96 32.22" style="fill:none;stroke:#a02373;stroke-miterlimit:10"/><polygon points="168.83 34.87 163.99 30.06 159.18 34.85 159.18 68.99 163.99 73.78 168.83 68.97 168.83 34.87" style="fill:none;stroke:#a02373;stroke-miterlimit:10"/><line x1="168.83" y1="34.87" x2="174.96" y2="32.22" style="fill:none;stroke:#a02373;stroke-miterlimit:10"/><line x1="163.99" y1="21.31" x2="163.99" y2="30.06" style="fill:none;stroke:#a02373;stroke-miterlimit:10"/><line x1="159.18" y1="34.85" x2="153.02" y2="32.22" style="fill:none;stroke:#a02373;stroke-miterlimit:10"/><line x1="159.18" y1="68.99" x2="153.02" y2="71.61" style="fill:none;stroke:#a02373;stroke-miterlimit:10"/><line x1="163.99" y1="73.78" x2="163.99" y2="82.53" style="fill:none;stroke:#a02373;stroke-miterlimit:10"/><line x1="174.96" y1="71.61" x2="168.83" y2="68.97" style="fill:none;stroke:#a02373;stroke-miterlimit:10"/></svg>