<svg xmlns="http://www.w3.org/2000/svg" width="342.27" height="293.87" viewBox="0 0 342.27 293.87"><title>Artboard 36</title><g id="ILLO_4" data-name="ILLO 4"><polygon points="169.49 72.48 138.73 103.08 138.73 113.93 138.73 189.54 138.73 194.75 169.49 225.35 200.25 194.75 200.25 189.54 200.25 113.93 200.25 103.08 169.49 72.48" style="fill:#da1c5c;stroke:#7c3990;stroke-miterlimit:10"/><polyline points="169.49 72.48 138.73 103.08 138.73 113.93 138.73 189.54 138.73 194.75 169.49 225.35" style="fill:#f6ebf4;stroke:#7d3990;stroke-miterlimit:10"/><line x1="182.33" y1="187.14" x2="200.25" y2="194.75" style="fill:none;stroke:#7d3990;stroke-miterlimit:10"/><line x1="169.49" y1="199.91" x2="169.49" y2="225.35" style="fill:none;stroke:#7d3990;stroke-miterlimit:10"/><line x1="156.64" y1="187.13" x2="138.73" y2="194.75" style="fill:none;stroke:#7d3990;stroke-miterlimit:10"/><line x1="182.33" y1="110.69" x2="200.25" y2="103.08" style="fill:none;stroke:#7d3990;stroke-miterlimit:10"/><line x1="169.49" y1="97.93" x2="169.49" y2="72.49" style="fill:none;stroke:#7d3990;stroke-miterlimit:10"/><line x1="156.64" y1="110.7" x2="138.73" y2="103.08" style="fill:none;stroke:#7d3990;stroke-miterlimit:10"/><polygon points="169.49 97.93 156.64 110.7 156.64 113.93 156.64 185.06 156.64 187.13 169.49 199.91 182.33 187.14 182.33 185.06 182.33 113.93 182.33 110.69 169.49 97.93" style="fill:#e6cbe2;stroke:#7d3990;stroke-miterlimit:10"/><rect x="21.96" y="243.32" width="186.11" height="45.58" style="fill:#e6cbe2;stroke:#7d3990;stroke-miterlimit:10"/><polygon points="27.76 283.25 22.04 288.9 22.04 243.24 208.07 243.24 202.27 248.96 27.76 248.96 27.76 283.25" style="fill:#fff"/><rect x="27.76" y="248.96" width="174.51" height="34.29" style="fill:#f6ebf4;stroke:#7d3990;stroke-miterlimit:10"/><line x1="27.76" y1="248.96" x2="22.04" y2="243.24" style="fill:#da1c5c;stroke:#7c3990;stroke-miterlimit:10"/><line x1="202.27" y1="248.96" x2="207.99" y2="243.24" style="fill:#da1c5c;stroke:#7c3990;stroke-miterlimit:10"/><line x1="202.27" y1="283.25" x2="207.99" y2="288.97" style="fill:#da1c5c;stroke:#7c3990;stroke-miterlimit:10"/><line x1="27.76" y1="283.25" x2="22.04" y2="288.97" style="fill:#da1c5c;stroke:#7c3990;stroke-miterlimit:10"/><rect x="21.96" y="243.32" width="186.11" height="45.58" style="fill:none;stroke:#7c3990;stroke-miterlimit:10"/><rect x="227.2" y="172.85" width="93.64" height="85.24" style="fill:#bd8bbe;stroke:#7d3990;stroke-miterlimit:10"/><polygon points="233 252.44 227.28 258.09 227.28 172.77 320.84 172.77 315.04 178.49 233 178.49 233 252.44" style="fill:#fff"/><rect x="233" y="178.49" width="82.04" height="73.95" style="fill:#c9a8cf;stroke:#7d3990;stroke-miterlimit:10"/><line x1="233" y1="178.49" x2="227.28" y2="172.77" style="fill:#da1c5c;stroke:#7c3990;stroke-miterlimit:10"/><line x1="315.04" y1="178.49" x2="320.76" y2="172.77" style="fill:#da1c5c;stroke:#7c3990;stroke-miterlimit:10"/><line x1="315.04" y1="252.44" x2="320.76" y2="258.16" style="fill:#da1c5c;stroke:#7c3990;stroke-miterlimit:10"/><line x1="233" y1="252.44" x2="227.28" y2="258.16" style="fill:#da1c5c;stroke:#7c3990;stroke-miterlimit:10"/><rect x="227.2" y="172.85" width="93.64" height="85.24" style="fill:none;stroke:#7c3990;stroke-miterlimit:10"/><rect x="38.08" y="66.56" width="76.41" height="154.55" style="fill:#e29dc5;stroke:#7d3990;stroke-miterlimit:10"/><polygon points="43.88 215.47 38.16 221.11 38.16 66.48 114.49 66.48 108.69 72.21 43.88 72.21 43.88 215.47" style="fill:#fff"/><rect x="43.88" y="72.21" width="64.81" height="143.26" style="fill:#f3cbe0;stroke:#7d3990;stroke-miterlimit:10"/><line x1="43.88" y1="72.21" x2="38.16" y2="66.48" style="fill:#da1c5c;stroke:#7c3990;stroke-miterlimit:10"/><line x1="108.69" y1="72.21" x2="114.41" y2="66.48" style="fill:#da1c5c;stroke:#7c3990;stroke-miterlimit:10"/><line x1="108.69" y1="215.47" x2="114.41" y2="221.19" style="fill:#da1c5c;stroke:#7c3990;stroke-miterlimit:10"/><line x1="43.88" y1="215.47" x2="38.16" y2="221.19" style="fill:#da1c5c;stroke:#7c3990;stroke-miterlimit:10"/><rect x="38.08" y="66.56" width="76.41" height="154.55" style="fill:none;stroke:#7c3990;stroke-miterlimit:10"/><rect x="218.96" y="42.79" width="99.2" height="109.23" style="fill:#e6cbe2;stroke:#7d3990;stroke-miterlimit:10"/><polygon points="225.1 146.04 219.04 152.02 219.04 42.71 318.16 42.71 312.01 48.77 225.1 48.77 225.1 146.04" style="fill:#fff"/><rect x="225.1" y="48.77" width="86.91" height="97.27" style="fill:#f6ebf4;stroke:#7d3990;stroke-miterlimit:10"/><line x1="225.1" y1="48.77" x2="219.04" y2="42.71" style="fill:#da1c5c;stroke:#7c3990;stroke-miterlimit:10"/><line x1="312.01" y1="48.77" x2="318.07" y2="42.71" style="fill:#da1c5c;stroke:#7c3990;stroke-miterlimit:10"/><line x1="312.01" y1="146.04" x2="318.07" y2="152.1" style="fill:#da1c5c;stroke:#7c3990;stroke-miterlimit:10"/><line x1="225.1" y1="146.04" x2="219.04" y2="152.1" style="fill:#da1c5c;stroke:#7c3990;stroke-miterlimit:10"/><rect x="218.96" y="42.79" width="99.2" height="109.23" style="fill:none;stroke:#7c3990;stroke-miterlimit:10"/><polygon points="49.57 252.88 52.77 261.41 61.88 261.82 54.75 267.5 57.18 276.29 49.57 271.27 41.97 276.29 44.39 267.5 37.26 261.82 46.37 261.41 49.57 252.88" style="fill:#da1c5c;stroke:#7c3990;stroke-miterlimit:10"/><polygon points="82.29 252.88 85.5 261.41 94.6 261.82 87.48 267.5 89.9 276.29 82.29 271.27 74.69 276.29 77.11 267.5 69.98 261.82 79.09 261.41 82.29 252.88" style="fill:#da1c5c;stroke:#7c3990;stroke-miterlimit:10"/><polygon points="115.01 252.88 118.22 261.41 127.32 261.82 120.2 267.5 122.62 276.29 115.01 271.27 107.41 276.29 109.83 267.5 102.71 261.82 111.81 261.41 115.01 252.88" style="fill:#da1c5c;stroke:#7c3990;stroke-miterlimit:10"/><polygon points="147.73 252.88 150.94 261.41 160.04 261.82 152.92 267.5 155.34 276.29 147.73 271.27 140.13 276.29 142.55 267.5 135.43 261.82 144.53 261.41 147.73 252.88" style="fill:#bd8bbe;stroke:#7d3990;stroke-miterlimit:10"/><polygon points="180.46 252.88 183.66 261.41 192.76 261.82 185.64 267.5 188.06 276.29 180.46 271.27 172.85 276.29 175.27 267.5 168.15 261.82 177.25 261.41 180.46 252.88" style="fill:#bd8bbe;stroke:#7d3990;stroke-miterlimit:10"/><rect x="50.98" y="80.6" width="14.64" height="14.64" style="fill:#fff;stroke:#7d3990;stroke-miterlimit:10"/><line x1="71.51" y1="83.43" x2="101.08" y2="83.43" style="fill:#f6ebf4;stroke:#7d3990;stroke-miterlimit:10"/><line x1="71.51" y1="87.92" x2="101.08" y2="87.92" style="fill:#f6ebf4;stroke:#7d3990;stroke-miterlimit:10"/><line x1="71.51" y1="92.42" x2="92.94" y2="92.42" style="fill:#f6ebf4;stroke:#7d3990;stroke-miterlimit:10"/><rect x="50.98" y="102.94" width="14.64" height="14.64" style="fill:#fff;stroke:#7d3990;stroke-miterlimit:10"/><line x1="71.51" y1="105.77" x2="101.08" y2="105.77" style="fill:#f6ebf4;stroke:#7d3990;stroke-miterlimit:10"/><line x1="71.51" y1="110.26" x2="101.08" y2="110.26" style="fill:#f6ebf4;stroke:#7d3990;stroke-miterlimit:10"/><line x1="71.51" y1="114.75" x2="92.94" y2="114.75" style="fill:#f6ebf4;stroke:#7d3990;stroke-miterlimit:10"/><rect x="50.98" y="125.28" width="14.64" height="14.64" style="fill:#fff;stroke:#7d3990;stroke-miterlimit:10"/><line x1="71.51" y1="128.1" x2="101.08" y2="128.1" style="fill:#f6ebf4;stroke:#7d3990;stroke-miterlimit:10"/><line x1="71.51" y1="132.6" x2="91.43" y2="132.6" style="fill:#f6ebf4;stroke:#7d3990;stroke-miterlimit:10"/><rect x="50.98" y="147.61" width="14.64" height="14.64" style="fill:#fff;stroke:#7d3990;stroke-miterlimit:10"/><line x1="71.51" y1="150.44" x2="101.08" y2="150.44" style="fill:#fff;stroke:#7d3990;stroke-miterlimit:10"/><line x1="71.51" y1="154.93" x2="101.08" y2="154.93" style="fill:#fff;stroke:#7d3990;stroke-miterlimit:10"/><line x1="71.51" y1="159.42" x2="97.46" y2="159.42" style="fill:#fff;stroke:#7d3990;stroke-miterlimit:10"/><rect x="233.37" y="105.47" width="1.62" height="1.62" rx="0.81" ry="0.81" style="fill:#7d3990;stroke:#7d3990;stroke-miterlimit:10"/><line x1="237.94" y1="106.28" x2="303.84" y2="106.28" style="fill:#fff;stroke:#7d3990;stroke-miterlimit:10"/><line x1="237.94" y1="111.04" x2="274.02" y2="111.04" style="fill:#fff;stroke:#7d3990;stroke-miterlimit:10"/><rect x="233.37" y="117.81" width="1.62" height="1.62" rx="0.81" ry="0.81" style="fill:#7d3990;stroke:#7d3990;stroke-miterlimit:10"/><line x1="237.94" y1="118.62" x2="303.84" y2="118.62" style="fill:#fff;stroke:#7d3990;stroke-miterlimit:10"/><line x1="237.94" y1="123.38" x2="292.28" y2="123.38" style="fill:#fff;stroke:#7d3990;stroke-miterlimit:10"/><rect x="233.37" y="130.15" width="1.62" height="1.62" rx="0.81" ry="0.81" style="fill:#7d3990;stroke:#7d3990;stroke-miterlimit:10"/><line x1="237.94" y1="130.96" x2="303.84" y2="130.96" style="fill:#fff;stroke:#7d3990;stroke-miterlimit:10"/><line x1="237.94" y1="135.72" x2="285.98" y2="135.72" style="fill:#fff;stroke:#7d3990;stroke-miterlimit:10"/><rect x="50.98" y="169.95" width="14.64" height="14.64" style="fill:#fff;stroke:#7d3990;stroke-miterlimit:10"/><line x1="71.51" y1="172.77" x2="101.08" y2="172.77" style="fill:#f6ebf4;stroke:#7d3990;stroke-miterlimit:10"/><line x1="71.51" y1="177.27" x2="101.08" y2="177.27" style="fill:#f6ebf4;stroke:#7d3990;stroke-miterlimit:10"/><line x1="71.51" y1="181.76" x2="86.29" y2="181.76" style="fill:#f6ebf4;stroke:#7d3990;stroke-miterlimit:10"/><rect x="50.98" y="192.28" width="14.64" height="14.64" style="fill:#fff;stroke:#7d3990;stroke-miterlimit:10"/><line x1="71.51" y1="195.11" x2="101.08" y2="195.11" style="fill:#f6ebf4;stroke:#7d3990;stroke-miterlimit:10"/><line x1="71.51" y1="199.6" x2="97.46" y2="199.6" style="fill:#f6ebf4;stroke:#7d3990;stroke-miterlimit:10"/><rect x="242.15" y="79.45" width="3.89" height="13.92" transform="translate(-14.48 72.69) rotate(-16.46)" style="fill:#fff;stroke:#7d3990;stroke-miterlimit:10"/><polygon points="298.72 87.14 247.04 89.64 244.81 82.11 288.97 54.14 298.72 87.14" style="fill:#70cee9;stroke:#7c3990;stroke-miterlimit:10"/><polygon points="272.28 88.42 268.28 88.61 262.96 70.61 266.38 68.45 272.28 88.42" style="fill:#fff;stroke:#7d3990;stroke-miterlimit:10"/><polygon points="289.24 87.52 283.64 87.79 276.19 62.58 280.97 59.55 289.24 87.52" style="fill:#fff;stroke:#7d3990;stroke-miterlimit:10"/><polyline points="260.31 88.99 260.31 93.38 267.62 96.49 274.58 93.38 274.58 88.3" style="fill:none;stroke:#7d3990;stroke-miterlimit:10"/><line x1="169.48" y1="4.66" x2="169.48" y2="63.68" style="fill:none;stroke:#7c3990;stroke-miterlimit:10"/><line x1="145.48" y1="20.19" x2="154.3" y2="58.8" style="fill:none;stroke:#7c3990;stroke-miterlimit:10"/><line x1="128.77" y1="39.49" x2="140.99" y2="62.06" style="fill:none;stroke:#7c3990;stroke-miterlimit:10"/><line x1="193.48" y1="20.19" x2="184.66" y2="58.8" style="fill:none;stroke:#7c3990;stroke-miterlimit:10"/><line x1="210.19" y1="39.49" x2="197.97" y2="62.06" style="fill:none;stroke:#7c3990;stroke-miterlimit:10"/><polygon points="227.47 268.61 221.8 274.25 221.8 276.26 221.8 284.64 221.8 285.6 227.47 291.24 233.15 285.6 233.15 284.64 233.15 276.26 233.15 274.25 227.47 268.61" style="fill:#ee2c7b;stroke:#7c3990;stroke-miterlimit:10"/><polyline points="227.47 268.61 221.8 274.25 221.8 276.26 221.8 284.64 221.8 285.6 227.47 291.24" style="fill:#f6ebf4;stroke:#7d3990;stroke-miterlimit:10"/><line x1="229.84" y1="284.2" x2="233.15" y2="285.6" style="fill:none;stroke:#7d3990;stroke-miterlimit:10"/><line x1="227.47" y1="286.55" x2="227.47" y2="291.24" style="fill:none;stroke:#7d3990;stroke-miterlimit:10"/><line x1="225.1" y1="284.19" x2="221.8" y2="285.6" style="fill:none;stroke:#7d3990;stroke-miterlimit:10"/><line x1="229.84" y1="275.66" x2="233.15" y2="274.26" style="fill:none;stroke:#7d3990;stroke-miterlimit:10"/><line x1="227.47" y1="273.3" x2="227.47" y2="268.61" style="fill:none;stroke:#7d3990;stroke-miterlimit:10"/><line x1="225.1" y1="275.66" x2="221.8" y2="274.26" style="fill:none;stroke:#7d3990;stroke-miterlimit:10"/><polygon points="227.47 273.3 225.1 275.66 225.1 276.26 225.1 283.81 225.1 284.19 227.47 286.55 229.84 284.2 229.84 283.81 229.84 276.26 229.84 275.66 227.47 273.3" style="fill:#e6cbe2;stroke:#7d3990;stroke-miterlimit:10"/><polygon points="134.88 217.86 131.13 221.59 131.13 222.92 131.13 228.47 131.13 229.11 134.88 232.84 138.64 229.11 138.64 228.47 138.64 222.92 138.64 221.59 134.88 217.86" style="fill:#ee2c7b;stroke:#7c3990;stroke-miterlimit:10"/><polyline points="134.88 217.86 131.13 221.59 131.13 222.92 131.13 228.47 131.13 229.11 134.88 232.84" style="fill:#f6ebf4;stroke:#7d3990;stroke-miterlimit:10"/><line x1="136.45" y1="228.18" x2="138.64" y2="229.11" style="fill:none;stroke:#7d3990;stroke-miterlimit:10"/><line x1="134.88" y1="229.74" x2="134.88" y2="232.84" style="fill:none;stroke:#7d3990;stroke-miterlimit:10"/><line x1="133.31" y1="228.18" x2="131.13" y2="229.11" style="fill:none;stroke:#7d3990;stroke-miterlimit:10"/><line x1="136.45" y1="222.52" x2="138.64" y2="221.59" style="fill:none;stroke:#7d3990;stroke-miterlimit:10"/><line x1="134.88" y1="220.96" x2="134.88" y2="217.86" style="fill:none;stroke:#7d3990;stroke-miterlimit:10"/><line x1="133.31" y1="222.52" x2="131.13" y2="221.59" style="fill:none;stroke:#7d3990;stroke-miterlimit:10"/><polygon points="134.88 220.97 133.31 222.53 133.31 222.92 133.31 227.92 133.31 228.18 134.88 229.74 136.45 228.18 136.45 227.92 136.45 222.92 136.45 222.52 134.88 220.97" style="fill:#e6cbe2;stroke:#7d3990;stroke-miterlimit:10"/><polygon points="244.81 4.66 238.93 10.51 238.93 12.59 238.93 21.27 238.93 22.27 244.81 28.12 250.69 22.27 250.69 21.27 250.69 12.59 250.69 10.51 244.81 4.66" style="fill:#ee2c7b;stroke:#7c3990;stroke-miterlimit:10"/><polyline points="244.81 4.66 238.93 10.51 238.93 12.59 238.93 21.27 238.93 22.27 244.81 28.12" style="fill:#f6ebf4;stroke:#7d3990;stroke-miterlimit:10"/><line x1="247.27" y1="20.81" x2="250.69" y2="22.27" style="fill:none;stroke:#7d3990;stroke-miterlimit:10"/><line x1="244.81" y1="23.25" x2="244.81" y2="28.12" style="fill:none;stroke:#7d3990;stroke-miterlimit:10"/><line x1="242.36" y1="20.81" x2="238.93" y2="22.27" style="fill:none;stroke:#7d3990;stroke-miterlimit:10"/><line x1="247.27" y1="11.97" x2="250.69" y2="10.51" style="fill:none;stroke:#7d3990;stroke-miterlimit:10"/><line x1="244.81" y1="9.53" x2="244.81" y2="4.66" style="fill:none;stroke:#7d3990;stroke-miterlimit:10"/><line x1="242.36" y1="11.97" x2="238.93" y2="10.51" style="fill:none;stroke:#7d3990;stroke-miterlimit:10"/><polygon points="244.81 9.53 242.36 11.97 242.36 12.59 242.36 20.41 242.36 20.81 244.81 23.25 247.27 20.81 247.27 20.41 247.27 12.59 247.27 11.97 244.81 9.53" style="fill:#e6cbe2;stroke:#7d3990;stroke-miterlimit:10"/><polygon points="9.76 141.28 2.63 148.38 2.63 150.9 2.63 168.32 2.63 169.52 9.76 176.62 16.9 169.52 16.9 168.32 16.9 150.9 16.9 148.38 9.76 141.28" style="fill:#ee2c7b;stroke:#7c3990;stroke-miterlimit:10"/><polyline points="9.76 141.28 2.63 148.38 2.63 150.9 2.63 168.32 2.63 169.52 9.76 176.62" style="fill:#f6ebf4;stroke:#7d3990;stroke-miterlimit:10"/><line x1="12.74" y1="167.76" x2="16.9" y2="169.52" style="fill:none;stroke:#7d3990;stroke-miterlimit:10"/><line x1="9.76" y1="170.72" x2="9.76" y2="176.62" style="fill:none;stroke:#7d3990;stroke-miterlimit:10"/><line x1="6.78" y1="167.76" x2="2.63" y2="169.52" style="fill:none;stroke:#7d3990;stroke-miterlimit:10"/><line x1="12.74" y1="150.15" x2="16.9" y2="148.38" style="fill:none;stroke:#7d3990;stroke-miterlimit:10"/><line x1="9.76" y1="147.18" x2="9.76" y2="141.28" style="fill:none;stroke:#7d3990;stroke-miterlimit:10"/><line x1="6.78" y1="150.15" x2="2.63" y2="148.38" style="fill:none;stroke:#7d3990;stroke-miterlimit:10"/><polygon points="9.76 147.18 6.78 150.15 6.78 150.9 6.78 167.27 6.78 167.76 9.76 170.72 12.74 167.76 12.74 167.27 12.74 150.9 12.74 150.15 9.76 147.18" style="fill:#e6cbe2;stroke:#7d3990;stroke-miterlimit:10"/><polygon points="102.71 28.07 95.57 35.17 95.57 37.68 95.57 42.26 95.57 43.47 102.71 50.57 109.84 43.47 109.84 42.26 109.84 37.68 109.84 35.17 102.71 28.07" style="fill:#ee2c7b;stroke:#7c3990;stroke-miterlimit:10"/><polyline points="102.71 28.07 95.57 35.17 95.57 37.68 95.57 42.26 95.57 43.47 102.71 50.57" style="fill:#f6ebf4;stroke:#7d3990;stroke-miterlimit:10"/><line x1="105.69" y1="41.71" x2="109.84" y2="43.47" style="fill:none;stroke:#7d3990;stroke-miterlimit:10"/><line x1="102.71" y1="44.67" x2="102.71" y2="50.57" style="fill:none;stroke:#7d3990;stroke-miterlimit:10"/><line x1="99.73" y1="41.7" x2="95.57" y2="43.47" style="fill:none;stroke:#7d3990;stroke-miterlimit:10"/><line x1="105.69" y1="36.93" x2="109.84" y2="35.17" style="fill:none;stroke:#7d3990;stroke-miterlimit:10"/><line x1="102.71" y1="33.97" x2="102.71" y2="28.07" style="fill:none;stroke:#7d3990;stroke-miterlimit:10"/><line x1="99.73" y1="36.93" x2="95.57" y2="35.17" style="fill:none;stroke:#7d3990;stroke-miterlimit:10"/><polygon points="102.71 33.97 99.73 36.93 99.73 37.68 99.73 41.22 99.73 41.7 102.71 44.67 105.69 41.71 105.69 41.22 105.69 37.68 105.69 36.93 102.71 33.97" style="fill:#e6cbe2;stroke:#7d3990;stroke-miterlimit:10"/><polygon points="331.84 144.47 324.71 151.57 324.71 154.08 324.71 158.66 324.71 159.87 331.84 166.97 338.98 159.87 338.98 158.66 338.98 154.08 338.98 151.57 331.84 144.47" style="fill:#ee2c7b;stroke:#7c3990;stroke-miterlimit:10"/><polyline points="331.84 144.47 324.71 151.57 324.71 154.08 324.71 158.66 324.71 159.87 331.84 166.97" style="fill:#f6ebf4;stroke:#7d3990;stroke-miterlimit:10"/><line x1="334.82" y1="158.11" x2="338.98" y2="159.87" style="fill:none;stroke:#7d3990;stroke-miterlimit:10"/><line x1="331.84" y1="161.07" x2="331.84" y2="166.97" style="fill:none;stroke:#7d3990;stroke-miterlimit:10"/><line x1="328.86" y1="158.1" x2="324.71" y2="159.87" style="fill:none;stroke:#7d3990;stroke-miterlimit:10"/><line x1="334.82" y1="153.33" x2="338.98" y2="151.57" style="fill:none;stroke:#7d3990;stroke-miterlimit:10"/><line x1="331.84" y1="150.37" x2="331.84" y2="144.47" style="fill:none;stroke:#7d3990;stroke-miterlimit:10"/><line x1="328.86" y1="153.33" x2="324.71" y2="151.57" style="fill:none;stroke:#7d3990;stroke-miterlimit:10"/><polygon points="331.84 150.37 328.86 153.33 328.86 154.08 328.86 157.62 328.86 158.1 331.84 161.07 334.82 158.11 334.82 157.62 334.82 154.08 334.82 153.33 331.84 150.37" style="fill:#e6cbe2;stroke:#7d3990;stroke-miterlimit:10"/><polygon points="284.86 190.45 264.17 190.45 249.53 205.08 249.53 225.78 264.17 240.41 284.86 240.41 299.5 225.78 299.5 205.08 284.86 190.45" style="fill:#f2c43c;stroke:#7c3990;stroke-miterlimit:10"/><polyline points="261.17 219.18 268.99 227 280.04 227 287.86 219.18" style="fill:#f2c43c;stroke:#7c3990;stroke-miterlimit:10"/><polygon points="269.75 218.47 269.75 218.47 268.6 217.32 268.6 207.08 269.75 205.94 269.75 205.94 270.89 207.08 270.89 217.32 269.75 218.47" style="fill:#7d3990;stroke:#7d3990;stroke-miterlimit:10"/><polygon points="278.45 218.47 278.45 218.47 277.3 217.32 277.3 207.08 278.45 205.94 278.45 205.94 279.6 207.08 279.6 217.32 278.45 218.47" style="fill:#7d3990;stroke:#7d3990;stroke-miterlimit:10"/></g></svg>