<svg xmlns="http://www.w3.org/2000/svg" width="87.61" height="74.97" viewBox="0 0 87.61 74.97"><title>Artboard 21</title><g id="ILLO_3" data-name="ILLO 3"><polygon points="0.18 29.72 29.74 0.1 43.4 13.46 57.05 0.1 86.67 29.72 43.39 74.33 0.18 29.72" style="fill:#fff"/><path d="M86.67,29.72,57.05.1,43.4,13.46,29.74.09.18,29.72l.05.05C7.31,29.76,85.33,29.69,86.67,29.72Z" style="fill:#fff"/><polygon points="86.67 29.72 43.4 74.33 43.4 63.35 75.94 29.72 86.67 29.72" style="fill:#cbccce"/><polygon points="86.67 29.72 57.05 0.1 56.99 10.85 75.94 29.72 86.67 29.72" style="fill:#cbccce"/><polygon points="43.4 13.46 29.79 0.2 29.73 10.95 43.4 24.16 43.4 13.46" style="fill:#cbccce"/><polygon points="10.89 29.8 43.4 63.35 75.94 29.8 10.89 29.8" style="fill:#fff"/></g></svg>