<svg xmlns="http://www.w3.org/2000/svg" width="87.61" height="74.97" viewBox="0 0 87.61 74.97"><g data-name="ILLO 3"><path fill="#fff" d="M.18 29.72L29.74.1 43.4 13.46 57.05.1l29.62 29.62-43.28 44.61L.18 29.72z"/><path d="M86.67 29.72L57.05.1 43.4 13.46 29.74.09.18 29.72l.05.05c7.08-.01 85.1-.08 86.44-.05z" fill="#fff"/><path fill="#cbccce" d="M86.67 29.72L43.4 74.33V63.35l32.54-33.63h10.73zm0 0L57.05.1l-.06 10.75 18.95 18.87h10.73zM43.4 13.46L29.79.2l-.06 10.75L43.4 24.16v-10.7z"/><path fill="#fff" d="M10.89 29.8L43.4 63.35 75.94 29.8H10.89z"/></g></svg>