<svg xmlns="http://www.w3.org/2000/svg" width="86.85" height="74.77" viewBox="0 0 86.85 74.77"><g data-name="ILLO 3"><path fill="#dc5267" stroke="#491144" stroke-miterlimit="10" d="M.36 29.52L29.92-.1l13.66 13.37L57.23-.09l29.61 29.61-43.27 44.62L.36 29.52z"/><path d="M86.85 29.52L57.23-.09 43.58 13.27 29.92-.1.36 29.52v.06c7.13-.01 85.14-.09 86.49-.06z" fill="#da1c5c"/><path fill="#ab0d48" d="M86.84 29.52L43.58 74.14V63.16l32.54-33.64h10.72z"/><path fill="#ab0d48" d="M86.84 29.52L57.23-.09l-.06 10.75 18.95 18.86h10.72zM43.58 13.27L29.97 0l-.06 10.75 13.67 13.21V13.27z"/><path fill="#da1c5c" d="M11.07 29.6l32.51 33.56L76.12 29.6H11.07z"/></g></svg>