<svg xmlns="http://www.w3.org/2000/svg" width="87.93" height="75.63" viewBox="0 0 87.93 75.63"><path d="M57.62-.13L44 13.23 30.3-.14 0 30.18l44 45.34 44-45.34zm19.09 29.9L58.06 11.11V1.77L86 29.69zM44 63.11L12.16 30.27 30.37 12 44 25.33 57.55 12 75.8 30.27zm13.1-52L44.46 23.44v-9.3L57.11 1.76zM43.46 23.44L30.87 11.11l-.06-9.35 12.65 12.38zM29.87 11.12L11.25 29.77l-9.31-.07L29.81 1.77zM11.25 30.77L43.46 64v9.54L1.93 30.7zM44.46 64l32.26-33.23 9.28-.08-41.54 42.88z" fill="#491144" data-name="ILLO 3"/></svg>