<svg xmlns="http://www.w3.org/2000/svg" xmlns:xlink="http://www.w3.org/1999/xlink" width="1000.5" height="466.6" viewBox="0 0 1000.5 466.6"><defs><linearGradient id="linear-gradient" x1="91.24" y1="227.33" x2="938.57" y2="227.33" gradientUnits="userSpaceOnUse"><stop offset="0" stop-color="#2484c6"/><stop offset="1" stop-color="#2484c6" stop-opacity="0"/></linearGradient></defs><title>Artboard 17</title><g style="isolation:isolate"><g id="ILLO_3" data-name="ILLO 3"><path d="M790.53,453.16S894.18,406.27,932,318.56c46.29-107.34-170.4,44.2-88.09-155.71C917.38-15.57,834.52,20.75,725.48,123c-62.15,58.31,1.81-211.33-126.81-89.61C465.65,159.31,442.94-79.95,354.28,53c-18.54,27.82-44.41,89.19-49.61,103.06-10.83,28.92-93.31-15.07-136,15.39-30.58,21.82,33,113.37-32.08,146.54-128,65.22,55.62,128.09,55.62,128.09" style="fill:#dff2f4"/><path d="M790.53,453.16S894.18,406.27,932,318.56c46.29-107.34-170.4,44.2-88.09-155.71C917.38-15.57,834.52,20.75,725.48,123c-62.15,58.31,1.81-211.33-126.81-89.61C465.65,159.31,442.94-79.95,354.28,53c-18.54,27.82-44.41,89.19-49.61,103.06-10.83,28.92-93.31-15.07-136,15.39-30.58,21.82,33,113.37-32.08,146.54-128,65.22,55.62,128.09,55.62,128.09" style="mix-blend-mode:hard-light;fill:url(#linear-gradient)"/><circle cx="310.93" cy="362.46" r="90.9" style="fill:#fde9f1"/><g style="opacity:0.26;mix-blend-mode:multiply"><circle cx="310.93" cy="362.46" r="90.9" style="fill:#fde9f1"/></g><polygon points="728.77 238.03 728.77 223.58 718.55 213.36 698.33 213.36 688.11 223.58 688.11 238.03 698.33 248.25 718.55 248.25 728.77 238.03" style="fill:#cbccce;stroke:#7c3990;stroke-miterlimit:10"/><line x1="725.59" y1="220.4" x2="725.59" y2="241.22" style="fill:none;stroke:#7c3990;stroke-miterlimit:10;opacity:0.28"/><line x1="722.36" y1="217.17" x2="722.36" y2="244.45" style="fill:none;stroke:#7c3990;stroke-miterlimit:10;opacity:0.28"/><line x1="719.12" y1="213.94" x2="719.12" y2="247.68" style="fill:none;stroke:#7c3990;stroke-miterlimit:10;opacity:0.28"/><line x1="715.89" y1="213.36" x2="715.89" y2="248.25" style="fill:none;stroke:#7c3990;stroke-miterlimit:10;opacity:0.28"/><line x1="712.66" y1="213.36" x2="712.66" y2="248.25" style="fill:none;stroke:#7c3990;stroke-miterlimit:10;opacity:0.28"/><line x1="709.43" y1="211.12" x2="709.43" y2="253.72" style="fill:none;stroke:#7c3990;stroke-miterlimit:10;opacity:0.28"/><line x1="706.2" y1="211.12" x2="706.2" y2="253.72" style="fill:none;stroke:#7c3990;stroke-miterlimit:10;opacity:0.28"/><line x1="702.97" y1="211.12" x2="702.97" y2="253.72" style="fill:none;stroke:#7c3990;stroke-miterlimit:10;opacity:0.28"/><line x1="699.74" y1="211.12" x2="699.74" y2="253.72" style="fill:none;stroke:#7c3990;stroke-miterlimit:10;opacity:0.28"/><line x1="696.51" y1="211.12" x2="696.51" y2="253.72" style="fill:none;stroke:#7c3990;stroke-miterlimit:10;opacity:0.28"/><polygon points="499.89 89.84 481.18 108.45 481.18 115.04 481.18 140.75 481.18 143.91 499.89 162.52 518.6 143.91 518.6 140.75 518.6 115.04 518.6 108.45 499.89 89.84" style="fill:#da1c5c;stroke:#7c3990;stroke-miterlimit:10"/><polyline points="499.89 89.84 481.18 108.45 481.18 115.04 481.18 140.75 481.18 143.91 499.89 162.52" style="fill:#f6ebf4;stroke:#7d3990;stroke-miterlimit:10"/><line x1="507.7" y1="139.29" x2="518.6" y2="143.92" style="fill:none;stroke:#7d3990;stroke-miterlimit:10"/><line x1="499.89" y1="147.05" x2="499.89" y2="162.52" style="fill:none;stroke:#7d3990;stroke-miterlimit:10"/><line x1="492.08" y1="139.28" x2="481.18" y2="143.92" style="fill:none;stroke:#7d3990;stroke-miterlimit:10"/><line x1="507.7" y1="113.07" x2="518.6" y2="108.45" style="fill:none;stroke:#7d3990;stroke-miterlimit:10"/><line x1="499.89" y1="105.31" x2="499.89" y2="89.84" style="fill:none;stroke:#7d3990;stroke-miterlimit:10"/><line x1="492.08" y1="113.08" x2="481.18" y2="108.45" style="fill:none;stroke:#7d3990;stroke-miterlimit:10"/><polygon points="499.89 105.31 492.08 113.08 492.08 115.04 492.08 138.02 492.08 139.28 499.89 147.05 507.7 139.29 507.7 138.02 507.7 115.04 507.7 113.07 499.89 105.31" style="fill:#e6cbe2;stroke:#7d3990;stroke-miterlimit:10"/><polygon points="517 77.42 483.94 77.42 460.57 100.79 460.57 147.02 483.94 170.39 517 170.39 540.37 147.02 540.37 100.79 517 77.42" style="fill:#d1ecf2;opacity:0.4"/><polygon points="513.22 78.05 460.57 130.79 460.57 116.01 499.89 78.03 513.22 78.05" style="fill:#fff;opacity:0.30000000000000004"/><polygon points="494.39 78.05 460.57 110.76 460.57 107.71 491.31 78.03 494.39 78.05" style="fill:#fff;opacity:0.30000000000000004"/><polygon points="517 77.42 483.94 77.42 460.57 100.79 460.57 147.02 483.94 170.39 517 170.39 540.37 147.02 540.37 100.79 517 77.42" style="fill:none;stroke:#7c3990;stroke-miterlimit:10"/><polygon points="187.8 294.12 201.71 286.44 237.67 351.59 489.46 351.5 489.48 367.39 228.34 367.5 187.8 294.12" style="fill:#e6cbe2;stroke:#7d3990;stroke-miterlimit:10"/><polygon points="209.12 299.94 211.38 304.05 199.34 304.05 232.06 361.87 489.37 361.88 489.37 367.5 475.92 367.5 228.33 367.5 190.97 299.94 209.12 299.94" style="fill:#663695;opacity:0.28"/><polygon points="272.35 238.03 272.35 223.58 282.57 213.36 302.79 213.36 313.01 223.58 313.01 238.03 302.79 248.25 282.57 248.25 272.35 238.03" style="fill:#cbccce;stroke:#7c3990;stroke-miterlimit:10"/><line x1="275.53" y1="220.4" x2="275.53" y2="241.22" style="fill:none;stroke:#7c3990;stroke-miterlimit:10;opacity:0.28"/><line x1="278.76" y1="217.17" x2="278.76" y2="244.45" style="fill:none;stroke:#7c3990;stroke-miterlimit:10;opacity:0.28"/><line x1="281.99" y1="213.94" x2="281.99" y2="247.68" style="fill:none;stroke:#7c3990;stroke-miterlimit:10;opacity:0.28"/><line x1="285.22" y1="213.36" x2="285.22" y2="248.25" style="fill:none;stroke:#7c3990;stroke-miterlimit:10;opacity:0.28"/><line x1="288.45" y1="213.36" x2="288.45" y2="248.25" style="fill:none;stroke:#7c3990;stroke-miterlimit:10;opacity:0.28"/><line x1="291.68" y1="211.12" x2="291.68" y2="253.72" style="fill:none;stroke:#7c3990;stroke-miterlimit:10;opacity:0.28"/><line x1="294.91" y1="211.12" x2="294.91" y2="253.72" style="fill:none;stroke:#7c3990;stroke-miterlimit:10;opacity:0.28"/><line x1="298.14" y1="211.12" x2="298.14" y2="253.72" style="fill:none;stroke:#7c3990;stroke-miterlimit:10;opacity:0.28"/><line x1="301.37" y1="211.12" x2="301.37" y2="253.72" style="fill:none;stroke:#7c3990;stroke-miterlimit:10;opacity:0.28"/><line x1="304.6" y1="211.12" x2="304.6" y2="253.72" style="fill:none;stroke:#7c3990;stroke-miterlimit:10;opacity:0.28"/><line x1="184.27" y1="194.37" x2="184.27" y2="208.82" style="fill:none;stroke:#7c3990;stroke-miterlimit:10"/><rect x="177.01" y="212.76" width="14.51" height="15.8" style="fill:#e6cbe2;stroke:#7c3990;stroke-miterlimit:10"/><rect x="180.64" y="203.67" width="7.26" height="9.09" style="fill:#da1c5c;stroke:#7c3990;stroke-miterlimit:10"/><polygon points="240.28 244.89 217.36 221.85 209.24 221.85 195.47 221.85 191.57 221.85 168.66 244.89 191.57 267.93 195.47 267.93 209.24 267.93 217.36 267.93 240.28 244.89" style="fill:#da1c5c;stroke:#7c3990;stroke-miterlimit:10"/><polyline points="240.28 244.89 217.36 221.85 209.24 221.85 195.47 221.85 191.57 221.85 168.66 244.89" style="fill:#f6ebf4;stroke:#7d3990;stroke-miterlimit:10"/><line x1="197.27" y1="254.51" x2="191.57" y2="267.93" style="fill:none;stroke:#7d3990;stroke-miterlimit:10"/><line x1="187.71" y1="244.89" x2="168.66" y2="244.89" style="fill:none;stroke:#7d3990;stroke-miterlimit:10"/><line x1="197.28" y1="235.27" x2="191.57" y2="221.85" style="fill:none;stroke:#7d3990;stroke-miterlimit:10"/><line x1="211.66" y1="254.51" x2="217.36" y2="267.93" style="fill:none;stroke:#7d3990;stroke-miterlimit:10"/><line x1="221.22" y1="244.89" x2="240.28" y2="244.89" style="fill:none;stroke:#7d3990;stroke-miterlimit:10"/><line x1="211.66" y1="235.27" x2="217.36" y2="221.85" style="fill:none;stroke:#7d3990;stroke-miterlimit:10"/><polygon points="221.22 244.89 211.66 235.27 209.24 235.27 198.84 235.27 197.28 235.27 187.71 244.89 197.27 254.51 198.84 254.51 209.24 254.51 211.66 254.51 221.22 244.89" style="fill:#e6cbe2;stroke:#7d3990;stroke-miterlimit:10"/><line x1="184.81" y1="228.56" x2="30.05" y2="228.56" style="fill:none;stroke:#7c3990;stroke-miterlimit:10"/><line x1="30.05" y1="228.56" x2="184.81" y2="261.12" style="fill:none;stroke:#7c3990;stroke-miterlimit:10"/><line x1="62.81" y1="228.56" x2="71.7" y2="237.45" style="fill:none;stroke:#7c3990;stroke-miterlimit:10"/><line x1="82.74" y1="228.56" x2="96.78" y2="242.6" style="fill:none;stroke:#7c3990;stroke-miterlimit:10"/><line x1="105.55" y1="228.56" x2="125.9" y2="248.91" style="fill:none;stroke:#7c3990;stroke-miterlimit:10"/><line x1="129.56" y1="228.56" x2="156.07" y2="255.07" style="fill:none;stroke:#7c3990;stroke-miterlimit:10"/><line x1="133.84" y1="250.4" x2="155.54" y2="228.7" style="fill:none;stroke:#7c3990;stroke-miterlimit:10"/><line x1="107.68" y1="244.89" x2="124.77" y2="227.8" style="fill:none;stroke:#7c3990;stroke-miterlimit:10"/><line x1="84.56" y1="239.55" x2="95.31" y2="228.8" style="fill:none;stroke:#7c3990;stroke-miterlimit:10"/><line x1="163.66" y1="228.56" x2="174.32" y2="239.21" style="fill:none;stroke:#7c3990;stroke-miterlimit:10"/><line x1="174.2" y1="250.46" x2="166.81" y2="257.85" style="fill:none;stroke:#7c3990;stroke-miterlimit:10"/><line x1="57.36" y1="234.53" x2="63.07" y2="228.82" style="fill:none;stroke:#7c3990;stroke-miterlimit:10"/><polygon points="37.63 216.86 28.7 216.86 22.39 223.17 22.39 232.1 28.7 238.41 37.63 238.41 43.94 232.1 43.94 223.17 37.63 216.86" style="fill:#e6cae2"/><path d="M37.86,239H28.47l-6.64-6.64v-9.39l6.64-6.63h9.39l6.63,6.63v9.39Zm-8.93-1.11H37.4l6-6V223.4l-6-6H28.93l-6,6v8.47Z" style="fill:#7c3990"/><polygon points="28.7 216.86 37.63 216.86 43.94 223.17 43.94 232.1 37.63 238.41 28.7 238.41 30.4 234.3 30.4 220.97 28.7 216.86" style="fill:#b87bb5"/><polygon points="35.92 220.97 30.4 220.97 26.5 224.88 26.5 230.4 30.4 234.3 35.92 234.3 39.83 230.4 39.83 224.88 35.92 220.97" style="fill:#c093c3"/><path d="M36.15,234.85h-6L26,230.63v-6l4.22-4.23h6l4.23,4.23v6Zm-5.52-1.1h5.06l3.58-3.58v-5.06l-3.58-3.58H30.63l-3.58,3.58v5.06Z" style="fill:#7c3990"/><rect x="29" y="216.69" width="1.11" height="4.45" transform="translate(-81.53 27.97) rotate(-22.5)" style="fill:#7c3990"/><rect x="34.55" y="218.36" width="4.45" height="1.11" transform="translate(-179.54 169.09) rotate(-67.49)" style="fill:#7c3990"/><rect x="39.66" y="223.47" width="4.45" height="1.11" transform="translate(-82.57 33.1) rotate(-22.51)" style="fill:#7c3990"/><rect x="41.33" y="229.02" width="1.11" height="4.45" transform="translate(-187.79 181.44) rotate(-67.5)" style="fill:#7c3990"/><rect x="36.22" y="234.13" width="1.11" height="4.45" transform="translate(-87.65 32.07) rotate(-22.5)" style="fill:#7c3990"/><rect x="27.32" y="235.8" width="4.45" height="1.11" transform="translate(-200.11 173.18) rotate(-67.49)" style="fill:#7c3990"/><rect x="22.22" y="230.7" width="4.45" height="1.11" transform="translate(-86.66 26.97) rotate(-22.51)" style="fill:#7c3990"/><rect x="23.89" y="221.8" width="1.11" height="4.45" transform="translate(-191.88 160.87) rotate(-67.5)" style="fill:#7c3990"/><path d="M37.86,239H28.47l-6.64-6.64v-9.39l6.64-6.63h9.39l6.63,6.63v9.39Zm-8.93-1.11H37.4l6-6V223.4l-6-6H28.93l-6,6v8.47Z" style="fill:#7c3990"/><rect x="180.64" y="192.25" width="7.26" height="5.74" style="fill:#da1c5c;stroke:#7c3990;stroke-miterlimit:10"/><line x1="196.63" y1="267.93" x2="196.63" y2="282.53" style="fill:none;stroke:#7c3990;stroke-miterlimit:10"/><line x1="211.78" y1="267.93" x2="211.78" y2="282.53" style="fill:none;stroke:#7c3990;stroke-miterlimit:10"/><polyline points="235.08 276.73 229.34 282.47 179.07 282.47 173.33 276.73" style="fill:none;stroke:#7c3990;stroke-miterlimit:10"/><polyline points="366.14 211.44 324.45 211.44 324.45 214.78 366.14 214.78" style="fill:#fff;stroke:#7d3990;stroke-miterlimit:10"/><line x1="324.45" y1="214.77" x2="343.45" y2="246.23" style="fill:none;stroke:#7c3990;stroke-miterlimit:10"/><line x1="324.45" y1="246.23" x2="343.45" y2="214.77" style="fill:none;stroke:#7c3990;stroke-miterlimit:10"/><line x1="343.35" y1="214.77" x2="362.34" y2="246.23" style="fill:none;stroke:#7c3990;stroke-miterlimit:10"/><line x1="343.35" y1="246.23" x2="362.34" y2="214.77" style="fill:none;stroke:#7c3990;stroke-miterlimit:10"/><polyline points="366.14 246.23 324.45 246.23 324.45 249.97 366.14 249.97" style="fill:#fff;stroke:#7c3990;stroke-miterlimit:10"/><rect x="284.84" y="214.37" width="46.33" height="32.88" transform="translate(538.82 -77.2) rotate(90)" style="fill:#e9b7d5;stroke:#7d3990;stroke-miterlimit:10"/><line x1="324.45" y1="207.64" x2="324.45" y2="253.97" style="fill:#ee2a7b;stroke:#7d3990;stroke-miterlimit:10"/><line x1="343.45" y1="214.77" x2="343.45" y2="246.23" style="fill:#ee2a7b;stroke:#7d3990;stroke-miterlimit:10"/><line x1="297.88" y1="216.24" x2="305.69" y2="216.24" style="fill:#ee2a7b;stroke:#7d3990;stroke-miterlimit:10"/><line x1="297.88" y1="219.16" x2="305.69" y2="219.16" style="fill:#ee2a7b;stroke:#7d3990;stroke-miterlimit:10"/><line x1="297.88" y1="222.08" x2="305.69" y2="222.08" style="fill:#ee2a7b;stroke:#7d3990;stroke-miterlimit:10"/><line x1="297.88" y1="224.99" x2="305.69" y2="224.99" style="fill:#ee2a7b;stroke:#7d3990;stroke-miterlimit:10"/><line x1="297.88" y1="227.91" x2="305.69" y2="227.91" style="fill:#ee2a7b;stroke:#7d3990;stroke-miterlimit:10"/><polyline points="313.02 216.16 311.82 217.35 313.02 218.54" style="fill:#ee2a7b;stroke:#7d3990;stroke-miterlimit:10"/><circle cx="315" cy="217.35" r="2.58" style="fill:#ee2a7b;stroke:#7d3990;stroke-miterlimit:10"/><polyline points="313.87 228.47 315.1 229.63 316.25 228.4" style="fill:#ee2a7b;stroke:#7d3990;stroke-miterlimit:10"/><circle cx="315" cy="226.46" r="2.58" style="fill:#ee2a7b;stroke:#7d3990;stroke-miterlimit:10"/><rect x="303.71" y="243.14" width="4.92" height="4.92" transform="translate(551.76 -60.57) rotate(90)" style="fill:#ee2a7b"/><rect x="298.67" y="243.14" width="4.92" height="4.92" transform="translate(546.72 -55.53) rotate(90)" style="fill:#ee2a7b"/><rect x="303.71" y="238.22" width="4.92" height="4.92" transform="translate(546.84 -65.49) rotate(90)" style="fill:#ee2a7b"/><rect x="313.56" y="243.27" width="4.92" height="4.92" transform="translate(561.74 -70.29) rotate(90)" style="fill:#fff"/><rect x="313.61" y="238.22" width="4.92" height="4.92" transform="translate(556.75 -75.39) rotate(90)" style="fill:#fff"/><line x1="303.61" y1="248.2" x2="303.61" y2="238.22" style="fill:#ee2a7b;stroke:#7d3990;stroke-miterlimit:10"/><line x1="308.66" y1="248.2" x2="308.66" y2="238.22" style="fill:#ee2a7b;stroke:#7d3990;stroke-miterlimit:10"/><line x1="298.69" y1="243.22" x2="318.64" y2="243.22" style="fill:#ee2a7b;stroke:#7d3990;stroke-miterlimit:10"/><line x1="313.71" y1="248.2" x2="313.71" y2="238.22" style="fill:#ee2a7b;stroke:#7d3990;stroke-miterlimit:10"/><rect x="303.73" y="233.18" width="9.98" height="20.07" transform="translate(551.93 -65.51) rotate(90)" style="fill:none;stroke:#7d3990;stroke-miterlimit:10"/><line x1="279.79" y1="245.34" x2="291.57" y2="245.34" style="fill:none;stroke:#7c3990;stroke-miterlimit:10;opacity:0.28"/><line x1="276.38" y1="242.11" x2="291.57" y2="242.11" style="fill:none;stroke:#7c3990;stroke-miterlimit:10;opacity:0.28"/><line x1="273.2" y1="238.88" x2="291.57" y2="238.88" style="fill:none;stroke:#7c3990;stroke-miterlimit:10;opacity:0.28"/><line x1="272.1" y1="235.65" x2="291.57" y2="235.65" style="fill:none;stroke:#7c3990;stroke-miterlimit:10;opacity:0.28"/><line x1="272.1" y1="232.42" x2="291.57" y2="232.42" style="fill:none;stroke:#7c3990;stroke-miterlimit:10;opacity:0.28"/><line x1="272.1" y1="229.19" x2="291.57" y2="229.19" style="fill:none;stroke:#7c3990;stroke-miterlimit:10;opacity:0.28"/><line x1="272.1" y1="225.96" x2="291.57" y2="225.96" style="fill:none;stroke:#7c3990;stroke-miterlimit:10;opacity:0.28"/><line x1="273.2" y1="222.73" x2="291.57" y2="222.73" style="fill:none;stroke:#7c3990;stroke-miterlimit:10;opacity:0.28"/><line x1="276.43" y1="219.5" x2="291.57" y2="219.5" style="fill:none;stroke:#7c3990;stroke-miterlimit:10;opacity:0.28"/><line x1="279.66" y1="216.27" x2="291.57" y2="216.27" style="fill:none;stroke:#7c3990;stroke-miterlimit:10;opacity:0.28"/><g id="VEmhXb"><path d="M259.15,376.45a14.35,14.35,0,0,1,21.13,1.31L287.7,387a14.35,14.35,0,0,0,21.21,1.24l42.48-41.63a9.46,9.46,0,0,1,13.36.12L397.53,380a14.36,14.36,0,0,0,19,1.29L456,350.82a7,7,0,0,1,8.14-.27L518.28,387a14.34,14.34,0,0,0,19.1-2.8l28.4-34.62a8,8,0,0,1,12-.31L602.12,376a14.36,14.36,0,0,0,21.4-.19l34.71-39.55a9.29,9.29,0,0,1,13.94,0l51.71,58.3a14.35,14.35,0,0,0,21,.5h0a14.35,14.35,0,0,1,22.29,2.2l62.37,69.37H158.32Z" style="fill:#fff"/></g><g id="VEmhXb-2" data-name="VEmhXb"><path d="M336.21,398.42l19.35,19.08a13.24,13.24,0,0,0,17.26,1.15l30.66-23.09a3.24,3.24,0,0,1,4.09.17l21.34,18.95a13.24,13.24,0,0,0,17.44.13l36.82-31.76a13.23,13.23,0,0,1,17.47.15l40.15,35.87a13.23,13.23,0,0,0,16.81.69l30.31-22.95a3.6,3.6,0,0,1,4.36,0l40,30.21a6.61,6.61,0,0,0,7.65.22l18.84-12.56a6.61,6.61,0,0,1,7.55.15L703.6,442a6.71,6.71,0,0,0,7.95,0l4.47-3.32a6.71,6.71,0,0,1,8.72.61l27.7,27.35H248.84l78.1-68.46A6.81,6.81,0,0,1,336.21,398.42Z" style="fill:#0fa049"/></g><polygon points="812.71 294.12 798.79 286.44 762.83 351.59 511.95 351.5 511.93 367.39 772.16 367.5 812.71 294.12" style="fill:#e6cbe2;stroke:#7d3990;stroke-miterlimit:10"/><polyline points="754.5 291.11 754.5 299.94 831.84 299.94 831.84 291.11" style="fill:#e6cbe2;stroke:#7d3990;stroke-miterlimit:10"/><rect x="737.73" y="282.38" width="110.89" height="9.08" transform="translate(1586.34 573.84) rotate(180)" style="fill:#da1c5c;stroke:#7c3990;stroke-miterlimit:10"/><line x1="816.85" y1="194.37" x2="816.85" y2="208.82" style="fill:none;stroke:#7c3990;stroke-miterlimit:10"/><rect x="809.59" y="212.76" width="14.51" height="15.8" transform="translate(1633.7 441.32) rotate(-180)" style="fill:#e6cbe2;stroke:#7c3990;stroke-miterlimit:10"/><rect x="813.22" y="203.67" width="7.26" height="9.09" transform="translate(1633.7 416.43) rotate(-180)" style="fill:#da1c5c;stroke:#7c3990;stroke-miterlimit:10"/><polygon points="760.84 244.89 783.76 221.85 791.88 221.85 805.64 221.85 809.54 221.85 832.46 244.89 809.54 267.93 805.64 267.93 791.88 267.93 783.76 267.93 760.84 244.89" style="fill:#da1c5c;stroke:#7c3990;stroke-miterlimit:10"/><polyline points="760.84 244.89 783.76 221.85 791.88 221.85 805.64 221.85 809.54 221.85 832.46 244.89" style="fill:#f6ebf4;stroke:#7d3990;stroke-miterlimit:10"/><line x1="803.85" y1="254.51" x2="809.54" y2="267.93" style="fill:none;stroke:#7d3990;stroke-miterlimit:10"/><line x1="813.41" y1="244.89" x2="832.46" y2="244.89" style="fill:none;stroke:#7d3990;stroke-miterlimit:10"/><line x1="803.84" y1="235.27" x2="809.54" y2="221.85" style="fill:none;stroke:#7d3990;stroke-miterlimit:10"/><line x1="789.46" y1="254.51" x2="783.76" y2="267.93" style="fill:none;stroke:#7d3990;stroke-miterlimit:10"/><line x1="779.9" y1="244.89" x2="760.84" y2="244.89" style="fill:none;stroke:#7d3990;stroke-miterlimit:10"/><line x1="789.46" y1="235.27" x2="783.76" y2="221.85" style="fill:none;stroke:#7d3990;stroke-miterlimit:10"/><polygon points="779.9 244.89 789.46 235.27 791.88 235.27 802.28 235.27 803.84 235.27 813.4 244.89 803.85 254.51 802.28 254.51 791.88 254.51 789.46 254.51 779.9 244.89" style="fill:#e6cbe2;stroke:#7d3990;stroke-miterlimit:10"/><line x1="816.31" y1="228.56" x2="971.07" y2="228.56" style="fill:none;stroke:#7c3990;stroke-miterlimit:10"/><line x1="971.07" y1="228.56" x2="816.31" y2="261.12" style="fill:none;stroke:#7c3990;stroke-miterlimit:10"/><line x1="938.31" y1="228.56" x2="929.42" y2="237.45" style="fill:none;stroke:#7c3990;stroke-miterlimit:10"/><line x1="918.38" y1="228.56" x2="904.34" y2="242.6" style="fill:none;stroke:#7c3990;stroke-miterlimit:10"/><line x1="895.57" y1="228.56" x2="875.22" y2="248.91" style="fill:none;stroke:#7c3990;stroke-miterlimit:10"/><line x1="871.56" y1="228.56" x2="845.05" y2="255.07" style="fill:none;stroke:#7c3990;stroke-miterlimit:10"/><line x1="867.28" y1="250.4" x2="845.58" y2="228.7" style="fill:none;stroke:#7c3990;stroke-miterlimit:10"/><line x1="893.44" y1="244.89" x2="876.35" y2="227.8" style="fill:none;stroke:#7c3990;stroke-miterlimit:10"/><line x1="916.55" y1="239.55" x2="905.81" y2="228.8" style="fill:none;stroke:#7c3990;stroke-miterlimit:10"/><line x1="837.45" y1="228.56" x2="826.8" y2="239.21" style="fill:none;stroke:#7c3990;stroke-miterlimit:10"/><line x1="826.91" y1="250.46" x2="834.3" y2="257.85" style="fill:none;stroke:#7c3990;stroke-miterlimit:10"/><line x1="943.76" y1="234.53" x2="938.05" y2="228.82" style="fill:none;stroke:#7c3990;stroke-miterlimit:10"/><polygon points="963.49 216.86 972.42 216.86 978.73 223.17 978.73 232.1 972.42 238.41 963.49 238.41 957.18 232.1 957.18 223.17 963.49 216.86" style="fill:#e6cae2"/><path d="M956.62,232.33v-9.39l6.64-6.63h9.39l6.64,6.63v9.39L972.65,239h-9.39Zm21.56-.46V223.4l-6-6h-8.47l-6,6v8.47l6,6h8.47Z" style="fill:#7c3990"/><polygon points="972.42 216.86 963.49 216.86 957.18 223.17 957.18 232.1 963.49 238.41 972.42 238.41 970.72 234.3 970.72 220.97 972.42 216.86" style="fill:#b87bb5"/><polygon points="965.2 220.97 970.72 220.97 974.62 224.88 974.62 230.4 970.72 234.3 965.2 234.3 961.29 230.4 961.29 224.88 965.2 220.97" style="fill:#c093c3"/><path d="M960.74,230.63v-6l4.23-4.23h6l4.23,4.23v6l-4.23,4.22h-6Zm13.32-.46v-5.06l-3.57-3.58h-5.06l-3.58,3.58v5.06l3.58,3.58h5.06Z" style="fill:#7c3990"/><rect x="969.34" y="218.36" width="4.45" height="1.11" transform="translate(397.5 1032.74) rotate(-67.5)" style="fill:#7c3990"/><rect x="963.79" y="216.69" width="1.11" height="4.45" transform="translate(-10.35 385.84) rotate(-22.51)" style="fill:#7c3990"/><rect x="958.68" y="221.8" width="1.11" height="4.45" transform="translate(385.07 1024.43) rotate(-67.49)" style="fill:#7c3990"/><rect x="957.01" y="230.7" width="4.45" height="1.11" transform="translate(-15.47 384.71) rotate(-22.5)" style="fill:#7c3990"/><rect x="962.12" y="235.8" width="4.45" height="1.11" transform="translate(376.92 1036.83) rotate(-67.5)" style="fill:#7c3990"/><rect x="971.01" y="234.13" width="1.11" height="4.45" transform="translate(-16.47 389.93) rotate(-22.51)" style="fill:#7c3990"/><rect x="976.12" y="229.02" width="1.11" height="4.45" transform="translate(389.16 1045) rotate(-67.49)" style="fill:#7c3990"/><rect x="974.45" y="223.47" width="4.45" height="1.11" transform="translate(-11.38 390.83) rotate(-22.5)" style="fill:#7c3990"/><path d="M956.62,232.33v-9.39l6.64-6.63h9.39l6.64,6.63v9.39L972.65,239h-9.39Zm21.56-.46V223.4l-6-6h-8.47l-6,6v8.47l6,6h8.47Z" style="fill:#7c3990"/><rect x="813.22" y="192.25" width="7.26" height="5.74" transform="translate(1633.7 390.24) rotate(-180)" style="fill:#da1c5c;stroke:#7c3990;stroke-miterlimit:10"/><line x1="804.49" y1="267.93" x2="804.49" y2="282.53" style="fill:none;stroke:#7c3990;stroke-miterlimit:10"/><line x1="789.34" y1="267.93" x2="789.34" y2="282.53" style="fill:none;stroke:#7c3990;stroke-miterlimit:10"/><polyline points="766.04 276.73 771.78 282.47 822.05 282.47 827.79 276.73" style="fill:none;stroke:#7c3990;stroke-miterlimit:10"/><polyline points="451.85 322.7 461.2 338.9 537.07 338.9 546.42 322.7" style="fill:#cf82aa;stroke:#663695;stroke-miterlimit:10"/><line x1="598.67" y1="323.32" x2="567.45" y2="323.32" style="fill:#ee2a7b;stroke:#a02373;stroke-miterlimit:10"/><polyline points="634.98 211.44 676.67 211.44 676.67 214.78 634.98 214.78" style="fill:#fff;stroke:#7d3990;stroke-miterlimit:10"/><line x1="676.67" y1="214.77" x2="657.67" y2="246.23" style="fill:none;stroke:#7c3990;stroke-miterlimit:10"/><line x1="676.67" y1="246.23" x2="657.67" y2="214.77" style="fill:none;stroke:#7c3990;stroke-miterlimit:10"/><line x1="657.77" y1="214.77" x2="638.78" y2="246.23" style="fill:none;stroke:#7c3990;stroke-miterlimit:10"/><line x1="657.77" y1="246.23" x2="638.78" y2="214.77" style="fill:none;stroke:#7c3990;stroke-miterlimit:10"/><polyline points="634.98 246.23 676.67 246.23 676.67 249.97 634.98 249.97" style="fill:#fff;stroke:#7c3990;stroke-miterlimit:10"/><rect x="669.94" y="214.37" width="46.33" height="32.88" transform="translate(923.91 -462.3) rotate(90)" style="fill:#e9b7d5;stroke:#7d3990;stroke-miterlimit:10"/><line x1="676.67" y1="207.64" x2="676.67" y2="253.97" style="fill:#ee2a7b;stroke:#7d3990;stroke-miterlimit:10"/><line x1="657.67" y1="214.77" x2="657.67" y2="246.23" style="fill:#ee2a7b;stroke:#7d3990;stroke-miterlimit:10"/><line x1="703.24" y1="216.24" x2="695.42" y2="216.24" style="fill:#ee2a7b;stroke:#7d3990;stroke-miterlimit:10"/><line x1="703.24" y1="219.16" x2="695.42" y2="219.16" style="fill:#ee2a7b;stroke:#7d3990;stroke-miterlimit:10"/><line x1="703.24" y1="222.08" x2="695.42" y2="222.08" style="fill:#ee2a7b;stroke:#7d3990;stroke-miterlimit:10"/><line x1="703.24" y1="224.99" x2="695.42" y2="224.99" style="fill:#ee2a7b;stroke:#7d3990;stroke-miterlimit:10"/><line x1="703.24" y1="227.91" x2="695.42" y2="227.91" style="fill:#ee2a7b;stroke:#7d3990;stroke-miterlimit:10"/><polyline points="688.1 216.16 689.29 217.35 688.1 218.54" style="fill:#ee2a7b;stroke:#7d3990;stroke-miterlimit:10"/><circle cx="686.12" cy="217.35" r="2.58" style="fill:#ee2a7b;stroke:#7d3990;stroke-miterlimit:10"/><polyline points="687.25 228.47 686.02 229.63 684.87 228.4" style="fill:#ee2a7b;stroke:#7d3990;stroke-miterlimit:10"/><circle cx="686.12" cy="226.46" r="2.58" style="fill:#ee2a7b;stroke:#7d3990;stroke-miterlimit:10"/><rect x="692.5" y="243.14" width="4.92" height="4.92" transform="translate(940.55 -449.36) rotate(90)" style="fill:#ee2a7b"/><rect x="692.5" y="238.22" width="4.92" height="4.92" transform="translate(935.63 -454.28) rotate(90)" style="fill:#fce9f1"/><rect x="682.59" y="238.22" width="4.92" height="4.92" transform="translate(925.73 -444.37) rotate(90)" style="fill:#ee2a7b"/><line x1="697.51" y1="248.2" x2="697.51" y2="238.22" style="fill:#ee2a7b;stroke:#7d3990;stroke-miterlimit:10"/><line x1="692.46" y1="248.2" x2="692.46" y2="238.22" style="fill:#ee2a7b;stroke:#7d3990;stroke-miterlimit:10"/><line x1="702.43" y1="243.22" x2="682.48" y2="243.22" style="fill:#ee2a7b;stroke:#7d3990;stroke-miterlimit:10"/><line x1="687.41" y1="248.2" x2="687.41" y2="238.22" style="fill:#ee2a7b;stroke:#7d3990;stroke-miterlimit:10"/><rect x="687.4" y="233.18" width="9.98" height="20.07" transform="translate(935.6 -449.18) rotate(90)" style="fill:none;stroke:#7d3990;stroke-miterlimit:10"/><polyline points="567.45 323.32 658.14 323.32 658.14 123.91 343.14 123.91 343.14 323.32 378.63 323.32" style="fill:#544b9f;stroke:#a02373;stroke-miterlimit:10"/><polygon points="567.45 323.32 658.14 323.32 658.14 123.91 343.14 123.91 343.14 323.32 378.63 323.32 567.45 323.32" style="fill:#cf82aa;stroke:#663695;stroke-miterlimit:10"/><polygon points="350.13 316.43 343.14 323.32 343.14 123.91 657.59 123.91 651.14 130.79 350.13 130.79 350.13 316.43" style="fill:#ebb8d5"/><rect x="350.14" y="130.79" width="301" height="185.64" style="fill:#544b9f;stroke:#663795;stroke-miterlimit:10"/><polygon points="451.85 323.62 461.2 338.9 499.14 338.9 499.14 323.32 451.85 323.62" style="fill:#ebb8d5;stroke:#663695;stroke-miterlimit:10"/><line x1="598.67" y1="323.32" x2="567.45" y2="323.32" style="fill:none;stroke:#a02373;stroke-miterlimit:10"/><rect x="488.52" y="338.9" width="23.45" height="95.87" style="fill:#ebb8d5;stroke:#663695;stroke-miterlimit:10"/><polygon points="576.43 441.65 420.8 441.65 423.62 434.76 573.85 434.76 576.43 441.65" style="fill:#ebb8d5;stroke:#7d3990;stroke-miterlimit:10"/><polyline points="586.55 466.6 576.43 441.59 420.8 441.59 410.54 466.28" style="fill:#da1c5c;stroke:#7c3990;stroke-miterlimit:10"/><rect x="488.52" y="338.9" width="23.45" height="7.97" style="fill:#663695;opacity:0.28"/><polygon points="791.44 299.94 789.17 304.05 801.21 304.05 768.44 361.87 517.41 361.87 512.04 351.51 512.04 367.5 516.41 367.5 772.18 367.5 809.58 299.94 791.44 299.94" style="fill:#663695;opacity:0.28"/><polyline points="246 291.11 246 299.94 168.66 299.94 168.66 291.11" style="fill:#e6cbe2;stroke:#7d3990;stroke-miterlimit:10"/><rect x="151.89" y="282.38" width="110.89" height="9.08" style="fill:#da1c5c;stroke:#7c3990;stroke-miterlimit:10"/><path d="M754.19,54c5.67,2.46,7.36,11.15,3.78,19.41s-14.23,18.27-19.9,15.82-5.91-16.39-3.34-24.79C738,53.75,748.53,51.57,754.19,54Z" style="fill:#dff2f4"/><path d="M51.08,313a15.28,15.28,0,1,1,14-27.16c7.5,3.87,14.49,19.35,10.62,26.85S58.58,316.87,51.08,313Z" style="fill:#dff2f4"/><path d="M912.19,318.57a43.2,43.2,0,0,0-39.87,26.55,4.53,4.53,0,0,1-7.13,1.79,19.7,19.7,0,0,0-31.74,8.86,4.57,4.57,0,0,0,4.35,6H950.53a4.58,4.58,0,0,0,4.55-5.1A43.2,43.2,0,0,0,912.19,318.57Z" style="fill:#fff"/><path d="M690.43,159.51a7.71,7.71,0,0,1,7.2,5,2,2,0,0,1-1.92,2.77H685.14a2.05,2.05,0,0,1-1.92-2.77A7.71,7.71,0,0,1,690.43,159.51Z" style="fill:#fff"/><path d="M631.15,71.92a10.64,10.64,0,0,1,9.92,6.81,2.83,2.83,0,0,1-2.65,3.82H623.87a2.82,2.82,0,0,1-2.64-3.82A10.62,10.62,0,0,1,631.15,71.92Z" style="fill:#fff"/><path d="M707.5,323.54a7.27,7.27,0,0,1,6.78,4.65,1.93,1.93,0,0,1-1.81,2.61h-9.94a1.93,1.93,0,0,1-1.81-2.61A7.27,7.27,0,0,1,707.5,323.54Z" style="fill:#fff"/><path d="M809.13,351.9a9.86,9.86,0,0,0-9.2,6.31,2.62,2.62,0,0,0,2.45,3.54h13.5a2.62,2.62,0,0,0,2.46-3.54A9.88,9.88,0,0,0,809.13,351.9Z" style="fill:#fff"/><path d="M154.56,363.91a35.18,35.18,0,0,0-25,10.35,11.05,11.05,0,0,1-17.06-1.72,48.31,48.31,0,0,0-40.39-21.76c-17.32,0-32.69,10.91-42.69,24.23C19.71,388,20,399.24,27,399.24H176.17c8.07,0,13.64-8.48,10-15.71A35.32,35.32,0,0,0,154.56,363.91Z" style="fill:#fff"/><path d="M803.31,146.16A19.61,19.61,0,0,0,784.07,162a3.17,3.17,0,0,0,3.14,3.73h32.2a3.16,3.16,0,0,0,3.13-3.73A19.59,19.59,0,0,0,803.31,146.16Z" style="fill:#fff"/><path d="M742.7,272.93a14.11,14.11,0,0,0-10,4.11,4.47,4.47,0,0,1-6.89-.69,19.44,19.44,0,0,0-33.2,1.32,4.31,4.31,0,0,1-5.85,1.58,8.88,8.88,0,0,0-11.8,3.38,3,3,0,0,0,2.6,4.47h75.53a3.27,3.27,0,0,0,3.12-4.23A14.18,14.18,0,0,0,742.7,272.93Z" style="fill:#fff"/><path d="M943.25,179c1.93,5.93-2.74,19.7-10.42,22.2s-15.48-7.22-17.41-13.15-5.52-26.74,2.16-29.24S941.33,173,943.25,179Z" style="fill:#dff2f4"/><line x1="499.14" y1="32.79" x2="499.14" y2="70.36" style="fill:none;stroke:#fff;stroke-miterlimit:10"/><line x1="513.04" y1="41.79" x2="507.93" y2="64.16" style="fill:none;stroke:#fff;stroke-miterlimit:10"/><line x1="528.15" y1="42.96" x2="513.04" y2="70.85" style="fill:none;stroke:#fff;stroke-miterlimit:10"/><line x1="485.23" y1="41.79" x2="490.34" y2="64.16" style="fill:none;stroke:#fff;stroke-miterlimit:10"/><line x1="470.12" y1="42.96" x2="485.23" y2="70.85" style="fill:none;stroke:#fff;stroke-miterlimit:10"/><path d="M180.86,72.88c2.93-8.67,21.33-14.88,30-11.94s16.64,15.64,13.7,24.32-15.67,10-24.34,7.09S177.92,81.56,180.86,72.88Z" style="fill:#dff2f4"/><line x1="350.14" y1="130.79" x2="343.19" y2="123.85" style="fill:#544b9f;stroke:#663795;stroke-miterlimit:10"/><line x1="651.14" y1="130.79" x2="658.14" y2="123.91" style="fill:#544b9f;stroke:#663795;stroke-miterlimit:10"/><line x1="651.14" y1="316.43" x2="658.14" y2="323.32" style="fill:#544b9f;stroke:#663795;stroke-miterlimit:10"/><line x1="350.14" y1="316.43" x2="343.14" y2="323.32" style="fill:#544b9f;stroke:#663795;stroke-miterlimit:10"/><polygon points="567.45 323.32 658.14 323.32 658.14 123.91 343.14 123.91 343.14 323.32 378.63 323.32 567.45 323.32" style="fill:none;stroke:#663695;stroke-miterlimit:10"/><path d="M504.39,415l.67-2.17-2.13.8a5.07,5.07,0,1,0,1.46,1.37Z" style="fill:#cf82aa;stroke:#663695;stroke-miterlimit:10"/><circle cx="500.25" cy="417.89" r="2.93" style="fill:#da1c5c;stroke:#7c3990;stroke-miterlimit:10"/><path d="M497.51,355.27l-2.14-.77.7,2.17a5.06,5.06,0,1,0,1.44-1.4Z" style="fill:#cf82aa;stroke:#663695;stroke-miterlimit:10"/><circle cx="500.25" cy="359.54" r="2.93" style="fill:#da1c5c;stroke:#7c3990;stroke-miterlimit:10"/><line x1="495.24" y1="406.64" x2="495.24" y2="395.57" style="fill:#da1c5c;stroke:#7c3990;stroke-miterlimit:10"/><line x1="497.75" y1="406.64" x2="497.75" y2="395.57" style="fill:#da1c5c;stroke:#7c3990;stroke-miterlimit:10"/><line x1="500.25" y1="406.64" x2="500.25" y2="395.57" style="fill:#da1c5c;stroke:#7c3990;stroke-miterlimit:10"/><line x1="502.76" y1="406.64" x2="502.76" y2="395.57" style="fill:#da1c5c;stroke:#7c3990;stroke-miterlimit:10"/><line x1="505.26" y1="406.64" x2="505.26" y2="395.57" style="fill:#da1c5c;stroke:#7c3990;stroke-miterlimit:10"/><rect x="495.18" y="370.88" width="5.08" height="4.3" style="fill:#e6cbe2"/><rect x="495.23" y="385.42" width="5.08" height="4.3" style="fill:#e6cbe2"/><rect x="500.37" y="380.61" width="5.08" height="4.3" style="fill:#da1c5c"/><rect x="495.39" y="375.64" width="5.08" height="4.3" style="fill:#da1c5c"/><rect x="495.18" y="370.88" width="10.15" height="18.9" style="fill:none;stroke:#7c3990;stroke-miterlimit:10"/><line x1="495.18" y1="375.38" x2="505.33" y2="375.38" style="fill:none;stroke:#7c3990;stroke-miterlimit:10"/><line x1="495.18" y1="380.33" x2="505.33" y2="380.33" style="fill:none;stroke:#7c3990;stroke-miterlimit:10"/><line x1="495.18" y1="385.29" x2="505.33" y2="385.29" style="fill:none;stroke:#7c3990;stroke-miterlimit:10"/><line x1="500.25" y1="389.78" x2="500.25" y2="370.88" style="fill:none;stroke:#7c3990;stroke-miterlimit:10"/><polygon points="361.13 221.87 390.69 192.25 404.35 205.62 418 192.26 447.62 221.87 404.35 266.49 361.13 221.87" style="fill:#dc5267;stroke:#491144;stroke-miterlimit:10"/><polygon points="447.62 221.87 404.35 266.49 404.35 255.51 436.89 221.87 447.62 221.87" style="fill:#ab0d48"/><polygon points="447.62 221.87 418 192.26 417.94 203.01 436.89 221.87 447.62 221.87" style="fill:#ab0d48"/><polygon points="404.35 205.62 390.74 192.35 390.68 203.1 404.35 216.31 404.35 205.62" style="fill:#ab0d48"/><polygon points="417.94 203.01 404.35 216.31 390.75 203.01 371.85 221.95 404.35 255.51 436.89 221.95 417.94 203.01" style="fill:#da1c5c;stroke:#491144;stroke-miterlimit:10"/><line x1="417.94" y1="203.01" x2="418" y2="192.26" style="fill:#da1c5c;stroke:#491144;stroke-miterlimit:10"/><line x1="404.35" y1="205.62" x2="404.35" y2="216.31" style="fill:#da1c5c;stroke:#491144;stroke-miterlimit:10"/><line x1="390.69" y1="192.25" x2="390.75" y2="203.01" style="fill:#da1c5c;stroke:#491144;stroke-miterlimit:10"/><line x1="404.35" y1="255.51" x2="404.34" y2="266.49" style="fill:#da1c5c;stroke:#491144;stroke-miterlimit:10"/><line x1="436.89" y1="221.95" x2="447.62" y2="221.87" style="fill:#da1c5c;stroke:#491144;stroke-miterlimit:10"/><line x1="361.13" y1="221.87" x2="371.85" y2="221.95" style="fill:#da1c5c;stroke:#491144;stroke-miterlimit:10"/><polygon points="361.13 221.87 390.69 192.25 404.35 205.62 418 192.26 447.62 221.87 404.35 266.49 361.13 221.87" style="fill:none;stroke:#491144;stroke-miterlimit:10"/><polygon points="458.44 221.87 488 192.25 501.66 205.62 515.31 192.26 544.93 221.87 501.66 266.49 458.44 221.87" style="fill:#dc5267;stroke:#491144;stroke-miterlimit:10"/><polygon points="544.93 221.87 501.66 266.49 501.66 255.51 534.2 221.87 544.93 221.87" style="fill:#ab0d48"/><polygon points="544.93 221.87 515.31 192.26 515.26 203.01 534.2 221.87 544.93 221.87" style="fill:#ab0d48"/><polygon points="501.66 205.62 488.05 192.35 487.99 203.1 501.66 216.31 501.66 205.62" style="fill:#ab0d48"/><polygon points="515.26 203.01 501.66 216.31 488.06 203.01 469.16 221.95 501.66 255.51 534.2 221.95 515.26 203.01" style="fill:#da1c5c;stroke:#491144;stroke-miterlimit:10"/><line x1="515.26" y1="203.01" x2="515.31" y2="192.26" style="fill:#da1c5c;stroke:#491144;stroke-miterlimit:10"/><line x1="501.66" y1="205.62" x2="501.66" y2="216.31" style="fill:#da1c5c;stroke:#491144;stroke-miterlimit:10"/><line x1="488" y1="192.25" x2="488.06" y2="203.01" style="fill:#da1c5c;stroke:#491144;stroke-miterlimit:10"/><line x1="501.66" y1="255.51" x2="501.66" y2="266.49" style="fill:#da1c5c;stroke:#491144;stroke-miterlimit:10"/><line x1="534.2" y1="221.95" x2="544.93" y2="221.87" style="fill:#da1c5c;stroke:#491144;stroke-miterlimit:10"/><line x1="458.44" y1="221.87" x2="469.16" y2="221.95" style="fill:#da1c5c;stroke:#491144;stroke-miterlimit:10"/><polygon points="458.44 221.87 488 192.25 501.66 205.62 515.31 192.26 544.93 221.87 501.66 266.49 458.44 221.87" style="fill:none;stroke:#491144;stroke-miterlimit:10"/><polygon points="397.74 316.8 579.06 131.91 556.73 131.82 378.23 316.8 397.74 316.8" style="fill:#fff;opacity:0.06"/><polyline points="648.57 466.6 648.57 341.97 661.34 329.26 674.12 341.97 674.12 466.6" style="fill:#ee2a7b;stroke:#a02373;stroke-miterlimit:10"/><polyline points="648.57 466.6 648.57 341.97 661.34 329.26 661.36 341.97 661.36 466.6" style="fill:#fce9f1;stroke:#a02373;stroke-linejoin:bevel"/><polyline points="656.01 466.6 656.01 345.13 661.34 339.83 666.68 345.13 666.68 466.6" style="fill:#e9b7d5;stroke:#a02373;stroke-miterlimit:10"/><line x1="666.68" y1="345.13" x2="674.12" y2="341.97" style="fill:none;stroke:#a02373;stroke-miterlimit:10"/><line x1="661.34" y1="339.83" x2="661.34" y2="329.26" style="fill:none;stroke:#a02373;stroke-miterlimit:10"/><line x1="656.01" y1="345.13" x2="648.57" y2="341.97" style="fill:none;stroke:#a02373;stroke-miterlimit:10"/><path d="M662.13,458.29h-1.57v-4.7h1.57Zm0-9.4h-1.57v-4.7h1.57Zm0-9.4h-1.57v-4.71h1.57Zm0-9.41h-1.57v-4.7h1.57Zm0-9.4h-1.57V416h1.57Zm0-9.4h-1.57v-4.7h1.57Zm0-9.41h-1.57v-4.7h1.57Zm0-9.4h-1.57v-4.7h1.57Zm0-9.4h-1.57v-4.7h1.57Zm0-9.4h-1.57V369h1.57Zm0-9.41h-1.57v-4.7h1.57Z" style="fill:#a02373"/><polyline points="648.59 466.6 648.59 342.08 661.36 329.37 674.14 342.08 674.14 466.6" style="fill:#a02373;stroke:#a02373;stroke-miterlimit:10;opacity:0.4"/><polyline points="593.96 466.13 593.96 383.77 611.46 366.36 628.96 383.77 628.96 443.21 635.95 450.18 635.95 466.6" style="fill:#ee2a7b;stroke:#a02373;stroke-miterlimit:10"/><polyline points="593.96 466.6 593.96 383.77 611.46 366.36 611.49 383.77 611.49 466.13" style="fill:#fce9f1;stroke:#a02373;stroke-linejoin:bevel"/><polyline points="604.15 466.6 604.15 388.11 611.46 380.84 618.77 388.1 618.77 466.6" style="fill:#e9b7d5;stroke:#a02373;stroke-miterlimit:10"/><line x1="618.77" y1="388.1" x2="628.96" y2="383.77" style="fill:none;stroke:#a02373;stroke-miterlimit:10"/><line x1="611.46" y1="380.84" x2="611.46" y2="366.36" style="fill:none;stroke:#a02373;stroke-miterlimit:10"/><line x1="604.15" y1="388.11" x2="593.96" y2="383.77" style="fill:none;stroke:#a02373;stroke-miterlimit:10"/><path d="M609.83,432.36h-1.57v-4.7h1.57Zm0-9.4h-1.57v-4.7h1.57Zm0-9.41h-1.57v-4.7h1.57Zm0-9.4h-1.57v-4.7h1.57Z" style="fill:#a02373"/><path d="M614.65,460.57h-1.56v-4.7h1.56Zm0-9.4h-1.56v-4.7h1.56Zm0-9.41h-1.56v-4.7h1.56Zm0-9.4h-1.56v-4.7h1.56Zm0-9.4h-1.56v-4.7h1.56Zm0-9.41h-1.56v-4.7h1.56Zm0-9.4h-1.56v-4.7h1.56Z" style="fill:#a02373"/><polyline points="280.68 466.6 280.68 351.58 294.62 337.72 308.56 351.58 308.56 417.74 319.21 428.36 319.21 466.53" style="fill:#ee2a7b;stroke:#a02373;stroke-miterlimit:10"/><polyline points="280.68 466.6 280.68 351.58 294.62 337.72 294.64 351.58 294.64 466.6" style="fill:#fce9f1;stroke:#a02373;stroke-linejoin:bevel"/><polyline points="288.8 466.6 288.8 355.03 294.62 349.25 300.44 355.03 300.44 466.6" style="fill:#e9b7d5;stroke:#a02373;stroke-miterlimit:10"/><line x1="300.44" y1="355.03" x2="308.56" y2="351.58" style="fill:none;stroke:#a02373;stroke-miterlimit:10"/><line x1="294.62" y1="349.25" x2="294.62" y2="337.72" style="fill:none;stroke:#a02373;stroke-miterlimit:10"/><line x1="288.8" y1="355.03" x2="280.68" y2="351.58" style="fill:none;stroke:#a02373;stroke-miterlimit:10"/><path d="M295.5,461.94h-1.57v-4.7h1.57Zm0-9.4h-1.57v-4.7h1.57Zm0-9.4h-1.57v-4.7h1.57Zm0-9.41h-1.57V429h1.57Zm0-9.4h-1.57v-4.7h1.57Zm0-9.4h-1.57v-4.7h1.57Zm0-9.4h-1.57v-4.71h1.57Zm0-9.41h-1.57v-4.7h1.57Zm0-9.4h-1.57V382h1.57Zm0-9.4h-1.57v-4.7h1.57Zm0-9.41h-1.57v-4.7h1.57Z" style="fill:#a02373"/><polyline points="682.99 466.6 682.99 452.11 695.76 439.4 708.54 452.11 708.54 466.6" style="fill:#ee2a7b;stroke:#a02373;stroke-miterlimit:10"/><polyline points="682.99 466.6 682.99 452.11 695.76 439.4 695.78 452.11 695.78 466.6" style="fill:#fce9f1;stroke:#a02373;stroke-linejoin:bevel"/><polyline points="690.43 466.6 690.43 455.27 695.76 449.96 701.1 455.26 701.1 466.6" style="fill:#e9b7d5;stroke:#a02373;stroke-miterlimit:10"/><line x1="701.1" y1="455.26" x2="708.54" y2="452.1" style="fill:none;stroke:#a02373;stroke-miterlimit:10"/><line x1="695.76" y1="449.96" x2="695.76" y2="439.4" style="fill:none;stroke:#a02373;stroke-miterlimit:10"/><line x1="690.43" y1="455.27" x2="682.99" y2="452.1" style="fill:none;stroke:#a02373;stroke-miterlimit:10"/><rect x="694.98" y="456.56" width="1.57" height="4.7" style="fill:#a02373"/><polyline points="229.41 466.46 229.41 383 242.58 369.89 255.75 383 255.75 466.46" style="fill:#ee2a7b;stroke:#a02373;stroke-miterlimit:10"/><polyline points="227.88 466.46 227.88 382.53 241.82 368.67 255.75 382.53 255.75 466.46" style="fill:#ee2a7b;stroke:#a02373;stroke-miterlimit:10"/><polyline points="241.84 466.46 241.84 382.53 241.82 368.67 227.88 382.53 227.88 423.76 221.66 429.97 221.66 466.6" style="fill:#fce9f1;stroke:#a02373;stroke-linejoin:bevel"/><polyline points="236 466.46 236 385.98 241.82 380.2 247.64 385.98 247.64 466.46" style="fill:#e9b7d5;stroke:#a02373;stroke-miterlimit:10"/><line x1="247.64" y1="385.98" x2="255.75" y2="382.53" style="fill:none;stroke:#a02373;stroke-miterlimit:10"/><line x1="241.82" y1="380.2" x2="241.82" y2="368.67" style="fill:none;stroke:#a02373;stroke-miterlimit:10"/><line x1="236" y1="385.98" x2="227.88" y2="382.53" style="fill:none;stroke:#a02373;stroke-miterlimit:10"/><path d="M242.7,461.64h-1.57V457.5h1.57Zm0-8.85h-1.57v-4.7h1.57Zm0-9.4h-1.57v-4.7h1.57Zm0-9.4h-1.57v-4.7h1.57Zm0-9.4h-1.57v-4.71h1.57Zm0-9.41h-1.57v-4.7h1.57Zm0-9.4h-1.57v-4.7h1.57Zm0-9.4h-1.57v-4.7h1.57Z" style="fill:#a02373"/><path d="M229.43,461.64h-1.57V457.5h1.57Zm0-8.85h-1.57v-4.7h1.57Zm0-9.4h-1.57v-4.7h1.57Zm0-9.4h-1.57v-4.7h1.57Z" style="fill:#a02373"/><polyline points="221.88 466.46 221.88 429.97 227.88 423.76 227.88 382.53 241.82 368.67 255.75 382.53 255.75 466.46" style="fill:#a02373;opacity:0.4"/><polyline points="353.75 466.6 353.75 386.41 370.3 369.96 386.83 386.41 386.83 466.6" style="fill:#ee2a7b;stroke:#a02373;stroke-miterlimit:10"/><polyline points="351.83 466.6 351.83 385.83 369.33 368.42 386.83 385.83 386.83 466.6" style="fill:#ee2a7b;stroke:#a02373;stroke-miterlimit:10"/><polyline points="346.14 466.6 346.14 451.89 351.83 446.15 351.83 385.83 369.33 368.42 369.36 385.83 369.36 466.6" style="fill:#fce9f1;stroke:#a02373;stroke-linejoin:bevel"/><polyline points="362.02 466.6 362.02 390.16 369.33 382.89 376.64 390.16 376.64 466.6" style="fill:#e9b7d5;stroke:#a02373;stroke-miterlimit:10"/><line x1="376.64" y1="390.16" x2="386.83" y2="385.83" style="fill:none;stroke:#a02373;stroke-miterlimit:10"/><line x1="369.33" y1="382.89" x2="369.33" y2="368.42" style="fill:none;stroke:#a02373;stroke-miterlimit:10"/><line x1="362.02" y1="390.16" x2="351.83" y2="385.83" style="fill:none;stroke:#a02373;stroke-miterlimit:10"/><path d="M372.53,461.07H371v-4.7h1.57Zm0-9.4H371V447h1.57Zm0-9.4H371v-4.7h1.57Zm0-9.41H371v-4.7h1.57Zm0-9.4H371v-4.7h1.57Zm0-9.4H371v-4.7h1.57Zm0-9.4H371V400h1.57Z" style="fill:#a02373"/><path d="M367.7,461.07h-1.56v-4.7h1.56Zm0-9.4h-1.56V447h1.56Zm0-9.4h-1.56v-4.7h1.56Zm0-9.41h-1.56v-4.7h1.56Zm0-9.4h-1.56v-4.7h1.56Zm0-9.4h-1.56v-4.7h1.56Zm0-9.4h-1.56V400h1.56Z" style="fill:#a02373"/><polyline points="723.39 466.6 723.39 389.2 736.84 375.82 750.29 389.2 750.29 466.6" style="fill:#ee2a7b;stroke:#a02373;stroke-miterlimit:10"/><polyline points="721.82 466.6 721.82 388.73 736.06 374.57 750.29 388.73 750.29 466.6" style="fill:#ee2a7b;stroke:#a02373;stroke-miterlimit:10"/><polyline points="736.08 466.6 736.08 388.73 736.06 374.57 721.82 388.73 721.82 430.83 715.48 437.18 715.48 466.6" style="fill:#fce9f1;stroke:#a02373;stroke-linejoin:bevel"/><polyline points="730.11 466.6 730.11 392.25 736.06 386.34 742 392.25 742 466.6" style="fill:#e9b7d5;stroke:#a02373;stroke-miterlimit:10"/><line x1="742" y1="392.25" x2="750.29" y2="388.73" style="fill:none;stroke:#a02373;stroke-miterlimit:10"/><line x1="736.06" y1="386.34" x2="736.06" y2="374.57" style="fill:none;stroke:#a02373;stroke-miterlimit:10"/><line x1="730.11" y1="392.25" x2="721.82" y2="388.73" style="fill:none;stroke:#a02373;stroke-miterlimit:10"/><path d="M737,460.49h-1.6v-4.8H737Zm0-9.6h-1.6v-4.81H737Zm0-9.61h-1.6v-4.8H737Zm0-9.6h-1.6v-4.8H737Zm0-9.61h-1.6v-4.8H737Zm0-9.6h-1.6v-4.8H737Zm0-9.6h-1.6v-4.8H737Z" style="fill:#a02373"/><path d="M723.4,460.49h-1.6v-4.8h1.6Zm0-9.6h-1.6v-4.81h1.6Zm0-9.61h-1.6v-4.8h1.6Z" style="fill:#a02373"/><polyline points="715.69 466.6 715.69 437.18 721.82 430.83 721.82 388.73 736.06 374.57 750.29 388.73 750.29 466.6" style="fill:#a02373;opacity:0.4"/><polyline points="757.23 466.6 757.23 441.27 770.28 428.29 783.33 441.27 783.33 466.6" style="fill:#ee2a7b;stroke:#a02373;stroke-miterlimit:10"/><polyline points="757.23 466.6 757.23 441.27 770.28 428.29 770.3 441.27 770.3 466.6" style="fill:#fce9f1;stroke:#a02373;stroke-linejoin:bevel"/><polyline points="764.83 466.6 764.83 444.5 770.28 439.08 775.73 444.5 775.73 466.6" style="fill:#e9b7d5;stroke:#a02373;stroke-miterlimit:10"/><line x1="775.73" y1="444.5" x2="783.33" y2="441.27" style="fill:none;stroke:#a02373;stroke-miterlimit:10"/><line x1="770.28" y1="439.08" x2="770.28" y2="428.29" style="fill:none;stroke:#a02373;stroke-miterlimit:10"/><line x1="764.83" y1="444.5" x2="757.23" y2="441.27" style="fill:none;stroke:#a02373;stroke-miterlimit:10"/><path d="M771.08,464.05h-1.6v-4.8h1.6Zm0-9.6h-1.6v-4.8h1.6Z" style="fill:#a02373"/><line x1="721.32" y1="245.34" x2="709.55" y2="245.34" style="fill:none;stroke:#7c3990;stroke-miterlimit:10;opacity:0.28"/><line x1="724.73" y1="242.11" x2="709.55" y2="242.11" style="fill:none;stroke:#7c3990;stroke-miterlimit:10;opacity:0.28"/><line x1="727.92" y1="238.88" x2="709.55" y2="238.88" style="fill:none;stroke:#7c3990;stroke-miterlimit:10;opacity:0.28"/><line x1="729.01" y1="235.65" x2="709.55" y2="235.65" style="fill:none;stroke:#7c3990;stroke-miterlimit:10;opacity:0.28"/><line x1="729.01" y1="232.42" x2="709.55" y2="232.42" style="fill:none;stroke:#7c3990;stroke-miterlimit:10;opacity:0.28"/><line x1="729.01" y1="229.19" x2="709.55" y2="229.19" style="fill:none;stroke:#7c3990;stroke-miterlimit:10;opacity:0.28"/><line x1="729.01" y1="225.96" x2="709.55" y2="225.96" style="fill:none;stroke:#7c3990;stroke-miterlimit:10;opacity:0.28"/><line x1="727.92" y1="222.73" x2="709.55" y2="222.73" style="fill:none;stroke:#7c3990;stroke-miterlimit:10;opacity:0.28"/><line x1="724.69" y1="219.5" x2="709.55" y2="219.5" style="fill:none;stroke:#7c3990;stroke-miterlimit:10;opacity:0.28"/><line x1="721.46" y1="216.27" x2="709.55" y2="216.27" style="fill:none;stroke:#7c3990;stroke-miterlimit:10;opacity:0.28"/></g></g></svg>