<svg xmlns="http://www.w3.org/2000/svg" width="1000.5" height="466.6" viewBox="0 0 1000.5 466.6"><defs><linearGradient id="a" x1="91.24" y1="227.33" x2="938.57" y2="227.33" gradientUnits="userSpaceOnUse"><stop offset="0" stop-color="#2484c6"/><stop offset="1" stop-color="#2484c6" stop-opacity="0"/></linearGradient></defs><g data-name="ILLO 3"><path d="M790.53 453.16S894.18 406.27 932 318.56c46.29-107.34-170.4 44.2-88.09-155.71 73.47-178.42-9.39-142.1-118.43-39.85-62.15 58.31 1.81-211.33-126.81-89.61C465.65 159.31 442.94-79.95 354.28 53c-18.54 27.82-44.41 89.19-49.61 103.06-10.83 28.92-93.31-15.07-136 15.39-30.58 21.82 33 113.37-32.08 146.54-128 65.22 55.62 128.09 55.62 128.09" fill="#dff2f4"/><path d="M790.53 453.16S894.18 406.27 932 318.56c46.29-107.34-170.4 44.2-88.09-155.71 73.47-178.42-9.39-142.1-118.43-39.85-62.15 58.31 1.81-211.33-126.81-89.61C465.65 159.31 442.94-79.95 354.28 53c-18.54 27.82-44.41 89.19-49.61 103.06-10.83 28.92-93.31-15.07-136 15.39-30.58 21.82 33 113.37-32.08 146.54-128 65.22 55.62 128.09 55.62 128.09" style="mix-blend-mode:hard-light" fill="url(#a)"/><circle cx="310.93" cy="362.46" r="90.9" fill="#fde9f1"/><circle cx="310.93" cy="362.46" r="90.9" fill="#fde9f1" opacity=".26"/><path fill="#cbccce" stroke="#7c3990" stroke-miterlimit="10" d="M728.77 238.03v-14.45l-10.22-10.22h-20.22l-10.22 10.22v14.45l10.22 10.22h20.22l10.22-10.22z"/><path fill="none" stroke="#7c3990" stroke-miterlimit="10" opacity=".28" d="M725.59 220.4v20.82m-3.23-24.05v27.28m-3.24-30.51v33.74m-3.23-34.32v34.89m-3.23-34.89v34.89m-3.23-37.13v42.6m-3.23-42.6v42.6m-3.23-42.6v42.6m-3.23-42.6v42.6m-3.23-42.6v42.6"/><path fill="#da1c5c" stroke="#7c3990" stroke-miterlimit="10" d="M499.89 89.84l-18.71 18.61v35.46l18.71 18.61 18.71-18.61v-35.46l-18.71-18.61z"/><path fill="#f6ebf4" stroke="#7d3990" stroke-miterlimit="10" d="M499.89 89.84l-18.71 18.61v35.46l18.71 18.61"/><path fill="none" stroke="#7d3990" stroke-miterlimit="10" d="M507.7 139.29l10.9 4.63m-18.71 3.13v15.47m-7.81-23.24l-10.9 4.64m26.52-30.85l10.9-4.62m-18.71-3.14V89.84m-7.81 23.24l-10.9-4.63"/><path fill="#e6cbe2" stroke="#7d3990" stroke-miterlimit="10" d="M499.89 105.31l-7.81 7.77v26.2l7.81 7.77 7.81-7.76v-26.22l-7.81-7.76z"/><path fill="#d1ecf2" opacity=".4" d="M517 77.42h-33.06l-23.37 23.37v46.23l23.37 23.37H517l23.37-23.37v-46.23L517 77.42z"/><path fill="#fff" opacity=".3" d="M513.22 78.05l-52.65 52.74v-14.78l39.32-37.98 13.33.02zm-18.83 0l-33.82 32.71v-3.05l30.74-29.68 3.08.02z"/><path fill="none" stroke="#7c3990" stroke-miterlimit="10" d="M517 77.42h-33.06l-23.37 23.37v46.23l23.37 23.37H517l23.37-23.37v-46.23L517 77.42z"/><path fill="#e6cbe2" stroke="#7d3990" stroke-miterlimit="10" d="M187.8 294.12l13.91-7.68 35.96 65.15 251.79-.09.02 15.89-261.14.11-40.54-73.38z"/><path fill="#663695" opacity=".28" d="M209.12 299.94l2.26 4.11h-12.04l32.72 57.82 257.31.01v5.62H228.33l-37.36-67.56h18.15z"/><path fill="#cbccce" stroke="#7c3990" stroke-miterlimit="10" d="M272.35 238.03v-14.45l10.22-10.22h20.22l10.22 10.22v14.45l-10.22 10.22h-20.22l-10.22-10.22z"/><path fill="none" stroke="#7c3990" stroke-miterlimit="10" opacity=".28" d="M275.53 220.4v20.82m3.23-24.05v27.28m3.23-30.51v33.74m3.23-34.32v34.89m3.23-34.89v34.89m3.23-37.13v42.6m3.23-42.6v42.6m3.23-42.6v42.6m3.23-42.6v42.6m3.23-42.6v42.6"/><path fill="none" stroke="#7c3990" stroke-miterlimit="10" d="M184.27 194.37v14.45"/><path fill="#e6cbe2" stroke="#7c3990" stroke-miterlimit="10" d="M177.01 212.76h14.51v15.8h-14.51z"/><path fill="#da1c5c" stroke="#7c3990" stroke-miterlimit="10" d="M180.64 203.67h7.26v9.09h-7.26zm59.64 41.22l-22.92-23.04h-25.79l-22.91 23.04 22.91 23.04h25.79l22.92-23.04z"/><path fill="#f6ebf4" stroke="#7d3990" stroke-miterlimit="10" d="M240.28 244.89l-22.92-23.04h-25.79l-22.91 23.04"/><path fill="none" stroke="#7d3990" stroke-miterlimit="10" d="M197.27 254.51l-5.7 13.42m-3.86-23.04h-19.05m28.62-9.62l-5.71-13.42m20.09 32.66l5.7 13.42m3.86-23.04h19.06m-28.62-9.62l5.7-13.42"/><path fill="#e6cbe2" stroke="#7d3990" stroke-miterlimit="10" d="M221.22 244.89l-9.56-9.62h-14.38l-9.57 9.62 9.56 9.62h14.39l9.56-9.62z"/><path fill="none" stroke="#7c3990" stroke-miterlimit="10" d="M184.81 228.56H30.05m0 0l154.76 32.56m-122-32.56l8.89 8.89m11.04-8.89l14.04 14.04m8.77-14.04l20.35 20.35m3.66-20.35l26.51 26.51m-22.23-4.67l21.7-21.7m-47.86 16.19l17.09-17.09m-40.21 11.75l10.75-10.75m68.35-.24l10.66 10.65m-.12 11.25l-7.39 7.39M57.36 234.53l5.71-5.71"/><path fill="#e6cae2" d="M37.63 216.86H28.7l-6.31 6.31v8.93l6.31 6.31h8.93l6.31-6.31v-8.93l-6.31-6.31z"/><path d="M37.86 239h-9.39l-6.64-6.64v-9.39l6.64-6.63h9.39l6.63 6.63v9.39zm-8.93-1.11h8.47l6-6v-8.49l-6-6h-8.47l-6 6v8.47z" fill="#7c3990"/><path fill="#b87bb5" d="M28.7 216.86h8.93l6.31 6.31v8.93l-6.31 6.31H28.7l1.7-4.11v-13.33l-1.7-4.11z"/><path fill="#c093c3" d="M35.92 220.97H30.4l-3.9 3.91v5.52l3.9 3.9h5.52l3.91-3.9v-5.52l-3.91-3.91z"/><path d="M36.15 234.85h-6L26 230.63v-6l4.22-4.23h6l4.23 4.23v6zm-5.52-1.1h5.06l3.58-3.58v-5.06l-3.58-3.58h-5.06l-3.58 3.58v5.06z" fill="#7c3990"/><path fill="#7c3990" d="M28.186 217.068l1.026-.425 1.703 4.111-1.026.425zm7.225 3.702l1.704-4.11 1.025.424-1.704 4.111zm4.212 3.59l4.11-1.703.426 1.026-4.111 1.703zm-.01 6.538l.425-1.025 4.111 1.703-.425 1.025zm-4.203 3.619l1.026-.425 1.703 4.112-1.025.424zm-7.226 3.699l1.704-4.11 1.025.424-1.703 4.111zm-5.994-6.629l4.11-1.704.425 1.026-4.11 1.703zm-.011-7.909l.425-1.026 4.11 1.703-.424 1.026z"/><path d="M37.86 239h-9.39l-6.64-6.64v-9.39l6.64-6.63h9.39l6.63 6.63v9.39zm-8.93-1.11h8.47l6-6v-8.49l-6-6h-8.47l-6 6v8.47z" fill="#7c3990"/><path fill="#e6cbe2" d="M16.12 195.37l17.21 32.78-7.62-28.7-9.59-4.08z"/><path d="M33.61 228.08l-.55.21-17.2-32.78.38-.41 9.59 4.07.17.2zM16.78 196l15.58 29.69-6.9-26z" fill="#7c3990"/><path fill="#e6cbe2" d="M50.2 259.9L33 227.12l7.61 28.71 9.59 4.07z"/><path d="M32.71 227.2l.55-.22 17.21 32.78-.38.42-9.59-4.08-.18-.2zm16.84 32.1L34 229.61l6.89 26z" fill="#7c3990"/><path fill="#e6cbe2" d="M.9 244.68l32.78-17.21-28.71 7.62-4.07 9.59z"/><path d="M33.6 227.19l.22.55L1 244.94l-.42-.38L4.7 235l.2-.17zM1.5 244l29.69-15.58-26 6.9z" fill="#7c3990"/><path fill="#e6cbe2" d="M65.43 210.6l-32.78 17.2 28.7-7.61 4.08-9.59z"/><path d="M32.72 228.09l-.21-.55 32.78-17.21.41.38-4.07 9.59-.2.17zm32.11-16.84l-29.69 15.58 26-6.89z" fill="#7c3990"/><path fill="#da1c5c" stroke="#7c3990" stroke-miterlimit="10" d="M180.64 192.25h7.26v5.74h-7.26z"/><path fill="none" stroke="#7c3990" stroke-miterlimit="10" d="M196.63 267.93v14.6m15.15-14.6v14.6m23.3-5.8l-5.74 5.74h-50.27l-5.74-5.74"/><path fill="#fff" stroke="#7d3990" stroke-miterlimit="10" d="M366.14 211.44h-41.69v3.34h41.69"/><path fill="none" stroke="#7c3990" stroke-miterlimit="10" d="M324.45 214.77l19 31.46m-19 0l19-31.46m-.1 0l18.99 31.46m-18.99 0l18.99-31.46"/><path fill="#fff" stroke="#7c3990" stroke-miterlimit="10" d="M366.14 246.23h-41.69v3.74h41.69"/><path fill="#e9b7d5" stroke="#7d3990" stroke-miterlimit="10" d="M324.45 207.64v46.33h-32.88v-46.33z"/><path fill="#ee2a7b" stroke="#7d3990" stroke-miterlimit="10" d="M324.45 207.64v46.33m19-39.2v31.46m-45.57-29.99h7.81m-7.81 2.92h7.81m-7.81 2.92h7.81m-7.81 2.91h7.81m-7.81 2.92h7.81m7.33-11.75l-1.2 1.19 1.2 1.19"/><circle cx="315" cy="217.35" r="2.58" fill="#ee2a7b" stroke="#7d3990" stroke-miterlimit="10"/><path fill="#ee2a7b" stroke="#7d3990" stroke-miterlimit="10" d="M313.87 228.47l1.23 1.16 1.15-1.23"/><circle cx="315" cy="226.46" r="2.58" fill="#ee2a7b" stroke="#7d3990" stroke-miterlimit="10"/><path fill="#ee2a7b" d="M308.62 243.14v4.92h-4.92v-4.92zm-5.04 0v4.92h-4.92v-4.92zm5.04-4.92v4.92h-4.92v-4.92z"/><path fill="#fff" d="M318.47 243.27v4.92h-4.92v-4.92zm.06-5.05v4.92h-4.92v-4.92z"/><path fill="#ee2a7b" stroke="#7d3990" stroke-miterlimit="10" d="M303.61 248.2v-9.98m5.05 9.98v-9.98m-9.97 5h19.95m-4.93 4.98v-9.98"/><path fill="none" stroke="#7d3990" stroke-miterlimit="10" d="M318.75 238.22v9.98h-20.07v-9.98z"/><path fill="none" stroke="#7c3990" stroke-miterlimit="10" opacity=".28" d="M279.79 245.34h11.78m-15.19-3.23h15.19m-18.37-3.23h18.37m-19.47-3.23h19.47m-19.47-3.23h19.47m-19.47-3.23h19.47m-19.47-3.23h19.47m-18.37-3.23h18.37m-15.14-3.23h15.14m-11.91-3.23h11.91"/><path d="M259.15 376.45a14.35 14.35 0 0 1 21.13 1.31l7.42 9.24a14.35 14.35 0 0 0 21.21 1.24l42.48-41.63a9.46 9.46 0 0 1 13.36.12L397.53 380a14.36 14.36 0 0 0 19 1.29L456 350.82a7 7 0 0 1 8.14-.27L518.28 387a14.34 14.34 0 0 0 19.1-2.8l28.4-34.62a8 8 0 0 1 12-.31L602.12 376a14.36 14.36 0 0 0 21.4-.19l34.71-39.55a9.29 9.29 0 0 1 13.94 0l51.71 58.3a14.35 14.35 0 0 0 21 .5 14.35 14.35 0 0 1 22.29 2.2l62.37 69.37H158.32z" fill="#fff"/><path d="M336.21 398.42l19.35 19.08a13.24 13.24 0 0 0 17.26 1.15l30.66-23.09a3.24 3.24 0 0 1 4.09.17l21.34 18.95a13.24 13.24 0 0 0 17.44.13l36.82-31.76a13.23 13.23 0 0 1 17.47.15l40.15 35.87a13.23 13.23 0 0 0 16.81.69l30.31-22.95a3.6 3.6 0 0 1 4.36 0l40 30.21a6.61 6.61 0 0 0 7.65.22l18.84-12.56a6.61 6.61 0 0 1 7.55.15L703.6 442a6.71 6.71 0 0 0 7.95 0l4.47-3.32a6.71 6.71 0 0 1 8.72.61l27.7 27.35h-503.6l78.1-68.46a6.81 6.81 0 0 1 9.27.24z" fill="#0fa049" data-name="VEmhXb"/><path fill="#e6cbe2" stroke="#7d3990" stroke-miterlimit="10" d="M812.71 294.12l-13.92-7.68-35.96 65.15-250.88-.09-.02 15.89 260.23.11 40.55-73.38z"/><path fill="#e6cbe2" stroke="#7d3990" stroke-miterlimit="10" d="M754.5 291.11v8.83h77.34v-8.83"/><path fill="#da1c5c" stroke="#7c3990" stroke-miterlimit="10" d="M848.61 291.46H737.72v-9.08h110.89z"/><path fill="none" stroke="#7c3990" stroke-miterlimit="10" d="M816.85 194.37v14.45"/><path fill="#e6cbe2" stroke="#7c3990" stroke-miterlimit="10" d="M824.11 228.56H809.6v-15.8h14.51z"/><path fill="#da1c5c" stroke="#7c3990" stroke-miterlimit="10" d="M820.48 212.76h-7.26v-9.09h7.26zm-59.64 32.13l22.92-23.04h25.78l22.92 23.04-22.92 23.04h-25.78l-22.92-23.04z"/><path fill="#f6ebf4" stroke="#7d3990" stroke-miterlimit="10" d="M760.84 244.89l22.92-23.04h25.78l22.92 23.04"/><path fill="none" stroke="#7d3990" stroke-miterlimit="10" d="M803.85 254.51l5.69 13.42m3.87-23.04h19.05m-28.62-9.62l5.7-13.42m-20.08 32.66l-5.7 13.42m-3.86-23.04h-19.06m28.62-9.62l-5.7-13.42"/><path fill="#e6cbe2" stroke="#7d3990" stroke-miterlimit="10" d="M779.9 244.89l9.56-9.62h14.38l9.56 9.62-9.55 9.62h-14.39l-9.56-9.62z"/><path fill="none" stroke="#7c3990" stroke-miterlimit="10" d="M816.31 228.56h154.76m0 0l-154.76 32.56m122-32.56l-8.89 8.89m-11.04-8.89l-14.04 14.04m-8.77-14.04l-20.35 20.35m-3.66-20.35l-26.51 26.51m22.23-4.67l-21.7-21.7m47.86 16.19l-17.09-17.09m40.2 11.75l-10.74-10.75m-68.36-.24l-10.65 10.65m.11 11.25l7.39 7.39m109.46-23.32l-5.71-5.71"/><path fill="#e6cae2" d="M963.49 216.86h8.93l6.31 6.31v8.93l-6.31 6.31h-8.93l-6.31-6.31v-8.93l6.31-6.31z"/><path d="M956.62 232.33v-9.39l6.64-6.63h9.39l6.64 6.63v9.39l-6.64 6.67h-9.39zm21.56-.46v-8.47l-6-6h-8.47l-6 6v8.47l6 6h8.47z" fill="#7c3990"/><path fill="#b87bb5" d="M972.42 216.86h-8.93l-6.31 6.31v8.93l6.31 6.31h8.93l-1.7-4.11v-13.33l1.7-4.11z"/><path fill="#c093c3" d="M965.2 220.97h5.52l3.9 3.91v5.52l-3.9 3.9h-5.52l-3.91-3.9v-5.52l3.91-3.91z"/><path d="M960.74 230.63v-6l4.23-4.23h6l4.23 4.23v6l-4.23 4.22h-6zm13.32-.46v-5.06l-3.57-3.58h-5.06l-3.58 3.58v5.06l3.58 3.58h5.06z" fill="#7c3990"/><path fill="#7c3990" d="M970.189 220.75l1.703-4.112 1.025.425-1.703 4.111zm-11.51-1.795l1.021-.422 1.691 4.094-1.021.422zm-1.682 4.749l.425-1.025 4.111 1.703-.425 1.026zm-.02 7.913l4.111-1.703.425 1.026-4.111 1.703zm5.981 6.567l1.703-4.111 1.026.424-1.703 4.112zm2.871-1.838l1.02-.422 1.692 4.094-1.021.422zm8.605-5.419l.425-1.025 4.11 1.703-.424 1.026zm-.021-6.544l4.11-1.702.426 1.025-4.112 1.703z"/><path d="M956.62 232.33v-9.39l6.64-6.63h9.39l6.64 6.63v9.39l-6.64 6.67h-9.39zm21.56-.46v-8.47l-6-6h-8.47l-6 6v8.47l6 6h8.47z" fill="#7c3990"/><path fill="#e6cbe2" d="M985 195.37l-17.21 32.78 7.62-28.7 9.59-4.08z"/><path d="M975.12 199.37l.17-.2 9.59-4.07.38.41-17.2 32.78-.56-.21zm.54.29l-6.9 26L984.34 196z" fill="#7c3990"/><path fill="#e6cbe2" d="M950.92 259.9l17.2-32.78-7.62 28.71-9.58 4.07z"/><path d="M960.79 255.9l-.17.2-9.62 4.08-.38-.42L967.85 227l.56.22zm-.54-.29l6.9-26-15.58 29.69z" fill="#7c3990"/><path fill="#e6cbe2" d="M1000.22 244.68l-32.78-17.21 28.71 7.62 4.07 9.59z"/><path d="M996.22 234.8l.2.17 4.08 9.59-.42.38-32.78-17.2.22-.55zm-.29.54l-26-6.9L999.62 244z" fill="#7c3990"/><path fill="#e6cbe2" d="M935.69 210.6l32.78 17.2-28.71-7.61-4.07-9.59z"/><path d="M939.69 220.47l-.2-.17-4.07-9.59.41-.38 32.78 17.21-.21.55zm.29-.53l26 6.89-29.69-15.58z" fill="#7c3990"/><path fill="#da1c5c" stroke="#7c3990" stroke-miterlimit="10" d="M820.48 197.99h-7.26v-5.74h7.26z"/><path fill="none" stroke="#7c3990" stroke-miterlimit="10" d="M804.49 267.93v14.6m-15.15-14.6v14.6m-23.3-5.8l5.74 5.74h50.27l5.74-5.74"/><path fill="#cf82aa" stroke="#663695" stroke-miterlimit="10" d="M451.85 322.7l9.35 16.2h75.87l9.35-16.2"/><path fill="#ee2a7b" stroke="#a02373" stroke-miterlimit="10" d="M598.67 323.32h-31.22"/><path fill="#fff" stroke="#7d3990" stroke-miterlimit="10" d="M634.98 211.44h41.69v3.34h-41.69"/><path fill="none" stroke="#7c3990" stroke-miterlimit="10" d="M676.67 214.77l-19 31.46m19 0l-19-31.46m.1 0l-18.99 31.46m18.99 0l-18.99-31.46"/><path fill="#fff" stroke="#7c3990" stroke-miterlimit="10" d="M634.98 246.23h41.69v3.74h-41.69"/><path fill="#e9b7d5" stroke="#7d3990" stroke-miterlimit="10" d="M709.54 207.64v46.33h-32.88v-46.33z"/><path fill="#ee2a7b" stroke="#7d3990" stroke-miterlimit="10" d="M676.67 207.64v46.33m-19-39.2v31.46m45.57-29.99h-7.82m7.82 2.92h-7.82m7.82 2.92h-7.82m7.82 2.91h-7.82m7.82 2.92h-7.82m-7.32-11.75l1.19 1.19-1.19 1.19"/><circle cx="686.12" cy="217.35" r="2.58" fill="#ee2a7b" stroke="#7d3990" stroke-miterlimit="10"/><path fill="#ee2a7b" stroke="#7d3990" stroke-miterlimit="10" d="M687.25 228.47l-1.23 1.16-1.15-1.23"/><circle cx="686.12" cy="226.46" r="2.58" fill="#ee2a7b" stroke="#7d3990" stroke-miterlimit="10"/><path fill="#ee2a7b" d="M697.41 243.14v4.92h-4.92v-4.92z"/><path fill="#fce9f1" d="M697.41 238.22v4.92h-4.92v-4.92z"/><path fill="#ee2a7b" d="M687.51 238.22v4.92h-4.92v-4.92z"/><path fill="#ee2a7b" stroke="#7d3990" stroke-miterlimit="10" d="M697.51 248.2v-9.98m-5.05 9.98v-9.98m9.97 5h-19.95m4.93 4.98v-9.98"/><path fill="none" stroke="#7d3990" stroke-miterlimit="10" d="M702.42 238.22v9.98h-20.07v-9.98z"/><path fill="#544b9f" stroke="#a02373" stroke-miterlimit="10" d="M567.45 323.32h90.69V123.91h-315v199.41h35.49"/><path fill="#cf82aa" stroke="#663695" stroke-miterlimit="10" d="M567.45 323.32h90.69V123.91h-315v199.41h224.31z"/><path fill="#ebb8d5" d="M350.13 316.43l-6.99 6.89V123.91h314.45l-6.45 6.88H350.13v185.64z"/><path fill="#544b9f" stroke="#663795" stroke-miterlimit="10" d="M350.14 130.79h301v185.64h-301z"/><path fill="#ebb8d5" stroke="#663695" stroke-miterlimit="10" d="M451.85 323.62l9.35 15.28h37.94v-15.58l-47.29.3z"/><path fill="none" stroke="#a02373" stroke-miterlimit="10" d="M598.67 323.32h-31.22"/><path fill="#ebb8d5" stroke="#663695" stroke-miterlimit="10" d="M488.52 338.9h23.45v95.87h-23.45z"/><path fill="#ebb8d5" stroke="#7d3990" stroke-miterlimit="10" d="M576.43 441.65H420.8l2.82-6.89h150.23l2.58 6.89z"/><path fill="#da1c5c" stroke="#7c3990" stroke-miterlimit="10" d="M586.55 466.6l-10.12-25.01H420.8l-10.26 24.69"/><path fill="#663695" opacity=".28" d="M488.52 338.9h23.45v7.97h-23.45zm302.92-38.96l-2.27 4.11h12.04l-32.77 57.82H517.41l-5.37-10.36v15.99h260.14l37.4-67.56h-18.14z"/><path fill="#e6cbe2" stroke="#7d3990" stroke-miterlimit="10" d="M246 291.11v8.83h-77.34v-8.83"/><path fill="#da1c5c" stroke="#7c3990" stroke-miterlimit="10" d="M151.89 282.38h110.89v9.08H151.89z"/><path d="M754.19 54c5.67 2.46 7.36 11.15 3.78 19.41s-14.23 18.27-19.9 15.82-5.91-16.39-3.34-24.79C738 53.75 748.53 51.57 754.19 54zM51.08 313a15.28 15.28 0 1 1 14-27.16c7.5 3.87 14.49 19.35 10.62 26.85s-17.12 4.18-24.62.31z" fill="#dff2f4"/><path d="M912.19 318.57a43.2 43.2 0 0 0-39.87 26.55 4.53 4.53 0 0 1-7.13 1.79 19.7 19.7 0 0 0-31.74 8.86 4.57 4.57 0 0 0 4.35 6h112.73a4.58 4.58 0 0 0 4.55-5.1 43.2 43.2 0 0 0-42.89-38.1zM690.43 159.51a7.71 7.71 0 0 1 7.2 5 2 2 0 0 1-1.92 2.77h-10.57a2.05 2.05 0 0 1-1.92-2.77 7.71 7.71 0 0 1 7.21-5zm-59.28-87.59a10.64 10.64 0 0 1 9.92 6.81 2.83 2.83 0 0 1-2.65 3.82h-14.55a2.82 2.82 0 0 1-2.64-3.82 10.62 10.62 0 0 1 9.92-6.81zm76.35 251.62a7.27 7.27 0 0 1 6.78 4.65 1.93 1.93 0 0 1-1.81 2.61h-9.94a1.93 1.93 0 0 1-1.81-2.61 7.27 7.27 0 0 1 6.78-4.65zm101.63 28.36a9.86 9.86 0 0 0-9.2 6.31 2.62 2.62 0 0 0 2.45 3.54h13.5a2.62 2.62 0 0 0 2.46-3.54 9.88 9.88 0 0 0-9.21-6.31zm-654.57 12.01a35.18 35.18 0 0 0-25 10.35 11.05 11.05 0 0 1-17.06-1.72 48.31 48.31 0 0 0-40.39-21.76c-17.32 0-32.69 10.91-42.69 24.23C19.71 388 20 399.24 27 399.24h149.17c8.07 0 13.64-8.48 10-15.71a35.32 35.32 0 0 0-31.61-19.62zm648.75-217.75A19.61 19.61 0 0 0 784.07 162a3.17 3.17 0 0 0 3.14 3.73h32.2a3.16 3.16 0 0 0 3.13-3.73 19.59 19.59 0 0 0-19.23-15.84zM742.7 272.93a14.11 14.11 0 0 0-10 4.11 4.47 4.47 0 0 1-6.89-.69 19.44 19.44 0 0 0-33.2 1.32 4.31 4.31 0 0 1-5.85 1.58 8.88 8.88 0 0 0-11.8 3.38 3 3 0 0 0 2.6 4.47h75.53a3.27 3.27 0 0 0 3.12-4.23 14.18 14.18 0 0 0-13.51-9.94z" fill="#fff"/><path d="M943.25 179c1.93 5.93-2.74 19.7-10.42 22.2s-15.48-7.22-17.41-13.15-5.52-26.74 2.16-29.24S941.33 173 943.25 179z" fill="#dff2f4"/><path fill="none" stroke="#fff" stroke-miterlimit="10" d="M499.14 32.79v37.57m13.9-28.57l-5.11 22.37m20.22-21.2l-15.11 27.89m-27.81-29.06l5.11 22.37m-20.22-21.2l15.11 27.89"/><path d="M180.86 72.88c2.93-8.67 21.33-14.88 30-11.94s16.64 15.64 13.7 24.32-15.67 10-24.34 7.09-22.3-10.79-19.36-19.47z" fill="#dff2f4"/><path fill="#544b9f" stroke="#663795" stroke-miterlimit="10" d="M350.14 130.79l-6.95-6.94m307.95 6.94l7-6.88m-7 192.52l7 6.89m-308-6.89l-7 6.89"/><path fill="none" stroke="#663695" stroke-miterlimit="10" d="M567.45 323.32h90.69V123.91h-315v199.41h224.31z"/><path d="M504.39 415l.67-2.17-2.13.8a5.07 5.07 0 1 0 1.46 1.37z" fill="#cf82aa" stroke="#663695" stroke-miterlimit="10"/><circle cx="500.25" cy="417.89" r="2.93" fill="#da1c5c" stroke="#7c3990" stroke-miterlimit="10"/><path d="M497.51 355.27l-2.14-.77.7 2.17a5.06 5.06 0 1 0 1.44-1.4z" fill="#cf82aa" stroke="#663695" stroke-miterlimit="10"/><circle cx="500.25" cy="359.54" r="2.93" fill="#da1c5c" stroke="#7c3990" stroke-miterlimit="10"/><path fill="#da1c5c" stroke="#7c3990" stroke-miterlimit="10" d="M495.24 406.64v-11.07m2.51 11.07v-11.07m2.5 11.07v-11.07m2.51 11.07v-11.07m2.5 11.07v-11.07"/><path fill="#e6cbe2" d="M495.18 370.88h5.08v4.3h-5.08zm.05 14.54h5.08v4.3h-5.08z"/><path fill="#da1c5c" d="M500.37 380.61h5.08v4.3h-5.08zm-4.98-4.97h5.08v4.3h-5.08z"/><path fill="none" stroke="#7c3990" stroke-miterlimit="10" d="M495.18 370.88h10.15v18.9h-10.15zm0 4.5h10.15m-10.15 4.95h10.15m-10.15 4.96h10.15m-5.08 4.49v-18.9"/><path fill="#dc5267" stroke="#491144" stroke-miterlimit="10" d="M361.13 221.87l29.56-29.62 13.66 13.37L418 192.26l29.62 29.61-43.27 44.62-43.22-44.62z"/><path fill="#ab0d48" d="M447.62 221.87l-43.27 44.62v-10.98l32.54-33.64h10.73zm0 0L418 192.26l-.06 10.75 18.95 18.86h10.73zm-43.27-16.25l-13.61-13.27-.06 10.75 13.67 13.21v-10.69z"/><path fill="#da1c5c" stroke="#491144" stroke-miterlimit="10" d="M417.94 203.01l-13.59 13.3-13.6-13.3-18.9 18.94 32.5 33.56 32.54-33.56-18.95-18.94zm0 0l.06-10.75m-13.65 13.36v10.69m-13.66-24.06l.06 10.76m13.6 52.5l-.01 10.98m32.55-44.54l10.73-.08m-86.49 0l10.72.08"/><path fill="none" stroke="#491144" stroke-miterlimit="10" d="M361.13 221.87l29.56-29.62 13.66 13.37L418 192.26l29.62 29.61-43.27 44.62-43.22-44.62z"/><path fill="#dc5267" stroke="#491144" stroke-miterlimit="10" d="M458.44 221.87L488 192.25l13.66 13.37 13.65-13.36 29.62 29.61-43.27 44.62-43.22-44.62z"/><path fill="#ab0d48" d="M544.93 221.87l-43.27 44.62v-10.98l32.54-33.64h10.73zm0 0l-29.62-29.61-.05 10.75 18.94 18.86h10.73zm-43.27-16.25l-13.61-13.27-.06 10.75 13.67 13.21v-10.69z"/><path fill="#da1c5c" stroke="#491144" stroke-miterlimit="10" d="M515.26 203.01l-13.6 13.3-13.6-13.3-18.9 18.94 32.5 33.56 32.54-33.56-18.94-18.94zm0 0l.05-10.75m-13.65 13.36v10.69M488 192.25l.06 10.76m13.6 52.5v10.98m32.54-44.54l10.73-.08m-86.49 0l10.72.08"/><path fill="none" stroke="#491144" stroke-miterlimit="10" d="M458.44 221.87L488 192.25l13.66 13.37 13.65-13.36 29.62 29.61-43.27 44.62-43.22-44.62z"/><path fill="#fff" opacity=".06" d="M397.74 316.8l181.32-184.89-22.33-.09-178.5 184.98h19.51z"/><path fill="#ee2a7b" stroke="#a02373" stroke-miterlimit="10" d="M648.57 466.6V341.97l12.77-12.71 12.78 12.71V466.6"/><path fill="#fce9f1" stroke="#a02373" stroke-linejoin="bevel" d="M648.57 466.6V341.97l12.77-12.71.02 12.71V466.6"/><path fill="#e9b7d5" stroke="#a02373" stroke-miterlimit="10" d="M656.01 466.6V345.13l5.33-5.3 5.34 5.3V466.6"/><path fill="none" stroke="#a02373" stroke-miterlimit="10" d="M666.68 345.13l7.44-3.16m-12.78-2.14v-10.57m-5.33 15.87l-7.44-3.16"/><path d="M662.13 458.29h-1.57v-4.7h1.57zm0-9.4h-1.57v-4.7h1.57zm0-9.4h-1.57v-4.71h1.57zm0-9.41h-1.57v-4.7h1.57zm0-9.4h-1.57V416h1.57zm0-9.4h-1.57v-4.7h1.57zm0-9.41h-1.57v-4.7h1.57zm0-9.4h-1.57v-4.7h1.57zm0-9.4h-1.57v-4.7h1.57zm0-9.4h-1.57V369h1.57zm0-9.41h-1.57v-4.7h1.57z" fill="#a02373"/><path fill="#a02373" stroke="#a02373" stroke-miterlimit="10" opacity=".4" d="M648.59 466.6V342.08l12.77-12.71 12.78 12.71V466.6"/><path fill="#ee2a7b" stroke="#a02373" stroke-miterlimit="10" d="M593.96 466.13v-82.36l17.5-17.41 17.5 17.41v59.44l6.99 6.97v16.42"/><path fill="#fce9f1" stroke="#a02373" stroke-linejoin="bevel" d="M593.96 466.6v-82.83l17.5-17.41.03 17.41v82.36"/><path fill="#e9b7d5" stroke="#a02373" stroke-miterlimit="10" d="M604.15 466.6v-78.49l7.31-7.27 7.31 7.26v78.5"/><path fill="none" stroke="#a02373" stroke-miterlimit="10" d="M618.77 388.1l10.19-4.33m-17.5-2.93v-14.48m-7.31 21.75l-10.19-4.34"/><path d="M609.83 432.36h-1.57v-4.7h1.57zm0-9.4h-1.57v-4.7h1.57zm0-9.41h-1.57v-4.7h1.57zm0-9.4h-1.57v-4.7h1.57zm4.82 56.42h-1.56v-4.7h1.56zm0-9.4h-1.56v-4.7h1.56zm0-9.41h-1.56v-4.7h1.56zm0-9.4h-1.56v-4.7h1.56zm0-9.4h-1.56v-4.7h1.56zm0-9.41h-1.56v-4.7h1.56zm0-9.4h-1.56v-4.7h1.56z" fill="#a02373"/><path fill="#ee2a7b" stroke="#a02373" stroke-miterlimit="10" d="M280.68 466.6V351.58l13.94-13.86 13.94 13.86v66.16l10.65 10.62v38.17"/><path fill="#fce9f1" stroke="#a02373" stroke-linejoin="bevel" d="M280.68 466.6V351.58l13.94-13.86.02 13.86V466.6"/><path fill="#e9b7d5" stroke="#a02373" stroke-miterlimit="10" d="M288.8 466.6V355.03l5.82-5.78 5.82 5.78V466.6"/><path fill="none" stroke="#a02373" stroke-miterlimit="10" d="M300.44 355.03l8.12-3.45m-13.94-2.33v-11.53m-5.82 17.31l-8.12-3.45"/><path d="M295.5 461.94h-1.57v-4.7h1.57zm0-9.4h-1.57v-4.7h1.57zm0-9.4h-1.57v-4.7h1.57zm0-9.41h-1.57V429h1.57zm0-9.4h-1.57v-4.7h1.57zm0-9.4h-1.57v-4.7h1.57zm0-9.4h-1.57v-4.71h1.57zm0-9.41h-1.57v-4.7h1.57zm0-9.4h-1.57V382h1.57zm0-9.4h-1.57v-4.7h1.57zm0-9.41h-1.57v-4.7h1.57z" fill="#a02373"/><path fill="#ee2a7b" stroke="#a02373" stroke-miterlimit="10" d="M682.99 466.6v-14.49l12.77-12.71 12.78 12.71v14.49"/><path fill="#fce9f1" stroke="#a02373" stroke-linejoin="bevel" d="M682.99 466.6v-14.49l12.77-12.71.02 12.71v14.49"/><path fill="#e9b7d5" stroke="#a02373" stroke-miterlimit="10" d="M690.43 466.6v-11.33l5.33-5.31 5.34 5.3v11.34"/><path fill="none" stroke="#a02373" stroke-miterlimit="10" d="M701.1 455.26l7.44-3.16m-12.78-2.14V439.4m-5.33 15.87l-7.44-3.17"/><path fill="#a02373" d="M694.98 456.56h1.57v4.7h-1.57z"/><path fill="#ee2a7b" stroke="#a02373" stroke-miterlimit="10" d="M229.41 466.46V383l13.17-13.11L255.75 383v83.46"/><path fill="#ee2a7b" stroke="#a02373" stroke-miterlimit="10" d="M227.88 466.46v-83.93l13.94-13.86 13.93 13.86v83.93"/><path fill="#fce9f1" stroke="#a02373" stroke-linejoin="bevel" d="M241.84 466.46v-83.93l-.02-13.86-13.94 13.86v41.23l-6.22 6.21v36.63"/><path fill="#e9b7d5" stroke="#a02373" stroke-miterlimit="10" d="M236 466.46v-80.48l5.82-5.78 5.82 5.78v80.48"/><path fill="none" stroke="#a02373" stroke-miterlimit="10" d="M247.64 385.98l8.11-3.45m-13.93-2.33v-11.53M236 385.98l-8.12-3.45"/><path d="M242.7 461.64h-1.57v-4.14h1.57zm0-8.85h-1.57v-4.7h1.57zm0-9.4h-1.57v-4.7h1.57zm0-9.4h-1.57v-4.7h1.57zm0-9.4h-1.57v-4.71h1.57zm0-9.41h-1.57v-4.7h1.57zm0-9.4h-1.57v-4.7h1.57zm0-9.4h-1.57v-4.7h1.57zm-13.27 65.26h-1.57v-4.14h1.57zm0-8.85h-1.57v-4.7h1.57zm0-9.4h-1.57v-4.7h1.57zm0-9.4h-1.57v-4.7h1.57z" fill="#a02373"/><path fill="#a02373" opacity=".4" d="M221.88 466.46v-36.49l6-6.21v-41.23l13.94-13.86 13.93 13.86v83.93"/><path fill="#ee2a7b" stroke="#a02373" stroke-miterlimit="10" d="M353.75 466.6v-80.19l16.55-16.45 16.53 16.45v80.19"/><path fill="#ee2a7b" stroke="#a02373" stroke-miterlimit="10" d="M351.83 466.6v-80.77l17.5-17.41 17.5 17.41v80.77"/><path fill="#fce9f1" stroke="#a02373" stroke-linejoin="bevel" d="M346.14 466.6v-14.71l5.69-5.74v-60.32l17.5-17.41.03 17.41v80.77"/><path fill="#e9b7d5" stroke="#a02373" stroke-miterlimit="10" d="M362.02 466.6v-76.44l7.31-7.27 7.31 7.27v76.44"/><path fill="none" stroke="#a02373" stroke-miterlimit="10" d="M376.64 390.16l10.19-4.33m-17.5-2.94v-14.47m-7.31 21.74l-10.19-4.33"/><path d="M372.53 461.07H371v-4.7h1.57zm0-9.4H371V447h1.57zm0-9.4H371v-4.7h1.57zm0-9.41H371v-4.7h1.57zm0-9.4H371v-4.7h1.57zm0-9.4H371v-4.7h1.57zm0-9.4H371V400h1.57zm-4.83 56.41h-1.56v-4.7h1.56zm0-9.4h-1.56V447h1.56zm0-9.4h-1.56v-4.7h1.56zm0-9.41h-1.56v-4.7h1.56zm0-9.4h-1.56v-4.7h1.56zm0-9.4h-1.56v-4.7h1.56zm0-9.4h-1.56V400h1.56z" fill="#a02373"/><path fill="#ee2a7b" stroke="#a02373" stroke-miterlimit="10" d="M723.39 466.6v-77.4l13.45-13.38 13.45 13.38v77.4"/><path fill="#ee2a7b" stroke="#a02373" stroke-miterlimit="10" d="M721.82 466.6v-77.87l14.24-14.16 14.23 14.16v77.87"/><path fill="#fce9f1" stroke="#a02373" stroke-linejoin="bevel" d="M736.08 466.6v-77.87l-.02-14.16-14.24 14.16v42.1l-6.34 6.35v29.42"/><path fill="#e9b7d5" stroke="#a02373" stroke-miterlimit="10" d="M730.11 466.6v-74.35l5.95-5.91 5.94 5.91v74.35"/><path fill="none" stroke="#a02373" stroke-miterlimit="10" d="M742 392.25l8.29-3.52m-14.23-2.39v-11.77m-5.95 17.68l-8.29-3.52"/><path d="M737 460.49h-1.6v-4.8h1.6zm0-9.6h-1.6v-4.81h1.6zm0-9.61h-1.6v-4.8h1.6zm0-9.6h-1.6v-4.8h1.6zm0-9.61h-1.6v-4.8h1.6zm0-9.6h-1.6v-4.8h1.6zm0-9.6h-1.6v-4.8h1.6zm-13.6 57.62h-1.6v-4.8h1.6zm0-9.6h-1.6v-4.81h1.6zm0-9.61h-1.6v-4.8h1.6z" fill="#a02373"/><path fill="#a02373" opacity=".4" d="M715.69 466.6v-29.42l6.13-6.35v-42.1l14.24-14.16 14.23 14.16v77.87"/><path fill="#ee2a7b" stroke="#a02373" stroke-miterlimit="10" d="M757.23 466.6v-25.33l13.05-12.98 13.05 12.98v25.33"/><path fill="#fce9f1" stroke="#a02373" stroke-linejoin="bevel" d="M757.23 466.6v-25.33l13.05-12.98.02 12.98v25.33"/><path fill="#e9b7d5" stroke="#a02373" stroke-miterlimit="10" d="M764.83 466.6v-22.1l5.45-5.42 5.45 5.42v22.1"/><path fill="none" stroke="#a02373" stroke-miterlimit="10" d="M775.73 444.5l7.6-3.23m-13.05-2.19v-10.79m-5.45 16.21l-7.6-3.23"/><path d="M771.08 464.05h-1.6v-4.8h1.6zm0-9.6h-1.6v-4.8h1.6z" fill="#a02373"/><path fill="none" stroke="#7c3990" stroke-miterlimit="10" opacity=".28" d="M721.32 245.34h-11.77m15.18-3.23h-15.18m18.37-3.23h-18.37m19.46-3.23h-19.46m19.46-3.23h-19.46m19.46-3.23h-19.46m19.46-3.23h-19.46m18.37-3.23h-18.37m15.14-3.23h-15.14m11.91-3.23h-11.91"/></g></svg>