<svg xmlns="http://www.w3.org/2000/svg" width="67.34" height="66.85"><g id="ILLO_3" data-name="ILLO 3"><path fill="#e6cbe2" d="M17.04 1l17.2 32.79-7.61-28.71L17.04 1z"/><path d="M34.53 33.71l-.55.22-17.2-32.79.38-.41 9.59 4.07.17.2zM17.69 1.61L33.27 31.3l-6.89-26z" fill="#7c3990"/><path fill="#e6cbe2" d="M51.12 65.53l-17.2-32.78 7.61 28.71 9.59 4.07z"/><path d="M33.63 32.83l.55-.22 17.2 32.79-.38.41-9.59-4.08-.17-.19zm16.84 32.1L34.89 35.24l6.89 26z" fill="#7c3990"/><path fill="#e6cbe2" d="M1.81 50.31l32.79-17.2-28.71 7.61-4.08 9.59z"/><path d="M34.52 32.82l.22.55L2 50.57l-.41-.38 4.02-9.59.2-.17zM2.42 49.66l29.69-15.58-26 6.92z" fill="#7c3990"/><path fill="#e6cbe2" d="M66.34 16.23l-32.78 17.2 28.71-7.61 4.07-9.59z"/><path d="M33.64 33.72l-.22-.55L66.21 16l.41.38-4.08 9.59-.19.17zm32.1-16.84L36.05 32.46l26-6.89z" fill="#7c3990"/></g></svg>