<svg xmlns="http://www.w3.org/2000/svg" width="1000.5" height="466.6"><defs><linearGradient id="linear-gradient" x1="91.24" y1="227.33" x2="938.57" y2="227.33" gradientUnits="userSpaceOnUse"><stop offset="0" stop-color="#2484c6"/><stop offset="1" stop-color="#2484c6" stop-opacity="0"/></linearGradient></defs><g style="isolation:isolate"><g id="ILLO_3" data-name="ILLO 3"><path d="M790.53 453.16S894.18 406.27 932 318.56c46.29-107.34-170.4 44.2-88.09-155.71 73.47-178.42-9.39-142.1-118.43-39.85-62.15 58.31 1.81-211.33-126.81-89.61C465.65 159.31 442.94-79.95 354.28 53c-18.54 27.82-44.41 89.19-49.61 103.06-10.83 28.92-93.31-15.07-136 15.39-30.58 21.82 33 113.37-32.08 146.54-128 65.22 55.62 128.09 55.62 128.09" fill="#dff2f4"/><path d="M790.53 453.16S894.18 406.27 932 318.56c46.29-107.34-170.4 44.2-88.09-155.71 73.47-178.42-9.39-142.1-118.43-39.85-62.15 58.31 1.81-211.33-126.81-89.61C465.65 159.31 442.94-79.95 354.28 53c-18.54 27.82-44.41 89.19-49.61 103.06-10.83 28.92-93.31-15.07-136 15.39-30.58 21.82 33 113.37-32.08 146.54-128 65.22 55.62 128.09 55.62 128.09" style="mix-blend-mode:hard-light" fill="url(#linear-gradient)"/><circle cx="310.93" cy="362.46" r="90.9" fill="#fde9f1"/><circle cx="310.93" cy="362.46" r="90.9" fill="#fde9f1" style="fill:#fde9f1" opacity=".26"/><path fill="#cbccce" stroke="#7c3990" stroke-miterlimit="10" d="M728.77 238.03v-14.45l-10.22-10.22h-20.22l-10.22 10.22v14.45l10.22 10.22h20.22l10.22-10.22z"/><path fill="none" stroke="#7c3990" stroke-miterlimit="10" opacity=".28" d="M725.59 220.4v20.82M722.36 217.17v27.28M719.12 213.94v33.74M715.89 213.36v34.89M712.66 213.36v34.89M709.43 211.12v42.6M706.2 211.12v42.6M702.97 211.12v42.6M699.74 211.12v42.6M696.51 211.12v42.6"/><path fill="#da1c5c" stroke="#7c3990" stroke-miterlimit="10" d="M499.89 89.84l-18.71 18.61V143.91l18.71 18.61 18.71-18.61v-35.46l-18.71-18.61z"/><path fill="#f6ebf4" stroke="#7d3990" stroke-miterlimit="10" d="M499.89 89.84l-18.71 18.61V143.91l18.71 18.61"/><path fill="none" stroke="#7d3990" stroke-miterlimit="10" d="M507.7 139.29l10.9 4.63M499.89 147.05v15.47M492.08 139.28l-10.9 4.64M507.7 113.07l10.9-4.62M499.89 105.31V89.84M492.08 113.08l-10.9-4.63"/><path fill="#e6cbe2" stroke="#7d3990" stroke-miterlimit="10" d="M499.89 105.31l-7.81 7.77V139.28l7.81 7.77 7.81-7.76v-26.22l-7.81-7.76z"/><path fill="#d1ecf2" opacity=".4" d="M517 77.42h-33.06l-23.37 23.37v46.23l23.37 23.37H517l23.37-23.37v-46.23L517 77.42z"/><path fill="#fff" opacity=".3" d="M513.22 78.05l-52.65 52.74v-14.78l39.32-37.98 13.33.02zM494.39 78.05l-33.82 32.71v-3.05l30.74-29.68 3.08.02z"/><path fill="none" stroke="#7c3990" stroke-miterlimit="10" d="M517 77.42h-33.06l-23.37 23.37v46.23l23.37 23.37H517l23.37-23.37v-46.23L517 77.42z"/><path fill="#e6cbe2" stroke="#7d3990" stroke-miterlimit="10" d="M187.8 294.12l13.91-7.68 35.96 65.15 251.79-.09.02 15.89-261.14.11-40.54-73.38z"/><path fill="#663695" opacity=".28" d="M209.12 299.94l2.26 4.11h-12.04l32.72 57.82 257.31.01v5.62H228.33l-37.36-67.56h18.15z"/><path fill="#cbccce" stroke="#7c3990" stroke-miterlimit="10" d="M272.35 238.03v-14.45l10.22-10.22h20.22l10.22 10.22v14.45l-10.22 10.22h-20.22l-10.22-10.22z"/><path fill="none" stroke="#7c3990" stroke-miterlimit="10" opacity=".28" d="M275.53 220.4v20.82M278.76 217.17v27.28M281.99 213.94v33.74M285.22 213.36v34.89M288.45 213.36v34.89M291.68 211.12v42.6M294.91 211.12v42.6M298.14 211.12v42.6M301.37 211.12v42.6M304.6 211.12v42.6"/><path fill="none" stroke="#7c3990" stroke-miterlimit="10" d="M184.27 194.37v14.45"/><path fill="#e6cbe2" stroke="#7c3990" stroke-miterlimit="10" d="M177.01 212.76h14.51v15.8h-14.51z"/><path fill="#da1c5c" stroke="#7c3990" stroke-miterlimit="10" d="M180.64 203.67h7.26v9.09h-7.26zM240.28 244.89l-22.92-23.04h-25.79l-22.91 23.04 22.91 23.04h25.79l22.92-23.04z"/><path fill="#f6ebf4" stroke="#7d3990" stroke-miterlimit="10" d="M240.28 244.89l-22.92-23.04h-25.79l-22.91 23.04"/><path fill="none" stroke="#7d3990" stroke-miterlimit="10" d="M197.27 254.51l-5.7 13.42M187.71 244.89h-19.05M197.28 235.27l-5.71-13.42M211.66 254.51l5.7 13.42M221.22 244.89h19.06M211.66 235.27l5.7-13.42"/><path fill="#e6cbe2" stroke="#7d3990" stroke-miterlimit="10" d="M221.22 244.89l-9.56-9.62h-14.38l-9.57 9.62 9.56 9.62h14.39l9.56-9.62z"/><path fill="none" stroke="#7c3990" stroke-miterlimit="10" d="M184.81 228.56H30.05M30.05 228.56l154.76 32.56M62.81 228.56l8.89 8.89M82.74 228.56l14.04 14.04M105.55 228.56l20.35 20.35M129.56 228.56l26.51 26.51M133.84 250.4l21.7-21.7M107.68 244.89l17.09-17.09M84.56 239.55l10.75-10.75M163.66 228.56l10.66 10.65M174.2 250.46l-7.39 7.39M57.36 234.53l5.71-5.71"/><path fill="#e6cae2" d="M37.63 216.86H28.7l-6.31 6.31v8.93l6.31 6.31h8.93l6.31-6.31v-8.93l-6.31-6.31z"/><path d="M37.86 239h-9.39l-6.64-6.64v-9.39l6.64-6.63h9.39l6.63 6.63v9.39zm-8.93-1.11h8.47l6-6v-8.49l-6-6h-8.47l-6 6v8.47z" fill="#7c3990"/><path fill="#b87bb5" d="M28.7 216.86h8.93l6.31 6.31v8.93l-6.31 6.31H28.7l1.7-4.11v-13.33l-1.7-4.11z"/><path fill="#c093c3" d="M35.92 220.97H30.4l-3.9 3.91v5.52l3.9 3.9h5.52l3.91-3.9v-5.52l-3.91-3.91z"/><path d="M36.15 234.85h-6L26 230.63v-6l4.22-4.23h6l4.23 4.23v6zm-5.52-1.1h5.06l3.58-3.58v-5.06l-3.58-3.58h-5.06l-3.58 3.58v5.06z" fill="#7c3990"/><path transform="rotate(-22.5 29.5423 218.9245)" fill="#7c3990" d="M29 216.69h1.11v4.45H29z"/><path transform="rotate(-67.49 36.7844 218.9207)" fill="#7c3990" d="M34.55 218.36H39v1.11h-4.45z"/><path transform="rotate(-22.51 41.8795 224.009)" fill="#7c3990" d="M39.66 223.47h4.45v1.11h-4.45z"/><path transform="rotate(-67.5 41.877 231.2438)" fill="#7c3990" d="M41.33 229.02h1.11v4.45h-1.11z"/><path transform="rotate(-22.5 36.7884 236.3582)" fill="#7c3990" d="M36.22 234.13h1.11v4.45h-1.11z"/><path transform="rotate(-67.49 29.5606 236.3612)" fill="#7c3990" d="M27.32 235.8h4.45v1.11h-4.45z"/><path transform="rotate(-22.51 24.4328 231.2203)" fill="#7c3990" d="M22.22 230.7h4.45v1.11h-4.45z"/><path transform="rotate(-67.5 24.4395 224.0194)" fill="#7c3990" d="M23.89 221.8H25v4.45h-1.11z"/><path d="M37.86 239h-9.39l-6.64-6.64v-9.39l6.64-6.63h9.39l6.63 6.63v9.39zm-8.93-1.11h8.47l6-6v-8.49l-6-6h-8.47l-6 6v8.47z" fill="#7c3990"/><path fill="#da1c5c" stroke="#7c3990" stroke-miterlimit="10" d="M180.64 192.25h7.26v5.74h-7.26z"/><path fill="none" stroke="#7c3990" stroke-miterlimit="10" d="M196.63 267.93v14.6M211.78 267.93v14.6M235.08 276.73l-5.74 5.74h-50.27l-5.74-5.74"/><path fill="#fff" stroke="#7d3990" stroke-miterlimit="10" d="M366.14 211.44h-41.69v3.34h41.69"/><path fill="none" stroke="#7c3990" stroke-miterlimit="10" d="M324.45 214.77l19 31.46M324.45 246.23l19-31.46M343.35 214.77l18.99 31.46M343.35 246.23l18.99-31.46"/><path fill="#fff" stroke="#7c3990" stroke-miterlimit="10" d="M366.14 246.23h-41.69v3.74h41.69"/><path transform="rotate(90 308.01 230.81)" fill="#e9b7d5" stroke="#7d3990" stroke-miterlimit="10" d="M284.84 214.37h46.33v32.88h-46.33z"/><path fill="#ee2a7b" stroke="#7d3990" stroke-miterlimit="10" d="M324.45 207.64v46.33M343.45 214.77v31.46M297.88 216.24h7.81M297.88 219.16h7.81M297.88 222.08h7.81M297.88 224.99h7.81M297.88 227.91h7.81M313.02 216.16l-1.2 1.19 1.2 1.19"/><circle cx="315" cy="217.35" r="2.58" fill="#ee2a7b" stroke="#7d3990" stroke-miterlimit="10"/><path fill="#ee2a7b" stroke="#7d3990" stroke-miterlimit="10" d="M313.87 228.47l1.23 1.16 1.15-1.23"/><circle cx="315" cy="226.46" r="2.58" fill="#ee2a7b" stroke="#7d3990" stroke-miterlimit="10"/><path transform="rotate(90 306.165 245.595)" fill="#ee2a7b" d="M303.71 243.14h4.92v4.92h-4.92z"/><path transform="rotate(90 301.125 245.595)" fill="#ee2a7b" d="M298.67 243.14h4.92v4.92h-4.92z"/><path transform="rotate(90 306.165 240.675)" fill="#ee2a7b" d="M303.71 238.22h4.92v4.92h-4.92z"/><path transform="rotate(90 316.015 245.725)" fill="#fff" d="M313.56 243.27h4.92v4.92h-4.92z"/><path transform="rotate(90 316.07 240.68)" fill="#fff" d="M313.61 238.22h4.92v4.92h-4.92z"/><path fill="#ee2a7b" stroke="#7d3990" stroke-miterlimit="10" d="M303.61 248.2v-9.98M308.66 248.2v-9.98M298.69 243.22h19.95M313.71 248.2v-9.98"/><path transform="rotate(90 308.72 243.21)" fill="none" stroke="#7d3990" stroke-miterlimit="10" d="M303.73 233.18h9.98v20.07h-9.98z"/><path fill="none" stroke="#7c3990" stroke-miterlimit="10" opacity=".28" d="M279.79 245.34h11.78M276.38 242.11h15.19M273.2 238.88h18.37M272.1 235.65h19.47M272.1 232.42h19.47M272.1 229.19h19.47M272.1 225.96h19.47M273.2 222.73h18.37M276.43 219.5h15.14M279.66 216.27h11.91"/><path d="M259.15 376.45a14.35 14.35 0 0 1 21.13 1.31l7.42 9.24a14.35 14.35 0 0 0 21.21 1.24l42.48-41.63a9.46 9.46 0 0 1 13.36.12L397.53 380a14.36 14.36 0 0 0 19 1.29L456 350.82a7 7 0 0 1 8.14-.27L518.28 387a14.34 14.34 0 0 0 19.1-2.8l28.4-34.62a8 8 0 0 1 12-.31L602.12 376a14.36 14.36 0 0 0 21.4-.19l34.71-39.55a9.29 9.29 0 0 1 13.94 0l51.71 58.3a14.35 14.35 0 0 0 21 .5 14.35 14.35 0 0 1 22.29 2.2l62.37 69.37H158.32z" fill="#fff" id="VEmhXb"/><path d="M336.21 398.42l19.35 19.08a13.24 13.24 0 0 0 17.26 1.15l30.66-23.09a3.24 3.24 0 0 1 4.09.17l21.34 18.95a13.24 13.24 0 0 0 17.44.13l36.82-31.76a13.23 13.23 0 0 1 17.47.15l40.15 35.87a13.23 13.23 0 0 0 16.81.69l30.31-22.95a3.6 3.6 0 0 1 4.36 0l40 30.21a6.61 6.61 0 0 0 7.65.22l18.84-12.56a6.61 6.61 0 0 1 7.55.15L703.6 442a6.71 6.71 0 0 0 7.95 0l4.47-3.32a6.71 6.71 0 0 1 8.72.61l27.7 27.35h-503.6l78.1-68.46a6.81 6.81 0 0 1 9.27.24z" fill="#0fa049" id="VEmhXb-2" data-name="VEmhXb"/><path fill="#e6cbe2" stroke="#7d3990" stroke-miterlimit="10" d="M812.71 294.12l-13.92-7.68-35.96 65.15-250.88-.09-.02 15.89 260.23.11 40.55-73.38z"/><path fill="#e6cbe2" stroke="#7d3990" stroke-miterlimit="10" d="M754.5 291.11v8.83h77.34v-8.83"/><path transform="rotate(180 793.17 286.92)" fill="#da1c5c" stroke="#7c3990" stroke-miterlimit="10" d="M737.73 282.38h110.89v9.08H737.73z"/><path fill="none" stroke="#7c3990" stroke-miterlimit="10" d="M816.85 194.37v14.45"/><path transform="rotate(-180 816.85 220.66)" fill="#e6cbe2" stroke="#7c3990" stroke-miterlimit="10" d="M809.59 212.76h14.51v15.8h-14.51z"/><path transform="rotate(-180 816.85 208.215)" fill="#da1c5c" stroke="#7c3990" stroke-miterlimit="10" d="M813.22 203.67h7.26v9.09h-7.26z"/><path fill="#da1c5c" stroke="#7c3990" stroke-miterlimit="10" d="M760.84 244.89l22.92-23.04H809.54l22.92 23.04-22.92 23.04h-25.78l-22.92-23.04z"/><path fill="#f6ebf4" stroke="#7d3990" stroke-miterlimit="10" d="M760.84 244.89l22.92-23.04H809.54l22.92 23.04"/><path fill="none" stroke="#7d3990" stroke-miterlimit="10" d="M803.85 254.51l5.69 13.42M813.41 244.89h19.05M803.84 235.27l5.7-13.42M789.46 254.51l-5.7 13.42M779.9 244.89h-19.06M789.46 235.27l-5.7-13.42"/><path fill="#e6cbe2" stroke="#7d3990" stroke-miterlimit="10" d="M779.9 244.89l9.56-9.62h14.38l9.56 9.62-9.55 9.62h-14.39l-9.56-9.62z"/><path fill="none" stroke="#7c3990" stroke-miterlimit="10" d="M816.31 228.56h154.76M971.07 228.56l-154.76 32.56M938.31 228.56l-8.89 8.89M918.38 228.56l-14.04 14.04M895.57 228.56l-20.35 20.35M871.56 228.56l-26.51 26.51M867.28 250.4l-21.7-21.7M893.44 244.89l-17.09-17.09M916.55 239.55l-10.74-10.75M837.45 228.56l-10.65 10.65M826.91 250.46l7.39 7.39M943.76 234.53l-5.71-5.71"/><path fill="#e6cae2" d="M963.49 216.86h8.93l6.31 6.31v8.93l-6.31 6.31h-8.93l-6.31-6.31v-8.93l6.31-6.31z"/><path d="M956.62 232.33v-9.39l6.64-6.63h9.39l6.64 6.63v9.39l-6.64 6.67h-9.39zm21.56-.46v-8.47l-6-6h-8.47l-6 6v8.47l6 6h8.47z" fill="#7c3990"/><path fill="#b87bb5" d="M972.42 216.86h-8.93l-6.31 6.31v8.93l6.31 6.31h8.93l-1.7-4.11v-13.33l1.7-4.11z"/><path fill="#c093c3" d="M965.2 220.97h5.52l3.9 3.91v5.52l-3.9 3.9h-5.52l-3.91-3.9v-5.52l3.91-3.91z"/><path d="M960.74 230.63v-6l4.23-4.23h6l4.23 4.23v6l-4.23 4.22h-6zm13.32-.46v-5.06l-3.57-3.58h-5.06l-3.58 3.58v5.06l3.58 3.58h5.06z" fill="#7c3990"/><path transform="rotate(-67.5 971.5523 218.9196)" fill="#7c3990" d="M969.34 218.36h4.45v1.11h-4.45z"/><path transform="rotate(-22.51 964.2572 218.9246)" fill="#7c3990" d="M963.79 216.69h1.11v4.45h-1.11z"/><path transform="rotate(-67.49 959.2638 224.0116)" fill="#7c3990" d="M958.68 221.8h1.11v4.45h-1.11z"/><path transform="rotate(-22.5 959.2989 231.2415)" fill="#7c3990" d="M957.01 230.7h4.45v1.11h-4.45z"/><path transform="rotate(-67.5 964.3229 236.3647)" fill="#7c3990" d="M962.12 235.8h4.45v1.11h-4.45z"/><path transform="rotate(-22.51 971.4734 236.3463)" fill="#7c3990" d="M971.01 234.13h1.11v4.45h-1.11z"/><path transform="rotate(-67.49 976.7043 231.2354)" fill="#7c3990" d="M976.12 229.02h1.11v4.45h-1.11z"/><path transform="rotate(-22.5 976.7275 224.0206)" fill="#7c3990" d="M974.45 223.47h4.45v1.11h-4.45z"/><path d="M956.62 232.33v-9.39l6.64-6.63h9.39l6.64 6.63v9.39l-6.64 6.67h-9.39zm21.56-.46v-8.47l-6-6h-8.47l-6 6v8.47l6 6h8.47z" fill="#7c3990"/><path transform="rotate(-180 816.85 195.12)" fill="#da1c5c" stroke="#7c3990" stroke-miterlimit="10" d="M813.22 192.25h7.26v5.74h-7.26z"/><path fill="none" stroke="#7c3990" stroke-miterlimit="10" d="M804.49 267.93v14.6M789.34 267.93v14.6M766.04 276.73l5.74 5.74h50.27l5.74-5.74"/><path fill="#cf82aa" stroke="#663695" stroke-miterlimit="10" d="M451.85 322.7l9.35 16.2h75.87l9.35-16.2"/><path fill="#ee2a7b" stroke="#a02373" stroke-miterlimit="10" d="M598.67 323.32h-31.22"/><path fill="#fff" stroke="#7d3990" stroke-miterlimit="10" d="M634.98 211.44h41.69v3.34h-41.69"/><path fill="none" stroke="#7c3990" stroke-miterlimit="10" d="M676.67 214.77l-19 31.46M676.67 246.23l-19-31.46M657.77 214.77l-18.99 31.46M657.77 246.23l-18.99-31.46"/><path fill="#fff" stroke="#7c3990" stroke-miterlimit="10" d="M634.98 246.23h41.69v3.74h-41.69"/><path transform="rotate(90 693.105 230.805)" fill="#e9b7d5" stroke="#7d3990" stroke-miterlimit="10" d="M669.94 214.37h46.33v32.88h-46.33z"/><path fill="#ee2a7b" stroke="#7d3990" stroke-miterlimit="10" d="M676.67 207.64v46.33M657.67 214.77v31.46M703.24 216.24h-7.82M703.24 219.16h-7.82M703.24 222.08h-7.82M703.24 224.99h-7.82M703.24 227.91h-7.82M688.1 216.16l1.19 1.19-1.19 1.19"/><circle cx="686.12" cy="217.35" r="2.58" fill="#ee2a7b" stroke="#7d3990" stroke-miterlimit="10"/><path fill="#ee2a7b" stroke="#7d3990" stroke-miterlimit="10" d="M687.25 228.47l-1.23 1.16-1.15-1.23"/><circle cx="686.12" cy="226.46" r="2.58" fill="#ee2a7b" stroke="#7d3990" stroke-miterlimit="10"/><path transform="rotate(90 694.955 245.595)" fill="#ee2a7b" d="M692.5 243.14h4.92v4.92h-4.92z"/><path transform="rotate(90 694.955 240.675)" fill="#fce9f1" d="M692.5 238.22h4.92v4.92h-4.92z"/><path transform="rotate(90 685.05 240.68)" fill="#ee2a7b" d="M682.59 238.22h4.92v4.92h-4.92z"/><path fill="#ee2a7b" stroke="#7d3990" stroke-miterlimit="10" d="M697.51 248.2v-9.98M692.46 248.2v-9.98M702.43 243.22h-19.95M687.41 248.2v-9.98"/><path transform="rotate(90 692.39 243.21)" fill="none" stroke="#7d3990" stroke-miterlimit="10" d="M687.4 233.18h9.98v20.07h-9.98z"/><path fill="#544b9f" stroke="#a02373" stroke-miterlimit="10" d="M567.45 323.32h90.69V123.91h-315v199.41h35.49"/><path fill="#cf82aa" stroke="#663695" stroke-miterlimit="10" d="M567.45 323.32h90.69V123.91h-315v199.41h224.31z"/><path fill="#ebb8d5" d="M350.13 316.43l-6.99 6.89V123.91h314.45l-6.45 6.88H350.13v185.64z"/><path fill="#544b9f" stroke="#663795" stroke-miterlimit="10" d="M350.14 130.79h301v185.64h-301z"/><path fill="#ebb8d5" stroke="#663695" stroke-miterlimit="10" d="M451.85 323.62l9.35 15.28h37.94v-15.58l-47.29.3z"/><path fill="none" stroke="#a02373" stroke-miterlimit="10" d="M598.67 323.32h-31.22"/><path fill="#ebb8d5" stroke="#663695" stroke-miterlimit="10" d="M488.52 338.9h23.45v95.87h-23.45z"/><path fill="#ebb8d5" stroke="#7d3990" stroke-miterlimit="10" d="M576.43 441.65H420.8l2.82-6.89h150.23l2.58 6.89z"/><path fill="#da1c5c" stroke="#7c3990" stroke-miterlimit="10" d="M586.55 466.6l-10.12-25.01H420.8l-10.26 24.69"/><path fill="#663695" opacity=".28" d="M488.52 338.9h23.45v7.97h-23.45zM791.44 299.94l-2.27 4.11h12.04l-32.77 57.82H517.41l-5.37-10.36v15.99h260.14l37.4-67.56h-18.14z"/><path fill="#e6cbe2" stroke="#7d3990" stroke-miterlimit="10" d="M246 291.11v8.83h-77.34v-8.83"/><path fill="#da1c5c" stroke="#7c3990" stroke-miterlimit="10" d="M151.89 282.38h110.89v9.08H151.89z"/><path d="M754.19 54c5.67 2.46 7.36 11.15 3.78 19.41s-14.23 18.27-19.9 15.82-5.91-16.39-3.34-24.79C738 53.75 748.53 51.57 754.19 54zM51.08 313a15.28 15.28 0 1 1 14-27.16c7.5 3.87 14.49 19.35 10.62 26.85s-17.12 4.18-24.62.31z" fill="#dff2f4"/><path d="M912.19 318.57a43.2 43.2 0 0 0-39.87 26.55 4.53 4.53 0 0 1-7.13 1.79 19.7 19.7 0 0 0-31.74 8.86 4.57 4.57 0 0 0 4.35 6h112.73a4.58 4.58 0 0 0 4.55-5.1 43.2 43.2 0 0 0-42.89-38.1zM690.43 159.51a7.71 7.71 0 0 1 7.2 5 2 2 0 0 1-1.92 2.77h-10.57a2.05 2.05 0 0 1-1.92-2.77 7.71 7.71 0 0 1 7.21-5zM631.15 71.92a10.64 10.64 0 0 1 9.92 6.81 2.83 2.83 0 0 1-2.65 3.82h-14.55a2.82 2.82 0 0 1-2.64-3.82 10.62 10.62 0 0 1 9.92-6.81zM707.5 323.54a7.27 7.27 0 0 1 6.78 4.65 1.93 1.93 0 0 1-1.81 2.61h-9.94a1.93 1.93 0 0 1-1.81-2.61 7.27 7.27 0 0 1 6.78-4.65zM809.13 351.9a9.86 9.86 0 0 0-9.2 6.31 2.62 2.62 0 0 0 2.45 3.54h13.5a2.62 2.62 0 0 0 2.46-3.54 9.88 9.88 0 0 0-9.21-6.31zM154.56 363.91a35.18 35.18 0 0 0-25 10.35 11.05 11.05 0 0 1-17.06-1.72 48.31 48.31 0 0 0-40.39-21.76c-17.32 0-32.69 10.91-42.69 24.23C19.71 388 20 399.24 27 399.24h149.17c8.07 0 13.64-8.48 10-15.71a35.32 35.32 0 0 0-31.61-19.62zM803.31 146.16A19.61 19.61 0 0 0 784.07 162a3.17 3.17 0 0 0 3.14 3.73h32.2a3.16 3.16 0 0 0 3.13-3.73 19.59 19.59 0 0 0-19.23-15.84zM742.7 272.93a14.11 14.11 0 0 0-10 4.11 4.47 4.47 0 0 1-6.89-.69 19.44 19.44 0 0 0-33.2 1.32 4.31 4.31 0 0 1-5.85 1.58 8.88 8.88 0 0 0-11.8 3.38 3 3 0 0 0 2.6 4.47h75.53a3.27 3.27 0 0 0 3.12-4.23 14.18 14.18 0 0 0-13.51-9.94z" fill="#fff"/><path d="M943.25 179c1.93 5.93-2.74 19.7-10.42 22.2s-15.48-7.22-17.41-13.15-5.52-26.74 2.16-29.24S941.33 173 943.25 179z" fill="#dff2f4"/><path fill="none" stroke="#fff" stroke-miterlimit="10" d="M499.14 32.79v37.57M513.04 41.79l-5.11 22.37M528.15 42.96l-15.11 27.89M485.23 41.79l5.11 22.37M470.12 42.96l15.11 27.89"/><path d="M180.86 72.88c2.93-8.67 21.33-14.88 30-11.94s16.64 15.64 13.7 24.32-15.67 10-24.34 7.09-22.3-10.79-19.36-19.47z" fill="#dff2f4"/><path fill="#544b9f" stroke="#663795" stroke-miterlimit="10" d="M350.14 130.79l-6.95-6.94M651.14 130.79l7-6.88M651.14 316.43l7 6.89M350.14 316.43l-7 6.89"/><path fill="none" stroke="#663695" stroke-miterlimit="10" d="M567.45 323.32h90.69V123.91h-315v199.41h224.31z"/><path d="M504.39 415l.67-2.17-2.13.8a5.07 5.07 0 1 0 1.46 1.37z" fill="#cf82aa" stroke="#663695" stroke-miterlimit="10"/><circle cx="500.25" cy="417.89" r="2.93" fill="#da1c5c" stroke="#7c3990" stroke-miterlimit="10"/><path d="M497.51 355.27l-2.14-.77.7 2.17a5.06 5.06 0 1 0 1.44-1.4z" fill="#cf82aa" stroke="#663695" stroke-miterlimit="10"/><circle cx="500.25" cy="359.54" r="2.93" fill="#da1c5c" stroke="#7c3990" stroke-miterlimit="10"/><path fill="#da1c5c" stroke="#7c3990" stroke-miterlimit="10" d="M495.24 406.64v-11.07M497.75 406.64v-11.07M500.25 406.64v-11.07M502.76 406.64v-11.07M505.26 406.64v-11.07"/><path fill="#e6cbe2" d="M495.18 370.88h5.08v4.3h-5.08zM495.23 385.42h5.08v4.3h-5.08z"/><path fill="#da1c5c" d="M500.37 380.61h5.08v4.3h-5.08zM495.39 375.64h5.08v4.3h-5.08z"/><path fill="none" stroke="#7c3990" stroke-miterlimit="10" d="M495.18 370.88h10.15v18.9h-10.15zM495.18 375.38h10.15M495.18 380.33h10.15M495.18 385.29h10.15M500.25 389.78v-18.9"/><path fill="#dc5267" stroke="#491144" stroke-miterlimit="10" d="M361.13 221.87l29.56-29.62 13.66 13.37L418 192.26l29.62 29.61-43.27 44.62-43.22-44.62z"/><path fill="#ab0d48" d="M447.62 221.87l-43.27 44.62v-10.98l32.54-33.64h10.73zM447.62 221.87L418 192.26l-.06 10.75 18.95 18.86h10.73zM404.35 205.62l-13.61-13.27-.06 10.75 13.67 13.21v-10.69z"/><path fill="#da1c5c" stroke="#491144" stroke-miterlimit="10" d="M417.94 203.01l-13.59 13.3-13.6-13.3-18.9 18.94 32.5 33.56 32.54-33.56-18.95-18.94zM417.94 203.01l.06-10.75M404.35 205.62v10.69M390.69 192.25l.06 10.76M404.35 255.51l-.01 10.98M436.89 221.95l10.73-.08M361.13 221.87l10.72.08"/><path fill="none" stroke="#491144" stroke-miterlimit="10" d="M361.13 221.87l29.56-29.62 13.66 13.37L418 192.26l29.62 29.61-43.27 44.62-43.22-44.62z"/><path fill="#dc5267" stroke="#491144" stroke-miterlimit="10" d="M458.44 221.87L488 192.25l13.66 13.37 13.65-13.36 29.62 29.61-43.27 44.62-43.22-44.62z"/><path fill="#ab0d48" d="M544.93 221.87l-43.27 44.62v-10.98l32.54-33.64h10.73zM544.93 221.87l-29.62-29.61-.05 10.75 18.94 18.86h10.73zM501.66 205.62l-13.61-13.27-.06 10.75 13.67 13.21v-10.69z"/><path fill="#da1c5c" stroke="#491144" stroke-miterlimit="10" d="M515.26 203.01l-13.6 13.3-13.6-13.3-18.9 18.94 32.5 33.56 32.54-33.56-18.94-18.94zM515.26 203.01l.05-10.75M501.66 205.62v10.69M488 192.25l.06 10.76M501.66 255.51v10.98M534.2 221.95l10.73-.08M458.44 221.87l10.72.08"/><path fill="none" stroke="#491144" stroke-miterlimit="10" d="M458.44 221.87L488 192.25l13.66 13.37 13.65-13.36 29.62 29.61-43.27 44.62-43.22-44.62z"/><path fill="#fff" opacity=".06" d="M397.74 316.8l181.32-184.89-22.33-.09-178.5 184.98h19.51z"/><path fill="#ee2a7b" stroke="#a02373" stroke-miterlimit="10" d="M648.57 466.6V341.97l12.77-12.71 12.78 12.71V466.6"/><path fill="#fce9f1" stroke="#a02373" stroke-linejoin="bevel" d="M648.57 466.6V341.97l12.77-12.71.02 12.71V466.6"/><path fill="#e9b7d5" stroke="#a02373" stroke-miterlimit="10" d="M656.01 466.6V345.13l5.33-5.3 5.34 5.3V466.6"/><path fill="none" stroke="#a02373" stroke-miterlimit="10" d="M666.68 345.13l7.44-3.16M661.34 339.83v-10.57M656.01 345.13l-7.44-3.16"/><path d="M662.13 458.29h-1.57v-4.7h1.57zm0-9.4h-1.57v-4.7h1.57zm0-9.4h-1.57v-4.71h1.57zm0-9.41h-1.57v-4.7h1.57zm0-9.4h-1.57V416h1.57zm0-9.4h-1.57v-4.7h1.57zm0-9.41h-1.57v-4.7h1.57zm0-9.4h-1.57v-4.7h1.57zm0-9.4h-1.57v-4.7h1.57zm0-9.4h-1.57V369h1.57zm0-9.41h-1.57v-4.7h1.57z" fill="#a02373"/><path fill="#a02373" stroke="#a02373" stroke-miterlimit="10" opacity=".4" d="M648.59 466.6V342.08l12.77-12.71 12.78 12.71V466.6"/><path fill="#ee2a7b" stroke="#a02373" stroke-miterlimit="10" d="M593.96 466.13v-82.36l17.5-17.41 17.5 17.41v59.44l6.99 6.97v16.42"/><path fill="#fce9f1" stroke="#a02373" stroke-linejoin="bevel" d="M593.96 466.6v-82.83l17.5-17.41.03 17.41v82.36"/><path fill="#e9b7d5" stroke="#a02373" stroke-miterlimit="10" d="M604.15 466.6v-78.49l7.31-7.27 7.31 7.26v78.5"/><path fill="none" stroke="#a02373" stroke-miterlimit="10" d="M618.77 388.1l10.19-4.33M611.46 380.84v-14.48M604.15 388.11l-10.19-4.34"/><path d="M609.83 432.36h-1.57v-4.7h1.57zm0-9.4h-1.57v-4.7h1.57zm0-9.41h-1.57v-4.7h1.57zm0-9.4h-1.57v-4.7h1.57zM614.65 460.57h-1.56v-4.7h1.56zm0-9.4h-1.56v-4.7h1.56zm0-9.41h-1.56v-4.7h1.56zm0-9.4h-1.56v-4.7h1.56zm0-9.4h-1.56v-4.7h1.56zm0-9.41h-1.56v-4.7h1.56zm0-9.4h-1.56v-4.7h1.56z" fill="#a02373"/><path fill="#ee2a7b" stroke="#a02373" stroke-miterlimit="10" d="M280.68 466.6V351.58l13.94-13.86 13.94 13.86v66.16l10.65 10.62v38.17"/><path fill="#fce9f1" stroke="#a02373" stroke-linejoin="bevel" d="M280.68 466.6V351.58l13.94-13.86.02 13.86V466.6"/><path fill="#e9b7d5" stroke="#a02373" stroke-miterlimit="10" d="M288.8 466.6V355.03l5.82-5.78 5.82 5.78V466.6"/><path fill="none" stroke="#a02373" stroke-miterlimit="10" d="M300.44 355.03l8.12-3.45M294.62 349.25v-11.53M288.8 355.03l-8.12-3.45"/><path d="M295.5 461.94h-1.57v-4.7h1.57zm0-9.4h-1.57v-4.7h1.57zm0-9.4h-1.57v-4.7h1.57zm0-9.41h-1.57V429h1.57zm0-9.4h-1.57v-4.7h1.57zm0-9.4h-1.57v-4.7h1.57zm0-9.4h-1.57v-4.71h1.57zm0-9.41h-1.57v-4.7h1.57zm0-9.4h-1.57V382h1.57zm0-9.4h-1.57v-4.7h1.57zm0-9.41h-1.57v-4.7h1.57z" fill="#a02373"/><path fill="#ee2a7b" stroke="#a02373" stroke-miterlimit="10" d="M682.99 466.6v-14.49l12.77-12.71 12.78 12.71v14.49"/><path fill="#fce9f1" stroke="#a02373" stroke-linejoin="bevel" d="M682.99 466.6v-14.49l12.77-12.71.02 12.71v14.49"/><path fill="#e9b7d5" stroke="#a02373" stroke-miterlimit="10" d="M690.43 466.6v-11.33l5.33-5.31 5.34 5.3v11.34"/><path fill="none" stroke="#a02373" stroke-miterlimit="10" d="M701.1 455.26l7.44-3.16M695.76 449.96V439.4M690.43 455.27l-7.44-3.17"/><path fill="#a02373" d="M694.98 456.56h1.57v4.7h-1.57z"/><path fill="#ee2a7b" stroke="#a02373" stroke-miterlimit="10" d="M229.41 466.46V383l13.17-13.11L255.75 383v83.46"/><path fill="#ee2a7b" stroke="#a02373" stroke-miterlimit="10" d="M227.88 466.46v-83.93l13.94-13.86 13.93 13.86v83.93"/><path fill="#fce9f1" stroke="#a02373" stroke-linejoin="bevel" d="M241.84 466.46v-83.93l-.02-13.86-13.94 13.86v41.23l-6.22 6.21v36.63"/><path fill="#e9b7d5" stroke="#a02373" stroke-miterlimit="10" d="M236 466.46v-80.48l5.82-5.78 5.82 5.78v80.48"/><path fill="none" stroke="#a02373" stroke-miterlimit="10" d="M247.64 385.98l8.11-3.45M241.82 380.2v-11.53M236 385.98l-8.12-3.45"/><path d="M242.7 461.64h-1.57v-4.14h1.57zm0-8.85h-1.57v-4.7h1.57zm0-9.4h-1.57v-4.7h1.57zm0-9.4h-1.57v-4.7h1.57zm0-9.4h-1.57v-4.71h1.57zm0-9.41h-1.57v-4.7h1.57zm0-9.4h-1.57v-4.7h1.57zm0-9.4h-1.57v-4.7h1.57zM229.43 461.64h-1.57v-4.14h1.57zm0-8.85h-1.57v-4.7h1.57zm0-9.4h-1.57v-4.7h1.57zm0-9.4h-1.57v-4.7h1.57z" fill="#a02373"/><path fill="#a02373" opacity=".4" d="M221.88 466.46v-36.49l6-6.21v-41.23l13.94-13.86 13.93 13.86v83.93"/><path fill="#ee2a7b" stroke="#a02373" stroke-miterlimit="10" d="M353.75 466.6v-80.19l16.55-16.45 16.53 16.45v80.19"/><path fill="#ee2a7b" stroke="#a02373" stroke-miterlimit="10" d="M351.83 466.6v-80.77l17.5-17.41 17.5 17.41v80.77"/><path fill="#fce9f1" stroke="#a02373" stroke-linejoin="bevel" d="M346.14 466.6v-14.71l5.69-5.74v-60.32l17.5-17.41.03 17.41v80.77"/><path fill="#e9b7d5" stroke="#a02373" stroke-miterlimit="10" d="M362.02 466.6v-76.44l7.31-7.27 7.31 7.27v76.44"/><path fill="none" stroke="#a02373" stroke-miterlimit="10" d="M376.64 390.16l10.19-4.33M369.33 382.89v-14.47M362.02 390.16l-10.19-4.33"/><path d="M372.53 461.07H371v-4.7h1.57zm0-9.4H371V447h1.57zm0-9.4H371v-4.7h1.57zm0-9.41H371v-4.7h1.57zm0-9.4H371v-4.7h1.57zm0-9.4H371v-4.7h1.57zm0-9.4H371V400h1.57zM367.7 461.07h-1.56v-4.7h1.56zm0-9.4h-1.56V447h1.56zm0-9.4h-1.56v-4.7h1.56zm0-9.41h-1.56v-4.7h1.56zm0-9.4h-1.56v-4.7h1.56zm0-9.4h-1.56v-4.7h1.56zm0-9.4h-1.56V400h1.56z" fill="#a02373"/><path fill="#ee2a7b" stroke="#a02373" stroke-miterlimit="10" d="M723.39 466.6v-77.4l13.45-13.38 13.45 13.38v77.4"/><path fill="#ee2a7b" stroke="#a02373" stroke-miterlimit="10" d="M721.82 466.6v-77.87l14.24-14.16 14.23 14.16v77.87"/><path fill="#fce9f1" stroke="#a02373" stroke-linejoin="bevel" d="M736.08 466.6v-77.87l-.02-14.16-14.24 14.16v42.1l-6.34 6.35v29.42"/><path fill="#e9b7d5" stroke="#a02373" stroke-miterlimit="10" d="M730.11 466.6v-74.35l5.95-5.91 5.94 5.91v74.35"/><path fill="none" stroke="#a02373" stroke-miterlimit="10" d="M742 392.25l8.29-3.52M736.06 386.34v-11.77M730.11 392.25l-8.29-3.52"/><path d="M737 460.49h-1.6v-4.8h1.6zm0-9.6h-1.6v-4.81h1.6zm0-9.61h-1.6v-4.8h1.6zm0-9.6h-1.6v-4.8h1.6zm0-9.61h-1.6v-4.8h1.6zm0-9.6h-1.6v-4.8h1.6zm0-9.6h-1.6v-4.8h1.6zM723.4 460.49h-1.6v-4.8h1.6zm0-9.6h-1.6v-4.81h1.6zm0-9.61h-1.6v-4.8h1.6z" fill="#a02373"/><path fill="#a02373" opacity=".4" d="M715.69 466.6v-29.42l6.13-6.35v-42.1l14.24-14.16 14.23 14.16v77.87"/><path fill="#ee2a7b" stroke="#a02373" stroke-miterlimit="10" d="M757.23 466.6v-25.33l13.05-12.98 13.05 12.98v25.33"/><path fill="#fce9f1" stroke="#a02373" stroke-linejoin="bevel" d="M757.23 466.6v-25.33l13.05-12.98.02 12.98v25.33"/><path fill="#e9b7d5" stroke="#a02373" stroke-miterlimit="10" d="M764.83 466.6v-22.1l5.45-5.42 5.45 5.42v22.1"/><path fill="none" stroke="#a02373" stroke-miterlimit="10" d="M775.73 444.5l7.6-3.23M770.28 439.08v-10.79M764.83 444.5l-7.6-3.23"/><path d="M771.08 464.05h-1.6v-4.8h1.6zm0-9.6h-1.6v-4.8h1.6z" fill="#a02373"/><path fill="none" stroke="#7c3990" stroke-miterlimit="10" opacity=".28" d="M721.32 245.34h-11.77M724.73 242.11h-15.18M727.92 238.88h-18.37M729.01 235.65h-19.46M729.01 232.42h-19.46M729.01 229.19h-19.46M729.01 225.96h-19.46M727.92 222.73h-18.37M724.69 219.5h-15.14M721.46 216.27h-11.91"/></g></g></svg>