<svg id="Layer_1" data-name="Layer 1" xmlns="http://www.w3.org/2000/svg" width="160.56" height="69.56" viewBox="0 0 160.56 69.56"><title>Artboard 1</title><path d="M159.66,58.2c-31.18-8.94-60.13,8.93-91.27,0V30.35c31.14,8.93,60.09-8.94,91.27,0Z" style="fill:#ee2a7b"/><path d="M78.43,45.51a2.7,2.7,0,0,0,2,.87c.9,0,1.38-.34,1.38-.89s-.3-.59-.67-.71c-.56-.18-1.35-.3-2.06-.59a1.68,1.68,0,0,1-1.29-1.62c0-1.17.92-2,2.59-2a3.29,3.29,0,0,1,2.66,1.1l-1,.89a2.3,2.3,0,0,0-1.71-.69c-.68,0-1.12.22-1.12.63s.29.48.56.58c.57.21,1.41.3,2.11.57a1.84,1.84,0,0,1,1.36,1.82c0,1.43-1.19,2.17-2.88,2.17a3.77,3.77,0,0,1-3-1.25Z" style="fill:#fff"/><path d="M85.42,45.28c.13.86.65,1.21,1.2,1.21a1.08,1.08,0,0,0,.93-.52l.9.78a2.34,2.34,0,0,1-1.91,1c-1.31,0-2.39-1-2.39-2.84s1-2.83,2.32-2.83,2.35,1,2.35,2.8a2.56,2.56,0,0,1,0,.45Zm0-1h2.11c-.14-.69-.53-1-1.06-1S85.56,43.63,85.43,44.3Z" style="fill:#fff"/><path d="M91.19,45.28c.13.86.65,1.21,1.2,1.21a1.08,1.08,0,0,0,.93-.52l.9.78a2.34,2.34,0,0,1-1.91,1c-1.31,0-2.39-1-2.39-2.84s1-2.83,2.32-2.83,2.35,1,2.35,2.8a2.56,2.56,0,0,1,0,.45Zm0-1h2.11c-.14-.69-.53-1-1.06-1S91.33,43.63,91.2,44.3Z" style="fill:#fff"/><path d="M98.69,42.16V40.75l1.36-.46v1.87h1.21v1.1h-1.21v2.59c0,.3.15.46.52.46a1,1,0,0,0,.72-.28l-.22,1.19a1.53,1.53,0,0,1-1.08.4,1.28,1.28,0,0,1-1.3-1.45V43.26h-.63v-1.1Z" style="fill:#fff"/><path d="M103.54,40.18v2.38A2,2,0,0,1,105,42c1.07,0,1.8.61,1.8,2.11v3.43H105.4V44.3c0-.73-.35-1-.9-1a1,1,0,0,0-1,.66v3.61h-1.35V40.64Z" style="fill:#fff"/><path d="M109.28,45.28c.13.86.65,1.21,1.2,1.21a1.08,1.08,0,0,0,.93-.52l.9.78a2.34,2.34,0,0,1-1.91,1c-1.31,0-2.39-1-2.39-2.84S109,42,110.33,42s2.35,1,2.35,2.8a2.56,2.56,0,0,1,0,.45Zm0-1h2.11c-.14-.69-.53-1-1.06-1S109.42,43.63,109.29,44.3Z" style="fill:#fff"/><path d="M117.43,42.16l1.24,3.72,1.23-3.72h1.37l-1.94,5.41H118l-1.94-5.41Z" style="fill:#fff"/><path d="M123.53,40.75a.72.72,0,0,1-.74.75.75.75,0,0,1,0-1.5A.72.72,0,0,1,123.53,40.75Zm-.06,1.41v5.41h-1.35V42.16Z" style="fill:#fff"/><path d="M129.47,40.18v7.39H128.2v-.51a1.88,1.88,0,0,1-1.44.64c-1.44,0-2-1.45-2-2.83s.56-2.84,2-2.84a1.89,1.89,0,0,1,1.35.55V40.64Zm-1.36,5.69v-2a1.19,1.19,0,0,0-1-.59c-.79,0-1.06.73-1.06,1.6s.27,1.6,1.06,1.6A1.18,1.18,0,0,0,128.11,45.87Z" style="fill:#fff"/><path d="M132,45.28c.13.86.65,1.21,1.2,1.21a1.08,1.08,0,0,0,.93-.52l.9.78a2.34,2.34,0,0,1-1.91,1c-1.31,0-2.39-1-2.39-2.84s1-2.83,2.32-2.83,2.35,1,2.35,2.8a2.56,2.56,0,0,1,0,.45Zm0-1h2.11c-.14-.69-.53-1-1.06-1S132.17,43.63,132,44.3Z" style="fill:#fff"/><path d="M141.2,44.87c0,1.85-1,2.83-2.34,2.83s-2.33-1-2.33-2.83,1-2.84,2.33-2.84S141.2,43,141.2,44.87Zm-3.39,0c0,1,.42,1.58,1.05,1.58s1.06-.54,1.06-1.58-.43-1.6-1.06-1.6S137.81,43.82,137.81,44.88Z" style="fill:#fff"/><rect x="147.25" y="40.71" width="1.04" height="5.64" style="fill:#fff"/><rect x="148.44" y="43.59" width="1.04" height="4.39" transform="translate(76 -91.92) rotate(45)" style="fill:#fff"/><rect x="146.07" y="43.59" width="1.04" height="4.39" transform="translate(282.61 -25.5) rotate(135)" style="fill:#fff"/><path d="M36.42,69.23a11.13,11.13,0,0,0,10.89-9.29,26.45,26.45,0,0,0,.39-4.06c.11-2.39.21-4.65,1.4-6.53,2.41-3.8,8.36-4.71,13-3.65l.22-1c-4.81-1.1-11.27-.29-14.05,4.09-1.34,2.11-1.45,4.61-1.55,7a25.15,25.15,0,0,1-.38,3.91,10.11,10.11,0,0,1-11.24,8.4A9.06,9.06,0,0,1,29,64.77a12.42,12.42,0,0,1-2.14-7.36c-.05-1.55,0-3,0-4.53,0-1.11.06-2.27.06-3.55H26c0,1.27,0,2.42-.06,3.53,0,1.54-.08,3,0,4.58.1,3.4.87,6,2.35,7.93A10,10,0,0,0,35,69.13,12.07,12.07,0,0,0,36.42,69.23Z" style="fill:#7c3990"/><rect x="64" y="43.38" width="7.99" height="2.82" transform="translate(136 89.57) rotate(-180)" style="fill:#c093c3"/><path d="M63.83,43.2h8.34v3.17H63.83Zm8,.35H64.18V46h7.64Z" style="fill:#7d3990"/><polygon points="21.73 16.25 21.73 25.2 23.61 25.2 23.61 17.03 21.73 16.25" style="fill:#fde9f1"/><polygon points="25.99 14.18 25.99 11.54 21.99 15.52 23.87 16.29 25.99 14.18" style="fill:#fde9f1"/><polygon points="29.15 16.97 29.15 25.2 31.03 25.2 31.03 16.19 29.15 16.97" style="fill:#ee2a7b"/><polygon points="28.85 16.25 30.73 15.47 26.77 11.54 26.77 14.18 28.85 16.25" style="fill:#ee2a7b"/><polygon points="26.38 14.89 24.39 16.87 24.39 25.2 28.37 25.2 28.37 16.87 26.38 14.89" style="fill:#ebb8d5"/><polygon points="21.73 16.25 21.1 15.99 21.4 15.27 21.99 15.52 25.99 11.54 25.99 10.6 26.77 10.6 26.77 11.54 30.73 15.47 31.21 15.27 31.51 15.99 31.03 16.19 31.03 25.2 31.81 25.2 31.81 15.45 26.38 10.05 20.95 15.45 20.95 25.2 21.73 25.2 21.73 16.25" style="fill:#a02373"/><polygon points="26.38 13.79 26.77 14.18 26.77 11.54 26.77 10.6 25.99 10.6 25.99 11.54 25.99 14.18 26.38 13.79" style="fill:#a02373"/><polygon points="29.15 16.55 29.15 16.97 31.03 16.19 31.51 15.99 31.21 15.27 30.73 15.47 28.85 16.25 29.15 16.55" style="fill:#a02373"/><polygon points="23.61 16.55 23.87 16.29 21.99 15.52 21.4 15.27 21.1 15.99 21.73 16.25 23.61 17.03 23.61 16.55" style="fill:#a02373"/><polygon points="29.15 16.55 28.85 16.25 26.77 14.18 26.38 13.79 25.99 14.18 23.87 16.29 23.61 16.55 23.61 17.03 23.61 25.2 24.39 25.2 24.39 16.87 26.38 14.89 28.37 16.87 28.37 25.2 29.15 25.2 29.15 16.97 29.15 16.55" style="fill:#a02373"/><polygon points="31.79 7.74 20.97 7.74 13.31 15.39 13.31 30.53 20.97 38.19 31.79 38.19 39.45 30.53 39.45 15.39 31.79 7.74" style="fill:none;stroke:#7c3990;stroke-miterlimit:10;stroke-width:0.844885123684936px"/><polyline points="13.31 22.42 13.31 34.91 26.38 47.91 39.45 34.91 39.45 22.42" style="fill:#bd92c2;stroke:#7d398f;stroke-miterlimit:10;stroke-width:0.844885123684936px"/><polyline points="13.31 22.42 13.31 34.91 26.38 47.91 26.4 34.91 26.4 22.42" style="fill:#f5ebf4;stroke:#7d398f;stroke-linejoin:bevel;stroke-width:0.844885123684936px"/><polyline points="31.84 22.42 31.84 31.68 26.38 37.1 20.92 31.68 20.92 22.42" style="fill:#e6cbe2;stroke:#7d398f;stroke-miterlimit:10;stroke-width:0.844885123684936px"/><line x1="31.84" y1="31.68" x2="39.45" y2="34.91" style="fill:none;stroke:#7d398f;stroke-miterlimit:10;stroke-width:0.844885123684936px"/><line x1="26.38" y1="37.1" x2="26.38" y2="47.91" style="fill:none;stroke:#7d398f;stroke-miterlimit:10;stroke-width:0.844885123684936px"/><line x1="20.92" y1="31.68" x2="13.31" y2="34.91" style="fill:none;stroke:#7d398f;stroke-miterlimit:10;stroke-width:0.844885123684936px"/><line x1="13.31" y1="22.42" x2="39.45" y2="22.42" style="fill:none;stroke:#7d398f;stroke-linecap:square;stroke-linejoin:bevel;stroke-width:0.844885123684936px"/><rect x="24" y="45.52" width="4.76" height="3.81" style="fill:#da1c5c;stroke:#7c3990;stroke-miterlimit:10;stroke-width:0.844885123684936px"/><rect x="24" y="45.52" width="2.38" height="3.81" style="fill:#e6cbe2;stroke:#7c3990;stroke-miterlimit:10;stroke-width:0.844885123684936px"/><polygon points="58.98 46.28 58.98 43.29 61.09 41.18 64.08 41.18 66.19 43.29 66.19 46.28 64.08 48.39 61.09 48.39 58.98 46.28" style="fill:#e6cae2"/><path d="M64.15,48.58H61l-2.22-2.23V43.22L61,41h3.14l2.22,2.23v3.13ZM64,41.37H61.17l-2,2V46.2l2,2H64l2-2V43.37Z" style="fill:#7c3990"/><polygon points="58.98 43.29 58.98 46.28 61.09 48.39 64.08 48.39 66.19 46.28 66.19 43.29 64.81 43.86 60.35 43.86 58.98 43.29" style="fill:#b87bb5"/><polygon points="60.35 45.71 60.35 43.86 61.66 42.56 63.51 42.56 64.81 43.86 64.81 45.71 63.51 47.01 61.66 47.01 60.35 45.71" style="fill:#c093c3"/><path d="M63.58,47.2h-2l-1.41-1.42v-2l1.41-1.42h2L65,43.79v2Zm-.15-4.46H61.74l-1.2,1.2v1.69l1.2,1.2h1.69l1.2-1.2V43.94Z" style="fill:#7c3990"/><rect x="59.48" y="42.83" width="0.37" height="1.49" transform="translate(-3.43 82.02) rotate(-67.5)" style="fill:#7c3990"/><rect x="58.92" y="45.81" width="1.49" height="0.37" transform="translate(-13.06 26.34) rotate(-22.51)" style="fill:#7c3990"/><rect x="60.63" y="47.52" width="1.49" height="0.37" transform="translate(-6.19 86.14) rotate(-67.49)" style="fill:#7c3990"/><rect x="63.61" y="46.96" width="0.37" height="1.49" transform="translate(-13.4 28.04) rotate(-22.5)" style="fill:#7c3990"/><rect x="65.31" y="45.25" width="0.37" height="1.49" transform="translate(-2.06 88.91) rotate(-67.5)" style="fill:#7c3990"/><rect x="64.76" y="43.39" width="1.49" height="0.37" transform="translate(-11.69 28.39) rotate(-22.51)" style="fill:#7c3990"/><rect x="63.05" y="41.68" width="1.49" height="0.37" transform="translate(0.69 84.77) rotate(-67.49)" style="fill:#7c3990"/><rect x="61.19" y="41.12" width="0.37" height="1.49" transform="translate(-11.35 26.68) rotate(-22.5)" style="fill:#7c3990"/><path d="M64.15,48.58H61l-2.22-2.23V43.22L61,41h3.14l2.22,2.23v3.13ZM64,41.37H61.17l-2,2V46.2l2,2H64l2-2V43.37Z" style="fill:#7c3990"/><line x1="26.19" y1="1.56" x2="26.19" y2="6.39" style="fill:none;stroke:#7c3990;stroke-miterlimit:10;stroke-width:0.633663842763702px"/><rect x="24.97" y="4.67" width="2.43" height="3.04" style="fill:#da1c5c;stroke:#7c3990;stroke-miterlimit:10;stroke-width:0.844885123684936px"/><polygon points="26.37 2.75 51.2 2.75 51.2 0.85 26.37 2.75" style="fill:#e6cbe2;stroke:#7c3990;stroke-miterlimit:10;stroke-width:0.422442561842468px"/><rect x="24.97" y="0.85" width="2.43" height="1.92" style="fill:#da1c5c;stroke:#7c3990;stroke-miterlimit:10;stroke-width:0.844885123684936px"/><polygon points="25.86 2.75 1.02 2.75 1.02 0.85 25.86 2.75" style="fill:#e6cbe2;stroke:#7c3990;stroke-miterlimit:10;stroke-width:0.422442561842468px"/><rect x="68.46" y="43.38" width="0.35" height="2.82" style="fill:#7d3990"/><rect x="70.39" y="43.38" width="0.35" height="2.82" style="fill:#7d3990"/></svg>