<svg id="BOTTOM_ILLOS" data-name="BOTTOM ILLOS" xmlns="http://www.w3.org/2000/svg" width="67.26" height="173.33" viewBox="0 0 67.26 173.33"><title>Artboard 1_1</title><polygon points="27.81 102.22 27.81 115.47 30.6 115.47 30.6 103.37 27.81 102.22" style="fill:#fde9f1"/><polygon points="34.12 99.16 34.12 95.25 28.2 101.13 30.98 102.28 34.12 99.16" style="fill:#fde9f1"/><polygon points="38.79 103.28 38.79 115.47 41.57 115.47 41.57 102.14 38.79 103.28" style="fill:#ee2a7b"/><polygon points="38.34 102.22 41.13 101.07 35.27 95.25 35.27 99.16 38.34 102.22" style="fill:#ee2a7b"/><polygon points="34.69 100.22 31.75 103.14 31.75 115.47 37.63 115.47 37.63 103.14 34.69 100.22" style="fill:#ebb8d5"/><polygon points="27.81 102.22 26.89 101.84 27.33 100.78 28.2 101.13 34.12 95.25 34.12 93.86 35.27 93.86 35.27 95.25 41.13 101.07 41.84 100.78 42.28 101.84 41.57 102.14 41.57 115.47 42.73 115.47 42.73 101.04 34.69 93.04 26.66 101.04 26.66 115.47 27.81 115.47 27.81 102.22" style="fill:#a02373"/><polygon points="34.69 98.59 35.27 99.16 35.27 95.25 35.27 93.86 34.12 93.86 34.12 95.25 34.12 99.16 34.69 98.59" style="fill:#a02373"/><polygon points="38.79 102.66 38.79 103.28 41.57 102.14 42.28 101.84 41.84 100.78 41.13 101.07 38.34 102.22 38.79 102.66" style="fill:#a02373"/><polygon points="30.6 102.66 30.98 102.28 28.2 101.13 27.33 100.78 26.89 101.84 27.81 102.22 30.6 103.37 30.6 102.66" style="fill:#a02373"/><polygon points="38.79 102.66 38.34 102.22 35.27 99.16 34.69 98.59 34.12 99.16 30.98 102.28 30.6 102.66 30.6 103.37 30.6 115.47 31.75 115.47 31.75 103.14 34.69 100.22 37.63 103.14 37.63 115.47 38.79 115.47 38.79 103.28 38.79 102.66" style="fill:#a02373"/><polygon points="34.69 3.07 6.77 30.84 6.77 40.68 6.77 57.36 6.77 62.09 34.69 89.86 62.6 62.09 62.6 57.36 62.6 40.68 62.6 30.84 34.69 3.07" style="fill:#da1c5c;stroke:#7c3990;stroke-miterlimit:10"/><polyline points="34.69 3.07 6.77 30.84 6.77 40.68 6.77 57.36 6.77 62.09 34.69 89.86" style="fill:#f6ebf4;stroke:#7d3990;stroke-miterlimit:10"/><line x1="46.34" y1="55.18" x2="62.6" y2="62.09" style="fill:none;stroke:#7d3990;stroke-miterlimit:10"/><line x1="34.69" y1="66.77" x2="34.69" y2="89.86" style="fill:none;stroke:#7d3990;stroke-miterlimit:10"/><line x1="23.03" y1="55.18" x2="6.77" y2="62.09" style="fill:none;stroke:#7d3990;stroke-miterlimit:10"/><line x1="46.34" y1="37.74" x2="62.6" y2="30.84" style="fill:none;stroke:#7d3990;stroke-miterlimit:10"/><line x1="34.69" y1="26.16" x2="34.69" y2="3.07" style="fill:none;stroke:#7d3990;stroke-miterlimit:10"/><line x1="23.03" y1="37.75" x2="6.77" y2="30.84" style="fill:none;stroke:#7d3990;stroke-miterlimit:10"/><polygon points="34.69 26.16 23.03 37.75 23.03 40.68 23.03 53.29 23.03 55.18 34.69 66.77 46.34 55.19 46.34 53.29 46.34 40.68 46.34 37.74 34.69 26.16" style="fill:#e6cbe2;stroke:#7d3990;stroke-miterlimit:10"/><polyline points="23.03 108.86 23.03 120 34.69 131.6 46.34 120 46.34 108.86" style="fill:#bd92c2;stroke:#7d3990;stroke-miterlimit:10"/><polyline points="23.03 108.86 23.03 120 34.69 131.6 34.7 120 34.7 108.86" style="fill:#f5ebf4;stroke:#7d3990;stroke-linejoin:bevel"/><polyline points="39.55 108.86 39.55 117.12 34.69 121.96 29.82 117.12 29.82 108.86" style="fill:#e6cbe2;stroke:#7d3990;stroke-miterlimit:10"/><line x1="39.55" y1="117.12" x2="46.34" y2="120.01" style="fill:none;stroke:#7d3990;stroke-miterlimit:10"/><line x1="34.69" y1="121.96" x2="34.69" y2="131.6" style="fill:none;stroke:#7d3990;stroke-miterlimit:10"/><line x1="29.82" y1="117.12" x2="23.03" y2="120.01" style="fill:none;stroke:#7d3990;stroke-miterlimit:10"/><line x1="23.03" y1="108.86" x2="46.34" y2="108.86" style="fill:none;stroke:#7d3990;stroke-linecap:square;stroke-linejoin:bevel"/><line x1="27.32" y1="108.86" x2="27.17" y2="82.43" style="fill:none;stroke:#7d3990;stroke-miterlimit:10"/><line x1="42.05" y1="108.86" x2="42.31" y2="82.33" style="fill:none;stroke:#7d3990;stroke-miterlimit:10"/><line x1="46.34" y1="108.86" x2="51.94" y2="72.69" style="fill:none;stroke:#7d3990;stroke-miterlimit:10"/><line x1="23.03" y1="108.86" x2="17.43" y2="72.69" style="fill:none;stroke:#7d3990;stroke-miterlimit:10"/><polygon points="34.69 3.07 6.77 30.84 6.77 40.68 6.77 57.36 6.77 62.09 34.69 89.86 62.6 62.09 62.6 57.36 62.6 40.68 62.6 30.84 34.69 3.07" style="fill:#da1c5c;stroke:#7c3990;stroke-miterlimit:10"/><polyline points="34.69 3.07 6.77 30.84 6.77 40.68 6.77 57.36 6.77 62.09 34.69 89.86" style="fill:#f6ebf4;stroke:#7d3990;stroke-miterlimit:10"/><line x1="46.34" y1="55.18" x2="62.6" y2="62.09" style="fill:none;stroke:#7d3990;stroke-miterlimit:10"/><line x1="34.69" y1="66.77" x2="34.69" y2="89.86" style="fill:none;stroke:#7d3990;stroke-miterlimit:10"/><line x1="23.03" y1="55.18" x2="6.77" y2="62.09" style="fill:none;stroke:#7d3990;stroke-miterlimit:10"/><line x1="46.34" y1="37.74" x2="62.6" y2="30.84" style="fill:none;stroke:#7d3990;stroke-miterlimit:10"/><line x1="34.69" y1="26.16" x2="34.69" y2="3.07" style="fill:none;stroke:#7d3990;stroke-miterlimit:10"/><line x1="23.03" y1="37.75" x2="6.77" y2="30.84" style="fill:none;stroke:#7d3990;stroke-miterlimit:10"/><polygon points="34.69 26.16 23.03 37.75 23.03 40.68 23.03 53.29 23.03 55.18 34.69 66.77 46.34 55.19 46.34 53.29 46.34 40.68 46.34 37.74 34.69 26.16" style="fill:#e6cbe2;stroke:#7d3990;stroke-miterlimit:10"/><path d="M40.14,126.78l-.87.48,21,38,.87-.48Zm-31.87,38,.87.48,21-38-.87-.48Z" style="fill:#7d3990;fill-rule:evenodd"/></svg>