<svg id="Layer_1" data-name="Layer 1" xmlns="http://www.w3.org/2000/svg" viewBox="0 0 282.73 143.83"><defs><style>.cls-1{fill:#231f20;}.cls-2{fill:#ee2a7b;}.cls-3{fill:#fde9f1;}.cls-4{fill:#a02373;}</style></defs><title>logo_v2</title><path class="cls-1" d="M228.79,104.55c9,0,15,4.39,15,13.12,0,6.26-3.07,10.23-8,12l10,16.49h-9.93l-9-15.41h-6.8v15.41h-8.79V104.55Zm-8.73,18.78H229c3.79,0,6.44-1.68,6.44-5.48s-2.65-5.36-6.44-5.36h-8.91Z" transform="translate(-84.66 -54.05)"/><path class="cls-1" d="M258.95,113.63v20.46c0,3.67,2.41,5.24,5.48,5.24,2.17,0,4.27-.78,5.72-3.91V113.63h8.18v32.56h-7.64V143.3a11.84,11.84,0,0,1-9.09,3.67c-6.44,0-10.77-3.67-10.77-11.43V113.63Z" transform="translate(-84.66 -54.05)"/><path class="cls-1" d="M294.87,113.63v3.13a11.35,11.35,0,0,1,8.67-3.91c8.73,0,12,8.73,12,17.09s-3.31,17-12,17a11.19,11.19,0,0,1-8.12-3.31v12.28l-8.12,2.77V113.63Zm.54,10.29v12a7,7,0,0,0,6.08,3.67c4.75,0,6.38-4.39,6.38-9.63s-1.62-9.63-6.38-9.63A6.94,6.94,0,0,0,295.41,123.92Z" transform="translate(-84.66 -54.05)"/><path class="cls-1" d="M331.88,105.15a4.31,4.31,0,0,1-4.45,4.51,4.52,4.52,0,0,1,0-9A4.31,4.31,0,0,1,331.88,105.15Zm-.36,8.49v32.56H323.4V113.63Z" transform="translate(-84.66 -54.05)"/><path class="cls-1" d="M346.93,132.41c.78,5.18,3.91,7.28,7.22,7.28a6.52,6.52,0,0,0,5.6-3.13l5.42,4.69A14.11,14.11,0,0,1,353.67,147c-7.88,0-14.38-5.9-14.38-17.09s5.84-17,14-17,14.14,6,14.14,16.85a15.35,15.35,0,0,1-.18,2.71Zm.06-5.9h12.7c-.84-4.15-3.19-6.32-6.38-6.32S347.77,122.48,347,126.51Z" transform="translate(-84.66 -54.05)"/><polyline class="cls-2" points="71.16 20.92 51.84 21 31.43 0.7 31.43 25.38 44.45 38.22 63.69 38.22 77.26 51.86 63.76 65.43 45.63 65.43 45.64 65.69 45.01 65.47 45.01 104.95 31.43 118.46 31.43 143.13 62.37 112.36 62.37 82.79 71.16 82.79 101.93 51.86 71.16 20.92"/><polygon class="cls-3" points="31.43 0.7 0.5 31.48 0.5 112.36 31.43 143.13 31.43 118.46 17.79 104.89 17.79 38.95 31.43 25.38 31.43 0.7"/><polygon class="cls-4" points="31.43 119.16 17.29 105.1 17.29 38.74 31.43 24.67 44.65 37.72 48.72 37.72 48.72 38.72 44.24 38.72 31.43 26.08 18.29 39.16 18.29 104.68 31.43 117.75 44.51 104.75 44.51 64.94 45.51 64.94 45.51 105.16 31.43 119.16"/><rect class="cls-4" x="93.31" y="79.84" width="1" height="18.84" transform="translate(-110 85.93) rotate(-66.64)"/><rect class="cls-4" x="30.93" y="0.71" width="1" height="24.67"/><rect class="cls-4" x="137.85" y="153.27" width="1" height="18.87" transform="translate(-150.25 172.09) rotate(-66.9)"/><rect class="cls-4" x="30.93" y="118.46" width="1" height="24.67"/><rect class="cls-4" x="84.39" y="162.17" width="18.83" height="1" transform="translate(-141.47 -3.52) rotate(-23.36)"/><polygon class="cls-4" points="71.37 83.29 61.87 83.29 61.87 82.29 70.95 82.29 101.23 51.86 70.95 21.42 51.91 21.42 51.91 20.42 71.37 20.42 102.64 51.86 71.37 83.29"/><polygon class="cls-4" points="64.17 65.93 45.01 65.93 45.01 64.93 63.76 64.93 76.76 51.85 63.69 38.72 45.01 38.72 45.01 37.72 64.11 37.72 78.17 51.85 64.17 65.93"/><rect class="cls-4" x="142.67" y="83.12" width="18.84" height="1" transform="translate(-69.64 136.04) rotate(-66.64)"/><rect class="cls-4" x="77.26" y="51.36" width="24.67" height="1"/><rect class="cls-4" x="151.62" y="118.72" width="1" height="18.87" transform="translate(-122.75 15.9) rotate(-23.1)"/><rect class="cls-4" x="123.43" y="83.12" width="18.84" height="1" transform="translate(-81.26 118.37) rotate(-66.64)"/><polygon class="cls-4" points="31.43 143.84 0 112.56 0 31.27 31.43 0 52.19 20.65 51.49 21.36 31.43 1.41 1 31.69 1 112.15 31.43 142.43 61.87 112.15 61.87 82.79 62.87 82.79 62.87 112.56 31.43 143.84"/></svg>