<svg xmlns="http://www.w3.org/2000/svg" width="43.63" height="45.41" viewBox="0 0 43.63 45.41"><title>Artboard 29</title><g id="ILLO_4" data-name="ILLO 4"><path d="M26.4,9.67l9.92,1.63,2.34,3.16-.58,3.88-3.16,2.34L36,24.92l5.84-4.33L42.9,13.4,38.57,7.55,25.34,5.43Z" style="fill:#c093c3"/><path d="M25.41,4.92,38.64,7l.34.2,4.33,5.85.09.38-1.07,7.2-.2.33-5.85,4.34-.8-.29-1.06-4.24.19-.54,3-2.21.52-3.47L36,11.77l-9.71-1.59-.42-.39L24.84,5.55ZM38.28,8,26,6.05l.79,3.16,9.58,1.58.34.2,2.34,3.16.09.38-.58,3.89-.2.34L35.5,20.89l.79,3.16,5.06-3.74,1-6.78Z" style="fill:#7c3990"/><path d="M18.23,5.43,5,7.55.67,13.4l1.07,7.19,5.85,4.33,1.06-4.24L5.49,18.34l-.58-3.88L7.25,11.3l9.92-1.63Z" style="fill:#c093c3"/><path d="M18.73,5.55,17.67,9.79l-.42.39L7.54,11.77,5.45,14.59,6,18.06l3,2.21.2.54L8.09,25.05l-.81.29L1.44,21l-.2-.33L.16,13.47l.1-.38L4.59,7.24,4.93,7,18.15,4.92Zm-17.52,8,1,6.78,5.06,3.74.79-3.16L5.19,18.76,5,18.42,4.4,14.53l.1-.38L6.84,11l.34-.2,9.58-1.58.79-3.16L5.29,8Z" style="fill:#7c3990"/><polygon points="18.95 14.38 24.25 14.39 28.01 10.64 28.01 5.33 24.26 1.57 18.96 1.57 15.2 5.32 15.2 10.63 18.95 14.38" style="fill:#e6cae2"/><path d="M18.82,1.24H24.4l3.94,4v5.58l-3.95,4H18.81l-3.94-4V5.18Zm5.31.66h-5L15.53,5.45v5l3.56,3.56h5l3.56-3.56v-5Z" style="fill:#7c3990"/><polygon points="24.25 14.39 18.95 14.38 15.2 10.63 15.2 5.32 18.96 1.57 24.26 1.57 23.25 4.02 23.24 11.94 24.25 14.39" style="fill:#b87bb5"/><polygon points="19.96 11.94 23.24 11.94 25.56 9.62 25.57 6.34 23.25 4.02 19.97 4.02 17.64 6.33 17.64 9.62 19.96 11.94" style="fill:#c093c3"/><path d="M19.83,3.69h3.56L25.9,6.21V9.76l-2.51,2.51H19.82L17.31,9.75V6.2Zm3.28.66h-3L18,6.47v3l2.13,2.13h3l2.12-2.12v-3Z" style="fill:#7c3990"/><rect x="23.42" y="11.84" width="0.66" height="2.65" transform="translate(-3.23 10.06) rotate(-22.45)" style="fill:#7c3990"/><rect x="18.13" y="12.83" width="2.65" height="0.66" transform="translate(-0.16 26.07) rotate(-67.44)" style="fill:#7c3990"/><rect x="15.09" y="9.79" width="2.65" height="0.66" transform="translate(-2.62 7.04) rotate(-22.45)" style="fill:#7c3990"/><rect x="16.09" y="4.5" width="0.66" height="2.65" transform="translate(4.74 18.76) rotate(-67.45)" style="fill:#7c3990"/><rect x="19.13" y="1.47" width="0.66" height="2.65" transform="translate(0.41 7.64) rotate(-22.45)" style="fill:#7c3990"/><rect x="22.43" y="2.47" width="2.65" height="0.66" transform="translate(12.06 23.66) rotate(-67.44)" style="fill:#7c3990"/><rect x="25.47" y="5.51" width="2.65" height="0.66" transform="translate(-0.2 10.67) rotate(-22.45)" style="fill:#7c3990"/><rect x="26.46" y="8.81" width="0.66" height="2.65" transform="translate(7.16 30.98) rotate(-67.45)" style="fill:#7c3990"/><path d="M18.82,1.24H24.4l3.94,4v5.58l-3.95,4H18.81l-3.94-4V5.18Zm5.31.66h-5L15.53,5.45v5l3.56,3.56h5l3.56-3.56v-5Z" style="fill:#7c3990"/><rect x="9.06" y="17.49" width="25.44" height="24.75" style="fill:#b16e2c;stroke:#7d3990;stroke-miterlimit:10"/><polygon points="11.07 40.29 9.09 42.25 9.09 17.47 34.5 17.47 32.5 19.45 11.07 19.45 11.07 40.29" style="fill:#e1d768"/><rect x="11.07" y="19.45" width="21.43" height="20.85" style="fill:#fff34d;stroke:#7d3990;stroke-miterlimit:10"/><line x1="11.07" y1="19.45" x2="9.09" y2="17.47" style="fill:#da1c5c;stroke:#7c3990;stroke-miterlimit:10"/><line x1="32.5" y1="19.45" x2="34.48" y2="17.47" style="fill:#da1c5c;stroke:#7c3990;stroke-miterlimit:10"/><line x1="32.5" y1="40.29" x2="34.48" y2="42.27" style="fill:#da1c5c;stroke:#7c3990;stroke-miterlimit:10"/><line x1="11.07" y1="40.29" x2="9.09" y2="42.27" style="fill:#da1c5c;stroke:#7c3990;stroke-miterlimit:10"/><rect x="9.06" y="17.49" width="25.44" height="24.75" style="fill:none;stroke:#7c3990;stroke-miterlimit:10"/><circle cx="14.23" cy="37.71" r="0.82" style="fill:#bd92c2;stroke:#7d3990;stroke-miterlimit:10"/><circle cx="29.94" cy="22" r="0.82" style="fill:#bd92c2;stroke:#7d3990;stroke-miterlimit:10"/><circle cx="29.94" cy="37.71" r="0.82" style="fill:#bd92c2;stroke:#7d3990;stroke-miterlimit:10"/><circle cx="14.23" cy="22" r="0.82" style="fill:#bd92c2;stroke:#7d3990;stroke-miterlimit:10"/></g></svg>