<svg xmlns="http://www.w3.org/2000/svg" xmlns:xlink="http://www.w3.org/1999/xlink" width="47.74" height="44.28" viewBox="0 0 47.74 44.28"><defs><clipPath id="clip-path"><path d="M25.63,2H22.1a20.56,20.56,0,1,0,0,41.11h3.53" style="fill:none"/></clipPath></defs><title>Artboard 34</title><g id="ILLO_4" data-name="ILLO 4"><path d="M25.63,2H22.1a20.56,20.56,0,1,0,0,41.11h3.53" style="fill:#f2cd7b;stroke:#7c3990;stroke-miterlimit:10"/><g style="clip-path:url(#clip-path)"><line x1="0.85" y1="2.97" x2="21.81" y2="2.97" style="fill:#f5ebf4;stroke:#7d3990;stroke-linejoin:bevel"/><line x1="0.85" y1="6.11" x2="21.81" y2="6.11" style="fill:#f5ebf4;stroke:#7d3990;stroke-linejoin:bevel"/><line x1="0.85" y1="9.24" x2="21.81" y2="9.24" style="fill:#f5ebf4;stroke:#7d3990;stroke-linejoin:bevel"/><line x1="0.85" y1="12.37" x2="21.81" y2="12.37" style="fill:#f5ebf4;stroke:#7d3990;stroke-linejoin:bevel"/><line x1="0.85" y1="15.5" x2="21.81" y2="15.5" style="fill:#f5ebf4;stroke:#7d3990;stroke-linejoin:bevel"/><line x1="0.85" y1="18.64" x2="21.81" y2="18.64" style="fill:#f5ebf4;stroke:#7d3990;stroke-linejoin:bevel"/><line x1="0.85" y1="21.77" x2="21.81" y2="21.77" style="fill:#f5ebf4;stroke:#7d3990;stroke-linejoin:bevel"/><line x1="0.85" y1="24.9" x2="21.81" y2="24.9" style="fill:#f5ebf4;stroke:#7d3990;stroke-linejoin:bevel"/><line x1="0.85" y1="28.03" x2="21.81" y2="28.03" style="fill:#f5ebf4;stroke:#7d3990;stroke-linejoin:bevel"/><line x1="0.85" y1="31.17" x2="21.81" y2="31.17" style="fill:#f5ebf4;stroke:#7d3990;stroke-linejoin:bevel"/><line x1="0.85" y1="34.3" x2="21.81" y2="34.3" style="fill:#f5ebf4;stroke:#7d3990;stroke-linejoin:bevel"/><line x1="0.85" y1="37.43" x2="21.81" y2="37.43" style="fill:#f5ebf4;stroke:#7d3990;stroke-linejoin:bevel"/><line x1="0.85" y1="40.56" x2="21.81" y2="40.56" style="fill:#f5ebf4;stroke:#7d3990;stroke-linejoin:bevel"/><line x1="0.85" y1="42.13" x2="21.81" y2="42.13" style="fill:#f5ebf4;stroke:#7d3990;stroke-linejoin:bevel"/></g><path d="M25.63,2A20.56,20.56,0,1,0,46.18,22.55,20.56,20.56,0,0,0,25.63,2Z" style="fill:#efb032;stroke:#7c3990;stroke-miterlimit:10"/><path d="M25.63,5.61A16.95,16.95,0,1,0,42.57,22.55,16.94,16.94,0,0,0,25.63,5.61Zm0,33.89a16.95,16.95,0,0,0,0-33.89" style="fill:#f2c43c;stroke:#7c3990;stroke-miterlimit:10"/><path d="M25.63,39.5a16.95,16.95,0,0,0,0-33.89H25.1A16.94,16.94,0,0,1,25,39.48" style="fill:#f2cd7b;stroke:#7c3990;stroke-miterlimit:10"/><line x1="24.96" y1="12.69" x2="24.96" y2="16.33" style="fill:none;stroke:#7d3990;stroke-miterlimit:10"/><line x1="24.96" y1="29.2" x2="24.96" y2="32.85" style="fill:none;stroke:#7d3990;stroke-miterlimit:10"/><line x1="27.14" y1="12.69" x2="27.14" y2="16.33" style="fill:none;stroke:#7d3990;stroke-miterlimit:10"/><line x1="27.14" y1="29.2" x2="27.14" y2="32.85" style="fill:none;stroke:#7d3990;stroke-miterlimit:10"/><path d="M32.2,19.71h0a3.38,3.38,0,0,0-3.38-3.38H23a3.34,3.34,0,0,0-3.4,3.05,3.22,3.22,0,0,0,3.21,3.39H29.1a3.33,3.33,0,0,1,3.39,3,3.21,3.21,0,0,1-3.21,3.39H22.52a3.37,3.37,0,0,1-3.38-3.37v0" style="fill:none;stroke:#7d3990;stroke-miterlimit:10"/></g></svg>